<svg xmlns="http://www.w3.org/2000/svg" viewBox="0 0 254 72" width="254" height="72">
  <g>
    <path fill="#959CA5" d="M19.047 12.969a.415.415 0 11-.7126-.4256.415.415 0 01.7126.4256zm-.012-.793a.676.676 0 10-.6914 1.1618.676.676 0 00.6914-1.1618zm-5.709.793a.415.415 0 11-.145-.569.417.417 0 01.145.569zm-.012-.793a.676.676 0 10.235.927.676.676 0 00-.234-.927h-.001zm3.092-5.671a.562.562 0 010-.957.586.586 0 10-1.172 0 1.5 1.5 0 00.267 1.436.563.563 0 00-.032.936.562.562 0 01-.234.457.586.586 0 101.172 0 1.458 1.458 0 00-.267-1.392.564.564 0 01.267-.479l-.001-.001zm-.587-1.283a.325.325 0 11-.002.65.325.325 0 01.002-.65zm0 3.478a.325.325 0 11.002-.65.325.325 0 01-.002.65zm0-.913a.325.325 0 11.002-.65.325.325 0 01-.002.65zm0-.958a.325.325 0 11.326-.324.325.325 0 01-.326.325v-.001zm-3.627 42.343a.415.415 0 11-.83-.0042.415.415 0 01.83.0042zm-.415-.677a.677.677 0 10-.002 1.354.677.677 0 00.002-1.354zm8.229.677a.416.416 0 11-.8319-.0133.416.416 0 01.8319.0133zm-.416-.677a.677.677 0 10.479.2.677.677 0 00-.48-.2h.001zm3.907-1.378a.416.416 0 11-.832-.0034.416.416 0 01.832.0034zm-.416-.677a.677.677 0 100 1.354.677.677 0 000-1.354zm-6.845 3.415a.416.416 0 11-.832.006.416.416 0 01.832-.006zm-.416-.676a.677.677 0 10.002 1.354.677.677 0 00-.002-1.354zm.416 8.163a.416.416 0 11-.832.002.416.416 0 01.832-.002zm-.416-.677a.677.677 0 10.002 1.354.677.677 0 00-.002-1.354zm3.339-2.455l-.138.02a1.776 1.776 0 00-1.277 1.3A1.558 1.558 0 0117 56.538a1.289 1.289 0 01-1.05-.106c-.049-.021-.093-.041-.13-.054-.037.014-.081.033-.13.054a1.289 1.289 0 01-1.05.106 1.558 1.558 0 01-.744-1.008 1.775 1.775 0 00-1.277-1.3l-.137-.02.029-.137c.008-.033.189-.81 1.368-.81a1.283 1.283 0 011.058.505 1.024 1.024 0 011.766 0 1.283 1.283 0 011.058-.505c1.179 0 1.36.777 1.368.81l.03.137zm-1.4-.686a1.042 1.042 0 00-.981.606l-.2.374-.048-.42a.735.735 0 00-1.428 0l-.048.42-.2-.374a1.042 1.042 0 00-.981-.606 1.093 1.093 0 00-1.063.487 2.124 2.124 0 011.329 1.439c.0755.355.2921.664.6.856a1.071 1.071 0 00.839-.108c.084-.037.233-.093.233-.093s.149.056.233.093a1.07 1.07 0 00.839.108 1.338 1.338 0 00.6-.856 2.124 2.124 0 011.329-1.439 1.093 1.093 0 00-1.051-.486l-.002-.001zm.026-28.227l-1.012-.425-.08.834h.11a1.462 1.462 0 00.858-.305l.124-.104zm-.875.207l.033-.348.448.188a1.264 1.264 0 01-.481.16z"/>
    <path fill="#959CA5" d="M21.862 15.363a.618.618 0 00.089-.112.625.625 0 00-.217-.855.556.556 0 00-.152-.063v-.626a.622.622 0 00.14-1.132.848.848 0 00-.085-.041v-.185l.025-.1.281-1.093c.223-.3.44-.611.652-.916a.568.568 0 00.194.034.588.588 0 00.587-.586.573.573 0 00-.069-.271.644.644 0 00.113.02.587.587 0 00.587-.586.566.566 0 00-.218-.425h.029a.587.587 0 00.586-.586.568.568 0 01.258-1.012.58.58 0 00-.474-.564.562.562 0 00.139-.351.587.587 0 00-.587-.587.575.575 0 00-.261.063.585.585 0 00-.581-.558.562.562 0 01-.916.015.584.584 0 00-.519.327.577.577 0 00-.44-.214.569.569 0 00-.092.025.582.582 0 00-.548-.792.573.573 0 00-.323.115.583.583 0 00-.578-.543.575.575 0 00-.475.262 1.6 1.6 0 01-1.416.014.581.581 0 00-.4.161 1.349 1.349 0 00.121-.567 1.251 1.251 0 00-1.064-1.19l.025-.43.811.085V.929l-.8.083.08-.828h-1.092l.08.828-.792-.083v1.17l.808-.085.026.431a1.216 1.216 0 00-1.026 1.19 1.433 1.433 0 00.108.558.582.582 0 00-.391-.152.568.568 0 00-.342.121 2.173 2.173 0 01-1.548-.4.584.584 0 00-.578.543.572.572 0 00-.324-.115.587.587 0 00-.586.587.573.573 0 00.04.2.622.622 0 00-.093-.021.573.573 0 00-.441.214.583.583 0 00-.518-.327.562.562 0 01-.916-.015.586.586 0 00-.582.561.563.563 0 00-.261-.067.587.587 0 00-.587.587.572.572 0 00.139.352 2.44 2.44 0 01-.147 1.477.584.584 0 00.575.586.551.551 0 00.063-.013c-.014.021-.037.031-.049.055a.588.588 0 00-.063.259.578.578 0 00.525.574.56.56 0 00.513.828c.252.37.593.847.875 1.231l.258 1.1v.263a.67.67 0 00-.135.157.625.625 0 00.216.853v.7a.622.622 0 00-.4.739.641.641 0 00.124.241C4.236 18.211.286 25.06.286 33.03a20.928 20.928 0 006.03 15.181l-.508.6.087.085c.007.008.745.73 1.286 1.184a10.766 10.766 0 001.475.962l.108.059.44-.7a13.355 13.355 0 004.148 1.573v.8l.108.02a11.5 11.5 0 004.707 0l.107-.02v-.791a14.137 14.137 0 006.916-3.654h.006v-.006a17.539 17.539 0 002.362-2.736 22.033 22.033 0 003.783-12.557c.008-7.921-3.909-14.748-9.479-17.667zm-.262-.742a.359.359 0 01.01.614 13.2 13.2 0 00-2.818-1.031c.92.084 1.817.209 2.684.372a.373.373 0 01.124.044v.001zm-10.841-2.046a.618.618 0 00-.457-.07v-.185l.1-.02a29.074 29.074 0 014.454-.473 1.033 1.033 0 101.951 0 29.118 29.118 0 014.56.475h.015v.186a.622.622 0 00-.059 1.239v.552a31.93 31.93 0 00-10.937 0v-.555a.622.622 0 00.376-1.155l-.003.006zm4.415-.816a.764.764 0 11-.059.112.828.828 0 01.058-.111l.001-.001zm6.541 1.537a.362.362 0 11-.335-.546h.073a.361.361 0 01.262.543v.003zm1.074-3.28a.324.324 0 11.0027-.648.324.324 0 01-.0027.648zm.631-.837a.33.33 0 01-.324-.324.325.325 0 11.324.325v-.001zm.4-1.005a.337.337 0 01-.326-.325.325.325 0 11.326.325zm.581-1.337a.322.322 0 01-.29.321h-.035a.324.324 0 01-.04-.646h.04a.325.325 0 01.325.325zm-.916-1.112a.319.319 0 01.256-.131.327.327 0 01.326.327.322.322 0 01-.153.274.331.331 0 01-.174.051.325.325 0 01-.325-.324.313.313 0 01.069-.2l.001.003zm-.91-.318V5.39a.325.325 0 01.647.036.308.308 0 01-.028.129.324.324 0 01-.622-.129l.003-.019zm-.593-.292a.323.323 0 01.321.278.319.319 0 010 .048.325.325 0 01-.325.325.321.321 0 01-.321-.3V5.437a.326.326 0 01.325-.324v.002zm-.44.7a.569.569 0 00.44.213.561.561 0 01.916-.014.469.469 0 01.721.469.569.569 0 00-.129.354.57.57 0 01-.256 1.012.576.576 0 00.188.419.586.586 0 00-.585.587.559.559 0 00.073.269.581.581 0 00-.533.979c-.163.236-.322.46-.491.693l-.359-.157a.5.5 0 00-.324-.023 7.318 7.318 0 001.507-3.173 1.059 1.059 0 00-.315-.817 1.157 1.157 0 00-.854-.248.6.6 0 00-.242-.316.584.584 0 00.241-.248l.002.001zm-1.806 4.347c.257-.423.459-.775.629-1.093h.043a.588.588 0 00.587-.587.569.569 0 00-.143-.357.584.584 0 00.546-.577.571.571 0 00-.248-.454.582.582 0 00.409-.458.9.9 0 01.661.183.8.8 0 01.228.622c0 .747-.85 2.144-1.824 3.559l-.1.145a.687.687 0 00-.3.105.86.86 0 00-.254-.233.417.417 0 000-.043 1.428 1.428 0 00-.234-.817v.005zm1.075-2.937a.3255.3255 0 110 .651.355.355 0 01-.058-.006.325.325 0 01.058-.645zm-.155-.68a.324.324 0 01.647-.019V6.548a.322.322 0 01-.267.313.271.271 0 01-.058.006.325.325 0 01-.326-.324l.004.002zm-.055 1.681a.321.321 0 01.133.26c0 .18-.146.326-.326.326a.337.337 0 01-.082-.013.324.324 0 01.082-.638.319.319 0 01.193.065zm.264-2.952a.318.318 0 01.157-.044.327.327 0 01.322.284V5.555a.326.326 0 11-.484-.282l.005.001zm-.747-.672a.325.325 0 11.532.3735.325.325 0 01-.532-.3735zm-.959-.26a.325.325 0 01.649.018.332.332 0 01-.014.087.324.324 0 01-.636-.087l.001-.018zm-.665-.366a.327.327 0 01.326.326v.028a.325.325 0 11-.323-.353l-.003-.001zm-.9.334a.326.326 0 01.323.291v.035a.326.326 0 11-.327-.326h.004zm-3.827.316v-.02a.312.312 0 110 .031v-.011zm-.577-.65a.326.326 0 01.325.326.325.325 0 01-.648.031v-.032a.326.326 0 01.325-.325h-.002zm-.989.058a.325.325 0 01.323.309V4.364a.325.325 0 01-.64.072.308.308 0 01-.012-.08.326.326 0 01.325-.326l.004.004zm-.325.807a.968.968 0 011.314.046.567.567 0 00.339-.128.575.575 0 00.985.279 6.385 6.385 0 00.621.157l.131-.485-.071-.053a1.2 1.2 0 01-.561-1.015.978.978 0 01.918-.952l.122-.015-.049-.81-.115-.121-.683.072v-.591l.683.072.124-.13-.069-.716h.517l-.068.716.124.129.685-.072v.591l-.685-.072-.115.121-.048.81.122.016a1.012 1.012 0 01.957.951 1.22 1.22 0 01-.6 1.015l-.072.053.132.484a6.262 6.262 0 00.65-.162.575.575 0 00.989-.273.547.547 0 00.815-.132.583.583 0 00.513.317.572.572 0 01.9.429.617.617 0 00.11-.024.572.572 0 00-.056.2 1.878 1.878 0 00.183 1.545.72.72 0 00-.315 1.039.576.576 0 01-.483.346.585.585 0 00.29.5c-.154.285-.335.6-.559.97a.78.78 0 00-.29-.159.906.906 0 00-.734.151l.026-.073a9.521 9.521 0 00.748-3.193 1.017 1.017 0 00-.4-.888 2.533 2.533 0 00-2 0l-.089.03v.093a25.382 25.382 0 01-.327 3.487.972.972 0 00-1.344-.02 25.134 25.134 0 01-.324-3.467v-.093l-.088-.03a2.539 2.539 0 00-2 0 1.019 1.019 0 00-.4.888 9.2 9.2 0 00.8 3.276.935.935 0 00-.83-.219.779.779 0 00-.151.062c-.191-.317-.35-.594-.487-.848a.586.586 0 00.345-.534.58.58 0 00-.457-.561.571.571 0 00.131-.352.576.576 0 01-.291-.974.584.584 0 00-.369-.541.578.578 0 00.206-.437.557.557 0 00-.06-.208.514.514 0 00.689-.506l.021.009zm2.787-.333a1.772 1.772 0 00.306.305l-.021.076c-.094-.023-.191-.05-.3-.081a.575.575 0 00.011-.301l.004.001zm2.37.294c-.116.035-.224.064-.329.087l-.021-.075a1.861 1.861 0 00.349-.339.573.573 0 00-.023.161.583.583 0 00.02.165l.004.001zm1.278 4.989l-.238.686a.661.661 0 00-.477.15.964.964 0 00-.588-.33 1.786 1.786 0 00-.287-.637 26.884 26.884 0 00.363-3.642c.323-.1 1.21-.339 1.672-.009a.762.762 0 01.287.675 9.37 9.37 0 01-.734 3.108l.002-.001zm-3.386-.163a1.767 1.767 0 00-.307.661.809.809 0 00-.586.325.723.723 0 00-.431-.179l-.155-.423a9.444 9.444 0 01-.839-3.328.763.763 0 01.287-.675c.463-.33 1.349-.094 1.673.009a26.625 26.625 0 00.358 3.61zm-3.311 1.324a.307.307 0 01-.432.27l-.1-.145C10.109 9.661 9.2 8.19 9.2 7.444a.787.787 0 01.243-.636 1.033 1.033 0 01.807-.154.589.589 0 00.241.361.574.574 0 00.225.071.565.565 0 00-.152.22.536.536 0 00.441.756.552.552 0 00.277.921.65.65 0 00.129.022c.152.285.328.595.546.958l-.037.04a1.447 1.447 0 00-.308.934l.002.015zm-.5-3.12a.331.331 0 01-.169-.049.324.324 0 01-.156-.276.307.307 0 01.021-.112.324.324 0 11.3.437h.004zm.651.588c0 .18-.146.326-.326.326a.358.358 0 01-.086-.014.325.325 0 11.412-.312zm-.942-1.561a.322.322 0 01-.184-.058.328.328 0 01-.141-.264.325.325 0 11.326.326l-.001-.004zm.476-2.4a.331.331 0 01.326.326.326.326 0 11-.326-.326zm-.963 1.079v-.019a.314.314 0 110 .033v-.014zm-.957-.15a.325.325 0 01.647.051v.033a.324.324 0 01-.647-.033.482.482 0 010-.051zm-.594-.289a.323.323 0 01.32.286v.039a.325.325 0 11-.324-.325h.004zm-.844.493a.326.326 0 11.002.652.326.326 0 01-.002-.652zm-.4 1.561a.325.325 0 01.061-.644h.016a.3251.3251 0 11-.016.65.291.291 0 01-.061-.007v.001zm.389.919h-.009a.328.328 0 11.009 0zm.524.887h-.01a.324.324 0 01-.316-.324.331.331 0 01.325-.326.325.325 0 010 .65h.001zm.5.811H8.91a.34.34 0 11.044 0zm.222.2a1.694 1.694 0 01-.135-1.333.589.589 0 00-.587-.587c-.016 0-.028.012-.044.013a.566.566 0 00.1-.313.563.563 0 01-.325-.913.555.555 0 01.332-.9.925.925 0 011.176.093.573.573 0 00.439-.214.587.587 0 00.3.282.6.6 0 00-.186.3 1.257 1.257 0 00-.979.216 1.048 1.048 0 00-.338.837 7.79 7.79 0 001.572 3.257.572.572 0 00-.332.011l-.367.154c-.218-.3-.429-.6-.631-.9l.005-.003zm.823 1.1l.122-.055c.054-.024.094-.041.125-.056a.565.565 0 01.538.182 1.051 1.051 0 01.2.264l.036.067h.076a.472.472 0 01.223.055l.149.084.043-.165a.438.438 0 01.291-.3l.082-.037v-.089-.054a.231.231 0 010-.032 1.182 1.182 0 01.244-.763.567.567 0 01.271-.182.881.881 0 01.9.539.988.988 0 01.045.088l.038.076h.085a.5.5 0 01.492.223l.143.224.09-.25c.078-.219.234-.32.537-.351h.019l.1-.012.017-.094c.0445-.25.151-.485.31-.683a.773.773 0 011.318.026 1.518 1.518 0 01.289.656l.016.085.085.018h.006l.025.007a.676.676 0 01.554.354l.093.21.132-.187a.416.416 0 01.437-.173l.092.011.04-.083c.023-.046.049-.094.081-.144a.845.845 0 01.863-.478.587.587 0 01.287.2 1.14 1.14 0 01.232.726c0 .012 0 .029-.005.047s-.005.037-.006.057l-.006.083.072.041a.585.585 0 01.3.3l.078.2.143-.166a.41.41 0 01.324-.138h.076l.036-.068a1.069 1.069 0 01.14-.2.6.6 0 01.589-.244l.135.06.131.057-.016.065-.251.979a29.851 29.851 0 00-4.779-.491 1.03 1.03 0 00-1.673 0 29.527 29.527 0 00-4.642.481l-.114.023-.258-.993zm.129 1.852a.362.362 0 11.6188.3758.362.362 0 01-.6188-.3758zm-.15 2.095a.37.37 0 01.276-.448c.827-.159 1.684-.279 2.563-.361a13.23 13.23 0 00-2.726.993.353.353 0 01-.113-.184zm-1.3 35.75a9.879 9.879 0 01-1.327-.875c-.424-.355-.974-.883-1.183-1.086l.429-.507.93-1.1a.686.686 0 00.425.128.706.706 0 00.507-.254.815.815 0 00.024-1l.92-1.089.212-.25c.192.161.615.515.866.715.266.212.846.57 1.092.72l-2.895 4.598zm-1.427-4.913a2.5 2.5 0 01.968.311.578.578 0 01.04.739.433.433 0 01-.318.16.442.442 0 01-.332-.138 3.353 3.353 0 01-.358-1.073v.001zm6.1 5.869a13.124 13.124 0 01-4.009-1.529l2.214-3.523a9.537 9.537 0 001.795.72v4.332zm0-5.055v.452a9.252 9.252 0 01-1.543-.614h1.543v.162zm4.661 5.9a11.1 11.1 0 01-4.4 0v-5.734a7.889 7.889 0 004.4 0v5.734zm.1-6.028a7.8 7.8 0 01-4.594 0l-.135-.035h4.864l-.135.035zm-6.327-.23l.147-.234-.114-.07s-.178-.105-.4-.243h2.71v-.2h-3.017c-.182-.118-.359-.239-.471-.329-.077-.061-.171-.137-.269-.218h3.757v-.2h-3.993c-.242-.2-.452-.378-.456-.38l-.1-.085-.291.344c-.144-.137-.284-.28-.422-.425h5.262v-.2h-3.609c.2-.1.683-.319 1.276-.546h6.648l-.34.209.824.217-.047.12h-3.772v.2h3.7l-.214.547h-3.481v.2h6.878c-.217.193-.441.375-.67.547h-6.207v.2h5.939a9.843 9.843 0 01-.865.547l-8.403-.001zM7.646 23.3a19.706 19.706 0 01.405-.547h1.522v-.2H8.206c.1527-.1873.3087-.3697.468-.547h.9v-.2h-.717c.1793-.1893.363-.3713.551-.546h6.178l-.463.115-.665.431h-3.9v.2h3.6l-.843.547h-2.754v.2h2.453l-.843.547h-1.609v.2h1.308l-.843.547H7.166c.115-.186.231-.369.353-.547H9.58v-.2H7.646zm2.916-2.969a10.2 10.2 0 01.862-.547h1.912v-.2h-1.549a9.385 9.385 0 011.305-.547h.244v-.077a8.6 8.6 0 014.518-.118h-3.539v.2h4.221a9.369 9.369 0 011.306.547h-5.527v.2h5.889a10.1 10.1 0 01.862.547h-1.652v.2h1.92c.2287.172.452.3543.67.547h-2.59v.2h2.806c.1887.1747.3727.3567.552.546h-3.359v.2h3.54c.16.1767.316.359.468.547h-7.478.006l.38-.543h2.1v-.2h-1.968l.382-.546h1.586v-.2H16.98l.133-.189-.758.189H9.617c.218-.1927.4413-.375.67-.547h8.142v-.2l-7.867-.009zm14.439 4.648c.093.18.183.362.269.548h-1.136v.2h1.226c.082.18.16.362.236.547h-1.462v.2h1.54c.071.18.139.363.2.547h-5.213V26.9a2.107 2.107 0 00.342-.425h2.143v-.2h-2.031a2.132 2.132 0 00.125-.294l.041-.131-.31.011.071-.079.083-.055h2.021v-.2H21.42l.4-.265-.715-.283h2.04v-.2h-2.534l-.325-.128-.231.412-.215-.142.086-.153.536-.248.161-.288h3.956c.105.18.209.362.308.547h-.763v.2h.877zm1.872 8.908c-.008.183-.019.366-.032.547h-1.755v.2h1.743c-.015.183-.034.366-.055.547h-1.688v.2h1.665c-.023.184-.05.366-.078.548h-3.835v-.049a2.272 2.272 0 00-.022-.5h1.287v-.2h-1.317a3.423 3.423 0 00-.171-.547h1.494v-.2h-1.577c-.076-.168-.168-.346-.28-.547h1.857v-.2H22.14c-.077-.131-.156-.263-.235-.39 0 0-.052-.088-.093-.156h5.087c0 .183 0 .365-.011.547h-1.8v.2h1.785zm-1.006 5.2c-.0667.1847-.1353.367-.206.547h-.025v.063a15.631 15.631 0 01-.651 1.422h-1.858c.027-.2.061-.38.1-.548h1.43v-.2h-1.382a2.778 2.778 0 01.207-.537l.005-.01h1.17v-.2h-3.524a8.0244 8.0244 0 00-.072-.547h3.6v-.2h-3.633c-.028-.133-.063-.326-.119-.547h5.208c-.056.1833-.115.3657-.177.547h-.3v.2l.227.01zm-7.27 4.59l.547-.336-.449-.466c.086-.027.176-.054.276-.081a5.548 5.548 0 012.237-.169l.107.021.009-.11a2.7 2.7 0 01.1-.551 2.756 2.756 0 01.2-.492l.121-.217-.236.075a3.452 3.452 0 01-2.815-.275l-.685 1.05a2.056 2.056 0 01-.172-.223 3.255 3.255 0 01-.353-.72 5.906 5.906 0 01-.2-.73c-.05-.229-.094-.476-.126-.734-.031-.237-.056-.484-.074-.736-.016-.237-.027-.485-.031-.737-.006-.344 0-.61.006-.738v-.129a2.781 2.781 0 00-.25-.662 2.657 2.657 0 00-.607-.771 2.216 2.216 0 00-.465-.315c-.242-.123-.5-.27-.772-.437-.471-.292-.858-.574-1.057-.724a3.331 3.331 0 001.041-.6 2.671 2.671 0 00.745-1.083c.105.079.281.205.5.349a6.331 6.331 0 001.517.754 2.488 2.488 0 00.354.078l.113.015a2.128 2.128 0 01.365.593c.053.123.107.259.157.388.04.1.077.213.113.342a5.983 5.983 0 01.155.731l.01.073.007.045.039.024a5.436 5.436 0 01.8.653c.062.06.126.128.19.2.081.092.152.191.228.282a4.181 4.181 0 01.611 1.691c.056.313.084.571.1.732.008.1.011.162.011.162v.106l.1-.012a3.473 3.473 0 011.493.3l.058.027.048-.042a2.994 2.994 0 01.534-.294 3.645 3.645 0 00-.146.461 6.283 6.283 0 00-.135.755c-.028.233-.049.485-.06.75-.01.238-.015.489-.012.746 0 .323.017.6.027.765a9.31 9.31 0 00-2.931.626c-.429.152-.788.3-1 .386l.1-.258.152-.385-.595-.153zm-9.032-.438l.623-.707-.713-.236c.188-.091.379-.172.578-.247a4.538 4.538 0 012.076-.338l.178.019-.057-.15a2.343 2.343 0 00-.22-.418 3.76 3.76 0 00-.694-.764 7.407 7.407 0 00-1.069-.752 10.886 10.886 0 00-1.16-.592 1.7 1.7 0 011.113-.377h.043l.031-.031c.11-.108.227-.214.361-.326a5.887 5.887 0 011.124-.731 8.041 8.041 0 012.318-.732 9.042 9.042 0 011.68-.126c.024.019.064.054.113.1a2.165 2.165 0 01.514.707.855.855 0 01.017.668.9.9 0 01-.114.2 2.019 2.019 0 01-.61.5 7.616 7.616 0 01-2.153.716l.082.156c.112.2275.193.469.241.718a4 4 0 01.075.724 3.759 3.759 0 01-.014.4l-.013.116.74-.04a2.007 2.007 0 00-.213.2 2.682 2.682 0 00-.5.772c-.013.028-.022.052-.03.072a10.665 10.665 0 00-2.16.618c-.559.215-1.025.427-1.256.536l.071-.715-1.002.06zm-.93-7.647l-.638.391-.182-.247.884-.845-.975.195-.087-.192a1.754 1.754 0 01.2-.177 1.537 1.537 0 01.146-.1 1.946 1.946 0 01.381-.176 1.872 1.872 0 01.379-.082c.067-.008.128-.012.185-.013a1.381 1.381 0 00.163-.021l.511-.079.018-.449.017-.336.044.01.168.567.1-.051c.07-.033.138-.07.209-.11a6.686 6.686 0 00.617-.416c.148-.107.3-.219.471-.328.115-.076.226-.142.34-.2a2.61 2.61 0 01.326-.148 3.651 3.651 0 011.829-.162 1.818 1.818 0 01-.116.414 2.851 2.851 0 01-.424.7 4.01 4.01 0 01-.731.724 4.291 4.291 0 01-1.444.725l-.039.013a5.814 5.814 0 00-.749.264 4.519 4.519 0 00-.433.213c-.117.066-.229.137-.333.209l-.05.038-.027.021a3.3 3.3 0 00-.278.226 2.41 2.41 0 00-.425.5h-.094l-.226-.268.394-.674-.131-.136zm.34-1.445l-.05.006c-.042 0-.087 0-.133.007l-.458-.97-.176.082.431.914a1.937 1.937 0 00-.228.054l-.642-.594-.133.146.566.523a2.135 2.135 0 00-.249.125h-.207l-1.056-.915.018-.257.33.181.043-.428.409.156.087-.458.375.142.072-.386.371.22.069-.367.268.177.131-.306.264.256.257-.317.159.3-.082 1.642-.242.039-.055-1.014-.2.011.061 1.031zm-.027-4.055l-.082-.1-.381.545c-.048-.119-.118-.292-.2-.487-.108-.278-.2-.526-.281-.741a8.592 8.592 0 01-.186-.554c.295.0507.598.0294.883-.062a1.246 1.246 0 00.682-.559 6.134 6.134 0 00.591.542 6.809 6.809 0 001.145.752 5.82 5.82 0 001.136.449c-.067.041-.131.083-.193.127a2.706 2.706 0 00-.713.771 3.355 3.355 0 00-.347.763 4.974 4.974 0 00-.124.489c-.249-.184-.46-.355-.658-.532a8.094 8.094 0 01-.718-.734c-.19-.218-.39-.46-.56-.669h.006zm.274.637h-.634l.29-.413c.108.133.226.275.344.413zm-2.376-2.514c0-.015 0-.031-.007-.046a2.963 2.963 0 00.587.334h-.634a.565.565 0 00.053-.287l.001-.001zm.547.057a2.6 2.6 0 01-.7-.484 1.7 1.7 0 01-.272-.348.544.544 0 01-.086-.317.452.452 0 01.168-.306.352.352 0 01.2-.093l.1.01.009-.1a1.011 1.011 0 01.052-.228.478.478 0 01.171-.247.357.357 0 01.344-.041l.142.071v-.159c0-.06.016-.24.1-.3h.32c.064.02.119.042.119.042l.111-.156-.052-.053a2.822 2.822 0 00-.6-.475.776.776 0 01.074-.142 1.189 1.189 0 01.6-.428c.04.091.109.248.19.416a2.975 2.975 0 00.415.694l.056.056 6.337-4.108 1.459-.364-.839 1.206c-1.2.726-6.418 3.879-6.418 3.879s.075.107.1.139a3.651 3.651 0 00.743.743 1.313 1.313 0 01-.749.516 1.39 1.39 0 00-.521-.949l-.12-.08-.029.141c0 .019-.083.412-.128.7a1.956 1.956 0 01-.6-.547l-.173.083c0 .006.143.495.223.784a1.328 1.328 0 01-.7-.467l-.181.065c0 .027.07.533.132.85l.003-.003zm-.855.259a.378.378 0 11-.5296-.5395.378.378 0 01.5296.5395zm2.1-3.545h.938l-.68.442a3.131 3.131 0 01-.257-.442h-.001zm8.8-1.739l.908.644-.219.414.624.266.183-.4-.113-.574.2-.326 1.093-.216.423.97-.2.358-.536.247-.207.368.543.359.25-.448 1.025.406-.482.319-.22.241-.827.028.007.2 1.124-.039a2.26 2.26 0 01-.136.267 1.943 1.943 0 01-.367.459 1.481 1.481 0 01-.354.241l.083.176a1.543 1.543 0 00.23-.135v.044a4.294 4.294 0 01-.124.725 7.2 7.2 0 01-.236.733c-.048.126-.1.24-.133.331-.033.091-.064.158-.083.21-.019.052-.043.131-.064.209a6.465 6.465 0 00-.145.755c-.011.079-.02.145-.026.2l-.31-.115-.016.123a5.084 5.084 0 01-.094.527c-.031.134-.064.255-.095.372-.036.132-.069.258-.092.373-.01.054-.018.1-.024.145a1.775 1.775 0 00.053.64 2.422 2.422 0 00.138.392 1.747 1.747 0 01-.941-.183l-.083-.041-.047.08a1.328 1.328 0 00-.138.457 4.541 4.541 0 00-.033.715c-.066-.015-.137-.031-.21-.053a6.067 6.067 0 01-1.464-.73c-.351-.228-.594-.419-.6-.421l-.112-.088-.042.136a2.647 2.647 0 01-.17.412 2.412 2.412 0 01-.561.711 3.216 3.216 0 01-1.147.625c-.116.036-.234.07-.352.1a4.736 4.736 0 01-.637.1 4.179 4.179 0 00.677-.688 3.7 3.7 0 00.459-.764 1.874 1.874 0 00.141-.651 4.425 4.425 0 00-2.112.158 3.166 3.166 0 00-.351.16 4.849 4.849 0 00-.353.212l-.063.042-.143.1a6.1 6.1 0 01.093-.783l.019-.112a4.467 4.467 0 01.145-.618 3.267 3.267 0 01.326-.72 2.485 2.485 0 01.661-.713 2.678 2.678 0 01.387-.234 4.313 4.313 0 011.9-.368 3.755 3.755 0 00.974-.126 3.332 3.332 0 001.4-.766 2.169 2.169 0 00.243-.259l.206-.277-.322.128a3.47 3.47 0 01-1 .238 3.116 3.116 0 01-.549 0c-.1-.008-.186-.02-.262-.033a2.03 2.03 0 00.415-.526 2.3 2.3 0 001.577-.407.581.581 0 00.174-.422.987.987 0 00-.7-.835.509.509 0 00-.126-.017.86.86 0 00-.151.015 1.645 1.645 0 00-.867.594l-.079-.336-.013-.049-.045-.018a.68.68 0 01-.231-.162 1.223 1.223 0 01-.273-.692l1.273-.334.11-.481 1.012-.055.215-.927-.011-.583zm1.292.9l-.077.169-.253-.107.2-.378-.462-.328h.512l-.034.056.114.588zm5.389 5.6a.913.913 0 01.179.361.83.83 0 01-.077.666 1.037 1.037 0 01-.136.184 1.915 1.915 0 00-.035-.16 2.109 2.109 0 00-.421-.78 2.182 2.182 0 00-.322-.317c-.26-.192-.393-.311-.483-.388l-.055-.049a.76.76 0 00-.342-.107 1.556 1.556 0 00-.8.1.892.892 0 00-.209.152 2.013 2.013 0 00-.456.637 2.425 2.425 0 00-.174.774v.038a2.379 2.379 0 00.073.735c.067.2628.161.5178.281.761l.142.291.078-.214a.8.8 0 01.032-.077 1.007 1.007 0 011.475-.415 1.206 1.206 0 00-.9.3 1.187 1.187 0 00-.384.68c-.008.048-.018.221-.018.221l.159.263c.09.15.179.3.264.442a7.2 7.2 0 01.379.732 3.306 3.306 0 01.233.72c.0372.1862.05.3765.038.566 0 .046-.007.094-.014.147a2.215 2.215 0 01-.216.71 1.947 1.947 0 01-1.124.979 1.977 1.977 0 01-.561.1 2.638 2.638 0 00-.351-.623 1.327 1.327 0 00.719-.04 1.309 1.309 0 00.5-.3 1.425 1.425 0 00.346-.525l.007-.018v-.018a1.605 1.605 0 00-.023-.269 1.571 1.571 0 00-2.321-1.087c.37-.6255 1.1624-.8558 1.81-.526l.291.149-.161-.283c-.1-.17-.2-.345-.3-.512 0 0-.3-.49-.433-.737a6.605 6.605 0 01-.351-.732 3.85 3.85 0 01-.216-.725 2.848 2.848 0 01-.047-.718 3.392 3.392 0 01.121-.721 2.571 2.571 0 01.324-.715 2.3 2.3 0 01.738-.714 2.126 2.126 0 01.446-.2 2.6 2.6 0 01.6-.132 18.824 18.824 0 011.99.079 1.913 1.913 0 001.037-.232 1.5 1.5 0 01.022.381 1.2 1.2 0 01-.293.7.891.891 0 01-.595.355.7.7 0 01-.5-.2l-.068-.07-.147.131s.211.217.249.257v-.007zm-.612.433a1.941 1.941 0 01.314.547h-2.827a2.173 2.173 0 01.124-.547h2.389zm-2.3-.2a2.022 2.022 0 01.348-.442 1.119 1.119 0 01.144-.106h.967l.027.023c.091.081.228.2.494.4a1.774 1.774 0 01.141.126l-2.121-.001zm-.127 1.68h.758a1.2 1.2 0 00-.571.5 3.98 3.98 0 01-.186-.5h-.001zm1.871.477a1.048 1.048 0 01.2.061l.022.009h-.811a1 1 0 01.584-.07h.005zm-2.574-2.7a2.782 2.782 0 00-.235.548h-.254c.025-.164.06-.362.105-.548h.384zm-.328-.2c.008-.025.016-.049.023-.072a5.1 5.1 0 01.08-.2c.035-.084.069-.171.109-.274h.748a2.516 2.516 0 00-.509.547l-.451-.001zm.04.938a3.558 3.558 0 00-.089.547h-.549c.023-.106.041-.206.055-.3l.317.117.013-.127s.009-.094.026-.232l.227-.005zm-.1.742a3.088 3.088 0 00.036.547h-.757c.019-.077.04-.159.062-.244.022-.085.052-.195.079-.3l.58-.003zm.072.742a3.986 3.986 0 00.16.547h-.97a1.493 1.493 0 01-.031-.495.348.348 0 01.008-.052h.833zm-.62 1.072a1.955 1.955 0 01-.137-.329h.994c.071.174.156.354.257.546h-2.332a1.216 1.216 0 01.055-.194 1.6 1.6 0 001.114.116l.1-.043-.051-.096zm1.22.412c.092.164.23.4.32.547h-2.807a3.93 3.93 0 01.023-.543l2.464-.004zm.439.742c.043.072.086.143.128.216a1.635 1.635 0 00-.34-.061 1.558 1.558 0 00-1.143.392h-1.049a2.3 2.3 0 00-.337-.547H21.1zm-1.541.742a1.54 1.54 0 00-.282.546h-.291c-.032-.1-.065-.2-.1-.289-.035-.089-.067-.173-.1-.258l.773.001zm.909.274c.2659.0175.521.112.734.272h-1.65a1.374 1.374 0 01.915-.272h.001zm-1.248.467l-.041.142.152-.142h2.081a1.359 1.359 0 01.291.548H19.15a6.2135 6.2135 0 00-.114-.548h.184zm2.521.743a1.3 1.3 0 01.009.134 1.233 1.233 0 01-.267.412h-1.547a5.8 5.8 0 00-.65-.547l2.455.001zm-.511.742a1.036 1.036 0 01-.2.087 1.174 1.174 0 01-.894-.062l-.022-.025h1.116zm4.189-8.894s-.214.269-.944.269a19.492 19.492 0 00-2.063-.082 2.674 2.674 0 00-.65.14 2.206 2.206 0 00-.462.206h-.962c.069-.19.126-.371.174-.547h4.916l-.009.014zm-4.212 14.09a2.858 2.858 0 00-.066.36 5.949 5.949 0 00-2.214.187h-4.741a2.445 2.445 0 01.373-.547h3.153a1.972 1.972 0 00.248.3l.085.083.064-.1.183-.28 2.915-.003zm-2.79-.2l.341-.523a3.734 3.734 0 002.6.259c-.03.072-.064.161-.1.265l-2.841-.001zm-3.656 0a1.591 1.591 0 01.307-.2l-.049-.185-.886.048c0-.054.006-.126.006-.211h3.188c.0697.189.155.372.255.547l-2.821.001zm-.626-.742a4.1 4.1 0 00-.054-.548h3.028c.0447.1953.095.378.151.548h-3.125zm-.093-.743a3.036 3.036 0 00-.175-.547h3.107c.027.189.057.372.092.547h-3.024zm.328-.742a6.439 6.439 0 001.4-.547h1.124c.015.186.032.369.054.547H14.37zm1.707-.742a1.913 1.913 0 00.387-.367 1.086 1.086 0 00.113-.18h.281c0 .186.012.369.023.547h-.804zm.777-.743h-.206a1.025 1.025 0 00-.015-.547h.225c0 .129-.007.318 0 .547h-.004zm.011-.742h-.3a2.18 2.18 0 00-.368-.547h.47c.0863.169.1534.347.2.531l-.002.016zm-.864-.743c-.072-.066-.121-.1-.123-.106l-.025-.019h-.03a8.929 8.929 0 00-1.749.127h-2.779c.076-.068.15-.136.22-.207l.081-.081-.359-.259h4.865a2.377 2.377 0 01.452.547l-.553-.002zm-6.71-.383c.065-.056.166-.134.208-.167l.2.425.177-.083-.215-.46c.059-.04.122-.079.186-.117l.258.239.132-.144-.21-.194c.078-.041.16-.08.244-.117l1.023.738a5.419 5.419 0 01-.326.285 5.56 5.56 0 01-1.2.728 5.137 5.137 0 01-.916.318l-.028-.9a2.268 2.268 0 01.278-.368l.009.167.2-.012-.02-.338zm1.771.579h2.107a7.724 7.724 0 00-1.456.547h-1.487a5.663 5.663 0 00.836-.547zm-.095-.937l-.483-.351a5.693 5.693 0 01.564-.188l.026-.009h3.815c.266.163.521.309.761.43a2.218 2.218 0 01.2.118h-4.883zm.657-.743a4.589 4.589 0 00.779-.428 4.576 4.576 0 00.946-.119h.45c.193.142.479.349.778.547h-2.953zm4.362-10.18l-.03.133-1.31.344v.071h-3.6l.9-.548h4.04zm-3.714-.2l.9-.547h3.982l-.072.311-1.014.055-.042.181h-3.754zm2.391.938c.026.1931.0902.379.189.547h-1.019a.9.9 0 00-.7 0H9.817l.905-.547h3.941zm2.465 1.485a.412.412 0 01-.108.184c-.157.159-.543.349-1.495.349h-.057l-.007.013h-.582c.125-.054.509-.2.512-.2l.048-.018.012-.05a.143.143 0 00-.028-.122c-.056-.071-.168-.1-.354-.1a5.388 5.388 0 00-.568.047 6.67 6.67 0 01-.7.056.685.685 0 01-.289-.033.449.449 0 01-.165-.12h2.02l.03.125.082-.125 1.649-.006zm-1.508-.2a1.5 1.5 0 01.77-.549.65.65 0 01.116-.012.357.357 0 01.079.01.836.836 0 01.54.55l-1.505.001zm-2.536.133a.651.651 0 00.351.363.824.824 0 00.367.049 6.77 6.77 0 00.723-.057 5.4 5.4 0 01.545-.047h.034c-.116.045-.247.1-.309.125l-.113.051c-.083.038-.185.085-.3.132a2.089 2.089 0 01-.723.2 1.152 1.152 0 01-.63-.187.756.756 0 01-.318-.661.7.7 0 01.458-.646h.042a.644.644 0 00-.127.68v-.002zm.163-.133a.435.435 0 01-.014-.106.456.456 0 01.34-.441h1.436a.882.882 0 00.219.155l.093.392h-2.074zm-.443-.547a.849.849 0 00-.282.547h-2.154a3.1 3.1 0 01-.578-.547h3.014zm-2.342.743h2.058a.992.992 0 00.207.547H9.881a1.639 1.639 0 00.582-.547h-.001zm2.482.742a1.351 1.351 0 00.715.206 2.194 2.194 0 00.779-.206h.906c-.161.246-.355.455-.477.442l-.022.1h-4.759a5.958 5.958 0 01-.587-.547l3.445.005zm2.471.742a3.5 3.5 0 00.577 0h.529a3.186 3.186 0 01-1.11.547h-4.206a6.42 6.42 0 01-.869-.547h5.079zm-1.894.742a3.689 3.689 0 00-.994.3 5.411 5.411 0 01-.911-.3h1.905zm3.682-5.391h-3.7l.905-.547h2.852l.006.292-.063.255zm-8.932 4.012l.155.034-.039-.153c-.023-.1-.089-.328-.149-.54.15.1397.3207.2554.506.343l.121.052.015-.13c.021-.179.077-.48.113-.665a1.429 1.429 0 01.327.807v.044l-.033.071a1.079 1.079 0 01-.637.582 1.728 1.728 0 01-.928.025l-.054-.015-.035-.108a6.531 6.531 0 01-.127-.7 2.046 2.046 0 00.763.352l.002.001zm2.483 5.091v.097l-.078.057a6.783 6.783 0 01-.579.392h-.134l-.117-.4-.187-.027.006-.12 1.089.001zm-1.081-.2l.027-.546h1.128a5.4 5.4 0 00-.066.546H9.673zm-1 5.016l.11-.018a5.083 5.083 0 001.051-.349h1.524a6.009 6.009 0 00-.791.547H8.186c.092-.072.155-.118.155-.118l.033-.429h.281l.018.367zm-.514-.041c-.054.04-.163.124-.3.244a7.033 7.033 0 00-.725.72h-.056l-.053-.5-.456.078 1.045-1.115.607-.187-.062.76zm-.2.417h2.384c-.05.044-.1.089-.143.134a1.88 1.88 0 00-1.193.412H7.386a6.493 6.493 0 01.563-.547l.01.001zm6.045 4.572l.059-.009.019-.057s.007-.021.021-.054h4.256l.488.5-.072.044h-6.431a9.176 9.176 0 011.66-.428v.004zm7.694-3.088h1.39a3.594 3.594 0 00-.49.266 4.249 4.249 0 00-.9-.266zm-1.7 4.454h2.768c-.18.1893-.364.3717-.552.547h-3.582l.181-.08s.5-.225 1.185-.467zm.585-.2a7.469 7.469 0 012.4-.424l.113.007-.009-.112v-.016h.332a13.288 13.288 0 01-.47.546l-2.366-.001zm2.49-.742a16.348 16.348 0 01-.02-.547h.924c-.131.186-.266.369-.4.547h-.504zm-.022-.742c0-.187 0-.37.009-.547h1.4c-.114.186-.2317.3683-.353.547h-1.056zm.018-.742c.01-.191.025-.374.044-.547h1.773c-.1.185-.2.367-.31.547h-1.507zm-2.209-3.712c-.016-.053-.034-.107-.052-.161a2.136 2.136 0 00.551-.106 2.2 2.2 0 00.551-.28h4.42c-.047.184-.1.367-.15.547h-5.32zm1.29-.742a2.189 2.189 0 00.415-.547h3.939a18.6025 18.6025 0 01-.126.547H22.15zm.51-.743a2.385 2.385 0 00.158-.547h3.827c-.031.183-.064.366-.1.547H22.66zm-.873-3.712a.984.984 0 01.3-.545h4.799c.007.181.01.363.011.546l-5.11-.001zm1.614-.742l-.119-.159a1.2 1.2 0 00-.5-.388h4.068c.014.181.024.364.032.547h-3.481zm-2.36-.742a2.185 2.185 0 01-.054-.547h2.9a1.448 1.448 0 01.033.24l.009.175.144-.1a1.154 1.154 0 00.3-.315h2.413c.0207.1813.0387.3637.054.547h-5.799zm3.427-.742a1.034 1.034 0 00.055-.547h2.16c.0287.1807.0543.363.077.547h-2.292zm0-.742a1.544 1.544 0 00-.074-.175.765.765 0 00.2.017 1 1 0 00.7-.389h1.248c.036.181.07.363.1.548l-2.174-.001zm.976-.743a1.385 1.385 0 00.212-.547h.728c.044.1813.0853.3637.124.547h-1.064zm.228-.742a1.088 1.088 0 00-.086-.523l-.013-.024h.612c.052.1807.1017.363.149.547h-.662zm-5.11-.742a4.38 4.38 0 00.093-.547h5.3c.062.18.121.3623.177.547h-5.57zm.185-3.712l.008-.014-.232-.533h3.6c.1207.178.238.3603.352.547h-3.728zm-.309-.742l-.206-.476-1.333.262-.129.214h-.905l-.628-.445.009.445h-2.524l.9-.547h7.964c.1387.178.272.3603.4.547h-3.548zm-9.717.937l-.843.547H8.542c-.116-.243-.231-.516-.231-.516l-.085.027a1.449 1.449 0 00-.76.49h-.729c.0993-.1853.202-.3677.308-.547l3.676-.001zm-3.369.742a.641.641 0 00-.044.14l-.013.08.077.027a1.47 1.47 0 01.4.267.4.4 0 00-.19.034H6.366c.087-.185.176-.368.27-.548h.716zm.04.743a.688.688 0 00-.051.176.563.563 0 00-.41.092.627.627 0 00-.222.28h-.67c.076-.185.154-.367.236-.547l1.117-.001zm-.747.742c-.006.024-.01.047-.014.066a.622.622 0 00-.25.129.655.655 0 00-.223.351h-.4c.066-.184.134-.367.205-.547l.682.001zm-.5.743a.808.808 0 00.111.326c.03.05.064.1.1.149a.565.565 0 00-.369.071h-.475c.056-.1847.1147-.367.176-.547l.457.001zm-.364.742a.572.572 0 00-.089.352.551.551 0 00.053.2h-.439c.0473-.184.097-.3663.149-.547l.326-.005zm.113.742a.576.576 0 00.424.141.568.568 0 00.331-.141h.96c.034.131.093.314.175.547H5.133c.039-.184.081-.366.125-.547h.636zm1.961.742c.06.165.129.348.207.548H4.995c.03-.184.064-.367.1-.548h2.76zm.283.743c.1.252.183.459.22.547H4.886a20.759 20.759 0 01.077-.547h3.175zm.3.742l.006.016.011-.016h.941c.183.207.35.384.52.547H4.809c.0153-.1833.0333-.3657.054-.547h3.575zm1.689.742c.2.181.425.358.683.547H9.6l-.228-.427-.308.378-.313-.307-.151.353-.321-.212-.04.214h-.306l-.1-.066-.009.066h-2.4v.2h2.368l-.035.186-.375-.142-.088.456-.429-.165-.02.209H5.426v.2h1.051l-.033.457.1.09H5.426v.2h1.347l.632.547H4.796a18.38 18.38 0 01-.003-2.773l5.334-.011zm-2.5 2.969a1.475 1.475 0 00-.181.181l-.037.047.144.318H4.866a16.33 16.33 0 01-.054-.547l2.815.001zm.282.742l-.352.336.155.212H4.963a19.52 19.52 0 01-.077-.548h3.023zm-.053.743l.1.129.2-.129h.157l-.174.3.209.249H5.097a14.9008 14.9008 0 01-.1-.547l2.859-.002zm.657.742l.091.108.031.037.013.4h-.259l.039-.51-.931.286-.21.225H5.26a20.59 20.59 0 01-.125-.547l3.378.001zm-1.407.742l-.512.547H5.461c-.053-.181-.1-.363-.15-.547h1.795zm-.7.743l-.39.416.824-.14.029.27H5.69c-.062-.181-.12-.363-.176-.547l.892.001zm.483.742l.04.372s.2-.26.283-.372h1.594l-.036.042.128.052a9.893 9.893 0 01.947.454H5.963c-.071-.18-.14-.363-.205-.547l1.131-.001zm3.3.742a7.731 7.731 0 01.807.547h-4.71c-.0813-.18-.16-.3623-.236-.547h4.139zm1.044.742a3.811 3.811 0 01.524.548h-5.12a17.3782 17.3782 0 01-.269-.548h4.865zm.659.743c.04.063.075.126.106.188a5.031 5.031 0 00-2.006.359H7.048c-.106-.179-.208-.362-.308-.547h5.152zm-2.369.742c-.118.054-.234.111-.351.172l-.2.106.809.269H7.523c-.122-.178-.239-.361-.353-.547h2.353zm.167.742l-.483.547H8.06a13.3491 13.3491 0 01-.406-.547H9.69zm.636.743l-.053.546H8.684a13.288 13.288 0 01-.47-.546h2.112zm9.491 2.968a9.134 9.134 0 01-1.542.617v-.617h1.542zm-1.542 5.222v-3.387h6.531a13.818 13.818 0 01-6.531 3.387zm9.071-6.279a17.375 17.375 0 01-2.258 2.632h-6.802v-.687a11.391 11.391 0 006.32-5.05 17.621 17.621 0 002.558-9.3c0-8.107-5.087-14.7-11.34-14.7s-11.338 6.595-11.338 14.7a16.493 16.493 0 004.645 11.862l-.839.993a4.433 4.433 0 00-1.178-.333l-.181-.026.033.178a5.06 5.06 0 00.388 1.29l-.86 1.017A20.678 20.678 0 01.556 33.033c0-10.44 6.849-18.934 15.268-18.934s15.268 8.494 15.268 18.934a21.758 21.758 0 01-3.735 12.406h-.011z"/>
    <path fill="#959CA5" d="M5.711 45.401l-.218.153-1.086-1.552.218-.154.453.647 1.72-1.2.181.259-1.72 1.2zM5.37 40.74l-1.556 1.35v.006l2.027-.371.144.3L4.118 43.6l-.14-.29 1.571-1.273v-.007l-2 .378-.148-.307 1.544-1.327v-.006l-1.981.423-.137-.284 2.4-.458zm-3.246-2.098l.253-.079.391 1.26.72-.223-.365-1.174.253-.079.364 1.175.783-.242-.394-1.27.253-.079.488 1.571-2.261.7zm-.474-2.31l.261-.049.248 1.295.738-.141-.231-1.207.261-.05.232 1.207.8-.153-.251-1.305.262-.05.309 1.615-2.324.446zm-.16-1.534a1.177 1.177 0 01.215-.86 1.115 1.115 0 01.824-.358 1.94 1.94 0 01.533.027.982.982 0 01.4.176.886.886 0 01.267.336 1.4 1.4 0 01.12.5l.061.809-2.361.178-.059-.808zm2.094-.183a1.21 1.21 0 00-.018-.132.692.692 0 00-.053-.166.76.76 0 00-.1-.17.589.589 0 00-.174-.145.9.9 0 00-.264-.095 1.3798 1.3798 0 00-.375-.017 1.7 1.7 0 00-.375.07.758.758 0 00-.275.157.594.594 0 00-.159.256.951.951 0 00-.034.372l.04.528 1.83-.137-.043-.521zm-2.117-3.306l.265.01-.047 1.319.752.027.045-1.23.264.011-.043 1.229.817.029.048-1.329.265.01-.059 1.642-2.365-.085zm.31-2.324l1.154.241-.909-1.415.083-.4.73 1.172 1.594-.728-.082.39-1.346.593.279.461.811.17-.065.306-2.316-.483zm.829-3.133l2.539-.116-.112.329-.758.018-.321.947.59.48-.1.3-1.947-1.634.109-.324zm1.387.24l-1.174.018v.007l.918.735.256-.76zm-.639-2.117l2.11.25-1.425-1.579.2-.382 2.1 1.086-.137.265-1.75-.9v.007l1.412 1.559-.124.239-2.09-.247v.006l1.75.9-.137.265-2.1-1.086zm2.403-3.839l.212.158-.785 1.059.605.451.733-.988.212.157-.732.987.658.489.792-1.066.212.157-.979 1.319-1.9-1.41zm1.35-1.413a.772.772 0 01.494-.25.569.569 0 01.454.193.72.72 0 01.194.339.506.506 0 01-.069.378.41.41 0 01.166-.07.374.374 0 01.151.008.5.5 0 01.141.065 1.461 1.461 0 01.135.1c.043.037.087.077.129.118a1.3 1.3 0 00.134.114.992.992 0 00.141.091.4.4 0 00.15.047l-.252.244a.2.2 0 01-.1-.04 1.059 1.059 0 01-.11-.09l-.121-.115a1.282 1.282 0 00-.136-.112 2.4564 2.4564 0 00-.138-.095.392.392 0 00-.141-.053.31.31 0 00-.144.012.407.407 0 00-.157.1l-.551.535.7.725-.226.22-1.649-1.7.805-.764zm.8.724a.458.458 0 00.079-.168.362.362 0 000-.176.446.446 0 00-.115-.182.43.43 0 00-.276-.141.409.409 0 00-.309.142l-.559.544.577.593.469-.457a1.258 1.258 0 00.138-.157l-.004.002zm2.39-2.993a1.18 1.18 0 01.877-.13 1.113 1.113 0 01.645.625 1.9 1.9 0 01.178.5.97.97 0 01-.009.439.884.884 0 01-.209.374 1.413 1.413 0 01-.418.3l-.726.366-1.064-2.114.726-.36zm.969 1.865a1.069 1.069 0 00.115-.067.751.751 0 00.133-.112.8.8 0 00.116-.161.593.593 0 00.068-.216.951.951 0 00-.013-.281 1.358 1.358 0 00-.128-.353 1.577 1.577 0 00-.208-.321.706.706 0 00-.249-.193.594.594 0 00-.3-.051.976.976 0 00-.356.11l-.473.239.825 1.641.47-.235zm2.576-3.084l.063.257-1.282.315.181.732 1.195-.293.062.257-1.194.294.194.8 1.292-.317.063.256-1.6.392-.564-2.3zm2.093-.134a.783.783 0 01.532.155.57.57 0 01.2.45.712.712 0 01-.09.379.5.5 0 01-.308.228v.007a.426.426 0 01.168.062.358.358 0 01.1.109.5.5 0 01.06.143 1.431 1.431 0 01.032.165c0 .057.01.116.013.176.003.06.012.118.021.175a1.2 1.2 0 00.041.163.426.426 0 00.078.137l-.351.007a.2.2 0 01-.046-.1.842.842 0 01-.018-.14c0-.052-.007-.108-.011-.168a1.217 1.217 0 00-.024-.175 1.47 1.47 0 00-.037-.164.37.37 0 00-.066-.135.316.316 0 00-.114-.091.434.434 0 00-.186-.031l-.768.016.02 1.011-.313.007-.044-2.365 1.111-.021zm.089 1.071a.471.471 0 00.173-.069.353.353 0 00.116-.132.491.491 0 00-.065-.5.41.41 0 00-.324-.105l-.781.016.016.823.657-.014a1.245 1.245 0 00.209-.02l-.001.001zm4.16.11a.672.672 0 00-.338-.247.947.947 0 00-.19-.05.528.528 0 00-.183 0 .351.351 0 00-.155.075.391.391 0 00-.11.166.244.244 0 000 .188.488.488 0 00.123.164 1.469 1.469 0 00.2.152c.078.049.158.1.238.153.08.053.158.11.233.17a.891.891 0 01.186.2.583.583 0 01.1.24.681.681 0 01-.232.57.694.694 0 01-.28.129.928.928 0 01-.321.012 1.453 1.453 0 01-.655-.254.941.941 0 01-.24-.249.7.7 0 01-.11-.316.821.821 0 01.056-.376l.28.1a.513.513 0 00.046.48.626.626 0 00.172.173c.0715.05.1492.0907.231.121a1.143 1.143 0 00.207.056.645.645 0 00.206 0 .385.385 0 00.176-.075.39.39 0 00.123-.18.3.3 0 00.008-.209.467.467 0 00-.118-.176 1.25 1.25 0 00-.2-.158l-.239-.154a3.2698 3.2698 0 01-.234-.165 1.017 1.017 0 01-.191-.187.49.49 0 01-.067-.5.612.612 0 01.433-.4.886.886 0 01.3-.022 1.265 1.265 0 01.311.071 1.313 1.313 0 01.3.158.773.773 0 01.209.223.651.651 0 01.093.284.847.847 0 01-.046.342l-.28-.1a.493.493 0 00-.044-.41l.002.001zm1.123.424l.141-.226 1.609 1-.14.226-.671-.416-1.107 1.786-.268-.166 1.107-1.786zm2.809 1.66l-.838 2.4-.264-.226.266-.708-.759-.651-.664.368-.244-.21 2.239-1.2.264.227zm-.738 1.2l.418-1.094-1.023.577.605.517zm1.286-.363l.2-.174 1.255 1.417-.2.175-.523-.59-1.573 1.394-.21-.237 1.574-1.394zm2.752 3.146l-.221.146-.728-1.1-.627.415.678 1.026-.221.146-.681-1.026-.686.452.733 1.109-.22.145-.906-1.372 1.974-1.3zm.53.991l-1.2 1.949v.006l1.735-.822.127.269-2.138 1.014-.148-.313 1.187-1.93v-.006l-1.716.813-.127-.269 2.139-1.013zm.077 3.706l-.252.083-.3-.909.253-.084zm-.499 2.28a1.1 1.1 0 01.016-1.275 1.185 1.185 0 01.328-.3 1.324 1.324 0 01.422-.166 1.669 1.669 0 01.5-.031 1.2 1.2 0 01.444.123c.136.068.255.1657.348.286a1.1 1.1 0 01.2.46 1.49 1.49 0 01.031.365.921.921 0 01-.075.327.841.841 0 01-.191.272.961.961 0 01-.323.2l-.066-.309a.644.644 0 00.212-.132.548.548 0 00.125-.185.707.707 0 00.049-.227.988.988 0 00-.021-.251.744.744 0 00-.16-.344.755.755 0 00-.274-.2.99.99 0 00-.345-.074 1.434 1.434 0 00-.371.031 1.135 1.135 0 00-.338.126.932.932 0 00-.264.214.74.74 0 00-.156.65.832.832 0 00.126.309.71.71 0 00.211.2.72.72 0 00.27.093.839.839 0 00.306-.019l-.155-.741.259-.055.214 1.016-1.221.256-.04-.194.272-.143a.782.782 0 01-.332-.282h-.001zm2.663 2.585l-.265.023-.115-1.314-.749.066.108 1.225-.266.023-.107-1.225-.813.07.116 1.325-.266.023-.143-1.638 2.358-.207zm.016 1.075l-1.95 1.2v.006l1.917.05-.007.3-2.365-.061.009-.344 1.93-1.188v-.006l-1.9-.05.007-.3 2.365.061zm-.347 4.034l-.263-.037.184-1.306-.747-.106-.172 1.217-.264-.037.173-1.217-.81-.115-.186 1.317-.263-.038.23-1.627 2.345.33zm-.432 1.81a.783.783 0 01-.294.469.578.578 0 01-.49.07.715.715 0 01-.34-.191.5.5 0 01-.136-.359h-.007a.393.393 0 01-.107.145.347.347 0 01-.133.071.517.517 0 01-.154.018 1.439 1.439 0 01-.166-.014c-.058-.01-.114-.022-.173-.035a1.36 1.36 0 00-.173-.029 1.046 1.046 0 00-.169 0 .383.383 0 00-.152.037l.09-.34a.188.188 0 01.107-.018 1.049 1.049 0 01.141.02l.162.036a1.1 1.1 0 00.175.025 1.342 1.342 0 00.167.01.369.369 0 00.147-.026.31.31 0 00.118-.086.411.411 0 00.081-.17l.2-.744-.976-.257.079-.3 2.29.6-.287 1.068zm-1.057-.209a.473.473 0 00.018.185.36.36 0 00.1.149.5.5 0 00.5.075.411.411 0 00.191-.283l.2-.756-.8-.21-.166.635a1.165 1.165 0 00-.042.204l-.001.001zm.24 2.603l-2.542-.028.13-.323.757.027.375-.929-.562-.512.12-.3 1.85 1.739-.128.326zm-1.371-.317l1.172.047v-.006l-.874-.786-.298.745zm.246 2.597l-2.516-.364.172-.3.747.127.494-.871-.488-.581.158-.28 1.6 1.97-.167.299zm-1.318-.495l1.156.2-.763-.894-.393.694zm.293 2.067l-1.67-1.275-.761.995-.21-.16.952-1.246 1.879 1.435z"/>
  </g><g>
  <path fill="#121469" d="M60.775 31.912v20.157h-2.908V31.912h-6.965v-2.648h16.807v2.643zM84.806 52.07H81.78l-3.44-11.571h-.059L74.988 52.07h-3.2a135.553 135.553 0 01-4.548-15.132h2.908c.919 4.183 2.076 8.4 3.323 12.253h.059l3.471-12.253h2.908l3.56 12.253h.059c1.216-3.916 2.433-8.159 3.323-12.253h2.7a148.2 148.2 0 01-4.747 15.131l.002.001zm20.74-7.087H95.162c0 3.2 1.157 5.221 4.747 5.221a17.737 17.737 0 004.9-.682l.326 2.106a20.471 20.471 0 01-5.7.8c-4.9 0-7.21-2.611-7.21-7.832 0-4.865 2.552-8.01 7.15-8.01 4.242 0 6.2 2.878 6.2 6.824 0 .323-.029 1.034-.029 1.573zm-6.349-6.29a4.1 4.1 0 00-4.035 4.3h7.625c.088-2.61-1.217-4.304-3.591-4.304l.001.004zm23.291 6.29h-10.384c0 3.2 1.157 5.221 4.747 5.221a17.736 17.736 0 004.9-.682l.326 2.106a20.472 20.472 0 01-5.7.8c-4.9 0-7.21-2.611-7.21-7.832 0-4.865 2.552-8.01 7.15-8.01 4.242 0 6.2 2.878 6.2 6.824 0 .323-.029 1.034-.029 1.573zm-6.349-6.29a4.1 4.1 0 00-4.035 4.3h7.625c.088-2.61-1.217-4.304-3.591-4.304l.001.004zm21.658 13.376l-.267-2.255a6.891 6.891 0 01-5.489 2.611c-4.124 0-5.934-3.293-5.934-7.358 0-4.539 2.344-8.337 7.655-8.337a16.144 16.144 0 013.382.356v-7.822h2.789v22.8l-2.136.005zm-.653-12.461a8.671 8.671 0 00-3.442-.682c-3.085 0-4.628 2.166-4.628 5.874 0 2.73.861 5.34 3.5 5.34 1.661 0 3-.831 4.569-2.7l.001-7.832zm20.56 5.375h-10.383c0 3.2 1.157 5.221 4.747 5.221a17.726 17.726 0 004.895-.682l.326 2.106a20.466 20.466 0 01-5.7.8c-4.895 0-7.209-2.611-7.209-7.832 0-4.865 2.552-8.01 7.15-8.01 4.243 0 6.2 2.878 6.2 6.824.005.323-.026 1.034-.026 1.573zm-6.348-6.29a4.1 4.1 0 00-4.035 4.3h7.625c.089-2.61-1.217-4.304-3.59-4.304v.004zm18.291 13.376h-2.908V29.264h2.908v22.805zm.374-11.872l8.436-10.93h3.857l-8.941 10.868 9 11.934h-3.768l-8.584-11.872zm23.708 11.873l-.238-1.543a6.778 6.778 0 01-4.866 1.9c-3.145 0-5.1-1.572-5.1-4.479 0-3.263 2.818-4.718 7.062-4.718h2.521v-.979c0-2.344-.831-3.471-3.53-3.471a13 13 0 00-4.392.86l-.533-2.136a16.285 16.285 0 015.4-.92c4.333 0 5.816 2.255 5.816 5.133v10.354l-2.14-.001zm-.624-6.883h-2.521c-2.819 0-4.155.919-4.155 2.611 0 1.543.92 2.492 2.73 2.492a5.732 5.732 0 003.945-1.72l.001-3.383zm27.076 6.883v-8.9c0-2.552-.357-4.272-2.612-4.272-1.839 0-2.67.89-4.1 2.552v10.622h-2.787v-8.9c0-2.552-.357-4.272-2.583-4.272-1.868 0-2.669.89-4.093 2.552v10.622h-2.789V36.938h2.136l.355 2.225c1.455-1.75 2.729-2.581 4.9-2.581 2.284 0 3.708.89 4.392 2.819 1.572-1.988 2.907-2.819 5.1-2.819 3.856 0 4.865 2.641 4.865 6.023v9.464l-2.784.001zm20.472-7.087h-10.385c0 3.2 1.157 5.221 4.748 5.221a17.731 17.731 0 004.895-.682l.326 2.106a20.472 20.472 0 01-5.7.8c-4.895 0-7.209-2.611-7.209-7.832 0-4.865 2.552-8.01 7.149-8.01 4.244 0 6.2 2.878 6.2 6.824.006.323-.024 1.034-.024 1.573zm-6.349-6.29a4.105 4.105 0 00-4.035 4.3h7.626c.089-2.611-1.217-4.3-3.591-4.3zm19.017.767a6.479 6.479 0 00-1.6-.267c-1.038 0-1.958.949-3.709 3.145v9.732h-2.788V36.938h2.165l.3 2.789c1.63-2.166 2.61-3.145 4.123-3.145a5.84 5.84 0 011.929.267l-.42 2.611z"/>
  <path fill="#959CA5" d="M60.365 71.694h-2.494V64.16h2.674a3.389 3.389 0 013.677 3.664 3.523 3.523 0 01-3.857 3.87zm.039-6.518h-1.285v5.5h1.26c1.659 0 2.533-.888 2.533-2.791a2.394 2.394 0 00-2.508-2.709zm9.719 6.518V64.16h4.256v1H71.37v2.134h2.61v.99h-2.61v2.392h3.06v1.015zm14.31 0l-1.762-3.265h-.8v3.265h-1.247V64.16h2.237c1.684 0 2.584.771 2.584 2.044a2.091 2.091 0 01-1.5 2.032l2.006 3.459-1.518-.001zM82.71 65.15h-.836v2.314h.823c1 0 1.427-.526 1.427-1.157 0-.604-.347-1.157-1.414-1.157zm15.48 6.672a5.819 5.819 0 01-1.736-.244l.167-1.08a5.229 5.229 0 001.672.283c.861 0 1.337-.438 1.337-1.144 0-.681-.578-.99-1.325-1.324-.99-.425-1.89-.914-1.89-2.134 0-1.375 1.08-2.134 2.495-2.134a5.468 5.468 0 011.633.244l-.244.99a4.69 4.69 0 00-1.427-.218.974.974 0 00-1.119 1.029c0 .5.373.784.875 1.015 1.067.527 2.353.952 2.353 2.43-.002 1.542-1.275 2.287-2.791 2.287zm11.108-6.646v6.518h-1.26v-6.518h-2.263V64.16h5.786v1.016zm12.227 6.518c-.206-.656-.4-1.3-.6-1.915h-3.1c-.206.6-.4 1.259-.592 1.915h-1.273c.81-2.52 1.762-5.168 2.765-7.534h1.337c1.067 2.507 1.98 4.988 2.815 7.534h-1.352zm-2.173-6.288c-.411 1.055-.848 2.328-1.209 3.381h2.431c-.347-1.054-.823-2.3-1.222-3.381zm11.442-.23v6.518h-1.26v-6.518h-2.262V64.16h5.786v1.016zm7.778 6.518V64.16h4.256v1h-3.01v2.134h2.611v.99h-2.611v2.392h3.06v1.015zm15.338 0l-3.677-5.889v5.889h-1.144V64.16h1.556l3.587 5.773V64.16h1.144v7.534zm6.172-3.395v-1.015h3.3v1.015zm13.77-2.648a4.241 4.241 0 00-2.122-.566c-1.4813.1308-2.6152 1.375-2.6084 2.862.0068 1.487 1.152 2.7207 2.6344 2.838a5.068 5.068 0 001.247-.18v-2.948h1.248v3.729a7.833 7.833 0 01-2.6.437 3.561 3.561 0 01-3.805-3.819 3.735 3.735 0 013.935-3.946 5.3 5.3 0 012.507.63l-.436.963zm6.736 6.043V64.16h4.255v1h-3.008v2.134h2.61v.99h-2.61v2.392h3.06v1.015zm15.339 0l-3.678-5.889v5.889h-1.144V64.16h1.557l3.587 5.773V64.16h1.144v7.534zm8.254 0V64.16h4.255v1h-3.009v2.134h2.611v.99h-2.611v2.392h3.061v1.015zm14.309 0l-1.762-3.265h-.8v3.265h-1.246V64.16h2.237c1.684 0 2.584.771 2.584 2.044a2.091 2.091 0 01-1.5 2.032l2.005 3.459-1.518-.001zm-1.723-6.544h-.836v2.314h.823c1 0 1.428-.526 1.428-1.157 0-.6-.347-1.157-1.414-1.157h-.001zm13.59 6.544c-.2-.656-.4-1.3-.6-1.915h-3.1c-.2.6-.4 1.259-.591 1.915h-1.279c.81-2.52 1.762-5.168 2.764-7.534h1.336c1.067 2.507 1.98 4.988 2.815 7.534h-1.345zm-2.17-6.288c-.411 1.055-.848 2.328-1.207 3.381h2.43c-.351-1.053-.823-2.3-1.223-3.381zm13.51 6.288c-.207-.656-.4-1.3-.6-1.915h-3.1c-.207.6-.4 1.259-.592 1.915h-1.273c.81-2.52 1.762-5.168 2.765-7.534h1.337c1.066 2.507 1.98 4.988 2.816 7.534h-1.353zm-2.173-6.288c-.411 1.055-.849 2.328-1.209 3.381h2.43c-.347-1.054-.823-2.3-1.221-3.381zm8.935 6.288V64.16h1.247v6.516h2.906v1.015z"/></g>
</svg>