<svg width="568" height="89" xmlns="http://www.w3.org/2000/svg" xmlns:xlink="http://www.w3.org/1999/xlink" xml:space="preserve" overflow="hidden"><defs><clipPath id="clip0"><rect x="684" y="344" width="568" height="89"/></clipPath><clipPath id="clip1"><rect x="684" y="344" width="568" height="89"/></clipPath><clipPath id="clip2"><rect x="685" y="345" width="567" height="88"/></clipPath><clipPath id="clip3"><rect x="685" y="345" width="567" height="88"/></clipPath><clipPath id="clip4"><rect x="685" y="345" width="567" height="88"/></clipPath></defs><g clip-path="url(#clip0)" transform="translate(-684 -344)"><g clip-path="url(#clip1)"><g clip-path="url(#clip2)"><g clip-path="url(#clip3)"><g clip-path="url(#clip4)"><text fill="#000000" fill-opacity="1" font-family="PT Sans Caption,PT Sans Caption_MSFontService,sans-serif" font-style="normal" font-variant="normal" font-weight="400" font-stretch="normal" font-size="13.0429" text-anchor="start" direction="ltr" writing-mode="lr-tb" unicode-bidi="normal" text-decoration="none" transform="matrix(3.1518 0 0 3.13448 779.17 381)">Audit Analytics Summit</text><path d="M783.96 59.5891C784.019 59.5891 784.066 59.6365 784.066 59.695L784.066 100.255C784.066 100.313 784.019 100.361 783.96 100.361L313.732 100.361C313.673 100.361 313.626 100.313 313.626 100.255L313.626 59.695C313.626 59.6365 313.673 59.5891 313.732 59.5891Z" fill="#0E0E44" fill-rule="nonzero" fill-opacity="1" transform="matrix(1.00438 0 0 1 464.501 332.547)"/><text fill="#FFFFFF" fill-opacity="1" font-family="Arial,Arial_MSFontService,sans-serif" font-style="normal" font-variant="normal" font-weight="700" font-stretch="normal" font-size="14.3855" text-anchor="start" direction="ltr" writing-mode="lr-tb" unicode-bidi="normal" text-decoration="none" transform="matrix(3.12668 0 0 3.15966 966.215 428)">2025</text><path d="M226.98 51.1642C227.195 56.1347 228.449 60.7517 230.883 65.0313 233.345 69.3603 236.647 72.9334 240.76 75.7241 243.492 77.5773 246.505 78.8568 249.697 79.7148 252.682 80.5174 255.719 80.8542 258.801 80.6675 262.479 80.4447 266.033 79.6571 269.466 78.2878 271.368 77.5291 273.177 76.5836 275.029 75.723 275.536 75.487 276.032 75.3852 276.573 75.5151 278.05 75.8702 279.528 76.0951 281.061 75.8609 281.818 75.7451 282.058 76.0496 282.045 76.8079 282.034 77.3398 282.041 77.872 282.041 78.404 282.04 78.7748 282.09 79.1241 282.391 79.3923 282.592 79.5711 282.603 79.8078 282.508 80.0388 282.401 80.3005 282.157 80.3242 281.916 80.3156 281.536 80.3021 281.155 80.2855 280.765 80.1299 280.78 79.4488 281.011 78.7897 280.938 78.1124 280.909 77.8501 280.963 77.5072 280.622 77.4132 280.232 77.3065 279.814 77.2283 279.487 77.5861 276.335 81.0454 272.326 83.0079 267.931 84.3964 264.837 85.3738 261.693 85.9045 258.475 86.0804 253.23 86.367 248.232 85.2825 243.456 83.1837 238.697 81.0924 234.579 78.0376 230.997 74.305 227.009 70.1501 224.241 65.2607 222.656 59.7039 221.733 56.4664 221.273 53.1617 221.228 49.8142 221.166 45.1888 222.149 40.7319 223.721 36.3979 225.276 32.1086 227.519 28.219 230.577 24.8248 235.697 19.1414 242.007 15.5391 249.493 13.9056 256.375 12.4037 263.055 12.953 269.614 15.456 271.237 16.0751 272.763 16.8591 274.209 17.8021 275.147 18.4134 275.345 19.2326 274.875 20.1697 274.749 20.4208 274.593 20.6625 274.305 20.7423 273.668 20.9191 273.161 21.2957 272.697 21.7434 272.305 22.122 271.938 22.1831 271.464 21.8245 270.17 20.8456 268.597 20.5389 267.078 20.153 263.921 19.3508 260.736 18.6682 257.455 18.6455 253.336 18.6169 249.365 19.4172 245.575 20.9965 238.983 23.7433 233.999 28.2882 230.666 34.6195 228.836 38.0974 227.616 41.7761 227.145 45.6826 226.928 47.4797 226.941 49.2928 226.981 51.1642Z" fill="#000000" fill-rule="nonzero" fill-opacity="1" transform="matrix(1.00438 0 0 1 464.501 332.547)"/><path d="M229.142 88.6303C226.259 92.7708 223.535 96.9631 220.779 101.135 218.375 104.774 215.964 108.409 213.584 112.064 211.912 114.63 210.286 117.225 208.641 119.809 208.388 120.207 208.2 120.64 208.113 121.102 208.031 121.539 207.981 121.988 208.336 122.39 208.741 122.246 208.905 121.887 209.118 121.586 211.885 117.677 214.424 113.616 217.074 109.628 220.69 104.189 224.433 98.8352 227.978 93.3485 228.705 92.2233 229.455 91.1111 230.246 90.0309 230.478 89.7146 230.375 89.5086 230.17 89.1903 230.727 89.2251 231.114 89.4528 231.48 89.6803 233.702 91.0649 235.807 92.6211 237.916 94.1692 238.246 94.4109 238.125 94.6071 237.949 94.8588 236.597 96.7953 235.311 98.7756 234.016 100.751 230.88 105.538 227.712 110.303 224.641 115.132 222.61 118.327 220.421 121.421 218.304 124.56 218.185 124.736 218.046 124.904 217.956 125.095 216.616 127.948 212.723 128.418 210.536 127.807 207.008 126.821 205.138 123.297 205.34 120.067 205.401 119.098 205.768 118.206 206.306 117.393 209.196 113.031 212.064 108.653 214.985 104.311 218.856 98.5551 222.818 92.8603 226.622 87.0592 226.714 86.9193 226.82 86.7888 226.962 86.5956 227.762 87.111 228.494 87.6716 229.174 88.3033 229.26 88.3836 229.234 88.499 229.142 88.6304M223.529 104.55C223.009 105.191 222.733 105.947 222.488 106.722 222.245 107.487 221.734 108.103 221.171 108.627 220.051 109.672 218.978 110.727 218.195 112.073 217.794 112.761 217.382 113.454 216.905 114.11 216.267 114.99 215.52 115.85 215.379 117.008 215.334 117.384 215.18 117.791 215.55 118.075 215.897 118.341 216.298 118.254 216.636 118.052 217.621 117.463 218.598 116.852 219.245 115.861 219.442 115.56 219.555 115.196 219.779 114.92 221.095 113.299 221.907 111.401 222.349 109.422 222.603 108.284 223.301 107.594 223.952 106.85 224.718 105.974 225.422 105.093 225.87 104.021 226.009 103.69 226.189 103.306 225.782 103.046 225.417 102.813 225.047 102.942 224.719 103.193 224.257 103.547 223.902 103.995 223.529 104.55Z" fill="#000000" fill-rule="nonzero" fill-opacity="1" transform="matrix(1.00438 0 0 1 464.501 332.547)"/><path d="M246.506 27.297C242.966 29.4841 239.781 32.0262 237.246 35.2916 234.507 38.8212 232.884 42.8543 232.079 47.2375 231.74 49.0857 231.569 50.9418 231.577 52.8185 231.578 53.0796 231.663 53.3696 231.42 53.6269 231.165 53.4939 231.181 53.2501 231.151 53.0338 230.636 49.336 230.974 45.6948 231.909 42.0998 232.923 38.2043 234.503 34.572 237.171 31.5085 239.791 28.5007 242.936 26.2298 246.799 25.0634 247.468 24.8613 248.167 24.7519 248.856 24.6206 249.144 24.5656 249.49 24.4983 249.646 24.8424 249.796 25.1749 249.528 25.3866 249.321 25.6036 249.022 25.9159 248.671 26.1433 248.287 26.3377 247.699 26.6351 247.125 26.9593 246.506 27.2969Z" fill="#000000" fill-rule="nonzero" fill-opacity="1" transform="matrix(1.00438 0 0 1 464.501 332.547)"/><path d="M236.477 87.2681C234.597 86.0197 232.842 84.6751 231.046 83.3881 230.622 83.0847 230.708 82.8462 230.95 82.4963 231.833 81.2199 232.695 79.9294 233.551 78.6653 236.743 80.7199 239.952 82.7857 243.126 84.8291 242.094 86.1804 241.171 87.5513 240.345 88.9793 240.042 89.5035 239.849 89.5196 239.392 89.1952 238.455 88.5308 237.477 87.9241 236.477 87.2681M235.444 82.9946C235.687 82.6026 236.05 82.2849 236.191 81.8277 236.038 81.5705 235.794 81.4318 235.583 81.2595 235.363 81.0795 235.168 81.0764 234.997 81.3333 234.526 82.0391 234.048 82.7403 233.577 83.4462 233.306 83.8536 233.349 84.1603 233.873 84.2944 234.052 84.3402 234.214 84.4732 234.429 84.4021 234.746 83.9607 235.067 83.5146 235.444 82.9947Z" fill="#000000" fill-rule="nonzero" fill-opacity="1" transform="matrix(1.00438 0 0 1 464.501 332.547)"/><path d="M232.91 86.3535C233.937 87.1244 235.011 87.7289 236.092 88.3259 237.364 89.0283 238.374 90.098 239.591 90.8826 240.066 91.188 240.168 91.6086 239.675 92.0308 239.628 92.0712 239.599 92.1326 239.564 92.1861 238.85 93.2868 238.879 93.2435 237.799 92.5196 234.973 90.6255 232.272 88.5493 229.37 86.7678 228.954 86.5122 228.552 86.2295 228.218 85.8659 228.134 85.7739 227.987 85.637 228.01 85.5643 228.181 85.0136 228.774 84.8114 229.061 84.3364 229.173 84.1492 229.42 84.2774 229.583 84.3738 230.682 85.0208 231.777 85.6749 232.91 86.3537Z" fill="#000000" fill-rule="nonzero" fill-opacity="1" transform="matrix(1.00438 0 0 1 464.501 332.547)"/><path d="M292.407 23.6785C292.411 23.8287 292.411 23.9351 292.411 24.153 292.713 23.6233 293.02 23.2306 293.532 23.048 294.476 22.7112 295.247 23.1151 295.475 24.082 295.598 24.6091 295.616 25.1326 295.464 25.6594 295.215 26.5142 294.736 26.945 294.014 26.9441 293.282 26.9431 292.548 26.3423 292.36 25.5826 292.33 25.468 292.33 25.3467 292.311 25.1883 291.617 26.3486 291.107 26.6481 290.291 26.4039 289.439 26.1492 288.927 25.2401 289.022 24.1511 289.104 23.2163 289.717 22.5341 290.599 22.3972 291.286 22.2906 292.097 22.8459 292.409 23.6785M291.22 23.7048C290.755 23.2776 290.359 23.3741 290.229 23.9623 290.156 24.2961 290.167 24.6423 290.24 24.9763 290.299 25.241 290.444 25.4478 290.755 25.4543 291.069 25.4602 291.22 25.253 291.28 24.9912 291.372 24.5949 291.381 24.191 291.218 23.7049M293.699 24.0049C293.237 24.5334 293.375 25.1047 293.597 25.6707 293.677 25.8769 293.852 26.0752 294.085 25.9161 294.547 25.601 294.566 25.0921 294.523 24.6014 294.487 24.1732 294.272 23.8853 293.699 24.0049Z" fill="#000000" fill-rule="nonzero" fill-opacity="1" transform="matrix(1.00438 0 0 1 464.501 332.547)"/><path d="M282.437 81.5126C284.585 81.4856 285.122 83.7507 284.771 85.189 284.618 85.8162 284.354 86.394 283.775 86.7618 282.627 87.4917 281.244 87.1234 280.655 85.8853 280.184 84.8977 280.202 83.8582 280.606 82.8566 280.92 82.0796 281.504 81.5804 282.437 81.5126M283.321 85.1979C283.456 84.586 283.456 83.9783 283.245 83.3824 283.135 83.0684 282.961 82.7796 282.585 82.7906 282.196 82.8022 281.98 83.0768 281.885 83.4292 281.734 83.9919 281.727 84.5633 281.9 85.1211 282.003 85.4514 282.176 85.782 282.56 85.82 282.918 85.8552 283.131 85.5927 283.319 85.1979Z" fill="#000000" fill-rule="nonzero" fill-opacity="1" transform="matrix(1.00438 0 0 1 464.501 332.547)"/><path d="M296.228 87.1192C294.908 88.0531 293.391 87.6517 292.762 86.2304 292.375 85.3577 292.35 84.4556 292.677 83.5643 292.995 82.6976 293.617 82.1693 294.557 82.0733 295.583 81.9687 296.318 82.4004 296.796 83.3041 297.419 84.4816 297.193 86.111 296.228 87.1192M295.053 83.4002C294.546 83.3149 294.154 83.4734 294.021 83.9941 293.85 84.6619 293.856 85.34 294.152 85.9773 294.39 86.4893 294.974 86.5795 295.356 86.1925 295.899 85.6428 295.771 83.9149 295.053 83.4002Z" fill="#000000" fill-rule="nonzero" fill-opacity="1" transform="matrix(1.00438 0 0 1 464.501 332.547)"/><path d="M273.885 83.8927C275.906 84.3345 276.083 87.2705 274.998 88.4442 273.815 89.724 271.816 89.2376 271.291 87.5534 271.055 86.7935 271.134 86.029 271.365 85.3002 271.702 84.2396 272.503 83.8128 273.885 83.8927M273.405 87.846C273.582 87.8501 273.737 87.8023 273.871 87.6794 274.382 87.2112 274.3 85.6216 273.743 85.2154 273.499 85.0382 273.266 85.0682 273.041 85.2436 272.333 85.7996 272.497 87.3882 273.405 87.8454Z" fill="#000000" fill-rule="nonzero" fill-opacity="1" transform="matrix(1.00438 0 0 1 464.501 332.547)"/><path d="M266.715 88.988C266.561 90.8075 265.644 91.6371 264.043 91.4625 263.527 91.4062 263.125 91.1756 262.839 90.7291 262.303 89.8933 262.183 88.9829 262.384 88.0368 262.605 86.994 263.401 86.331 264.388 86.2966 265.395 86.2614 266.259 86.9033 266.563 87.9276 266.659 88.2526 266.736 88.5858 266.716 88.988M264.729 87.6767C264.311 87.5051 263.988 87.6616 263.862 88.0533 263.667 88.668 263.657 89.3147 263.93 89.9118 264.152 90.3973 264.768 90.385 265.049 89.9234 265.41 89.3312 265.298 88.3002 264.729 87.6777Z" fill="#000000" fill-rule="nonzero" fill-opacity="1" transform="matrix(1.00438 0 0 1 464.501 332.547)"/><path d="M301.953 19.2635C302.554 18.499 303.321 18.2634 304.196 18.4367 305.163 18.6284 305.688 19.3207 305.892 20.2297 306.072 21.037 305.984 21.8456 305.546 22.5747 305.105 23.3086 304.474 23.6852 303.584 23.6279 302.748 23.5742 302.179 23.1713 301.847 22.4314 301.376 21.3822 301.362 20.3326 301.953 19.2635M304.532 20.2196C304.376 19.848 304.163 19.5305 303.706 19.5471 303.282 19.5624 303.047 19.8593 302.956 20.2229 302.803 20.8303 302.792 21.4457 303.144 22.0064 303.294 22.2458 303.48 22.4467 303.807 22.4176 304.147 22.3876 304.345 22.1839 304.456 21.8863 304.648 21.3761 304.661 20.85 304.532 20.2196Z" fill="#000000" fill-rule="nonzero" fill-opacity="1" transform="matrix(1.00438 0 0 1 464.501 332.547)"/><path d="M307.071 30.0792C308.026 31.373 308.097 32.4828 307.318 33.7033 306.86 34.4212 306.214 34.8134 305.341 34.7199 304.493 34.6292 303.964 34.104 303.647 33.3562 303.383 32.7331 303.364 32.0696 303.503 31.4164 303.888 29.5966 305.479 28.9865 307.071 30.0792M304.783 32.419C304.851 33.1027 305.168 33.5365 305.623 33.5 306.239 33.4506 306.392 32.9614 306.478 32.4649 306.556 32.0145 306.453 31.5745 306.27 31.1608 306.145 30.8758 305.949 30.6439 305.597 30.6691 305.24 30.6946 305.025 30.9107 304.898 31.2364 304.762 31.5847 304.785 31.9466 304.783 32.419Z" fill="#000000" fill-rule="nonzero" fill-opacity="1" transform="matrix(1.00438 0 0 1 464.501 332.547)"/><path d="M290.203 75.9437C291.974 75.1203 293.366 76.0032 293.411 77.9192 293.433 78.8115 293.357 79.658 292.612 80.2989 291.778 81.0169 290.204 80.7953 289.633 79.8608 288.965 78.7682 289.222 76.88 290.203 75.9437M291.91 79.3751C292.249 78.6872 292.144 77.9698 292.012 77.2647 291.962 76.9973 291.772 76.7624 291.443 76.7467 291.119 76.7316 290.932 76.9293 290.813 77.1935 290.54 77.7976 290.524 78.4339 290.708 79.0537 290.875 79.6157 291.275 79.7306 291.91 79.3751Z" fill="#000000" fill-rule="nonzero" fill-opacity="1" transform="matrix(1.00438 0 0 1 464.501 332.547)"/><path d="M284.937 48.1466C285.625 49.2691 285.648 50.4059 285.161 51.5437 284.781 52.4294 284.088 52.7472 283.067 52.6061 282.307 52.501 281.759 51.907 281.613 51.0428 281.52 50.494 281.503 49.9546 281.583 49.3951 281.708 48.5384 282.094 47.9158 282.915 47.6042 283.691 47.3094 284.323 47.6214 284.937 48.1466M282.948 50.9151C283.054 51.1958 283.153 51.5186 283.526 51.4932 283.909 51.4675 284.05 51.1383 284.108 50.8242 284.205 50.3014 284.22 49.768 284.066 49.2478 283.982 48.9635 283.801 48.7396 283.495 48.7185 283.149 48.6947 283.042 48.9804 282.957 49.2491 282.793 49.7672 282.769 50.2909 282.946 50.9151Z" fill="#000000" fill-rule="nonzero" fill-opacity="1" transform="matrix(1.00438 0 0 1 464.501 332.547)"/><path d="M254.367 90.5664C253.683 91.604 253.028 91.8922 252.108 91.5923 251.212 91.2998 250.553 90.1913 250.619 89.0786 250.631 88.8879 250.663 88.6984 250.688 88.5086 250.825 87.4568 251.377 86.8577 252.313 86.7447 253.226 86.6345 254.149 87.2012 254.468 88.102 254.755 88.913 254.764 89.7274 254.367 90.5664M252.044 89.7196C252.161 90.0679 252.299 90.4283 252.721 90.4633 253.027 90.4887 253.235 90.2617 253.308 89.9759 253.428 89.5005 253.444 89.0097 253.317 88.5348 253.22 88.1741 252.966 87.9516 252.566 87.9976 252.182 88.0419 252.037 88.3178 252.022 88.6653 252.009 88.9809 252.026 89.2979 252.044 89.7196Z" fill="#000000" fill-rule="nonzero" fill-opacity="1" transform="matrix(1.00438 0 0 1 464.501 332.547)"/><path d="M306.793 64.0817C307.493 63.4176 308.251 63.2082 309.103 63.6183 309.961 64.0318 310.424 64.7163 310.424 65.6935 310.424 66.1639 310.402 66.6269 310.25 67.0768 309.976 67.8904 309.271 68.4224 308.383 68.4805 307.559 68.5345 306.783 68.084 306.467 67.2709 306.045 66.1851 306.073 65.1132 306.794 64.0817M308.788 64.7242C308.228 64.4086 307.619 64.649 307.503 65.2749 307.406 65.7952 307.418 66.3273 307.638 66.8309 307.782 67.1605 307.975 67.4179 308.389 67.3903 308.782 67.3643 309.036 67.1199 309.113 66.7801 309.268 66.0976 309.366 65.3982 308.788 64.7242Z" fill="#000000" fill-rule="nonzero" fill-opacity="1" transform="matrix(1.00438 0 0 1 464.501 332.547)"/><path d="M275.16 21.8449C276.822 22.2187 277.462 24.5311 276.202 26.0513 275.738 26.6108 275.12 26.749 274.415 26.5606 273.346 26.2753 272.623 25.0591 272.82 23.8481 273.026 22.5867 273.959 21.766 275.16 21.8449M274.439 25.3537C274.82 25.5857 275.158 25.5086 275.337 25.1186 275.597 24.5517 275.569 23.96 275.221 23.4304 274.963 23.0371 274.618 23.0259 274.368 23.4313 273.997 24.0342 274.017 24.666 274.439 25.3537Z" fill="#000000" fill-rule="nonzero" fill-opacity="1" transform="matrix(1.00438 0 0 1 464.501 332.547)"/><path d="M283.09 96.279C281.971 95.734 281.498 94.6363 281.847 93.4909 282.188 92.3725 283.06 91.8031 284.172 91.9726 285.351 92.1521 286.177 93.2722 285.971 94.4173 285.75 95.6443 284.333 96.7893 283.09 96.279M284.527 94.268C284.456 93.781 284.527 93.1869 283.818 93.1191 283.385 93.078 283.093 93.2834 283.039 93.7581 282.956 94.4781 283.215 95.1282 283.674 95.1914 284.27 95.2732 284.398 94.8093 284.527 94.268Z" fill="#000000" fill-rule="nonzero" fill-opacity="1" transform="matrix(1.00438 0 0 1 464.501 332.547)"/><path d="M296.257 45.5083C295.324 45.276 294.65 44.5405 294.55 43.5459 294.454 42.5973 294.655 41.6985 295.503 41.1194 296.466 40.4622 297.764 40.8836 298.218 41.9603 298.502 42.6335 298.496 43.3445 298.348 44.0289 298.152 44.943 297.342 45.4897 296.257 45.5083M297.181 43.5144C297.214 43.1074 297.196 42.7077 296.997 42.3373 296.891 42.1386 296.742 41.9956 296.497 42.0104 296.256 42.0254 296.103 42.1736 296.023 42.3806 295.795 42.9689 295.874 43.5567 296.133 44.1049 296.309 44.4792 296.705 44.4831 296.944 44.1394 297.05 43.9872 297.095 43.7929 297.181 43.5144Z" fill="#000000" fill-rule="nonzero" fill-opacity="1" transform="matrix(1.00438 0 0 1 464.501 332.547)"/><path d="M285.499 33.1286C287.308 32.6787 288.498 34.0228 288.053 35.9391 287.788 37.0844 287.091 37.6942 286.088 37.6583 285.175 37.6256 284.558 36.9755 284.368 35.8465 284.173 34.683 284.592 33.6367 285.499 33.1286M285.83 34.252C285.44 34.8158 285.543 35.4296 285.716 36.0143 285.859 36.4956 286.307 36.5856 286.582 36.2479 286.918 35.8359 286.884 34.6583 286.527 34.2629 286.339 34.0555 286.133 34.0447 285.83 34.2513Z" fill="#000000" fill-rule="nonzero" fill-opacity="1" transform="matrix(1.00438 0 0 1 464.501 332.547)"/><path d="M302.186 59.1449C300.681 59.495 299.658 58.7101 299.61 57.2263 299.577 56.2655 299.625 55.3375 300.607 54.7952 301.489 54.3076 302.417 54.5242 303.032 55.3127 303.761 56.2458 303.616 58.6722 302.186 59.1449M300.805 56.9639C300.816 57.0693 300.812 57.1782 300.838 57.2796 300.951 57.7225 301.08 58.1954 301.655 58.1694 302.207 58.1443 302.156 57.6251 302.266 57.2594 302.302 57.1414 302.291 57.007 302.288 56.8803 302.273 56.1423 301.986 55.6328 301.574 55.6089 301.107 55.5816 300.829 56.0292 300.805 56.9638Z" fill="#000000" fill-rule="nonzero" fill-opacity="1" transform="matrix(1.00438 0 0 1 464.501 332.547)"/><path d="M310.329 54.1693C311.34 54.3948 311.919 54.9875 312.036 55.939 312.163 56.9837 311.997 57.9577 311.044 58.5812 310.189 59.1408 309.173 58.8365 308.625 57.972 307.646 56.4284 308.43 54.0507 310.329 54.1693M310.858 56.7084C310.876 56.3231 310.847 55.9431 310.649 55.6018 310.413 55.1935 309.928 55.1609 309.656 55.5246 309.344 55.9419 309.322 56.9703 309.616 57.4068 309.944 57.8947 310.435 57.8797 310.707 57.3578 310.792 57.1953 310.808 56.9964 310.858 56.7085Z" fill="#000000" fill-rule="nonzero" fill-opacity="1" transform="matrix(1.00438 0 0 1 464.501 332.547)"/><path d="M287.891 74.4329C286.727 75.2833 285.659 75.011 285.146 73.7278 284.784 72.8226 284.765 71.8992 285.325 71.0453 286.106 69.8554 287.666 69.9535 288.316 71.2232 288.78 72.1307 288.599 73.6107 287.891 74.4329M286.989 71.3456C286.818 71.2682 286.667 71.2964 286.52 71.4137 286.047 71.7914 285.966 73.1607 286.395 73.5806 286.706 73.884 287.096 73.8236 287.235 73.3822 287.444 72.7139 287.545 72.0218 286.989 71.3456Z" fill="#000000" fill-rule="nonzero" fill-opacity="1" transform="matrix(1.00438 0 0 1 464.501 332.547)"/><path d="M293.235 69.1941C292.722 68.4169 292.759 67.6215 292.975 66.8201 293.209 65.9512 293.81 65.407 294.544 65.3514 295.372 65.2887 296.092 65.7308 296.432 66.5847 296.726 67.3195 296.696 68.0709 296.422 68.8225 295.948 70.1298 293.936 70.522 293.233 69.1941M295.261 67.0281C295.178 66.7775 295.177 66.4323 294.785 66.4781 294.455 66.5167 294.171 66.6756 294.086 67.0331 293.967 67.536 294.008 68.0433 294.119 68.5405 294.181 68.8104 294.378 68.977 294.662 69.0004 294.984 69.0273 295.171 68.8438 295.281 68.5608 295.466 68.0829 295.396 67.6056 295.259 67.0281Z" fill="#000000" fill-rule="nonzero" fill-opacity="1" transform="matrix(1.00438 0 0 1 464.501 332.547)"/><path d="M286.555 53.8852C288.096 53.6925 288.815 55.4798 288.625 56.7155 288.508 57.4756 288.215 58.1236 287.406 58.4358 286.745 58.6905 286.224 58.5372 285.704 58.1131 284.68 57.279 284.794 54.2381 286.555 53.8852M286.644 55.0946C286.2 55.5992 286.054 56.4755 286.334 57.0362 286.448 57.2659 286.597 57.5059 286.891 57.4833 287.154 57.4632 287.259 57.2298 287.34 57.0037 287.545 56.431 287.432 55.8781 287.23 55.3335 287.146 55.1061 286.98 55.0004 286.644 55.0945Z" fill="#000000" fill-rule="nonzero" fill-opacity="1" transform="matrix(1.00438 0 0 1 464.501 332.547)"/><path d="M281.826 60.3405C282.433 59.6159 282.975 59.4278 283.692 59.6602 284.523 59.9295 285.052 60.5961 285.09 61.4441 285.115 62.0041 285 62.5487 284.782 63.0582 284.514 63.682 284.077 64.1192 283.339 64.1204 282.601 64.1215 281.886 63.6611 281.659 62.9727 281.372 62.1006 281.338 61.2228 281.826 60.3405M282.684 61.9647C282.72 62.4218 282.682 63.0571 283.276 63.0409 283.876 63.0237 283.78 62.3776 283.818 61.9267 283.819 61.906 283.82 61.8842 283.818 61.8635 283.76 61.4272 283.932 60.7552 283.31 60.739 282.69 60.7239 282.716 61.3754 282.684 61.9648Z" fill="#000000" fill-rule="nonzero" fill-opacity="1" transform="matrix(1.00438 0 0 1 464.501 332.547)"/><path d="M282.681 26.4271C281.285 25.6731 280.907 23.8392 281.851 22.6299 282.241 22.1303 283.069 21.8729 283.696 22.0565 284.284 22.2286 284.903 23.0389 284.966 23.7576 284.999 24.1581 284.988 24.5605 284.907 24.9608 284.652 26.2432 284.006 26.6862 282.681 26.4271M282.663 25.017C282.755 25.3179 282.946 25.4859 283.273 25.4618 283.655 25.4335 283.662 25.1134 283.721 24.8554 283.812 24.4567 283.805 24.0544 283.691 23.6561 283.617 23.3994 283.524 23.1412 283.216 23.1332 282.886 23.1255 282.749 23.3768 282.664 23.6598 282.539 24.0774 282.529 24.4967 282.664 25.017Z" fill="#000000" fill-rule="nonzero" fill-opacity="1" transform="matrix(1.00438 0 0 1 464.501 332.547)"/><path d="M281.953 74.798C280.465 73.8081 280.258 71.4407 281.539 70.5507 282.4 69.9523 283.48 70.1626 283.919 71.107 284.373 72.084 284.456 73.1282 283.901 74.1097 283.477 74.857 282.834 75.0638 281.954 74.798M282.285 71.3462C281.825 71.8624 281.755 73.1271 282.158 73.6397 282.447 74.0082 282.803 73.9658 282.966 73.5129 283.163 72.965 283.203 72.3976 282.988 71.8396 282.879 71.559 282.747 71.2871 282.285 71.3462Z" fill="#000000" fill-rule="nonzero" fill-opacity="1" transform="matrix(1.00438 0 0 1 464.501 332.547)"/><path d="M279.065 20.1861C278.683 20.9516 278.056 21.2143 277.304 21.1753 276.568 21.1371 276.165 20.6092 275.936 19.9938 275.634 19.1805 275.512 18.3152 275.999 17.5318 276.355 16.9613 276.937 16.6426 277.628 16.7138 278.338 16.7873 278.856 17.1846 279.089 17.8802 279.34 18.6295 279.322 19.3864 279.064 20.1861M276.997 18.1941C276.856 18.6333 276.859 19.0757 277.016 19.5057 277.125 19.8077 277.34 20.0239 277.692 19.9586 278.023 19.8973 278.11 19.612 278.127 19.3305 278.149 18.9447 278.066 18.5645 277.897 18.2194 277.681 17.7785 277.394 17.6391 276.998 18.1941Z" fill="#000000" fill-rule="nonzero" fill-opacity="1" transform="matrix(1.00438 0 0 1 464.501 332.547)"/><path d="M276.8 71.3172C277.125 70.5441 277.674 70.1783 278.458 70.1873 279.244 70.1964 279.694 70.6667 279.981 71.3414 280.415 72.3591 280.254 73.3108 279.58 74.152 278.763 75.171 277.261 74.8388 276.802 73.5557 276.544 72.8325 276.558 72.0973 276.8 71.3172M278.944 73.2972C279.12 72.7537 279.081 72.2145 278.892 71.6855 278.806 71.4466 278.696 71.1731 278.388 71.1978 278.08 71.2222 277.914 71.4684 277.854 71.7522 277.747 72.2565 277.8 72.7601 277.927 73.2554 277.99 73.5003 278.042 73.7907 278.348 73.8218 278.634 73.8513 278.798 73.6344 278.944 73.2972Z" fill="#000000" fill-rule="nonzero" fill-opacity="1" transform="matrix(1.00438 0 0 1 464.501 332.547)"/><path d="M283.523 45.6525C283.225 44.6775 283.49 43.8973 284.142 43.2181 284.602 42.7379 285.148 42.6255 285.77 42.8254 286.563 43.0795 287.173 44.0758 287.141 45.0606 287.111 45.9147 286.499 46.6571 285.676 46.8343 284.865 47.0091 283.983 46.5411 283.523 45.6525M284.89 45.5118C285.249 45.7717 285.613 45.883 285.783 45.3435 285.896 44.9845 285.876 44.5892 285.746 44.2188 285.661 43.9801 285.515 43.8053 285.235 43.8349 284.951 43.8657 284.764 44.029 284.729 44.3174 284.683 44.6945 284.647 45.0758 284.89 45.5117Z" fill="#000000" fill-rule="nonzero" fill-opacity="1" transform="matrix(1.00438 0 0 1 464.501 332.547)"/><path d="M294.038 54.5909C295.236 55.3725 294.959 57.177 294.345 57.9329 293.714 58.71 292.47 58.6974 291.766 57.9103 291.029 57.0879 291.064 55.5372 291.835 54.752 292.399 54.178 293.08 54.119 294.038 54.5907M293.055 57.5188C293.671 57.1522 293.829 55.8445 293.303 55.4175 293.06 55.2209 292.833 55.2753 292.639 55.5096 292.182 56.0596 292.35 57.1032 293.055 57.5189Z" fill="#000000" fill-rule="nonzero" fill-opacity="1" transform="matrix(1.00438 0 0 1 464.501 332.547)"/><path d="M289.484 63.2275C289.057 62.308 289.138 61.4414 289.556 60.6018 289.832 60.0452 290.297 59.7047 290.935 59.7439 291.583 59.7837 292.125 60.0395 292.403 60.6941 292.738 61.4856 292.73 62.2781 292.377 63.046 291.829 64.2365 290.381 64.3392 289.485 63.2275M291.379 61.4493C291.31 61.1586 291.256 60.8428 290.883 60.8008 290.597 60.7684 290.448 60.9808 290.4 61.2138 290.306 61.6705 290.299 62.1406 290.393 62.5974 290.441 62.8295 290.597 63.0274 290.881 63.0108 291.124 62.9974 291.249 62.8324 291.315 62.6126 291.421 62.2642 291.463 61.9111 291.378 61.4493Z" fill="#000000" fill-rule="nonzero" fill-opacity="1" transform="matrix(1.00438 0 0 1 464.501 332.547)"/><path d="M298.491 40.317C297.871 39.4617 297.929 38.6026 298.343 37.7504 298.629 37.1638 299.101 36.7627 299.788 36.7609 300.471 36.7592 301.114 37.2656 301.353 37.9707 301.555 38.5688 301.563 39.1891 301.342 39.7812 300.841 41.116 299.52 41.3775 298.492 40.317M299.2 38.9428C299.233 39.0879 299.252 39.2366 299.298 39.3771 299.385 39.6456 299.494 39.9309 299.847 39.8823 300.15 39.8407 300.223 39.5719 300.263 39.3117 300.281 39.1863 300.299 39.0564 300.285 38.9313 300.245 38.5114 300.402 37.8947 299.782 37.8726 299.244 37.8534 299.24 38.4216 299.198 38.9428Z" fill="#000000" fill-rule="nonzero" fill-opacity="1" transform="matrix(1.00438 0 0 1 464.501 332.547)"/><path d="M277.368 81.8774C278.438 81.561 278.565 81.6589 278.596 82.6971 278.633 83.9071 278.689 85.1166 278.735 86.3263 278.743 86.5397 278.75 86.7516 278.873 86.9396 278.989 87.1182 279.016 87.2928 278.84 87.4536 278.668 87.61 278.471 87.6715 278.253 87.5762 277.753 87.3578 277.399 87.0043 277.353 86.4388 277.291 85.6773 277.265 84.9128 277.216 84.1501 277.191 83.7374 277.061 83.4269 276.549 83.5872 276.305 83.6635 276.115 83.6007 276.041 83.3552 275.961 83.0881 275.893 82.749 276.201 82.6184 276.624 82.4396 276.914 82.0804 277.369 81.8774Z" fill="#000000" fill-rule="nonzero" fill-opacity="1" transform="matrix(1.00438 0 0 1 464.501 332.547)"/><path d="M301.877 45.6364C301.146 44.7533 301.093 43.8152 301.52 42.8483 301.809 42.194 302.378 41.9281 303.079 41.9542 303.706 41.9777 304.285 42.4342 304.503 43.0646 304.737 43.7388 304.697 44.4129 304.428 45.0619 303.975 46.1541 302.981 46.3865 301.878 45.6364M302.677 43.0621C302.291 43.5415 302.315 44.073 302.498 44.6139 302.588 44.8804 302.804 45.0239 303.082 45.0051 303.38 44.985 303.438 44.7357 303.452 44.4996 303.47 44.1649 303.498 43.8232 303.452 43.4942 303.4 43.1222 303.206 42.8576 302.677 43.0621Z" fill="#000000" fill-rule="nonzero" fill-opacity="1" transform="matrix(1.00438 0 0 1 464.501 332.547)"/><path d="M266.165 93.1383C266.349 92.2855 266.7 91.629 267.61 91.5247 268.962 91.3696 269.929 92.7365 269.414 94.0505 269.083 94.8931 268.237 95.5028 267.588 95.3666 266.614 95.1623 266.151 94.4582 266.165 93.1383M267.399 92.8977C267.385 92.9809 267.357 93.0644 267.359 93.1472 267.368 93.5163 267.248 93.9314 267.67 94.1694 267.81 94.2481 267.964 94.2221 268.08 94.1052 268.407 93.7767 268.372 93.3643 268.283 92.9723 268.169 92.469 267.846 92.4179 267.399 92.8977Z" fill="#000000" fill-rule="nonzero" fill-opacity="1" transform="matrix(1.00438 0 0 1 464.501 332.547)"/><path d="M310.912 40.3879C312.196 40.9615 311.993 43.1854 311.105 43.9017 310.3 44.5508 309.002 44.1712 308.652 43.1427 308.451 42.5522 308.459 41.921 308.67 41.3299 309.022 40.3481 309.833 40.0078 310.912 40.3879M309.65 42.3734C309.668 42.4772 309.675 42.585 309.71 42.6841 309.8 42.9529 309.915 43.232 310.256 43.2089 310.638 43.1832 310.708 42.8625 310.732 42.5613 310.754 42.2893 310.758 42.0071 310.707 41.7406 310.654 41.455 310.488 41.2243 310.144 41.2519 309.838 41.276 309.709 41.4949 309.662 41.7617 309.633 41.9268 309.647 42.0993 309.647 42.3734Z" fill="#000000" fill-rule="nonzero" fill-opacity="1" transform="matrix(1.00438 0 0 1 464.501 332.547)"/><path d="M298.66 34.5614C298.526 35.7623 297.944 36.451 297.089 36.4752 296.315 36.4972 295.615 35.8155 295.452 34.8837 295.242 33.678 295.89 32.7085 296.982 32.5923 297.878 32.497 298.598 33.3186 298.66 34.5614M296.58 34.4C296.63 34.8181 296.49 35.4513 297.143 35.3915 297.692 35.3413 297.572 34.7461 297.56 34.3406 297.549 34.0331 297.535 33.6357 297.104 33.6266 296.708 33.6191 296.593 33.9396 296.58 34.4Z" fill="#000000" fill-rule="nonzero" fill-opacity="1" transform="matrix(1.00438 0 0 1 464.501 332.547)"/><path d="M262.402 96.1291C261.746 96.4498 261.208 96.2472 260.798 95.8016 260.24 95.1942 260.098 94.4414 260.388 93.6618 260.678 92.8855 261.273 92.5184 262.057 92.5322 262.702 92.5438 263.147 92.8215 263.379 93.4361 263.709 94.3105 263.557 95.2089 262.964 95.7348 262.806 95.8749 262.619 95.9826 262.402 96.1292M261.485 94.0128C261.424 94.2869 261.429 94.5615 261.517 94.8265 261.577 95.009 261.67 95.208 261.904 95.1752 262.232 95.1293 262.426 94.8974 262.504 94.5925 262.59 94.2603 262.505 93.9524 262.213 93.7529 261.94 93.5656 261.693 93.6279 261.485 94.0129Z" fill="#000000" fill-rule="nonzero" fill-opacity="1" transform="matrix(1.00438 0 0 1 464.501 332.547)"/><path d="M286.173 27.3801C286.4 28.3828 286.396 29.3527 286.305 30.3282 286.267 30.7334 286.141 31.2187 286.84 31.2101 287.023 31.2081 287.143 31.3638 287.121 31.5659 287.099 31.7566 286.975 31.8793 286.789 31.8993 286.049 31.9786 285.309 31.9986 284.568 31.9146 284.408 31.8974 284.285 31.8207 284.251 31.6507 284.211 31.4533 284.297 31.2819 284.479 31.2553 285.151 31.1574 285.087 30.6668 285.084 30.1962 285.08 29.757 285.083 29.3176 285.083 28.8635 284.221 29.032 284.003 28.9281 284.042 28.4144 284.053 28.2957 284.089 28.1175 284.169 28.0758 284.794 27.7533 285.344 27.2176 286.173 27.3794Z" fill="#000000" fill-rule="nonzero" fill-opacity="1" transform="matrix(1.00438 0 0 1 464.501 332.547)"/><path d="M280.87 27.6542C281.084 27.5484 281.252 27.4532 281.431 27.3888 282.175 27.1209 282.517 27.3512 282.555 28.1354 282.594 28.9199 282.634 29.7042 282.667 30.4889 282.682 30.8057 282.637 31.1305 283.019 31.2954 283.173 31.362 283.191 31.532 283.131 31.6845 283.07 31.8365 282.94 31.9144 282.78 31.9151 282.1 31.917 281.421 31.9191 280.742 31.9091 280.531 31.905 280.363 31.8073 280.362 31.5683 280.361 31.3212 280.546 31.2254 280.748 31.2406 281.345 31.2858 281.391 30.9218 281.379 30.4695 281.364 29.9009 281.375 29.3316 281.375 28.8057 281.171 28.6897 281.059 28.7641 280.939 28.7998 280.713 28.8669 280.452 29.125 280.259 28.8217 280.099 28.5688 280.217 28.2776 280.402 28.0552 280.521 27.911 280.684 27.8026 280.869 27.6534Z" fill="#000000" fill-rule="nonzero" fill-opacity="1" transform="matrix(1.00438 0 0 1 464.501 332.547)"/><path d="M282.969 36.5004C283.048 36.7069 283.204 36.734 283.335 36.8 283.55 36.9089 283.644 37.098 283.616 37.3259 283.579 37.6021 283.35 37.6261 283.133 37.6374 282.602 37.665 282.071 37.684 281.54 37.7121 281.305 37.7256 281.115 37.6705 281.046 37.4164 280.984 37.187 281.094 37.048 281.303 36.978 281.51 36.9088 281.6 36.7612 281.635 36.554 281.74 35.9273 281.782 35.3028 281.678 34.6889 281.296 34.5563 280.778 34.9173 280.663 34.3325 280.557 33.7924 281.048 33.6909 281.384 33.4971 282.808 32.6746 282.936 32.7492 282.953 34.4084 282.961 35.0887 282.955 35.7692 282.968 36.5005Z" fill="#000000" fill-rule="nonzero" fill-opacity="1" transform="matrix(1.00438 0 0 1 464.501 332.547)"/><path d="M260.931 90.6471C260.918 90.956 261.159 91.3076 260.827 91.445 260.445 91.6026 260.014 91.758 259.594 91.6382 259.256 91.5418 259.382 91.2252 259.425 90.985 259.572 90.1645 259.504 89.3462 259.47 88.5729 259.278 88.3987 259.138 88.4947 259.004 88.5368 258.781 88.6064 258.536 88.7362 258.381 88.4655 258.247 88.2292 258.309 87.9711 258.453 87.7417 258.773 87.2301 259.811 86.817 260.428 86.9338 260.835 87.011 260.822 87.3113 260.836 87.6118 260.885 88.6054 260.773 89.6036 260.931 90.6475Z" fill="#000000" fill-rule="nonzero" fill-opacity="1" transform="matrix(1.00438 0 0 1 464.501 332.547)"/><path d="M267.705 87.0799C267.216 86.7329 267.168 86.2961 267.581 86.0137 267.963 85.7514 268.375 85.5169 268.801 85.3365 269.42 85.0748 269.773 85.3324 269.779 86.0053 269.787 86.7685 269.785 87.5319 269.787 88.2951 269.788 88.6765 269.764 89.0596 270.028 89.3877 270.088 89.4619 270.146 89.6261 270.109 89.6756 269.744 90.1557 269.215 89.8452 268.763 89.9235 268.463 89.9755 268.383 89.7746 268.401 89.4812 268.44 88.8684 268.424 88.2523 268.461 87.6394 268.494 87.0898 268.297 86.8816 267.705 87.0799Z" fill="#000000" fill-rule="nonzero" fill-opacity="1" transform="matrix(1.00438 0 0 1 464.501 332.547)"/><path d="M298.915 78.8057C297.861 78.5361 297.499 78.0143 297.569 76.9394 297.617 76.1996 298.207 75.5474 298.907 75.4591 299.776 75.3495 300.515 75.9767 300.584 76.8832 300.677 78.1223 300.132 78.7729 298.915 78.8057M298.705 77.2341C298.79 77.446 298.838 77.7502 299.145 77.6715 299.464 77.5895 299.402 77.2726 299.384 77.0249 299.37 76.8014 299.275 76.5696 299.021 76.5792 298.675 76.5926 298.661 76.8726 298.705 77.2341Z" fill="#000000" fill-rule="nonzero" fill-opacity="1" transform="matrix(1.00438 0 0 1 464.501 332.547)"/><path d="M278.294 31.9168C277.753 31.8543 277.226 32.0326 276.709 31.6225 277.971 30.9679 277.397 29.9296 277.395 29.0515 277.223 28.8466 277.073 28.9584 276.935 28.9643 276.709 28.9742 276.577 28.8532 276.497 28.6619 276.421 28.4762 276.381 28.26 276.558 28.1318 277.052 27.7741 277.501 27.3313 278.147 27.2385 278.549 27.1807 278.744 27.3153 278.737 27.7478 278.722 28.6822 278.73 29.6171 278.735 30.5518 278.736 30.759 278.693 30.9895 278.892 31.1422 279.078 31.2851 279.318 31.4097 279.171 31.6965 279.043 31.9472 278.776 31.9021 278.546 31.9151 278.483 31.9191 278.419 31.9163 278.295 31.9168Z" fill="#000000" fill-rule="nonzero" fill-opacity="1" transform="matrix(1.00438 0 0 1 464.501 332.547)"/><path d="M283.721 57.2348C283.707 57.5468 283.874 57.6577 284.075 57.7632 284.284 57.8727 284.271 58.0745 284.217 58.2687 284.161 58.4746 283.991 58.5053 283.813 58.5021 283.281 58.493 282.748 58.4782 282.216 58.4639 282.062 58.4598 281.903 58.4363 281.858 58.262 281.806 58.06 281.926 57.9262 282.106 57.8781 282.478 57.7787 282.528 57.5081 282.518 57.1875 282.5 56.5963 282.568 56.0011 282.464 55.4374 282.271 55.2898 282.107 55.3949 281.945 55.4173 281.725 55.4481 281.507 55.4748 281.407 55.2147 281.323 54.9959 281.361 54.7825 281.547 54.6352 282.002 54.2765 282.503 53.9893 283.066 53.8513 283.524 53.7392 283.729 53.9489 283.719 54.4334 283.701 55.3485 283.717 56.2644 283.721 57.2347Z" fill="#000000" fill-rule="nonzero" fill-opacity="1" transform="matrix(1.00438 0 0 1 464.501 332.547)"/><path d="M286.726 49.2365C286.372 49.1928 286.243 48.9815 286.23 48.7047 286.215 48.4119 286.452 48.3289 286.677 48.239 286.992 48.1123 287.296 47.9519 287.616 47.8401 288.258 47.616 288.541 47.8128 288.571 48.4946 288.611 49.3872 288.639 50.2802 288.673 51.173 288.68 51.3855 288.699 51.5977 288.71 51.8101 288.725 52.0607 289.055 52.3827 288.692 52.5443 288.248 52.7413 287.764 52.6018 287.337 52.3973 287.149 52.3072 287.278 52.0985 287.307 51.9344 287.451 51.1732 287.397 50.4094 287.309 49.6475 287.273 49.3367 287.158 49.1023 286.724 49.2365Z" fill="#000000" fill-rule="nonzero" fill-opacity="1" transform="matrix(1.00438 0 0 1 464.501 332.547)"/><path d="M288.36 31.5639C288.9 30.6641 288.734 29.7403 288.727 28.8557 288.486 28.754 288.365 28.8731 288.228 28.9125 287.988 28.9828 287.814 28.9184 287.709 28.6832 287.61 28.4613 287.633 28.2534 287.834 28.1165 288.254 27.8305 288.673 27.5343 289.122 27.3012 289.585 27.0613 289.831 27.2358 289.859 27.7745 289.897 28.5144 289.916 29.2554 289.954 29.9953 289.979 30.4851 289.848 31.0081 290.362 31.3811 290.555 31.5209 290.484 31.8207 290.243 31.8962 289.671 32.0754 289.077 32.0722 288.492 31.9347 288.354 31.9027 288.342 31.7454 288.36 31.5638Z" fill="#000000" fill-rule="nonzero" fill-opacity="1" transform="matrix(1.00438 0 0 1 464.501 332.547)"/><path d="M279.423 22.007C279.837 21.9458 279.893 22.1636 279.898 22.458 279.913 23.2416 279.942 24.025 279.962 24.8085 279.969 25.1337 279.955 25.4456 280.403 25.5187 280.68 25.5637 280.748 25.8172 280.716 26.066 280.686 26.2874 280.513 26.395 280.306 26.3922 279.672 26.3846 279.038 26.3608 278.404 26.3337 278.275 26.3279 278.156 26.2661 278.119 26.1217 278.07 25.9329 278.163 25.7999 278.295 25.6771 278.852 25.157 278.854 23.8749 278.293 23.3666 277.938 23.0451 278.074 22.7503 278.356 22.5081 278.645 22.2592 278.995 22.0946 279.424 22.007Z" fill="#000000" fill-rule="nonzero" fill-opacity="1" transform="matrix(1.00438 0 0 1 464.501 332.547)"/><path d="M291.319 36.7828C291.583 37.4273 291.49 37.6052 290.882 37.6267 290.438 37.6418 289.991 37.6176 289.547 37.5906 289.375 37.579 289.213 37.491 289.173 37.2965 289.137 37.1232 289.244 37.0178 289.391 36.9504 289.592 36.8574 289.654 36.6858 289.657 36.4825 289.668 35.869 289.721 35.2543 289.632 34.6591 289.496 34.5478 289.368 34.6202 289.246 34.6181 289.003 34.614 288.84 34.4964 288.777 34.2648 288.709 34.0128 288.773 33.801 289.018 33.671 289.374 33.4817 289.725 33.2797 290.091 33.1108 290.569 32.8899 290.823 33.0352 290.845 33.5765 290.878 34.4039 290.87 35.233 290.875 36.0615 290.876 36.3721 290.893 36.6683 291.319 36.7831Z" fill="#000000" fill-rule="nonzero" fill-opacity="1" transform="matrix(1.00438 0 0 1 464.501 332.547)"/><path d="M280.226 18.3757C280.667 17.7604 281.219 17.4657 281.907 17.7119 282.601 17.9599 282.694 18.5947 282.698 19.2369 282.7 19.5975 282.687 19.9555 282.583 20.3083 282.423 20.8435 282.054 21.0998 281.523 21.18 280.976 21.2628 280.532 21.073 280.289 20.5944 279.935 19.8967 279.742 19.1622 280.226 18.3757M281.122 18.8309C280.808 19.1908 280.873 19.5751 281.065 19.9565 281.132 20.0895 281.275 20.2446 281.417 20.1476 281.763 19.9115 281.756 19.5244 281.69 19.169 281.647 18.9321 281.635 18.5419 281.122 18.8308Z" fill="#000000" fill-rule="nonzero" fill-opacity="1" transform="matrix(1.00438 0 0 1 464.501 332.547)"/><path d="M286.574 67.2141C286.468 66.3639 286.468 66.3639 285.348 66.9494 284.946 66.3232 285.366 65.4914 286.229 65.2634 286.491 65.1943 286.776 65.2069 287.051 65.1975 287.477 65.1824 287.669 65.4082 287.673 65.8238 287.68 66.3764 287.68 66.9294 287.706 67.4812 287.731 68.0296 287.743 68.5868 288.129 69.0326 287.5 69.5241 286.233 69.4288 285.851 68.8403 286.949 68.7067 286.48 67.8653 286.576 67.214Z" fill="#000000" fill-rule="nonzero" fill-opacity="1" transform="matrix(1.00438 0 0 1 464.501 332.547)"/><path d="M288.282 45.5303C288.311 45.0719 288.362 44.6759 288.631 44.3398 289.086 43.7712 289.794 43.5775 290.399 43.8685 290.967 44.1415 291.338 44.9701 291.177 45.6083 290.998 46.3199 290.286 46.9491 289.646 46.9621 289.004 46.9756 288.502 46.4663 288.282 45.5303M289.554 44.7763C289.195 44.9984 289.305 45.309 289.407 45.6089 289.448 45.7285 289.534 45.83 289.68 45.8321 289.824 45.834 289.936 45.7443 289.964 45.624 290.045 45.271 290.242 44.8579 289.554 44.7763Z" fill="#000000" fill-rule="nonzero" fill-opacity="1" transform="matrix(1.00438 0 0 1 464.501 332.547)"/><path d="M287.798 24.4697C287.799 24.8286 287.82 25.1269 287.797 25.4224 287.775 25.7217 288.082 25.8882 288.097 26.2518 287.499 26.3612 286.924 26.3787 286.276 26.3098 286.784 25.4004 286.54 24.5152 286.59 23.6817 286.41 23.5654 286.296 23.6369 286.176 23.6722 285.98 23.7304 285.746 23.8758 285.609 23.6285 285.493 23.4191 285.51 23.1453 285.695 22.9751 286.133 22.5738 286.611 22.2025 287.183 22.0288 287.747 21.8578 287.914 22.0383 287.877 22.6288 287.84 23.2211 287.824 23.8146 287.798 24.4695Z" fill="#000000" fill-rule="nonzero" fill-opacity="1" transform="matrix(1.00438 0 0 1 464.501 332.547)"/><path d="M286.851 62.1812C286.847 61.9097 286.858 61.6959 286.836 61.4853 286.803 61.1709 286.69 60.9373 286.303 61.0834 286.153 61.1397 286.002 61.1629 285.908 61.0033 285.806 60.8298 285.879 60.6632 286.008 60.5415 286.363 60.2024 286.753 59.8958 287.217 59.7321 287.747 59.5447 288.015 59.755 288.026 60.3403 288.04 61.1474 288.033 61.955 288.033 62.7625 288.033 63.0683 288.044 63.3555 288.384 63.5094 288.553 63.5857 288.63 63.7492 288.558 63.9367 288.479 64.1405 288.289 64.1247 288.122 64.108 287.785 64.0739 287.45 64.0126 287.112 63.9794 286.81 63.9496 286.725 63.8046 286.762 63.5088 286.815 63.0889 286.824 62.6635 286.852 62.1813Z" fill="#000000" fill-rule="nonzero" fill-opacity="1" transform="matrix(1.00438 0 0 1 464.501 332.547)"/><path d="M282.462 66.8686C282.307 66.6345 282.101 66.6904 281.918 66.6683 281.722 66.6448 281.526 66.6114 281.478 66.3793 281.434 66.1631 281.557 65.9999 281.725 65.9016 282.109 65.6782 282.49 65.4351 282.902 65.2796 283.456 65.0701 283.689 65.2623 283.693 65.8572 283.697 66.4723 283.694 67.0875 283.692 67.7026 283.69 68.1037 283.662 68.4865 284.043 68.7946 284.315 69.0143 284.15 69.2239 283.847 69.2522 283.426 69.2916 283.001 69.3058 282.579 69.2995 282.235 69.2935 282.226 69.0644 282.315 68.8062 282.527 68.1904 282.514 67.5552 282.462 66.8686Z" fill="#000000" fill-rule="nonzero" fill-opacity="1" transform="matrix(1.00438 0 0 1 464.501 332.547)"/><path d="M289.846 69.3908C290.103 68.6943 290.006 67.988 290.033 67.2923 290.047 66.8766 289.934 66.6271 289.5 66.4947 289.061 66.3607 289.023 66.0317 289.406 65.769 289.735 65.5428 290.097 65.3499 290.469 65.2019 290.983 64.9966 291.174 65.1532 291.164 65.7098 291.15 66.4733 291.131 67.2366 291.128 68.0001 291.127 68.3405 291.139 68.6914 291.522 68.8678 291.643 68.9239 291.742 69.0101 291.722 69.1583 291.696 69.3347 291.554 69.4034 291.404 69.4227 290.899 69.4875 290.392 69.514 289.846 69.391Z" fill="#000000" fill-rule="nonzero" fill-opacity="1" transform="matrix(1.00438 0 0 1 464.501 332.547)"/><path d="M283.359 39.1819C283.643 38.5189 284.832 38.1322 285.377 38.4761 285.563 38.5931 285.6 38.7764 285.611 38.9705 285.658 39.8177 285.622 40.6668 285.64 41.5148 285.655 42.0858 285.05 41.7886 284.728 41.8759 284.389 41.9679 284.283 41.7499 284.292 41.4384 284.307 40.933 284.506 40.4386 284.372 39.8683 283.797 40.053 283.389 39.9193 283.36 39.1819Z" fill="#000000" fill-rule="nonzero" fill-opacity="1" transform="matrix(1.00438 0 0 1 464.501 332.547)"/><path d="M300.554 46.97C300.842 47.511 301.006 48.0255 300.823 48.5947 300.64 49.1666 300.247 49.4614 299.652 49.4957 299.094 49.5281 298.729 49.2443 298.498 48.7654 298.233 48.2137 298.256 47.6431 298.513 47.108 298.889 46.3307 299.812 46.2619 300.553 46.97M299.313 47.7366C299.313 47.8616 299.295 47.9911 299.32 48.1106 299.365 48.3155 299.426 48.538 299.689 48.5511 299.86 48.5586 299.949 48.4198 299.974 48.2682 300.02 47.9769 300.064 47.6666 299.778 47.466 299.569 47.3196 299.43 47.451 299.315 47.7366Z" fill="#000000" fill-rule="nonzero" fill-opacity="1" transform="matrix(1.00438 0 0 1 464.501 332.547)"/><path d="M299.098 27.5236C299.8 27.6944 300.078 28.1866 300.174 28.7816 300.303 29.5871 299.717 30.4268 299.014 30.5149 298.286 30.6062 297.655 29.9884 297.592 29.1223 297.521 28.1435 298.029 27.5824 299.098 27.5236M298.703 28.5915C298.509 28.8025 298.512 29.0509 298.606 29.292 298.679 29.481 298.831 29.6194 299.044 29.4791 299.264 29.3346 299.267 29.0891 299.239 28.8585 299.206 28.5913 299.081 28.4265 298.703 28.5915Z" fill="#000000" fill-rule="nonzero" fill-opacity="1" transform="matrix(1.00438 0 0 1 464.501 332.547)"/><path d="M291.751 72.6457C291.762 73.2506 291.722 73.7997 291.969 74.3193 291.578 74.5861 291.19 74.4561 290.825 74.4383 290.53 74.4248 290.556 74.1609 290.552 73.9508 290.541 73.3992 290.538 72.8475 290.53 72.2958 290.526 71.9585 290.49 71.6779 290.043 71.6348 289.613 71.5932 289.639 71.303 289.859 71.0517 290.192 70.6732 290.63 70.4596 291.138 70.4126 291.469 70.3819 291.594 70.5848 291.618 70.8738 291.666 71.4439 291.707 72.0145 291.752 72.6458Z" fill="#000000" fill-rule="nonzero" fill-opacity="1" transform="matrix(1.00438 0 0 1 464.501 332.547)"/><path d="M300.304 24.7648C300.946 24.2396 301.529 24.1746 302.004 24.5383 302.501 24.9188 302.674 25.7764 302.373 26.3975 302.124 26.9101 301.697 27.1545 301.14 27.1174 300.603 27.0815 300.109 26.5484 300.031 25.9635 299.976 25.5522 300.061 25.1636 300.304 24.7648M301.333 25.3037C300.847 25.3403 300.953 25.6552 301.044 25.9446 301.093 26.0986 301.218 26.2188 301.384 26.1116 301.66 25.9344 301.726 25.6918 301.513 25.4129 301.488 25.3807 301.448 25.3602 301.333 25.3037Z" fill="#000000" fill-rule="nonzero" fill-opacity="1" transform="matrix(1.00438 0 0 1 464.501 332.547)"/><path d="M290.695 38.4941C291.121 38.5239 291.336 38.7612 291.416 39.0886 291.584 39.7781 291.525 40.4834 291.48 41.1825 291.465 41.4368 291.239 41.5149 291.021 41.5538 290.667 41.6172 290.34 41.5537 290.088 41.2767 289.703 40.8531 289.597 39.3921 289.901 38.9023 290.074 38.6238 290.315 38.4843 290.695 38.4941Z" fill="#000000" fill-rule="nonzero" fill-opacity="1" transform="matrix(1.00438 0 0 1 464.501 332.547)"/><path d="M286.447 20.5992C286.229 20.9232 285.919 20.9288 285.627 20.9614 284.948 21.0371 284.823 20.8951 284.992 20.2421 285.085 19.8854 285.051 19.5254 285.046 19.1662 285.042 18.8175 284.986 18.5154 284.505 18.6224 284.359 18.6547 284.199 18.6301 284.127 18.4618 284.048 18.2763 284.142 18.1308 284.268 18.0097 284.344 17.9377 284.437 17.8815 284.53 17.8303 284.916 17.6158 285.331 17.2644 285.762 17.4844 286.215 17.7157 286.102 18.2607 286.103 18.6956 286.104 19.3417 286.024 19.9975 286.448 20.5991Z" fill="#000000" fill-rule="nonzero" fill-opacity="1" transform="matrix(1.00438 0 0 1 464.501 332.547)"/><path d="M306.039 49.8781C306.006 50.2311 305.975 50.5258 305.946 50.8206 305.916 51.1171 305.8 51.3653 305.491 51.4398 305.176 51.5154 304.847 51.5341 304.604 51.261 304.376 51.0042 304.533 50.7457 304.643 50.4932 304.841 50.0413 304.84 50.0408 304.813 49.5863 304.78 49.5593 304.754 49.5232 304.718 49.5083 304.467 49.4071 304.02 49.51 304.075 49.0698 304.143 48.5307 304.613 48.3365 305.075 48.2281 305.468 48.1359 305.787 48.2934 305.943 48.6885 306.087 49.0536 306.043 49.4397 306.039 49.8781Z" fill="#000000" fill-rule="nonzero" fill-opacity="1" transform="matrix(1.00438 0 0 1 464.501 332.547)"/><path d="M275.627 95.1115C276.464 95.247 276.939 95.7762 276.859 96.4255 276.782 97.0546 276.202 97.5144 275.553 97.4606 274.919 97.4079 274.444 96.8545 274.464 96.1925 274.483 95.5788 274.82 95.251 275.627 95.1115Z" fill="#000000" fill-rule="nonzero" fill-opacity="1" transform="matrix(1.00438 0 0 1 464.501 332.547)"/><path d="M292.973 48.4687C292.948 48.0808 293.046 47.7803 293.273 47.5365 293.601 47.1848 294.004 47.1434 294.446 47.2835 294.854 47.4128 294.83 47.7461 294.826 48.0664 294.815 48.7255 294.811 49.3852 294.778 50.0432 294.764 50.3148 294.621 50.5353 294.306 50.553 294.032 50.568 293.816 50.4292 293.822 50.1598 293.837 49.4494 293.623 48.8815 292.973 48.4687Z" fill="#000000" fill-rule="nonzero" fill-opacity="1" transform="matrix(1.00438 0 0 1 464.501 332.547)"/><path d="M285.763 90.0699C285.385 89.1901 285.692 88.4131 286.447 88.2736 286.988 88.1735 287.458 88.3198 287.755 88.8215 288.03 89.2853 287.943 89.7296 287.592 90.1023 287.211 90.5066 286.74 90.6443 286.211 90.3898 286.062 90.3179 285.933 90.2039 285.763 90.0699Z" fill="#000000" fill-rule="nonzero" fill-opacity="1" transform="matrix(1.00438 0 0 1 464.501 332.547)"/><path d="M293.308 33.2055C294.038 33.0579 294.161 33.1481 294.171 33.8032 294.182 34.5029 294.146 35.2035 294.273 35.8987 294.355 36.3487 294.116 36.5312 293.693 36.502 293.311 36.476 292.951 36.4077 293 35.8878 293.034 35.5293 293.078 35.1715 293.1 34.8124 293.111 34.6215 293.089 34.4612 292.851 34.363 292.341 34.1544 292.324 33.9678 292.748 33.5947 292.907 33.4556 293.094 33.3504 293.308 33.2055Z" fill="#000000" fill-rule="nonzero" fill-opacity="1" transform="matrix(1.00438 0 0 1 464.501 332.547)"/><path d="M303.206 70.454C303.654 70.7629 303.94 71.1147 303.842 71.6509 303.718 72.3337 303.098 72.849 302.56 72.7286 302.007 72.605 301.575 71.859 301.712 71.2661 301.87 70.5823 302.425 70.2632 303.206 70.454Z" fill="#000000" fill-rule="nonzero" fill-opacity="1" transform="matrix(1.00438 0 0 1 464.501 332.547)"/><path d="M295.832 51.4103C296.7 51.5652 297.217 52.153 297.042 52.7677 296.91 53.2337 296.678 53.6224 296.108 53.6631 295.51 53.7056 295.142 53.4028 294.924 52.8952 294.713 52.401 294.902 51.9889 295.269 51.6407 295.411 51.5056 295.582 51.4275 295.832 51.4103Z" fill="#000000" fill-rule="nonzero" fill-opacity="1" transform="matrix(1.00438 0 0 1 464.501 332.547)"/><path d="M285.372 77.7547C285.308 78.307 285.476 78.8213 285.221 79.3534 284.87 79.1487 284.943 78.8321 284.92 78.5651 284.867 77.9648 284.797 77.4373 283.955 77.517 283.461 77.5638 283.187 77.1858 283.122 76.7255 283.061 76.2896 283.459 76.2339 283.742 76.1344 285.127 75.6476 285.386 75.8389 285.377 77.3111 285.376 77.438 285.373 77.565 285.37 77.7547Z" fill="#000000" fill-rule="nonzero" fill-opacity="1" transform="matrix(1.00438 0 0 1 464.501 332.547)"/><path d="M277.047 92.3349C276.259 92.137 275.988 91.8059 276.077 91.2101 276.166 90.6156 276.594 90.23 277.147 90.2467 277.748 90.2659 278.194 90.6662 278.214 91.2067 278.236 91.8139 277.854 92.2014 277.047 92.3349Z" fill="#000000" fill-rule="nonzero" fill-opacity="1" transform="matrix(1.00438 0 0 1 464.501 332.547)"/><path d="M303.337 83.3971C303.626 82.9545 303.973 82.7118 304.478 82.8054 305.043 82.9103 305.484 83.5067 305.373 84.0029 305.231 84.6327 304.623 85.0401 304.045 84.8929 303.444 84.7402 303.147 84.1482 303.337 83.3971Z" fill="#000000" fill-rule="nonzero" fill-opacity="1" transform="matrix(1.00438 0 0 1 464.501 332.547)"/><path d="M295.242 60.4133C294.983 60.029 294.84 59.6647 294.986 59.2433 295.113 58.8745 295.36 58.6304 295.751 58.5722 296.219 58.5028 296.576 58.6977 296.824 59.0878 297.035 59.4181 297.047 59.7527 296.835 60.0994 296.375 60.8531 295.866 60.9726 295.243 60.4133Z" fill="#000000" fill-rule="nonzero" fill-opacity="1" transform="matrix(1.00438 0 0 1 464.501 332.547)"/><path d="M298.856 62.7772C299.407 62.505 299.886 62.5163 300.29 62.9508 300.595 63.2782 300.667 63.6602 300.446 64.0628 300.244 64.4307 299.965 64.7272 299.511 64.7286 299.062 64.7299 298.75 64.4723 298.579 64.0747 298.379 63.6108 298.393 63.1642 298.856 62.7772Z" fill="#000000" fill-rule="nonzero" fill-opacity="1" transform="matrix(1.00438 0 0 1 464.501 332.547)"/><path d="M307.548 78.0326C307.829 77.2912 308.303 76.9576 308.835 77.1278 309.315 77.2817 309.652 77.6026 309.642 78.1486 309.631 78.631 309.115 79.1514 308.661 79.1761 308.126 79.2056 307.684 78.7726 307.548 78.0326Z" fill="#000000" fill-rule="nonzero" fill-opacity="1" transform="matrix(1.00438 0 0 1 464.501 332.547)"/><path d="M302.688 65.7925C303.257 65.6384 303.651 65.832 303.946 66.2559 304.124 66.5121 304.209 66.7843 304.036 67.089 303.807 67.4937 303.488 67.7402 303.003 67.6795 302.576 67.626 302.21 67.444 302.104 66.9926 301.983 66.4797 302.186 66.0802 302.688 65.7925Z" fill="#000000" fill-rule="nonzero" fill-opacity="1" transform="matrix(1.00438 0 0 1 464.501 332.547)"/><path d="M271.158 91.3102C271.223 90.9128 271.371 90.6107 271.672 90.4116 272.224 90.0454 273.049 90.3965 273.089 91.0437 273.12 91.551 273.012 92.0629 272.809 92.5309 272.65 92.9001 272.342 93.0893 271.836 93.0331 272.046 92.5683 272.666 92.5736 272.677 92.0741 272.256 91.6329 271.426 92.1011 271.158 91.3102Z" fill="#000000" fill-rule="nonzero" fill-opacity="1" transform="matrix(1.00438 0 0 1 464.501 332.547)"/><path d="M293.415 96.5331C293.174 96.9829 292.858 97.2615 292.373 97.1732 291.992 97.1038 291.736 96.8212 291.623 96.4604 291.501 96.0725 291.684 95.7549 291.969 95.4984 292.269 95.2288 292.623 95.1524 292.965 95.3729 293.359 95.6262 293.652 95.9601 293.415 96.5332Z" fill="#000000" fill-rule="nonzero" fill-opacity="1" transform="matrix(1.00438 0 0 1 464.501 332.547)"/><path d="M306.845 26.5402C306.226 27.0187 305.771 26.9826 305.407 26.4678 305.101 26.0359 305.185 25.4572 305.596 25.1665 306.02 24.8667 306.632 24.9891 306.94 25.4376 307.193 25.8073 307.108 26.1591 306.845 26.5402Z" fill="#000000" fill-rule="nonzero" fill-opacity="1" transform="matrix(1.00438 0 0 1 464.501 332.547)"/><path d="M288.97 42.6474C288.666 43.1044 288.283 43.2006 287.838 43.0003 287.502 42.8491 287.188 42.6516 287.205 42.2131 287.223 41.7157 287.551 41.4081 287.913 41.1366 288.08 41.012 288.238 41.1059 288.37 41.2269 288.772 41.5965 289.1 42.0015 288.97 42.6474Z" fill="#000000" fill-rule="nonzero" fill-opacity="1" transform="matrix(1.00438 0 0 1 464.501 332.547)"/><path d="M297.679 93.1501C297.893 92.627 298.212 92.3235 298.769 92.4363 299.246 92.5325 299.629 93.0378 299.526 93.4612 299.41 93.9363 299.098 94.2435 298.587 94.2616 298.066 94.2807 297.722 93.8656 297.679 93.1501Z" fill="#000000" fill-rule="nonzero" fill-opacity="1" transform="matrix(1.00438 0 0 1 464.501 332.547)"/><path d="M293.288 44.0417C292.927 44.3105 292.602 44.4043 292.268 44.0984 291.973 43.8285 291.722 43.5171 291.861 43.0968 292 42.6762 292.25 42.3156 292.778 42.3757 293.197 42.4236 293.572 42.9944 293.548 43.4939 293.537 43.696 293.463 43.8641 293.288 44.0416Z" fill="#000000" fill-rule="nonzero" fill-opacity="1" transform="matrix(1.00438 0 0 1 464.501 332.547)"/><path d="M294.133 37.9673C294.629 37.7947 294.938 37.9538 295.074 38.3944 295.235 38.9119 295.346 39.4429 294.858 39.8664 294.696 40.007 294.504 39.9695 294.319 39.8799 293.595 39.5299 293.472 38.5367 294.133 37.9672Z" fill="#000000" fill-rule="nonzero" fill-opacity="1" transform="matrix(1.00438 0 0 1 464.501 332.547)"/><path d="M256.018 91.8147C256.371 92.3357 256.096 93.4918 255.599 93.71 255.207 93.8821 254.89 93.7175 254.672 93.3899 254.425 93.0187 254.379 92.611 254.778 92.3217 255.13 92.0666 255.519 91.8461 256.018 91.8147Z" fill="#000000" fill-rule="nonzero" fill-opacity="1" transform="matrix(1.00438 0 0 1 464.501 332.547)"/><path d="M305.835 38.0638C306.339 37.5504 306.793 37.4734 307.185 37.8016 307.59 38.1397 307.551 38.5287 307.303 38.9333 307.065 39.3225 306.728 39.511 306.287 39.3117 305.756 39.0718 305.621 38.6445 305.835 38.0638Z" fill="#000000" fill-rule="nonzero" fill-opacity="1" transform="matrix(1.00438 0 0 1 464.501 332.547)"/><path d="M296.965 57.4736C296.491 57.4479 296.168 57.2772 296.104 56.8278 296.053 56.4727 296.15 56.1384 296.508 55.9807 296.915 55.8013 297.339 55.8003 297.705 56.082 297.911 56.2403 298.034 56.4796 297.946 56.7542 297.804 57.2006 297.498 57.4539 296.965 57.4736Z" fill="#000000" fill-rule="nonzero" fill-opacity="1" transform="matrix(1.00438 0 0 1 464.501 332.547)"/><path d="M312.148 31.8401C311.986 32.2048 311.799 32.5002 311.417 32.5406 310.955 32.5895 310.543 32.4268 310.37 31.9843 310.2 31.5506 310.411 31.1783 310.809 30.9718 311.267 30.7347 311.677 30.8688 312.001 31.2581 312.127 31.4099 312.19 31.5898 312.148 31.8401Z" fill="#000000" fill-rule="nonzero" fill-opacity="1" transform="matrix(1.00438 0 0 1 464.501 332.547)"/><path d="M300.49 52.7492C300.126 52.2336 300.25 51.8151 300.675 51.4956 301.02 51.2367 301.4 51.2983 301.725 51.5703 302.128 51.9078 302.146 52.3873 301.791 52.7971 301.444 53.1965 301.057 53.1935 300.49 52.7493Z" fill="#000000" fill-rule="nonzero" fill-opacity="1" transform="matrix(1.00438 0 0 1 464.501 332.547)"/><path d="M288.461 86.0539C287.979 86.069 287.46 86.2318 287.295 85.6427 287.199 85.2992 287.068 84.8001 287.551 84.6634 288.004 84.5354 288.565 84.3284 288.96 84.8141 289.197 85.1056 288.931 85.752 288.461 86.0539Z" fill="#000000" fill-rule="nonzero" fill-opacity="1" transform="matrix(1.00438 0 0 1 464.501 332.547)"/><path d="M295.485 72.5553C295.593 72.0214 295.811 71.6502 296.384 71.7573 296.835 71.8416 297.157 72.1218 297.198 72.6027 297.231 72.9905 296.738 73.4386 296.302 73.4243 295.791 73.407 295.463 73.1657 295.485 72.5553Z" fill="#000000" fill-rule="nonzero" fill-opacity="1" transform="matrix(1.00438 0 0 1 464.501 332.547)"/><path d="M309.806 49.2723C309.614 48.7222 309.748 48.3223 310.262 48.1518 310.712 48.0028 311.118 48.1537 311.359 48.5748 311.569 48.9414 311.442 49.2795 311.144 49.5471 310.786 49.8684 310.413 49.8451 310.051 49.5466 309.97 49.4797 309.905 49.3938 309.806 49.2723Z" fill="#000000" fill-rule="nonzero" fill-opacity="1" transform="matrix(1.00438 0 0 1 464.501 332.547)"/><path d="M278.761 81.0235C278.346 80.4744 278.371 79.9751 278.817 79.6658 279.179 79.4155 279.551 79.4523 279.855 79.7737 280.179 80.1172 280.111 80.7103 279.739 81.0353 279.43 81.305 279.118 81.253 278.761 81.0237Z" fill="#000000" fill-rule="nonzero" fill-opacity="1" transform="matrix(1.00438 0 0 1 464.501 332.547)"/><path d="M257.022 88.348C256.888 89.1204 256.343 88.9238 255.912 88.8654 255.541 88.8152 255.291 88.5669 255.387 88.1419 255.498 87.6501 255.815 87.3417 256.325 87.352 256.92 87.3636 257.024 87.804 257.022 88.348Z" fill="#000000" fill-rule="nonzero" fill-opacity="1" transform="matrix(1.00438 0 0 1 464.501 332.547)"/><path d="M290.288 55.1287C289.811 55.3143 289.382 55.3119 289.095 54.9196 288.894 54.6443 288.976 54.3054 289.184 54.0327 289.433 53.706 289.779 53.6431 290.153 53.7548 290.835 53.9585 290.91 54.544 290.288 55.1287Z" fill="#000000" fill-rule="nonzero" fill-opacity="1" transform="matrix(1.00438 0 0 1 464.501 332.547)"/><path d="M301.253 88.1605C300.879 88.5986 300.5 88.6236 300.124 88.2698 299.779 87.946 299.768 87.5519 300.035 87.182 300.295 86.8226 300.662 86.7356 301.035 86.9953 301.444 87.2804 301.645 87.648 301.253 88.1605Z" fill="#000000" fill-rule="nonzero" fill-opacity="1" transform="matrix(1.00438 0 0 1 464.501 332.547)"/><path d="M303.154 62.795C302.697 62.5826 302.366 62.322 302.532 61.8059 302.664 61.3995 302.965 61.1883 303.41 61.2568 303.895 61.3315 304.101 61.6682 304.068 62.1122 304.031 62.613 303.709 62.8483 303.154 62.795Z" fill="#000000" fill-rule="nonzero" fill-opacity="1" transform="matrix(1.00438 0 0 1 464.501 332.547)"/><path d="M289.999 48.9917C289.521 48.4859 289.895 48.1854 290.217 47.9149 290.518 47.6609 290.891 47.5803 291.168 47.9419 291.441 48.2989 291.549 48.7791 291.234 49.1136 290.874 49.4955 290.418 49.3058 289.999 48.9921Z" fill="#000000" fill-rule="nonzero" fill-opacity="1" transform="matrix(1.00438 0 0 1 464.501 332.547)"/><path d="M306.298 55.3941C306.037 55.7078 305.756 55.9209 305.39 55.7647 304.983 55.5913 304.622 55.3076 304.789 54.7979 304.915 54.4129 305.211 54.1621 305.673 54.2699 306.192 54.3912 306.432 54.7936 306.298 55.3941Z" fill="#000000" fill-rule="nonzero" fill-opacity="1" transform="matrix(1.00438 0 0 1 464.501 332.547)"/><path d="M285.742 82.4264C285.735 82.2514 285.717 82.1168 285.757 82.0012 285.876 81.6378 286.082 81.3419 286.513 81.3481 286.838 81.3522 287.102 81.5007 287.145 81.8533 287.193 82.2501 287.271 82.691 286.839 82.9379 286.47 83.149 286.144 82.9906 285.881 82.6952 285.827 82.6339 285.798 82.5494 285.744 82.4264Z" fill="#000000" fill-rule="nonzero" fill-opacity="1" transform="matrix(1.00438 0 0 1 464.501 332.547)"/><path d="M298.942 17.1036C298.397 17.9441 297.886 17.9936 297.501 17.2824 297.332 16.9695 297.368 16.6561 297.592 16.3918 297.829 16.113 298.155 16.1194 298.473 16.2209 298.879 16.3502 299.038 16.6399 298.942 17.1036Z" fill="#000000" fill-rule="nonzero" fill-opacity="1" transform="matrix(1.00438 0 0 1 464.501 332.547)"/><path d="M291.727 50.4726C292.324 51.0707 292.283 51.4821 291.641 51.7814 291.328 51.9275 291.014 51.9344 290.739 51.7086 290.44 51.4628 290.513 51.1281 290.606 50.8224 290.706 50.4904 290.983 50.3794 291.308 50.3877 291.434 50.3918 291.558 50.4268 291.727 50.4726Z" fill="#000000" fill-rule="nonzero" fill-opacity="1" transform="matrix(1.00438 0 0 1 464.501 332.547)"/><path d="M307.409 19.7715C307.521 19.1844 307.891 19.0418 308.358 19.1565 308.739 19.2502 309 19.537 308.938 19.9459 308.876 20.3585 308.574 20.6363 308.151 20.6378 307.649 20.6396 307.381 20.3463 307.409 19.7715Z" fill="#000000" fill-rule="nonzero" fill-opacity="1" transform="matrix(1.00438 0 0 1 464.501 332.547)"/><path d="M304.955 74.7679C305.609 75.0989 305.799 75.4564 305.521 75.8352 305.312 76.1195 305.057 76.4359 304.638 76.3042 304.292 76.1953 304.06 75.9211 304.101 75.5371 304.151 75.0759 304.365 74.7329 304.955 74.7679Z" fill="#000000" fill-rule="nonzero" fill-opacity="1" transform="matrix(1.00438 0 0 1 464.501 332.547)"/><path d="M296.501 22.9719C296.516 22.9052 296.519 22.8841 296.53 22.8656 296.743 22.4425 297.064 22.1986 297.548 22.346 297.9 22.4528 298.137 22.7239 298.103 23.1005 298.07 23.4777 297.789 23.7005 297.421 23.7367 296.907 23.7873 296.571 23.5571 296.502 22.972Z" fill="#000000" fill-rule="nonzero" fill-opacity="1" transform="matrix(1.00438 0 0 1 464.501 332.547)"/><path d="M288.05 38.7317C288.526 39.2493 288.518 39.5572 288.048 40.4679 287.4 40.2732 287.008 39.7671 287.14 39.2455 287.25 38.8094 287.473 38.495 288.05 38.7317Z" fill="#000000" fill-rule="nonzero" fill-opacity="1" transform="matrix(1.00438 0 0 1 464.501 332.547)"/><path d="M291.7 29.1459C291.843 29.0479 291.948 28.9567 292.065 28.9375 292.448 28.875 292.84 28.8421 293.091 29.2304 293.269 29.5064 293.171 29.764 292.968 29.9793 292.646 30.3205 292.23 30.3205 291.853 30.1501 291.392 29.942 291.461 29.5601 291.7 29.1459Z" fill="#000000" fill-rule="nonzero" fill-opacity="1" transform="matrix(1.00438 0 0 1 464.501 332.547)"/><path d="M289.5 19.9342C290.219 19.5638 290.807 19.8723 290.734 20.5423 290.685 20.9919 290.407 21.3224 289.945 21.268 289.494 21.2151 289.271 20.8656 289.334 20.3941 289.352 20.2513 289.423 20.1152 289.5 19.9342Z" fill="#000000" fill-rule="nonzero" fill-opacity="1" transform="matrix(1.00438 0 0 1 464.501 332.547)"/><path d="M288.246 77.5907C287.828 77.836 287.463 77.7756 287.293 77.3961 287.11 76.9881 287.22 76.5391 287.57 76.2447 287.835 76.0222 288.16 76.1514 288.363 76.3831 288.712 76.7797 288.655 77.1901 288.246 77.5907Z" fill="#000000" fill-rule="nonzero" fill-opacity="1" transform="matrix(1.00438 0 0 1 464.501 332.547)"/><path d="M281.862 89.0373C282.177 89.5191 282.006 89.8685 281.612 90.0941 281.239 90.3084 280.909 90.1214 280.669 89.8092 280.416 89.4799 280.496 89.1539 280.792 88.907 281.151 88.6088 281.504 88.7369 281.862 89.0373Z" fill="#000000" fill-rule="nonzero" fill-opacity="1" transform="matrix(1.00438 0 0 1 464.501 332.547)"/><path d="M304.168 91.799C303.788 91.5953 303.517 91.3584 303.641 90.9307 303.735 90.6097 303.944 90.3593 304.31 90.3528 304.709 90.3453 305.055 90.5215 305.067 90.9469 305.082 91.4791 304.784 91.806 304.168 91.799Z" fill="#000000" fill-rule="nonzero" fill-opacity="1" transform="matrix(1.00438 0 0 1 464.501 332.547)"/><path d="M309.912 28.171C309.521 27.9993 309.206 27.8096 309.293 27.357 309.353 27.0399 309.556 26.8244 309.882 26.7619 310.209 26.6992 310.468 26.8332 310.651 27.0991 310.967 27.5572 310.67 28.0172 309.912 28.171Z" fill="#000000" fill-rule="nonzero" fill-opacity="1" transform="matrix(1.00438 0 0 1 464.501 332.547)"/><path d="M299.928 20.7142C300.458 20.9889 300.488 21.403 300.24 21.7993 300.034 22.1265 299.65 22.1072 299.325 21.9518 298.92 21.7582 298.899 21.3925 299.041 21.0306 299.192 20.6469 299.512 20.584 299.928 20.7141Z" fill="#000000" fill-rule="nonzero" fill-opacity="1" transform="matrix(1.00438 0 0 1 464.501 332.547)"/><path d="M289.305 57.4453C289.562 56.9972 289.907 56.9547 290.304 57.1081 290.628 57.2327 290.653 57.5089 290.6 57.7903 290.525 58.1873 290.366 58.5795 289.869 58.4319 289.451 58.3077 288.998 58.0984 289.305 57.4454Z" fill="#000000" fill-rule="nonzero" fill-opacity="1" transform="matrix(1.00438 0 0 1 464.501 332.547)"/><path d="M313.458 37.937C312.989 38.1799 312.73 37.9521 312.531 37.6116 312.356 37.3096 312.437 37.0339 312.679 36.807 312.956 36.5467 313.292 36.5697 313.557 36.7725 314.051 37.1503 313.825 37.5433 313.458 37.937Z" fill="#000000" fill-rule="nonzero" fill-opacity="1" transform="matrix(1.00438 0 0 1 464.501 332.547)"/><path d="M282.713 45.9041C282.868 46.3597 282.645 46.5812 282.315 46.7531 282.044 46.8941 281.831 46.8242 281.645 46.6001 281.351 46.2449 281.249 45.8442 281.646 45.5445 282.072 45.2231 282.436 45.4422 282.713 45.904Z" fill="#000000" fill-rule="nonzero" fill-opacity="1" transform="matrix(1.00438 0 0 1 464.501 332.547)"/><path d="M293.102 63.3661C293.578 63.2457 293.934 63.3454 294.021 63.8155 294.094 64.2031 293.912 64.5285 293.522 64.6619 293.126 64.7972 292.861 64.5753 292.719 64.237 292.565 63.8692 292.73 63.5855 293.102 63.3661Z" fill="#000000" fill-rule="nonzero" fill-opacity="1" transform="matrix(1.00438 0 0 1 464.501 332.547)"/><path d="M257.64 94.2582C257.166 94.0832 256.988 93.7738 257.164 93.3495 257.326 92.9576 257.692 92.8944 258.072 92.941 258.401 92.9813 258.556 93.1935 258.532 93.5126 258.494 94.0237 258.187 94.2538 257.64 94.2582Z" fill="#000000" fill-rule="nonzero" fill-opacity="1" transform="matrix(1.00438 0 0 1 464.501 332.547)"/><path d="M298.741 61.0345C298.271 60.9582 297.962 60.7544 298.026 60.2808 298.066 59.9843 298.217 59.6758 298.563 59.6602 298.933 59.643 299.214 59.8598 299.296 60.2342 299.384 60.6441 299.225 60.9348 298.741 61.0345Z" fill="#000000" fill-rule="nonzero" fill-opacity="1" transform="matrix(1.00438 0 0 1 464.501 332.547)"/><path d="M289.892 91.2967C290.174 90.8997 290.493 90.8173 290.84 91.0938 291.113 91.3119 291.215 91.6171 291.02 91.9386 290.84 92.2343 290.56 92.395 290.213 92.2632 289.77 92.0951 289.677 91.7632 289.892 91.2967Z" fill="#000000" fill-rule="nonzero" fill-opacity="1" transform="matrix(1.00438 0 0 1 464.501 332.547)"/><path d="M289.093 16.631C289.405 17.0121 289.362 17.3371 289.019 17.5924 288.7 17.8302 288.37 17.7422 288.106 17.4847 287.846 17.2303 287.94 16.9284 288.125 16.6832 288.388 16.3305 288.721 16.3422 289.094 16.6309Z" fill="#000000" fill-rule="nonzero" fill-opacity="1" transform="matrix(1.00438 0 0 1 464.501 332.547)"/><path d="M296.514 47.5315C297.014 47.4443 297.245 47.6971 297.3 48.0946 297.351 48.4557 297.105 48.6885 296.793 48.8064 296.49 48.9209 296.234 48.7678 296.115 48.4995 295.935 48.0941 296.085 47.7673 296.514 47.5315Z" fill="#000000" fill-rule="nonzero" fill-opacity="1" transform="matrix(1.00438 0 0 1 464.501 332.547)"/><path d="M280.827 96.6027C280.896 97.0663 280.712 97.3481 280.315 97.4521 280.049 97.5214 279.814 97.4147 279.673 97.1635 279.508 96.8704 279.54 96.5736 279.772 96.3496 280.195 95.9414 280.527 96.1597 280.827 96.6027Z" fill="#000000" fill-rule="nonzero" fill-opacity="1" transform="matrix(1.00438 0 0 1 464.501 332.547)"/><path d="M299.409 67.5156C299.712 67.6805 299.898 67.8829 299.816 68.2034 299.724 68.5669 299.496 68.8272 299.096 68.7924 298.781 68.7652 298.585 68.5364 298.622 68.2179 298.671 67.7973 298.79 67.3965 299.409 67.5156Z" fill="#000000" fill-rule="nonzero" fill-opacity="1" transform="matrix(1.00438 0 0 1 464.501 332.547)"/><path d="M291.284 88.8146C290.889 88.5714 290.831 88.2656 291.017 87.9211 291.162 87.6544 291.404 87.5211 291.709 87.6273 291.993 87.7261 292.177 87.948 292.154 88.2512 292.116 88.751 291.828 88.9551 291.284 88.8146Z" fill="#000000" fill-rule="nonzero" fill-opacity="1" transform="matrix(1.00438 0 0 1 464.501 332.547)"/><path d="M301.409 33.6461C301.341 33.8389 301.243 33.9499 301.096 34.0006 300.749 34.1196 300.399 34.1265 300.204 33.7708 300.045 33.4815 300.119 33.1597 300.434 33.0105 300.797 32.8386 301.143 32.9051 301.354 33.2936 301.402 33.3814 301.4 33.496 301.409 33.6461Z" fill="#000000" fill-rule="nonzero" fill-opacity="1" transform="matrix(1.00438 0 0 1 464.501 332.547)"/><path d="M299.966 82.9002C300.339 83.0735 300.544 83.3055 300.369 83.6735 300.211 84.0043 299.901 84.096 299.56 84.0102 299.238 83.9289 299.128 83.6704 299.181 83.3705 299.251 82.9691 299.508 82.7957 299.966 82.9002Z" fill="#000000" fill-rule="nonzero" fill-opacity="1" transform="matrix(1.00438 0 0 1 464.501 332.547)"/><path d="M307.501 60.5699C307.981 60.836 308.111 61.1609 307.749 61.5635 307.465 61.8791 307.152 61.8417 306.866 61.5519 306.7 61.3836 306.683 61.1786 306.771 60.9628 306.898 60.6551 307.095 60.4675 307.501 60.569Z" fill="#000000" fill-rule="nonzero" fill-opacity="1" transform="matrix(1.00438 0 0 1 464.501 332.547)"/><path d="M264.3 93.1773C264.463 92.7661 264.715 92.783 264.977 92.9717 265.249 93.1667 265.446 93.4241 265.311 93.7846 265.209 94.0599 264.971 94.1463 264.692 94.1252 264.328 94.0976 264.255 93.8416 264.252 93.5422 264.251 93.4371 264.272 93.3319 264.3 93.1774Z" fill="#000000" fill-rule="nonzero" fill-opacity="1" transform="matrix(1.00438 0 0 1 464.501 332.547)"/><path d="M293.598 60.712C293.469 60.7211 293.369 60.7427 293.307 60.7029 293.008 60.5136 292.778 60.267 292.876 59.8768 292.937 59.6372 293.095 59.4577 293.366 59.4605 293.72 59.4646 293.875 59.7295 293.993 60.0047 294.146 60.36 293.945 60.5579 293.598 60.7116Z" fill="#000000" fill-rule="nonzero" fill-opacity="1" transform="matrix(1.00438 0 0 1 464.501 332.547)"/><path d="M295.458 79.6042C295.016 79.4561 294.792 79.2079 294.974 78.7766 295.109 78.4578 295.406 78.47 295.683 78.5354 295.899 78.5862 296.097 78.71 296.074 78.9642 296.044 79.303 295.894 79.5721 295.458 79.6042Z" fill="#000000" fill-rule="nonzero" fill-opacity="1" transform="matrix(1.00438 0 0 1 464.501 332.547)"/><path d="M296.234 29.9434C296.119 30.3313 295.94 30.5794 295.539 30.4448 295.247 30.3469 295.097 30.128 295.135 29.8082 295.175 29.4675 295.412 29.3448 295.712 29.3413 296.064 29.3374 296.266 29.5133 296.234 29.9434Z" fill="#000000" fill-rule="nonzero" fill-opacity="1" transform="matrix(1.00438 0 0 1 464.501 332.547)"/><path d="M302.757 37.9385C302.828 37.8546 302.865 37.798 302.917 37.768 303.209 37.5996 303.491 37.6292 303.704 37.8889 303.844 38.06 303.867 38.3032 303.722 38.4739 303.49 38.7446 303.163 38.7547 302.859 38.6199 302.548 38.4817 302.621 38.2236 302.758 37.9385Z" fill="#000000" fill-rule="nonzero" fill-opacity="1" transform="matrix(1.00438 0 0 1 464.501 332.547)"/><path d="M314.895 55.615C314.513 55.707 314.233 55.6059 314.186 55.2502 314.148 54.9741 314.3 54.6955 314.569 54.5795 314.854 54.457 315.056 54.681 315.2 54.8805 315.448 55.2211 315.188 55.4137 314.895 55.615Z" fill="#000000" fill-rule="nonzero" fill-opacity="1" transform="matrix(1.00438 0 0 1 464.501 332.547)"/><path d="M291.102 17.1283C291.386 16.7383 291.69 16.7547 291.988 17.0179 292.207 17.2113 292.224 17.4664 292.052 17.699 291.858 17.9607 291.59 17.9688 291.318 17.8291 291.044 17.6881 291.031 17.4406 291.102 17.1283Z" fill="#000000" fill-rule="nonzero" fill-opacity="1" transform="matrix(1.00438 0 0 1 464.501 332.547)"/><path d="M315.636 51.5586C315.225 51.3862 315.103 51.1285 315.335 50.7872 315.532 50.4983 315.816 50.4553 316.118 50.6296 316.275 50.7203 316.383 50.8691 316.33 51.0539 316.24 51.3685 316.024 51.5532 315.636 51.5586Z" fill="#000000" fill-rule="nonzero" fill-opacity="1" transform="matrix(1.00438 0 0 1 464.501 332.547)"/><path d="M295.628 76.5663C295.547 76.6679 295.496 76.7478 295.423 76.7783 295.119 76.9062 294.768 77.0216 294.591 76.6445 294.464 76.3732 294.692 76.1346 294.948 76.0631 295.315 75.9608 295.638 76.0283 295.628 76.5662Z" fill="#000000" fill-rule="nonzero" fill-opacity="1" transform="matrix(1.00438 0 0 1 464.501 332.547)"/><path d="M306.763 71.1642C306.796 71.4726 306.675 71.6282 306.411 71.615 306.135 71.6015 306.009 71.3974 305.958 71.1536 305.925 70.9886 306.006 70.8586 306.163 70.8003 306.473 70.6843 306.643 70.8478 306.763 71.1642Z" fill="#000000" fill-rule="nonzero" fill-opacity="1" transform="matrix(1.00438 0 0 1 464.501 332.547)"/><path d="M293.166 72.0346C293.301 72.236 293.576 72.2532 293.618 72.5077 293.425 72.7495 293.215 72.6844 293.013 72.535 292.844 72.4094 292.781 72.2303 292.858 72.0289 292.928 71.845 293.038 71.9005 293.166 72.0349Z" fill="#000000" fill-rule="nonzero" fill-opacity="1" transform="matrix(1.00438 0 0 1 464.501 332.547)"/><path d="M271.374 71.7168C271.564 72.0188 271.516 72.2661 271.262 72.4585 271.167 72.53 271.016 72.5018 270.987 72.4016 270.891 72.0745 271.026 71.8363 271.374 71.7167Z" fill="#000000" fill-rule="nonzero" fill-opacity="1" transform="matrix(1.00438 0 0 1 464.501 332.547)"/><text fill="#000000" fill-opacity="1" font-family="PT Serif Caption,PT Serif Caption_MSFontService,sans-serif" font-style="normal" font-variant="normal" font-weight="700" font-stretch="normal" font-size="6.67136" text-anchor="start" direction="ltr" writing-mode="lr-tb" unicode-bidi="normal" text-decoration="none" transform="matrix(3.15 0 0 3.13627 696.571 389)">AAS</text></g></g></g></g></g></svg>