<svg width="568" height="169" xmlns="http://www.w3.org/2000/svg" xmlns:xlink="http://www.w3.org/1999/xlink" xml:space="preserve" overflow="hidden"><defs><clipPath id="clip0"><rect x="640" y="276" width="567" height="169"/></clipPath><clipPath id="clip1"><rect x="640" y="276" width="567" height="169"/></clipPath><clipPath id="clip2"><rect x="640" y="276" width="567" height="169"/></clipPath></defs><g transform="translate(-640 -276)"><g><g clip-path="url(#clip0)"><g clip-path="url(#clip1)"><g clip-path="url(#clip2)"><path d="M525.589 166.941 525.589 164.637 528.8 163.83C531.49 163.04 531.994 162.435 531.994 158.332L531.994 126.235C531.994 122.032 531.49 121.729 528.901 120.132L525.387 118.03 525.387 116.349 544.201 114.046 545.092 114.735 544.89 121.343 545.395 121.343C548.606 117.98 554.407 113.945 559.804 113.945 564.293 113.945 567 116.349 567 120.838 567.325 124.212 564.854 127.211 561.481 127.536 561.253 127.558 561.024 127.567 560.796 127.564 556.592 127.564 555.399 126.067 553.902 123.36 553.398 122.167 552.893 121.864 552.002 121.864 549.498 122.252 547.182 123.43 545.395 125.227L545.395 158.332C545.395 162.838 545.899 163.376 548.404 163.83L552.406 164.637 552.406 166.941ZM484.48 168.135C476.392 168.135 471.281 163.528 471.281 154.936L471.281 125.428C471.281 121.528 470.978 121.225 468.389 119.829L464.69 117.829 464.69 116.013 483.588 114.012 484.681 114.903 484.681 151.893C484.681 157.794 487.187 160.4 492.281 160.4 496.066 160.182 499.787 159.335 503.294 157.895L503.294 125.428C503.294 121.528 502.991 121.124 500.385 119.829L496.686 117.829 496.686 116.013 515.584 114.012 516.694 114.903 516.694 155.625C516.694 160.434 517.098 161.039 519.788 162.132L523.151 163.629 523.151 165.528 504.488 168.135 503.596 167.428 503.798 160.938 503.294 160.938C498.082 164.637 491.793 168.135 484.48 168.135ZM424.069 168.135C415.982 168.135 410.87 163.528 410.87 154.936L410.87 125.428C410.87 121.528 410.568 121.225 407.978 119.829L404.279 117.829 404.279 116.013 423.178 114.012 424.271 114.903 424.271 151.893C424.271 157.794 426.776 160.4 431.87 160.4 435.655 160.182 439.377 159.335 442.883 157.895L442.883 125.428C442.883 121.528 442.581 121.124 439.974 119.829L436.275 117.829 436.275 116.013 455.174 114.012 456.283 114.903 456.283 155.625C456.283 160.434 456.687 161.039 459.377 162.132L462.74 163.629 462.74 165.528 444.077 168.135 443.186 167.428 443.388 160.938 442.883 160.938C437.671 164.637 431.383 168.135 424.069 168.135ZM388.071 168.135C380.169 168.135 375.259 164.637 375.259 155.726L375.259 120.62 368.669 120.62 368.669 118.434C376.073 115.889 381.875 110.049 384.372 102.629L388.677 102.629 388.677 115.424 402.279 115.424 401.068 120.62 388.677 120.62 388.677 154.684C388.677 159.375 390.358 161.275 395.167 161.275 397.701 161.21 400.218 160.843 402.665 160.182L402.665 162.687C398.635 166.234 393.44 168.173 388.071 168.135ZM344.76 168.135C339.546 168.154 334.358 167.412 329.359 165.932L328.854 150.8 331.359 150.8C333.028 154.228 335.039 157.478 337.362 160.501 339.363 163.393 341.464 164.604 346.155 164.604 351.367 164.604 355.268 161.695 355.268 156.802 355.268 151.91 351.906 149.505 343.499 146.193 334.689 142.83 328.989 138.392 328.989 130.102 328.989 120.687 336.891 113.995 349.165 113.995 353.683 113.873 358.186 114.556 362.464 116.013L362.969 129.211 360.665 129.211C359.218 126.229 357.405 123.439 355.268 120.906 352.965 118.114 350.964 117.543 347.568 117.543 342.524 117.543 339.464 120.149 339.464 124.537 339.464 128.64 342.07 131.448 350.157 134.625 360.968 138.627 366.163 143.133 366.163 150.833 366.163 160.837 358.362 168.135 344.76 168.135ZM301.751 117.425C295.648 117.425 291.058 122.721 290.553 135.432L310.057 134.424C310.057 122.335 308.359 117.425 301.751 117.425ZM302.356 168.135C285.459 168.135 277.052 157.525 277.052 140.829 277.052 124.134 289.259 113.928 302.356 113.928 315.454 113.928 323.76 120.821 323.962 138.93L290.553 138.93C290.755 155.44 297.279 160.636 307.451 160.636 312.734 160.567 317.924 159.229 322.583 156.735L322.583 159.728C317.18 165.038 309.931 168.05 302.356 168.135ZM235.641 128.825 242.114 128.825C250.42 128.825 254.018 124.52 254.018 115.828 254.018 104.815 250.319 101.62 242.248 101.62 240.031 101.602 237.818 101.805 235.641 102.226ZM244.35 162.939C252.05 162.939 256.54 158.938 256.54 148.026 256.54 137.114 252.841 132.725 243.24 132.725L235.641 132.725 235.641 155.928C235.641 162.132 236.75 162.939 244.35 162.939ZM213.245 166.941 213.245 164.536 217.146 163.729C219.836 163.242 220.744 162.637 220.744 157.004L220.744 107.606C220.744 101.906 219.836 101.402 217.146 100.881L213.245 100.074 213.245 97.6189 243.139 97.6189C259.953 97.6189 268.847 102.428 268.847 114.029 268.847 123.125 262.542 128.034 251.243 129.833L251.243 130.321C264.946 131.733 272.344 136.727 272.344 147.437 272.344 160.131 262.542 166.941 245.947 166.941ZM544.201 76.8207C538.987 76.8401 533.799 76.0981 528.8 74.6181L528.295 59.486 530.801 59.486C532.474 62.9116 534.484 66.1615 536.803 69.1874 538.804 72.0793 540.889 73.273 545.596 73.273 550.792 73.273 554.693 70.3811 554.693 65.4716 554.693 60.562 551.33 58.1745 542.923 54.8791 534.13 51.5164 528.43 47.0777 528.43 38.7718 528.43 29.3731 536.332 22.6645 548.606 22.6645 553.122 22.5471 557.624 23.2243 561.906 24.6653L562.393 37.8807 560.107 37.8807C558.658 34.8954 556.839 32.1048 554.693 29.5749 552.406 26.767 550.405 26.2122 546.992 26.2122 541.948 26.2122 538.905 28.8014 538.905 33.2066 538.905 37.309 541.494 40.1001 549.598 43.2106 560.392 47.2122 565.604 51.7014 565.604 59.4187 565.604 69.5068 557.803 76.8207 544.201 76.8207ZM495.089 69.9103C498.531 69.8553 501.903 68.9298 504.891 67.2202L504.891 30.4996C502.741 27.9632 499.607 26.4697 496.283 26.3971 487.792 26.3971 482.193 32.0128 482.193 48.8094 482.193 64.3114 486.783 69.9103 495.089 69.9103ZM487.994 76.8207C478.292 76.8207 468.389 70.0953 468.389 51.6005 468.389 31.2898 481.84 22.7822 496.787 22.7822 499.593 22.771 502.388 23.1444 505.093 23.8919 505.093 23.8919 504.891 20.0921 504.891 16.494L504.891 11.9039C504.891 7.4988 504.286 7.19616 501.898 6.0024L497.678 3.90072 497.678 1.89992 517.686 0 518.594 0.706165C518.594 0.706165 518.291 5.19536 518.291 12.6101L518.291 64.3114C518.291 69.1201 518.695 69.7086 521.402 70.8183L524.58 72.2978 524.58 74.1978 506.085 76.8038 505.093 76.0977 505.295 70.5997 504.891 70.5997C500.129 74.5337 494.169 76.7279 487.994 76.8207ZM406.381 75.6605 406.381 73.3066 409.576 72.5164C412.266 71.7094 412.77 71.1209 412.77 67.0184L412.77 34.9047C412.77 30.7014 412.266 30.3987 409.677 28.8014L406.179 26.6998 406.179 25.0184 424.977 22.715 425.885 23.3203 425.683 29.5244 426.171 29.5244C431.215 25.9263 438.074 22.715 444.985 22.715 454.081 22.715 458.183 27.0192 458.183 36.0312L458.183 67.0184C458.183 71.205 458.789 71.8102 461.378 72.5164L464.589 73.3066 464.589 75.6605 438.68 75.6605 438.68 73.3066 441.773 72.5164C444.379 71.8102 444.783 71.5076 444.783 67.0184L444.783 39.209C444.783 32.803 442.48 30.7014 437.183 30.7014 433.456 30.8813 429.761 31.4848 426.171 32.5004L426.171 67.0184C426.171 71.5076 426.574 71.8102 429.18 72.5164L432.274 73.3066 432.274 75.6605ZM376.369 70.7678C379.264 70.9458 382.025 69.5267 383.565 67.0689L383.565 50.9111 377.765 51.5164C372.065 52.004 368.568 54.5092 368.568 61.8062 368.568 68.0104 371.661 70.7174 376.369 70.7174ZM370.266 76.972C360.968 76.972 355.268 72.1633 355.268 63.6557 355.268 55.1481 362.464 51.3651 371.762 49.1625L383.532 46.2538 383.532 36.9896C383.532 29.289 382.237 26.2962 375.528 26.2962 371.93 26.2962 370.938 27.0865 370.636 29.9952 370.131 35.0392 368.736 37.7966 363.826 37.7966 359.724 37.7966 357.723 35.4932 357.723 32.1978 357.723 25.7918 366.735 22.6813 378.336 22.6813 390.543 22.6813 396.932 26.7838 396.932 36.1321L396.932 65.0512C396.932 68.4139 397.537 69.8431 399.437 70.8519 400.926 71.4771 402.53 71.7808 404.145 71.743L404.145 73.8111C401.057 75.8373 397.43 76.8861 393.737 76.8207 388.239 76.8207 385.129 74.5172 384.238 70.8183L383.733 70.8183C380.409 74.7988 375.451 77.0459 370.266 76.9215ZM325.761 75.6605 325.761 73.3066 328.955 72.5164C331.763 71.7094 332.318 71.1209 332.318 67.0184L332.318 11.9039C332.318 7.39792 331.813 7.09528 329.207 5.80064L325.307 3.90072 325.307 1.89992 345.062 0 346.054 0.706165C346.054 0.706165 345.668 5.90152 345.668 12.6101L345.668 67.0184C345.668 71.3058 346.155 71.7094 349.03 72.5164L352.225 73.3066 352.225 75.6605ZM264.946 75.6605 264.946 73.3066 268.141 72.5164C270.848 71.7094 271.352 71.1209 271.352 67.0184L271.352 34.9047C271.352 30.7014 270.848 30.3987 268.242 28.8014L264.745 26.6998 264.745 25.0184 283.559 22.715 284.45 23.3203 284.248 29.5244 284.753 29.5244C289.797 25.9263 296.657 22.715 303.55 22.715 312.663 22.715 316.749 27.0192 316.749 36.0312L316.749 67.0184C316.749 71.205 317.354 71.8102 319.96 72.5164L323.155 73.3066 323.155 75.6605 297.245 75.6605 297.245 73.3066 300.355 72.5164C302.962 71.8102 303.348 71.5076 303.348 67.0184L303.348 39.209C303.348 32.803 301.062 30.7014 295.749 30.7014 292.027 30.8811 288.338 31.4847 284.753 32.5004L284.753 67.0184C284.753 71.5076 285.156 71.8102 287.745 72.5164L290.856 73.3066 290.856 75.6605ZM238.936 26.1113C232.849 26.1113 228.243 31.4075 227.738 44.1017L247.242 43.1097C247.242 31.004 245.476 26.1113 238.936 26.1113ZM239.541 76.8207C222.644 76.8207 214.321 66.2114 214.321 49.5156 214.321 32.8199 226.528 22.6141 239.541 22.6141 252.555 22.6141 260.945 29.5244 261.147 47.6325L227.738 47.6325C227.94 64.1265 234.464 69.3219 244.636 69.3219 249.949 69.2711 255.17 67.9326 259.852 65.4211L259.852 68.4307C254.416 73.7411 247.14 76.7468 239.541 76.8207ZM152.633 75.6605 152.633 73.3066 155.827 72.5164C158.534 71.7094 159.022 71.1209 159.022 67.0184L159.022 34.9047C159.022 30.7014 158.534 30.3987 155.928 28.8014L152.431 26.6998 152.431 25.0184 171.228 22.715 172.136 23.3203 171.934 29.5244 172.439 29.5244C177.483 25.9263 184.326 22.715 191.236 22.715 200.332 22.715 204.435 27.0192 204.435 36.0312L204.435 67.0184C204.435 71.205 205.04 71.8102 207.629 72.5164L210.841 73.3066 210.841 75.6605 184.948 75.6605 184.948 73.3066 188.058 72.5164C190.648 71.8102 191.051 71.5076 191.051 67.0184L191.051 39.209C191.051 32.803 188.748 30.7014 183.452 30.7014 179.73 30.8796 176.04 31.4832 172.456 32.5004L172.456 67.0184C172.456 71.5076 172.842 71.8102 175.448 72.5164L178.542 73.3066 178.542 75.6605ZM91.8183 75.6605 91.8183 73.3066 95.0128 72.5164C97.7198 71.7094 98.2242 71.1209 98.2242 67.0184L98.2242 34.9047C98.2242 30.7014 97.7198 30.3987 95.1137 28.8014L91.6165 26.6998 91.6165 25.0184 110.414 22.6982 111.322 23.3034 111.12 29.5076 111.625 29.5076C116.669 25.9095 123.528 22.6982 130.422 22.6982 139.518 22.6982 143.62 27.0024 143.62 36.0144L143.62 67.0184C143.62 71.205 144.226 71.8102 146.832 72.5164L150.026 73.3066 150.026 75.6605 124.117 75.6605 124.117 73.3066 127.227 72.5164C129.817 71.8102 130.22 71.5076 130.22 67.0184L130.22 39.209C130.22 32.803 127.917 30.7014 122.62 30.7014 118.899 30.8796 115.209 31.4832 111.625 32.5004L111.625 67.0184C111.625 71.5076 112.028 71.8102 114.617 72.5164L117.694 73.3066 117.694 75.6605ZM75.6605 16.5949C71.5589 16.7441 68.1129 13.54 67.9638 9.43839 67.962 9.39155 67.9608 9.3447 67.96 9.29784 68.2402 5.07279 71.8925 1.87492 76.1176 2.15519 79.952 2.40956 83.0058 5.46336 83.2602 9.29784 83.206 13.3832 79.8502 16.6512 75.7648 16.597 75.7301 16.5965 75.6953 16.5958 75.6605 16.5949ZM63.0168 75.6605 63.0168 73.3066 66.2114 72.5164C68.9183 71.7094 69.4059 71.1209 69.4059 67.0184L69.4059 34.9047C69.4059 30.7014 68.9183 30.3987 66.3122 28.8014L62.8151 26.6998 62.8151 25.0184 82.3859 22.6982 83.277 23.3034C83.1761 25.1025 82.8903 29.0032 82.8903 33.9127L82.8903 67.0184C82.8903 71.3058 83.3779 71.8102 86.0849 72.5164L89.2794 73.3066 89.2794 75.6605ZM22.4123 37.5108 28.9023 37.5108C37.2082 37.5108 40.8062 33.2066 40.8062 24.4972 40.8062 13.5012 37.1073 10.3066 29.0368 10.3066 26.8262 10.2937 24.6193 10.4908 22.446 10.8951ZM31.1049 71.6085C38.8054 71.6085 43.3115 67.6069 43.3115 56.7118 43.3115 45.8167 39.6125 41.4115 30.012 41.4115L22.4123 41.4115 22.4123 64.6141C22.4123 70.8183 23.5388 71.6085 31.1049 71.6085ZM0 75.6605 0 73.2058 3.90072 72.4155C6.60769 71.9111 7.4988 71.3058 7.4988 65.6902L7.4988 16.309C7.4988 10.6093 6.60769 10.1049 3.90072 9.58367L0 8.70937 0 6.30504 29.9111 6.30504C46.7246 6.30504 55.6021 11.0969 55.6021 22.6982 55.6021 31.8111 49.3139 36.7038 38.0152 38.5028L38.0152 39.0072C51.7014 40.3523 59.1161 45.3963 59.1161 56.1065 59.1161 68.8175 49.3139 75.6101 32.7022 75.6101Z" fill="#1A1449" fill-rule="evenodd" fill-opacity="1" transform="matrix(1 0 0 1.00446 640 276.058)"/></g></g></g></g></g></svg>