<?xml version="1.0" encoding="utf-8"?>
<!-- Generator: Adobe Illustrator 16.0.0, SVG Export Plug-In . SVG Version: 6.00 Build 0)  -->
<!DOCTYPE svg PUBLIC "-//W3C//DTD SVG 1.1//EN" "http://www.w3.org/Graphics/SVG/1.1/DTD/svg11.dtd">
<svg version="1.1" id="Layer_1" xmlns="http://www.w3.org/2000/svg" xmlns:xlink="http://www.w3.org/1999/xlink" x="0px" y="0px"
	 width="386px" height="212.598px" viewBox="0 0 386 212.598" enable-background="new 0 0 386 212.598" xml:space="preserve">
<g>
	<g>
		<path fill="#009444" d="M157.433,127.919c-1.831,0-4.034-0.343-5.665-1.001l0.4-2.002c1.745,0.543,3.576,0.83,5.321,0.83
			c3.062,0,3.691-0.801,3.691-2.976c0-2.575-0.029-2.804-3.948-3.691c-4.606-1.03-5.15-1.917-5.15-5.865
			c0-3.319,1.374-4.921,6.094-4.921c1.659,0,3.633,0.229,5.15,0.629l-0.201,2.088c-1.516-0.343-3.319-0.543-4.892-0.543
			c-3.119,0-3.691,0.629-3.691,2.833c0,2.632,0,2.747,3.777,3.69c5.064,1.259,5.321,2.003,5.321,5.722
			C163.641,126.031,162.668,127.919,157.433,127.919z"/>
		<path fill="#009444" d="M182.976,127.633h-2.489l-1.574-4.578h-8.097l-1.545,4.578h-2.489l6.437-19.054h3.319L182.976,127.633z
			 M174.879,110.352l-3.405,10.557h6.809L174.879,110.352z"/>
		<path fill="#009444" d="M189.24,112.183l-0.372,15.45h-2.375l0.658-19.054h3.119l5.493,14.734l5.493-14.734h3.119l0.658,19.054
			h-2.375l-0.372-15.45l-4.864,12.989h-3.319L189.24,112.183z"/>
		<path fill="#009444" d="M210.181,108.579h11.216v2.203h-8.755v5.979h8.125v2.203h-8.125v6.466h8.783v2.203h-11.244V108.579z"/>
		<path fill="#009444" d="M228.547,111.411v16.222h-2.346v-19.054h3.377l8.297,16.308v-16.308h2.346v19.054h-3.377L228.547,111.411z
			"/>
		<path fill="#009444" d="M261.877,125.287l4.349-16.708h2.403l-5.007,19.054h-3.462l-3.947-17.023l-3.949,17.023h-3.461
			l-5.008-19.054h2.404l4.348,16.708l3.949-16.708h3.433L261.877,125.287z"/>
		<path fill="#009444" d="M272.203,108.579h11.215v2.203h-8.754v5.979h8.125v2.203h-8.125v6.466h8.783v2.203h-11.244V108.579z"/>
		<path fill="#009444" d="M295.348,120.738h-4.663v6.895h-2.461v-19.054h7.267c4.092,0,5.522,1.773,5.522,4.692v2.747
			c0,2.26-0.829,3.805-3.032,4.435l4.949,7.181h-2.832L295.348,120.738z M295.404,110.781h-4.72v7.782h4.72
			c2.347,0,3.148-0.658,3.148-2.518v-2.747C298.553,111.411,297.751,110.781,295.404,110.781z"/>
		<path fill="#009444" d="M309.336,127.633h-2.461v-19.054h2.461V127.633z M312.713,117.934l7.553,9.699h-2.947l-7.381-9.699
			l6.865-9.355h2.891L312.713,117.934z"/>
		<path fill="#009444" d="M326.873,127.633h-2.461v-19.054h2.461V127.633z"/>
		<path fill="#009444" d="M334.799,111.411v16.222h-2.348v-19.054h3.377l8.297,16.308v-16.308h2.346v19.054h-3.375L334.799,111.411z
			"/>
		<path fill="#009444" d="M353.938,122.168c0,2.432,0.715,3.519,3.977,3.519c1.002,0,2.26-0.086,3.576-0.343v-6.466h2.375v8.211
			c-1.859,0.543-4.062,0.83-6.037,0.83c-4.863,0-6.352-2.088-6.352-5.607v-8.383c0-3.863,1.918-5.636,6.666-5.636
			c1.631,0,3.52,0.2,5.293,0.601l-0.285,2.117c-1.832-0.314-3.549-0.486-5.121-0.486c-3.148,0-4.092,0.944-4.092,3.519V122.168z"/>
	</g>
	<g>
		<path fill="#6D6E71" d="M69.85,176.461c0,1.395,0.54,1.844,2.175,1.844c0.6,0,1.575-0.074,2.34-0.209l0.135,1.109
			c-0.72,0.165-1.77,0.27-2.52,0.27c-2.445,0-3.42-1.049-3.42-2.939v-4.41c0-1.89,0.975-2.939,3.42-2.939
			c0.75,0,1.8,0.105,2.52,0.27l-0.135,1.11c-0.765-0.135-1.74-0.21-2.34-0.21c-1.635,0-2.175,0.45-2.175,1.846V176.461z"/>
		<path fill="#6D6E71" d="M80.395,173.026c-0.69,0.33-1.485,0.84-2.085,1.26v5.04h-1.26v-7.305h1.095l0.075,1.021
			c0.54-0.42,1.29-0.871,2.01-1.17L80.395,173.026z"/>
		<path fill="#6D6E71" d="M87.396,179.326h-1.065l-0.075-0.54c-0.645,0.45-1.485,0.689-2.37,0.689c-1.365,0-1.935-0.81-1.935-2.1
			c0-1.515,0.765-2.055,2.235-2.055h1.95v-1.141c0-0.914-0.405-1.229-1.59-1.229c-0.705,0-1.62,0.119-2.19,0.239l-0.135-1.005
			c0.69-0.18,1.62-0.314,2.399-0.314c2.085,0,2.775,0.81,2.775,2.369V179.326z M86.137,176.371h-1.86
			c-0.78,0-1.065,0.24-1.065,0.976c0,0.75,0.135,1.049,1.035,1.049c0.63,0,1.334-0.239,1.89-0.6V176.371z"/>
		<path fill="#6D6E71" d="M94.627,179.326v-5.579c0-0.48-0.24-0.676-0.705-0.676c-0.54,0-1.665,0.33-2.445,0.735v5.52h-1.26v-7.305
			h1.02l0.12,0.63c0.81-0.391,2.07-0.779,2.94-0.779c1.17,0,1.59,0.734,1.59,1.859v5.595H94.627z"/>
		<path fill="#6D6E71" d="M101.436,178.395c0.72,0,1.515-0.135,2.31-0.344l0.165,1.004c-0.69,0.256-1.665,0.42-2.58,0.42
			c-2.16,0-2.895-1.034-2.895-2.684v-2.19c0-1.515,0.69-2.729,2.865-2.729c2.16,0,2.745,1.244,2.745,2.76v1.529h-4.35v0.615
			C99.696,177.93,100.011,178.395,101.436,178.395z M99.696,175.111h3.135v-0.601c0-1.02-0.345-1.59-1.53-1.59
			s-1.605,0.57-1.605,1.59V175.111z"/>
		<path fill="#6D6E71" d="M111.036,179.326v-5.579c0-0.48-0.24-0.676-0.705-0.676c-0.54,0-1.665,0.33-2.445,0.735v5.52h-1.26v-7.305
			h1.02l0.12,0.63c0.81-0.391,2.07-0.779,2.94-0.779c1.17,0,1.59,0.734,1.59,1.859v5.595H111.036z"/>
		<path fill="#6D6E71" d="M114.952,174.256c0-1.455,0.66-2.385,2.37-2.385c0.645,0,1.5,0.104,2.085,0.225v-3.061l1.26-0.18v10.47
			h-1.065l-0.105-0.66c-0.6,0.479-1.455,0.81-2.415,0.81c-1.44,0-2.13-0.764-2.13-2.234V174.256z M119.406,173.206
			c-0.675-0.135-1.5-0.225-2.01-0.225c-0.84,0-1.185,0.391-1.185,1.275v2.984c0,0.75,0.24,1.125,1.125,1.125
			c0.72,0,1.53-0.391,2.07-0.87V173.206z"/>
		<path fill="#6D6E71" d="M126.261,179.475c-2.13,0-2.97-1.215-2.97-2.744v-2.115c0-1.529,0.84-2.744,2.97-2.744
			s2.97,1.215,2.97,2.744v2.115C129.231,178.26,128.391,179.475,126.261,179.475z M126.261,172.965c-1.14,0-1.71,0.541-1.71,1.605
			v2.205c0,1.064,0.57,1.605,1.71,1.605c1.14,0,1.71-0.541,1.71-1.605v-2.205C127.971,173.506,127.401,172.965,126.261,172.965z"/>
		<path fill="#6D6E71" d="M136.266,179.326v-5.579c0-0.48-0.24-0.676-0.705-0.676c-0.54,0-1.665,0.33-2.445,0.735v5.52h-1.26v-7.305
			h1.02l0.12,0.63c0.81-0.391,2.07-0.779,2.94-0.779c1.17,0,1.59,0.734,1.59,1.859v5.595H136.266z"/>
		<path fill="#6D6E71" d="M140,176.821v-2.295c0-1.68,0.63-2.654,2.91-2.654c0.645,0,1.365,0.104,1.74,0.225l-0.105,1.05
			c-0.57-0.12-1.095-0.165-1.605-0.165c-1.26,0-1.68,0.359-1.68,1.5v2.385c0,1.141,0.42,1.5,1.68,1.5
			c0.51,0,1.035-0.045,1.605-0.165l0.12,1.05c-0.375,0.12-1.11,0.225-1.755,0.225C140.57,179.475,140,178.5,140,176.821z"/>
		<path fill="#6D6E71" d="M147.185,179.326v-10.29l1.26-0.18v10.47H147.185z M152.794,172.021l-2.61,3.614l2.73,3.69h-1.485
			l-2.67-3.69l2.58-3.614H152.794z"/>
		<path fill="#6D6E71" d="M160.025,182.475h-0.855v-14.999h0.855V182.475z"/>
		<path fill="#6D6E71" d="M172.94,179.326v-4.53h-4.425v4.53h-1.29v-9.989h1.29v4.305h4.425v-4.305h1.29v9.989H172.94z"/>
		<path fill="#6D6E71" d="M179.93,178.395c0.72,0,1.515-0.135,2.31-0.344l0.165,1.004c-0.69,0.256-1.665,0.42-2.58,0.42
			c-2.16,0-2.895-1.034-2.895-2.684v-2.19c0-1.515,0.69-2.729,2.865-2.729c2.16,0,2.745,1.244,2.745,2.76v1.529h-4.35v0.615
			C178.19,177.93,178.505,178.395,179.93,178.395z M178.19,175.111h3.135v-0.601c0-1.02-0.345-1.59-1.53-1.59
			s-1.605,0.57-1.605,1.59V175.111z"/>
		<path fill="#6D6E71" d="M187.745,178.395c0.72,0,1.515-0.135,2.31-0.344l0.165,1.004c-0.69,0.256-1.665,0.42-2.58,0.42
			c-2.16,0-2.895-1.034-2.895-2.684v-2.19c0-1.515,0.69-2.729,2.865-2.729c2.16,0,2.745,1.244,2.745,2.76v1.529h-4.35v0.615
			C186.005,177.93,186.32,178.395,187.745,178.395z M186.005,175.111h3.135v-0.601c0-1.02-0.345-1.59-1.53-1.59
			s-1.605,0.57-1.605,1.59V175.111z"/>
		<path fill="#6D6E71" d="M192.71,172.021h5.04l-0.015,1.021l-3.72,5.264h3.78v1.021h-5.16v-1.021l3.72-5.264h-3.645V172.021z"/>
		<path fill="#6D6E71" d="M203.045,178.395c0.719,0,1.514-0.135,2.309-0.344l0.166,1.004c-0.691,0.256-1.666,0.42-2.58,0.42
			c-2.161,0-2.895-1.034-2.895-2.684v-2.19c0-1.515,0.689-2.729,2.864-2.729c2.16,0,2.746,1.244,2.746,2.76v1.529h-4.35v0.615
			C201.305,177.93,201.619,178.395,203.045,178.395z M201.305,175.111h3.135v-0.601c0-1.02-0.346-1.59-1.531-1.59
			c-1.184,0-1.604,0.57-1.604,1.59V175.111z"/>
		<path fill="#6D6E71" d="M208.008,174.631h3.75v1.035h-3.75V174.631z"/>
		<path fill="#6D6E71" d="M215.822,178.17h4.334v1.155h-5.623v-9.989h1.289V178.17z"/>
		<path fill="#6D6E71" d="M225.105,178.395c0.719,0,1.514-0.135,2.309-0.344l0.166,1.004c-0.691,0.256-1.666,0.42-2.58,0.42
			c-2.16,0-2.895-1.034-2.895-2.684v-2.19c0-1.515,0.689-2.729,2.863-2.729c2.16,0,2.746,1.244,2.746,2.76v1.529h-4.35v0.615
			C223.365,177.93,223.68,178.395,225.105,178.395z M223.365,175.111h3.135v-0.601c0-1.02-0.346-1.59-1.531-1.59
			c-1.184,0-1.604,0.57-1.604,1.59V175.111z"/>
		<path fill="#6D6E71" d="M232.92,178.395c0.721,0,1.516-0.135,2.311-0.344l0.164,1.004c-0.689,0.256-1.664,0.42-2.58,0.42
			c-2.16,0-2.895-1.034-2.895-2.684v-2.19c0-1.515,0.689-2.729,2.865-2.729c2.16,0,2.744,1.244,2.744,2.76v1.529h-4.35v0.615
			C231.18,177.93,231.494,178.395,232.92,178.395z M231.18,175.111h3.135v-0.601c0-1.02-0.344-1.59-1.529-1.59
			s-1.605,0.57-1.605,1.59V175.111z"/>
		<path fill="#6D6E71" d="M242.52,179.326v-5.579c0-0.48-0.24-0.676-0.705-0.676c-0.539,0-1.664,0.33-2.445,0.735v5.52h-1.26v-7.305
			h1.02l0.121,0.63c0.809-0.391,2.07-0.779,2.939-0.779c1.17,0,1.59,0.734,1.59,1.859v5.595H242.52z"/>
		<path fill="#6D6E71" d="M246.436,174.256c0-1.455,0.66-2.385,2.371-2.385c0.645,0,1.5,0.104,2.084,0.225v-3.061l1.26-0.18v10.47
			h-1.064l-0.105-0.66c-0.6,0.479-1.455,0.81-2.414,0.81c-1.439,0-2.131-0.764-2.131-2.234V174.256z M250.891,173.206
			c-0.674-0.135-1.5-0.225-2.01-0.225c-0.84,0-1.186,0.391-1.186,1.275v2.984c0,0.75,0.24,1.125,1.125,1.125
			c0.721,0,1.531-0.391,2.07-0.87V173.206z"/>
		<path fill="#6D6E71" d="M257.775,178.395c0.719,0,1.514-0.135,2.309-0.344l0.166,1.004c-0.691,0.256-1.666,0.42-2.58,0.42
			c-2.16,0-2.895-1.034-2.895-2.684v-2.19c0-1.515,0.689-2.729,2.863-2.729c2.16,0,2.746,1.244,2.746,2.76v1.529h-4.35v0.615
			C256.035,177.93,256.35,178.395,257.775,178.395z M256.035,175.111h3.135v-0.601c0-1.02-0.346-1.59-1.531-1.59
			c-1.184,0-1.604,0.57-1.604,1.59V175.111z"/>
		<path fill="#6D6E71" d="M267.943,182.475h-0.854v-14.999h0.854V182.475z"/>
		<path fill="#6D6E71" d="M274.139,169.336h1.246l2.924,8.864l2.926-8.864h1.244l-3.299,9.989h-1.74L274.139,169.336z"/>
		<path fill="#6D6E71" d="M289.123,179.326h-1.064l-0.076-0.54c-0.645,0.45-1.484,0.689-2.369,0.689c-1.365,0-1.936-0.81-1.936-2.1
			c0-1.515,0.766-2.055,2.236-2.055h1.949v-1.141c0-0.914-0.404-1.229-1.59-1.229c-0.705,0-1.619,0.119-2.189,0.239l-0.135-1.005
			c0.689-0.18,1.619-0.314,2.398-0.314c2.086,0,2.775,0.81,2.775,2.369V179.326z M287.863,176.371h-1.859
			c-0.781,0-1.066,0.24-1.066,0.976c0,0.75,0.137,1.049,1.035,1.049c0.631,0,1.336-0.239,1.891-0.6V176.371z"/>
		<path fill="#6D6E71" d="M291.943,179.326v-10.29l1.26-0.18v10.47H291.943z"/>
		<path fill="#6D6E71" d="M296.203,179.326v-10.29l1.26-0.18v10.47H296.203z M301.812,172.021l-2.609,3.614l2.73,3.69h-1.486
			l-2.67-3.69l2.58-3.614H301.812z"/>
		<path fill="#6D6E71" d="M306.566,178.395c0.721,0,1.516-0.135,2.311-0.344l0.164,1.004c-0.689,0.256-1.664,0.42-2.58,0.42
			c-2.16,0-2.895-1.034-2.895-2.684v-2.19c0-1.515,0.689-2.729,2.865-2.729c2.16,0,2.744,1.244,2.744,2.76v1.529h-4.35v0.615
			C304.826,177.93,305.141,178.395,306.566,178.395z M304.826,175.111h3.135v-0.601c0-1.02-0.344-1.59-1.529-1.59
			s-1.605,0.57-1.605,1.59V175.111z"/>
		<path fill="#6D6E71" d="M316.166,179.326v-5.579c0-0.48-0.238-0.676-0.703-0.676c-0.541,0-1.666,0.33-2.445,0.735v5.52h-1.26
			v-7.305h1.02l0.119,0.63c0.811-0.391,2.07-0.779,2.939-0.779c1.172,0,1.592,0.734,1.592,1.859v5.595H316.166z"/>
		<path fill="#6D6E71" d="M322.377,179.475c-0.75,0-1.74-0.164-2.324-0.39l0.164-0.989c0.631,0.18,1.455,0.299,2.084,0.299
			c1.156,0,1.352-0.209,1.352-0.989s-0.061-0.87-1.531-1.229c-1.814-0.45-1.979-0.825-1.979-2.34c0-1.351,0.6-1.965,2.52-1.965
			c0.705,0,1.469,0.09,2.07,0.254l-0.09,1.035c-0.615-0.119-1.426-0.209-2.025-0.209c-1.08,0-1.23,0.254-1.23,0.914
			c0,0.811,0.016,0.96,1.244,1.26c2.102,0.525,2.266,0.78,2.266,2.235C324.896,178.786,324.461,179.475,322.377,179.475z"/>
		<path fill="#6D6E71" d="M333.326,179.326l-1.77-6.194l-1.77,6.194h-1.621l-1.561-7.305h1.201l1.215,6.06l1.77-6.06h1.529
			l1.771,6.06l1.215-6.06h1.199l-1.561,7.305H333.326z"/>
		<path fill="#6D6E71" d="M343.676,179.326h-1.066l-0.074-0.54c-0.645,0.45-1.484,0.689-2.369,0.689c-1.365,0-1.936-0.81-1.936-2.1
			c0-1.515,0.766-2.055,2.234-2.055h1.951v-1.141c0-0.914-0.406-1.229-1.592-1.229c-0.703,0-1.619,0.119-2.189,0.239l-0.135-1.005
			c0.689-0.18,1.621-0.314,2.4-0.314c2.084,0,2.775,0.81,2.775,2.369V179.326z M342.416,176.371h-1.861
			c-0.779,0-1.064,0.24-1.064,0.976c0,0.75,0.135,1.049,1.035,1.049c0.629,0,1.334-0.239,1.891-0.6V176.371z"/>
		<path fill="#6D6E71" d="M351.67,179.326h-1.066l-0.074-0.54c-0.645,0.45-1.484,0.689-2.369,0.689c-1.365,0-1.936-0.81-1.936-2.1
			c0-1.515,0.766-2.055,2.234-2.055h1.951v-1.141c0-0.914-0.406-1.229-1.592-1.229c-0.703,0-1.619,0.119-2.189,0.239l-0.135-1.005
			c0.689-0.18,1.621-0.314,2.4-0.314c2.084,0,2.775,0.81,2.775,2.369V179.326z M350.41,176.371h-1.861
			c-0.779,0-1.064,0.24-1.064,0.976c0,0.75,0.135,1.049,1.035,1.049c0.629,0,1.334-0.239,1.891-0.6V176.371z"/>
		<path fill="#6D6E71" d="M357.834,173.026c-0.689,0.33-1.484,0.84-2.084,1.26v5.04h-1.26v-7.305h1.094l0.076,1.021
			c0.539-0.42,1.289-0.871,2.01-1.17L357.834,173.026z"/>
		<path fill="#6D6E71" d="M359.439,174.256c0-1.455,0.66-2.385,2.369-2.385c0.646,0,1.5,0.104,2.086,0.225v-3.061l1.26-0.18v10.47
			h-1.064l-0.105-0.66c-0.6,0.479-1.455,0.81-2.416,0.81c-1.439,0-2.129-0.764-2.129-2.234V174.256z M363.895,173.206
			c-0.676-0.135-1.5-0.225-2.01-0.225c-0.84,0-1.186,0.391-1.186,1.275v2.984c0,0.75,0.24,1.125,1.125,1.125
			c0.721,0,1.529-0.391,2.07-0.87V173.206z"/>
	</g>
	<g>
		<path fill="#1C3F94" d="M162.765,152.441h-7.41l-1.26,4.14h-3.96l6.3-19.979h5.28l6.3,19.979h-3.96L162.765,152.441z
			 M156.285,149.171h5.52l-2.73-9.45L156.285,149.171z"/>
		<path fill="#1C3F94" d="M170.955,153.431c2.28-2.49,2.58-2.79,4.65-5.19c2.82-3.27,3.27-3.75,3.27-5.7v-0.51
			c0-1.47-0.6-1.89-2.79-1.89c-1.32,0-3.21,0.27-4.71,0.6l-0.51-3.06c1.35-0.39,3.27-0.78,5.43-0.78c4.62,0,6.24,1.59,6.24,4.71
			v0.69c0,2.76-0.24,3.39-3.03,6.81c-1.68,2.07-2.4,2.91-3.57,4.26h6.66v3.21h-11.64V153.431z"/>
		<path fill="#1C3F94" d="M186.341,146.651h7.56v3.06h-7.56V146.651z"/>
		<path fill="#1C3F94" d="M202.027,150.401c0,1.95,0.84,3.09,3.479,3.09c1.021,0,2.069-0.09,3.09-0.24v-6.06h3.569v8.79
			c-2.1,0.6-4.59,0.9-6.689,0.9c-4.89,0-7.229-2.07-7.229-6.03v-8.52c0-4.11,2.4-6.03,7.59-6.03c1.62,0,3.93,0.18,5.729,0.66
			l-0.42,3.3c-1.83-0.39-3.66-0.54-5.609-0.54c-2.641,0-3.51,1.08-3.51,3.12V150.401z"/>
		<path fill="#1C3F94" d="M216.816,136.602h12.24v3.33h-8.46v4.83h7.8v3.33h-7.8v5.16h8.46v3.33h-12.24V136.602z"/>
		<path fill="#1C3F94" d="M245.946,154h-4.8l-3.689-10.35l-0.33,12.93h-3.87l0.9-19.979h4.229l5.16,14.189l5.16-14.189h4.229
			l0.9,19.979h-3.869l-0.33-12.93L245.946,154z"/>
		<path fill="#1C3F94" d="M258.637,136.602h12.239v3.33h-8.46v4.83h7.801v3.33h-7.801v5.16h8.46v3.33h-12.239V136.602z"/>
		<path fill="#1C3F94" d="M275.377,136.602h12.238v3.33h-8.459v4.83h7.8v3.33h-7.8v5.16h8.459v3.33h-12.238V136.602z"/>
		<path fill="#1C3F94" d="M295.807,141.431v15.149h-3.69v-19.979h5.04l7.59,15.179v-15.179h3.689v19.979h-5.04L295.807,141.431z"/>
		<path fill="#1C3F94" d="M317.616,139.931h-5.58v-3.33h14.939v3.33h-5.58v16.649h-3.779V139.931z"/>
		<path fill="#1C3F94" d="M330.575,136.602h12.239v3.33h-8.46v4.83h7.8v3.33h-7.8v5.16h8.46v3.33h-12.239V136.602z"/>
		<path fill="#1C3F94" d="M351.005,141.431v15.149h-3.689v-19.979h5.04l7.59,15.179v-15.179h3.689v19.979h-5.04L351.005,141.431z"/>
	</g>
	<g>
		<g>
			<g>
				<path fill="#F7941E" d="M74.889,93.231c0.146,0,0.288,0,0.434,0c0.117-0.387,0.237-0.774,0.348-1.163
					c-0.157,0.001-0.313,0.001-0.47,0.001c-15.645,0-28.18-0.553-27.998-1.234c0.183-0.683,13.015-1.235,28.659-1.235
					c0.15,0,0.298,0,0.447,0c0.09-0.387,0.169-0.774,0.251-1.162c-0.129,0-0.257,0-0.387,0c-15.645,0-28.18-0.552-27.997-1.234
					c0.183-0.683,13.015-1.235,28.659-1.235c0.062,0,0.124,0,0.188,0c0.062-0.388,0.132-0.775,0.186-1.163
					c-15.156-0.023-27.135-0.566-26.957-1.233c0.177-0.663,12.245-1.202,27.239-1.234c0.035-0.389,0.053-0.776,0.079-1.166
					c-14.865-0.038-26.522-0.574-26.346-1.232c0.175-0.65,11.821-1.182,26.442-1.231c0.005-0.392,0.02-0.786,0.015-1.177
					c-13.914-0.078-24.549-0.596-24.381-1.224c0.165-0.618,10.69-1.128,24.284-1.22c-0.027-0.4-0.074-0.797-0.112-1.195
					c-13.329-0.099-23.362-0.605-23.199-1.216c0.16-0.597,9.981-1.095,22.897-1.21c-0.063-0.41-0.119-0.823-0.194-1.231
					c-12.026-0.141-20.78-0.62-20.627-1.191c0.148-0.554,8.597-1.021,20.114-1.178c-0.107-0.438-0.236-0.871-0.36-1.304
					c-10.479-0.18-17.817-0.627-17.678-1.149c0.134-0.501,7.077-0.932,16.939-1.125c-0.167-0.476-0.322-0.963-0.507-1.425
					c-8.675-0.211-14.481-0.616-14.357-1.082c0.118-0.438,5.459-0.823,13.41-1.042c-0.262-0.55-0.534-1.091-0.82-1.621
					c-6.499-0.227-10.62-0.575-10.514-0.968c0.097-0.361,3.735-0.686,9.454-0.911c-0.417-0.671-0.865-1.313-1.321-1.947
					c-3.859-0.211-6.136-0.48-6.057-0.773c0.068-0.253,1.881-0.489,4.932-0.685c-1.198-1.488-2.514-2.858-3.921-4.124
					C57.937,60.18,51.658,71.435,47.148,83.003c-6.876,17.64-9.49,35.656-7.591,52.152c2.285-1.201,4.509-2.493,6.631-3.905
					c-1.309-0.144-2.013-0.301-1.969-0.466c0.056-0.21,1.315-0.408,3.484-0.582c1.112-0.78,2.205-1.582,3.268-2.415
					c-3.933-0.213-6.256-0.485-6.177-0.781c0.089-0.334,3.209-0.637,8.197-0.858c0.64-0.539,1.264-1.089,1.883-1.646
					c-6.731-0.225-11.022-0.582-10.916-0.982c0.116-0.432,5.308-0.812,13.073-1.033c0.51-0.496,1.006-1.001,1.5-1.51
					c-8.866-0.208-14.828-0.617-14.702-1.089c0.133-0.498,6.997-0.926,16.77-1.122c0.402-0.447,0.796-0.898,1.185-1.354
					c-10.698-0.174-18.227-0.625-18.085-1.156c0.147-0.551,8.539-1.018,19.998-1.176c0.329-0.419,0.665-0.835,0.983-1.258
					c-12.275-0.134-21.267-0.619-21.111-1.197c0.159-0.596,9.955-1.092,22.845-1.209c0.274-0.397,0.536-0.8,0.801-1.202
					c-13.617-0.088-23.941-0.601-23.775-1.22c0.169-0.633,11.232-1.155,25.325-1.227c0.237-0.392,0.474-0.783,0.703-1.177
					c-14.244-0.065-25.226-0.589-25.055-1.228c0.174-0.649,11.803-1.182,26.408-1.231c0.203-0.388,0.399-0.778,0.594-1.167
					c-15.238-0.02-27.311-0.564-27.132-1.233c0.182-0.677,12.821-1.227,28.304-1.235c0.174-0.386,0.346-0.773,0.512-1.162
					c-15.572-0.004-28.024-0.555-27.843-1.234c0.184-0.683,13.015-1.235,28.659-1.235c0.059,0,0.115,0,0.173,0
					c0.146-0.387,0.283-0.774,0.42-1.162c-0.094,0-0.188,0-0.282,0c-15.645,0-28.18-0.553-27.997-1.234
					C46.413,93.784,59.245,93.231,74.889,93.231z"/>
			</g>
		</g>
		<path fill="#F7941E" d="M44.498,83.188c6.829-19.389,18.141-37.177,32.304-52.27c-0.893-1.278-1.713-2.571-2.441-3.884
			c-6.923,7.563-13.125,15.784-18.424,24.518c-24.303,16.108-37.384,44.81-29.364,67.082c2.469,6.851,6.752,12.334,12.128,16.328
			c0.042-0.037-0.085-0.489,0.025-0.009C36.044,118.732,37.86,102.038,44.498,83.188z"/>
	</g>
	<g>
		<g>
			<path fill="#1C3F94" d="M90.409,101.578c-0.039-0.126-0.078-0.25-0.116-0.376c-0.391,0.181-0.783,0.362-1.173,0.551
				c0.043,0.135,0.085,0.27,0.127,0.405c4.192,13.549,7.038,24.81,6.356,25.15c-0.683,0.341-4.634-10.366-8.826-23.915
				c-0.039-0.13-0.08-0.258-0.12-0.387c-0.383,0.205-0.764,0.42-1.146,0.633c0.034,0.112,0.069,0.222,0.104,0.334
				c4.192,13.549,7.038,24.81,6.356,25.15c-0.683,0.341-4.634-10.366-8.826-23.916c-0.017-0.055-0.033-0.107-0.05-0.163
				c-0.377,0.229-0.756,0.454-1.13,0.69c4.038,13.143,6.745,23.916,6.078,24.249c-0.662,0.331-4.397-9.725-8.444-22.688
				c-0.37,0.255-0.734,0.523-1.103,0.787c3.949,12.9,6.574,23.388,5.916,23.718c-0.65,0.325-4.264-9.372-8.228-21.999
				c-0.365,0.282-0.734,0.558-1.096,0.849c3.656,12.107,6.025,21.697,5.397,22.01c-0.618,0.311-3.912-8.431-7.64-20.136
				c-0.364,0.317-0.72,0.647-1.079,0.972c3.479,11.617,5.697,20.675,5.087,20.98c-0.597,0.299-3.69-7.843-7.258-18.942
				c-0.364,0.355-0.732,0.704-1.09,1.068c3.091,10.518,4.992,18.449,4.42,18.736c-0.553,0.276-3.251-6.697-6.482-16.558
				c-0.377,0.416-0.744,0.842-1.114,1.268c2.641,9.208,4.193,15.889,3.67,16.151c-0.501,0.251-2.761-5.446-5.583-13.846
				c-0.398,0.495-0.808,0.983-1.188,1.481c2.128,7.668,3.309,12.993,2.843,13.226c-0.438,0.22-2.226-4.125-4.56-10.85
				c-0.441,0.629-0.87,1.261-1.285,1.896c1.531,5.793,2.311,9.618,1.918,9.815c-0.36,0.18-1.637-2.733-3.378-7.522
				c-0.511,0.853-0.988,1.71-1.453,2.57c0.837,3.497,1.198,5.665,0.905,5.812c-0.254,0.127-0.958-1.271-1.958-3.77
				c-1.061,2.127-1.98,4.27-2.777,6.415c11.789-0.972,23.919-3.774,35.865-8.336c18.214-6.958,35.639-17.883,50.441-31.604
				c-1.727-1.101-3.522-2.08-5.401-2.884c0.216,1.239,0.259,1.965,0.095,2.046c-0.21,0.105-0.731-0.84-1.474-2.591
				c-1.021-0.392-2.06-0.751-3.117-1.062c0.856,3.561,1.227,5.772,0.931,5.919c-0.334,0.168-1.45-2.312-2.993-6.47
				c-0.671-0.16-1.349-0.298-2.032-0.425c1.595,5.995,2.414,9.971,2.013,10.171c-0.431,0.215-2.175-4.002-4.461-10.564
				c-0.598-0.079-1.199-0.139-1.804-0.195c2.183,7.831,3.4,13.294,2.929,13.53c-0.497,0.249-2.735-5.382-5.536-13.702
				c-0.522-0.021-1.046-0.031-1.573-0.036c2.704,9.393,4.303,16.244,3.773,16.509c-0.552,0.275-3.233-6.651-6.45-16.458
				c-0.478,0.021-0.953,0.036-1.432,0.069c3.165,10.729,5.124,18.871,4.546,19.159c-0.597,0.298-3.681-7.821-7.245-18.898
				c-0.442,0.053-0.885,0.122-1.33,0.186c3.567,11.858,5.858,21.174,5.238,21.484c-0.633,0.317-4.082-8.883-7.924-21.035
				c-0.428,0.082-0.854,0.163-1.28,0.253c3.755,12.383,6.211,22.278,5.572,22.598c-0.649,0.324-4.259-9.357-8.219-21.969
				c-0.414,0.106-0.828,0.223-1.242,0.34c4.065,13.209,6.794,24.065,6.125,24.398c-0.677,0.338-4.574-10.206-8.73-23.607
				c-0.405,0.132-0.811,0.266-1.216,0.407c4.169,13.489,6.995,24.675,6.315,25.016c-0.683,0.341-4.633-10.366-8.825-23.915
				c-0.016-0.051-0.032-0.1-0.047-0.15c-0.398,0.157-0.795,0.322-1.191,0.487c0.025,0.082,0.05,0.162,0.075,0.244
				c4.192,13.549,7.039,24.81,6.357,25.15C98.553,125.834,94.601,115.127,90.409,101.578z"/>
		</g>
	</g>
	<path fill="#1C3F94" d="M89.231,135.25c-19.827,8.279-39.369,11.504-57.173,10.288c-0.948,1.709-1.928,3.366-2.951,4.958
		c8.874,0.459,18.167-0.188,27.695-1.993c21.463,9.254,51.609-0.429,70.134-23.678c5.697-7.153,9.639-14.876,11.905-22.456
		c-0.045-0.01-0.432,0.432-0.016-0.015C124.488,116.552,108.506,127.199,89.231,135.25z"/>
	<g>
		<g>
			<g>
				<path fill="#009444" d="M92.87,83.339c-0.106,0.125-0.211,0.25-0.317,0.375c0.273,0.206,0.545,0.414,0.825,0.613
					c0.114-0.137,0.228-0.271,0.343-0.407c11.453-13.549,21.142-24.256,21.641-23.915c0.501,0.34-8.381,11.602-19.834,25.15
					c-0.108,0.129-0.217,0.256-0.326,0.386c0.292,0.183,0.595,0.354,0.894,0.53c0.095-0.112,0.188-0.222,0.284-0.335
					c11.453-13.549,21.142-24.257,21.64-23.915c0.501,0.34-8.379,11.602-19.833,25.15c-0.045,0.054-0.091,0.108-0.136,0.162
					c0.312,0.159,0.622,0.323,0.943,0.474c11.116-13.119,20.39-23.35,20.878-23.016c0.485,0.332-7.849,10.927-18.796,23.921
					c0.336,0.135,0.682,0.253,1.024,0.38c10.917-12.864,19.949-22.815,20.43-22.486c0.476,0.325-7.558,10.554-18.215,23.229
					c0.36,0.11,0.716,0.229,1.082,0.33c10.259-12.03,18.524-21.101,18.985-20.788c0.452,0.309-6.779,9.561-16.645,21.357
					c0.392,0.084,0.794,0.149,1.192,0.223c9.85-11.517,17.663-20.069,18.111-19.764c0.437,0.298-6.292,8.937-15.639,20.153
					c0.427,0.055,0.851,0.117,1.284,0.163c8.935-10.378,15.788-17.83,16.206-17.545c0.405,0.277-5.346,7.718-13.631,17.735
					c0.486,0.024,0.981,0.028,1.474,0.038c7.838-9.027,13.626-15.263,14.009-15.003c0.366,0.251-4.316,6.379-11.356,14.973
					c0.565-0.019,1.129-0.022,1.693-0.057c6.546-7.457,11.173-12.376,11.513-12.144c0.322,0.219-3.232,4.948-8.848,11.893
					c0.702-0.08,1.403-0.17,2.104-0.276c4.969-5.568,8.308-9.042,8.596-8.847c0.263,0.181-2.097,3.418-6.076,8.432
					c0.929-0.181,1.853-0.397,2.775-0.622c3.021-3.287,4.938-5.186,5.152-5.04c0.185,0.126-0.924,1.761-2.975,4.456
					c2.259-0.64,4.493-1.411,6.698-2.292c-4.062-9.499-9.912-17.952-17.348-24.957c-11.34-10.682-26.148-17.773-42.851-20.55
					c-0.559,2.303-0.986,4.573-1.229,6.79c1.091-1.094,1.754-1.663,1.874-1.58c0.153,0.104-0.584,1.25-2.012,3.174
					c-0.09,1.171-0.146,2.333-0.151,3.477c3.078-3.349,5.031-5.288,5.247-5.14c0.244,0.167-1.76,2.949-5.204,7.328
					c0.031,0.699,0.085,1.387,0.149,2.072c5.137-5.77,8.609-9.39,8.902-9.189c0.317,0.215-3.132,4.814-8.61,11.598
					c0.087,0.575,0.192,1.139,0.303,1.704c6.684-7.623,11.428-12.676,11.773-12.441c0.364,0.25-4.262,6.309-11.234,14.824
					c0.122,0.467,0.251,0.931,0.389,1.39c7.993-9.217,13.923-15.617,14.311-15.352c0.404,0.276-5.307,7.668-13.547,17.633
					c0.147,0.398,0.288,0.8,0.447,1.189c9.111-10.593,16.143-18.251,16.566-17.961c0.436,0.298-6.273,8.914-15.602,20.109
					c0.168,0.343,0.352,0.677,0.529,1.015c10.051-11.769,18.084-20.573,18.538-20.263c0.463,0.316-7.152,10.038-17.401,22.262
					c0.19,0.311,0.38,0.621,0.579,0.923c10.486-12.318,19.014-21.688,19.481-21.369c0.475,0.325-7.544,10.539-18.189,23.2
					c0.21,0.281,0.429,0.555,0.648,0.827c11.173-13.19,20.517-23.5,21.007-23.166c0.495,0.338-8.248,11.432-19.574,24.843
					c0.231,0.254,0.464,0.506,0.704,0.754c11.404-13.484,21.031-24.121,21.528-23.781c0.5,0.34-8.38,11.602-19.833,25.15
					c-0.042,0.05-0.084,0.099-0.126,0.149c0.252,0.23,0.513,0.452,0.771,0.676c0.068-0.082,0.136-0.163,0.206-0.245
					c11.453-13.549,21.143-24.256,21.642-23.915C113.204,58.529,104.323,69.79,92.87,83.339z"/>
			</g>
		</g>
		<path fill="#009444" d="M124.441,59.709c12.997,11.111,21.228,25.674,24.868,41.982c1.84-0.431,3.641-0.794,5.392-1.073
			c-1.952-8.021-5.041-15.596-9.27-22.526c2.839-25.363-14.226-44.382-40.77-43.405c-8.167,0.304-16.392,2.544-24.035,6.128
			c0.004,0.047,0.517,0.058-0.009,0.025C97.637,42.865,111.803,48.911,124.441,59.709z"/>
	</g>
</g>
</svg>
