<?xml version="1.0" encoding="UTF-8"?>
<svg xmlns="http://www.w3.org/2000/svg" id="Laag_2" data-name="Laag 2" viewBox="0 0 482.78 146.71">
  <defs>
    <style>
      .cls-1 {
        fill: #0073aa;
      }
    </style>
  </defs>
  <g id="Laag_1-2" data-name="Laag 1">
    <g>
      <path d="m272.81,108.83c7.56-.05,9.04-3.9,9.09-10.31v-18.23h-4.25v1.57l-1.32-.47c-1.5-1.23-2.1-1.75-3.95-1.76-4.44,0-7.92,3.79-7.93,9.75,0,5.49,3.27,9.74,7.79,9.75,2,0,3.44-.93,4.99-1.83l.42-.24v2.39c0,2.61-.37,4.13-1.24,5.02-.87.9-2.13,1.04-3.7,1.04-2.89.01-3.69-.98-5.68-2.43l-1.73,3.35c2.76,1.46,4.72,2.4,7.5,2.4m-2.8-14.75c-.64-1.11-.93-2.66-.93-4.6,0-2.1.34-3.71.99-4.82.65-1.11,1.66-1.71,2.87-1.7,1.39,0,3.01.63,4.58,1.63l-.15.23.15-.23.13.08v9.06l-.12.09c-1.56,1.07-3.16,2-4.55,2h-.02c-1.31,0-2.34-.63-2.97-1.74"></path>
      <path d="m286.08,89.67c.03,6.1,3.26,10.1,9.52,10.12,3.22,0,5.45-1.02,7.74-2.3l-1.9-3.47c-1.74,1.43-3.45,2.46-5.89,2.45-2.74.02-4.49-1.75-4.8-4.95l-.03-.31h13.73c-.08-4.12-.02-6.95-2.43-9.22-1.62-1.53-3.83-2.35-6.42-2.35-5.32.01-9.5,3.82-9.52,10.03m13.89-1.98l.02.3h-9.28l.03-.3c.26-3.03,2.11-4.75,4.8-4.73,3.03-.03,4.28,1.89,4.43,4.73"></path>
      <path d="m333.59,84.44c.33.9.36,2.06.36,3.42,0,.3,0,.6,0,.92v10.35h4.25v-10.68c0-1.76-.05-3.34-.27-4.37-.63-2.76-2.91-4.43-5.98-4.44-2.12,0-4.26.81-6.37,2.32l-.22.16-.16-.22c-1.18-1.61-2.53-2.25-4.67-2.26-2.36,0-3.95.8-5.75,2.27l-.45.37v-1.99h-7v2.71h.89c.7,0,1.22.12,1.57.48.35.37.43.89.43,1.56v14.08h4.25v-14.28l.13-.08c1.69-1.08,3.23-1.81,4.81-1.82,1.25-.01,2.01.59,2.32,1.49.33.89.33,2.03.33,3.3v11.39h4.24v-14.28l.13-.08c1.69-1.03,3.23-1.81,4.86-1.81h.06c1.18,0,1.92.59,2.24,1.48"></path>
      <path d="m342.07,89.67c.03,6.1,3.27,10.1,9.52,10.12,3.24,0,5.46-1.02,7.75-2.3l-1.9-3.47c-1.74,1.43-3.46,2.45-5.9,2.45-2.74.02-4.49-1.75-4.8-4.96l-.03-.3h13.74c-.08-4.12-.02-6.95-2.43-9.22-1.62-1.53-3.83-2.35-6.44-2.35-5.32,0-9.5,3.82-9.52,10.02m13.9-1.98l.02.3h-9.28l.02-.3c.27-3.03,2.12-4.75,4.8-4.73,3.03-.04,4.28,1.89,4.43,4.73"></path>
      <path d="m364.34,89.67c.03,6.1,3.26,10.1,9.52,10.12,3.23,0,5.46-1.02,7.74-2.3l-1.9-3.48c-1.73,1.44-3.45,2.46-5.88,2.46-2.74.02-4.5-1.75-4.81-4.96l-.03-.31h13.74c-.08-4.12-.02-6.95-2.43-9.22-1.62-1.53-3.83-2.35-6.43-2.35-5.32,0-9.51,3.82-9.52,10.02m4.63-1.68l.03-.3c.26-3.03,2.12-4.75,4.81-4.73,3.02-.03,4.28,1.89,4.42,4.73l-.28.02v-.28.28l.28-.02.02.3h-9.28Z"></path>
      <path d="m400.15,84.26c.35.83.36,1.94.36,3.33v11.54h4.25v-10.91c-.01-4.07-.27-6.17-2.8-7.68-1.23-.72-2.03-.89-3.46-.89-2.11,0-3.86.8-5.65,2.27l-.45.37v-.59c0-.29.03-.87.04-1.4h-7v2.71h.89c.72,0,1.25.15,1.59.53.33.39.4.9.41,1.52v14.08h4.24v-14.27l.12-.08c1.68-1.2,3.59-1.82,5.06-1.83h.06c1.21,0,1.99.47,2.32,1.31"></path>
      <path d="m408.39,83.24h2.28v9.74c0,2.18.14,3.91.86,5.04.71,1.12,1.98,1.76,4.5,1.77,3.02,0,4.75-.87,6.46-1.68l-1.4-3.53c-1.44,1.01-2.44,1.9-4.26,1.9-.56.02-1.16-.18-1.46-.85-.31-.65-.44-1.67-.44-3.44v-8.95h6.34v-2.94h-6.34v-6.39l-4.25,3.18v3.22h-2.28v2.94Z"></path>
      <path d="m424.79,89.67c.03,6.1,3.27,10.1,9.52,10.12,3.22,0,5.45-1.02,7.74-2.3l-1.9-3.47c-1.73,1.43-3.45,2.46-5.88,2.45-2.74.03-4.49-1.75-4.8-4.95l-.03-.31h13.73c-.08-4.12-.02-6.95-2.42-9.22-1.63-1.53-3.83-2.35-6.43-2.35-5.32.01-9.5,3.82-9.52,10.03m4.64-1.68l.03-.3c.26-3.03,2.11-4.75,4.8-4.73,3.03-.04,4.27,1.89,4.42,4.73l-.27.02v-.28.28l.27-.02.02.3h-9.28Z"></path>
    </g>
    <path d="m224.38,103.16h16.97c8.11,0,13.97.61,18.61,5.45,3.68,3.89,5.66,9.13,5.66,15.54,0,8.86-3.41,15.54-9.27,18.88-3.95,2.25-8.59,2.72-14.04,2.72h-12.95v-35.17c0-1.91-.55-2.66-2.66-2.66h-2.32v-4.77Zm12.47,36.6h4.84c4.98,0,8.72,0,11.86-3.27,2.73-2.86,4.16-7.16,4.16-12.54,0-4.77-1.29-8.52-4.09-11.32-3.41-3.34-7.02-3.48-12.2-3.48h-4.57v30.61Z"></path>
    <path d="m295.78,143.1c-3.48,1.98-6.89,3.61-11.86,3.61-9.34,0-14.31-6.14-14.31-15.2s6.34-15.06,14.31-15.06c3.89,0,7.23,1.23,9.68,3.54,3.75,3.55,3.54,7.98,3.68,14.18h-20.04c.48,4.56,2.79,6.88,6.61,6.88,3.61,0,6.06-1.57,8.73-3.82l3.2,5.86Zm-5.86-14.45c-.27-4.09-1.84-6.54-6.06-6.54-3.75,0-6.2,2.25-6.61,6.54h12.68Z"></path>
    <path d="m300.56,122.18v-4.77h10.02l6.68,18.47,7.43-18.47h6.47l-11.99,28.35h-5.38l-7.7-20.18c-1.16-3-1.57-3.41-3.61-3.41h-1.91Z"></path>
    <path d="m359.79,143.1c-3.48,1.98-6.88,3.61-11.86,3.61-9.34,0-14.32-6.14-14.32-15.2s6.34-15.06,14.32-15.06c3.88,0,7.22,1.23,9.68,3.54,3.75,3.55,3.54,7.98,3.68,14.18h-20.04c.47,4.56,2.79,6.88,6.61,6.88,3.61,0,6.07-1.57,8.72-3.82l3.2,5.86Zm-5.86-14.45c-.27-4.09-1.84-6.54-6.07-6.54-3.75,0-6.2,2.25-6.61,6.54h12.68Z"></path>
    <path d="m378.04,145.76h-7.03v-20.99c0-1.77-.48-2.59-2.52-2.59h-1.71v-4.77h11.05c0,.88-.07,1.98-.07,2.45,2.66-2.18,5.32-3.41,8.52-3.41,2.11,0,3.41.27,5.25,1.37,3.88,2.32,4.29,5.65,4.29,11.59v16.36h-7.02v-16.36c0-4.64.14-7.29-3.62-7.29-2.04,0-4.77.89-7.15,2.59v21.06Z"></path>
    <path d="m405.05,117.41v-4.5l7.02-5.25v9.75h9.27v5.11h-9.27v12.68c0,5.11.82,5.86,2.38,5.86,2.66,0,4.02-1.36,6.41-3l2.38,6c-2.59,1.22-5.25,2.66-9.95,2.66-7.5,0-8.25-3.95-8.25-10.36v-13.83h-3.33v-5.11h3.33Z"></path>
    <path d="m452.77,143.1c-3.48,1.98-6.88,3.61-11.86,3.61-9.34,0-14.31-6.14-14.31-15.2s6.34-15.06,14.31-15.06c3.89,0,7.23,1.23,9.68,3.54,3.75,3.55,3.55,7.98,3.68,14.18h-20.04c.48,4.56,2.79,6.88,6.61,6.88,3.61,0,6.07-1.57,8.72-3.82l3.2,5.86Zm-5.86-14.45c-.28-4.09-1.84-6.54-6.07-6.54-3.75,0-6.2,2.25-6.61,6.54h12.68Z"></path>
    <path d="m470.92,145.76h-7.02v-21.33c0-2.04-1.16-2.25-2.93-2.25h-1.3v-4.77h11.25v5.04l.07-.27c.95-1.77,2.93-5.73,6.75-5.73,2.25,0,3,1.02,5.04,2.04l-2.52,6.34c-2.11-1.37-3.21-2.11-3.82-2.11-1.98,0-3,3.2-5.52,8.31v14.72Z"></path>
    <g>
      <g>
        <path class="cls-1" d="m247.14,39.07c-3.51-2-22.91-9.34-26.58-10.39-4.62-.75-17-2.13-30.91-1.99l-.05-.28c-3.88-16.45-16.67-23.41-26.93-25.64-5.6-1.31-16.83-.88-20.89.75.88-.04,28.04-1.11,31.74,31.27,1.24,10.47.03,20.91.03,20.91l16.65-5.35s.57-3.47.7-7.97c17.21-3.01,35.78-3.55,56.25-1.32Z"></path>
        <path class="cls-1" d="m0,69.49c1.61-.94,51.38-30.37,133.29-38.35l21.59,16.6c-34.16,8.32-70.1,21.99-110.88,50.6,0,0-24.17-14.17-44-28.86Z"></path>
        <path class="cls-1" d="m159.86,25.64s-1.64-1.15-3.26-2.09c-1.62-.94-3.44-1.79-3.44-1.79l-15,1.62,23.11,16.92c-.03-2.22-.1-5.27-.27-8.17-.14-2.31-.63-5.17-1.14-6.49Z"></path>
      </g>
      <path class="cls-1" d="m190.19,48.43l7.68,4.23c12.38-3.25,26.69-4.41,43.27-4.95-12.96,2.31-24.23,4.43-36.41,8.46l7.23,4.24c10.47-3.67,21.68-6.51,33.46-8.13,0,0-18.12,7.05-27.36,11.89l23.88,16,13.79-35.75c-7.41-1.69-32.43-5.12-65.54,4.01Zm-49.47,61.24c5.06-7.33,16.13-16.76,25.72-24.25l-8.15-6.25c-8.36,5.46-21.25,12.83-30.26,20.25,8.07-11.96,22.41-29.39,51.46-40.94l-5.95-4.79c-20.87,7.74-48.03,24.6-71.74,45.1,15.38,13.71,35.1,24.82,48.51,32.87,9.47-9.93,20.06-20.49,35.25-32.67l-13.69-9.41c-13.55,8.19-27.27,16.75-31.15,20.08Z"></path>
    </g>
  </g>
</svg>
