<svg xmlns="http://www.w3.org/2000/svg" xmlns:xlink="http://www.w3.org/1999/xlink" width="262" height="125" viewBox="0 0 262 125"><defs><clipPath id="b"><rect width="262" height="125"/></clipPath></defs><g id="a" clip-path="url(#b)"><rect width="314" height="125" fill="none"/><rect width="50" height="100" fill="#154273"/><path d="M25.9,77.363h-.87V74.95h.87Zm3.924-10.638h-.87V64.31h.87ZM13.712,62.562c-.066,0-.516,0-.516.094s.21.045.516.1c.7.119.971.47,1.46.47a.7.7,0,0,0,.72-.943c-.029-.107-.092-.082-.106-.009a.762.762,0,0,1-.791.451C14.535,62.721,14.436,62.562,13.712,62.562ZM8.92,64.973c.076.106.9,1.171-.363,1.579-.056.019-.075.073.009.109a1.079,1.079,0,0,0,1.382-.326A1.392,1.392,0,0,1,9.7,68a2,2,0,0,0,1.222.667,1.614,1.614,0,0,0,.765-.8,1.436,1.436,0,0,1,.017.915c1.9.173,2.575-1.348,4.04-1.074.043.008.062-.019.062-.064a3.041,3.041,0,0,0-2.388-3c-1.809-.349-1.322-1.092-1.322-1.092a1.961,1.961,0,0,1,1.2.3.449.449,0,0,0-.057-.475,1.2,1.2,0,0,0,.113-.4c-.859,0-1.084-.186-1.084-.186-.132-.509.222-1.23,1.5-.459a.97.97,0,0,0,.294-.716.348.348,0,0,0,.156-.261c0-.212-1.02-.784-1.282-.852-.064-.309-.459-.755-1.658-.594-.567.07-.976-.078-.785-.409.032-.056-.069-.066-.122-.012-.131.131-.312.5.184.751a1.08,1.08,0,0,1,.588.91c.009.117-.131.127-.162.011A1.52,1.52,0,0,0,8.7,60.522a1,1,0,0,0,.874.828.432.432,0,0,0,.4-.4c0-.113.058-.1.091-.011a.676.676,0,0,1-1.094.6A1.953,1.953,0,0,0,8.6,63.53c.133.6-.163,1.191-.708.918-.028-.013-.056-.024-.056.041A.688.688,0,0,0,8.92,64.973ZM13,61.235c-.346.386-.91.3-1.045-.34C12.669,60.859,12.974,60.93,13,61.235Zm22.069,1.486a.761.761,0,0,1-.791-.451c-.015-.073-.078-.1-.106.009a.7.7,0,0,0,.72.943c.489,0,.763-.35,1.459-.47.306-.052.516,0,.516-.1s-.45-.094-.516-.094C35.63,62.562,35.531,62.721,35.072,62.721Zm7.156,1.768c0-.065-.028-.054-.055-.041-.545.273-.841-.313-.708-.918a1.951,1.951,0,0,0-.371-1.992.676.676,0,0,1-1.094-.6c.034-.088.091-.1.091.011a.432.432,0,0,0,.4.4,1,1,0,0,0,.875-.828,1.52,1.52,0,0,0-2.279.637c-.032.117-.173.106-.163-.011a1.082,1.082,0,0,1,.588-.91c.5-.249.316-.62.184-.751-.054-.054-.155-.044-.123.012.192.33-.217.479-.785.409-1.2-.161-1.595.285-1.658.594-.263.068-1.282.639-1.282.852a.348.348,0,0,0,.156.261.97.97,0,0,0,.294.716c1.275-.771,1.629-.05,1.5.459,0,0-.225.184-1.085.186a1.208,1.208,0,0,0,.114.4.449.449,0,0,0-.057.475,1.961,1.961,0,0,1,1.2-.3s.487.743-1.322,1.092a3.041,3.041,0,0,0-2.388,3c0,.045.019.072.062.064,1.466-.273,2.138,1.247,4.04,1.074a1.436,1.436,0,0,1,.017-.915,1.611,1.611,0,0,0,.765.8A2,2,0,0,0,40.368,68a1.393,1.393,0,0,1-.249-1.666,1.079,1.079,0,0,0,1.382.326c.084-.036.064-.09.009-.109-1.261-.407-.44-1.472-.363-1.579A.688.688,0,0,0,42.227,64.489ZM38.109,60.9c-.136.637-.7.726-1.045.34C37.093,60.93,37.4,60.859,38.109,60.9ZM24.7,50.212a.688.688,0,0,0,.124.379c.112.159.095.247.042.3s-.141.07-.3-.041a.68.68,0,0,0-.379-.125.341.341,0,1,0,0,.669.68.68,0,0,0,.379-.125c.16-.111.248-.094.3-.041a4.038,4.038,0,0,1-.086,1.037.8.8,0,0,0-.673.671c0,.546.584.862.928,1.045.343-.183.927-.5.927-1.045a.8.8,0,0,0-.673-.671,4.048,4.048,0,0,1-.087-1.037c.052-.053.141-.07.3.041a.68.68,0,0,0,.379.125.341.341,0,1,0,0-.669.68.68,0,0,0-.379.125c-.16.112-.248.094-.3.041s-.07-.141.042-.3a.687.687,0,0,0,.125-.379.341.341,0,1,0-.669,0Zm.334,4.06a.666.666,0,1,0,.666.666A.666.666,0,0,0,25.033,54.273Zm0,6.411a14.259,14.259,0,0,1,4.174.509c.015-1.348.005-2.1.779-1.987-.422-1.133,1.4-1.577,1.4-3.054,0-.972-.688-1.082-.891-1.082-.6,0-.509.393-1.023.393-.064,0-.13-.016-.13.031,0,.17.145.46.381.46.316,0,.322-.316.557-.316.1,0,.247.082.247.406a3.075,3.075,0,0,1-.9,1.862.546.546,0,0,0-.445-.249.623.623,0,0,0-.539.67.819.819,0,0,0,.072.352.936.936,0,0,1-.414.142.508.508,0,0,1-.549-.569c0-1.069,1.434-2.011,1.434-3.367a1.253,1.253,0,0,0-1.336-1.292c-.969,0-.789.885-1.627.885-.038,0-.069.012-.069.046,0,.056.145.545.579.545.464,0,.595-.8,1.005-.8.154,0,.383.09.383.634a4.959,4.959,0,0,1-.511,1.762.6.6,0,0,0-.423-.188.693.693,0,0,0-.617.763.941.941,0,0,0,.282.683c-.212.271-.428.491-.721.491-.579,0-.835-.329-.835-.687,0-.387.707-.528.707-1.133a.579.579,0,0,0-.525-.643.74.74,0,0,0-.446.183.745.745,0,0,0-.447-.183.579.579,0,0,0-.525.643c0,.6.707.745.707,1.133,0,.358-.255.687-.834.687-.294,0-.51-.22-.722-.491a.941.941,0,0,0,.282-.683.693.693,0,0,0-.617-.763.6.6,0,0,0-.422.188,4.97,4.97,0,0,1-.51-1.762c0-.544.23-.634.383-.634.41,0,.541.8,1.006.8.434,0,.579-.49.579-.545,0-.035-.031-.046-.07-.046-.838,0-.658-.885-1.626-.885a1.253,1.253,0,0,0-1.336,1.292c0,1.356,1.434,2.3,1.434,3.367a.508.508,0,0,1-.549.569.938.938,0,0,1-.415-.142.819.819,0,0,0,.072-.352.623.623,0,0,0-.539-.67.545.545,0,0,0-.444.249,3.071,3.071,0,0,1-.9-1.862c0-.324.146-.406.247-.406.235,0,.241.316.557.316.236,0,.38-.291.38-.46,0-.046-.066-.031-.129-.031-.515,0-.419-.393-1.023-.393-.2,0-.891.11-.891,1.082,0,1.476,1.821,1.921,1.4,3.054.773-.113.763.639.778,1.987A14.261,14.261,0,0,1,25.033,60.684Zm-4.893,1.991c-.726.159-1.248.309-1.481.381.012-.321.134-.618.42-.684a.045.045,0,0,0,.012-.081c-.647-.43-.994.394-1,.421-.23-.017-.579.054-.579.365,0,.927-2.121,1.442-2.612,1.518a2.505,2.505,0,0,1,1.227,1.426,5.438,5.438,0,0,1,1.526-1.183c.167,0,.231.21.244.334,0,.041.042.054.068.019.329-.491.171-.6.145-.747a.419.419,0,0,1,.492-.493v6.188l-.247.049c-.113.02-1.018-.75-2.054-1.466s-1.593-.288-2.774.352a3.662,3.662,0,0,1-3.109.078c-1.333.952-1.787,3.706-1.787,3.706a3.08,3.08,0,0,1-1.123.233c-1.018,0-1.2-.615-1.2-.984,0-1.571,1.967-2.244,1.967-3.792a1.872,1.872,0,0,0-2.063-1.9l-1.691,0a1,1,0,0,1-.983-.7c-.038-.076-.11-.032-.083.028.054.13-.082.328-.082.72a.938.938,0,0,0,1.057,1.007,1.662,1.662,0,0,0,.7-.146c.064-.037.1.024.068.058a1.253,1.253,0,0,0-.2,1.165c.029.038.066.028.073,0a1.706,1.706,0,0,1,1.626-1.292.954.954,0,0,1,1.02,1.082c0,1.26-2.213,2.185-2.213,3.917C5.5,74,7.354,74.373,8.43,74.094c-.063,1.759-2.077,2.359-2.138,1.1,0-.06-.048-.074-.081.005-.255.622-.154,1.169.63,1.342.053.013.027.042-.021.076-.776.493-.355,2.433-.317,3,.058.822-.759.724-.826.7-.034-.013-.066,0-.015.069a.877.877,0,0,0,1.3.061c.541.17.206.631-.155.873-.056.038-.052.076.009.08.081.005.919.076,1.068-.592a.887.887,0,0,0,1.031.223c.161-.082.946-.367,1.024.515,0,.064.042.023.068-.011a.722.722,0,0,0-.4-1.26.6.6,0,0,1,.931.111c.029.037.056.045.061-.029.049-.946-.72-1.032-1.218-.621-.023-.1-.189-.629.563-.61.018,0,.054-.027.016-.064a.714.714,0,0,0-1.175.078c-.26.306-.907.184-.967.176.2-3.287,3.1-2.122,3.5-3.72.019-.085.056-.053.064-.023.109.39,1.092.444,1.273-.324.01-.048,0-.085-.031-.049-.838.837-2.726-1.78-.15-3.907a3.737,3.737,0,0,1,4.92-.206.3.3,0,0,1-.217.379c-.036.011-.047.044.01.066a.562.562,0,0,0,.643-.142c.472.33.068.745-.123.861-.048.03-.027.062.013.07a.76.76,0,0,0,.808-.619l.073.041v1.868c0,2.66,3.068,3.028,6.435,5.283,3.367-2.255,6.435-2.624,6.435-5.283V71.751l.074-.041a.76.76,0,0,0,.808.619c.04-.008.061-.04.013-.07-.191-.115-.6-.531-.123-.861a.561.561,0,0,0,.643.142c.056-.023.046-.056.009-.066a.3.3,0,0,1-.216-.379,3.737,3.737,0,0,1,4.92.206c2.576,2.126.688,4.744-.15,3.907-.035-.036-.04,0-.03.049.18.768,1.163.714,1.272.324.008-.031.046-.062.065.023.4,1.6,3.294.432,3.5,3.72-.06.008-.707.13-.967-.176a.714.714,0,0,0-1.175-.078c-.038.037,0,.064.016.064.752-.019.586.513.562.61-.5-.411-1.267-.325-1.218.621,0,.074.032.066.061.029a.6.6,0,0,1,.931-.111.722.722,0,0,0-.4,1.26c.025.033.062.074.068.011.078-.882.862-.6,1.024-.515a.887.887,0,0,0,1.031-.223c.148.667.987.6,1.068.592.06,0,.065-.041.009-.08-.361-.241-.7-.7-.155-.873a.877.877,0,0,0,1.3-.061c.051-.065.018-.082-.015-.069-.067.024-.885.122-.826-.7.038-.57.459-2.51-.317-3-.049-.033-.075-.062-.021-.076.784-.174.885-.72.63-1.342-.033-.08-.077-.065-.081-.005-.061,1.259-2.075.659-2.138-1.1,1.076.279,2.932-.1,2.932-1.856,0-1.732-2.213-2.657-2.213-3.917a.954.954,0,0,1,1.02-1.082A1.707,1.707,0,0,1,45,68.531c.007.031.044.041.073,0a1.253,1.253,0,0,0-.2-1.165c-.031-.035,0-.1.068-.058a1.658,1.658,0,0,0,.7.146A.938.938,0,0,0,46.7,66.45c0-.393-.135-.59-.081-.72.027-.06-.046-.1-.083-.028a1,1,0,0,1-.983.7l-1.692,0a1.872,1.872,0,0,0-2.063,1.9c0,1.548,1.966,2.222,1.966,3.792,0,.369-.186.984-1.2.984a3.075,3.075,0,0,1-1.122-.233s-.454-2.754-1.787-3.706a3.662,3.662,0,0,1-3.109-.078c-1.182-.639-1.739-1.068-2.775-.352s-1.941,1.486-2.053,1.466l-.247-.049V63.948a.419.419,0,0,1,.493.493c-.026.145-.184.256.145.747.025.036.064.023.068-.019.013-.125.077-.334.244-.334a5.438,5.438,0,0,1,1.527,1.183,2.5,2.5,0,0,1,1.227-1.426c-.492-.076-2.613-.59-2.613-1.518,0-.31-.349-.382-.578-.365-.011-.027-.358-.85-1-.421a.044.044,0,0,0,.012.081c.286.066.408.363.42.684a23.267,23.267,0,0,0-6.374-.929,22.87,22.87,0,0,0-4.023.375v2.145h-.87V62.675h0M14.38,84.648A.535.535,0,0,1,14,84.1V82.771a9.577,9.577,0,0,0-3.506-.532c-1.73,0-2.272.39-2.3.528L7.734,85.3s.7-.641,3.209-.476c3.022.192,6.152,1.975,6.152.074V83.783C14.727,83.783,14.38,84.536,14.38,84.648Zm18.592-.865V84.9c0,1.9,3.131.118,6.152-.074,2.508-.164,3.209.476,3.209.476l-.46-2.536c-.025-.138-.566-.528-2.3-.528a9.573,9.573,0,0,0-3.505.532V84.1a.535.535,0,0,1-.383.545C35.687,84.536,35.34,83.783,32.972,83.783Zm-7.938-1.151c4.866,0,9.806.255,10.452.988.052.058.073,0,.073-.045V81c0-.752-5.1-1.19-10.526-1.19S14.507,80.244,14.507,81v2.579c0,.044.021.1.073.045C15.227,82.886,20.168,82.632,25.033,82.632Zm-4.34-12.159-.492-.127-.041.061-.571-.251.511,0c.048,0,.051-.031.026-.054l-.436-.427.564.21c.038.013.052-.015.034-.04-.159-.235-.376-.551-.376-.551l.553.37c.03.021.054,0,.041-.029l-.262-.647.5.476c.023.021.049.009.043-.023-.049-.227-.139-.647-.139-.647l.37.541c.022.032.05.023.05-.015,0-.106.012-.592.012-.592s.156.358.235.541c.016.037.044.04.064-.008l.19-.458.022.615-.082.016-.1.742c.735-.172,1.65-1.429,2.352-1.429.836,0,1.139.979,2.684.483A4.58,4.58,0,0,1,27.121,71c.6.561,1.433.374,1.433-.22,0-.8-.872-.952-.872-1.787a.91.91,0,0,1,.974-.909c.377,0,.929.162,1.247.162a.489.489,0,0,0,.5-.386c.034-.085.137-.057.127.009s.044.187.044.366c0,.528-.768.6-.863.532-.04-.028-.068.015-.04.037.115.093.09.407-.048.608-.017.023-.038.018-.042,0a1.155,1.155,0,0,0-.917-.845.409.409,0,0,0-.43.415c0,.475.951.907.951,1.892,0,1.023-1.013,1.268-2.032,1.013.035.968,1.48,1.544,1.515.852,0-.048.028-.018.043,0,.215.3.117.521-.157.635.252.114.3.622.372.926.111.455.594.2.617.19s.035,0,.024.028a.513.513,0,0,1-.669.294c-.255.179.053.34.284.409.035.009.032.035.005.045-.17.062-.535.176-.711-.129a.481.481,0,0,1-.5.306c-.186,0-.31.191-.267.446,0,.023-.012.029-.029.016a.4.4,0,0,1-.01-.727.323.323,0,0,0-.467.212c-.01.028-.027.029-.037,0-.194-.516.229-.666.534-.536a.472.472,0,0,0-.582-.244c-.018.005-.03,0-.018-.028a.384.384,0,0,1,.629-.155c.186.115.507-.053.536-.068-.647-1.288-1.9-.21-2.186-1.219-.005-.021-.03-.04-.048.016-.067.215-.616.229-.716-.194-.008-.033,0-.037.026-.016.08.081.253.154.479-.174a1.257,1.257,0,0,0,.171-.7,2.229,2.229,0,0,0-2-2.1,3.932,3.932,0,0,0-2.216.75l.573.131a.887.887,0,0,1-1.124.775l.089-.663a.855.855,0,0,0-.434.279.017.017,0,0,1-.03-.005.523.523,0,0,1,.3-.614c.011-.007.01-.015-.01-.015a.551.551,0,0,0-.478.264.012.012,0,0,1-.023,0A.4.4,0,0,1,20.694,70.473Zm1.7,4.478c-.22.268-.412.012-.7.012a.312.312,0,0,0-.323.317c0,.016-.011.023-.022.005a.392.392,0,0,1,.236-.678.354.354,0,0,0-.523.046c-.015.02-.033.011-.033-.013-.009-.52.4-.557.675-.329.049-.2-.078-.329-.3-.34-.026,0-.031-.017-.02-.029a.375.375,0,0,1,.272-.145c.29,0,.326.366.515.366.284,0,.685-.382.724-.423a3.387,3.387,0,0,1-.226-1.2c0-.019-.007-.021-.02-.013-.137.077-.485.074-.485-.354,0-.035.01-.037.029-.009.153.211.4-.027.523-.166s.848-1.189,1.8-1.189a1.377,1.377,0,0,1,.7.267c-.329.4,0,.784.241.735.029-.005.034.021.007.031-1.26.474-1.823.663-1.823,1.718,0,.551.188.856.511.784.025-.007.031,0,.014.023a.473.473,0,0,1-.364.186c-.261,0-.308-.143-.449-.143s-.614.276-.614.507a.4.4,0,0,0,.221.314c.011.007,0,.016,0,.017A.457.457,0,0,1,22.4,74.951ZM25.713,64.7c-.394-.024-.646.064-.634.19C25.27,65.089,25.525,65.066,25.713,64.7Zm-1.453.974a1.658,1.658,0,0,1,.617-.027.045.045,0,0,1-.007.088c-.58.074-.607.341-.977.341a.455.455,0,0,1-.409-.608c.013-.046.049-.048.06,0C23.58,65.618,23.806,65.788,24.259,65.671ZM16.73,78.529c.385.492.753.029,1.257.029.245,0,.546.084.6.577,0,.025.024.033.048,0a.715.715,0,0,0-.436-1.228.652.652,0,0,1,.955.087.03.03,0,0,0,.056-.018c0-.95-.712-1.016-1.227-.605-.1-.37.182-.614.541-.614.043,0,.058-.029.036-.054-.636-.682-1.112.175-1.22.312-.254.338-1.163-.3-1.526-.675a2.961,2.961,0,0,0,.8-1.61c0-.045-.005-.11-.005-.137s.011-.033.032-.02a.62.62,0,0,0,.3.077c.184,0,.531-.058.531-.711,0-.049-.023-.046-.044-.017a.334.334,0,0,1-.282.168c-.648,0-2-2.162-3.6-2.162a2.658,2.658,0,0,0-1.6.732.517.517,0,0,1,.21.519.569.569,0,0,1-.47.472c-.04.009-.043.038,0,.056a15.578,15.578,0,0,1,2.605,1.15c.394.34.317.984.089,1.872-.221.853-.692.736-.866.708-.025,0-.034.012-.018.032a.853.853,0,0,0,.678.35c.418,0,.575-.26.792-.26.365,0,1.128.523,1.128.921a.75.75,0,0,1-.4.572c-.015.011-.012.028.01.032C15.877,79.111,16.592,79.172,16.73,78.529Zm17.634.553c.022,0,.025-.021.011-.032a.75.75,0,0,1-.4-.572c0-.4.763-.921,1.128-.921.217,0,.373.26.792.26a.855.855,0,0,0,.679-.35c.015-.02.007-.036-.018-.032-.174.028-.646.145-.866-.708-.228-.887-.305-1.532.089-1.872a15.547,15.547,0,0,1,2.605-1.15c.043-.017.04-.046,0-.056a.569.569,0,0,1-.47-.472.516.516,0,0,1,.21-.519,2.659,2.659,0,0,0-1.605-.732c-1.6,0-2.949,2.162-3.6,2.162a.333.333,0,0,1-.281-.168c-.021-.029-.044-.032-.044.017,0,.653.346.711.53.711a.623.623,0,0,0,.3-.077c.021-.013.032,0,.032.02s-.005.092-.005.137a2.96,2.96,0,0,0,.8,1.61c-.363.378-1.272,1.013-1.526.675-.108-.137-.584-.994-1.22-.312-.023.025-.007.054.036.054.358,0,.637.244.541.614-.515-.411-1.227-.345-1.227.605a.03.03,0,0,0,.056.018.651.651,0,0,1,.954-.087.715.715,0,0,0-.436,1.228c.023.033.044.025.048,0,.056-.493.357-.577.6-.577.5,0,.872.463,1.257-.029C33.475,79.172,34.19,79.111,34.363,79.082ZM21.449,66.608c-.051.07-.219,0-.283-.032-.015-.007-.017,0-.012.011.04.09.2.361.442.361a.435.435,0,0,0,.312-.137s.94.305,1.4.434a1.588,1.588,0,0,0-.316.844c-.375-.231-1.874-1.035-1.874-1.035l-.465.635c-.077.1-.448-.166-.371-.272l.355-.485c-.117-.125-.4-.046-.477-.024-.011,0-.021,0-.011-.021a.509.509,0,0,1,.663-.257c0-.269-.4-.183-.505-.154-.013,0-.017,0-.005-.015a.647.647,0,0,1,.8-.164l.159-.219-.322-.338.2-.277.225.3,1.731-2.37a1.709,1.709,0,0,1,.515-.186,1.754,1.754,0,0,1-.013.546l-1.7,2.392.359.118-.2.278-.424-.2Zm6.071-.387c0,.217.134.536.424.444.015-.007.028,0,.025.012-.044.243-.477.464-.675.178a.632.632,0,0,0,.244.921.032.032,0,0,1,0,.056.494.494,0,0,1-.741-.188.645.645,0,0,0-.077.9,1.941,1.941,0,0,1-1.639.147,2.921,2.921,0,0,0-1.606-.513c.093-.935.56-1.182,1.42-1.316.687-.111.775-.427.676-.666a1.3,1.3,0,0,0-.661.153.245.245,0,0,1,.035-.263.656.656,0,0,1-.064-.224c.48,0,.565-.106.565-.106.086-.5-.424-.553-.812-.284a.447.447,0,0,1-.151-.372.2.2,0,0,1-.087-.146c0-.118.57-.439.716-.476.037-.166.244-.4.849-.341a1.927,1.927,0,0,0-.119-.9c-.024-.048.011-.074.064-.041.212.134.422.628.565.637a6.475,6.475,0,0,1,.714-.337,7.163,7.163,0,0,1,.129.779c.09.111.616,0,.845.1.058.025.056.068,0,.076a1.923,1.923,0,0,0-.81.416A2.226,2.226,0,0,1,27.519,66.22Z" fill="#fff"/><path d="M61.876,64.465c.682-.187.9-.527.9-1.364V55.643l-.977-.264V54.93a13.6,13.6,0,0,1,1.706-.109h.573l4.31,7.085.031-.016V55.6l-.992-.248v-.326a5.327,5.327,0,0,1,1.551-.264,3.779,3.779,0,0,1,1.3.171v.279c-.682.217-.883.5-.883,1.458V64.79l-.729.171-4.9-8.078-.016.016v7.163l.945.248v.341a3.858,3.858,0,0,1-1.411.264,4.927,4.927,0,0,1-1.411-.155Z"/><path d="M75.279,60.744v-.419c0-1.674-.4-2.031-1.379-2.031A3.288,3.288,0,0,0,71.574,59.3a2.268,2.268,0,0,1-.046-.465c0-.992.729-1.565,2.542-1.565,1.566,0,2.5.791,2.5,2.077,0,.341-.047,1.116-.062,1.566l-.046,2.512a1.982,1.982,0,0,0,.62.791,3.547,3.547,0,0,1-1.055.79,2.1,2.1,0,0,1-.713-.76,3.216,3.216,0,0,1-2.093.744,1.786,1.786,0,0,1-1.969-1.721C71.249,61.906,72.737,60.744,75.279,60.744Zm-1.488,3.318a3.245,3.245,0,0,0,1.488-.419v-2.17c-1.751,0-2.7.729-2.7,1.566C72.582,63.658,73,64.062,73.791,64.062Z"/><path d="M78.875,60.526l.046-2.062h-.853v-.511l1.675-1.659.512-.062-.062,1.4h2.047l-.108.837H80.146l-.031,1.954c-.016.651-.016,1.24-.016,1.814,0,1.256.372,1.69.945,1.69a1.808,1.808,0,0,0,1.147-.4l.155.063c-.062.914-.6,1.38-1.675,1.38-1.24,0-1.845-.651-1.845-2.156C78.828,62.061,78.859,61.24,78.875,60.526Z"/><path d="M83.31,64.5c.419-.154.821-.465.821-.837v-5.24L83.139,58v-.326a7.317,7.317,0,0,1,1.846-.294h.5l-.078.837v5.892l.868.232v.294a4.936,4.936,0,0,1-1.8.264,4.27,4.27,0,0,1-1.163-.14Zm.651-9.426a.88.88,0,0,1,.884-.915.8.8,0,0,1,.806.837.9.9,0,0,1-.868.961A.833.833,0,0,1,83.961,55.069Z"/><path d="M90.831,57.255a3.354,3.354,0,0,1,3.379,3.581,3.87,3.87,0,0,1-3.627,4.17,3.323,3.323,0,0,1-3.4-3.581C87.188,58.883,88.924,57.255,90.831,57.255Zm-.155,6.853c1.039,0,2.124-1.008,2.124-3.132,0-1.814-.977-2.821-2.077-2.821-1.07,0-2.124,1.069-2.124,3.116C88.6,63.146,89.575,64.108,90.676,64.108Z"/><path d="M95.335,64.5c.4-.154.821-.465.821-.837v-5.24L95.149,58v-.341a7.286,7.286,0,0,1,1.86-.279h.372v.837a3.319,3.319,0,0,1,2.294-.868,2.112,2.112,0,0,1,2.171,2.419v4.341l.806.232v.294a4.345,4.345,0,0,1-1.628.264,3.175,3.175,0,0,1-1.008-.14V64.5a.952.952,0,0,0,.559-1.022V60.511c0-1.52-.636-2.093-1.551-2.093a2.789,2.789,0,0,0-1.6.481v5.209l.868.232v.294a4.988,4.988,0,0,1-1.8.264,4.2,4.2,0,0,1-1.163-.14Z"/><path d="M107.658,60.744v-.419c0-1.674-.4-2.031-1.379-2.031a3.287,3.287,0,0,0-2.326,1.008,2.235,2.235,0,0,1-.046-.465c0-.992.729-1.565,2.542-1.565,1.566,0,2.5.791,2.5,2.077,0,.341-.047,1.116-.062,1.566l-.046,2.512a1.982,1.982,0,0,0,.62.791,3.547,3.547,0,0,1-1.055.79,2.1,2.1,0,0,1-.713-.76,3.216,3.216,0,0,1-2.093.744,1.786,1.786,0,0,1-1.969-1.721C103.628,61.906,105.116,60.744,107.658,60.744Zm-1.488,3.318a3.245,3.245,0,0,0,1.488-.419v-2.17c-1.752,0-2.7.729-2.7,1.566C104.961,63.658,105.38,64.062,106.17,64.062Z"/><path d="M114.563,60.744v-.419c0-1.674-.4-2.031-1.38-2.031a3.287,3.287,0,0,0-2.325,1.008,2.3,2.3,0,0,1-.046-.465c0-.992.729-1.565,2.542-1.565,1.565,0,2.5.791,2.5,2.077,0,.341-.047,1.116-.062,1.566l-.047,2.512a1.982,1.982,0,0,0,.62.791,3.547,3.547,0,0,1-1.055.79,2.1,2.1,0,0,1-.713-.76,3.216,3.216,0,0,1-2.093.744,1.786,1.786,0,0,1-1.969-1.721C110.533,61.906,112.021,60.744,114.563,60.744Zm-1.488,3.318a3.245,3.245,0,0,0,1.488-.419v-2.17c-1.751,0-2.7.729-2.7,1.566C111.866,63.658,112.285,64.062,113.075,64.062Z"/><path d="M117.592,64.5c.4-.154.822-.465.822-.837V54.667l-1.008-.419v-.341a7.286,7.286,0,0,1,1.86-.279h.5l-.078.868v9.613l.868.232v.294a5,5,0,0,1-1.8.264,4.2,4.2,0,0,1-1.163-.14Z"/><path d="M129.388,54.729a4.911,4.911,0,0,1,2.294.418l-.123,2.155h-.419l-.062-.279a1.561,1.561,0,0,0-1.813-1.349c-1.535,0-3.023,1.55-3.023,4.248,0,2.868,1.442,4.14,2.884,4.14a1.865,1.865,0,0,0,2.047-1.194l.154-.372h.419l-.155,2.046a6.247,6.247,0,0,1-2.7.48c-2.248,0-4.17-1.674-4.17-4.9C124.722,56.868,126.938,54.729,129.388,54.729Z"/><path d="M136.62,57.255A3.354,3.354,0,0,1,140,60.836a3.87,3.87,0,0,1-3.627,4.17,3.323,3.323,0,0,1-3.4-3.581C132.977,58.883,134.713,57.255,136.62,57.255Zm-.155,6.853c1.039,0,2.124-1.008,2.124-3.132,0-1.814-.977-2.821-2.077-2.821-1.07,0-2.124,1.069-2.124,3.116C134.388,63.146,135.364,64.108,136.465,64.108Z"/><path d="M144.864,57.255a3.354,3.354,0,0,1,3.379,3.581,3.87,3.87,0,0,1-3.627,4.17,3.323,3.323,0,0,1-3.4-3.581C141.221,58.883,142.957,57.255,144.864,57.255Zm-.155,6.853c1.039,0,2.124-1.008,2.124-3.132,0-1.814-.977-2.821-2.077-2.821-1.07,0-2.124,1.069-2.124,3.116C142.632,63.146,143.608,64.108,144.709,64.108Zm-1.752-8.9a.744.744,0,1,1,.744.744A.734.734,0,0,1,142.957,55.209Zm2.418,0a.744.744,0,1,1,.744.744A.735.735,0,0,1,145.375,55.209Z"/><path d="M149.369,64.5c.4-.154.822-.465.822-.837v-5.24L149.184,58v-.341a7.286,7.286,0,0,1,1.86-.279h.372v1.085h.016l.434-.48a1.8,1.8,0,0,1,1.364-.682c.543,0,.806.233.806.667a2.087,2.087,0,0,1-.248.931,1.567,1.567,0,0,0-.961-.357,1.961,1.961,0,0,0-1.364.636v4.931l1.07.232v.294a5.343,5.343,0,0,1-1.923.264,4.409,4.409,0,0,1-1.24-.14Z"/><path d="M158.143,57.287a5.179,5.179,0,0,1,1.07.108V54.667l-1.055-.419v-.341a7.712,7.712,0,0,1,1.923-.279h.5l-.093.868v8.883a2.15,2.15,0,0,0,.589.9,5.305,5.305,0,0,1-1.085.729,2.808,2.808,0,0,1-.744-.93,3.1,3.1,0,0,1-1.984.884c-1.566,0-2.822-1.3-2.822-3.365C154.438,58.806,156.128,57.287,158.143,57.287Zm1.086,6.17V58.325a3.782,3.782,0,0,0-1.132-.17c-1.318,0-2.311,1.039-2.311,3.193,0,1.69.884,2.6,1.86,2.6A2.674,2.674,0,0,0,159.229,63.457Z"/><path d="M162.364,64.5c.419-.154.821-.465.821-.837v-5.24L162.193,58v-.326a7.317,7.317,0,0,1,1.846-.294h.5l-.078.837v5.892l.868.232v.294a4.936,4.936,0,0,1-1.8.264,4.27,4.27,0,0,1-1.163-.14Zm.651-9.426a.88.88,0,0,1,.884-.915.8.8,0,0,1,.806.837.9.9,0,0,1-.868.961A.833.833,0,0,1,163.016,55.069Z"/><path d="M166.541,64.5c.4-.154.822-.465.822-.837v-5.24L166.355,58v-.341a7.286,7.286,0,0,1,1.86-.279h.372v.837a3.319,3.319,0,0,1,2.294-.868,2.112,2.112,0,0,1,2.171,2.419v4.341l.806.232v.294a4.348,4.348,0,0,1-1.628.264,3.175,3.175,0,0,1-1.008-.14V64.5a.952.952,0,0,0,.559-1.022V60.511c0-1.52-.636-2.093-1.551-2.093a2.789,2.789,0,0,0-1.6.481v5.209l.868.232v.294a5,5,0,0,1-1.8.264,4.2,4.2,0,0,1-1.163-.14Z"/><path d="M178.864,60.744v-.419c0-1.674-.4-2.031-1.38-2.031a3.287,3.287,0,0,0-2.325,1.008,2.3,2.3,0,0,1-.046-.465c0-.992.729-1.565,2.542-1.565,1.565,0,2.5.791,2.5,2.077,0,.341-.047,1.116-.062,1.566l-.047,2.512a1.982,1.982,0,0,0,.62.791,3.547,3.547,0,0,1-1.055.79,2.1,2.1,0,0,1-.713-.76,3.216,3.216,0,0,1-2.093.744,1.786,1.786,0,0,1-1.969-1.721C174.834,61.906,176.322,60.744,178.864,60.744Zm-1.488,3.318a3.245,3.245,0,0,0,1.488-.419v-2.17c-1.751,0-2.7.729-2.7,1.566C176.167,63.658,176.586,64.062,177.376,64.062Z"/><path d="M182.46,60.526l.046-2.062h-.853v-.511l1.675-1.659.512-.062-.062,1.4h2.047l-.109.837H183.73l-.03,1.954c-.016.651-.016,1.24-.016,1.814,0,1.256.372,1.69.945,1.69a1.81,1.81,0,0,0,1.147-.4l.155.063c-.062.914-.6,1.38-1.675,1.38-1.24,0-1.845-.651-1.845-2.156C182.413,62.061,182.444,61.24,182.46,60.526Z"/><path d="M190.218,57.255a3.354,3.354,0,0,1,3.379,3.581,3.87,3.87,0,0,1-3.627,4.17,3.323,3.323,0,0,1-3.4-3.581C186.574,58.883,188.311,57.255,190.218,57.255Zm-.155,6.853c1.039,0,2.124-1.008,2.124-3.132,0-1.814-.977-2.821-2.077-2.821-1.07,0-2.124,1.069-2.124,3.116C187.985,63.146,188.962,64.108,190.063,64.108Z"/><path d="M194.723,64.5c.4-.154.822-.465.822-.837v-5.24L194.537,58v-.341a7.286,7.286,0,0,1,1.86-.279h.372v1.085h.016l.434-.48a1.8,1.8,0,0,1,1.364-.682c.543,0,.806.233.806.667a2.087,2.087,0,0,1-.248.931,1.567,1.567,0,0,0-.961-.357,1.961,1.961,0,0,0-1.364.636v4.931l1.07.232v.294a5.343,5.343,0,0,1-1.923.264,4.409,4.409,0,0,1-1.24-.14Z"/><path d="M203.636,60.526l.046-2.062h-.853v-.511l1.675-1.659.512-.062-.062,1.4H207l-.109.837h-1.984l-.03,1.954c-.016.651-.016,1.24-.016,1.814,0,1.256.372,1.69.945,1.69a1.81,1.81,0,0,0,1.147-.4l.155.063c-.062.914-.6,1.38-1.675,1.38-1.24,0-1.845-.651-1.845-2.156C203.589,62.061,203.62,61.24,203.636,60.526Z"/><path d="M210.975,57.271a2.586,2.586,0,0,1,2.682,2.9c0,.294,0,.6-.015.992h-4.573c0,1.736,1.007,2.744,2.294,2.744a4.084,4.084,0,0,0,2.186-.666,1.279,1.279,0,0,1,.063.4c0,.7-1.023,1.349-2.667,1.349a3.27,3.27,0,0,1-3.209-3.55C207.734,58.744,209.362,57.271,210.975,57.271Zm1.441,3.085c0-1.52-.65-2.248-1.565-2.248a2.148,2.148,0,0,0-1.752,2.248Z"/><path d="M216.277,62.5V62.48a2.341,2.341,0,0,1-1.4-2.155,3.06,3.06,0,0,1,3.085-3.069,2.975,2.975,0,0,1,1.674.512,2.235,2.235,0,0,1,1.364-.5,2.463,2.463,0,0,1,.667.093l-.108,1.023a7.8,7.8,0,0,0-1.659-.171v.016a2.239,2.239,0,0,1,.884,1.69,3.044,3.044,0,0,1-3.147,3.023,2.645,2.645,0,0,1-.961-.186,1.037,1.037,0,0,0-.5.744c0,.466.388.714.992.714l2.171-.016c1.3-.016,2.03.589,2.03,1.736,0,1.473-1.627,2.713-3.782,2.713-1.953,0-2.961-.79-2.961-1.813a1.869,1.869,0,0,1,1.473-1.722V65.1a1.239,1.239,0,0,1-.915-1.21A1.612,1.612,0,0,1,216.277,62.5Zm1.519,5.255c1.473,0,2.45-.729,2.45-1.473,0-.6-.4-.945-1.147-.945h-2.5a1.4,1.4,0,0,0-.791,1.24C215.812,67.209,216.494,67.751,217.8,67.751Zm1.628-7.783c0-1.3-.729-1.922-1.55-1.922-.884,0-1.628.837-1.628,2.186,0,1.3.729,1.938,1.488,1.938C218.68,62.17,219.424,61.488,219.424,59.968Z"/><path d="M225.328,57.271a2.586,2.586,0,0,1,2.682,2.9c0,.294,0,.6-.015.992h-4.573c0,1.736,1.007,2.744,2.294,2.744a4.084,4.084,0,0,0,2.186-.666,1.279,1.279,0,0,1,.063.4c0,.7-1.023,1.349-2.667,1.349a3.27,3.27,0,0,1-3.209-3.55C222.088,58.744,223.716,57.271,225.328,57.271Zm1.441,3.085c0-1.52-.65-2.248-1.565-2.248a2.148,2.148,0,0,0-1.752,2.248Z"/><path d="M229.162,64.5c.4-.154.822-.465.822-.837v-5.24L228.977,58v-.341a7.286,7.286,0,0,1,1.86-.279h.372v.837a3.319,3.319,0,0,1,2.294-.868,2.112,2.112,0,0,1,2.171,2.419v4.341l.806.232v.294a4.348,4.348,0,0,1-1.628.264,3.175,3.175,0,0,1-1.008-.14V64.5a.952.952,0,0,0,.559-1.022V60.511c0-1.52-.636-2.093-1.551-2.093a2.789,2.789,0,0,0-1.6.481v5.209l.868.232v.294a5,5,0,0,1-1.8.264,4.2,4.2,0,0,1-1.163-.14Z"/><path d="M61.876,82.064a1.09,1.09,0,0,0,.9-1.178v-7.6l-.977-.325v-.341a17.555,17.555,0,0,1,3.147-.218c3.256,0,5.411,1.659,5.411,4.636a5.368,5.368,0,0,1-5.643,5.473,17.545,17.545,0,0,1-2.837-.155Zm2.992-.465a3.929,3.929,0,0,0,3.984-4.294,3.734,3.734,0,0,0-3.938-4,7.4,7.4,0,0,0-.806.047v8.186A6.7,6.7,0,0,0,64.868,81.6Z"/><path d="M71.7,82.1c.419-.155.822-.465.822-.837v-5.24l-.992-.418v-.326a7.337,7.337,0,0,1,1.845-.295h.5l-.078.838v5.891l.868.232v.295a4.956,4.956,0,0,1-1.8.264,4.268,4.268,0,0,1-1.163-.14Zm.651-9.426a.88.88,0,0,1,.884-.915.8.8,0,0,1,.806.838.9.9,0,0,1-.868.961A.833.833,0,0,1,72.355,72.67Z"/><path d="M75.874,80.685a3.076,3.076,0,0,0,2.186.978c.868,0,1.318-.419,1.318-.962s-.311-.883-1.334-1.317l-.774-.325a2.035,2.035,0,0,1-1.4-1.923,2.461,2.461,0,0,1,2.7-2.278c1.24,0,1.736.371,1.736.961a3.024,3.024,0,0,1-.077.65,3.347,3.347,0,0,0-1.768-.589c-.992,0-1.457.435-1.457.962,0,.558.279.867,1.209,1.225l.837.325c1.116.435,1.535,1.008,1.535,1.923,0,1.193-1.147,2.278-2.884,2.278-1.364,0-1.969-.434-1.969-1.271A1.423,1.423,0,0,1,75.874,80.685Z"/><path d="M85.283,74.887c1.256,0,1.674.4,1.674.915a1.983,1.983,0,0,1-.186.806,2.822,2.822,0,0,0-1.8-.713c-1.069,0-1.984,1.055-1.984,2.853,0,1.845.977,2.775,2.187,2.775a3.167,3.167,0,0,0,1.767-.62.95.95,0,0,1,.078.388c0,.729-.791,1.3-2.264,1.3a3.271,3.271,0,0,1-3.116-3.565C81.64,76.483,83.236,74.887,85.283,74.887Z"/><path d="M88.181,82.1c.4-.155.821-.465.821-.837v-5.24L88,75.6v-.342a7.308,7.308,0,0,1,1.86-.279h.372v1.086h.015l.435-.48a1.8,1.8,0,0,1,1.364-.683c.543,0,.807.232.807.667a2.1,2.1,0,0,1-.248.93,1.574,1.574,0,0,0-.962-.356,1.959,1.959,0,0,0-1.364.636v4.93l1.07.232v.295a5.364,5.364,0,0,1-1.923.264,4.409,4.409,0,0,1-1.24-.14Z"/><path d="M93.8,82.1c.419-.155.822-.465.822-.837v-5.24l-.992-.418v-.326a7.331,7.331,0,0,1,1.845-.295h.5l-.078.838v5.891l.868.232v.295a4.961,4.961,0,0,1-1.8.264,4.27,4.27,0,0,1-1.163-.14Zm.651-9.426a.88.88,0,0,1,.884-.915.8.8,0,0,1,.806.838.9.9,0,0,1-.868.961A.833.833,0,0,1,94.452,72.67Z"/><path d="M97.978,82.1c.4-.155.821-.465.821-.837v-5.24L97.792,75.6v-.342a7.308,7.308,0,0,1,1.86-.279h.372v.838a3.279,3.279,0,0,1,2.278-.868,2.042,2.042,0,0,1,1.752.945,3.83,3.83,0,0,1,2.388-.945c1.3,0,2.155.79,2.155,2.465v4.294l.806.232v.295a4.5,4.5,0,0,1-1.644.264,3.08,3.08,0,0,1-.992-.14V82.1a.953.953,0,0,0,.559-1.023V78.05c0-1.411-.62-2.031-1.582-2.031a3.2,3.2,0,0,0-1.488.356,6.625,6.625,0,0,1,.094,1.163v4.17l.806.232v.295a4.4,4.4,0,0,1-1.628.264,3.175,3.175,0,0,1-1.008-.14V82.1a.953.953,0,0,0,.559-1.023V78.22c0-1.721-.512-2.2-1.473-2.2a2.583,2.583,0,0,0-1.535.48v5.209l.868.232v.295a5.067,5.067,0,0,1-1.8.264,4.2,4.2,0,0,1-1.163-.14Z"/><path d="M110.626,82.1c.419-.155.821-.465.821-.837v-5.24l-.992-.418v-.326a7.344,7.344,0,0,1,1.846-.295h.5l-.078.838v5.891l.868.232v.295a4.957,4.957,0,0,1-1.8.264,4.27,4.27,0,0,1-1.163-.14Zm.651-9.426a.88.88,0,0,1,.884-.915.8.8,0,0,1,.806.838.9.9,0,0,1-.868.961A.833.833,0,0,1,111.277,72.67Z"/><path d="M114.8,82.1c.4-.155.822-.465.822-.837v-5.24l-1.008-.418v-.342a7.308,7.308,0,0,1,1.86-.279h.372v.838a3.317,3.317,0,0,1,2.294-.868,2.112,2.112,0,0,1,2.171,2.418v4.341l.806.232v.295a4.348,4.348,0,0,1-1.628.264,3.175,3.175,0,0,1-1.008-.14V82.1a.953.953,0,0,0,.559-1.023V78.111c0-1.519-.636-2.093-1.551-2.093a2.789,2.789,0,0,0-1.6.48v5.209l.868.232v.295a5.017,5.017,0,0,1-1.8.264,4.2,4.2,0,0,1-1.163-.14Z"/><path d="M127.125,78.344v-.418c0-1.675-.4-2.031-1.379-2.031A3.285,3.285,0,0,0,123.42,76.9a2.241,2.241,0,0,1-.046-.465c0-.992.729-1.566,2.542-1.566,1.566,0,2.5.791,2.5,2.078,0,.341-.047,1.116-.062,1.565l-.046,2.512a1.972,1.972,0,0,0,.62.79,3.532,3.532,0,0,1-1.055.791,2.12,2.12,0,0,1-.713-.76,3.216,3.216,0,0,1-2.093.744,1.786,1.786,0,0,1-1.969-1.721C123.095,79.507,124.583,78.344,127.125,78.344Zm-1.488,3.318a3.245,3.245,0,0,0,1.488-.419v-2.17c-1.752,0-2.7.729-2.7,1.565C124.428,81.259,124.847,81.662,125.637,81.662Z"/><path d="M130.722,78.127l.046-2.062h-.853v-.512l1.675-1.659.512-.062-.062,1.395h2.047l-.109.838h-1.984l-.03,1.953c-.016.651-.016,1.24-.016,1.813,0,1.256.372,1.69.945,1.69a1.81,1.81,0,0,0,1.147-.4l.155.062c-.062.915-.6,1.38-1.675,1.38-1.24,0-1.845-.65-1.845-2.154C130.675,79.662,130.706,78.84,130.722,78.127Z"/><path d="M135.155,82.1c.419-.155.821-.465.821-.837v-5.24l-.992-.418v-.326a7.344,7.344,0,0,1,1.846-.295h.5l-.078.838v5.891l.868.232v.295a4.957,4.957,0,0,1-1.8.264,4.27,4.27,0,0,1-1.163-.14Zm.651-9.426a.88.88,0,0,1,.884-.915.8.8,0,0,1,.806.838.9.9,0,0,1-.868.961A.833.833,0,0,1,135.807,72.67Z"/><path d="M142.3,74.871a2.587,2.587,0,0,1,2.682,2.9c0,.295,0,.6-.015.992h-4.573c0,1.736,1.007,2.744,2.294,2.744a4.076,4.076,0,0,0,2.186-.667,1.286,1.286,0,0,1,.063.4c0,.7-1.023,1.349-2.667,1.349a3.27,3.27,0,0,1-3.209-3.55C139.061,76.345,140.688,74.871,142.3,74.871Zm1.441,3.085c0-1.519-.65-2.247-1.565-2.247a2.147,2.147,0,0,0-1.752,2.247Z"/><path d="M152.36,74.871a2.587,2.587,0,0,1,2.683,2.9c0,.295,0,.6-.016.992h-4.574c0,1.736,1.008,2.744,2.295,2.744a4.076,4.076,0,0,0,2.186-.667,1.286,1.286,0,0,1,.063.4c0,.7-1.023,1.349-2.667,1.349a3.27,3.27,0,0,1-3.209-3.55C149.12,76.345,150.748,74.871,152.36,74.871Zm1.442,3.085c0-1.519-.651-2.247-1.566-2.247a2.147,2.147,0,0,0-1.752,2.247Z"/><path d="M156.194,82.1c.4-.155.821-.465.821-.837v-5.24l-1.007-.418v-.342a7.308,7.308,0,0,1,1.86-.279h.372v.838a3.317,3.317,0,0,1,2.294-.868,2.112,2.112,0,0,1,2.171,2.418v4.341l.806.232v.295a4.345,4.345,0,0,1-1.628.264,3.175,3.175,0,0,1-1.008-.14V82.1a.953.953,0,0,0,.559-1.023V78.111c0-1.519-.636-2.093-1.551-2.093a2.789,2.789,0,0,0-1.6.48v5.209l.868.232v.295a5.01,5.01,0,0,1-1.8.264,4.2,4.2,0,0,1-1.163-.14Z"/><path d="M167.772,82.064a1.064,1.064,0,0,0,.9-1.178V73.274l-.977-.31v-.341a16.851,16.851,0,0,1,3.085-.233c2.341,0,3.457.915,3.457,2.62A2.916,2.916,0,0,1,172,77.972L174.19,80.9a3.015,3.015,0,0,0,1.442,1.054v.295a2.047,2.047,0,0,1-1.179.341c-.667,0-1.1-.264-1.659-1.1l-2.046-3.1h-.729v3.271l.977.248v.341a5.966,5.966,0,0,1-1.768.264,6.1,6.1,0,0,1-1.457-.155Zm2.853-4.418a2.15,2.15,0,0,0,2.2-2.4,1.9,1.9,0,0,0-2.139-2,4.8,4.8,0,0,0-.667.063v4.341Z"/><path d="M180.363,78.344v-.418c0-1.675-.4-2.031-1.379-2.031a3.285,3.285,0,0,0-2.326,1.008,2.241,2.241,0,0,1-.046-.465c0-.992.729-1.566,2.542-1.566,1.566,0,2.5.791,2.5,2.078,0,.341-.047,1.116-.062,1.565l-.046,2.512a1.972,1.972,0,0,0,.62.79,3.532,3.532,0,0,1-1.055.791,2.12,2.12,0,0,1-.713-.76,3.216,3.216,0,0,1-2.093.744,1.786,1.786,0,0,1-1.969-1.721C176.333,79.507,177.821,78.344,180.363,78.344Zm-1.488,3.318a3.245,3.245,0,0,0,1.488-.419v-2.17c-1.752,0-2.7.729-2.7,1.565C177.666,81.259,178.085,81.662,178.875,81.662Z"/><path d="M186.882,74.887c1.256,0,1.674.4,1.674.915a1.983,1.983,0,0,1-.186.806,2.822,2.822,0,0,0-1.8-.713c-1.069,0-1.984,1.055-1.984,2.853,0,1.845.978,2.775,2.187,2.775a3.172,3.172,0,0,0,1.768-.62.967.967,0,0,1,.077.388c0,.729-.791,1.3-2.264,1.3a3.271,3.271,0,0,1-3.116-3.565C183.238,76.483,184.835,74.887,186.882,74.887Z"/><path d="M189.771,82.1c.419-.155.822-.465.822-.837v-5.24L189.6,75.6v-.326a7.331,7.331,0,0,1,1.845-.295h.5l-.078.838v5.891l.868.232v.295a4.961,4.961,0,0,1-1.8.264,4.27,4.27,0,0,1-1.163-.14Zm.651-9.426a.88.88,0,0,1,.884-.915.8.8,0,0,1,.806.838.9.9,0,0,1-.868.961A.833.833,0,0,1,190.423,72.67Z"/><path d="M193.941,80.685a3.076,3.076,0,0,0,2.186.978c.868,0,1.318-.419,1.318-.962s-.311-.883-1.334-1.317l-.774-.325a2.035,2.035,0,0,1-1.4-1.923,2.461,2.461,0,0,1,2.7-2.278c1.24,0,1.736.371,1.736.961a3.024,3.024,0,0,1-.077.65,3.347,3.347,0,0,0-1.768-.589c-.992,0-1.457.435-1.457.962,0,.558.278.867,1.209,1.225l.837.325c1.116.435,1.535,1.008,1.535,1.923,0,1.193-1.147,2.278-2.884,2.278-1.364,0-1.969-.434-1.969-1.271A1.423,1.423,0,0,1,193.941,80.685Z"/><path d="M199.76,82.1c.4-.155.822-.465.822-.837v-5.24l-1.008-.418v-.342a7.308,7.308,0,0,1,1.86-.279h.372v.838a3.279,3.279,0,0,1,2.278-.868,2.042,2.042,0,0,1,1.752.945,3.83,3.83,0,0,1,2.388-.945c1.3,0,2.154.79,2.154,2.465v4.294l.807.232v.295a4.491,4.491,0,0,1-1.644.264,3.08,3.08,0,0,1-.992-.14V82.1a.953.953,0,0,0,.559-1.023V78.05c0-1.411-.62-2.031-1.581-2.031a3.2,3.2,0,0,0-1.488.356,6.725,6.725,0,0,1,.093,1.163v4.17l.806.232v.295a4.4,4.4,0,0,1-1.628.264,3.165,3.165,0,0,1-1.007-.14V82.1a.954.954,0,0,0,.558-1.023V78.22c0-1.721-.512-2.2-1.473-2.2a2.583,2.583,0,0,0-1.535.48v5.209l.868.232v.295a5.07,5.07,0,0,1-1.8.264,4.2,4.2,0,0,1-1.163-.14Z"/><path d="M215.378,74.871a2.587,2.587,0,0,1,2.683,2.9c0,.295,0,.6-.016.992h-4.574c0,1.736,1.008,2.744,2.295,2.744a4.076,4.076,0,0,0,2.186-.667,1.286,1.286,0,0,1,.063.4c0,.7-1.023,1.349-2.667,1.349a3.27,3.27,0,0,1-3.209-3.55C212.138,76.345,213.766,74.871,215.378,74.871Zm1.442,3.085c0-1.519-.651-2.247-1.566-2.247a2.147,2.147,0,0,0-1.752,2.247Z"/><path d="M61.147,99.664a.893.893,0,0,0,.542-.589l1.938-8.294-.837-.187v-.371a7.459,7.459,0,0,1,1.6-.187H64.9l1.364,7.395h.016l2.558-7.395h.388a8.526,8.526,0,0,1,1.488.124v.372l-.729.187.357,8.588.853.232v.311a3.74,3.74,0,0,1-1.271.232,4.444,4.444,0,0,1-1.364-.155v-.264a.759.759,0,0,0,.48-.806l-.093-6.868H68.93l-2.821,8.14-.465-.031L64.124,91.99h-.016l-1.488,7.3.884.248v.311a3.281,3.281,0,0,1-1.287.232,3.879,3.879,0,0,1-1.069-.155Z" fill="#1d1d1b"/><path d="M72.482,97.339l.5-3.146.078-.915-.93-.295v-.294a4.278,4.278,0,0,1,1.55-.264,1.912,1.912,0,0,1,.7.093l-.7,4.558a16.114,16.114,0,0,0-.124,1.659.789.789,0,0,0,.621.884v.264a2.9,2.9,0,0,1-1.163.217.655.655,0,0,1-.744-.713C72.266,98.951,72.405,97.959,72.482,97.339Zm.744-7.162a.941.941,0,0,1,.868-.961.71.71,0,0,1,.714.744.942.942,0,0,1-.869.961A.684.684,0,0,1,73.227,90.177Z" fill="#1d1d1b"/><path d="M76.388,93.277l-.945-.295v-.294a4.139,4.139,0,0,1,1.535-.264,1.9,1.9,0,0,1,.636.108l-.5,2.372h.015c.714-1.582,1.736-2.512,2.791-2.512.682,0,1.225.48,1.225,1.426a17.872,17.872,0,0,1-.232,1.954l-.279,1.674c-.046.356-.124.962-.124,1.287,0,.512.248.713.729.806V99.8A2.612,2.612,0,0,1,80,100.1a.674.674,0,0,1-.76-.713,14.127,14.127,0,0,1,.187-1.644l.294-1.783a11.526,11.526,0,0,0,.155-1.565c0-.7-.31-.931-.682-.931-.868,0-2.108,1.675-2.171,3.876l-.093,2.62H75.613Z" fill="#1d1d1b"/><path d="M82.787,97.339l.5-3.146.077-.915-.93-.295v-.294a4.278,4.278,0,0,1,1.55-.264,1.907,1.907,0,0,1,.7.093l-.7,4.558a16.252,16.252,0,0,0-.124,1.659.789.789,0,0,0,.62.884v.264a2.893,2.893,0,0,1-1.162.217.655.655,0,0,1-.744-.713C82.57,98.951,82.709,97.959,82.787,97.339Zm.744-7.162a.94.94,0,0,1,.868-.961.709.709,0,0,1,.713.744.942.942,0,0,1-.868.961A.684.684,0,0,1,83.531,90.177Z" fill="#1d1d1b"/><path d="M85.578,98.626a2.154,2.154,0,0,0,1.52.65c.729,0,1.317-.418,1.317-1.069,0-.512-.2-.853-.961-1.534l-.543-.5A2.112,2.112,0,0,1,86,94.425a2.254,2.254,0,0,1,2.4-2.047c1.132,0,1.69.341,1.69.837a1.342,1.342,0,0,1-.279.807,2.466,2.466,0,0,0-1.689-.76c-.683,0-1.039.372-1.039.868,0,.449.186.713.961,1.411l.589.526a2.228,2.228,0,0,1,.992,1.8,2.631,2.631,0,0,1-2.868,2.294c-.977,0-1.41-.31-1.41-.884A1.006,1.006,0,0,1,85.578,98.626Z" fill="#1d1d1b"/><path d="M91.664,94.471l.2-.992A8.131,8.131,0,0,1,91,93.433v-.2a6.979,6.979,0,0,1,2.093-1.86h.232l-.263,1.271h.449a6.124,6.124,0,0,0,1.193-.108c0,.667-.372.961-1.349.961H92.92l-.264,1.612a21.83,21.83,0,0,0-.311,2.651c0,1.022.512,1.473,1.194,1.473a1.777,1.777,0,0,0,.636-.108V99.4a1.515,1.515,0,0,1-1.427.744c-1.023,0-1.565-.683-1.565-1.907A22.188,22.188,0,0,1,91.664,94.471Z" fill="#1d1d1b"/><path d="M98.2,92.362a1.459,1.459,0,0,1,1.659,1.6c0,1.83-1.86,2.946-3.705,2.946,0,1.875.5,2.325,1.395,2.325a2.373,2.373,0,0,0,1.69-.775.56.56,0,0,1,.154.372c0,.744-.992,1.364-2.247,1.364-1.3,0-2.2-.853-2.2-2.7C94.942,94.006,96.71,92.362,98.2,92.362Zm.419,1.876c0-.729-.295-1.008-.744-1.008-.683,0-1.659,1.179-1.659,2.961C97.625,96.191,98.617,95.433,98.617,94.238Z" fill="#1d1d1b"/><path d="M101.57,93.277l-.945-.295v-.294a4.087,4.087,0,0,1,1.5-.264,1.928,1.928,0,0,1,.651.108l-.466,2.248h.016l.822-1.364c.4-.667.821-.977,1.3-.977.341,0,.512.217.512.573a2.132,2.132,0,0,1-.171.806,1.65,1.65,0,0,0-.48-.062c-.977,0-1.953,1.069-2.093,3.938l-.124,2.264h-1.286Z" fill="#1d1d1b"/><path d="M105.914,97.339l.5-3.146.077-.915-.93-.295v-.294a4.278,4.278,0,0,1,1.55-.264,1.907,1.907,0,0,1,.7.093l-.7,4.558a16.252,16.252,0,0,0-.124,1.659.789.789,0,0,0,.62.884v.264a2.893,2.893,0,0,1-1.162.217.655.655,0,0,1-.744-.713C105.7,98.951,105.836,97.959,105.914,97.339Zm.744-7.162a.94.94,0,0,1,.868-.961.709.709,0,0,1,.713.744.942.942,0,0,1-.868.961A.684.684,0,0,1,106.658,90.177Z" fill="#1d1d1b"/><path d="M112.089,92.362a1.459,1.459,0,0,1,1.659,1.6c0,1.83-1.86,2.946-3.705,2.946,0,1.875.5,2.325,1.395,2.325a2.373,2.373,0,0,0,1.69-.775.56.56,0,0,1,.154.372c0,.744-.992,1.364-2.247,1.364-1.3,0-2.2-.853-2.2-2.7C108.833,94.006,110.6,92.362,112.089,92.362Zm.419,1.876c0-.729-.295-1.008-.744-1.008-.683,0-1.659,1.179-1.659,2.961C111.516,96.191,112.508,95.433,112.508,94.238Z" fill="#1d1d1b"/><path d="M117.234,93.246l-.666-.264v-.325a3.506,3.506,0,0,1,1.271-.232,2.186,2.186,0,0,1,.636.093l.342,6.341h.015a9.059,9.059,0,0,0,1.954-5.116.885.885,0,0,0-.574-.853v-.248a2,2,0,0,1,.961-.232c.5,0,.838.264.838.93A11.671,11.671,0,0,1,119,99.649a3.661,3.661,0,0,1-.821.573h-.311Z" fill="#1d1d1b"/><path d="M122.52,97.447c0-3.193,1.83-5.038,3.938-5.038a7.432,7.432,0,0,1,1.721.248l-.543,2.713a18.949,18.949,0,0,0-.356,2.914c0,.992.2,1.179.744,1.256v.326a4.361,4.361,0,0,1-1.38.232,2.14,2.14,0,0,1-.651-.108l.357-2.311h-.016c-.605,1.535-1.582,2.5-2.4,2.5C123.2,100.176,122.52,99.23,122.52,97.447Zm3.892-1.5.435-2.573a3.511,3.511,0,0,0-.807-.093c-1.256,0-2.325,1.317-2.325,3.953,0,1.317.4,1.876.774,1.876C125.155,99.106,126.055,98.067,126.411,95.943Z" fill="#1d1d1b"/><path d="M130.139,93.277l-.945-.295v-.294a4.139,4.139,0,0,1,1.535-.264,1.894,1.894,0,0,1,.635.108l-.5,2.372h.016c.714-1.582,1.736-2.512,2.791-2.512.682,0,1.225.48,1.225,1.426a17.872,17.872,0,0,1-.232,1.954l-.279,1.674a12.768,12.768,0,0,0-.124,1.287c0,.512.248.713.729.806V99.8a2.612,2.612,0,0,1-1.24.295.674.674,0,0,1-.76-.713,13.918,13.918,0,0,1,.187-1.644l.295-1.783a11.675,11.675,0,0,0,.154-1.565c0-.7-.31-.931-.682-.931-.868,0-2.108,1.675-2.171,3.876l-.093,2.62h-1.317Z" fill="#1d1d1b"/><path d="M138.479,99.664a1.017,1.017,0,0,0,.6-.837l.945-8-.837-.248v-.342a18.682,18.682,0,0,1,3.055-.248c1.845,0,2.867.791,2.867,2.078a2.85,2.85,0,0,1-2.4,2.743v.016A2.15,2.15,0,0,1,145,96.89c0,1.953-1.736,3.209-4.217,3.209a10.529,10.529,0,0,1-2.31-.171Zm2.76-.4a2.2,2.2,0,0,0,2.4-2.14c0-1.193-.775-1.845-2.9-1.845l-.5,3.922A7.042,7.042,0,0,0,141.238,99.262Zm2.511-7.023c0-.945-.729-1.457-1.751-1.457a6.045,6.045,0,0,0-.744.031l-.45,3.751C142.617,94.563,143.749,93.665,143.749,92.238Z" fill="#1d1d1b"/><path d="M146.608,97.339l.5-3.146.077-.915-.93-.295v-.294a4.278,4.278,0,0,1,1.55-.264,1.916,1.916,0,0,1,.7.093l-.7,4.558a16.252,16.252,0,0,0-.124,1.659.789.789,0,0,0,.62.884v.264a2.9,2.9,0,0,1-1.163.217.655.655,0,0,1-.744-.713C146.391,98.951,146.53,97.959,146.608,97.339Zm.744-7.162a.941.941,0,0,1,.868-.961.709.709,0,0,1,.713.744.942.942,0,0,1-.868.961A.684.684,0,0,1,147.353,90.177Z" fill="#1d1d1b"/><path d="M150.514,93.277l-.945-.295v-.294a4.139,4.139,0,0,1,1.535-.264,1.894,1.894,0,0,1,.635.108l-.5,2.372h.016c.714-1.582,1.736-2.512,2.791-2.512.682,0,1.225.48,1.225,1.426a17.872,17.872,0,0,1-.232,1.954l-.279,1.674a12.768,12.768,0,0,0-.124,1.287c0,.512.248.713.729.806V99.8a2.612,2.612,0,0,1-1.24.295.674.674,0,0,1-.76-.713,13.918,13.918,0,0,1,.187-1.644l.295-1.783A11.675,11.675,0,0,0,154,94.394c0-.7-.31-.931-.682-.931-.868,0-2.108,1.675-2.171,3.876l-.093,2.62h-1.317Z" fill="#1d1d1b"/><path d="M157.441,93.277l-.945-.295v-.294a4.139,4.139,0,0,1,1.535-.264,1.894,1.894,0,0,1,.635.108l-.5,2.372h.016c.714-1.582,1.736-2.512,2.791-2.512.682,0,1.225.48,1.225,1.426a17.872,17.872,0,0,1-.232,1.954l-.279,1.674a12.768,12.768,0,0,0-.124,1.287c0,.512.248.713.729.806V99.8a2.612,2.612,0,0,1-1.24.295.674.674,0,0,1-.76-.713,13.918,13.918,0,0,1,.187-1.644l.295-1.783a11.675,11.675,0,0,0,.154-1.565c0-.7-.31-.931-.682-.931-.868,0-2.108,1.675-2.171,3.876l-.093,2.62h-1.317Z" fill="#1d1d1b"/><path d="M166.7,92.362a1.459,1.459,0,0,1,1.659,1.6c0,1.83-1.86,2.946-3.705,2.946,0,1.875.5,2.325,1.395,2.325a2.373,2.373,0,0,0,1.69-.775.56.56,0,0,1,.154.372c0,.744-.992,1.364-2.247,1.364-1.3,0-2.2-.853-2.2-2.7C163.444,94.006,165.212,92.362,166.7,92.362Zm.419,1.876c0-.729-.295-1.008-.744-1.008-.683,0-1.659,1.179-1.659,2.961C166.127,96.191,167.119,95.433,167.119,94.238Z" fill="#1d1d1b"/><path d="M170.08,93.277l-.945-.295v-.294a4.139,4.139,0,0,1,1.535-.264,1.894,1.894,0,0,1,.635.108l-.5,2.372h.016c.714-1.582,1.736-2.512,2.791-2.512.682,0,1.225.48,1.225,1.426a17.872,17.872,0,0,1-.232,1.954l-.279,1.674a12.768,12.768,0,0,0-.124,1.287c0,.512.248.713.729.806V99.8a2.612,2.612,0,0,1-1.24.295.674.674,0,0,1-.76-.713,13.918,13.918,0,0,1,.187-1.644l.295-1.783a11.675,11.675,0,0,0,.154-1.565c0-.7-.31-.931-.682-.931-.868,0-2.108,1.675-2.171,3.876l-.093,2.62h-1.317Z" fill="#1d1d1b"/><path d="M176.459,97.339l1.085-7.689-.977-.295v-.294a4.507,4.507,0,0,1,1.55-.248,2.436,2.436,0,0,1,.714.093l-1.163,8.124a13.056,13.056,0,0,0-.124,1.705.834.834,0,0,0,.7.884v.264a3.054,3.054,0,0,1-1.193.217.676.676,0,0,1-.775-.729C176.272,98.936,176.381,97.928,176.459,97.339Z" fill="#1d1d1b"/><path d="M179.348,97.447c0-3.193,1.83-5.038,3.938-5.038a7.432,7.432,0,0,1,1.721.248l-.543,2.713a18.949,18.949,0,0,0-.356,2.914c0,.992.2,1.179.744,1.256v.326a4.361,4.361,0,0,1-1.38.232,2.14,2.14,0,0,1-.651-.108l.357-2.311h-.016c-.605,1.535-1.582,2.5-2.4,2.5C180.03,100.176,179.348,99.23,179.348,97.447Zm3.892-1.5.435-2.573a3.511,3.511,0,0,0-.807-.093c-1.256,0-2.325,1.317-2.325,3.953,0,1.317.4,1.876.774,1.876C181.983,99.106,182.883,98.067,183.239,95.943Z" fill="#1d1d1b"/><path d="M186.967,93.277l-.945-.295v-.294a4.139,4.139,0,0,1,1.535-.264,1.894,1.894,0,0,1,.635.108l-.5,2.372h.016c.714-1.582,1.736-2.512,2.791-2.512.682,0,1.225.48,1.225,1.426a17.872,17.872,0,0,1-.232,1.954l-.279,1.674a12.768,12.768,0,0,0-.124,1.287c0,.512.248.713.729.806V99.8a2.612,2.612,0,0,1-1.24.295.674.674,0,0,1-.76-.713,13.918,13.918,0,0,1,.187-1.644l.295-1.783a11.675,11.675,0,0,0,.154-1.565c0-.7-.31-.931-.682-.931-.868,0-2.108,1.675-2.171,3.876l-.093,2.62h-1.317Z" fill="#1d1d1b"/><path d="M192.927,97.447c0-3.116,1.783-5.038,3.86-5.038.187,0,.419.016.59.031l.449-2.791-1.023-.295v-.294a4.692,4.692,0,0,1,1.644-.248,2.5,2.5,0,0,1,.713.093l-1.132,6.418a29.46,29.46,0,0,0-.341,2.961c0,1.008.217,1.179.744,1.256v.326a4.178,4.178,0,0,1-1.38.232,1.984,1.984,0,0,1-.651-.108l.388-2.341h-.016c-.573,1.441-1.55,2.526-2.434,2.526C193.641,100.176,192.927,99.262,192.927,97.447Zm3.892-1.519.434-2.574a3.7,3.7,0,0,0-.744-.077c-1.286,0-2.387,1.209-2.387,3.953,0,1.287.372,1.876.775,1.876C195.516,99.106,196.493,98.1,196.818,95.929Z" fill="#1d1d1b"/><path d="M199.463,98.626a2.154,2.154,0,0,0,1.52.65c.729,0,1.317-.418,1.317-1.069,0-.512-.2-.853-.961-1.534l-.543-.5a2.112,2.112,0,0,1-.914-1.752,2.254,2.254,0,0,1,2.4-2.047c1.132,0,1.69.341,1.69.837a1.342,1.342,0,0,1-.279.807,2.466,2.466,0,0,0-1.689-.76c-.683,0-1.039.372-1.039.868,0,.449.186.713.961,1.411l.589.526a2.228,2.228,0,0,1,.992,1.8,2.631,2.631,0,0,1-2.868,2.294c-.977,0-1.41-.31-1.41-.884A1.006,1.006,0,0,1,199.463,98.626Z" fill="#1d1d1b"/><path d="M207.876,92.362a1.459,1.459,0,0,1,1.659,1.6c0,1.83-1.86,2.946-3.705,2.946,0,1.875.5,2.325,1.395,2.325a2.373,2.373,0,0,0,1.69-.775.56.56,0,0,1,.154.372c0,.744-.992,1.364-2.247,1.364-1.3,0-2.2-.853-2.2-2.7C204.62,94.006,206.388,92.362,207.876,92.362Zm.419,1.876c0-.729-.295-1.008-.744-1.008-.683,0-1.659,1.179-1.659,2.961C207.3,96.191,208.295,95.433,208.295,94.238Z" fill="#1d1d1b"/><path d="M212.121,99.634l5.132-8.713h-2.278c-.667,0-1.039.279-1.442,1.069l-.108.218h-.48l.325-2.109h5.6v.326l-5.1,8.713h2.6a1.349,1.349,0,0,0,1.411-1.008l.124-.295h.527l-.357,2.124h-5.953Z" fill="#1d1d1b"/><path d="M219.349,97.447c0-3.193,1.83-5.038,3.938-5.038a7.432,7.432,0,0,1,1.721.248l-.543,2.713a18.949,18.949,0,0,0-.356,2.914c0,.992.2,1.179.744,1.256v.326a4.361,4.361,0,0,1-1.38.232,2.14,2.14,0,0,1-.651-.108l.356-2.311h-.015c-.6,1.535-1.582,2.5-2.4,2.5C220.031,100.176,219.349,99.23,219.349,97.447Zm3.892-1.5.434-2.573a3.5,3.5,0,0,0-.806-.093c-1.256,0-2.325,1.317-2.325,3.953,0,1.317.4,1.876.775,1.876C221.984,99.106,222.884,98.067,223.24,95.943Z" fill="#1d1d1b"/><path d="M226.583,95.913l.636-6.264-.962-.295v-.294a4.456,4.456,0,0,1,1.582-.248,2.464,2.464,0,0,1,.7.093l-.9,6.806h.016l.868-.682a5.853,5.853,0,0,0,1.69-2.713c.759,0,1.038.2,1.038.511,0,.59-.977,1.736-2.124,2.512l-.666.465,1.953,2.992a2.235,2.235,0,0,0,1.008.838V99.9a1.709,1.709,0,0,1-.961.232c-.466,0-.884-.232-1.287-.977l-1.6-2.946h-.016l-.264,3.752h-1.333Z" fill="#1d1d1b"/><path d="M235.133,92.362a1.459,1.459,0,0,1,1.659,1.6c0,1.83-1.86,2.946-3.706,2.946,0,1.875.5,2.325,1.4,2.325a2.373,2.373,0,0,0,1.69-.775.56.56,0,0,1,.154.372c0,.744-.992,1.364-2.248,1.364-1.3,0-2.2-.853-2.2-2.7C231.877,94.006,233.645,92.362,235.133,92.362Zm.419,1.876c0-.729-.295-1.008-.744-1.008-.683,0-1.659,1.179-1.659,2.961C234.56,96.191,235.552,95.433,235.552,94.238Z" fill="#1d1d1b"/><path d="M238.513,93.277l-.945-.295v-.294a4.139,4.139,0,0,1,1.535-.264,1.9,1.9,0,0,1,.636.108l-.5,2.372h.015c.714-1.582,1.736-2.512,2.791-2.512.682,0,1.225.48,1.225,1.426a17.872,17.872,0,0,1-.232,1.954l-.279,1.674c-.046.356-.124.962-.124,1.287,0,.512.248.713.729.806V99.8a2.612,2.612,0,0,1-1.24.295.674.674,0,0,1-.76-.713,14.127,14.127,0,0,1,.187-1.644l.294-1.783A11.526,11.526,0,0,0,242,94.394c0-.7-.31-.931-.682-.931-.868,0-2.108,1.675-2.171,3.876l-.093,2.62h-1.317Z" fill="#1d1d1b"/><path d="M250.309,92.362a1.459,1.459,0,0,1,1.659,1.6c0,1.83-1.86,2.946-3.706,2.946,0,1.875.5,2.325,1.4,2.325a2.373,2.373,0,0,0,1.69-.775.56.56,0,0,1,.154.372c0,.744-.992,1.364-2.248,1.364-1.3,0-2.2-.853-2.2-2.7C247.053,94.006,248.82,92.362,250.309,92.362Zm.419,1.876c0-.729-.295-1.008-.744-1.008-.683,0-1.659,1.179-1.659,2.961C249.735,96.191,250.728,95.433,250.728,94.238Z" fill="#1d1d1b"/><path d="M253.688,93.277l-.945-.295v-.294a4.139,4.139,0,0,1,1.535-.264,1.9,1.9,0,0,1,.636.108l-.5,2.372h.015c.714-1.582,1.736-2.512,2.791-2.512.682,0,1.225.48,1.225,1.426a17.872,17.872,0,0,1-.232,1.954l-.279,1.674c-.046.356-.124.962-.124,1.287,0,.512.248.713.729.806V99.8a2.612,2.612,0,0,1-1.24.295.674.674,0,0,1-.76-.713,14.127,14.127,0,0,1,.187-1.644l.294-1.783a11.526,11.526,0,0,0,.155-1.565c0-.7-.31-.931-.682-.931-.868,0-2.108,1.675-2.171,3.876l-.093,2.62h-1.317Z" fill="#1d1d1b"/><path d="M61.52,117.265a.883.883,0,0,0,.589-.682l.946-8.186-.868-.248v-.311a3.842,3.842,0,0,1,1.426-.232,4.019,4.019,0,0,1,1.209.155v.264a.818.818,0,0,0-.573.667l-.961,8.2.868.248v.311a4.013,4.013,0,0,1-1.411.232,4.673,4.673,0,0,1-1.225-.155Zm2.449-4.713.016-.077,1.4-1.24c1.178-1.054,1.736-1.984,1.736-2.6,0-.311-.14-.48-.559-.6v-.232a2.556,2.556,0,0,1,1.07-.232.674.674,0,0,1,.76.682c0,.915-.667,2-2.046,3.179l-1.132.961,1.488,2.7c.775,1.4,1.442,1.907,1.984,1.984v.325a1.694,1.694,0,0,1-1.132.342c-.589,0-1.085-.356-1.953-2.047Z" fill="#1d1d1b"/><path d="M72.63,109.947c1.256,0,2.155.822,2.155,2.589,0,3.287-1.8,5.225-3.333,5.225-1.209,0-2.217-.93-2.217-2.759C69.235,111.73,70.925,109.947,72.63,109.947Zm.884,2.9c0-1.38-.512-2-1.193-2-.837,0-1.86,1.427-1.86,3.612,0,1.768.589,2.434,1.271,2.434C72.475,116.893,73.514,115.606,73.514,112.847Z" fill="#1d1d1b"/><path d="M76.7,110.878l-.945-.295v-.294a4.139,4.139,0,0,1,1.535-.264,1.87,1.87,0,0,1,.635.108l-.5,2.372h.016c.714-1.581,1.736-2.512,2.791-2.512.682,0,1.225.48,1.225,1.427a17.857,17.857,0,0,1-.232,1.953l-.279,1.674a12.741,12.741,0,0,0-.124,1.287c0,.512.248.713.729.806v.264a2.612,2.612,0,0,1-1.24.295.674.674,0,0,1-.76-.713,13.918,13.918,0,0,1,.187-1.644l.295-1.783a11.66,11.66,0,0,0,.154-1.565c0-.7-.31-.931-.682-.931-.868,0-2.108,1.675-2.171,3.876l-.093,2.62H75.927Z" fill="#1d1d1b"/><path d="M83.1,114.939l.5-3.147.077-.914-.93-.295v-.294a4.278,4.278,0,0,1,1.55-.264,1.916,1.916,0,0,1,.7.093l-.7,4.558a16.272,16.272,0,0,0-.124,1.659.789.789,0,0,0,.62.884v.264a2.878,2.878,0,0,1-1.163.217.655.655,0,0,1-.744-.713C82.881,116.552,83.021,115.56,83.1,114.939Zm.744-7.162a.941.941,0,0,1,.868-.961.709.709,0,0,1,.713.744.942.942,0,0,1-.868.961A.684.684,0,0,1,83.843,107.777Z" fill="#1d1d1b"/><path d="M87,110.878l-.945-.295v-.294a4.139,4.139,0,0,1,1.535-.264,1.87,1.87,0,0,1,.635.108l-.5,2.372h.016c.714-1.581,1.736-2.512,2.791-2.512.682,0,1.225.48,1.225,1.427a17.857,17.857,0,0,1-.232,1.953l-.279,1.674a12.741,12.741,0,0,0-.124,1.287c0,.512.248.713.729.806v.264a2.612,2.612,0,0,1-1.24.295.674.674,0,0,1-.76-.713,13.918,13.918,0,0,1,.187-1.644l.295-1.783a11.66,11.66,0,0,0,.154-1.565c0-.7-.31-.931-.682-.931-.868,0-2.108,1.675-2.171,3.876l-.093,2.62H86.229Z" fill="#1d1d1b"/><path d="M93.623,113.514l.636-6.264-.962-.294v-.295a4.452,4.452,0,0,1,1.582-.248,2.464,2.464,0,0,1,.7.093l-.9,6.806h.016l.868-.682a5.844,5.844,0,0,0,1.689-2.713c.76,0,1.039.2,1.039.512,0,.589-.977,1.736-2.124,2.511l-.666.466,1.953,2.991a2.235,2.235,0,0,0,1.008.838v.263a1.7,1.7,0,0,1-.962.233c-.465,0-.883-.233-1.286-.978l-1.6-2.945H94.6l-.264,3.752H93Z" fill="#1d1d1b"/><path d="M100.02,110.878l-.946-.295v-.294a4.087,4.087,0,0,1,1.5-.264,1.9,1.9,0,0,1,.651.108l-.465,2.248h.015l.822-1.364c.4-.667.821-.977,1.3-.977.342,0,.512.217.512.573a2.155,2.155,0,0,1-.17.807,1.629,1.629,0,0,0-.481-.062c-.977,0-1.953,1.069-2.093,3.938l-.124,2.264H99.26Z" fill="#1d1d1b"/><path d="M104.362,114.939l.5-3.147.077-.914-.93-.295v-.294a4.278,4.278,0,0,1,1.55-.264,1.916,1.916,0,0,1,.7.093l-.7,4.558a16.272,16.272,0,0,0-.124,1.659.789.789,0,0,0,.62.884v.264a2.878,2.878,0,0,1-1.163.217.655.655,0,0,1-.744-.713C104.145,116.552,104.284,115.56,104.362,114.939Zm.744-7.162a.941.941,0,0,1,.868-.961.709.709,0,0,1,.713.744.942.942,0,0,1-.868.961A.684.684,0,0,1,105.106,107.777Z" fill="#1d1d1b"/><path d="M108.183,111.808l.047-.93-.945-.295v-.294a4.306,4.306,0,0,1,1.534-.264,2.441,2.441,0,0,1,.7.093l-.992,8.371c-.264,2.109-1.132,2.9-2.155,2.9a1.5,1.5,0,0,1-1.069-.419v-.278c1.022,0,1.845-.589,2.03-2.14Zm.187-4.03a.941.941,0,0,1,.868-.961.718.718,0,0,1,.713.744.942.942,0,0,1-.868.961A.684.684,0,0,1,108.369,107.777Z" fill="#1d1d1b"/><path d="M111.283,113.514l.636-6.264-.962-.294v-.295a4.452,4.452,0,0,1,1.582-.248,2.464,2.464,0,0,1,.7.093l-.9,6.806h.016l.868-.682a5.844,5.844,0,0,0,1.689-2.713c.76,0,1.039.2,1.039.512,0,.589-.977,1.736-2.124,2.511l-.666.466,1.953,2.991a2.235,2.235,0,0,0,1.008.838v.263a1.7,1.7,0,0,1-.962.233c-.465,0-.883-.233-1.286-.978l-1.6-2.945h-.016L112,117.56h-1.333Z" fill="#1d1d1b"/><path d="M116.759,116.227a2.156,2.156,0,0,0,1.52.651,1.173,1.173,0,0,0,1.317-1.07c0-.512-.2-.853-.961-1.535l-.543-.5a2.11,2.11,0,0,1-.914-1.751,2.254,2.254,0,0,1,2.4-2.047c1.132,0,1.69.341,1.69.837a1.333,1.333,0,0,1-.279.807,2.468,2.468,0,0,0-1.69-.76c-.682,0-1.038.372-1.038.868,0,.449.186.713.961,1.411l.589.526a2.228,2.228,0,0,1,.992,1.8,2.631,2.631,0,0,1-2.867,2.294c-.978,0-1.411-.31-1.411-.883A1.007,1.007,0,0,1,116.759,116.227Z" fill="#1d1d1b"/><path d="M123.068,110.878l-.945-.295v-.294a4.087,4.087,0,0,1,1.5-.264,1.9,1.9,0,0,1,.651.108l-.466,2.248h.016l.822-1.364c.4-.667.821-.977,1.3-.977.341,0,.512.217.512.573a2.137,2.137,0,0,1-.171.807,1.618,1.618,0,0,0-.48-.062c-.977,0-1.953,1.069-2.093,3.938l-.124,2.264H122.31Z" fill="#1d1d1b"/><path d="M129.8,109.963a1.459,1.459,0,0,1,1.659,1.6c0,1.83-1.86,2.946-3.706,2.946,0,1.876.5,2.325,1.4,2.325a2.377,2.377,0,0,0,1.69-.775.558.558,0,0,1,.154.372c0,.744-.992,1.364-2.248,1.364-1.3,0-2.2-.853-2.2-2.7C126.549,111.606,128.316,109.963,129.8,109.963Zm.419,1.876c0-.729-.295-1.008-.744-1.008-.683,0-1.659,1.179-1.659,2.961C129.231,113.792,130.224,113.032,130.224,111.839Z" fill="#1d1d1b"/><path d="M132.488,114.939l1.085-7.689-.977-.294v-.295a4.507,4.507,0,0,1,1.55-.248,2.436,2.436,0,0,1,.714.093L133.7,114.63a13.056,13.056,0,0,0-.124,1.705.834.834,0,0,0,.7.884v.264a3.036,3.036,0,0,1-1.193.217.676.676,0,0,1-.775-.729C132.3,116.536,132.41,115.528,132.488,114.939Z" fill="#1d1d1b"/><path d="M135.377,115.048c0-3.193,1.83-5.038,3.938-5.038a7.432,7.432,0,0,1,1.721.248l-.543,2.713a18.932,18.932,0,0,0-.356,2.915c0,.992.2,1.178.744,1.255v.326a4.361,4.361,0,0,1-1.38.232,2.14,2.14,0,0,1-.651-.108l.357-2.311h-.016c-.605,1.535-1.582,2.5-2.4,2.5C136.06,117.776,135.377,116.831,135.377,115.048Zm3.892-1.5.435-2.573a3.511,3.511,0,0,0-.807-.093c-1.256,0-2.325,1.317-2.325,3.953,0,1.317.4,1.876.774,1.876C138.013,116.707,138.912,115.668,139.269,113.544Z" fill="#1d1d1b"/><path d="M142.765,112.071l.2-.992a8.131,8.131,0,0,1-.868-.046v-.2a6.979,6.979,0,0,1,2.093-1.86h.233l-.264,1.271h.449a6.131,6.131,0,0,0,1.193-.108c0,.666-.372.961-1.349.961h-.434l-.264,1.612a21.83,21.83,0,0,0-.311,2.651c0,1.023.512,1.473,1.194,1.473a1.781,1.781,0,0,0,.636-.108V117a1.512,1.512,0,0,1-1.427.744c-1.023,0-1.565-.682-1.565-1.906A22.188,22.188,0,0,1,142.765,112.071Z" fill="#1d1d1b"/><path d="M146.82,114.939l.5-3.147.077-.914-.93-.295v-.294a4.278,4.278,0,0,1,1.55-.264,1.907,1.907,0,0,1,.7.093l-.7,4.558a16.272,16.272,0,0,0-.124,1.659.789.789,0,0,0,.62.884v.264a2.876,2.876,0,0,1-1.162.217.655.655,0,0,1-.744-.713C146.6,116.552,146.742,115.56,146.82,114.939Zm.744-7.162a.94.94,0,0,1,.868-.961.709.709,0,0,1,.713.744.942.942,0,0,1-.868.961A.684.684,0,0,1,147.564,107.777Z" fill="#1d1d1b"/><path d="M153,109.963a1.459,1.459,0,0,1,1.659,1.6c0,1.83-1.86,2.946-3.706,2.946,0,1.876.5,2.325,1.4,2.325a2.377,2.377,0,0,0,1.69-.775.558.558,0,0,1,.154.372c0,.744-.992,1.364-2.248,1.364-1.3,0-2.2-.853-2.2-2.7C149.74,111.606,151.508,109.963,153,109.963Zm.419,1.876c0-.729-.295-1.008-.744-1.008-.683,0-1.659,1.179-1.659,2.961C152.423,113.792,153.415,113.032,153.415,111.839Z" fill="#1d1d1b"/><path d="M155.2,116.227a2.155,2.155,0,0,0,1.52.651,1.173,1.173,0,0,0,1.317-1.07c0-.512-.2-.853-.961-1.535l-.543-.5a2.11,2.11,0,0,1-.914-1.751,2.254,2.254,0,0,1,2.4-2.047c1.132,0,1.69.341,1.69.837a1.34,1.34,0,0,1-.279.807,2.466,2.466,0,0,0-1.689-.76c-.683,0-1.039.372-1.039.868,0,.449.186.713.961,1.411l.589.526a2.228,2.228,0,0,1,.992,1.8,2.631,2.631,0,0,1-2.868,2.294c-.977,0-1.41-.31-1.41-.883A1.007,1.007,0,0,1,155.2,116.227Z" fill="#1d1d1b"/><rect width="314" height="125" fill="none"/></g></svg>