<svg width="568" height="358" xmlns="http://www.w3.org/2000/svg" xmlns:xlink="http://www.w3.org/1999/xlink" xml:space="preserve" overflow="hidden"><g transform="translate(-676 -200)"><g><g><g><g><path d="M212.958 234.787 353.064 234.787C355.422 234.787 357.333 236.705 357.333 239.072L357.333 273.394C357.333 275.761 355.422 277.679 353.064 277.679L212.958 277.679C210.6 277.679 208.689 275.761 208.689 273.394L208.689 239.072C208.689 236.705 210.6 234.787 212.958 234.787Z" fill="#0082AC" fill-rule="nonzero" fill-opacity="1" transform="matrix(1.00172 0 0 1 676 200)"/><path d="M212.958 80.3163 353.064 80.3163C355.422 80.3163 357.333 82.2345 357.333 84.6022L357.333 118.923C357.333 121.29 355.422 123.209 353.064 123.209L212.958 123.209C210.6 123.209 208.689 121.29 208.689 118.923L208.689 84.6022C208.689 82.2345 210.6 80.3163 212.958 80.3163Z" fill="#0082AC" fill-rule="nonzero" fill-opacity="1" transform="matrix(1.00172 0 0 1 676 200)"/><path d="M515.626 156.914C515.626 132.368 499.381 120.484 481.215 120.484 463.047 120.484 446.806 130.938 446.806 155.484L446.806 273.374C446.806 275.741 444.895 277.66 442.537 277.66L403.313 277.66C400.955 277.66 399.044 275.741 399.044 273.374L399.044 84.5741C399.044 82.2065 400.955 80.2883 403.313 80.2883L427.103 80.2883C430.711 80.2883 432.717 81.4958 434.319 83.1044 437.528 85.9205 443.348 92.931 443.348 92.931 448.907 88.2678 462.398 77.4006 487.533 77.4006 529.622 77.4006 563.395 107.738 563.395 151.818L563.395 273.366C563.395 275.734 561.484 277.652 559.123 277.652L519.903 277.652C517.542 277.652 515.631 275.734 515.631 273.366L515.631 156.914 515.626 156.914Z" fill="#0082AC" fill-rule="nonzero" fill-opacity="1" transform="matrix(1.00172 0 0 1 676 200)"/><path d="M212.959 312.02 252.183 312.02C254.541 312.02 256.452 313.939 256.452 316.306L256.452 350.627C256.452 352.995 254.541 354.913 252.183 354.913L212.959 354.913C210.6 354.913 208.689 352.995 208.689 350.627L208.689 316.306C208.689 313.943 210.6 312.02 212.959 312.02Z" fill="#0082AC" fill-rule="nonzero" fill-opacity="1" transform="matrix(1.00172 0 0 1 676 200)"/><path d="M212.959 3.07857 252.183 3.07857C254.541 3.07857 256.452 4.997 256.452 7.36425L256.452 41.6854C256.452 44.0527 254.541 45.9711 252.183 45.9711L212.959 45.9711C210.6 45.9711 208.689 44.0527 208.689 41.6854L208.689 7.36425C208.689 4.997 210.6 3.07857 212.959 3.07857Z" fill="#0082AC" fill-rule="nonzero" fill-opacity="1" transform="matrix(1.00172 0 0 1 676 200)"/><path d="M212.959 157.549 293.888 157.549C296.246 157.549 298.157 159.468 298.157 161.835L298.157 196.156C298.157 198.523 296.246 200.441 293.888 200.441L212.959 200.441C210.6 200.441 208.689 198.523 208.689 196.156L208.689 161.835C208.689 159.468 210.6 157.549 212.959 157.549Z" fill="#0082AC" fill-rule="nonzero" fill-opacity="1" transform="matrix(1.00172 0 0 1 676 200)"/><path d="M119.219 156.914C119.219 132.368 102.978 120.484 84.8097 120.484 66.6412 120.484 50.4001 130.938 50.4001 155.484L50.4001 273.374C50.4001 275.741 48.4892 277.66 46.1312 277.66L6.90297 277.66C4.54492 277.656 2.63396 275.737 2.63396 273.37L2.63396 84.5741C2.63396 82.2065 4.54492 80.2883 6.90297 80.2883L30.6931 80.2883C34.3014 80.2883 36.3073 81.4958 37.9097 83.1044 41.1184 85.9205 46.9383 92.931 46.9383 92.931 52.4973 88.2678 65.9886 77.4006 91.1241 77.4006 133.213 77.4006 166.985 107.738 166.985 151.818L166.985 273.366C166.985 275.734 165.074 277.652 162.716 277.652L123.492 277.652C121.134 277.652 119.223 275.734 119.223 273.366L119.223 156.914 119.219 156.914Z" fill="#0082AC" fill-rule="nonzero" fill-opacity="1" transform="matrix(1.00172 0 0 1 676 200)"/></g></g></g></g></g></svg>