<?xml version="1.0" encoding="utf-8"?>
<!-- Generator: Adobe Illustrator 26.2.1, SVG Export Plug-In . SVG Version: 6.00 Build 0)  -->
<svg version="1.1" id="Layer_1" xmlns="http://www.w3.org/2000/svg" xmlns:xlink="http://www.w3.org/1999/xlink" x="0px" y="0px"
	 viewBox="0 0 130.4 60" style="enable-background:new 0 0 130.4 60;" xml:space="preserve">
<style type="text/css">
	.st0{fill:#F2F2F2;}
	.st1{fill:#666666;}
	.st2{fill:#FFFFFF;}
	.st3{fill:#CCCCCC;}
	.st4{fill:#333333;}
	.st5{opacity:0.2;}
	.st6{fill:#999999;}
	.st7{fill:none;stroke:#FFFFFF;}
</style>
<g>
	<path id="Path_694" d="M32.8,41.7h9.3v-9.3h-9.3V41.7z"/>
	<g id="Group_651" transform="translate(30.405 -22.762)">
		<path id="Path_695" class="st0" d="M11.7,45.9L11.7,45.9v9.3H2.4v-9.3H11.7z"/>
	</g>
	<g id="Group_652" transform="translate(30.405 -32.085)">
		<path id="Path_696" class="st1" d="M11.7,45.9L11.7,45.9v9.3H2.4v-9.3H11.7z"/>
	</g>
	<g id="Group_653" transform="translate(30.405 -41.408)">
		<path id="Path_697" d="M11.7,45.9L11.7,45.9v9.3H2.4v-9.3H11.7z"/>
	</g>
	<g id="Group_654" transform="translate(21.081 -13.44)">
		<path id="Path_698" class="st2" d="M11.7,45.9L11.7,45.9v9.3H2.4v-9.3H11.7z"/>
	</g>
	<g id="Group_655" transform="translate(21.081 -22.762)">
		<path id="Path_699" class="st3" d="M11.7,45.9L11.7,45.9v9.3H2.4v-9.3H11.7z"/>
	</g>
	<g id="Group_656" transform="translate(21.081 -32.085)">
		<path id="Path_700" class="st4" d="M11.7,45.9L11.7,45.9v9.3H2.4v-9.3H11.7z"/>
	</g>
	<g id="Group_657" transform="translate(21.081 -41.408)">
		<path id="Path_701" class="st3" d="M11.7,45.9L11.7,45.9v9.3H2.4v-9.3H11.7z"/>
	</g>
	<g id="Group_658" transform="translate(11.758 -13.44)">
		<path id="Path_702" class="st4" d="M11.7,45.9L11.7,45.9v9.3H2.4v-9.3H11.7z"/>
	</g>
	<g id="Group_659" transform="translate(11.758 -22.762)">
		<path id="Path_703" class="st1" d="M11.7,45.9L11.7,45.9v9.3H2.4v-9.3H11.7z"/>
	</g>
	<g id="Group_660" transform="translate(11.758 -32.085)">
		<path id="Path_704" class="st3" d="M11.7,45.9L11.7,45.9v9.3H2.4v-9.3H11.7z"/>
	</g>
	<g id="Group_661" transform="translate(11.758 -41.408)">
		<path id="Path_705" class="st2" d="M11.7,45.9L11.7,45.9v9.3H2.4v-9.3H11.7z"/>
	</g>
	<g id="Group_662" transform="translate(2.436 -13.44)">
		<path id="Path_706" class="st3" d="M11.7,45.9L11.7,45.9v9.3H2.4v-9.3H11.7z"/>
	</g>
	<path id="Path_707" d="M4.8,32.4h9.3v-9.3H4.8V32.4z"/>
	<g id="Group_663" transform="translate(2.436 -32.085)">
		<path id="Path_708" class="st2" d="M11.7,45.9L11.7,45.9v9.3H2.4v-9.3H11.7z"/>
	</g>
	<g>
		<g id="Group_668" transform="translate(0 -43.699)">
			<g id="Group_667" transform="translate(1.168 -9.123)" class="st5">
				<g id="Group_666">
					<g>
						<g id="Group_665">
							<g id="Group_664" transform="translate(1.269 11.413)">
								<path id="Path_709" class="st2" d="M11.7,45.9L11.7,45.9v9.3H2.4v-9.3H11.7z"/>
							</g>
						</g>
					</g>
				</g>
			</g>
		</g>
	</g>
	<path id="Path_711" class="st3" d="M62.7,36.9h-9.3v9.3h9.3L62.7,36.9z"/>
	<path id="Path_712" class="st0" d="M62.7,46.2h-9.3v9.3h9.3L62.7,46.2z"/>
	<g id="Group_669" transform="translate(41.673 -8.992)">
		<path id="Path_713" class="st2" d="M11.7,55.2L11.7,55.2v-9.3H2.4v9.3H11.7z"/>
	</g>
	<g id="Group_670" transform="translate(41.673 0.331)">
		<path id="Path_714" class="st6" d="M11.7,55.2L11.7,55.2v-9.3H2.4v9.3H11.7z"/>
	</g>
	<g>
		<g id="Group_672" transform="translate(0 -43.699)">
			<g id="Group_671" transform="translate(0.194 0.194)">
				<path id="Path_715" class="st7" d="M64.7,100.9l-20.8,0L2.4,86.8l0-40.9h39.8l22.4,10.4l-0.1,24.3L64.7,100.9z"/>
			</g>
		</g>
	</g>
	<g id="Group_673" transform="translate(50.995 -32.024)">
		<path id="Path_717" class="st3" d="M11.7,45.9L11.7,45.9v9.3H2.4v-9.3H11.7z"/>
	</g>
	<path id="Path_718" class="st2" d="M66.9,57.6h60.5V25.2H66.9V57.6z"/>
	<g id="Group_674" transform="translate(67.549 27.809)">
		<path id="Path_719" d="M2.4,8.7V8.2h1.7v0.4C4,9.5,4.7,10.3,5.6,10.4c0.1,0,0.1,0,0.2,0c0.8,0.1,1.5-0.5,1.6-1.3c0,0,0-0.1,0-0.1
			c0-0.8-0.6-1.4-1.4-1.4c0,0-0.1,0-0.1,0l-0.8,0C3.7,7.6,2.5,6.6,2.4,5.2c0-0.1,0-0.2,0-0.2c0-1.7,1.3-2.8,3.2-2.8
			C7.3,2,8.8,3.2,9,4.9C9,5,9,5.1,9,5.2v0.4H7.3V5.2c0.1-0.9-0.6-1.6-1.5-1.7c-0.1,0-0.1,0-0.2,0C4.9,3.4,4.2,4,4.1,4.8
			c0,0,0,0.1,0,0.1c0,0.7,0.5,1.2,1.4,1.2l0.7,0C7.7,6.1,9,7.2,9.1,8.7c0,0.1,0,0.1,0,0.2c0,1.7-1.3,2.8-3.3,2.8
			c-1.7,0.2-3.2-1-3.4-2.7C2.4,8.9,2.4,8.8,2.4,8.7"/>
	</g>
	<g id="Group_675" transform="translate(75.402 27.801)">
		<path id="Path_720" d="M2.4,8.8V5.1c0-1.8,1.4-3,3.4-3C7.5,2,8.9,3.2,9.1,4.9c0,0.2,0,0.3,0,0.5v2H4.6c-0.2,0-0.5,0.2-0.5,0.4
			c0,0,0,0.1,0,0.1v0.7C4,9.4,4.7,10.2,5.6,10.3c0.1,0,0.2,0,0.2,0c0.9,0,1.6-0.6,1.7-1.5c0-0.1,0-0.1,0-0.2V8.2h1.6v0.5
			c0,1.8-1.3,3-3.3,3C3.8,11.7,2.4,10.6,2.4,8.8 M4.6,6.1H7c0.2,0,0.5-0.1,0.5-0.4c0,0,0-0.1,0-0.1V5.3C7.5,4.4,6.9,3.7,6,3.6
			c-0.1,0-0.1,0-0.2,0c-0.9,0-1.7,0.6-1.7,1.5c0,0.1,0,0.1,0,0.2v0.3C4.1,5.8,4.2,6.1,4.6,6.1C4.5,6.1,4.6,6.1,4.6,6.1"/>
	</g>
	<g id="Group_676" transform="translate(83.409 27.81)">
		<path id="Path_721" d="M2.4,8.8V5.1c0-1.8,1.4-3,3.4-3C7.5,2,8.9,3.2,9.1,4.9c0,0.2,0,0.3,0,0.5v0.8H7.5V5.3
			C7.5,4.5,6.9,3.7,6,3.6c-0.1,0-0.1,0-0.2,0c-0.9,0-1.7,0.6-1.7,1.5c0,0.1,0,0.1,0,0.2v3.2C4,9.4,4.7,10.2,5.6,10.3
			c0.1,0,0.1,0,0.2,0c0.9,0,1.6-0.6,1.7-1.5c0-0.1,0-0.1,0-0.2V7.7h1.6v1c0,1.8-1.3,2.9-3.3,2.9C3.8,11.7,2.4,10.5,2.4,8.8"/>
	</g>
	<g id="Group_677" transform="translate(91.582 28.055)">
		<path id="Path_722" d="M5.2,11.5c-1.5,0.1-2.7-1.1-2.8-2.6c0-0.1,0-0.2,0-0.3V2.2h1.6v6.2C4,9.3,4.6,10,5.5,10.1
			c0.1,0,0.1,0,0.2,0c0.9,0,1.6-0.6,1.7-1.5c0-0.1,0-0.1,0-0.2V2.2H9v9.1H7.4v-0.9C6.9,11.1,6,11.5,5.2,11.5"/>
	</g>
	<g id="Group_678" transform="translate(99.958 27.892)">
		<path id="Path_723" d="M2.4,2.3h1.6v0.8c0.5-0.6,1.2-1,2-0.9c1.5,0,2.5,1.1,2.5,2.9v0.5H7V5.2c0-1-0.6-1.7-1.5-1.7
			S4.1,4.2,4.1,5.2v6.2H2.4V2.3z"/>
	</g>
	<g id="Group_679" transform="translate(106.949 24.769)">
		<path id="Path_724" d="M3.5,2.2c0.6,0,1.1,0.5,1.1,1c0,0.6-0.5,1.1-1.1,1.1c0,0,0,0,0,0c-0.6,0-1.1-0.5-1.1-1.1c0,0,0,0,0,0
			C2.4,2.6,2.9,2.1,3.5,2.2 M2.7,5.4h1.6v9.1H2.7V5.4z"/>
	</g>
	<g id="Group_680" transform="translate(109.926 25.872)">
		<path id="Path_725" d="M5.7,4.3h1.4v1.3H5.7c-0.2,0-0.4,0.1-0.4,0.3c0,0,0,0.1,0,0.1v7.5H3.7V6c0-0.2-0.1-0.3-0.3-0.4
			c0,0-0.1,0-0.1,0H2.4V4.3h0.9c0.2,0,0.4-0.1,0.4-0.3c0,0,0-0.1,0-0.1V2.2h1.6V4C5.3,4.1,5.4,4.3,5.7,4.3C5.7,4.3,5.7,4.3,5.7,4.3"
			/>
	</g>
	<g id="Group_681" transform="translate(115.103 28.055)">
		<path id="Path_726" d="M9.5,2.2L7.1,15H5.6l0.5-2.9c0.1-0.4-0.1-0.7-0.4-0.8c-0.1,0-0.2,0-0.3,0H4.2L2.4,2.2h1.8l1.3,7.5
			c0,0.2,0.1,0.3,0.3,0.3h0.4c0.1,0,0.2-0.1,0.3-0.3l1.3-7.5H9.5z"/>
	</g>
	<g id="Group_682" transform="translate(67.247 42.322)">
		<path id="Path_727" d="M9.5,2.2l-2.1,9.1H4.5L2.4,2.2h1.8l1.7,7.6C5.9,9.9,5.9,10,6,10c0.1,0,0.2-0.1,0.2-0.2l1.6-7.6H9.5z"/>
	</g>
	<g id="Group_683" transform="translate(75.282 39.036)">
		<path id="Path_728" d="M3.5,2.2c0.6,0,1.1,0.5,1.1,1c0,0.6-0.5,1.1-1.1,1.1c0,0,0,0,0,0c-0.6,0-1.1-0.5-1.1-1.1c0,0,0,0,0,0
			C2.4,2.6,2.9,2.1,3.5,2.2 M2.7,5.4h1.6v9.1H2.7V5.4z"/>
	</g>
	<g id="Group_684" transform="translate(78.636 42.075)">
		<path id="Path_729" d="M2.4,8.7V8.2h1.7v0.4C4,9.5,4.7,10.3,5.6,10.4c0.1,0,0.1,0,0.2,0c0.8,0.1,1.5-0.5,1.6-1.3c0,0,0-0.1,0-0.1
			c0-0.8-0.6-1.4-1.4-1.4c0,0-0.1,0-0.1,0l-0.8,0C3.7,7.6,2.5,6.6,2.4,5.2c0-0.1,0-0.2,0-0.2c0-1.7,1.3-2.8,3.2-2.8
			C7.3,2,8.8,3.2,9,4.9C9,5,9,5.1,9,5.2v0.4H7.3V5.2c0.1-0.9-0.6-1.6-1.5-1.7c-0.1,0-0.1,0-0.2,0C4.9,3.4,4.2,4,4.1,4.8
			c0,0,0,0.1,0,0.1c0,0.7,0.5,1.2,1.4,1.2l0.7,0C7.7,6.1,9,7.2,9.1,8.7c0,0.1,0,0.1,0,0.2c0,1.7-1.3,2.8-3.3,2.8
			c-1.7,0.2-3.2-1-3.4-2.7C2.4,8.9,2.4,8.8,2.4,8.7"/>
	</g>
	<g id="Group_685" transform="translate(86.461 39.036)">
		<path id="Path_730" d="M3.5,2.2c0.6,0,1.1,0.5,1.1,1c0,0.6-0.5,1.1-1.1,1.1c0,0,0,0,0,0c-0.6,0-1.1-0.5-1.1-1.1c0,0,0,0,0,0
			C2.4,2.6,2.9,2.1,3.5,2.2 M2.7,5.4h1.6v9.1H2.7V5.4z"/>
	</g>
	<g id="Group_686" transform="translate(89.906 42.076)">
		<path id="Path_731" d="M2.4,8.8V5.1c0-1.8,1.4-3,3.4-3c2,0,3.3,1.2,3.3,3v3.7c0,1.8-1.3,2.9-3.3,2.9C3.8,11.7,2.4,10.6,2.4,8.8
			 M5.8,10.3c0.9,0,1.6-0.6,1.7-1.5c0-0.1,0-0.1,0-0.2V5.3C7.5,4.5,6.9,3.7,6,3.6c-0.1,0-0.1,0-0.2,0c-0.9,0-1.7,0.6-1.7,1.5
			c0,0.1,0,0.1,0,0.2v3.2C4,9.4,4.7,10.2,5.6,10.3C5.7,10.3,5.7,10.3,5.8,10.3"/>
	</g>
	<g id="Group_687" transform="translate(98.189 42.139)">
		<path id="Path_732" d="M6.2,2.2C7.7,2.1,9,3.3,9,4.7C9,4.8,9,4.9,9,5v6.5H7.4V5.2c0.1-0.9-0.6-1.6-1.5-1.7c-0.1,0-0.1,0-0.2,0
			C4.8,3.5,4.1,4.2,4,5.1c0,0.1,0,0.1,0,0.2v6.2H2.4V2.3h1.6v0.9C4.6,2.5,5.4,2.1,6.2,2.2"/>
	</g>
</g>
</svg>
