<svg width="568" height="104" xmlns="http://www.w3.org/2000/svg" xmlns:xlink="http://www.w3.org/1999/xlink" xml:space="preserve" overflow="hidden"><defs><clipPath id="clip0"><path d="M709.157 324.106 712.283 318.039 705.523 318.039 709.085 324.106 709.157 324.106ZM714.609 333.567 723.841 318.111 713.373 318.111 710.466 326.561 714.609 333.567ZM720.279 343.317 735.036 318.111 724.932 318.111 716.208 336.456 720.279 343.317ZM725.877 352.994 746.448 318.111 735.981 318.111 722.605 347.289 725.877 352.994ZM731.619 362.744 757.498 318.111 747.393 318.111 728.857 358.05 731.619 362.744ZM737.289 372.422 769.201 318.111 758.733 318.111 735.108 368.739 737.289 372.422ZM742.959 382.172 780.614 318.111 770.146 318.111 741.578 379.789 742.959 382.172ZM748.629 391.922 792.317 318.111 781.85 318.111 747.83 390.55 748.629 391.922ZM803.367 318.111 793.771 318.111 753.936 400.95 754.445 401.889 803.367 318.111Z" fill-rule="nonzero" clip-rule="nonzero"/></clipPath></defs><g transform="translate(-696 -308)"><g><g><g><g><g clip-path="url(#clip0)"><path d="M9.46111 10.1111 106.672 10.1111 106.672 93.8889 9.46111 93.8889Z" fill="#038542" fill-rule="nonzero" fill-opacity="1" transform="matrix(1.00651 0 0 1 696 308)"/></g><path d="M128.989 51.9278 125.233 51.9278 119.022 28.3111 122.561 28.3111 125.956 44.2C126.461 46.6556 127.111 50.4111 127.111 50.4111 127.111 50.4111 127.761 46.5833 128.267 44.2L131.661 28.3111 135.2 28.3111 128.989 51.9278Z" fill="#038542" fill-rule="nonzero" fill-opacity="1" transform="matrix(1.00651 0 0 1 696 308)"/><path d="M139.894 51.9278 139.894 28.2389 151.378 28.2389 151.378 31.1278 142.928 31.1278 142.928 37.7 150.728 37.7 150.728 40.3722 142.928 40.3722 142.928 49.0389 151.378 49.0389 151.378 51.9278Z" fill="#038542" fill-rule="nonzero" fill-opacity="1" transform="matrix(1.00651 0 0 1 696 308)"/><path d="M161.561 30.9833 160.189 30.9833 160.189 39.65C165.678 39.5056 167.628 38.4222 167.628 34.9556 167.628 31.2 165.389 30.9833 161.561 30.9833M167.339 51.9278 165.606 46.5833C165.028 44.7056 164.233 42.9 163.15 41.8889 162.139 42.0333 161.2 42.0333 160.189 42.1056L160.189 51.9278 157.156 51.9278 157.156 28.2389 162.139 28.2389C166.761 28.2389 170.661 29.1056 170.661 34.8833 170.661 38.5667 168.711 40.3722 166.039 41.2389 167.05 42.1056 167.7 43.3333 168.422 45.0667L171.022 51.8556 167.339 51.8556Z" fill="#038542" fill-rule="nonzero" fill-opacity="1" transform="matrix(1.00651 0 0 1 696 308)"/><path d="M181.061 40.95 179.833 40.95 179.833 49.4722 181.35 49.4722C185.539 49.4722 187.633 48.9667 187.633 45.2111 187.561 41.6 185.106 40.95 181.061 40.95M180.989 30.6944 179.833 30.6944 179.833 38.5667 181.061 38.5667C185.25 38.5667 186.911 37.9167 186.911 34.5222 186.911 31.2 185.033 30.6944 180.989 30.6944M180.7 51.9278 176.728 51.9278 176.728 28.2389 180.989 28.2389C186.767 28.2389 189.872 29.1778 189.872 34.3778 189.872 37.4111 187.85 39.0722 185.828 39.5778 188.356 39.9389 190.522 41.3111 190.522 45.1389 190.594 51.4222 186.911 51.9278 180.7 51.9278" fill="#038542" fill-rule="nonzero" fill-opacity="1" transform="matrix(1.00651 0 0 1 696 308)"/><path d="M203.594 30.3333C201.211 30.3333 199.044 31.9944 199.044 40.0833 199.044 48.3889 201.572 49.8333 203.594 49.8333 205.689 49.8333 208.144 48.2444 208.144 40.0833 208.144 32.2111 205.978 30.3333 203.594 30.3333M203.594 52.2167C200.633 52.2167 196.011 51.4944 196.011 40.0833 196.011 28.6722 200.85 27.95 203.594 27.95 206.339 27.95 211.178 28.7444 211.178 40.0833 211.178 51.6389 206.556 52.2167 203.594 52.2167" fill="#038542" fill-rule="nonzero" fill-opacity="1" transform="matrix(1.00651 0 0 1 696 308)"/><path d="M229.161 51.9278 222.878 39.0722C221.361 35.8944 220.206 32.7167 220.206 32.7167 220.206 32.7167 220.711 37.2667 220.711 39.7944L220.711 51.9278 217.678 51.9278 217.678 28.2389 220.711 28.2389 226.633 40.5889C228.511 44.4889 229.306 47.2333 229.306 47.2333 229.306 47.2333 228.8 42.4667 228.8 39.8667L228.8 28.2389 231.833 28.2389 231.833 51.8556 229.161 51.8556Z" fill="#038542" fill-rule="nonzero" fill-opacity="1" transform="matrix(1.00651 0 0 1 696 308)"/><path d="M244.039 30.9111 242.667 30.9111 242.667 49.2556 243.75 49.2556C248.083 49.2556 250.756 48.2444 250.756 40.0833 250.756 31.7056 248.083 30.9111 244.039 30.9111M243.172 51.9278 239.561 51.9278 239.561 28.2389 243.533 28.2389C249.528 28.2389 253.789 29.5389 253.789 40.0833 253.789 50.4833 249.311 51.9278 243.172 51.9278" fill="#038542" fill-rule="nonzero" fill-opacity="1" transform="matrix(1.00651 0 0 1 696 308)"/><path d="M278.272 51.9278 274.517 51.9278 268.306 28.3111 271.844 28.3111 275.239 44.2C275.744 46.6556 276.394 50.4111 276.394 50.4111 276.394 50.4111 277.044 46.5833 277.55 44.2L280.944 28.3111 284.483 28.3111 278.272 51.9278Z" fill="#038542" fill-rule="nonzero" fill-opacity="1" transform="matrix(1.00651 0 0 1 696 308)"/><path d="M296.183 35.3889C295.606 33.15 294.956 30.1889 294.956 30.1889 294.956 30.1889 294.306 33.15 293.728 35.3889L291.633 43.9833 298.278 43.9833 296.183 35.3889ZM300.156 51.9278 298.928 46.6556 291.128 46.6556 289.9 51.9278 286.578 51.9278 293.078 28.3111 296.906 28.3111 303.406 51.9278 300.156 51.9278Z" fill="#038542" fill-rule="nonzero" fill-opacity="1" transform="matrix(1.00651 0 0 1 696 308)"/><path d="M320.017 51.9278 313.733 39.0722C312.217 35.8944 311.061 32.7167 311.061 32.7167 311.061 32.7167 311.567 37.2667 311.567 39.7944L311.567 51.9278 308.533 51.9278 308.533 28.2389 311.567 28.2389 317.489 40.5889C319.367 44.4889 320.161 47.2333 320.161 47.2333 320.161 47.2333 319.656 42.4667 319.656 39.8667L319.656 28.2389 322.689 28.2389 322.689 51.8556 320.017 51.8556Z" fill="#038542" fill-rule="nonzero" fill-opacity="1" transform="matrix(1.00651 0 0 1 696 308)"/><path d="M348.256 51.9278 344.5 51.9278 338.289 28.3111 341.828 28.3111 345.222 44.2C345.728 46.6556 346.378 50.4111 346.378 50.4111 346.378 50.4111 347.028 46.5833 347.533 44.2L350.928 28.3111 354.467 28.3111 348.256 51.9278Z" fill="#038542" fill-rule="nonzero" fill-opacity="1" transform="matrix(1.00651 0 0 1 696 308)"/><path d="M359.233 51.9278 359.233 28.2389 370.717 28.2389 370.717 31.1278 362.267 31.1278 362.267 37.7 369.994 37.7 369.994 40.3722 362.267 40.3722 362.267 49.0389 370.717 49.0389 370.717 51.9278Z" fill="#038542" fill-rule="nonzero" fill-opacity="1" transform="matrix(1.00651 0 0 1 696 308)"/><path d="M380.828 30.9833 379.456 30.9833 379.456 39.65C384.944 39.5056 386.894 38.4222 386.894 34.9556 386.894 31.2 384.728 30.9833 380.828 30.9833M386.606 51.9278 384.872 46.5833C384.294 44.7056 383.5 42.9 382.417 41.8889 381.406 42.0333 380.467 42.0333 379.456 42.1056L379.456 51.9278 376.422 51.9278 376.422 28.2389 381.406 28.2389C386.028 28.2389 389.928 29.1056 389.928 34.8833 389.928 38.5667 387.978 40.3722 385.306 41.2389 386.317 42.1056 386.967 43.3333 387.689 45.0667L390.289 51.8556 386.606 51.8556Z" fill="#038542" fill-rule="nonzero" fill-opacity="1" transform="matrix(1.00651 0 0 1 696 308)"/><path d="M394.333 51.9278 394.333 49.5444 402.856 31.1278 394.333 31.1278 394.333 28.2389 406.178 28.2389 406.178 30.6944 397.656 49.0389 406.178 49.0389 406.178 51.9278Z" fill="#038542" fill-rule="nonzero" fill-opacity="1" transform="matrix(1.00651 0 0 1 696 308)"/><path d="M412.1 51.9278 412.1 28.2389 423.583 28.2389 423.583 31.1278 415.133 31.1278 415.133 37.7 422.861 37.7 422.861 40.3722 415.133 40.3722 415.133 49.0389 423.583 49.0389 423.583 51.9278Z" fill="#038542" fill-rule="nonzero" fill-opacity="1" transform="matrix(1.00651 0 0 1 696 308)"/><path d="M440.267 52.2167 433.333 39.0722 439.761 28.2389 443.444 28.2389 436.439 38.9278 443.733 51.9278 440.267 52.2167ZM429.289 28.2389 432.322 28.2389 432.322 51.8556 429.289 51.8556 429.289 28.2389Z" fill="#038542" fill-rule="nonzero" fill-opacity="1" transform="matrix(1.00651 0 0 1 696 308)"/><path d="M448.717 51.9278 448.717 28.2389 460.2 28.2389 460.2 31.1278 451.75 31.1278 451.75 37.7 459.55 37.7 459.55 40.3722 451.75 40.3722 451.75 49.0389 460.2 49.0389 460.2 51.9278Z" fill="#038542" fill-rule="nonzero" fill-opacity="1" transform="matrix(1.00651 0 0 1 696 308)"/><path d="M470.383 30.9833 469.011 30.9833 469.011 39.65C474.5 39.5056 476.45 38.4222 476.45 34.9556 476.45 31.2 474.283 30.9833 470.383 30.9833M476.161 51.9278 474.428 46.5833C473.85 44.7056 473.056 42.9 471.972 41.8889 470.961 42.0333 470.022 42.0333 469.011 42.1056L469.011 51.9278 465.978 51.9278 465.978 28.2389 470.961 28.2389C475.583 28.2389 479.483 29.1056 479.483 34.8833 479.483 38.5667 477.533 40.3722 474.861 41.2389 475.872 42.1056 476.522 43.3333 477.244 45.0667L479.844 51.8556 476.161 51.8556Z" fill="#038542" fill-rule="nonzero" fill-opacity="1" transform="matrix(1.00651 0 0 1 696 308)"/><path d="M492.556 35.3889C491.978 33.15 491.328 30.1889 491.328 30.1889 491.328 30.1889 490.678 33.15 490.1 35.3889L488.006 43.9833 494.65 43.9833 492.556 35.3889ZM496.456 51.9278 495.228 46.6556 487.428 46.6556 486.2 51.9278 482.878 51.9278 489.378 28.3111 493.206 28.3111 499.706 51.9278 496.456 51.9278Z" fill="#038542" fill-rule="nonzero" fill-opacity="1" transform="matrix(1.00651 0 0 1 696 308)"/><path d="M511.767 35.3889C511.261 33.15 510.539 30.1889 510.539 30.1889 510.539 30.1889 509.889 33.15 509.311 35.3889L507.217 43.9833 513.861 43.9833 511.767 35.3889ZM515.739 51.9278 514.511 46.6556 506.711 46.6556 505.483 51.9278 502.161 51.9278 508.661 28.3111 512.489 28.3111 518.989 51.9278 515.739 51.9278Z" fill="#038542" fill-rule="nonzero" fill-opacity="1" transform="matrix(1.00651 0 0 1 696 308)"/><path d="M546.722 51.8556C544.483 51.8556 542.244 51.1333 542.244 51.1333L542.244 48.3889C542.244 48.3889 544.844 49.1833 546.65 49.1833 548.889 49.1833 550.839 48.4611 550.839 45.4278 550.839 43.3333 549.683 42.3222 548.094 41.2389L545.639 39.5778C543.689 38.2778 542.028 36.4722 542.028 33.7278 542.028 28.9611 545.783 27.5167 548.889 27.5167 551.272 27.5167 552.933 28.3111 552.933 28.3111L552.933 30.9833C552.933 30.9833 550.839 30.1167 548.889 30.1167 546.578 30.1167 544.989 30.9833 544.989 33.4389 544.989 35.1722 546.217 36.1833 547.661 37.1944L549.539 38.4944C551.633 40.0111 553.8 41.6722 553.8 45.1389 553.872 50.8444 550.406 51.8556 546.722 51.8556" fill="#038542" fill-rule="nonzero" fill-opacity="1" transform="matrix(1.00651 0 0 1 696 308)"/><path d="M528.522 30.6222 527.15 30.6222 527.15 39.2889C532.639 39.1444 534.589 38.0611 534.589 34.5944 534.589 30.7667 532.422 30.6222 528.522 30.6222M534.3 51.4944 532.567 46.15C531.989 44.2722 531.194 42.4667 530.111 41.4556 529.1 41.6 528.161 41.6 527.15 41.6722L527.15 51.4944 524.117 51.4944 524.117 27.8778 529.1 27.8778C533.722 27.8778 537.622 28.7444 537.622 34.5222 537.622 38.2056 535.672 40.0111 533 40.8778 534.011 41.7444 534.661 42.9722 535.383 44.7056L537.983 51.4944 534.3 51.4944Z" fill="#038542" fill-rule="nonzero" fill-opacity="1" transform="matrix(1.00651 0 0 1 696 308)"/></g></g></g></g></g></svg>