<?xml version="1.0" encoding="UTF-8"?>
<svg id="Layer_2" data-name="Layer 2" xmlns="http://www.w3.org/2000/svg" viewBox="0 0 957.43 215.87">
  <defs>
    <style>
      .cls-1 {
        fill: #151f6d;
      }

      .cls-2 {
        fill: #4f46ba;
      }
    </style>
  </defs>
  <g id="_1500_x_1500_px_Logo_1" data-name="1500 x 1500 px Logo 1">
    <g id="Background">
      <g>
        <g id="Layer_1-2" data-name="Layer 1-2">
          <path d="M659.52,177.06s-6.4,3.27-12.98,4.68l-20.89-130.43c-.34-2.36-1.2-4.64-2.54-6.58l-6.4-9.54-2.88,12.16c-.52,2.19-.6,4.56-.17,6.79l22.95,127.98c-10.96-.99-20.54-5.11-20.54-5.11-3.57,10.44,2.71,16.63,2.71,16.63,14.74-5.33,27.42-6.02,42.03-5.29,0,0,2.49-6.19-1.29-11.3Z"/>
          <path d="M957,154.07c-.77-.21-1.59-.43-2.41-.64-7.01-24.24-21.19-61.41-25.96-73.96,1.16,0,2.02-.86,2.02-1.98v-1.38c0-1.16-.95-2.06-2.06-2.06h-7.65c-11.82,0-13.19-9.71-25.44-9.71-4.13,0-6.88,1.25-7.39,1.46-.47-4.08-3.14-7.43-6.4-9.2,5.11-1.93,8.94-6.75,9.33-12.59.39-5.76-2.66-10.92-7.35-13.58,0-.34.09-.73.09-1.03,1.59.64,2.97,1.59,4.21,2.71,2.06-3.44,4.56-8.21,2.02-8.94-2.36-.69-1.89,1.68-6.23,5.11-.21-3.48-.9-7.13-4.21-8.68h0c-6.23,3.87-6.66-1.63-10.57-1.63-4.21,0-9.8,4.86-9.8,12.25,0,7.91,2.23,8.29-.47,19.38-1.29,5.2-3.09,10.23-5.2,15-9.07,1.68-11.3,9.41-21.87,9.41h-7.65c-1.16,0-2.06.9-2.06,2.06v1.38c0,1.16.95,2.06,2.06,2.06h.39c-.69,2.02-6.96,20.76-12.85,39.58-27.68,6.7-39.54,3.18-67.39,14.05-5.03,1.98-6.7-.86-6.7-3.87,0-3.44.17-5.89.9-7.48,1.46-3.22,11.47-5.93,11.78-21.02-5.5,12.68-12.16,13.88-15.51,12.94-1.16-.34-1.72-3.01-1.72-4.34,0-3.74,2.06-2.92,4.86-4.56,5.16-3.05,3.82-7.26,2.97-7.05-2.97.73-8.42,1.59-4.77-3.65,1.5-2.15,1.2-4.25,1.2-4.25-10.66,1.85-8.6-2.71-8.81-7.35-.09-1.72-.21-3.14-.34-4.38.13-.13.3-.21.43-.34.69-.6,4.94-3.91,6.15.26,1.16,3.87,2.15,6.06,5.46,6.27,3.57.26,11.39-1.38,11.78,4.47,0,0,4.99-8.25-3.01-10.92,0,0,2.71-1.63,3.4-3.57,0,0-9.11-12.46-29.57-7.78-.09-1.25,1.5-3.78,8.85-3.44,0,0-5.29-2.97-15.6.09,3.78-17.06,22.56-11.39,27.38-8.51-1.42-4.68-7.74-10.27-15.51-6.83-11.6-5.37-33.13,4.47-35.97,29.48-.09.09-.17.13-.3.21,0,0-1.03,8.85-2.06,16.03-22.65,15.34-13.32,32.79-1.16,31.76.73,8.98,12.76,11.43,20.2,6.23,0,0-.26,5.97-.99,10.66-1.72,11.26-22.65,7.91-40.05,24.32,27.2-12.89,43.88-9.54,62.83-17.92,12.16-5.37,22.05-14.53,38.21-17.92-18.22,8.38-25.79,22.43-16.12,34.77,14.14,18.05,9.07,27.98,7.74,32.45,28.66-9.67.13-33.82,33.91-47.1,3.31-1.29,6.36-2.54,9.28-3.74-.52,1.98-.99,3.78-1.38,5.37-2.49.52-4.86,1.12-7.09,1.76-.52.13-.69.77-.34,1.2,7.26,8.72,19.9,14.48,34.25,14.48s26.99-5.76,34.25-14.48c.34-.43.17-1.03-.34-1.2-.77-.21-1.59-.43-2.41-.64-4.77-16.5-12.81-38.85-18.95-55.44l.47-.21,8.72,20.46c6.1-11.95,11.78-28.71,15.99-42.93,3.22,1.85,6.15,3.82,9.8,3.82,6.96,0,11.17-7.13,19.98-7.13,7.26,0,12.63,7.86,22.43,7.48-1.16,3.4-17.96,53.63-22.43,72.84-2.49.52-4.86,1.12-7.09,1.76-.52.13-.69.77-.34,1.2,7.26,8.72,19.9,14.48,34.25,14.48s26.99-5.76,34.25-14.48c.34-.43.17-1.03-.34-1.2l.09-.13ZM718.57,94.72c-3.91,0-7.22-7.26-9.07-11.56,2.84-.9,5.8-1.63,8.85-2.02,2.23-.3,4-.69,5.41-1.12.17,5.16-.21,14.7-5.24,14.7h.04ZM723.34,142.72c6.27-8.94-1.16-15.77,8.77-19.25.82,17.15-4.21,16.29-8.77,19.25ZM831.17,81.05c.21.77,1.98,5.72,4.56,12.85-2.88,3.65-5.2,6.36-6.66,7.95.73-6.75,1.46-13.75,2.06-20.76l.04-.04ZM827.51,80.93c-.69,5.29-1.76,15.34-2.84,26.39-1.98,2.84-3.82,5.97-5.2,9.63-1.42.39-2.75.73-4.08,1.12,4.73-13.84,9.54-28.45,12.12-37.13ZM821.62,149.86c-6.62.3-12.85,1.07-18.57,2.19,1.5-3.35,5.54-14.48,10.06-27.42l.52.17-5.89,20.24c5.54-2.32,10.27-4.43,14.4-6.32-.26,4.38-.47,8.21-.52,11.17v-.04ZM847.11,123.99c4.21,10.83,8.55,21.53,12.03,29.09-8.77-2.15-19.17-3.4-30.43-3.4-2.06,0-4.13.04-6.1.13.99-4.34,4.25-28.75,5.24-37.09h.56l-1.85,23.89c14.01-6.79,18.87-10.74,20.59-12.63h-.04ZM838.43,90.29c-1.68-4.38-3.05-8.12-4.04-10.74,5.89,0,10.14-2.97,14.27-5.16-3.35,6.06-6.96,11.47-10.23,15.9ZM865.67,42.29c.21-3.4,2.02-6.23,4.56-8.08.26.39.52.82.69,1.2-1.5,1.72-2.45,3.91-2.54,6.36-.13,3.7,1.81,7.01,4.77,8.85.52-2.11.77-3.4.82-3.52,3.7-1.38,7.26-4.68,11.26-10.61,1.55,2.02,2.41,4.56,2.19,7.26-.39,6.02-5.59,10.53-11.56,10.14-6.02-.39-10.53-5.59-10.14-11.56l-.04-.04ZM876.25,71.34c-2.28,0-4.17-1.85-4.17-4.17s1.85-4.17,4.17-4.17,4.17,1.85,4.17,4.17-1.85,4.17-4.17,4.17ZM897.43,152.05c3.31-7.35,19.04-52.69,24.41-71.12-1.72,12.81-5.59,53.55-5.89,68.93-6.62.3-12.85,1.07-18.57,2.19h.04ZM923.09,149.69c-2.06,0-4.13.04-6.1.13,1.76-9.15,5.89-38.94,8.55-68.8.73,2.58,18.01,50.24,27.98,72.07-8.77-2.15-19.17-3.4-30.43-3.4Z"/>
        </g>
        <g>
          <path class="cls-2" d="M25.26,84L0,25.74h15.85l16.2,40.75,16.8-40.75h14.89l-25.62,58.27h-12.87Z"/>
          <path class="cls-2" d="M96.27,85.19c-6.04,0-11.28-1.23-15.73-3.69-4.45-2.46-7.9-5.98-10.37-10.54-2.46-4.57-3.69-9.95-3.69-16.15s1.23-11.56,3.69-16.09c2.46-4.53,5.92-8.02,10.37-10.49,4.45-2.46,9.69-3.69,15.73-3.69s11.28,1.23,15.73,3.69c4.45,2.46,7.9,5.96,10.37,10.49,2.46,4.53,3.69,9.89,3.69,16.09s-1.23,11.58-3.69,16.15c-2.46,4.57-5.92,8.08-10.37,10.54-4.45,2.46-9.69,3.69-15.73,3.69ZM96.27,73.87c4.45,0,8.02-1.61,10.72-4.83,2.7-3.22,4.05-7.96,4.05-14.24s-1.35-11.1-4.05-14.24c-2.7-3.14-6.28-4.71-10.72-4.71s-8.02,1.57-10.72,4.71c-2.7,3.14-4.05,7.88-4.05,14.24s1.35,11.02,4.05,14.24c2.7,3.22,6.27,4.83,10.72,4.83Z"/>
          <path class="cls-2" d="M164.9,85.19c-6.04,0-11.28-1.23-15.73-3.69-4.45-2.46-7.9-5.98-10.37-10.54-2.46-4.57-3.69-9.95-3.69-16.15s1.23-11.56,3.69-16.09c2.46-4.53,5.92-8.02,10.37-10.49,4.45-2.46,9.69-3.69,15.73-3.69s11.28,1.23,15.73,3.69c4.45,2.46,7.9,5.96,10.37,10.49,2.46,4.53,3.69,9.89,3.69,16.09s-1.23,11.58-3.69,16.15c-2.46,4.57-5.92,8.08-10.37,10.54-4.45,2.46-9.69,3.69-15.73,3.69ZM164.9,73.87c4.45,0,8.02-1.61,10.72-4.83,2.7-3.22,4.05-7.96,4.05-14.24s-1.35-11.1-4.05-14.24c-2.7-3.14-6.28-4.71-10.72-4.71s-8.02,1.57-10.72,4.71c-2.7,3.14-4.05,7.88-4.05,14.24s1.35,11.02,4.05,14.24c2.7,3.22,6.27,4.83,10.72,4.83Z"/>
          <path class="cls-2" d="M206.96,84V25.74h14.54v10.25c2.86-6.91,8.98-10.72,18.35-11.44l4.53-.36.95,12.63-8.58.83c-9.77.95-14.66,5.96-14.66,15.01v31.34h-15.13Z"/>
          <path class="cls-2" d="M255.1,84V0h36.46c9.21,0,16.32,2.2,21.33,6.61,5,4.41,7.51,10.59,7.51,18.53,0,6.28-1.63,11.46-4.89,15.55-3.26,4.09-7.94,6.85-14.06,8.28,4.05,1.27,7.39,4.33,10.01,9.17l14.06,25.86h-16.8l-14.54-26.81c-1.43-2.62-3.12-4.41-5.06-5.36-1.95-.95-4.43-1.43-7.45-1.43h-11.32v33.6h-15.25ZM270.35,39.08h18.59c11.12,0,16.68-4.53,16.68-13.58s-5.56-13.46-16.68-13.46h-18.59v27.05Z"/>
          <path class="cls-2" d="M362.58,85.19c-6.59,0-12.27-1.23-17.04-3.69-4.77-2.46-8.44-5.96-11.02-10.49-2.58-4.53-3.87-9.89-3.87-16.09s1.25-11.32,3.75-15.85c2.5-4.53,5.96-8.08,10.37-10.66,4.41-2.58,9.43-3.87,15.07-3.87,8.26,0,14.79,2.62,19.6,7.86,4.81,5.24,7.21,12.39,7.21,21.45v4.41h-41.7c1.11,10.41,7.07,15.61,17.87,15.61,3.26,0,6.51-.5,9.77-1.49,3.26-.99,6.23-2.56,8.94-4.71l4.17,10.01c-2.78,2.3-6.28,4.13-10.49,5.48-4.21,1.35-8.42,2.03-12.63,2.03ZM360.43,34.67c-4.37,0-7.9,1.35-10.6,4.05s-4.33,6.36-4.89,10.96h29.31c-.32-4.84-1.65-8.56-3.99-11.14-2.34-2.58-5.62-3.87-9.83-3.87Z"/>
          <path class="cls-2" d="M425.37,85.19c-6.12,0-11.44-1.25-15.97-3.75-4.53-2.5-8.02-6.06-10.49-10.66-2.46-4.61-3.69-10.01-3.69-16.2s1.23-11.54,3.69-16.03c2.46-4.49,5.96-7.94,10.49-10.37,4.53-2.42,9.85-3.63,15.97-3.63,3.73,0,7.43.6,11.08,1.79,3.65,1.19,6.67,2.86,9.06,5l-4.41,10.37c-2.07-1.83-4.39-3.22-6.97-4.17-2.58-.95-5.06-1.43-7.45-1.43-5.16,0-9.16,1.61-11.97,4.83-2.82,3.22-4.23,7.8-4.23,13.76s1.41,10.51,4.23,13.88c2.82,3.38,6.81,5.06,11.97,5.06,2.3,0,4.77-.48,7.39-1.43,2.62-.95,4.96-2.38,7.03-4.29l4.41,10.49c-2.38,2.07-5.42,3.71-9.12,4.94-3.69,1.23-7.37,1.85-11.02,1.85Z"/>
          <path class="cls-2" d="M454.68,84V0h14.89v34.2c1.98-3.18,4.65-5.58,7.98-7.21,3.34-1.63,7.03-2.44,11.08-2.44,13.74,0,20.61,7.98,20.61,23.95v35.51h-14.89v-34.79c0-4.53-.85-7.82-2.56-9.89-1.71-2.06-4.35-3.1-7.92-3.1-4.37,0-7.85,1.37-10.43,4.11-2.58,2.74-3.87,6.37-3.87,10.9v32.77h-14.89Z"/>
          <path class="cls-2" d="M551.07,85.19c-15.41,0-23.11-7.63-23.11-22.88v-25.38h-11.2v-11.2h11.2V8.34h14.89v17.4h17.63v11.2h-17.63v24.55c0,3.81.83,6.67,2.5,8.58,1.67,1.91,4.37,2.86,8.1,2.86,1.11,0,2.26-.14,3.46-.42,1.19-.28,2.42-.58,3.69-.89l2.26,10.96c-1.43.8-3.24,1.43-5.42,1.91-2.19.48-4.31.72-6.37.72Z"/>
        </g>
        <g>
          <path class="cls-1" d="M6.53,197.9v-70.37h29.14c7.59,0,13.44,1.81,17.57,5.44,4.13,3.63,6.19,8.7,6.19,15.22,0,5.26-1.4,9.57-4.19,12.93-2.79,3.36-6.75,5.61-11.88,6.74,3.19,1.07,5.89,3.63,8.08,7.69l12.18,22.36h-11.38l-12.18-22.46c-1.4-2.6-3.01-4.34-4.84-5.24-1.83-.9-4.18-1.35-7.04-1.35h-11.28v29.04H6.53ZM16.91,161.07h17.07c10.25,0,15.37-4.22,15.37-12.68s-5.12-12.58-15.37-12.58h-17.07v25.25Z"/>
          <path class="cls-1" d="M94.66,198.8c-7.98,0-14.27-2.25-18.86-6.74s-6.89-10.63-6.89-18.42c0-4.99,1.01-9.4,3.04-13.23,2.03-3.83,4.84-6.8,8.43-8.93,3.59-2.13,7.72-3.19,12.38-3.19,6.72,0,12.01,2.15,15.87,6.44,3.86,4.29,5.79,10.2,5.79,17.72v3.39h-35.73c.73,10.12,6.09,15.17,16.07,15.17,2.79,0,5.54-.43,8.23-1.3,2.69-.86,5.24-2.3,7.64-4.29l2.99,6.99c-2.2,2-5.02,3.56-8.48,4.69-3.46,1.13-6.95,1.7-10.48,1.7ZM93.17,155.39c-4.19,0-7.52,1.3-9.98,3.89-2.46,2.6-3.96,6.06-4.49,10.38h27.25c-.2-4.52-1.4-8.03-3.59-10.53-2.2-2.5-5.26-3.74-9.18-3.74Z"/>
          <path class="cls-1" d="M146.86,198.8c-4.99,0-9.3-1.05-12.93-3.14-3.63-2.1-6.44-5.06-8.43-8.88-2-3.83-2.99-8.33-2.99-13.52,0-7.72,2.2-13.81,6.59-18.27,4.39-4.46,10.31-6.69,17.77-6.69,3.06,0,6.09.53,9.08,1.6,2.99,1.07,5.46,2.53,7.39,4.39l-3.19,7.09c-1.86-1.73-3.91-3.01-6.14-3.84-2.23-.83-4.34-1.25-6.34-1.25-4.73,0-8.37,1.48-10.93,4.44-2.56,2.96-3.84,7.17-3.84,12.63s1.28,9.73,3.84,12.83c2.56,3.09,6.2,4.64,10.93,4.64,2,0,4.11-.41,6.34-1.25,2.23-.83,4.27-2.11,6.14-3.84l3.19,7.19c-1.93,1.8-4.41,3.23-7.44,4.29-3.03,1.06-6.04,1.6-9.03,1.6Z"/>
          <path class="cls-1" d="M172.02,197.9v-70.37h10.08v29.24c1.66-2.79,3.91-4.91,6.74-6.34,2.83-1.43,6-2.15,9.53-2.15,11.51,0,17.27,6.52,17.27,19.56v30.04h-10.08v-29.44c0-4.19-.82-7.25-2.45-9.18-1.63-1.93-4.18-2.89-7.64-2.89-4.06,0-7.3,1.28-9.73,3.84-2.43,2.56-3.64,5.94-3.64,10.13v27.55h-10.08Z"/>
          <path class="cls-1" d="M250.27,198.8c-6.12,0-10.68-1.56-13.67-4.69-2.99-3.13-4.49-7.65-4.49-13.57v-23.56h-9.48v-7.79h9.48v-14.67h10.08v14.67h15.07v7.79h-15.07v22.76c0,3.53.75,6.19,2.25,7.98,1.5,1.8,3.94,2.69,7.34,2.69,1.06,0,2.1-.12,3.09-.35,1-.23,2-.51,2.99-.85l1.6,7.59c-1,.6-2.38,1.08-4.14,1.45-1.76.36-3.44.55-5.04.55Z"/>
          <path class="cls-1" d="M283,198.8c-3.99,0-7.72-.52-11.18-1.55-3.46-1.03-6.36-2.48-8.68-4.34l2.89-6.79c2.46,1.73,5.17,3.06,8.13,3.99,2.96.93,5.94,1.4,8.93,1.4,3.53,0,6.19-.63,7.98-1.9,1.8-1.26,2.69-2.96,2.69-5.09,0-1.73-.6-3.08-1.8-4.04-1.2-.96-2.99-1.71-5.39-2.25l-9.48-1.9c-8.38-1.73-12.58-6.05-12.58-12.98,0-4.59,1.83-8.25,5.49-10.98,3.66-2.73,8.45-4.09,14.37-4.09,3.39,0,6.64.5,9.73,1.5,3.09,1,5.67,2.5,7.74,4.49l-2.89,6.79c-2-1.73-4.29-3.06-6.89-3.99-2.6-.93-5.16-1.4-7.69-1.4-3.46,0-6.09.65-7.88,1.95-1.8,1.3-2.69,3.04-2.69,5.24,0,3.33,2.2,5.46,6.59,6.39l9.48,1.9c4.32.87,7.6,2.33,9.83,4.39,2.23,2.06,3.34,4.86,3.34,8.38,0,4.66-1.83,8.3-5.49,10.93-3.66,2.63-8.52,3.94-14.57,3.94Z"/>
          <path class="cls-1" d="M314.24,215.87v-66.67h9.88v8.28c1.4-2.79,3.53-5.02,6.39-6.69,2.86-1.66,6.15-2.5,9.88-2.5,4.32,0,8.1,1.03,11.33,3.09,3.23,2.06,5.72,4.97,7.49,8.73,1.76,3.76,2.65,8.23,2.65,13.42s-.88,9.68-2.65,13.47c-1.76,3.79-4.26,6.7-7.49,8.73-3.23,2.03-7,3.04-11.33,3.04-3.59,0-6.8-.78-9.63-2.35-2.83-1.56-4.98-3.71-6.44-6.44v25.85h-10.08ZM337.9,191.02c4.19,0,7.54-1.5,10.03-4.49,2.5-2.99,3.74-7.32,3.74-12.98s-1.25-9.96-3.74-12.93c-2.5-2.96-5.84-4.44-10.03-4.44s-7.54,1.48-10.03,4.44c-2.5,2.96-3.74,7.27-3.74,12.93s1.25,9.98,3.74,12.98c2.5,2.99,5.84,4.49,10.03,4.49Z"/>
          <path class="cls-1" d="M373.23,197.9v-48.71h9.78v8.68c2.53-5.79,7.79-9.02,15.77-9.68l3.29-.2.7,8.58-6.09.6c-8.85.87-13.27,5.42-13.27,13.67v27.05h-10.18Z"/>
          <path class="cls-1" d="M425.53,198.8c-3.39,0-6.42-.67-9.08-2-2.66-1.33-4.78-3.13-6.34-5.39-1.56-2.26-2.35-4.82-2.35-7.69,0-3.59.91-6.42,2.75-8.48,1.83-2.06,4.86-3.56,9.08-4.49,4.23-.93,9.93-1.4,17.12-1.4h3.39v-2.6c0-3.79-.8-6.52-2.39-8.18-1.6-1.66-4.23-2.5-7.89-2.5-2.79,0-5.59.42-8.38,1.25-2.79.83-5.66,2.15-8.58,3.94l-3.09-7.09c2.53-1.8,5.69-3.23,9.48-4.29,3.79-1.06,7.42-1.6,10.88-1.6,6.65,0,11.58,1.58,14.77,4.74,3.19,3.16,4.79,8.1,4.79,14.82v30.04h-9.48v-8.08c-1.2,2.79-3.06,4.99-5.59,6.59-2.53,1.6-5.56,2.4-9.08,2.4ZM427.53,191.62c3.59,0,6.59-1.26,8.98-3.79,2.39-2.53,3.59-5.72,3.59-9.58v-2.69h-3.29c-4.86,0-8.67.23-11.43.7-2.76.47-4.73,1.25-5.89,2.35-1.16,1.1-1.75,2.61-1.75,4.54,0,2.53.86,4.58,2.6,6.14,1.73,1.56,4.12,2.35,7.19,2.35Z"/>
          <path class="cls-1" d="M479.13,198.8c-3.39,0-6.42-.67-9.08-2-2.66-1.33-4.78-3.13-6.34-5.39-1.56-2.26-2.35-4.82-2.35-7.69,0-3.59.91-6.42,2.75-8.48,1.83-2.06,4.86-3.56,9.08-4.49,4.23-.93,9.93-1.4,17.12-1.4h3.39v-2.6c0-3.79-.8-6.52-2.39-8.18-1.6-1.66-4.23-2.5-7.89-2.5-2.79,0-5.59.42-8.38,1.25-2.79.83-5.66,2.15-8.58,3.94l-3.09-7.09c2.53-1.8,5.69-3.23,9.48-4.29,3.79-1.06,7.42-1.6,10.88-1.6,6.65,0,11.58,1.58,14.77,4.74,3.19,3.16,4.79,8.1,4.79,14.82v30.04h-9.48v-8.08c-1.2,2.79-3.06,4.99-5.59,6.59-2.53,1.6-5.56,2.4-9.08,2.4ZM481.12,191.62c3.59,0,6.59-1.26,8.98-3.79,2.39-2.53,3.59-5.72,3.59-9.58v-2.69h-3.29c-4.86,0-8.67.23-11.43.7-2.76.47-4.73,1.25-5.89,2.35-1.16,1.1-1.75,2.61-1.75,4.54,0,2.53.86,4.58,2.6,6.14,1.73,1.56,4.12,2.35,7.19,2.35Z"/>
          <path class="cls-1" d="M517.15,197.9v-70.37h10.08v42.92h.2l21.16-21.26h12.48l-23.36,23.46,25.15,25.25h-12.58l-22.86-22.26h-.2v22.26h-10.08Z"/>
        </g>
      </g>
    </g>
  </g>
</svg>