<svg width="53" height="53" xmlns="http://www.w3.org/2000/svg" xmlns:xlink="http://www.w3.org/1999/xlink" xml:space="preserve" overflow="hidden"><defs><clipPath id="clip0"><rect x="104" y="488" width="53" height="53"/></clipPath><clipPath id="clip1"><rect x="104" y="489" width="53" height="52"/></clipPath><clipPath id="clip2"><rect x="104" y="489" width="53" height="52"/></clipPath><clipPath id="clip3"><rect x="104" y="489" width="53" height="52"/></clipPath></defs><g clip-path="url(#clip0)" transform="translate(-104 -488)"><g clip-path="url(#clip1)"><g clip-path="url(#clip2)"><g clip-path="url(#clip3)"><path d="M34.6121 8.37113 15.7699 18.3967C15.5769 18.5037 15.4164 18.6608 15.3057 18.8516 15.1948 19.0423 15.1378 19.2595 15.1405 19.4802L15.1405 32.5192C15.1378 32.7398 15.1948 32.957 15.3057 33.1477 15.4164 33.3385 15.5769 33.4958 15.7699 33.6027L34.6121 43.6284C35.3392 43.9872 36.2024 43.9344 36.88 43.4885 37.5577 43.0428 37.9484 42.2715 37.9067 41.4615L37.9067 10.538C37.9484 9.72786 37.5577 8.95648 36.88 8.5108 36.2024 8.06511 35.3392 8.01194 34.6121 8.371Z" fill="#005AA8" fill-rule="nonzero" fill-opacity="1" transform="matrix(1.01923 0 0 1 104 489)"/><path d="M11.8881 18.9536 3.25303 18.9536C2.39044 18.9536 1.56303 19.2962 0.952987 19.9062 0.34294 20.5163 0.000173333 21.3437 0.000173333 22.2064L0.000173333 29.7937C0.000173333 30.6564 0.342949 31.4838 0.952987 32.0939 1.56302 32.7039 2.39044 33.0465 3.25303 33.0465L4.29962 33.0465 4.29962 40.093 4.29979 40.0931C4.29979 41.0614 4.81624 41.9561 5.65483 42.4402 6.49341 42.9244 7.52661 42.9244 8.3652 42.4402 9.20378 41.9561 9.72023 41.0614 9.72023 40.0931L9.72023 33.0463 11.8882 33.0463C12.1758 33.0463 12.4516 32.9322 12.655 32.7287 12.8583 32.5254 12.9726 32.2497 12.9726 31.9621L12.9726 20.0372C12.9726 19.7496 12.8583 19.4739 12.655 19.2706 12.4516 19.0671 12.1758 18.953 11.8882 18.953Z" fill="#005AA8" fill-rule="nonzero" fill-opacity="1" transform="matrix(1.01923 0 0 1 104 489)"/><path d="M50.375 24.3737 42.7865 24.3737 42.7866 24.3737C42.2055 24.3737 41.6688 24.6836 41.3783 25.1869 41.0878 25.6899 41.0878 26.3098 41.3783 26.8129 41.6688 27.3161 42.2055 27.6261 42.7866 27.6261L50.375 27.6261C50.9561 27.6261 51.493 27.3162 51.7833 26.8129 52.0737 26.3098 52.0737 25.6899 51.7833 25.1869 51.493 24.6837 50.9561 24.3737 50.375 24.3737Z" fill="#005AA8" fill-rule="nonzero" fill-opacity="1" transform="matrix(1.01923 0 0 1 104 489)"/><path d="M43.5327 19.8194 50.1046 16.025C50.6077 15.7346 50.918 15.1978 50.918 14.6169 50.918 14.0359 50.6077 13.499 50.1046 13.2085 49.6015 12.9181 48.9818 12.9181 48.4787 13.2085L41.9067 17.0029C41.5331 17.2185 41.2606 17.5737 41.149 17.9902 41.0373 18.4068 41.0957 18.8506 41.3114 19.2242 41.527 19.5976 41.8823 19.8703 42.2989 19.9819 42.7154 20.0934 43.1593 20.035 43.5327 19.8194Z" fill="#005AA8" fill-rule="nonzero" fill-opacity="1" transform="matrix(1.01923 0 0 1 104 489)"/><path d="M50.102 35.9749 43.5301 32.1805C43.0268 31.8901 42.407 31.8901 41.9039 32.1805 41.4007 32.471 41.0907 33.008 41.0907 33.5889 41.0907 34.1698 41.4006 34.7067 41.9039 34.9972L48.4757 38.7916C48.9788 39.082 49.5989 39.082 50.102 38.7916 50.6051 38.5011 50.9149 37.9642 50.9149 37.3832 50.9149 36.8023 50.6051 36.2654 50.102 35.9749Z" fill="#005AA8" fill-rule="nonzero" fill-opacity="1" transform="matrix(1.01923 0 0 1 104 489)"/></g></g></g></g></svg>