<svg width="68" height="54" xmlns="http://www.w3.org/2000/svg" xmlns:xlink="http://www.w3.org/1999/xlink" xml:space="preserve" overflow="hidden"><defs><clipPath id="clip0"><rect x="96" y="292" width="68" height="54"/></clipPath><clipPath id="clip1"><rect x="97" y="292" width="67" height="54"/></clipPath><clipPath id="clip2"><rect x="97" y="292" width="67" height="54"/></clipPath></defs><g clip-path="url(#clip0)" transform="translate(-96 -292)"><g clip-path="url(#clip1)"><g clip-path="url(#clip2)"><path d="M52.2343 28.768C52.2343 26.0973 50.0611 23.9306 47.3969 23.9306L36.7268 23.9306C34.0562 23.9306 31.8894 26.1038 31.8894 28.768L31.8894 33.9817 52.2406 33.9817 52.2406 28.768Z" stroke="#4472C4" stroke-width="0.120138" stroke-linecap="butt" stroke-linejoin="miter" stroke-miterlimit="4" stroke-opacity="1" fill="#005AA8" fill-rule="nonzero" fill-opacity="1" transform="matrix(1 0 0 1.01586 89.2825 284.828)"/><path d="M31.7678 18.9852C31.7678 20.8619 30.2464 22.3828 28.3702 22.3828 26.494 22.3828 24.9726 20.8619 24.9726 18.9852 24.9726 17.1091 26.494 15.5881 28.3702 15.5881 30.2464 15.5881 31.7678 17.1091 31.7678 18.9852" stroke="#4472C4" stroke-width="0.120138" stroke-linecap="butt" stroke-linejoin="miter" stroke-miterlimit="4" stroke-opacity="1" fill="#005AA8" fill-rule="nonzero" fill-opacity="1" transform="matrix(1 0 0 1.01586 89.2825 284.828)"/><path d="M59.123 18.9852C59.123 20.8619 57.6016 22.3828 55.7254 22.3828 53.8492 22.3828 52.3278 20.8619 52.3278 18.9852 52.3278 17.1091 53.8492 15.5881 55.7254 15.5881 57.6016 15.5881 59.123 17.1091 59.123 18.9852" stroke="#4472C4" stroke-width="0.120138" stroke-linecap="butt" stroke-linejoin="miter" stroke-miterlimit="4" stroke-opacity="1" fill="#005AA8" fill-rule="nonzero" fill-opacity="1" transform="matrix(1 0 0 1.01586 89.2825 284.828)"/><path d="M46.9051 14.6195C46.9051 17.3024 44.73 19.4771 42.0474 19.4771 39.3649 19.4771 37.1898 17.3024 37.1898 14.6195 37.1898 11.937 39.3649 9.76233 42.0474 9.76233 44.73 9.76233 46.9051 11.937 46.9051 14.6195" stroke="#4472C4" stroke-width="0.120138" stroke-linecap="butt" stroke-linejoin="miter" stroke-miterlimit="4" stroke-opacity="1" fill="#005AA8" fill-rule="nonzero" fill-opacity="1" transform="matrix(1 0 0 1.01586 89.2825 284.828)"/><path d="M53.7144 33.9819 63.0794 33.9819 63.0794 29.4679C63.0794 27.5979 61.559 26.0773 59.6888 26.0773L53.1089 26.0773C53.4923 26.8914 53.7077 27.8062 53.7077 28.7681L53.7077 33.9818Z" stroke="#4472C4" stroke-width="0.120138" stroke-linecap="butt" stroke-linejoin="miter" stroke-miterlimit="4" stroke-opacity="1" fill="#005AA8" fill-rule="nonzero" fill-opacity="1" transform="matrix(1 0 0 1.01586 89.2825 284.828)"/><path d="M52.9744 35.4884 31.1431 35.4884C31.0825 35.4884 31.0155 35.4818 30.9614 35.4617L12.3534 35.4617 12.3534 39.9151 15.4888 39.9151 15.6099 39.9151 71.745 39.9151 71.745 35.4617 53.1563 35.4617C53.0957 35.4753 53.0352 35.4884 52.9746 35.4884Z" stroke="#4472C4" stroke-width="0.120138" stroke-linecap="butt" stroke-linejoin="miter" stroke-miterlimit="4" stroke-opacity="1" fill="#005AA8" fill-rule="nonzero" fill-opacity="1" transform="matrix(1 0 0 1.01586 89.2825 284.828)"/><path d="M30.3958 28.768C30.3958 27.8059 30.6112 26.8979 30.9946 26.0772L24.4147 26.0772C22.5447 26.0772 21.0241 27.5976 21.0241 29.4678L21.0241 33.9818 30.3891 33.9818 30.3891 28.7681Z" stroke="#4472C4" stroke-width="0.120138" stroke-linecap="butt" stroke-linejoin="miter" stroke-miterlimit="4" stroke-opacity="1" fill="#005AA8" fill-rule="nonzero" fill-opacity="1" transform="matrix(1 0 0 1.01586 89.2825 284.828)"/><path d="M18.8507 55.6919C19.0257 56.7482 19.9201 57.5085 20.9836 57.5085L41.9871 57.5085 42.0411 57.5085 42.095 57.5085 63.0985 57.5085C64.1615 57.5085 65.063 56.7482 65.2315 55.699L67.6534 41.4087 16.4282 41.4087 18.8502 55.699Z" stroke="#4472C4" stroke-width="0.120138" stroke-linecap="butt" stroke-linejoin="miter" stroke-miterlimit="4" stroke-opacity="1" fill="#005AA8" fill-rule="nonzero" fill-opacity="1" transform="matrix(1 0 0 1.01586 89.2825 284.828)"/><path d="M2.25449-0.135154C2.13811-0.0750856 2.01656-0.0300342 1.89033 0 1.76503 0.0309725 1.63363 0.0469279 1.49614 0.0469279 1.08786 0.0469279 0.764527-0.0666387 0.525659-0.294717 0.286322-0.523722 0.167122-0.833459 0.167122-1.22391 0.167122-1.61529 0.286321-1.92501 0.525659-2.15309 0.764527-2.3821 1.08786-2.49661 1.49614-2.49661 1.63363-2.49661 1.76504-2.48066 1.89033-2.44969 2.01657-2.41965 2.13811-2.3746 2.25449-2.31453L2.25449-1.8077C2.1367-1.88653 2.02079-1.94473 1.90722-1.98227 1.79319-2.01981 1.67305-2.03858 1.54681-2.03858 1.32155-2.03858 1.14416-1.96584 1.01558-1.82083 0.886526-1.67676 0.822229-1.47778 0.822229-1.22389 0.822229-0.970948 0.886522-0.771977 1.01558-0.62696 1.14416-0.482891 1.32155-0.411086 1.54681-0.411086 1.67305-0.411086 1.79319-0.428919 1.90722-0.465522 2.02079-0.503065 2.13671-0.561725 2.25449-0.641979Z" stroke="#4472C4" stroke-width="0.120138" stroke-linecap="butt" stroke-linejoin="miter" stroke-miterlimit="4" stroke-opacity="1" fill="#005AA8" fill-rule="nonzero" fill-opacity="1" transform="matrix(1 0 0 1.01586 97.6921 363.423)"/><path d="M1.64996-1.33845C1.5974-1.36191 1.54531-1.37974 1.49415-1.39101 1.44394-1.40321 1.39326-1.40977 1.34211-1.40977 1.19053-1.40977 1.07414-1.36097 0.992968-1.26336 0.911312-1.16668 0.870957-1.02871 0.870957-0.848509L0.870957-4.20479e-05 0.283415-4.20479e-05 0.283415-1.83958 0.870957-1.83958 0.870957-1.53737C0.946042-1.6575 1.0324-1.74478 1.13-1.80017 1.22854-1.85648 1.34634-1.88464 1.4829-1.88464 1.50261-1.88464 1.5242-1.88323 1.54673-1.88088 1.57019-1.87947 1.60397-1.87619 1.64809-1.87149Z" stroke="#4472C4" stroke-width="0.120138" stroke-linecap="butt" stroke-linejoin="miter" stroke-miterlimit="4" stroke-opacity="1" fill="#005AA8" fill-rule="nonzero" fill-opacity="1" transform="matrix(1 0 0 1.01586 100.161 363.423)"/><path d="M2.11934-0.925427 2.11934-0.75649 0.743407-0.75649C0.758424-0.618525 0.808168-0.515279 0.893578-0.446765 0.978519-0.37778 1.09818-0.343522 1.25212-0.343522 1.376-0.343522 1.50224-0.361355 1.63129-0.397958 1.76128-0.435501 1.89456-0.490877 2.03112-0.565021L2.03112-0.112633C1.89222-0.0600733 1.7533-0.0206539 1.61439 0.00562721 1.47549 0.0328454 1.33657 0.0469243 1.19766 0.0469243 0.864469 0.0469243 0.605418-0.0375464 0.420515-0.206493 0.236562-0.375429 0.144573-0.612423 0.144573-0.917931 0.144573-1.21827 0.235145-1.45385 0.416755-1.62561 0.597897-1.79831 0.847085-1.88465 1.16386-1.88465 1.45294-1.88465 1.6843-1.79689 1.8584-1.62185 2.03203-1.44775 2.11932-1.21545 2.11932-0.925428ZM1.5149-1.12065C1.5149-1.23187 1.48206-1.32151 1.41729-1.38908 1.35206-1.4576 1.26712-1.49233 1.162-1.49233 1.04796-1.49233 0.955509-1.46042 0.884184-1.39659 0.812858-1.33276 0.768271-1.24079 0.750904-1.12065Z" stroke="#4472C4" stroke-width="0.120138" stroke-linecap="butt" stroke-linejoin="miter" stroke-miterlimit="4" stroke-opacity="1" fill="#005AA8" fill-rule="nonzero" fill-opacity="1" transform="matrix(1 0 0 1.01586 101.82 363.423)"/><path d="M1.10752-0.827815C0.98457-0.827815 0.892113-0.807166 0.829702-0.76587 0.768225-0.724573 0.737722-0.663097 0.737722-0.581917 0.737722-0.506831 0.762594-0.4477 0.812808-0.40546 0.862552-0.364163 0.931537-0.343515 1.0193-0.343515 1.13052-0.343515 1.22391-0.382934 1.29899-0.461775 1.37502-0.541553 1.41349-0.641043 1.41349-0.760243L1.41349-0.82782ZM2.0048-1.04932 2.0048 0 1.41349 0 1.41349-0.272182C1.33466-0.160492 1.2455-0.0793024 1.14694-0.0281601 1.04792 0.0215838 0.927781 0.0469255 0.786524 0.0469255 0.595999 0.0469255 0.441599-0.0079807 0.322868-0.118263 0.203669-0.229483 0.144537-0.374022 0.144537-0.551885 0.144537-0.766822 0.218214-0.924502 0.366045-1.02492 0.514811-1.12629 0.748045-1.17697 1.06622-1.17697L1.41348-1.17697 1.41348-1.22389C1.41348-1.31635 1.37641-1.38392 1.30273-1.42663 1.22858-1.47027 1.11408-1.49233 0.959212-1.49233 0.832503-1.49233 0.71519-1.47965 0.606309-1.45479 0.498374-1.42945 0.398412-1.39191 0.305967-1.34216L0.305967-1.7908C0.430801-1.82083 0.556561-1.84383 0.683269-1.86025 0.810915-1.8762 0.93856-1.88465 1.06621-1.88465 1.39752-1.88465 1.63685-1.81896 1.78328-1.68755 1.93064-1.55709 2.00478-1.3445 2.00478-1.04933Z" stroke="#4472C4" stroke-width="0.120138" stroke-linecap="butt" stroke-linejoin="miter" stroke-miterlimit="4" stroke-opacity="1" fill="#005AA8" fill-rule="nonzero" fill-opacity="1" transform="matrix(1 0 0 1.01586 104.101 363.423)"/><path d="M0.925427-2.36141 0.925427-1.83956 1.53175-1.83956 1.53175-1.41908 0.925427-1.41908 0.925427-0.638191C0.925427-0.552781 0.94232-0.495529 0.97611-0.465495 1.0099-0.43546 1.07654-0.420443 1.17697-0.420443L1.47919-0.420443 1.47919 3.60411e-05 0.97611 3.60411e-05C0.743345 3.60411e-05 0.578157-0.0478313 0.480545-0.144501 0.383872-0.242112 0.336009-0.406363 0.336009-0.638191L0.336009-1.41908 0.0450489-1.41908 0.0450489-1.83956 0.336009-1.83956 0.336009-2.36141Z" stroke="#4472C4" stroke-width="0.120138" stroke-linecap="butt" stroke-linejoin="miter" stroke-miterlimit="4" stroke-opacity="1" fill="#005AA8" fill-rule="nonzero" fill-opacity="1" transform="matrix(1 0 0 1.01586 106.371 363.423)"/><path d="M2.11934-0.925427 2.11934-0.75649 0.743407-0.75649C0.758424-0.618525 0.808168-0.515279 0.893578-0.446765 0.978519-0.37778 1.09818-0.343522 1.25212-0.343522 1.376-0.343522 1.50224-0.361355 1.63129-0.397958 1.76128-0.435501 1.89456-0.490877 2.03112-0.565021L2.03112-0.112633C1.89222-0.0600733 1.7533-0.0206539 1.61439 0.00562721 1.47549 0.0328454 1.33657 0.0469243 1.19766 0.0469243 0.864469 0.0469243 0.605418-0.0375464 0.420515-0.206493 0.236562-0.375429 0.144573-0.612423 0.144573-0.917931 0.144573-1.21827 0.235145-1.45385 0.416755-1.62561 0.597897-1.79831 0.847085-1.88465 1.16386-1.88465 1.45294-1.88465 1.6843-1.79689 1.8584-1.62185 2.03203-1.44775 2.11932-1.21545 2.11932-0.925428ZM1.5149-1.12065C1.5149-1.23187 1.48206-1.32151 1.41729-1.38908 1.35206-1.4576 1.26712-1.49233 1.162-1.49233 1.04796-1.49233 0.955509-1.46042 0.884184-1.39659 0.812858-1.33276 0.768271-1.24079 0.750904-1.12065Z" stroke="#4472C4" stroke-width="0.120138" stroke-linecap="butt" stroke-linejoin="miter" stroke-miterlimit="4" stroke-opacity="1" fill="#005AA8" fill-rule="nonzero" fill-opacity="1" transform="matrix(1 0 0 1.01586 107.979 363.423)"/><path d="M1.53367-1.57115 1.53367-2.55665 2.12497-2.55665 2.12497-1.20137e-05 1.53367-1.20137e-05 1.53367-0.266572C1.45342-0.157698 1.36473-0.0779208 1.26711-0.0281721 1.16948 0.0215766 1.05593 0.0469135 0.927349 0.0469135 0.700687 0.0469135 0.514847-0.0431892 0.369842-0.223395 0.224368-0.4036 0.152093-0.63496 0.152093-0.91793 0.152093-1.20185 0.224363-1.43415 0.369842-1.61435 0.514847-1.79456 0.700687-1.88466 0.927349-1.88466 1.05499-1.88466 1.16762-1.85885 1.26523-1.8077 1.36378-1.75608 1.45342-1.67724 1.53367-1.57117ZM1.14697-0.379164C1.27181-0.379164 1.36753-0.424685 1.43417-0.516192 1.50034-0.608641 1.53366-0.742386 1.53366-0.917906 1.53366-1.09295 1.50034-1.22623 1.43417-1.31773 1.36753-1.41018 1.27179-1.45664 1.14697-1.45664 1.02167-1.45664 0.925943-1.41018 0.859772-1.31773 0.793133-1.22623 0.760284-1.09295 0.760284-0.917906 0.760284-0.742398 0.793134-0.60865 0.859772-0.516192 0.925941-0.424682 1.02168-0.379164 1.14697-0.379164Z" stroke="#4472C4" stroke-width="0.120138" stroke-linecap="butt" stroke-linejoin="miter" stroke-miterlimit="4" stroke-opacity="1" fill="#005AA8" fill-rule="nonzero" fill-opacity="1" transform="matrix(1 0 0 1.01586 110.26 363.423)"/><path d="M1.26144-0.379176C1.38768-0.379176 1.48388-0.424697 1.55051-0.516204 1.61668-0.608653 1.65-0.742398 1.65-0.917918 1.65-1.09296 1.61668-1.22624 1.55051-1.31775 1.48387-1.41019 1.38767-1.45665 1.26144-1.45665 1.13473-1.45665 1.03806-1.41019 0.970478-1.31775 0.903839-1.22483 0.87099-1.09155 0.87099-0.917918 0.87099-0.743816 0.90384-0.610536 0.970478-0.51809 1.03806-0.425172 1.13473-0.379188 1.26144-0.379188ZM0.870993-1.57116C0.952179-1.67722 1.04182-1.75607 1.13943-1.80769 1.23797-1.85884 1.35154-1.88465 1.47919-1.88465 1.70679-1.88465 1.89309-1.79455 2.03857-1.61434 2.18357-1.43413 2.25632-1.20184 2.25632-0.917921 2.25632-0.634938 2.18357-0.40359 2.03857-0.223385 1.89309-0.0431796 1.70679 0.0469231 1.47919 0.0469231 1.35154 0.0469231 1.23797 0.0215814 1.13943-0.0281625 1.04182-0.0793144 0.952181-0.158619 0.870993-0.266562L0.870993-2.40274e-06 0.283451-2.40274e-06 0.283451-2.55663 0.870993-2.55663Z" stroke="#4472C4" stroke-width="0.120138" stroke-linecap="butt" stroke-linejoin="miter" stroke-miterlimit="4" stroke-opacity="1" fill="#005AA8" fill-rule="nonzero" fill-opacity="1" transform="matrix(1 0 0 1.01586 113.84 363.423)"/><path d="M0.0412971-1.83954 0.628839-1.83954 1.1244-0.591194 1.54489-1.83954 2.13243-1.83954 1.35905 0.174679C1.28114 0.378347 1.19057 0.52101 1.08686 0.602667 0.982679 0.685261 0.846587 0.726552 0.67765 0.726552L0.336005 0.726552 0.336005 0.339855 0.519959 0.339855C0.619916 0.339855 0.692655 0.32343 0.737707 0.29105 0.783696 0.259607 0.819363 0.203293 0.844703 0.122113L0.861597 0.0714298Z" stroke="#4472C4" stroke-width="0.120138" stroke-linecap="butt" stroke-linejoin="miter" stroke-miterlimit="4" stroke-opacity="1" fill="#005AA8" fill-rule="nonzero" fill-opacity="1" transform="matrix(1 0 0 1.01586 116.248 363.423)"/><path d="M-0.0337885-2.45151 0.658873-2.45151 1.21639-1.57865 1.77576-2.45151 2.46842-2.45151 1.53361-1.03246 1.53361-2.40274e-05 0.901021-2.40274e-05 0.901021-1.03246Z" stroke="#4472C4" stroke-width="0.120138" stroke-linecap="butt" stroke-linejoin="miter" stroke-miterlimit="4" stroke-opacity="1" fill="#005AA8" fill-rule="nonzero" fill-opacity="1" transform="matrix(1 0 0 1.01586 119.611 363.423)"/><path d="M1.15819-1.46423C1.02774-1.46423 0.928238-1.4173 0.859724-1.32344 0.790739-1.22958 0.756481-1.09444 0.756481-0.917978 0.756481-0.741521 0.790739-0.606367 0.859724-0.512516 0.928239-0.419597 1.02772-0.373614 1.15819-0.373614 1.28584-0.373614 1.38345-0.419603 1.45103-0.512516 1.51954-0.606373 1.55427-0.741521 1.55427-0.917978 1.55427-1.09444 1.51954-1.22959 1.45103-1.32344 1.38345-1.41729 1.28584-1.46423 1.15819-1.46423ZM1.15819-1.88471C1.47449-1.88471 1.7218-1.79883 1.89966-1.62754 2.07706-1.45719 2.16622-1.22068 2.16622-0.91799 2.16622-0.616242 2.07706-0.379717 1.89966-0.208438 1.7218-0.0380834 1.47449 0.0468534 1.15819 0.0468534 0.840021 0.0468534 0.59177-0.038087 0.412971-0.208438 0.233702-0.379729 0.144537-0.616242 0.144537-0.91799 0.144537-1.22068 0.233701-1.4572 0.412971-1.62754 0.59177-1.79883 0.840021-1.88471 1.15819-1.88471Z" stroke="#4472C4" stroke-width="0.120138" stroke-linecap="butt" stroke-linejoin="miter" stroke-miterlimit="4" stroke-opacity="1" fill="#005AA8" fill-rule="nonzero" fill-opacity="1" transform="matrix(1 0 0 1.01586 122.047 363.423)"/><path d="M2.13243-1.12065 2.13243 0 1.54113 0 1.54113-0.85785C1.54113-1.01647 1.53738-1.12628 1.52987-1.18635 1.52236-1.24642 1.50969-1.29053 1.49233-1.31963 1.4698-1.35717 1.43835-1.38627 1.39847-1.40786 1.35952-1.42898 1.31493-1.43977 1.26519-1.43977 1.14224-1.43977 1.04603-1.39191 0.976112-1.29711 0.905719-1.20324 0.870993-1.07232 0.870993-0.904787L0.870993-1.20137e-05 0.283451-1.20137e-05 0.283451-1.83955 0.870993-1.83955 0.870993-1.57111C0.959687-1.67717 1.05354-1.75602 1.15257-1.80764 1.25252-1.85879 1.36281-1.8846 1.48295-1.8846 1.69553-1.8846 1.85697-1.8189 1.96724-1.6875 2.07706-1.55705 2.13243-1.3684 2.13243-1.1206Z" stroke="#4472C4" stroke-width="0.120138" stroke-linecap="butt" stroke-linejoin="miter" stroke-miterlimit="4" stroke-opacity="1" fill="#005AA8" fill-rule="nonzero" fill-opacity="1" transform="matrix(1 0 0 1.01586 124.358 363.423)"/><path d="M0.925427-2.36141 0.925427-1.83956 1.53175-1.83956 1.53175-1.41908 0.925427-1.41908 0.925427-0.638191C0.925427-0.552781 0.94232-0.495529 0.97611-0.465495 1.0099-0.43546 1.07654-0.420443 1.17697-0.420443L1.47919-0.420443 1.47919 3.60411e-05 0.97611 3.60411e-05C0.743345 3.60411e-05 0.578157-0.0478313 0.480545-0.144501 0.383872-0.242112 0.336009-0.406363 0.336009-0.638191L0.336009-1.41908 0.0450489-1.41908 0.0450489-1.83956 0.336009-1.83956 0.336009-2.36141Z" stroke="#4472C4" stroke-width="0.120138" stroke-linecap="butt" stroke-linejoin="miter" stroke-miterlimit="4" stroke-opacity="1" fill="#005AA8" fill-rule="nonzero" fill-opacity="1" transform="matrix(1 0 0 1.01586 127.924 363.423)"/><path d="M2.11934-0.925427 2.11934-0.75649 0.743407-0.75649C0.758424-0.618525 0.808168-0.515279 0.893578-0.446765 0.978519-0.37778 1.09818-0.343522 1.25212-0.343522 1.376-0.343522 1.50224-0.361355 1.63129-0.397958 1.76128-0.435501 1.89456-0.490877 2.03112-0.565021L2.03112-0.112633C1.89222-0.0600733 1.7533-0.0206539 1.61439 0.00562721 1.47549 0.0328454 1.33657 0.0469243 1.19766 0.0469243 0.864469 0.0469243 0.605418-0.0375464 0.420515-0.206493 0.236562-0.375429 0.144573-0.612423 0.144573-0.917931 0.144573-1.21827 0.235145-1.45385 0.416755-1.62561 0.597897-1.79831 0.847085-1.88465 1.16386-1.88465 1.45294-1.88465 1.6843-1.79689 1.8584-1.62185 2.03203-1.44775 2.11932-1.21545 2.11932-0.925428ZM1.5149-1.12065C1.5149-1.23187 1.48206-1.32151 1.41729-1.38908 1.35206-1.4576 1.26712-1.49233 1.162-1.49233 1.04796-1.49233 0.955509-1.46042 0.884184-1.39659 0.812858-1.33276 0.768271-1.24079 0.750904-1.12065Z" stroke="#4472C4" stroke-width="0.120138" stroke-linecap="butt" stroke-linejoin="miter" stroke-miterlimit="4" stroke-opacity="1" fill="#005AA8" fill-rule="nonzero" fill-opacity="1" transform="matrix(1 0 0 1.01586 129.532 363.423)"/><path d="M2.13243-1.12065 2.13243 0 1.54113 0 1.54113-0.85785C1.54113-1.01647 1.53738-1.12628 1.52987-1.18635 1.52236-1.24642 1.50969-1.29053 1.49233-1.31963 1.4698-1.35717 1.43835-1.38627 1.39847-1.40786 1.35952-1.42898 1.31493-1.43977 1.26519-1.43977 1.14224-1.43977 1.04603-1.39191 0.976112-1.29711 0.905719-1.20324 0.870993-1.07232 0.870993-0.904787L0.870993-1.20137e-05 0.283451-1.20137e-05 0.283451-1.83955 0.870993-1.83955 0.870993-1.57111C0.959687-1.67717 1.05354-1.75602 1.15257-1.80764 1.25252-1.85879 1.36281-1.8846 1.48295-1.8846 1.69553-1.8846 1.85697-1.8189 1.96724-1.6875 2.07706-1.55705 2.13243-1.3684 2.13243-1.1206Z" stroke="#4472C4" stroke-width="0.120138" stroke-linecap="butt" stroke-linejoin="miter" stroke-miterlimit="4" stroke-opacity="1" fill="#005AA8" fill-rule="nonzero" fill-opacity="1" transform="matrix(1 0 0 1.01586 131.813 363.423)"/><path d="M1.49234-2.55663 1.49234-2.16994 1.1676-2.16994C1.085-2.16994 1.02681-2.15492 0.993028-2.12489 0.960177-2.09485 0.944222-2.04229 0.944222-1.96721L0.944222-1.83956 1.4473-1.83956 1.4473-1.41908 0.944222-1.41908 0.944222-2.40274e-05 0.356681-2.40274e-05 0.356681-1.41908 0.0638468-1.41908 0.0638468-1.83956 0.356681-1.83956 0.356681-1.96721C0.356681-2.16713 0.412056-2.31541 0.523743-2.41209 0.634963-2.50829 0.808131-2.55662 1.04371-2.55662Z" stroke="#4472C4" stroke-width="0.120138" stroke-linecap="butt" stroke-linejoin="miter" stroke-miterlimit="4" stroke-opacity="1" fill="#005AA8" fill-rule="nonzero" fill-opacity="1" transform="matrix(1 0 0 1.01586 97.6921 366.841)"/><path d="M1.64996-1.33845C1.5974-1.36191 1.54531-1.37974 1.49415-1.39101 1.44394-1.40321 1.39326-1.40977 1.34211-1.40977 1.19053-1.40977 1.07414-1.36097 0.992968-1.26336 0.911312-1.16668 0.870957-1.02871 0.870957-0.848509L0.870957-4.20479e-05 0.283415-4.20479e-05 0.283415-1.83958 0.870957-1.83958 0.870957-1.53737C0.946042-1.6575 1.0324-1.74478 1.13-1.80017 1.22854-1.85648 1.34634-1.88464 1.4829-1.88464 1.50261-1.88464 1.5242-1.88323 1.54673-1.88088 1.57019-1.87947 1.60397-1.87619 1.64809-1.87149Z" stroke="#4472C4" stroke-width="0.120138" stroke-linecap="butt" stroke-linejoin="miter" stroke-miterlimit="4" stroke-opacity="1" fill="#005AA8" fill-rule="nonzero" fill-opacity="1" transform="matrix(1 0 0 1.01586 99.1558 366.841)"/><path d="M1.15819-1.46423C1.02774-1.46423 0.928238-1.4173 0.859724-1.32344 0.790739-1.22958 0.756481-1.09444 0.756481-0.917978 0.756481-0.741521 0.790739-0.606367 0.859724-0.512516 0.928239-0.419597 1.02772-0.373614 1.15819-0.373614 1.28584-0.373614 1.38345-0.419603 1.45103-0.512516 1.51954-0.606373 1.55427-0.741521 1.55427-0.917978 1.55427-1.09444 1.51954-1.22959 1.45103-1.32344 1.38345-1.41729 1.28584-1.46423 1.15819-1.46423ZM1.15819-1.88471C1.47449-1.88471 1.7218-1.79883 1.89966-1.62754 2.07706-1.45719 2.16622-1.22068 2.16622-0.91799 2.16622-0.616242 2.07706-0.379717 1.89966-0.208438 1.7218-0.0380834 1.47449 0.0468534 1.15819 0.0468534 0.840021 0.0468534 0.59177-0.038087 0.412971-0.208438 0.233702-0.379729 0.144537-0.616242 0.144537-0.91799 0.144537-1.22068 0.233701-1.4572 0.412971-1.62754 0.59177-1.79883 0.840021-1.88471 1.15819-1.88471Z" stroke="#4472C4" stroke-width="0.120138" stroke-linecap="butt" stroke-linejoin="miter" stroke-miterlimit="4" stroke-opacity="1" fill="#005AA8" fill-rule="nonzero" fill-opacity="1" transform="matrix(1 0 0 1.01586 100.815 366.841)"/><path d="M1.98791-1.53367C2.06159-1.64723 2.14981-1.73452 2.25258-1.79459 2.35489-1.85466 2.46752-1.8847 2.59046-1.8847 2.80164-1.8847 2.96261-1.81899 3.07289-1.6876 3.18411-1.55714 3.23995-1.36849 3.23995-1.1207L3.23995-4.80548e-05 2.64865-4.80548e-05 2.64865-0.959269 2.64865-1.00244C2.64958-1.0184 2.65052-1.04093 2.65052-1.07002 2.65052-1.20001 2.63082-1.29387 2.59233-1.3516 2.55478-1.41026 2.49331-1.43983 2.40837-1.43983 2.29669-1.43983 2.21034-1.39336 2.14933-1.30093 2.08786-1.20941 2.05642-1.0766 2.05548-0.902968L2.05548-6.72767e-05 1.46418-6.72767e-05 1.46418-0.959288C1.46418-1.16296 1.44635-1.2939 1.41162-1.35161 1.37642-1.41026 1.31401-1.43983 1.22391-1.43983 1.11128-1.43983 1.02399-1.39337 0.96298-1.30093 0.901504-1.20942 0.871001-1.07755 0.871001-0.904852L0.871001-7.68876e-05 0.2797-7.68876e-05 0.2797-1.83961 0.871001-1.83961 0.871001-1.57117C0.943271-1.67489 1.02587-1.75325 1.11878-1.80581 1.21264-1.85837 1.31588-1.88466 1.42851-1.88466 1.55616-1.88466 1.66879-1.85369 1.7664-1.79268 1.86401-1.7312 1.93769-1.64485 1.98791-1.53364Z" stroke="#4472C4" stroke-width="0.120138" stroke-linecap="butt" stroke-linejoin="miter" stroke-miterlimit="4" stroke-opacity="1" fill="#005AA8" fill-rule="nonzero" fill-opacity="1" transform="matrix(1 0 0 1.01586 103.126 366.841)"/><path d="M0.925427-2.36141 0.925427-1.83956 1.53175-1.83956 1.53175-1.41908 0.925427-1.41908 0.925427-0.638191C0.925427-0.552781 0.94232-0.495529 0.97611-0.465495 1.0099-0.43546 1.07654-0.420443 1.17697-0.420443L1.47919-0.420443 1.47919 3.60411e-05 0.97611 3.60411e-05C0.743345 3.60411e-05 0.578157-0.0478313 0.480545-0.144501 0.383872-0.242112 0.336009-0.406363 0.336009-0.638191L0.336009-1.41908 0.0450489-1.41908 0.0450489-1.83956 0.336009-1.83956 0.336009-2.36141Z" stroke="#4472C4" stroke-width="0.120138" stroke-linecap="butt" stroke-linejoin="miter" stroke-miterlimit="4" stroke-opacity="1" fill="#005AA8" fill-rule="nonzero" fill-opacity="1" transform="matrix(1 0 0 1.01586 107.802 366.841)"/><path d="M2.13243-1.12065 2.13243 0 1.54113 0 1.54113-0.854101C1.54113-1.01554 1.53738-1.12628 1.52987-1.18635 1.52236-1.24642 1.50969-1.29053 1.49233-1.31963 1.4698-1.35717 1.43835-1.38627 1.39847-1.40786 1.35952-1.42898 1.31493-1.43977 1.26519-1.43977 1.14224-1.43977 1.04603-1.39191 0.976112-1.29711 0.905719-1.20324 0.870993-1.07232 0.870993-0.904787L0.870993-1.20137e-05 0.283451-1.20137e-05 0.283451-2.55665 0.870993-2.55665 0.870993-1.57115C0.959687-1.67721 1.05354-1.75605 1.15257-1.80768 1.25252-1.85883 1.36281-1.88464 1.48295-1.88464 1.69553-1.88464 1.85697-1.81893 1.96724-1.68754 2.07706-1.55708 2.13243-1.36843 2.13243-1.12064Z" stroke="#4472C4" stroke-width="0.120138" stroke-linecap="butt" stroke-linejoin="miter" stroke-miterlimit="4" stroke-opacity="1" fill="#005AA8" fill-rule="nonzero" fill-opacity="1" transform="matrix(1 0 0 1.01586 109.41 366.841)"/><path d="M2.11934-0.925427 2.11934-0.75649 0.743407-0.75649C0.758424-0.618525 0.808168-0.515279 0.893578-0.446765 0.978519-0.37778 1.09818-0.343522 1.25212-0.343522 1.376-0.343522 1.50224-0.361355 1.63129-0.397958 1.76128-0.435501 1.89456-0.490877 2.03112-0.565021L2.03112-0.112633C1.89222-0.0600733 1.7533-0.0206539 1.61439 0.00562721 1.47549 0.0328454 1.33657 0.0469243 1.19766 0.0469243 0.864469 0.0469243 0.605418-0.0375464 0.420515-0.206493 0.236562-0.375429 0.144573-0.612423 0.144573-0.917931 0.144573-1.21827 0.235145-1.45385 0.416755-1.62561 0.597897-1.79831 0.847085-1.88465 1.16386-1.88465 1.45294-1.88465 1.6843-1.79689 1.8584-1.62185 2.03203-1.44775 2.11932-1.21545 2.11932-0.925428ZM1.5149-1.12065C1.5149-1.23187 1.48206-1.32151 1.41729-1.38908 1.35206-1.4576 1.26712-1.49233 1.162-1.49233 1.04796-1.49233 0.955509-1.46042 0.884184-1.39659 0.812858-1.33276 0.768271-1.24079 0.750904-1.12065Z" stroke="#4472C4" stroke-width="0.120138" stroke-linecap="butt" stroke-linejoin="miter" stroke-miterlimit="4" stroke-opacity="1" fill="#005AA8" fill-rule="nonzero" fill-opacity="1" transform="matrix(1 0 0 1.01586 111.804 366.841)"/><path d="M0.309725-2.45151 1.01553-2.45151 1.90717-0.769597 1.90717-2.45151 2.50598-2.45151 2.50598 0 1.80018 0 0.908535-1.68192 0.908535 0 0.309725 0Z" stroke="#4472C4" stroke-width="0.120138" stroke-linecap="butt" stroke-linejoin="miter" stroke-miterlimit="4" stroke-opacity="1" fill="#005AA8" fill-rule="nonzero" fill-opacity="1" transform="matrix(1 0 0 1.01586 115.257 366.841)"/><path d="M1.15819-1.46423C1.02774-1.46423 0.928238-1.4173 0.859724-1.32344 0.790739-1.22958 0.756481-1.09444 0.756481-0.917978 0.756481-0.741521 0.790739-0.606367 0.859724-0.512516 0.928239-0.419597 1.02772-0.373614 1.15819-0.373614 1.28584-0.373614 1.38345-0.419603 1.45103-0.512516 1.51954-0.606373 1.55427-0.741521 1.55427-0.917978 1.55427-1.09444 1.51954-1.22959 1.45103-1.32344 1.38345-1.41729 1.28584-1.46423 1.15819-1.46423ZM1.15819-1.88471C1.47449-1.88471 1.7218-1.79883 1.89966-1.62754 2.07706-1.45719 2.16622-1.22068 2.16622-0.91799 2.16622-0.616242 2.07706-0.379717 1.89966-0.208438 1.7218-0.0380834 1.47449 0.0468534 1.15819 0.0468534 0.840021 0.0468534 0.59177-0.038087 0.412971-0.208438 0.233702-0.379729 0.144537-0.616242 0.144537-0.91799 0.144537-1.22068 0.233701-1.4572 0.412971-1.62754 0.59177-1.79883 0.840021-1.88471 1.15819-1.88471Z" stroke="#4472C4" stroke-width="0.120138" stroke-linecap="butt" stroke-linejoin="miter" stroke-miterlimit="4" stroke-opacity="1" fill="#005AA8" fill-rule="nonzero" fill-opacity="1" transform="matrix(1 0 0 1.01586 118.072 366.841)"/><path d="M0.2628-0.717073 0.2628-1.83961 0.854101-1.83961 0.854101-1.65565C0.854101-1.55523 0.853163-1.4304 0.852224-1.28023 0.850817-1.13006 0.850347-1.02963 0.850347-0.979885 0.850347-0.830651 0.854101-0.723657 0.86161-0.658891 0.870057-0.59366 0.883197-0.546732 0.901029-0.518102 0.925901-0.479152 0.957813-0.449117 0.996764-0.428 1.03525-0.40782 1.07983-0.397966 1.13004-0.397966 1.25252-0.397966 1.34873-0.444893 1.41912-0.538754 1.48904-0.632611 1.52424-0.763074 1.52424-0.931073L1.52424-1.83961 2.11178-1.83961 2.11178-7.20822e-05 1.52424-7.20822e-05 1.52424-0.266632C1.43507-0.158696 1.34122-0.0793865 1.24266-0.0282322 1.14364 0.0215117 1.03429 0.0468534 0.914158 0.0468534 0.702513 0.0468534 0.541073-0.0179076 0.429862-0.148369 0.318172-0.278357 0.2628-0.467957 0.2628-0.717145Z" stroke="#4472C4" stroke-width="0.120138" stroke-linecap="butt" stroke-linejoin="miter" stroke-miterlimit="4" stroke-opacity="1" fill="#005AA8" fill-rule="nonzero" fill-opacity="1" transform="matrix(1 0 0 1.01586 120.383 366.841)"/><path d="M2.13243-1.12065 2.13243 0 1.54113 0 1.54113-0.85785C1.54113-1.01647 1.53738-1.12628 1.52987-1.18635 1.52236-1.24642 1.50969-1.29053 1.49233-1.31963 1.4698-1.35717 1.43835-1.38627 1.39847-1.40786 1.35952-1.42898 1.31493-1.43977 1.26519-1.43977 1.14224-1.43977 1.04603-1.39191 0.976112-1.29711 0.905719-1.20324 0.870993-1.07232 0.870993-0.904787L0.870993-1.20137e-05 0.283451-1.20137e-05 0.283451-1.83955 0.870993-1.83955 0.870993-1.57111C0.959687-1.67717 1.05354-1.75602 1.15257-1.80764 1.25252-1.85879 1.36281-1.8846 1.48295-1.8846 1.69553-1.8846 1.85697-1.8189 1.96724-1.6875 2.07706-1.55705 2.13243-1.3684 2.13243-1.1206Z" stroke="#4472C4" stroke-width="0.120138" stroke-linecap="butt" stroke-linejoin="miter" stroke-miterlimit="4" stroke-opacity="1" fill="#005AA8" fill-rule="nonzero" fill-opacity="1" transform="matrix(1 0 0 1.01586 122.778 366.841)"/><path d="M0.309725-2.45151 1.35905-2.45151C1.67066-2.45151 1.90952-2.38206 2.07612-2.24315 2.24365-2.10518 2.32766-1.90807 2.32766-1.65185 2.32766-1.39515 2.24366-1.19758 2.07612-1.05867 1.90953-0.919768 1.67066-0.850305 1.35905-0.850305L0.940444-0.850305 0.940444 3.60411e-05 0.309725 3.60411e-05ZM0.940444-1.99349 0.940444-1.30834 1.29147-1.30834C1.41395-1.30834 1.50828-1.33837 1.57492-1.39844 1.6425-1.45851 1.67628-1.54298 1.67628-1.65186 1.67628-1.76168 1.6425-1.84614 1.57492-1.90528 1.50828-1.96394 1.41396-1.9935 1.29147-1.9935Z" stroke="#4472C4" stroke-width="0.120138" stroke-linecap="butt" stroke-linejoin="miter" stroke-miterlimit="4" stroke-opacity="1" fill="#005AA8" fill-rule="nonzero" fill-opacity="1" transform="matrix(1 0 0 1.01586 126.344 366.841)"/><path d="M1.64996-1.33845C1.5974-1.36191 1.54531-1.37974 1.49415-1.39101 1.44394-1.40321 1.39326-1.40977 1.34211-1.40977 1.19053-1.40977 1.07414-1.36097 0.992968-1.26336 0.911312-1.16668 0.870957-1.02871 0.870957-0.848509L0.870957-4.20479e-05 0.283415-4.20479e-05 0.283415-1.83958 0.870957-1.83958 0.870957-1.53737C0.946042-1.6575 1.0324-1.74478 1.13-1.80017 1.22854-1.85648 1.34634-1.88464 1.4829-1.88464 1.50261-1.88464 1.5242-1.88323 1.54673-1.88088 1.57019-1.87947 1.60397-1.87619 1.64809-1.87149Z" stroke="#4472C4" stroke-width="0.120138" stroke-linecap="butt" stroke-linejoin="miter" stroke-miterlimit="4" stroke-opacity="1" fill="#005AA8" fill-rule="nonzero" fill-opacity="1" transform="matrix(1 0 0 1.01586 128.809 366.841)"/><path d="M1.15819-1.46423C1.02774-1.46423 0.928238-1.4173 0.859724-1.32344 0.790739-1.22958 0.756481-1.09444 0.756481-0.917978 0.756481-0.741521 0.790739-0.606367 0.859724-0.512516 0.928239-0.419597 1.02772-0.373614 1.15819-0.373614 1.28584-0.373614 1.38345-0.419603 1.45103-0.512516 1.51954-0.606373 1.55427-0.741521 1.55427-0.917978 1.55427-1.09444 1.51954-1.22959 1.45103-1.32344 1.38345-1.41729 1.28584-1.46423 1.15819-1.46423ZM1.15819-1.88471C1.47449-1.88471 1.7218-1.79883 1.89966-1.62754 2.07706-1.45719 2.16622-1.22068 2.16622-0.91799 2.16622-0.616242 2.07706-0.379717 1.89966-0.208438 1.7218-0.0380834 1.47449 0.0468534 1.15819 0.0468534 0.840021 0.0468534 0.59177-0.038087 0.412971-0.208438 0.233702-0.379729 0.144537-0.616242 0.144537-0.91799 0.144537-1.22068 0.233701-1.4572 0.412971-1.62754 0.59177-1.79883 0.840021-1.88471 1.15819-1.88471Z" stroke="#4472C4" stroke-width="0.120138" stroke-linecap="butt" stroke-linejoin="miter" stroke-miterlimit="4" stroke-opacity="1" fill="#005AA8" fill-rule="nonzero" fill-opacity="1" transform="matrix(1 0 0 1.01586 130.468 366.841)"/><path d="M0.283451-1.83954 0.870993-1.83954 0.870993-0.0337585C0.870993 0.212618 0.811394 0.400801 0.692661 0.531257 0.574871 0.661246 0.403588 0.72648 0.178331 0.72648L-0.112628 0.72648-0.112628 0.339783-0.0093851 0.339783C0.101835 0.339783 0.178329 0.314442 0.21962 0.264698 0.261855 0.214484 0.283443 0.114995 0.283443-0.0337705ZM0.283451-2.55661 0.870993-2.55661 0.870993-2.07606 0.283451-2.07606Z" stroke="#4472C4" stroke-width="0.120138" stroke-linecap="butt" stroke-linejoin="miter" stroke-miterlimit="4" stroke-opacity="1" fill="#005AA8" fill-rule="nonzero" fill-opacity="1" transform="matrix(1 0 0 1.01586 132.779 366.841)"/><path d="M2.11934-0.925427 2.11934-0.75649 0.743407-0.75649C0.758424-0.618525 0.808168-0.515279 0.893578-0.446765 0.978519-0.37778 1.09818-0.343522 1.25212-0.343522 1.376-0.343522 1.50224-0.361355 1.63129-0.397958 1.76128-0.435501 1.89456-0.490877 2.03112-0.565021L2.03112-0.112633C1.89222-0.0600733 1.7533-0.0206539 1.61439 0.00562721 1.47549 0.0328454 1.33657 0.0469243 1.19766 0.0469243 0.864469 0.0469243 0.605418-0.0375464 0.420515-0.206493 0.236562-0.375429 0.144573-0.612423 0.144573-0.917931 0.144573-1.21827 0.235145-1.45385 0.416755-1.62561 0.597897-1.79831 0.847085-1.88465 1.16386-1.88465 1.45294-1.88465 1.6843-1.79689 1.8584-1.62185 2.03203-1.44775 2.11932-1.21545 2.11932-0.925428ZM1.5149-1.12065C1.5149-1.23187 1.48206-1.32151 1.41729-1.38908 1.35206-1.4576 1.26712-1.49233 1.162-1.49233 1.04796-1.49233 0.955509-1.46042 0.884184-1.39659 0.812858-1.33276 0.768271-1.24079 0.750904-1.12065Z" stroke="#4472C4" stroke-width="0.120138" stroke-linecap="butt" stroke-linejoin="miter" stroke-miterlimit="4" stroke-opacity="1" fill="#005AA8" fill-rule="nonzero" fill-opacity="1" transform="matrix(1 0 0 1.01586 133.932 366.841)"/><path d="M1.7683-1.78139 1.7683-1.30272C1.68945-1.35762 1.60921-1.39845 1.52802-1.42473 1.44777-1.451 1.36471-1.46414 1.27836-1.46414 1.11411-1.46414 0.986-1.41581 0.893554-1.31961 0.802044-1.22434 0.756526-1.09061 0.756526-0.917897 0.756526-0.746137 0.802047-0.612388 0.893554-0.516183 0.986003-0.420918 1.11411-0.37352 1.27836-0.37352 1.3694-0.37352 1.4567-0.386661 1.53929-0.412939 1.62188-0.440158 1.69791-0.480986 1.7683-0.53495L1.7683-0.0544028C1.67679-0.0206143 1.58339 0.00425765 1.4886 0.0206828 1.39474 0.0380462 1.29948 0.0469627 1.20328 0.0469627 0.871497 0.0469627 0.611977-0.0379777 0.424264-0.208328 0.237487-0.378214 0.144573-0.614727 0.144573-0.917881 0.144573-1.22197 0.237491-1.45897 0.424264-1.62932 0.611977-1.79921 0.871497-1.88461 1.20328-1.88461 1.29948-1.88461 1.39475-1.8757 1.4886-1.85833 1.58246-1.8419 1.67538-1.8161 1.7683-1.78137Z" stroke="#4472C4" stroke-width="0.120138" stroke-linecap="butt" stroke-linejoin="miter" stroke-miterlimit="4" stroke-opacity="1" fill="#005AA8" fill-rule="nonzero" fill-opacity="1" transform="matrix(1 0 0 1.01586 136.214 366.841)"/><path d="M0.925427-2.36141 0.925427-1.83956 1.53175-1.83956 1.53175-1.41908 0.925427-1.41908 0.925427-0.638191C0.925427-0.552781 0.94232-0.495529 0.97611-0.465495 1.0099-0.43546 1.07654-0.420443 1.17697-0.420443L1.47919-0.420443 1.47919 3.60411e-05 0.97611 3.60411e-05C0.743345 3.60411e-05 0.578157-0.0478313 0.480545-0.144501 0.383872-0.242112 0.336009-0.406363 0.336009-0.638191L0.336009-1.41908 0.0450489-1.41908 0.0450489-1.83956 0.336009-1.83956 0.336009-2.36141Z" stroke="#4472C4" stroke-width="0.120138" stroke-linecap="butt" stroke-linejoin="miter" stroke-miterlimit="4" stroke-opacity="1" fill="#005AA8" fill-rule="nonzero" fill-opacity="1" transform="matrix(1 0 0 1.01586 138.207 366.841)"/></g></g></g></svg>