<?xml version="1.0" encoding="utf-8"?>
<!-- Generator: Adobe Adobe Illustrator 24.2.0, SVG Export Plug-In . SVG Version: 6.00 Build 0)  -->
<svg version="1.1" id="Layer_1" xmlns:serif="http://www.serif.com/"
	 xmlns="http://www.w3.org/2000/svg" xmlns:xlink="http://www.w3.org/1999/xlink" x="0px" y="0px" width="4000px" height="4000px"
	 viewBox="0 0 4000 4000" style="enable-background:new 0 0 4000 4000;" xml:space="preserve">
<style type="text/css">
	.st0{fill-rule:evenodd;clip-rule:evenodd;fill:#5874AC;}
	.st1{fill-rule:evenodd;clip-rule:evenodd;fill:#F0EFFF;}
	.st2{fill-rule:evenodd;clip-rule:evenodd;fill:#011A52;}
	.st3{fill-rule:evenodd;clip-rule:evenodd;fill:#0A295E;}
	.st4{fill-rule:evenodd;clip-rule:evenodd;fill:#AAC6FC;}
	.st5{fill-rule:evenodd;clip-rule:evenodd;fill:#7C8BCC;}
	.st6{fill-rule:evenodd;clip-rule:evenodd;fill:#364B85;}
	.st7{fill-rule:evenodd;clip-rule:evenodd;fill:#0F2945;}
	.st8{fill-rule:evenodd;clip-rule:evenodd;fill:#516687;}
	.st9{fill-rule:evenodd;clip-rule:evenodd;fill:#2D4563;}
	.st10{fill-rule:evenodd;clip-rule:evenodd;fill:#DBDAC2;}
	.st11{fill-rule:evenodd;clip-rule:evenodd;fill:#FEFDE5;}
	.st12{fill-rule:evenodd;clip-rule:evenodd;fill:#285090;}
	.st13{fill-rule:evenodd;clip-rule:evenodd;fill:#6384C9;}
	.st14{opacity:0.25;}
	.st15{fill-rule:evenodd;clip-rule:evenodd;fill:#FFCCC8;}
	.st16{clip-path:url(#SVGID_2_);}
	.st17{fill-rule:evenodd;clip-rule:evenodd;}
	.st18{fill-rule:evenodd;clip-rule:evenodd;fill:#10346B;}
	.st19{fill-rule:evenodd;clip-rule:evenodd;fill:#FFFFFF;}
	.st20{clip-path:url(#SVGID_4_);}
	.st21{clip-path:url(#SVGID_6_);}
	.st22{clip-path:url(#SVGID_8_);}
	.st23{fill-rule:evenodd;clip-rule:evenodd;fill:#092559;}
	.st24{clip-path:url(#SVGID_10_);}
	.st25{fill-opacity:0.25;}
	.st26{fill-rule:evenodd;clip-rule:evenodd;fill:#875B59;}
	.st27{clip-path:url(#SVGID_12_);}
	.st28{clip-path:url(#SVGID_14_);}
	.st29{clip-path:url(#SVGID_16_);}
	.st30{clip-path:url(#SVGID_18_);}
	.st31{clip-path:url(#SVGID_20_);}
	.st32{clip-path:url(#SVGID_22_);}
	.st33{fill-rule:evenodd;clip-rule:evenodd;fill:#6E4443;}
	.st34{clip-path:url(#SVGID_24_);}
	.st35{clip-path:url(#SVGID_26_);}
</style>
<g transform="matrix(1,0,0,1,643.293,-132.898)">
	<g transform="matrix(1.17564,0,0,1.17564,233.307,-362.764)">
		<g transform="matrix(1,0,0,1,4.54747e-13,79.5329)">
			<path class="st0" d="M-334.1,1775.6c-16.8,9.7-27.2,27.7-27.2,47.1c0,19.4,10.4,37.4,27.2,47.1
				c99.2,57.3,253.5,146.4,253.5,146.4c21.7,12.6,35.1,35.7,35.1,60.9s-13.4,48.3-35.1,60.9c0,0-261.7,151.1-398.7,230.2
				c-16.8,9.7-27.2,27.7-27.2,47.1c0,19.4,10.4,37.4,27.2,47.1c313.1,180.7,1430,825.6,1618.7,934.6c16.8,9.7,37.5,9.7,54.4,0
				c156-90.1,939.9-542.7,1196.6-690.9c16.8-9.7,27.2-27.7,27.2-47.1c0-19.4-10.4-37.4-27.2-47.1
				C2025.5,2401,550.1,1549.2,331.3,1422.9c-16.8-9.7-37.5-9.7-54.4,0C176.9,1480.6-173.5,1682.9-334.1,1775.6z"/>
		</g>
		<path class="st1" d="M-334.1,1792.1c-16.8,9.7-27.2,27.7-27.2,47.1c0,19.4,10.4,37.4,27.2,47.1c99.2,57.3,253.5,146.4,253.5,146.4
			c21.7,12.6,35.1,35.7,35.1,60.9c0,25.1-13.4,48.3-35.1,60.9c0,0-261.7,151.1-398.7,230.2c-16.8,9.7-27.2,27.7-27.2,47.1
			c0,19.4,10.4,37.4,27.2,47.1c313.1,180.7,1430,825.6,1618.7,934.6c16.8,9.7,37.5,9.7,54.4,0c156-90.1,939.9-542.7,1196.6-690.9
			c16.8-9.7,27.2-27.7,27.2-47.1c0-19.4-10.4-37.4-27.2-47.1c-365-210.7-1840.4-1062.5-2059.2-1188.9c-16.8-9.7-37.5-9.7-54.4,0
			C176.9,1497.1-173.5,1699.4-334.1,1792.1z"/>
	</g>
	<g transform="matrix(1,0,0,1,911.139,46.2185)">
		<g transform="matrix(2.11019,1.21832,-1.12946e-16,2.34942,-2035.77,-1315.27)">
			<path class="st2" d="M1681.9,244.3c0-5.6-3.3-9-8.7-9c-69.1,0-528.4,0-643.6,0c-5.4,0-12,3.4-17.4,9c-5.4,5.6-8.7,12.5-8.7,18.1
				v542.2c0,5.6,3.3,9,8.7,9h643.6c5.4,0,12-3.4,17.4-9c5.4-5.6,8.7-12.5,8.7-18.1V244.3z"/>
		</g>
		<g transform="matrix(2.11019,1.21832,-1.12946e-16,2.34942,-2066.02,-1297.81)">
			<path class="st0" d="M1684.8,241.2c0-5.6-3.3-9-8.7-9c-69.1,0-528.4,0-643.6,0c-5.4,0-12,3.4-17.4,9c-5.4,5.6-8.7,12.5-8.7,18.1
				v542.2c0,5.6,3.3,9,8.7,9l643.6,0c5.4,0,12-3.4,17.4-9c5.4-5.6,8.7-12.5,8.7-18.1V241.2z"/>
		</g>
	</g>
	<g transform="matrix(1.69417,0,0,1.69417,-313.78,414.926)">
		<g transform="matrix(1,0,0,1,488.595,-129.715)">
			<g transform="matrix(1.59419,0.920408,-5.57461e-17,1.50659,-1311.1,-865.587)">
				<path class="st3" d="M1227.9,378.5h-179.3l-12.8,15.6l12.8,159.2l166.5,15.6l12.8-15.6V378.5z"/>
			</g>
			<g transform="matrix(1.59419,0.920408,-5.57461e-17,1.50659,-1336.78,-850.761)">
				<polygon class="st4" points="1051.9,374.4 1231.2,374.4 1231.2,549.2 1051.9,549.2 				"/>
			</g>
			<g transform="matrix(1,0,0,1,-49.5839,71.0329)">
				<g transform="matrix(0.394967,0.228035,1.52018e-18,0.213806,882.279,749.257)">
					<polygon class="st5" points="-1003.4,1347.7 -824.1,1347.7 -824.1,1522.5 -1003.4,1522.5 					"/>
				</g>
				<g transform="matrix(0.394967,0.228035,1.52018e-18,0.0798793,896.726,795.161)">
					<polygon class="st5" points="-1011,3264.4 -831.7,3264.4 -831.7,3439.2 -1011,3439.2 					"/>
				</g>
				<g transform="matrix(0.712137,0,0,0.712137,471.241,387.381)">
					<path class="st6" d="M120.2,681.4v-32.8l-11.5,6.7V708l27.6-15.9v-19.9L120.2,681.4z"/>
				</g>
				<g transform="matrix(0.712137,0,0,0.712137,381.932,336.026)">
					<path class="st5" d="M146.1,696.4v-32.8l-11.5,6.7v52.7l27.6-15.9v-19.9L146.1,696.4z"/>
				</g>
				<g transform="matrix(0.394967,0.228035,1.52018e-18,0.213806,871.967,755.211)">
					<polygon class="st3" points="-998,1336.2 -818.7,1336.2 -818.7,1510.9 -998,1510.9 					"/>
				</g>
			</g>
		</g>
		<g transform="matrix(1,0,0,1,488.595,-551.414)">
			<g transform="matrix(1.59419,0.920408,-5.57461e-17,1.50659,-1311.1,-865.587)">
				<path class="st3" d="M1227.9,436.4h-179.3l-12.8,15.6l12.8,159.2l166.5,15.6l12.8-15.6V436.4z"/>
			</g>
			<g transform="matrix(1.59419,0.920408,-5.57461e-17,1.50659,-1336.78,-850.761)">
				<polygon class="st4" points="1051.9,432.3 1231.2,432.3 1231.2,607.1 1051.9,607.1 				"/>
			</g>
			<g transform="matrix(1,0,0,1,-49.5839,71.0329)">
				<g transform="matrix(0.394967,0.228035,1.52018e-18,0.213806,882.279,749.257)">
					<polygon class="st5" points="-1003.4,1755.9 -824.1,1755.9 -824.1,1930.7 -1003.4,1930.7 					"/>
				</g>
				<g transform="matrix(0.394967,0.228035,1.52018e-18,0.0798793,896.726,795.161)">
					<polygon class="st5" points="-1011,4357.1 -831.7,4357.1 -831.7,4531.9 -1011,4531.9 					"/>
				</g>
				<g transform="matrix(0.712137,0,0,0.712137,471.241,387.381)">
					<path class="st6" d="M120.2,804v-32.8l-11.5,6.7v52.7l27.6-15.9v-19.9L120.2,804z"/>
				</g>
				<g transform="matrix(0.712137,0,0,0.712137,381.932,336.026)">
					<path class="st5" d="M146.1,818.9v-32.8l-11.5,6.7v52.7l27.6-15.9v-19.9L146.1,818.9z"/>
				</g>
				<g transform="matrix(0.394967,0.228035,1.52018e-18,0.213806,871.967,755.211)">
					<polygon class="st3" points="-998,1744.4 -818.7,1744.4 -818.7,1919.2 -998,1919.2 					"/>
				</g>
			</g>
		</g>
		<g transform="matrix(1,0,0,1,948.354,-285.972)">
			<g transform="matrix(1.59419,0.920408,-5.57461e-17,1.50659,-1311.1,-865.587)">
				<path class="st3" d="M1168.2,436.4H988.9L976.1,452l12.8,159.2l166.5,15.6l12.8-15.6V436.4z"/>
			</g>
			<g transform="matrix(1.59419,0.920408,-5.57461e-17,1.50659,-1336.78,-850.761)">
				<polygon class="st0" points="992.2,432.3 1171.5,432.3 1171.5,607.1 992.2,607.1 				"/>
			</g>
			<g transform="matrix(1,0,0,1,-49.5839,71.0329)">
				<g transform="matrix(0.394967,0.228035,1.52018e-18,0.213806,882.279,749.257)">
					<polygon class="st5" points="-1244.4,1755.9 -1065,1755.9 -1065,1930.7 -1244.4,1930.7 					"/>
				</g>
				<g transform="matrix(0.394967,0.228035,1.52018e-18,0.0798793,896.726,795.161)">
					<polygon class="st5" points="-1251.9,4357.1 -1072.6,4357.1 -1072.6,4531.9 -1251.9,4531.9 					"/>
				</g>
				<g transform="matrix(0.712137,0,0,0.712137,471.241,387.381)">
					<path class="st6" d="M-13.5,726.9V694l-11.5,6.7v52.7l27.6-15.9v-19.9L-13.5,726.9z"/>
				</g>
				<g transform="matrix(0.712137,0,0,0.712137,381.932,336.026)">
					<path class="st5" d="M12.5,741.8V709L1,715.6v52.7l27.6-15.9v-19.9L12.5,741.8z"/>
				</g>
				<g transform="matrix(0.394967,0.228035,1.52018e-18,0.213806,871.967,755.211)">
					<polygon class="st3" points="-1239,1744.4 -1059.6,1744.4 -1059.6,1919.2 -1239,1919.2 					"/>
				</g>
			</g>
		</g>
	</g>
	<g transform="matrix(1.69417,0,0,1.69417,387.91,-333.596)">
		<g transform="matrix(1.59419,0.920408,-5.57461e-17,1.20002,-776.927,-231.182)">
			<polygon class="st7" points="988.9,428 1168.2,428 1168.2,602.7 988.9,602.7 			"/>
		</g>
		<g transform="matrix(0.988872,-0.570925,1.30315e-14,2.92459,-690.162,-5175.02)">
			<polygon class="st8" points="1306.3,2471.3 1506.4,2471.3 1506.4,2543 1306.3,2543 			"/>
		</g>
		<g transform="matrix(0.785383,-0.453441,1.30695e-14,2.92459,-147.753,-5459.38)">
			<polygon class="st9" points="1006,2469.2 1206.1,2469.2 1206.1,2540.9 1006,2540.9 			"/>
		</g>
		<g transform="matrix(0.590259,0,0,0.590259,2896.27,-1434.09)">
			<g transform="matrix(0.801188,0.462566,-5.50906e-17,1.14595,-2378.13,165.785)">
				<path class="st10" d="M-949.7,3833H-1535l-26.8,21.6l26.8,585.5l558.5,21.6l26.8-21.6V3833z"/>
			</g>
			<g transform="matrix(0.801188,0.462566,-5.50906e-17,1.14595,-2405.18,181.399)">
				<polygon class="st11" points="-1528,3827.4 -942.8,3827.4 -942.8,4434.5 -1528,4434.5 				"/>
			</g>
			<g transform="matrix(0.316726,0.182862,-2.17785e-17,0.446741,-1921.48,2844.91)">
				<path class="st12" d="M-4652.2,4675.5c0-14.3-10.8-23.1-28.2-23.1h-472.3c-17.5,0-39,8.8-56.5,23.1
					c-17.5,14.3-28.2,31.9-28.2,46.2c0,135.6,0,430.1,0,514.6c0,14.3,10.8,23.1,28.2,23.1c84.6,0,338.4,0,472.3,0
					c17.5,0,39-8.8,56.5-23.1c17.5-14.3,28.2-31.9,28.2-46.2C-4652.2,5054.5-4652.2,4760-4652.2,4675.5z"/>
			</g>
			<g transform="matrix(0.396278,0.228791,-3.21092e-18,0.0589361,-1990.74,4474.88)">
				<path class="st12" d="M-3426,12478.9c0-93-7.4-150.2-19.3-150.2c-79.1,0-380,0-507.9,0c-12,0-26.7,57.3-38.7,150.2
					c-12,93-19.3,207.5-19.3,300.4c0,2.1,0,4.2,0,6.3c0,93,7.4,150.2,19.3,150.2c79.1,0,380,0,507.9,0c12,0,26.7-57.3,38.7-150.2
					c12-93,19.3-207.5,19.3-300.4C-3426,12483-3426,12481-3426,12478.9z"/>
			</g>
			<g transform="matrix(0.615058,0.355104,-3.4194e-18,0.0589361,-2181.23,4448.55)">
				<path class="st13" d="M-1689.5,12185.1c0-93-4.8-150.2-12.5-150.2c-70.4,0-419.6,0-535.4,0c-7.7,0-17.2,57.3-24.9,150.2
					c-7.7,93-12.5,207.5-12.5,300.4c0,2.1,0,4.2,0,6.3c0,93,4.8,150.2,12.5,150.2c70.4,0,419.6,0,535.4,0
					c7.7,0,17.2-57.3,24.9-150.2c7.7-93,12.5-207.5,12.5-300.4C-1689.5,12189.3-1689.5,12187.2-1689.5,12185.1z"/>
			</g>
			<g transform="matrix(0.615058,0.355104,-3.4194e-18,0.0589361,-2181.23,4532.19)">
				<path class="st13" d="M-1689.5,11891.4c0-93-4.8-150.2-12.5-150.2c-70.4,0-419.6,0-535.4,0c-7.7,0-17.2,57.3-24.9,150.2
					c-7.7,93-12.5,207.5-12.5,300.4c0,2.1,0,4.2,0,6.3c0,93,4.8,150.2,12.5,150.2c70.4,0,419.6,0,535.4,0
					c7.7,0,17.2-57.3,24.9-150.2c7.7-93,12.5-207.5,12.5-300.4C-1689.5,11895.6-1689.5,11893.5-1689.5,11891.4z"/>
			</g>
			<g transform="matrix(0.248622,0.143542,-3.07021e-18,0.0589361,-1591.76,4307.72)">
				<path class="st12" d="M-6550.5,13874.9c0-93-11.8-150.2-30.8-150.2c-85.4,0-327.6,0-461.9,0c-19.1,0-42.6,57.3-61.7,150.2
					c-19.1,93-30.8,207.5-30.8,300.4c0,2.1,0,4.2,0,6.3c0,93,11.8,150.2,30.8,150.2c85.4,0,327.6,0,461.9,0
					c19.1,0,42.6-57.3,61.7-150.2c19.1-93,30.8-207.5,30.8-300.4C-6550.5,13879-6550.5,13877-6550.5,13874.9z"/>
			</g>
			<g transform="matrix(0.248622,0.143542,-3.07021e-18,0.0589361,-1591.76,4389.37)">
				<path class="st13" d="M-6550.5,13588.1c0-93-11.8-150.2-30.8-150.2c-85.4,0-327.6,0-461.9,0c-19.1,0-42.6,57.3-61.7,150.2
					c-19.1,93-30.8,207.5-30.8,300.4c0,2.1,0,4.2,0,6.3c0,93,11.8,150.2,30.8,150.2c85.4,0,327.6,0,461.9,0
					c19.1,0,42.6-57.3,61.7-150.2c19.1-93,30.8-207.5,30.8-300.4C-6550.5,13592.3-6550.5,13590.2-6550.5,13588.1z"/>
			</g>
		</g>
		<g transform="matrix(0.590259,0,0,0.590259,2814,-1265.17)">
			<g transform="matrix(0.801188,0.462566,-5.50906e-17,1.14595,-2378.13,165.785)">
				<path class="st10" d="M-913.7,3766.8H-1499l-26.8,21.6l26.8,585.5l558.5,21.6l26.8-21.6V3766.8z"/>
			</g>
			<g transform="matrix(0.801188,0.462566,-5.50906e-17,1.14595,-2405.18,181.399)">
				<polygon class="st11" points="-1492,3761.2 -906.7,3761.2 -906.7,4368.3 -1492,4368.3 				"/>
			</g>
			<g transform="matrix(0.316726,0.182862,-2.17785e-17,0.446741,-1921.48,2844.91)">
				<path class="st12" d="M-4561.1,4505.6c0-14.3-10.8-23.1-28.2-23.1h-472.3c-17.5,0-39,8.8-56.5,23.1
					c-17.5,14.3-28.2,31.9-28.2,46.2c0,135.6,0,430.1,0,514.6c0,14.3,10.8,23.1,28.2,23.1c84.6,0,338.4,0,472.3,0
					c17.5,0,39-8.8,56.5-23.1c17.5-14.3,28.2-31.9,28.2-46.2C-4561.1,4884.6-4561.1,4590.2-4561.1,4505.6z"/>
			</g>
			<g transform="matrix(0.396278,0.228791,-3.21092e-18,0.0589361,-1990.74,4474.88)">
				<path class="st12" d="M-3353.2,11191.3c0-93-7.4-150.2-19.4-150.2c-79.1,0-380,0-507.9,0c-12,0-26.7,57.3-38.7,150.2
					c-12,93-19.3,207.5-19.3,300.4c0,2.1,0,4.2,0,6.3c0,93,7.4,150.2,19.3,150.2c79.1,0,380,0,507.9,0c12,0,26.7-57.3,38.7-150.2
					c12-93,19.4-207.5,19.4-300.4C-3353.2,11195.4-3353.2,11193.3-3353.2,11191.3z"/>
			</g>
			<g transform="matrix(0.615058,0.355104,-3.4194e-18,0.0589361,-2181.23,4448.55)">
				<path class="st13" d="M-1642.6,10897.5c0-93-4.8-150.2-12.5-150.2c-70.4,0-419.6,0-535.4,0c-7.7,0-17.2,57.3-24.9,150.2
					c-7.7,93-12.5,207.5-12.5,300.4c0,2.1,0,4.2,0,6.3c0,93,4.8,150.2,12.5,150.2c70.4,0,419.6,0,535.4,0
					c7.7,0,17.2-57.3,24.9-150.2c7.7-93,12.5-207.5,12.5-300.4C-1642.6,10901.7-1642.6,10899.6-1642.6,10897.5z"/>
			</g>
			<g transform="matrix(0.615058,0.355104,-3.4194e-18,0.0589361,-2181.23,4532.19)">
				<path class="st13" d="M-1642.6,10603.8c0-93-4.8-150.2-12.5-150.2c-70.4,0-419.6,0-535.4,0c-7.7,0-17.2,57.3-24.9,150.2
					c-7.7,93-12.5,207.5-12.5,300.4c0,2.1,0,4.2,0,6.3c0,93,4.8,150.2,12.5,150.2c70.4,0,419.6,0,535.4,0
					c7.7,0,17.2-57.3,24.9-150.2c7.7-93,12.5-207.5,12.5-300.4C-1642.6,10608-1642.6,10605.9-1642.6,10603.8z"/>
			</g>
			<g transform="matrix(0.248622,0.143542,-3.07021e-18,0.0589361,-1591.76,4307.72)">
				<path class="st12" d="M-6434.4,12587.3c0-93-11.8-150.2-30.8-150.2c-85.4,0-327.6,0-461.9,0c-19.1,0-42.6,57.3-61.7,150.2
					c-19.1,93-30.8,207.5-30.8,300.4c0,2.1,0,4.2,0,6.3c0,93,11.8,150.2,30.8,150.2c85.4,0,327.6,0,461.9,0
					c19.1,0,42.6-57.3,61.7-150.2c19.1-93,30.8-207.5,30.8-300.4C-6434.4,12591.4-6434.4,12589.3-6434.4,12587.3z"/>
			</g>
			<g transform="matrix(0.248622,0.143542,-3.07021e-18,0.0589361,-1591.76,4389.37)">
				<path class="st13" d="M-6434.4,12300.5c0-93-11.8-150.2-30.8-150.2c-85.4,0-327.6,0-461.9,0c-19.1,0-42.6,57.3-61.7,150.2
					c-19.1,93-30.8,207.5-30.8,300.4c0,2.1,0,4.2,0,6.3c0,93,11.8,150.2,30.8,150.2c85.4,0,327.6,0,461.9,0
					c19.1,0,42.6-57.3,61.7-150.2c19.1-93,30.8-207.5,30.8-300.4C-6434.4,12304.7-6434.4,12302.6-6434.4,12300.5z"/>
			</g>
		</g>
		<g transform="matrix(0.896628,-0.517668,1.29118e-14,2.89427,-107.09,-5035.63)">
			<path class="st3" d="M1310.4,2439.9l-201.2-0.2v71.7h200.2l20.6-64.6L1310.4,2439.9z"/>
		</g>
		<g transform="matrix(1,0,0,1,310.268,639.508)">
			<g transform="matrix(1.59419,0.920408,-5.57461e-17,1.50659,-1311.1,-865.587)">
				<path class="st3" d="M1197.2,352.2h-179.3l-12.8,15.6l12.8,159.2l166.5,15.6l12.8-15.6V352.2z"/>
			</g>
			<g transform="matrix(1.59419,0.920408,-5.57461e-17,1.50659,-1336.78,-850.761)">
				<polygon class="st4" points="1021.3,348.1 1200.6,348.1 1200.6,522.9 1021.3,522.9 				"/>
			</g>
			<g transform="matrix(1,0,0,1,-49.5839,71.0329)">
				<g transform="matrix(0.394967,0.228035,1.52018e-18,0.213806,882.279,749.257)">
					<polygon class="st5" points="-1127,1162.6 -947.7,1162.6 -947.7,1337.4 -1127,1337.4 					"/>
				</g>
				<g transform="matrix(0.394967,0.228035,1.52018e-18,0.0798793,896.726,795.161)">
					<polygon class="st5" points="-1134.6,2769 -955.3,2769 -955.3,2943.7 -1134.6,2943.7 					"/>
				</g>
				<g transform="matrix(0.712137,0,0,0.712137,471.241,387.381)">
					<path class="st6" d="M51.6,586.3v-32.8l-11.5,6.7v52.7l27.6-15.9V577L51.6,586.3z"/>
				</g>
				<g transform="matrix(0.712137,0,0,0.712137,381.932,336.026)">
					<path class="st5" d="M77.6,601.2v-32.8L66,575v52.7l27.6-15.9V592L77.6,601.2z"/>
				</g>
				<g transform="matrix(0.394967,0.228035,1.52018e-18,0.213806,871.967,755.211)">
					<polygon class="st3" points="-1121.6,1151.1 -942.3,1151.1 -942.3,1325.8 -1121.6,1325.8 					"/>
				</g>
			</g>
		</g>
		<g transform="matrix(0.887127,-0.512183,1.30505e-14,2.92459,-58.485,-5123.24)">
			<polygon class="st4" points="1089.2,2441.8 1289.4,2441.8 1289.4,2513.5 1089.2,2513.5 			"/>
		</g>
	</g>
	<g transform="matrix(-3.47237,0,0,3.47237,7804.72,-4134.73)">
		<g transform="matrix(2,0,0,2,342.952,1093.66)">
			<g class="st14">
				<g transform="matrix(-0.241778,1.04127,0.959318,0.222748,369.116,586.311)">
					<path d="M-151.8,211.5c-7.6,0-13.8,14.8-13.8,33c0,18.2,6.2,33,13.8,33c7.6,0,13.8-14.8,13.8-33
						C-138,226.2-144.2,211.5-151.8,211.5"/>
				</g>
			</g>
		</g>
		<g>
			<g transform="matrix(-1.79654,0.878885,0.878885,1.79654,987.348,2330.57)">
				<path class="st15" d="M-344.9-17.2h9.1c6.6,12.3,7.6,11.2,12.1,20l-14.2-1.4C-337.9-3.4-340.3-7-344.9-17.2"/>
			</g>
			<g transform="matrix(2,0,0,2,342.952,1093.66)">
				<g>
					<defs>
						<path id="SVGID_1_" d="M616.2,455.4c-0.5,14-1.9,13.4-2.1,23.3l12.2-7.5c-2-4.4-1.5-8.7-1.9-19.9L616.2,455.4z"/>
					</defs>
					<clipPath id="SVGID_2_">
						<use xlink:href="#SVGID_1_"  style="overflow:visible;"/>
					</clipPath>
					<g class="st16">
						<g class="st14">
							<g transform="matrix(1,0,0,1,309.392,600.974)">
								<path class="st17" d="M302.9-134c3,1.9,6.8,0.6,10,1.3c0.3,0.1,0.6,0.2,0.9,0.3c1.6,0.8,1.3,2.5,2.1,3.8
									c0.9,1.5,2.5,0.8,3.5-0.2c0.4-0.4,0.7-0.9,1-1.4c0.4-0.7,0.6-1.5,0.8-2.2c0.2-1.2,0.2-2.5-0.2-3.6c-0.2-0.7-0.5-1.4-1-2.1
									c-2.8-4.1-8.3-4.3-12.7-2.9c-2.3,0.7-4.3,1.9-5.5,4.1L302.9-134z"/>
							</g>
						</g>
					</g>
				</g>
			</g>
		</g>
		<g transform="matrix(2,0,0,2,995.09,2341.66)">
			<path class="st18" d="M299.4-156.9c-2,7.2-6.8,6.2-11.3,6c-2.8,2.1-2.2,6.5-0.5,8.1c4.1,3.8,23-5.2,25.9-9.9
				c2.8-2.5,4.8-5.6-6.1-3.4C304.2-155.5,304.3-156.9,299.4-156.9"/>
		</g>
		<g>
			<g transform="matrix(2,0,0,2,1031.1,2300.34)">
				<path class="st19" d="M295.7-260.5L271-258c-4,24.2,5.1,35.7,4.7,56.6c-5.5,18.7-0.6,28.4-8,61.6c-0.4,2.6,2.7,3.6,6.2,3.2
					c4-0.6,8.5-3,9.1-7.2c0,0,9.3-38.4,10.6-60.4C295.1-230.2,295.7-260.5,295.7-260.5"/>
			</g>
			<g transform="matrix(2,0,0,2,342.952,1093.66)">
				<g>
					<defs>
						<path id="SVGID_3_" d="M615.1,345.4c-4,24.2,5.1,35.7,4.7,56.6c-5.5,18.7-0.6,28.4-8,61.6c-0.4,2.6,2.7,3.6,6.2,3.2
							c4-0.6,8.5-3,9.1-7.2c0,0,9.3-38.4,10.6-60.4c1.5-26,2.1-56.3,2.1-56.3L615.1,345.4z"/>
					</defs>
					<clipPath id="SVGID_4_">
						<use xlink:href="#SVGID_3_"  style="overflow:visible;"/>
					</clipPath>
					<g class="st20">
						<g class="st14">
							<g transform="matrix(1,0,0,1,301.654,603.235)">
								<path class="st17" d="M304.5-255.8c4,5,5.8,13.1,11.6,15.8c3.8,1.8,10.9,0.1,13.1,4.3c1.4,2.8-1.8,8.6,1.2,9
									c3.3,0.4,2.4,51.8-12.6,85.6c-4,9,18.6,8.7,26.5,9.7c5.8,0.7-8.3-1.4-5.3-5.4c6.6-8.6,10.5-18.9,13.7-29.2
									c5.4-17.2,8.2-35.1,8.3-53.2c0.1-10.8-0.2-25.9-8.9-33.8c-3.3-3-7.6-4.3-11.8-5.5c-8.6-2.3-17.5-3-26.4-2L304.5-255.8z"/>
							</g>
						</g>
					</g>
				</g>
			</g>
		</g>
		<g>
			<g transform="matrix(-1.98239,0.26484,0.26484,1.98239,1015.8,2346.36)">
				<path class="st15" d="M-330-122h9.1c3.8,12.8,6,10.7,9,20.6l-13.7-1.4C-325.7-107.6-325.4-111.8-330-122"/>
			</g>
			<g transform="matrix(2,0,0,2,342.952,1093.66)">
				<g>
					<defs>
						<path id="SVGID_5_" d="M638.3,463c-2.1,13.2-4.5,11.4-6.1,21.6l13.4-3.2c-0.5-4.8-1.4-9,1.7-19.7L638.3,463z"/>
					</defs>
					<clipPath id="SVGID_6_">
						<use xlink:href="#SVGID_5_"  style="overflow:visible;"/>
					</clipPath>
					<g class="st21">
						<g class="st14">
							<g transform="matrix(1,0,0,1,333.314,612.077)">
								<path class="st17" d="M297.9-136.5c3,2,6.8,0.7,10,1.4c0.3,0.1,0.6,0.2,0.9,0.3c1.6,0.8,1.2,2.6,2,4
									c0.9,1.6,2.5,0.9,3.5-0.1c0.4-0.4,0.7-0.9,1-1.5c0.4-0.7,0.7-1.5,0.8-2.4c0.2-1.3,0.2-2.6-0.1-3.8c-0.2-0.8-0.5-1.5-0.9-2.2
									c-2.7-4.4-8.3-4.7-12.6-3.2c-2.4,0.6-4.4,2.1-5.6,4.2L297.9-136.5z"/>
							</g>
						</g>
					</g>
				</g>
			</g>
		</g>
		<g transform="matrix(2,0,0,2,1045.13,2361.82)">
			<path class="st18" d="M294.3-156.3c-4.5,6-8,3.6-12.1,1.8c-3.4,0.9-2.3,6.7-1.4,8.9c1.3,3.2,24.3,0.2,28.7-3.1
				c5.7-3.2,3.1-6.2-6.6-5.3C299.7-153.7,298.8-154.4,294.3-156.3"/>
		</g>
		<g>
			<g transform="matrix(2,0,0,2,1054.78,2328.12)">
				<path class="st19" d="M293.3-263.7l-23.5,5.8c-7.3,23.4,26.9,34.3,23.6,55c-8,17.8-4,26.4-15.8,58.2c-1.6,5.4,13.4,5.8,15.7-1.9
					c0,0,14.5-36.8,18.8-58.4C317.1-230.6,293.3-263.7,293.3-263.7"/>
			</g>
			<g transform="matrix(2,0,0,2,342.952,1093.66)">
				<g>
					<defs>
						<path id="SVGID_7_" d="M625.6,359.3c-7.3,23.4,26.9,34.3,23.6,55c-8,17.8-4,26.4-15.8,58.2c-1.6,5.4,13.4,5.8,15.7-1.9
							c0,0,14.5-36.8,18.8-58.4c5-25.6-18.8-58.6-18.8-58.6L625.6,359.3z"/>
					</defs>
					<clipPath id="SVGID_8_">
						<use xlink:href="#SVGID_7_"  style="overflow:visible;"/>
					</clipPath>
					<g class="st22">
						<g class="st14">
							<g transform="matrix(1,0,0,1,318.079,607.57)">
								<path class="st17" d="M301.1-246c2.7,4.1,33.8,5.5,42.2,33.1c7.6,24.7-7.8,37-12.9,51.8c-2.9,8.4-1.6,18.9-5.8,26.8
									c-3.6,6.8,11.6,14.2,19,13.2c5.7-0.8,10.8-4.8,14.5-9.1c13.6-15.7,16.1-39.8,15.6-59.7c-0.2-6.5-1.8-13.5-3.2-19.7
									c-3.2-14.7-6.5-30.9-16.5-42.7c-3-3.5-6.7-6.9-11.2-8.1c-9.4-2.5-39,0-43,8.5L301.1-246z"/>
							</g>
						</g>
					</g>
				</g>
			</g>
		</g>
		<g>
			<g transform="matrix(-0.21041,0.12148,1.3487e-17,0.280547,1764.82,1306.47)">
				<path class="st15" d="M599.4,714.8c1.5,10.5,36.1-0.5,15.3,26.3c0,0-29.6-12-37.2,4.7c-7.3,16.2,15.8,8.8,19,24.4
					c4.2,20.3,26.1,25.8,26.1,25.8l46.9-21.1c0,0,13.3-48.6,7.4-59.5C663.4,690.4,597.7,702.9,599.4,714.8z"/>
			</g>
			<g transform="matrix(-0.249405,0.143994,1.59865e-17,0.332539,1898.4,1220.94)">
				<path class="st23" d="M1259.5,890.4c0,0-84.4-23.5-103-58.7c-24.7-47-42-160.7-42-160.7c-2-9.6-55.1,12.9-60.6,31.4
					c0,0-27.6,169.8,6.8,215.2s199.6,56.8,199.6,56.8L1259.5,890.4z"/>
			</g>
		</g>
		<g>
			<g transform="matrix(-1.51552,-1.30506,-1.30506,1.51552,943.477,1987.48)">
				<path class="st23" d="M-172.7-331.9c11.8-3.7,25.6,7.6,25.3,12.2c-0.8,11.5-22.2,20-25.3,42.2c-1.2,8.6-48.4-14.4-33.9-21.1
					C-176.4-312.7-187.6-321.6-172.7-331.9"/>
			</g>
			<g transform="matrix(2,0,0,2,342.952,1093.66)">
				<g>
					<defs>
						<path id="SVGID_9_" d="M620.6,300.9c-6.9,9.2,3.7,29.6-8.4,48.5c-4.7,7.3,46,20.7,39.5,6.1c-13.7-30.4,0.6-29.9-4-47.3
							c-4.2-6.8-13.1-9.4-19.6-9.4C624.5,298.7,621.6,299.5,620.6,300.9z"/>
					</defs>
					<clipPath id="SVGID_10_">
						<use xlink:href="#SVGID_9_"  style="overflow:visible;"/>
					</clipPath>
					<g class="st24">
						<g class="st14">
							<g transform="matrix(1,0,0,1,364.828,471.99)">
								<path class="st17" d="M291.4-160.6c-2.6,0.4-5.3,2.8-7.2,4.4c-1.9,1.5-3.6,3.3-4.9,5.4c-3.9,6.4-2.4,14.5-0.4,21.2
									c1,3.3,2.5,6.6,2.4,10.1c-0.2,4.2-2.6,7-6.1,9.1c-1.2,0.7-2.6,1.3-3.8,2.1c-0.4,0.3-1.1,0.6-1.3,1.2
									c-0.3,1.3,3.3,1.5,3.9,1.6c2.9,0.2,5.7,0.1,8.6-0.4c3.6-0.5,7-1.8,10.1-3.6c9.9-6.4,13.4-19.8,12.8-31
									c-0.6-9.4-4.2-20-13.7-23.6L291.4-160.6z"/>
							</g>
						</g>
					</g>
				</g>
			</g>
		</g>
		<g>
			<g transform="matrix(-1.99918,0.277876,0.292551,1.96016,1151.37,1839.74)">
				<path class="st15" d="M-291.3-48.6l-4.2,4.5c0.3-0.9-2.9-1.5-4.9-3.8c-1-1.2,0.6-3.7,0.3-6.4c-0.3-2.3-3.4-3.9-2-5.3
					c1.6-1.6,6.9,8.7,7.5,7.5c0,0-0.1-4.6,1.6-3.7C-292.2-55.3-291.3-48.6-291.3-48.6z"/>
			</g>
			<g transform="matrix(1.97319,-0.326402,0.326402,1.97319,1068.46,1840.91)">
				<path class="st23" d="M341-30.6c0,0-11.4,28.6-25.2,30.3c-8.4,1-25.1,2-33.3-2.7c-4.1-2.3,2.9-20.7,7.5-18.1
					c11.1,6.1,27.1,4.3,27.1,4.3l18.2-18.4C338.1-35.1,340.5-33.5,341-30.6z"/>
			</g>
		</g>
		<g>
			<g transform="matrix(-1.95935,-0.401181,-0.401181,1.95935,1001.14,1877.38)">
				<path class="st15" d="M-281.2-160.2h6.7c-1.6,3.3-2,5.6-0.4,8.9c-1.7,2-4.2,2.2-7.8-0.2C-280.7-154.2-280.1-155.4-281.2-160.2"
					/>
			</g>
			<g transform="matrix(-1.95242,0.433648,0.433648,1.95242,1022.69,1868.68)">
				<path class="st15" d="M-310.4-39.4c-3.1,0.7-4.6,2.8-4.3,6.7c0.2,3.4,1.2,9,4.3,8.3c3-0.7,8-3.4,7-9.4
					C-304-37.6-307.4-40.1-310.4-39.4"/>
			</g>
			<g transform="matrix(2,0,0,2,1003.28,1882.15)">
				<path class="st17" d="M298.6-111.4c0-0.2,0-0.3,0-0.5c0-3.2,2.6-5.8,5.8-5.8c3.2,0,5.8,2.6,5.8,5.8c0,1.9-0.9,3.6-2.4,4.7
					c1.7,2.2,1.2,5.4-1.1,7.1c-0.1,0.1-0.2,0.1-0.3,0.2c2.9,2.7,3.1,7.3,0.4,10.2c-2.7,2.9-7.3,3.1-10.2,0.4
					c-0.3-0.3-0.6-0.6-0.8-0.9c-0.5,0.1-1,0.2-1.5,0.2c-4,0-7.2-3.2-7.2-7.2c0-4,3.2-7.2,7.2-7.2c0.1,0,0.3,0,0.4,0
					c-0.3-0.6-0.4-1.3-0.4-2C294.2-108.9,296.1-111.1,298.6-111.4"/>
			</g>
		</g>
	</g>
	<g transform="matrix(1,0,0,1,392.706,85.5608)">
		<g transform="matrix(1.9263,8.29606,-6.78414,1.57524,1416.8,2936.74)">
			<path class="st25" d="M-99.2,146.8c-7.6,0-13.8,14.8-13.8,33c0,18.2,6.2,33,13.8,33c7.6,0,13.8-14.8,13.8-33
				C-85.4,161.5-91.6,146.8-99.2,146.8"/>
		</g>
		<g transform="matrix(-3.29424,6.49777,6.49777,3.29424,1900.93,3109.43)">
			<path class="st2" d="M17.7-271.3c-4.3-0.8-9.7,3.1-6.6,10.1c3.8,8.5,2.6,18.5,6.6,16.6c4-1.9,4.5-8.8,5.1-16.4
				C23.5-268.7,22.5-270.4,17.7-271.3"/>
		</g>
		<g>
			<g transform="matrix(-7.21344,1.01952,1.01952,7.21344,1713.86,3164.18)">
				<path class="st26" d="M195.7-158.7h8c-0.6,4-1.2,8.1,0.5,11.6c0.1,4.5-7,3.8-9.1,1C197.3-149.7,196.9-153.9,195.7-158.7"/>
			</g>
			<g transform="matrix(7.21344,-1.01952,1.01952,7.21344,-1101.62,1681.62)">
				<g>
					<defs>
						<path id="SVGID_11_" d="M150.5,96.9c0.6,4,1.2,8.1-0.5,11.6c-0.1,4.5,7,3.8,9.1,1c-2.2-3.7-1.8-7.9-0.6-12.7H150.5z"/>
					</defs>
					<clipPath id="SVGID_12_">
						<use xlink:href="#SVGID_11_"  style="overflow:visible;"/>
					</clipPath>
					<g class="st27">
						<g class="st14">
							<g transform="matrix(1,0,0,1,364.581,246.765)">
								<path class="st17" d="M-205.9-142.2c-0.7,0.1-1.5,0.2-2.1,0.5c-2,0.6-4.3,1.5-5.1,3.6c-0.4,1.1,0,2.9-1,3.8
									c-1.1,1.1-2.5,0-3.2-1c-2.1-3.6-1.1-9,1.9-11.8c2.3-2.1,5.7-2.6,8.5-1.3c1.1,0.6,2,1.5,2.6,2.5L-205.9-142.2z"/>
							</g>
						</g>
					</g>
				</g>
			</g>
		</g>
		<g>
			<g transform="matrix(7.28513,0,0,7.28513,1694.52,3096.48)">
				<path class="st2" d="M-221.2-208.3l-21.7,0.8c-2.7,17.8,11.6,31,15,50.5c2.2,12.8,3.5,25.8,3.9,38.8c0.7,7.5,14.4,6.2,14.3-1.2
					c0,0-0.2-27.6-0.4-40.4C-210.4-179.4-221.2-208.3-221.2-208.3"/>
			</g>
			<g transform="matrix(7.28513,0,0,7.28513,-878.544,1290.97)">
				<g>
					<defs>
						<path id="SVGID_13_" d="M110.3,40.4c-2.7,17.8,11.6,31,15,50.5c2.2,12.8,3.5,25.8,3.9,38.8c0.7,7.5,14.4,6.2,14.3-1.2
							c0,0-0.2-27.6-0.4-40.4C142.8,68.5,132,39.5,132,39.5L110.3,40.4z"/>
					</defs>
					<clipPath id="SVGID_14_">
						<use xlink:href="#SVGID_13_"  style="overflow:visible;"/>
					</clipPath>
					<g class="st28">
						<g class="st14">
							<g transform="matrix(1,0,0,1,356.066,239.437)">
								<path class="st17" d="M-221.8-207.6c0.5,6.5,4.8,13.7-7.6,17.3c-9.8,2.8-7.4,8.7-7.1,9.3c1.5,2.5,3.2,4.3,4.2,5.9
									c3.1,4.8,5.1,10.3,5.8,16c0.3,2.9,0.3,5.9,0.2,8.8c0,0.8-0.5,2.9,0,3.5c0.4,0.5,1.8-2.4,1.9-2.6c0.1-0.1,0.5-0.9,0.7-0.6
									c0.7,0.8-0.8,3.9-1,4.7c-1.5,4.3-1.6,8.2-0.9,12.8c0.7,4.3,1.8,8.6,1.9,13c0.1,2.8-1.1,5.8-0.7,8.6c0.3,2,3,5.6,1.2,7.3
									c-3.1,3-8.8-1.9-10.9-4c-0.8-0.8-1.5-1.6-2.2-2.5c-0.8-1.1-1.6-2.2-2.3-3.3c-0.8-1.3-1.5-2.6-2.2-3.9
									c-2.5-4.7-4.7-9.5-6.6-14.5c-3.4-8.5-6-17.3-7.8-26.2c-3.2-15.8-2.7-34.3,8.2-47.1c3.6-4.3,8.6-8,14.1-9.4
									c6.4-1.7,13.9,0.6,17.6,6.3L-221.8-207.6z"/>
							</g>
						</g>
					</g>
				</g>
			</g>
		</g>
		<g transform="matrix(-4.64753,5.01944,6.4838,4.2825,1617,3143.13)">
			<path class="st2" d="M43.4-243.6c-4.3-0.8-9.7,3.1-6.6,10.1c3.8,8.5,2.6,18.5,6.6,16.6c4-1.9,4.5-8.8,5.1-16.4
				C49.2-241,48.2-242.7,43.4-243.6"/>
		</g>
		<g>
			<g transform="matrix(-8.0242,-0.640928,-0.0985759,6.60625,1405.74,3151.46)">
				<path class="st26" d="M186.6-121h8c-0.6,4-1.2,8.1,0.5,11.6c0.1,4.5-7,3.8-9.1,1C188.2-112.1,187.8-116.3,186.6-121"/>
			</g>
			<g transform="matrix(8.0242,0.640928,-0.0985759,6.60625,-1411.14,1235.98)">
				<g>
					<defs>
						<path id="SVGID_15_" d="M159.6,134.5c0.6,4,1.2,8.1-0.5,11.6c-0.1,4.5,7,3.8,9.1,1c-2.2-3.7-1.8-7.9-0.6-12.7H159.6z"/>
					</defs>
					<clipPath id="SVGID_16_">
						<use xlink:href="#SVGID_15_"  style="overflow:visible;"/>
					</clipPath>
					<g class="st29">
						<g class="st14">
							<g transform="matrix(1,0,0,1,364.581,246.765)">
								<path class="st17" d="M-196.8-104.6c-0.7,0.1-1.5,0.2-2.1,0.5c-2,0.6-4.3,1.5-5.1,3.6c-0.4,1.1,0,2.9-1,3.8
									c-1.1,1.1-2.5,0-3.2-1c-2.1-3.6-1.1-9,1.9-11.8c2.3-2.1,5.7-2.6,8.5-1.3c1.1,0.6,2,1.5,2.6,2.5L-196.8-104.6z"/>
							</g>
						</g>
					</g>
				</g>
			</g>
		</g>
		<g>
			<g transform="matrix(7.74886,2.1803,-1.37402,6.46253,1386.21,3080.28)">
				<path class="st2" d="M-209.2-151.3l-21.7,0.8c-2.7,17.8,11.6,31,15,50.5c2.2,12.8,3.5,25.8,3.9,38.8c0.7,7.5,14.4,6.2,14.3-1.2
					c0,0-0.2-27.6-0.4-40.4C-198.5-122.4-209.2-151.3-209.2-151.3"/>
			</g>
			<g transform="matrix(7.74886,2.1803,-1.37402,6.46253,-1010.11,708.568)">
				<g>
					<defs>
						<path id="SVGID_17_" d="M122.3,97.4c-2.7,17.8,11.6,31,15,50.5c2.2,12.8,3.5,25.8,3.9,38.8c0.7,7.5,14.4,6.2,14.3-1.2
							c0,0-0.2-27.6-0.4-40.4c-0.3-19.6-11.1-48.5-11.1-48.5L122.3,97.4z"/>
					</defs>
					<clipPath id="SVGID_18_">
						<use xlink:href="#SVGID_17_"  style="overflow:visible;"/>
					</clipPath>
					<g class="st30">
						<g class="st14">
							<g transform="matrix(1,0,0,1,356.066,239.437)">
								<path class="st17" d="M-209.8-150.5c0.5,6.5,4.8,13.7-7.6,17.3c-9.8,2.8-7.4,8.7-7.1,9.3c1.5,2.5,3.2,4.3,4.2,5.9
									c3.1,4.8,5.1,10.3,5.8,16c0.3,2.9,0.3,5.9,0.2,8.8c0,0.8-0.5,2.9,0,3.5c0.4,0.5,1.8-2.4,1.9-2.6c0.1-0.1,0.5-0.9,0.7-0.6
									c0.7,0.8-0.8,3.9-1,4.7c-1.5,4.3-1.6,8.2-0.9,12.8c0.7,4.3,1.8,8.6,1.9,13c0.1,2.8-1.1,5.8-0.7,8.6c0.3,2,3,5.6,1.2,7.3
									c-3.1,3-8.8-1.9-10.9-4c-0.8-0.8-1.5-1.6-2.2-2.5c-0.8-1.1-1.6-2.2-2.3-3.3c-0.8-1.3-1.5-2.6-2.2-3.9
									c-2.5-4.7-4.7-9.5-6.6-14.5c-3.4-8.5-6-17.3-7.8-26.2c-3.2-15.8-2.7-34.3,8.2-47.1c3.6-4.3,8.6-8,14.1-9.4
									c6.4-1.7,13.9,0.6,17.6,6.3L-209.8-150.5z"/>
							</g>
						</g>
					</g>
				</g>
			</g>
		</g>
		<g transform="matrix(6.18551,-5.74236,5.77149,6.21688,1885.73,2055.28)">
			<path class="st26" d="M-97-213.7c7.3-7.9,3.8-16-1.2-14.6c-3.2,0.9-10,4.7-13.8,8.3c-7.3,6.8-11.6,19.3-11.1,24.9
				c1.1,5.3,22.5,18.4,26.4,20.4c5.1,4.9,10.9-0.4,10.9-0.4s-3.8-0.6-6-1.4c0,0,2.1-1.4,2-1.9c-0.1-0.9-3.6-1.7-5.4-0.8l-15.9-16.4
				L-97-213.7z"/>
			<g>
				<defs>
					<path id="SVGID_19_" d="M-97-213.7c7.3-7.9,3.8-16-1.2-14.6c-3.2,0.9-10,4.7-13.8,8.3c-7.3,6.8-11.6,19.3-11.1,24.9
						c1.1,5.3,22.5,18.4,26.4,20.4c5.1,4.9,10.9-0.4,10.9-0.4s-3.8-0.6-6-1.4c0,0,2.1-1.4,2-1.9c-0.1-0.9-3.6-1.7-5.4-0.8
						l-15.9-16.4L-97-213.7z"/>
				</defs>
				<clipPath id="SVGID_20_">
					<use xlink:href="#SVGID_19_"  style="overflow:visible;"/>
				</clipPath>
				<g class="st31">
					<g transform="matrix(1,0,0,1,-316.054,-109.368)">
						<g class="st14">
							<g transform="matrix(1,0,0,1,291.506,95.1562)">
								<path class="st17" d="M-90.6-199.2c0,3.3,1.5,6.5,4.1,8.6c0.9,0.7,1.8,1.2,2.8,1.7c0.3,0.2,1,0.4,1.1,0.8
									c0.1,0.4-0.3,0.7-0.6,1c-0.7,0.6-1.3,1.2-1.8,1.8c-0.5,0.6-0.9,1.3-1.2,2.1c-0.1,0.3-0.1,0.9-0.5,1
									c-0.6,0.2-1.5-0.4-1.9-0.7c-0.1,0-1-0.6-0.8-0.3c0.5,1.1,1.9,1.4,2.7,2.2c0.4,0.4,0.5,1,0.9,1.4c1.5,1.8,3.9,3.7,6.4,3.1
									c0.6-0.2,1.2-0.4,1.8-0.7c0.8-0.5,1.5-1,2.1-1.6c1-0.9,1.9-2,2.6-3.2c2-3.1,3.1-7.1,2.2-10.8c-1.7-7.3-10.2-10.9-16.9-8.2
									L-90.6-199.2z"/>
							</g>
						</g>
					</g>
					<g transform="matrix(1,0,0,1,-25.0161,-40.7728)">
						<path class="st19" d="M-91.7-176.4c0,2.5,3.2,7.3,4.7,9c1.6,1.9,3.5,3.5,5.8,4.6c6.8,3.1,14.3-0.1,18.3-6s3.5-14.2-3.1-17.9
							c-1.3-0.7-2.8-1.2-4.3-1.5c-5.7-1.1-11,0.9-15.3,4.6L-91.7-176.4z"/>
					</g>
				</g>
			</g>
		</g>
		<g>
			<g transform="matrix(7.28513,0,0,7.28513,1632.43,2280.46)">
				<path class="st4" d="M-219.4-150c-10.4-3.7-22.8,1.2-26.4,4.4c-4.1,19.9-9.5,37.3-6.9,58c12.6,3.5,25,3.8,40.9-8.6
					c-4.7-9.8-5.5-18-5.6-25.7C-217.6-131.8-214.7-139.4-219.4-150"/>
			</g>
			<g transform="matrix(7.28513,0,0,7.28513,-878.544,1290.97)">
				<g>
					<defs>
						<path id="SVGID_21_" d="M98.9-9.7c-4.1,19.9-9.5,37.3-6.9,58c12.6,3.5,25,3.8,40.9-8.6c-4.7-9.8-5.5-18-5.6-25.7
							c-0.1-10,2.8-17.6-2-28.2c-2.7-1-5.4-1.3-8.2-1.3C109.1-15.5,101.6-12.1,98.9-9.7z"/>
					</defs>
					<clipPath id="SVGID_22_">
						<use xlink:href="#SVGID_21_"  style="overflow:visible;"/>
					</clipPath>
					<g class="st32">
						<g class="st14">
							<g transform="matrix(1,0,0,1,307.428,134.968)">
								<path class="st17" d="M-211.7-150.1c-0.2,8.7,15,1.4,0.4,26.1c-3,5,3.3,10.9,4.9,16.4c1.4,4.9,1.8,11.8,6.8,14.6
									c2.4,1.3,5.4,2.3,8,1.9c4.3-0.7,5.3-7.3,8.8-4.9c6,4.1,13-4.5,12.3,2.3c-0.2,2.2-3,1.7-4.3,2.9c-4.3,4.2-10.2,6.9-15.9,8.4
									c-4.7,1.2-9.6,1.8-14.5,1.6c-4.1,0-8.2-0.7-12-2.1c-2-0.7-3.9-1.7-5.6-2.9c-13.7-9.4-15.3-28.3-11.9-43.3
									c0.5-2.1,1-4.1,1.7-6.1c0.7-1.9,1.4-3.7,2.3-5.5c3.1-6.3,9.7-16.3,18.2-13.3L-211.7-150.1z"/>
							</g>
						</g>
					</g>
				</g>
			</g>
		</g>
		<g>
			<g transform="matrix(-7.27719,0.340007,0.340007,7.27719,1478.03,1792.73)">
				<path class="st33" d="M200.8-103h8.9c-0.5,5.3,0.6,8.7,1.9,10.2c-2.1,6.5-9.9,9.5-10.1-0.7C202.3-95,202.6-98,200.8-103"/>
			</g>
			<g transform="matrix(7.28513,0,0,7.28513,-878.544,1290.97)">
				<g>
					<defs>
						<path id="SVGID_23_" d="M109.2-24.2c0.8,5.3-0.2,8.7-1.4,10.2c2.4,6.4,10.4,9,10-1.2c-0.9-1.4-1.4-4.4,0.2-9.5L109.2-24.2z"/>
					</defs>
					<clipPath id="SVGID_24_">
						<use xlink:href="#SVGID_23_"  style="overflow:visible;"/>
					</clipPath>
					<g class="st34">
						<g class="st14">
							<g transform="matrix(1,0,0,1,321.854,52.1002)">
								<path class="st17" d="M-214.7-74.9c0.6,0.7,1.2,1.5,1.7,2.3c1,1.3,1.7,1.2,2.6,3.4c0.7,1.5,2.9,2.9,4.4,2
									c2.8-1.7,3.8,4.7,5.4,4.8c0.7,0,1.6-3,2.2-3.4c0.3-0.3,0.5-0.8,0.4-1.2c-0.1-1-0.3-2-0.5-2.9c-0.9-3.8-2.6-8.5-6.7-10.7
									c-4-2.1-9.4-0.6-10.2,3.4L-214.7-74.9z"/>
							</g>
						</g>
					</g>
				</g>
			</g>
		</g>
		<g>
			<g transform="matrix(-7.25436,-0.668776,-0.588024,6.37842,1495.89,1677.66)">
				<path class="st26" d="M216.9-74.7c-3.2,0.5-3.4,3.7-4.3,8.5c-1,5.6,0.3,9.4,3.5,8.9c3.2-0.5,8.9-4.7,8.1-9.6
					C223.4-71.7,220.1-75.3,216.9-74.7"/>
			</g>
			<g transform="matrix(7.28513,0,0,7.28513,1490.5,1483.34)">
				<path class="st17" d="M-215.4-52.3c3.4,1,7,0.7,9.2-2.6c0.5,0.3,1.3,0,1.7-0.4c1.2-1,2-2.5,2.1-4.1c0.3-2.4-0.3-5-2-6.6
					c-2.5-2.4-6.7-0.9-8.1,2.2c-0.8,0.1-1.5,0.5-2.1,1.1c-1.2,1-1.8,2.5-1.8,4c-0.8,0.1-1.7,1.1-2.2,1.7c-1.3,1.5-2.5,3.9-1.5,5.9
					c1.2,2.3,4.3,1.4,4.7-1L-215.4-52.3z"/>
			</g>
		</g>
		<g transform="matrix(0.868602,0,0,0.868602,1046.33,-1614.8)">
			<path class="st2" d="M-822.1,3275.6c0-16.9-9-32.5-23.7-41c-14.6-8.5-32.7-8.5-47.4,0c-46.5,26.9-104.7,60.5-137.8,79.6
				c-16,9.3-36,8.3-51.1-2.4c-7-4.9-14.5-10.3-21.5-15.3c-15.1-10.7-35.1-11.7-51.1-2.4c-21.9,12.6-52.7,30.4-73.8,42.6
				c-14.7,8.5-23.7,24.1-23.7,41c0,54.5,0,178.7,0,261.9c0,16.9,9,32.6,23.7,41c14.7,8.5,32.7,8.5,47.4,0
				c98.7-57,272.3-157.2,335.3-193.6c14.7-8.5,23.7-24.1,23.7-41C-822.1,3406.9-822.1,3333.3-822.1,3275.6z"/>
			<g transform="matrix(-0.733716,0,0,0.733716,-145.091,205.324)">
				<g transform="matrix(0.801188,0.462566,-5.50906e-17,1.14595,-2378.13,165.785)">
					<path class="st10" d="M4732,1350h-585.2l-26.8,21.6l26.8,585.5l558.5,21.6l26.8-21.6V1350z"/>
				</g>
				<g transform="matrix(0.801188,0.462566,-5.50906e-17,1.14595,-2405.18,181.399)">
					<polygon class="st11" points="4153.7,1344.3 4739,1344.3 4739,1951.5 4153.7,1951.5 					"/>
				</g>
				<g transform="matrix(0.316726,0.182862,-2.17785e-17,0.446741,-1702.72,2953.76)">
					<path class="st12" d="M9577.4-1685.8c0-14.3-10.8-23.1-28.2-23.1h-472.3c-17.5,0-39,8.8-56.5,23.1
						c-17.5,14.3-28.2,31.9-28.2,46.2c0,135.6,0,430.1,0,514.6c0,14.3,10.8,23.1,28.2,23.1c84.6,0,338.4,0,472.3,0
						c17.5,0,39-8.8,56.5-23.1c17.5-14.3,28.2-31.9,28.2-46.2C9577.4-1306.7,9577.4-1601.2,9577.4-1685.8z"/>
				</g>
				<g transform="matrix(0.396278,0.228791,-3.21092e-18,0.0589361,-1990.74,4474.88)">
					<path class="st12" d="M8061.2-35801.4c0-92.9-7.4-150.2-19.3-150.2c-79.1,0-380,0-507.9,0c-12,0-26.7,57.3-38.7,150.2
						c-12,93-19.3,207.5-19.3,300.4c0,2.1,0,4.2,0,6.3c0,92.9,7.4,150.2,19.3,150.2c79.1,0,380,0,507.9,0c12,0,26.7-57.3,38.7-150.2
						c12-93,19.3-207.5,19.3-300.4C8061.2-35797.2,8061.2-35799.3,8061.2-35801.4z"/>
				</g>
				<g transform="matrix(0.615058,0.355104,-3.4194e-18,0.0589361,-2181.23,4448.55)">
					<path class="st13" d="M5711.7-36095.2c0-93-4.8-150.2-12.5-150.2c-70.4,0-419.6,0-535.4,0c-7.7,0-17.2,57.3-24.9,150.2
						c-7.7,92.9-12.5,207.5-12.5,300.4c0,2.1,0,4.2,0,6.3c0,93,4.8,150.2,12.5,150.2c70.4,0,419.6,0,535.4,0
						c7.7,0,17.2-57.3,24.9-150.2c7.7-92.9,12.5-207.5,12.5-300.4C5711.7-36091,5711.7-36093.1,5711.7-36095.2z"/>
				</g>
				<g transform="matrix(0.615058,0.355104,-3.4194e-18,0.0589361,-2181.23,4532.19)">
					<path class="st13" d="M5711.7-36388.9c0-93-4.8-150.2-12.5-150.2c-70.4,0-419.6,0-535.4,0c-7.7,0-17.2,57.3-24.9,150.2
						c-7.7,92.9-12.5,207.5-12.5,300.4c0,2.1,0,4.2,0,6.3c0,92.9,4.8,150.2,12.5,150.2c70.4,0,419.6,0,535.4,0
						c7.7,0,17.2-57.3,24.9-150.2c7.7-93,12.5-207.5,12.5-300.4C5711.7-36384.7,5711.7-36386.8,5711.7-36388.9z"/>
				</g>
				<g transform="matrix(0.248622,0.143542,-3.07021e-18,0.0589361,-1879.51,4142.35)">
					<path class="st12" d="M11998.6-34408.1c0-92.9-11.8-150.2-30.8-150.2c-85.4,0-327.6,0-461.9,0c-19.1,0-42.6,57.3-61.7,150.2
						c-19.1,93-30.8,207.5-30.8,300.4c0,2.1,0,4.2,0,6.3c0,92.9,11.8,150.2,30.8,150.2c85.4,0,327.6,0,461.9,0
						c19.1,0,42.6-57.3,61.7-150.2c19.1-93,30.8-207.5,30.8-300.4C11998.6-34403.9,11998.6-34406,11998.6-34408.1z"/>
				</g>
				<g transform="matrix(0.248622,0.143542,-3.07021e-18,0.0589361,-1879.51,4224)">
					<path class="st13" d="M11998.6-34694.8c0-92.9-11.8-150.2-30.8-150.2c-85.4,0-327.6,0-461.9,0c-19.1,0-42.6,57.3-61.7,150.2
						c-19.1,93-30.8,207.5-30.8,300.4c0,2.1,0,4.2,0,6.3c0,92.9,11.8,150.2,30.8,150.2c85.4,0,327.6,0,461.9,0
						c19.1,0,42.6-57.3,61.7-150.2c19.1-93,30.8-207.5,30.8-300.4C11998.6-34690.7,11998.6-34692.8,11998.6-34694.8z"/>
				</g>
			</g>
			<g transform="matrix(1,0,0,1,60.8874,55.5908)">
				<path class="st6" d="M-834.7,3264.1c0-16.9-9-32.5-23.7-41c-14.6-8.5-32.7-8.5-47.4,0c-46.5,26.9-104.7,60.5-137.8,79.6
					c-16,9.3-36,8.3-51.1-2.4c-7-4.9-14.5-10.3-21.5-15.3c-15.1-10.7-35.1-11.7-51.1-2.4c-21.9,12.6-52.7,30.4-73.8,42.6
					c-14.7,8.5-23.7,24.1-23.7,41c0,54.5,0,178.7,0,261.9c0,16.9,9,32.6,23.7,41c14.7,8.5,32.7,8.5,47.4,0
					c98.7-57,272.3-157.2,335.3-193.6c14.7-8.5,23.7-24.1,23.7-41C-834.7,3395.4-834.7,3321.8-834.7,3264.1z"/>
			</g>
		</g>
		<g transform="matrix(7.35097,-4.14712,4.14712,7.35097,1633.29,2160.04)">
			<path class="st26" d="M-130.5-186.5c7.3-7.9,3.8-16-1.2-14.6c-3.2,0.9-10,4.7-13.8,8.3c-7.3,6.8-11.6,19.3-11.1,24.9
				c1.1,5.3,20.9,20,24.8,21.9c5.1,4.9,10.2,1.1,10.5-0.9c0.1-1-4.5,0.6-5.3-1.5c0,0,1.9-0.9,1.8-1.4c-0.1-0.9-3.6-1.7-5.4-0.8
				l-14.3-17.9L-130.5-186.5z"/>
			<g>
				<defs>
					<path id="SVGID_25_" d="M-130.5-186.5c7.3-7.9,3.8-16-1.2-14.6c-3.2,0.9-10,4.7-13.8,8.3c-7.3,6.8-11.6,19.3-11.1,24.9
						c1.1,5.3,20.9,20,24.8,21.9c5.1,4.9,10.2,1.1,10.5-0.9c0.1-1-4.5,0.6-5.3-1.5c0,0,1.9-0.9,1.8-1.4c-0.1-0.9-3.6-1.7-5.4-0.8
						l-14.3-17.9L-130.5-186.5z"/>
				</defs>
				<clipPath id="SVGID_26_">
					<use xlink:href="#SVGID_25_"  style="overflow:visible;"/>
				</clipPath>
				<g class="st35">
					<g transform="matrix(1,0,0,1,-316.054,-109.368)">
						<g class="st14">
							<g transform="matrix(1,0,0,1,291.506,95.1562)">
								<path class="st17" d="M-124.2-172c0,3.3,1.5,6.5,4.1,8.6c0.9,0.7,1.8,1.2,2.8,1.7c0.3,0.2,1,0.4,1.1,0.8
									c0.1,0.4-0.3,0.7-0.6,1c-0.7,0.6-1.3,1.2-1.8,1.8c-0.5,0.6-0.9,1.3-1.2,2.1c-0.1,0.3-0.1,0.9-0.5,1
									c-0.6,0.2-1.5-0.4-1.9-0.7c-0.1,0-1-0.6-0.8-0.3c0.5,1.1,1.9,1.4,2.7,2.2c0.4,0.4,0.5,1,0.9,1.4c1.5,1.8,3.9,3.7,6.4,3.1
									c0.6-0.2,1.2-0.4,1.8-0.7c0.8-0.5,1.5-1,2.1-1.6c1-0.9,1.9-2,2.6-3.2c2-3.1,3.1-7.1,2.2-10.8c-1.7-7.3-10.2-10.9-16.9-8.2
									L-124.2-172z"/>
							</g>
						</g>
					</g>
					<g transform="matrix(1,0,0,1,-25.0161,-40.7728)">
						<path class="st4" d="M-125.3-149.3c0,2.5,3.2,7.3,4.7,9c1.6,1.9,3.5,3.5,5.8,4.6c6.8,3.1,14.3-0.1,18.3-6
							c4-5.9,3.5-14.2-3.1-17.9c-1.3-0.7-2.8-1.2-4.3-1.5c-5.7-1.1-11,0.9-15.3,4.6L-125.3-149.3z"/>
					</g>
				</g>
			</g>
		</g>
	</g>
</g>
</svg>
