<svg xmlns="http://www.w3.org/2000/svg" viewBox="0 0 399.36 27.55">
<defs>
<style>.logo-sm-1{fill:#0F0050;}.logo-sm-2{fill:#4ff1e1;}</style>
</defs>
<g id="Layer_5" data-name="Layer 5">
<path class="logo-sm-1" d="M16.71,27.13H0V.42H16.14V3.13H3v8.39h7.64v2.71H3V24.42H16.71Z"></path><path class="logo-sm-1" d="M44.87,16.22c0,7.4-3.16,11.33-9.58,11.33s-9.65-3.85-9.65-11.26V.42h3v15.8c0,5.76,2.21,8.62,6.83,8.62s6.45-2.78,6.45-8.55V.42h3Z"></path><path class="logo-sm-1" d="M74,8c0,4.15-2.48,6.75-6.29,7.55l5.87,11.6H70.17L64.45,15.76H58.11V27.13h-3V.42H65.71C70.4.42,74,2.82,74,8Zm-3,.11c0-3.28-1.91-5-5.46-5H58.11v10h7.1C69.18,13.09,71.05,11.45,71.05,8.09Z"></path><path class="logo-sm-1" d="M105,13.74c0,8-4.5,13.81-11.15,13.81s-11-5.69-11-13.74S87.3,0,93.94,0,105,5.69,105,13.74Zm-3,.07c0-6.71-3.55-11.1-8.2-11.1s-8,4.31-8,11,3.51,11.1,8.17,11.1S102,20.53,102,13.81Z"></path><path class="logo-sm-1" d="M133.35,8.4c0,5.3-3.7,8.24-9,8.24h-6.49V27.13h-3V.42h10C129.69.42,133.35,3,133.35,8.4Zm-3,.11c0-3.44-2-5.38-5.65-5.38h-6.9v10.8h6.52C128.43,13.93,130.37,12.06,130.37,8.51Z"></path><path class="logo-sm-1" d="M159,27.13H142.24V.42h16.14V3.13H145.21v8.39h7.64v2.71h-7.64V24.42H159Z"></path><path class="logo-sm-1" d="M188.79,27.13h-3.13l-2.29-6.79h-11L170,27.13H167L176.24.42h3.28Zm-6.33-9.5-2.94-8.78c-.58-1.75-1.38-4.16-1.64-5.26-.27,1.06-1,3.47-1.68,5.34l-2.94,8.7Z"></path><path class="logo-sm-1" d="M198.14,27.13V.42H201L212.6,19c.57.92,1.56,2.67,1.91,3.36V.42h2.86V27.13h-2.79L202.91,8.85c-.58-.91-1.57-2.67-1.91-3.36V27.13Z"></path><path class="logo-sm-2" d="M257.64,27.1H251.8l-2.09-5.92H240l-2.08,5.92h-5.7L242.39.54h5.16Zm-9.75-11-1.71-4.82c-.53-1.55-1.06-3.15-1.33-4.13-.26,1-.79,2.58-1.33,4.13l-1.71,4.82Z"></path><path class="logo-sm-2" d="M270.55,27.1h-5.32V.54h5.32Z"></path><path class="logo-sm-1" d="M308.59,6.71H294.91v4.7h8.3v6.21h-8.3V27h-7.32V.45h21Z"></path><path class="logo-sm-1" d="M337.45,15.65c0,8.42-5.05,11.75-11.72,11.75s-11.56-3.33-11.56-11.75V.45h7.51v15.2c0,3.26,1.29,5.27,4.17,5.27s4.09-2,4.09-5.27V.45h7.51Z"></path><path class="logo-sm-1" d="M368.5,27h-6l-6.33-8.76c-1.18-1.63-3.45-5-4.13-6.22.19,1.18.22,4.7.22,6.86V27h-7V.45h6.49l5.83,7.85a74.36,74.36,0,0,1,4.13,6.25c-.19-1.17-.22-4.7-.22-6.86V.45h7.05Z"></path><path class="logo-sm-1" d="M399.36,13.57c0,10-4.93,13.42-14.33,13.42h-8.61V.45h9.29C394.05.45,399.36,3.6,399.36,13.57Zm-7.28.11c0-4.89-1.82-6.94-6.41-6.94h-2.21v14h2C390,20.69,392.08,19,392.08,13.68Z">
</path>
</g>
</svg>