<svg width="40" height="40" xmlns="http://www.w3.org/2000/svg" xmlns:xlink="http://www.w3.org/1999/xlink" xml:space="preserve" overflow="hidden"><defs><clipPath id="clip0"><rect x="96" y="549" width="40" height="40"/></clipPath><clipPath id="clip1"><rect x="97" y="550" width="38" height="39"/></clipPath><clipPath id="clip2"><rect x="97" y="550" width="38" height="39"/></clipPath><clipPath id="clip3"><rect x="97" y="550" width="38" height="39"/></clipPath></defs><g clip-path="url(#clip0)" transform="translate(-96 -549)"><g clip-path="url(#clip1)"><g clip-path="url(#clip2)"><g clip-path="url(#clip3)"><path d="M19 0C8.5025 0 0 8.5025 0 19 0 27.4075 5.43875 34.5088 12.9912 37.0262 13.9412 37.1925 14.2975 36.6225 14.2975 36.1237 14.2975 35.6725 14.2738 34.1763 14.2738 32.585 9.5 33.4637 8.265 31.4212 7.885 30.3525 7.67125 29.8062 6.745 28.12 5.9375 27.6687 5.2725 27.3125 4.3225 26.4338 5.91375 26.41 7.41 26.3862 8.47875 27.7875 8.835 28.3575 10.545 31.2312 13.2763 30.4238 14.3688 29.925 14.535 28.69 15.0337 27.8587 15.58 27.3837 11.3525 26.9088 6.935 25.27 6.935 18.0025 6.935 15.9362 7.67125 14.2262 8.8825 12.8962 8.6925 12.4213 8.0275 10.4737 9.0725 7.86125 9.0725 7.86125 10.6637 7.3625 14.2975 9.80875 15.8175 9.38125 17.4325 9.1675 19.0475 9.1675 20.6625 9.1675 22.2775 9.38125 23.7975 9.80875 27.4312 7.33875 29.0225 7.86125 29.0225 7.86125 30.0675 10.4737 29.4025 12.4213 29.2125 12.8962 30.4238 14.2262 31.16 15.9125 31.16 18.0025 31.16 25.2937 26.7188 26.9088 22.4913 27.3837 23.18 27.9775 23.7738 29.1175 23.7738 30.8988 23.7738 33.44 23.75 35.4825 23.75 36.1237 23.75 36.6225 24.1062 37.2163 25.0562 37.0262 32.5612 34.5088 38 27.3837 38 19 38 8.5025 29.4975 0 19 0Z" fill="#02559E" fill-rule="evenodd" fill-opacity="1" transform="matrix(1 0 0 1.02632 97 550)"/></g></g></g></g></svg>