<?xml version="1.0" encoding="utf-8"?>
<!-- Generator: Adobe Illustrator 25.0.0, SVG Export Plug-In . SVG Version: 6.00 Build 0)  -->
<svg version="1.1" id="Layer_1" xmlns="http://www.w3.org/2000/svg" xmlns:xlink="http://www.w3.org/1999/xlink" x="0px" y="0px"
	 viewBox="0 0 600 400" style="enable-background:new 0 0 600 400;" xml:space="preserve">
<style type="text/css">
	.st0{fill:#FFFFFF;stroke:#F1F2F2;stroke-width:13;stroke-miterlimit:10;}
	.st1{fill:#FFFFFF;stroke:#8EAEC8;stroke-width:13;stroke-miterlimit:10;}
	.st2{fill:#FFFFFF;stroke:#C6D5D6;stroke-width:13;stroke-miterlimit:10;}
	.st3{fill:#FFFFFF;stroke:#015BA7;stroke-width:13;stroke-miterlimit:10;}
	.st4{fill:#FFFFFF;stroke:#5789BA;stroke-width:13;stroke-miterlimit:10;}
	.st5{fill:#C6D5D6;}
	.st6{font-family:'Avenir-Black';}
	.st7{font-size:18px;}
	.st8{fill:#8EAEC8;}
	.st9{fill:#5689BB;}
	.st10{fill:#025CA7;}
	.st11{fill:#FFFFFF;}
	.st12{fill:none;}
	.st13{font-family:'Avenir-Heavy';}
	.st14{font-size:14px;}
	.st15{fill:#787878;}
	.st16{font-family:'Avenir-Book';}
	.st17{font-size:10px;}
	.st18{font-size:9.75px;}
	.st19{fill:#707071;}
	.st20{fill:#F1F2F2;}
</style>
<path class="st0" d="M433.7,200c0-36.9,29.9-66.9,66.9-66.9s66.9,29.9,66.9,66.9"/>
<path class="st0" d="M433.7,200c0,36.9-29.9,66.9-66.9,66.9S300,236.9,300,200"/>
<path class="st0" d="M166.3,200c0,36.9-29.9,66.9-66.9,66.9S32.5,236.9,32.5,200"/>
<path class="st1" d="M300,200c0,36.9-29.9,66.9-66.9,66.9s-66.9-29.9-66.9-66.9"/>
<path class="st0" d="M166.3,200c0-36.9,29.9-66.9,66.9-66.9S300,163,300,200"/>
<path class="st2" d="M32.5,200c0-36.9,29.9-66.9,66.9-66.9s66.9,29.9,66.9,66.9"/>
<path class="st3" d="M567.5,200c0,36.9-29.9,66.9-66.9,66.9s-66.9-29.9-66.9-66.9"/>
<path class="st4" d="M300,200c0-36.9,29.9-66.9,66.9-66.9s66.9,29.9,66.9,66.9"/>
<text transform="matrix(1 0 0 1 71.1494 114.2583)" class="st5 st6 st7">STEP 1</text>
<text transform="matrix(1 0 0 1 204.8918 309.1712)" class="st8 st6 st7">STEP 2</text>
<text transform="matrix(1 0 0 1 338.6342 114.4777)" class="st9 st6 st7">STEP 3</text>
<text transform="matrix(1 0 0 1 472.3765 309.3905)" class="st10 st6 st7">STEP 4</text>
<circle class="st11" cx="166.3" cy="200" r="10"/>
<path class="st5" d="M166.3,213.5c-7.4,0-13.5-6.1-13.5-13.5s6.1-13.5,13.5-13.5s13.5,6.1,13.5,13.5S173.7,213.5,166.3,213.5z
	 M166.3,193.5c-3.6,0-6.5,2.9-6.5,6.5c0,3.6,2.9,6.5,6.5,6.5s6.5-2.9,6.5-6.5C172.8,196.4,169.8,193.5,166.3,193.5z"/>
<rect x="37.2" y="296" class="st12" width="124.4" height="90.7"/>
<text transform="matrix(1 0 0 1 56.2112 306.5975)"><tspan x="0" y="0" class="st5 st13 st14">Identify issue</tspan><tspan x="-14.3" y="25" class="st15 st16 st17">Identify a concrete ethical </tspan><tspan x="-16.4" y="38" class="st15 st16 st17">concern in a real algorithm </tspan><tspan x="-1.6" y="51" class="st15 st16 st17">or data-analysis tool</tspan></text>
<rect x="170.9" y="42.5" class="st12" width="124.4" height="90.7"/>
<text transform="matrix(1 0 0 1 175.0648 53.0508)"><tspan x="0" y="0" class="st8 st13 st14">Audit commission</tspan><tspan x="-0.3" y="25" class="st15 st16 st17">Form an independent and </tspan><tspan x="-4.2" y="38" class="st15 st16 st17">diverse audit commission of </tspan><tspan x="41.6" y="51" class="st15 st16 st17">experts</tspan></text>
<rect x="438.4" y="42.5" class="st12" width="124.4" height="90.7"/>
<text transform="matrix(1 0 0 1 478.3049 53.0508)"><tspan x="0" y="0" class="st10 st13 st14">Advice</tspan><tspan x="-38.6" y="25" class="st15 st16 st18">Advice by audit commission </tspan><tspan x="-36.3" y="38" class="st15 st16 st18">is published and shared on </tspan><tspan x="-3.1" y="51" class="st15 st16 st18">our website</tspan></text>
<rect x="290.7" y="295" class="st12" width="152.3" height="73.9"/>
<text transform="matrix(1 0 0 1 340.5517 305.5352)"><tspan x="0" y="0" class="st9 st13 st14">Analysis</tspan><tspan x="-38.9" y="25" class="st19 st16 st17">Comprehensive independent </tspan><tspan x="-25.9" y="38" class="st19 st16 st17">review of issue by audit </tspan><tspan x="0" y="51" class="st19 st16 st17">commission</tspan></text>
<circle class="st11" cx="32.5" cy="200" r="10"/>
<path class="st20" d="M32.5,213.5c-7.4,0-13.5-6.1-13.5-13.5s6.1-13.5,13.5-13.5S46,192.5,46,200S40,213.5,32.5,213.5z M32.5,193.5
	c-3.6,0-6.5,2.9-6.5,6.5c0,3.6,2.9,6.5,6.5,6.5s6.5-2.9,6.5-6.5C39,196.4,36.1,193.5,32.5,193.5z"/>
<circle class="st11" cx="300" cy="200" r="10"/>
<path class="st8" d="M300,213.5c-7.4,0-13.5-6.1-13.5-13.5s6.1-13.5,13.5-13.5s13.5,6.1,13.5,13.5S307.4,213.5,300,213.5z
	 M300,193.5c-3.6,0-6.5,2.9-6.5,6.5c0,3.6,2.9,6.5,6.5,6.5s6.5-2.9,6.5-6.5C306.5,196.4,303.6,193.5,300,193.5z"/>
<circle class="st11" cx="433.7" cy="200" r="10"/>
<path class="st9" d="M433.7,213.5c-7.4,0-13.5-6.1-13.5-13.5s6.1-13.5,13.5-13.5s13.5,6.1,13.5,13.5S441.2,213.5,433.7,213.5z
	 M433.7,193.5c-3.6,0-6.5,2.9-6.5,6.5c0,3.6,2.9,6.5,6.5,6.5s6.5-2.9,6.5-6.5C440.2,196.4,437.3,193.5,433.7,193.5z"/>
<circle class="st11" cx="567.5" cy="200" r="10"/>
<path class="st10" d="M567.5,213.5c-7.4,0-13.5-6.1-13.5-13.5s6.1-13.5,13.5-13.5S581,192.5,581,200S574.9,213.5,567.5,213.5z
	 M567.5,193.5c-3.6,0-6.5,2.9-6.5,6.5c0,3.6,2.9,6.5,6.5,6.5s6.5-2.9,6.5-6.5C574,196.4,571.1,193.5,567.5,193.5z"/>
</svg>
