<?xml version="1.0" encoding="utf-8"?>
<!-- Generator: Adobe Illustrator 25.0.0, SVG Export Plug-In . SVG Version: 6.00 Build 0)  -->
<svg version="1.1" id="Layer_1" xmlns="http://www.w3.org/2000/svg" xmlns:xlink="http://www.w3.org/1999/xlink" x="0px" y="0px"
	 viewBox="0 0 600 400" style="enable-background:new 0 0 600 400;" xml:space="preserve">
<style type="text/css">
	.st0{fill:#FFFFFF;stroke:#F1F2F2;stroke-width:13;stroke-miterlimit:10;}
	.st1{fill:#FFFFFF;stroke:#8EAEC8;stroke-width:13;stroke-miterlimit:10;}
	.st2{fill:#FFFFFF;stroke:#C6D5D6;stroke-width:13;stroke-miterlimit:10;}
	.st3{fill:#FFFFFF;stroke:#015BA7;stroke-width:13;stroke-miterlimit:10;}
	.st4{fill:#FFFFFF;stroke:#5789BA;stroke-width:13;stroke-miterlimit:10;}
	.st5{fill:#C6D5D6;}
	.st6{font-family:"Lato", sans-serif;}
	.st7{font-size:18px;}
	.st8{fill:#8EAEC8;}
	.st9{fill:#5689BB;}
	.st10{fill:#025CA7;}
	.st11{fill:#FFFFFF;}
	.st12{opacity:0.75;fill:#5875AE;}
	.st13{opacity:0.75;fill:#305495;}
	.st14{opacity:0.75;fill:#7F98C8;}
	.st15{fill:none;}
	.st16{font-size:14px;}
	.st17{fill:#787878;}
	.st18{font-family:"Lato", sans-serif;}
	.st19{font-size:10px;}
	.st20{fill:#707071;}
</style>
<path class="st0" d="M433.7,200c0-36.9,29.9-66.9,66.9-66.9s66.9,29.9,66.9,66.9"/>
<path class="st0" d="M433.7,200c0,36.9-29.9,66.9-66.9,66.9S300,236.9,300,200"/>
<path class="st0" d="M166.3,200c0,36.9-29.9,66.9-66.9,66.9S32.5,236.9,32.5,200"/>
<path class="st1" d="M300,200c0,36.9-29.9,66.9-66.9,66.9s-66.9-29.9-66.9-66.9"/>
<path class="st0" d="M166.3,200c0-36.9,29.9-66.9,66.9-66.9S300,163,300,200"/>
<path class="st2" d="M32.5,200c0-36.9,29.9-66.9,66.9-66.9s66.9,29.9,66.9,66.9"/>
<path class="st3" d="M567.5,200c0,36.9-29.9,66.9-66.9,66.9s-66.9-29.9-66.9-66.9"/>
<path class="st4" d="M300,200c0-36.9,29.9-66.9,66.9-66.9s66.9,29.9,66.9,66.9"/>
<text transform="matrix(1 0 0 1 71.1494 114.2583)" class="st5 st6 st7">STEP 1</text>
<text transform="matrix(1 0 0 1 204.8918 309.1712)" class="st8 st6 st7">STEP 2</text>
<text transform="matrix(1 0 0 1 338.6342 114.4777)" class="st9 st6 st7">STEP 3</text>
<text transform="matrix(1 0 0 1 472.3765 309.3905)" class="st10 st6 st7">STEP 4</text>
<circle class="st11" cx="300" cy="200" r="10"/>
<path class="st12" d="M300,213.5c-7.4,0-13.5-6.1-13.5-13.5s6.1-13.5,13.5-13.5s13.5,6.1,13.5,13.5S307.4,213.5,300,213.5z
	 M300,193.5c-3.6,0-6.5,2.9-6.5,6.5c0,3.6,2.9,6.5,6.5,6.5s6.5-2.9,6.5-6.5C306.5,196.4,303.6,193.5,300,193.5z"/>
<circle class="st11" cx="433.7" cy="200" r="10"/>
<path class="st13" d="M433.7,213.5c-7.4,0-13.5-6.1-13.5-13.5s6.1-13.5,13.5-13.5s13.5,6.1,13.5,13.5S441.2,213.5,433.7,213.5z
	 M433.7,193.5c-3.6,0-6.5,2.9-6.5,6.5c0,3.6,2.9,6.5,6.5,6.5s6.5-2.9,6.5-6.5C440.2,196.4,437.3,193.5,433.7,193.5z"/>
<circle class="st11" cx="166.3" cy="200" r="10"/>
<path class="st14" d="M166.3,213.5c-7.4,0-13.5-6.1-13.5-13.5s6.1-13.5,13.5-13.5s13.5,6.1,13.5,13.5S173.7,213.5,166.3,213.5z
	 M166.3,193.5c-3.6,0-6.5,2.9-6.5,6.5c0,3.6,2.9,6.5,6.5,6.5s6.5-2.9,6.5-6.5C172.8,196.4,169.8,193.5,166.3,193.5z"/>
<rect x="37.2" y="296" class="st15" width="124.4" height="90.7"/>
<text transform="matrix(1 0 0 1 57.6282 306.4159)"><tspan x="0" y="0" class="st5 st6 st16">Identify issue</tspan><tspan x="-15.4" y="25" class="st17 st18 st19">Identify a concrete ethical </tspan><tspan x="-16.4" y="38" class="st17 st18 st19">concern in a real algorithm </tspan><tspan x="-2.6" y="51" class="st17 st18 st19">or data-analysis tool</tspan></text>
<rect x="170.9" y="42.5" class="st15" width="124.4" height="90.7"/>
<text transform="matrix(1 0 0 1 177.4652 52.8691)"><tspan x="0" y="0" class="st8 st6 st16">Audit commission</tspan><tspan x="-0.8" y="25" class="st17 st18 st19">Form an independent and </tspan><tspan x="-5.5" y="38" class="st17 st18 st19">diverse audit commission of </tspan><tspan x="39.3" y="51" class="st17 st18 st19">experts</tspan></text>
<rect x="438.4" y="42.5" class="st15" width="124.4" height="90.7"/>
<text transform="matrix(1 0 0 1 479.1936 52.8691)"><tspan x="0" y="0" class="st10 st6 st16">Advice</tspan><tspan x="-39.7" y="25" class="st17 st18 st19">Advice by audit commission </tspan><tspan x="-29.7" y="38" class="st17 st18 st19">is published and shared</tspan></text>
<rect x="290.7" y="295" class="st15" width="152.3" height="73.9"/>
<text transform="matrix(1 0 0 1 341.1464 305.3535)"><tspan x="0" y="0" class="st9 st6 st16">Analysis</tspan><tspan x="-37.6" y="25" class="st20 st18 st19">Comprehensive independent </tspan><tspan x="-26.2" y="38" class="st20 st18 st19">review of issue by audit </tspan><tspan x="-0.1" y="51" class="st20 st18 st19">commission</tspan></text>
</svg>
