<?xml version="1.0" encoding="utf-8"?>
<!-- Generator: Adobe Illustrator 25.0.0, SVG Export Plug-In . SVG Version: 6.00 Build 0)  -->
<svg version="1.1" id="Layer_1" xmlns="http://www.w3.org/2000/svg" xmlns:xlink="http://www.w3.org/1999/xlink" x="0px" y="0px"
	 viewBox="0 0 600 400" style="enable-background:new 0 0 600 400;" xml:space="preserve">
<style type="text/css">
	.st0{fill:none;stroke:#7F98C8;stroke-width:13;stroke-miterlimit:10;}
	.st1{fill:none;stroke:#A7BCE1;stroke-width:13;stroke-miterlimit:10;}
	.st2{fill:none;stroke:#305496;stroke-width:13;stroke-miterlimit:10;}
	.st3{fill:none;stroke:#5875AE;stroke-width:13;stroke-miterlimit:10;}
	.st4{fill:#FFFFFF;}
	.st5{fill:#A7BCE1;}
	.st6{fill:#F1F2F2;}
	.st7{fill:#7F98C8;}
	.st8{fill:#5875AE;}
	.st9{fill:#025CA7;}
</style>
<path class="st0" d="M300,200c0,36.9-29.9,66.9-66.9,66.9s-66.9-29.9-66.9-66.9"/>
<path class="st1" d="M32.5,200c0-36.9,29.9-66.9,66.9-66.9s66.9,29.9,66.9,66.9"/>
<path class="st2" d="M567.5,200c0,36.9-29.9,66.9-66.9,66.9s-66.9-29.9-66.9-66.9"/>
<path class="st3" d="M300,200c0-36.9,29.9-66.9,66.9-66.9s66.9,29.9,66.9,66.9"/>
<circle class="st4" cx="166.3" cy="200" r="10"/>
<path class="st5" d="M166.3,213.5c-7.4,0-13.5-6.1-13.5-13.5s6.1-13.5,13.5-13.5s13.5,6.1,13.5,13.5S173.7,213.5,166.3,213.5z
	 M166.3,193.5c-3.6,0-6.5,2.9-6.5,6.5c0,3.6,2.9,6.5,6.5,6.5s6.5-2.9,6.5-6.5C172.8,196.4,169.8,193.5,166.3,193.5z"/>
<circle class="st4" cx="32.5" cy="200" r="10"/>
<path class="st6" d="M32.5,213.5c-7.4,0-13.5-6.1-13.5-13.5s6.1-13.5,13.5-13.5S46,192.5,46,200S40,213.5,32.5,213.5z M32.5,193.5
	c-3.6,0-6.5,2.9-6.5,6.5c0,3.6,2.9,6.5,6.5,6.5s6.5-2.9,6.5-6.5C39,196.4,36.1,193.5,32.5,193.5z"/>
<circle class="st4" cx="300" cy="200" r="10"/>
<path class="st7" d="M300,213.5c-7.4,0-13.5-6.1-13.5-13.5s6.1-13.5,13.5-13.5s13.5,6.1,13.5,13.5S307.4,213.5,300,213.5z
	 M300,193.5c-3.6,0-6.5,2.9-6.5,6.5c0,3.6,2.9,6.5,6.5,6.5s6.5-2.9,6.5-6.5C306.5,196.4,303.6,193.5,300,193.5z"/>
<circle class="st4" cx="433.7" cy="200" r="10"/>
<path class="st8" d="M433.7,213.5c-7.4,0-13.5-6.1-13.5-13.5s6.1-13.5,13.5-13.5s13.5,6.1,13.5,13.5S441.2,213.5,433.7,213.5z
	 M433.7,193.5c-3.6,0-6.5,2.9-6.5,6.5c0,3.6,2.9,6.5,6.5,6.5s6.5-2.9,6.5-6.5C440.2,196.4,437.3,193.5,433.7,193.5z"/>
<circle class="st4" cx="567.5" cy="200" r="10"/>
<path class="st9" d="M567.5,213.5c-7.4,0-13.5-6.1-13.5-13.5s6.1-13.5,13.5-13.5S581,192.5,581,200S574.9,213.5,567.5,213.5z
	 M567.5,193.5c-3.6,0-6.5,2.9-6.5,6.5c0,3.6,2.9,6.5,6.5,6.5s6.5-2.9,6.5-6.5C574,196.4,571.1,193.5,567.5,193.5z"/>
</svg>
