<?xml version="1.0" encoding="utf-8"?>
<!-- Generator: Adobe Illustrator 24.3.0, SVG Export Plug-In . SVG Version: 6.00 Build 0)  -->
<svg version="1.1" id="Layer_1" xmlns="http://www.w3.org/2000/svg" xmlns:xlink="http://www.w3.org/1999/xlink" x="0px" y="0px"
	 width="1048.7px" height="705.7px" viewBox="0 0 1048.7 705.7" style="enable-background:new 0 0 1048.7 705.7;"
	 xml:space="preserve">
<style type="text/css">
	.st0{fill-rule:evenodd;clip-rule:evenodd;fill:#53A7B6;}
	.st1{fill-rule:evenodd;clip-rule:evenodd;fill:#63B6C5;}
	.st2{fill-rule:evenodd;clip-rule:evenodd;fill:#348C9B;}
	.st3{fill-rule:evenodd;clip-rule:evenodd;fill:#6FC1D0;}
	.st4{fill-rule:evenodd;clip-rule:evenodd;fill:#81D4E3;}
	.st5{clip-path:url(#SVGID_2_);}
	.st6{fill-rule:evenodd;clip-rule:evenodd;fill:#FFFFFF;}
	.st7{fill-rule:evenodd;clip-rule:evenodd;fill:#72C4D3;}
	.st8{clip-path:url(#SVGID_4_);}
	.st9{fill:#FFFDE4;}
	.st10{fill-rule:evenodd;clip-rule:evenodd;fill:#03306B;}
	.st11{fill:#A7BCE1;}
	.st12{fill-rule:evenodd;clip-rule:evenodd;fill:#305495;}
	.st13{fill-rule:evenodd;clip-rule:evenodd;fill:#06316D;}
	.st14{fill-rule:evenodd;clip-rule:evenodd;fill:#F1F2F2;}
	.st15{clip-path:url(#SVGID_6_);}
	.st16{fill-rule:evenodd;clip-rule:evenodd;fill:#D0D1D1;}
	.st17{fill-rule:evenodd;clip-rule:evenodd;fill:#A7BCE1;}
	.st18{fill-rule:evenodd;clip-rule:evenodd;fill:#475D7D;}
	.st19{clip-path:url(#SVGID_8_);}
	.st20{fill-rule:evenodd;clip-rule:evenodd;fill:#F0F1F1;}
	.st21{clip-path:url(#SVGID_10_);}
	.st22{clip-path:url(#SVGID_12_);}
	.st23{fill-rule:evenodd;clip-rule:evenodd;fill:#F0F2F2;}
	.st24{clip-path:url(#SVGID_14_);}
	.st25{fill:#FFCCC8;}
	.st26{clip-path:url(#SVGID_16_);}
	.st27{fill-rule:evenodd;clip-rule:evenodd;fill-opacity:0.25;}
	.st28{clip-path:url(#SVGID_18_);}
	.st29{fill-rule:evenodd;clip-rule:evenodd;fill:#8095B8;}
	.st30{fill-rule:evenodd;clip-rule:evenodd;fill:#03235C;}
	.st31{clip-path:url(#SVGID_20_);}
	.st32{clip-path:url(#SVGID_22_);}
	.st33{fill-rule:evenodd;clip-rule:evenodd;fill:#FFCCC8;}
	.st34{clip-path:url(#SVGID_24_);}
	.st35{fill-rule:evenodd;clip-rule:evenodd;fill:#FFFDE4;}
	.st36{clip-path:url(#SVGID_26_);}
	.st37{fill-rule:evenodd;clip-rule:evenodd;fill:#D9D9D9;}
	.st38{clip-path:url(#SVGID_28_);}
	.st39{fill-rule:evenodd;clip-rule:evenodd;fill:#B0B0B0;}
	.st40{clip-path:url(#SVGID_30_);}
	.st41{clip-path:url(#SVGID_32_);}
	.st42{fill-rule:evenodd;clip-rule:evenodd;}
	.st43{clip-path:url(#SVGID_34_);}
	.st44{fill-rule:evenodd;clip-rule:evenodd;fill:#234E8F;}
	.st45{clip-path:url(#SVGID_36_);}
	.st46{clip-path:url(#SVGID_38_);}
	.st47{clip-path:url(#SVGID_40_);}
	.st48{clip-path:url(#SVGID_42_);}
	.st49{fill:#F0F1F2;}
	.st50{fill:#3C5D99;}
	.st51{fill:#DBDBA7;}
	.st52{fill:#96D2F3;}
	.st53{fill:#FFFFFF;}
	.st54{fill:#305495;}
	.st55{fill:#011A52;}
	.st56{fill:#93C5E5;}
	.st57{clip-path:url(#SVGID_44_);}
	.st58{fill:none;}
	.st59{clip-path:url(#SVGID_46_);}
	.st60{clip-path:url(#SVGID_48_);}
	.st61{fill-rule:evenodd;clip-rule:evenodd;fill:#010001;fill-opacity:0.25;}
	.st62{fill-rule:evenodd;clip-rule:evenodd;fill:#00154B;}
	.st63{fill-rule:evenodd;clip-rule:evenodd;fill:#6781B0;}
	.st64{clip-path:url(#SVGID_50_);}
	.st65{clip-path:url(#SVGID_52_);}
	.st66{fill-rule:evenodd;clip-rule:evenodd;fill:#7F98C8;}
	.st67{clip-path:url(#SVGID_54_);}
	.st68{clip-path:url(#SVGID_56_);}
	.st69{clip-path:url(#SVGID_58_);}
	.st70{fill-rule:evenodd;clip-rule:evenodd;fill:#32558B;}
	.st71{clip-path:url(#SVGID_60_);}
	.st72{fill-rule:evenodd;clip-rule:evenodd;fill:#0C2642;}
	.st73{clip-path:url(#SVGID_62_);}
	.st74{fill-rule:evenodd;clip-rule:evenodd;fill:#FFFDE4;fill-opacity:0.57;}
	.st75{fill-opacity:0.25;}
	.st76{fill:#3E5474;}
	.st77{fill-rule:evenodd;clip-rule:evenodd;fill:#5875AE;}
	.st78{clip-path:url(#SVGID_64_);}
	.st79{clip-path:url(#SVGID_66_);}
	.st80{fill-rule:evenodd;clip-rule:evenodd;fill:#0C2B60;}
	.st81{clip-path:url(#SVGID_68_);}
	.st82{fill-rule:evenodd;clip-rule:evenodd;fill:#0A295E;}
	.st83{clip-path:url(#SVGID_70_);}
	.st84{clip-path:url(#SVGID_72_);}
	.st85{clip-path:url(#SVGID_74_);}
	.st86{clip-path:url(#SVGID_76_);}
	.st87{clip-path:url(#SVGID_78_);}
	.st88{fill-rule:evenodd;clip-rule:evenodd;fill:#011A52;}
	.st89{fill-rule:evenodd;clip-rule:evenodd;fill:#875B59;}
	.st90{clip-path:url(#SVGID_80_);}
	.st91{clip-path:url(#SVGID_82_);}
	.st92{clip-path:url(#SVGID_84_);}
	.st93{fill-rule:evenodd;clip-rule:evenodd;fill:#ADC8FF;}
	.st94{clip-path:url(#SVGID_86_);}
	.st95{clip-path:url(#SVGID_88_);}
	.st96{clip-path:url(#SVGID_90_);}
	.st97{fill-rule:evenodd;clip-rule:evenodd;fill:#6E4443;}
	.st98{clip-path:url(#SVGID_92_);}
	.st99{clip-path:url(#SVGID_94_);}
	.st100{clip-path:url(#SVGID_96_);}
	.st101{fill-rule:evenodd;clip-rule:evenodd;fill:#10346B;}
	.st102{fill-rule:evenodd;clip-rule:evenodd;fill:#092559;}
	.st103{clip-path:url(#SVGID_98_);}
	.st104{clip-path:url(#SVGID_100_);}
	.st105{clip-path:url(#SVGID_102_);}
	.st106{clip-path:url(#SVGID_104_);}
	.st107{clip-path:url(#SVGID_106_);}
	.st108{fill:#D2D1B9;}
</style>
<g>
	<g>
		<path class="st0" d="M927.1,493c-2.5-2.1-2.4-8.5,0.3-15.2c3-7.3,8.1-12.2,11.4-10.8c3.3,1.3,3.5,8.4,0.5,15.7
			c-2.6,6.3-6.7,10.7-9.9,11c-1.9,3.5-3.9,6.8-6.2,10c2.6-0.6,6.4-0.3,10.3,1.1c6.6,2.2,11.1,6.4,10.1,9.3c-1,2.9-7.1,3.5-13.7,1.3
			c-5.2-1.7-9.1-4.7-10.1-7.4c-4.9,6-10.5,11.5-16.5,16.5c3.4-0.3,8.6,2.4,13.2,7.2c5.8,6.1,8.3,13.1,5.6,15.7s-9.7-0.2-15.5-6.3
			c-4.9-5.1-7.4-10.8-6.5-14.1c-9.6,7.6-20.1,14.3-30.6,21.1c-1.5,0.9-2.9,1.9-4.4,2.9c3.2-0.7,7.9-0.1,12.8,1.8
			c7.8,3,13.1,8.4,11.7,11.9c-1.4,3.5-8.8,3.9-16.7,0.8c-7.8-3-13.1-8.4-11.7-11.9c0,0,0-0.1,0-0.1c-8.4,5.4-16.5,11.3-24.1,17.6
			c2.7-0.1,5.4,0.3,7.9,1.1c6.7,2.2,11.3,6.6,10.2,10c-1.1,3.3-7.4,4.3-14.1,2.1c-5.3-1.7-9.3-4.8-10.2-7.7
			c-7,6.5-13.1,14-18.2,22.1c2.5-1,6.4-1.2,10.5-0.4c6.8,1.3,11.8,4.9,11.2,7.9c-0.6,3-6.6,4.4-13.3,3.1c-5.5-1.1-9.9-3.7-11-6.2
			c-2.7,4.8-4.9,9.9-6.8,15.1c-0.2,0.6-0.9,0.9-1.5,0.7c-0.6-0.2-0.9-0.9-0.7-1.5c0,0,0,0,0,0c1.8-5.1,4.1-10.1,6.7-14.9
			c-2.6-0.9-5.6-4.8-7.4-9.9c-2.3-6.5-1.7-12.6,1.2-13.7c2.9-1,7.1,3.4,9.4,10c0.7,1.9,1.1,4,1.3,6c5.1-7.6,11-14.5,17.7-20.7
			c-2.9-1.1-5.4-5.9-6-11.9c-0.7-7,1.5-13,5-13.4c3.5-0.3,6.9,5.1,7.6,12.1c0.3,2.6,0.1,5.2-0.5,7.8c7-5.7,14.2-11.1,21.8-16
			c-3-1.5-5.9-6.9-7-13.6c-1.3-8.3,0.6-15.5,4.3-16.1s7.8,5.6,9.2,13.9c0.7,4.6,0.5,8.9-0.5,11.9c1.4-0.9,2.9-1.9,4.4-2.8
			c10.7-6.9,21.3-13.6,30.9-21.3c-2.8-1.1-5.9-5.6-7.5-11.4c-2-7.3-1-13.9,2.2-14.8c3.2-0.9,7.5,4.3,9.5,11.6c1,3.4,1.3,7,0.7,10.5
			c5.2-4.5,10-9.5,14.4-14.8c-2.4-0.2-5.3-3.3-7-7.8c-2-5.2-1.6-10.1,0.9-11.1c2.5-1,6.2,2.5,8.1,7.6c0.9,2.2,1.3,4.5,1.2,6.9
			C923.8,498.7,925.5,495.9,927.1,493z"/>
		<path class="st1" d="M877.1,464.1c-2.6-1.1-4.2-6.4-3.7-12.7c0.6-6.9,3.5-12.3,6.6-12c3,0.3,5.1,6,4.5,12.9
			c-0.5,5.9-2.7,10.7-5.3,11.8c-0.6,3.4-1.5,6.7-2.5,9.9c2-1.2,5.2-1.9,8.8-1.9c6,0.1,10.8,2.4,10.8,5.1c0,2.7-5,4.8-11,4.7
			c-4.7-0.1-8.8-1.5-10.2-3.5c-2.5,6.3-5.6,12.3-9.3,18c2.7-1.2,7.8-0.3,12.8,2.5c6.4,3.5,10.3,8.7,8.7,11.6
			c-1.6,2.9-8,2.4-14.4-1.1c-5.3-2.9-8.9-7-9.1-10c-5.9,8.8-12.8,17.2-19.8,25.6c-1,1.2-1.9,2.4-2.9,3.5c2.5-1.4,6.5-2.2,11-1.9
			c7.3,0.5,13,3.5,12.8,6.8c-0.2,3.3-6.3,5.6-13.5,5.1c-7.3-0.5-13-3.5-12.8-6.8c0,0,0-0.1,0-0.1c-5.5,6.7-10.6,13.7-15.3,21
			c2.2-0.8,4.5-1.2,6.8-1.2c6.1,0,11.1,2.5,11.1,5.6s-5,5.5-11.1,5.5c-4.8,0-8.9-1.6-10.4-3.7c-4.1,7.3-7.2,15.1-9.3,23.2
			c1.8-1.5,4.9-2.7,8.6-3.1c5.9-0.7,11,0.9,11.3,3.6c0.3,2.7-4.3,5.4-10.2,6.1c-4.8,0.6-9.1-0.4-10.7-2.2c-0.9,4.7-1.5,9.5-1.7,14.4
			c0,0.6-0.5,1-1.1,1c-0.6,0-1-0.5-1-1.1c0,0,0,0,0,0c0.2-4.8,0.7-9.5,1.6-14.2c-2.4-0.1-5.9-2.5-8.7-6.3c-3.6-4.8-4.7-10-2.6-11.7
			c2.1-1.6,6.8,1,10.4,5.8c1.1,1.4,2,3,2.7,4.6c2.2-7.6,5.3-15,9.2-21.9c-2.7-0.2-6-3.5-8.1-8.3c-2.4-5.7-2.1-11.2,0.7-12.5
			c2.8-1.2,7,2.4,9.4,8c0.9,2.1,1.5,4.3,1.6,6.6c4.2-6.6,8.8-13,13.8-19.1c-2.9-0.4-6.7-4.1-9.3-9.4c-3.3-6.5-3.6-13.1-0.7-14.5
			c2.9-1.5,7.9,2.6,11.2,9.2c1.6,3.1,2.6,6.5,2.7,10c0.9-1.2,1.9-2.3,2.9-3.5c7-8.5,14-17,19.9-25.9c-2.6-0.2-6.3-3.1-9.1-7.5
			c-3.5-5.5-4.4-11.3-2-12.9c2.4-1.6,7.3,1.6,10.8,7.1c1.7,2.6,2.9,5.5,3.3,8.5c3.1-5.1,5.8-10.5,8-16.2c-2,0.5-5.2-1.4-7.8-4.6
			c-3-3.8-3.9-8-2.1-9.5c1.8-1.5,5.7,0.4,8.7,4.2c1.3,1.6,2.3,3.4,2.8,5.4C875.8,469.8,876.5,467,877.1,464.1z"/>
		<path class="st2" d="M944.5,563.4c-1.3-3,1.7-8.7,7.2-13.4c6-5.1,12.7-7.1,15-4.4s-0.7,9-6.7,14.2c-5.2,4.4-10.8,6.5-13.8,5.3
			c-3.2,2.2-6.6,4.2-10.1,6c2.6,0.7,5.8,2.7,8.7,5.6c4.8,5,7,10.8,4.8,12.9c-2.2,2.2-8-0.1-12.8-5.1c-3.8-3.9-6-8.4-5.6-11.1
			c-7.1,3.1-14.6,5.5-22.2,7.1c3.1,1.2,6.6,6.1,8.5,12.5c2.4,8.1,1.4,15.5-2.2,16.5s-8.5-4.6-10.9-12.6c-2-6.7-1.7-13,0.6-15.5
			c-12,2.4-24.4,3.6-36.9,4.8c-1.7,0.2-3.5,0.3-5.2,0.5c3.2,0.9,7.1,3.5,10.6,7.4c5.6,6.3,7.8,13.4,5,15.9
			c-2.8,2.5-9.6-0.6-15.2-6.8s-7.8-13.4-5-15.9c0,0,0.1-0.1,0.1-0.1c-9.9,1-19.8,2.5-29.5,4.7c2.4,1.1,4.6,2.7,6.5,4.6
			c5,5,7.1,11.1,4.6,13.5c-2.5,2.5-8.5,0.4-13.5-4.6c-3.9-3.9-6-8.5-5.6-11.5c-9.2,2.6-18,6.4-26.3,11.3c2.7,0.3,6.2,1.8,9.6,4.5
			c5.4,4.3,8.3,9.7,6.3,12.1c-1.9,2.4-7.9,0.9-13.3-3.3c-4.4-3.5-7.1-7.7-6.9-10.5c-4.6,3.1-8.9,6.6-12.9,10.4
			c-0.5,0.4-1.2,0.4-1.7,0c-0.4-0.5-0.4-1.2,0-1.7c4-3.8,8.2-7.2,12.8-10.3c-1.9-2-2.8-6.8-2-12.2c0.9-6.8,4.2-12,7.3-11.6
			c3.1,0.4,4.8,6.3,3.8,13.2c-0.3,2-0.8,4-1.5,6c8-4.4,16.4-7.9,25.2-10.3c-2.1-2.3-2.1-7.7,0-13.3c2.6-6.6,7.3-10.9,10.6-9.6
			c3.3,1.3,3.8,7.7,1.3,14.2c-0.9,2.4-2.3,4.7-4,6.7c8.8-1.9,17.7-3.4,26.7-4.3c-2-2.7-2.2-8.8-0.1-15.3c2.6-8,7.6-13.5,11.2-12.4
			s4.4,8.6,1.8,16.6c-1.4,4.4-3.6,8.1-5.9,10.3c1.7-0.2,3.4-0.3,5.2-0.5c12.6-1.3,25.1-2.4,37.2-4.9c-2-2.2-2.7-7.6-1.4-13.6
			c1.5-7.4,5.4-12.8,8.7-12.1c3.3,0.7,4.7,7.2,3.2,14.6c-0.6,3.5-2.1,6.8-4.2,9.7c6.7-1.6,13.3-3.8,19.6-6.7
			c-2-1.3-3.2-5.4-2.7-10.1c0.6-5.5,3.2-9.7,5.9-9.5c2.7,0.3,4.4,5,3.8,10.5c-0.2,2.3-0.9,4.6-2,6.7
			C938.9,567,941.7,565.2,944.5,563.4z"/>
		<path class="st3" d="M948.3,645.6c25.8-16.3,18.6-56.7-9.1-43.5c-17.9,8.5-23.3-33-32.5-16.9c-2.3-10.9-11.3-23.3-18.8-29
			c-6.8-5.2-13.5-0.2-14.7,9c-0.4,3.5-0.5,7-0.4,10.6c-3.4-8.7-12.6-15.8-19.5-19.4c-3.6-1.9-9-1.6-10.3,3.9
			c-1,4.2,0.2,8.8,1.4,12.7c2.9,9.5,8.4,16.9,12.8,25.3c-2-5.1-6.9-9.3-10.4-12.8c-9.3-9.4-19.6-19.2-31.3-23.4
			c-2.1-0.9-4.4-1.4-6.7-1.6c-1.4-0.1-2.9,0-4.3,0.4c-10,2.8-4,17.8-0.3,24.1c3,5.2,6.7,9.6,10,14.4c-9.1-9.1-24.4-15.7-36-14.9
			c-5.9,0.4-15.4,4.8-12.3,14.2c2.5,7.5,9.1,12.4,14.6,16c8.9,5.9,18.5,10.6,26.6,18.1c-14.7-4.7-30.9-7.3-45.9-2.8
			c-7.6,2.3-14.1,5.2-13.5,16L948.3,645.6z"/>
		<path class="st4" d="M764.2,645.8c-4.5-1.8-8-10.3-9.8-13.6c-1.3-2.3-2.5-4.6-3.6-7c-4.7-9.9-6-28.9,11.3-32.4
			c16.1-3.3,29.9,12,37.7,20.6c2-5.8,9.7-12.5,16.1-15.5c5.9-2.8,11.5-0.1,12.6,4.8c0.3,1.9,0.5,3.8,0.4,5.7
			c2.9-4.7,10.8-8.4,16.7-10.4c3.1-1,7.7-0.9,8.8,2.1c0.9,2.2-0.2,4.7-1.2,6.8c-2.4,5.1-7.2,9-11,13.5c1.7-2.7,5.9-5,8.9-6.8
			c8-5,16.8-10.3,26.8-12.5c1.9-0.5,3.8-0.8,5.7-0.9c1.2-0.1,2.5,0,3.7,0.2c8.6,1.5,3.4,9.5,0.2,12.9c-2.6,2.8-5.8,5.1-8.6,7.7
			c7.7-4.9,20.9-8.4,30.8-8c5,0.2,13.2,2.6,10.5,7.6c-2.1,4-7.8,6.6-12.5,8.6c-7.6,3.1-15.8,5.7-22.7,9.7
			c12.6-2.5,26.4-3.9,39.2-1.5c6.5,1.2,12,2.8,11.6,8.6L764.2,645.8z"/>
		<g>
			<path class="st4" d="M153.8,646.8c3.3-5.4,4.1-13.2,5.3-19.3c2.9-14.8,3.5-29.7,0.1-44.5c-1.5-6.4-3.6-13.6-7.9-18.8
				c-3.8-4.6-9-3.6-12.5,0.7c-4.5,5.6-8.2,13.7-17,10.2c-1.4-0.6-2.7-1.4-3.8-2.3c-7.7-6.3-10.4-17.1-11.2-26.6
				c-0.6-6.7,0.1-14.4-5-19.6c-5-5.1-11.2,1.6-14.4,5.2c-1.1,1.2-4.1,3.9-5.2,1.2c-4.9-12.8,10.5-29.2-1.3-40.1
				c-10.7-10-28.6-4.5-30.6,10.3c-2.2,16,11.4,27.3,14,42.1c1,5.6-1.3,11-2.5,16.3c-1.5,6.6-1.5,12.8,1.1,19.2
				c4.1,10,14.1,14.7,23.5,18.4c6.6,2.5,14.7,5.8,18.4,12.3c2.4,4.3,2.2,9.4,1.4,14.1c-0.6,3.7-1.7,7.7,1.2,10.8
				c4.6,4.9,13.2,2.9,19.1,2.6c9.4-0.4,17.5,1.1,24.6,7.6L153.8,646.8z"/>
			<g>
				<defs>
					<path id="SVGID_1_" d="M153.8,646.8c3.3-5.4,4.1-13.2,5.3-19.3c2.9-14.8,3.5-29.7,0.1-44.5c-1.5-6.4-3.6-13.6-7.9-18.8
						c-3.8-4.6-9-3.6-12.5,0.7c-4.5,5.6-8.2,13.7-17,10.2c-1.4-0.6-2.7-1.4-3.8-2.3c-7.7-6.3-10.4-17.1-11.2-26.6
						c-0.6-6.7,0.1-14.4-5-19.6c-5-5.1-11.2,1.6-14.4,5.2c-1.1,1.2-4.1,3.9-5.2,1.2c-4.9-12.8,10.5-29.2-1.3-40.1
						c-10.7-10-28.6-4.5-30.6,10.3c-2.2,16,11.4,27.3,14,42.1c1,5.6-1.3,11-2.5,16.3c-1.5,6.6-1.5,12.8,1.1,19.2
						c4.1,10,14.1,14.7,23.5,18.4c6.6,2.5,14.7,5.8,18.4,12.3c2.4,4.3,2.2,9.4,1.4,14.1c-0.6,3.7-1.7,7.7,1.2,10.8
						c4.6,4.9,13.2,2.9,19.1,2.6c9.4-0.4,17.5,1.1,24.6,7.6L153.8,646.8z"/>
				</defs>
				<clipPath id="SVGID_2_">
					<use xlink:href="#SVGID_1_"  style="overflow:visible;"/>
				</clipPath>
				<g class="st5">
					<path class="st6" d="M67.9,508.7c-1.8,8,1,17.1,3.4,24.7c2.6,8.1,5.8,15.9,10.7,23c11.1,16.2,27.3,27.8,40.5,42.1
						c14.3,15.4,23.6,33.5,31.8,52.7c0.2,0.5,0.7,0.7,1.2,0.5c0.5-0.2,0.7-0.7,0.5-1.2l0,0c-8.3-19.3-17.8-37.6-32.2-53.2
						c-13.1-14.2-29.3-25.8-40.3-41.9c-4.7-6.9-7.9-14.6-10.4-22.5c-2.3-7.3-5-16-3.3-23.7c0.1-0.5-0.2-1-0.7-1
						C68.4,508,68,508.3,67.9,508.7L67.9,508.7z"/>
				</g>
			</g>
		</g>
		<path class="st0" d="M102.7,430.9c-3.6,1.3-10.1-2.5-15.3-9.2c-5.7-7.3-7.6-15.3-4.4-17.9c3.3-2.5,10.5,1.3,16.2,8.7
			c4.9,6.3,7,13,5.5,16.5c2.4,3.9,4.6,7.9,6.5,12.1c0.9-3,3.5-6.6,7.1-9.9c6.1-5.4,13-7.6,15.4-4.9c2.4,2.7-0.6,9.3-6.6,14.7
			c-4.8,4.3-10.1,6.5-13.3,5.9c3.2,8.5,5.6,17.3,7.1,26.3c1.6-3.6,7.5-7.4,15-9.2c9.6-2.4,18.2-0.8,19.3,3.5
			c1.1,4.3-5.8,9.7-15.4,12.1c-8,2-15.3,1.2-18.1-1.6c2.1,14.1,2.8,28.7,3.6,43.4c0.1,2,0.2,4.1,0.3,6.2c1.2-3.7,4.5-8.1,9.3-11.9
			c7.7-6.2,16.1-8.4,18.9-5c2.8,3.4-1.2,11.2-8.9,17.4c-7.7,6.2-16.1,8.4-18.9,5c0,0-0.1-0.1-0.1-0.1c0.6,11.7,1.9,23.3,3.8,34.8
			c1.5-2.8,3.4-5.3,5.8-7.4c6.1-5.6,13.3-7.6,16.1-4.6c2.8,3,0,10-6.1,15.6c-4.8,4.4-10.3,6.6-13.8,5.9c2.6,10.9,6.5,21.5,11.8,31.4
			c0.5-3.1,2.5-7.2,5.8-10.9c5.3-6.1,11.8-9.1,14.6-6.8s0.6,9.3-4.7,15.4c-4.3,5-9.5,7.9-12.7,7.5c3.4,5.5,7.2,10.8,11.4,15.7
			c0.5,0.6,0.5,1.4-0.1,1.9c-0.6,0.5-1.4,0.5-1.9-0.1c0,0,0,0,0,0c-4.2-4.9-8-10-11.3-15.5c-2.5,2.1-8.1,2.9-14.3,1.7
			c-8-1.5-13.9-5.6-13.2-9.2c0.7-3.6,7.7-5.2,15.6-3.8c2.4,0.4,4.7,1.1,6.9,2.1c-4.7-9.6-8.3-19.7-10.7-30.1
			c-2.8,2.3-9.2,2.1-15.6-0.8c-7.6-3.4-12.4-9.2-10.7-12.9s9.2-4.1,16.7-0.7c2.8,1.2,5.4,2.9,7.6,5c-1.8-10.4-2.9-20.9-3.6-31.4
			c-3.3,2.2-10.4,2-17.9-0.8c-9.2-3.5-15.4-9.6-13.9-13.8c1.6-4.1,10.3-4.7,19.5-1.2c5.1,1.9,9.3,4.7,11.8,7.5
			c-0.1-2-0.2-4.1-0.3-6.1c-0.8-14.8-1.4-29.6-3.6-43.9c-2.7,2.2-9.1,2.7-15.9,0.9c-8.6-2.2-14.7-7.1-13.7-10.9
			c1-3.8,8.7-5.1,17.3-2.9c4.7,1.2,8.6,3.2,11.1,5.4c-1.5-7.9-3.8-15.7-6.7-23.3c-1.6,2.3-6.5,3.5-12,2.6c-6.4-1-11.2-4.3-10.8-7.4
			c0.5-3.1,6.1-4.8,12.5-3.8c2.7,0.4,5.4,1.3,7.7,2.8C106.6,437.6,104.7,434.2,102.7,430.9z"/>
		<g>
			<path class="st7" d="M165.3,619.2c5.7-2.8,10.5-9,14.7-13.5c10.3-11,18.8-23.3,23.9-37.6c2.2-6.2,4.2-13.4,3.3-20.1
				c-0.8-6-5.7-7.8-11-6.1c-6.8,2.3-14.3,7.2-19.8-0.4c-0.9-1.2-1.6-2.6-2-4c-3.1-9.4,0.3-20,4.7-28.5c3-6,7.7-12.1,6.3-19.2
				c-1.5-7-10.3-4.7-14.9-3.3c-1.6,0.5-5.6,1.1-5-1.8c2.7-13.5,24.5-19,20.3-34.6c-3.7-14.2-21.8-19.1-31.4-7.6
				c-10.4,12.4-5,29.2-10.7,43c-2.1,5.2-7,8.5-10.8,12.4c-4.8,4.8-8.1,10-9.3,16.8c-1.9,10.6,4,19.9,10.1,28.1
				c4.2,5.7,9.4,12.7,8.9,20.2c-0.3,4.9-3.2,9.2-6.3,12.7c-2.5,2.8-5.6,5.6-4.8,9.7c1.3,6.6,9.6,9.5,14.7,12.4
				c8.2,4.7,14.2,10.2,16.7,19.5L165.3,619.2z"/>
			<g>
				<defs>
					<path id="SVGID_3_" d="M165.3,619.2c5.7-2.8,10.5-9,14.7-13.5c10.3-11,18.8-23.3,23.9-37.6c2.2-6.2,4.2-13.4,3.3-20.1
						c-0.8-6-5.7-7.8-11-6.1c-6.8,2.3-14.3,7.2-19.8-0.4c-0.9-1.2-1.6-2.6-2-4c-3.1-9.4,0.3-20,4.7-28.5c3-6,7.7-12.1,6.3-19.2
						c-1.5-7-10.3-4.7-14.9-3.3c-1.6,0.5-5.6,1.1-5-1.8c2.7-13.5,24.5-19,20.3-34.6c-3.7-14.2-21.8-19.1-31.4-7.6
						c-10.4,12.4-5,29.2-10.7,43c-2.1,5.2-7,8.5-10.8,12.4c-4.8,4.8-8.1,10-9.3,16.8c-1.9,10.6,4,19.9,10.1,28.1
						c4.2,5.7,9.4,12.7,8.9,20.2c-0.3,4.9-3.2,9.2-6.3,12.7c-2.5,2.8-5.6,5.6-4.8,9.7c1.3,6.6,9.6,9.5,14.7,12.4
						c8.2,4.7,14.2,10.2,16.7,19.5L165.3,619.2z"/>
				</defs>
				<clipPath id="SVGID_4_">
					<use xlink:href="#SVGID_3_"  style="overflow:visible;"/>
				</clipPath>
				<g class="st8">
					<path class="st6" d="M166.4,456.6c-5.8,5.8-8.3,15-10.3,22.7c-2.2,8.2-3.6,16.6-3.3,25.1c0.7,19.6,8.2,38.1,11.7,57.2
						c3.8,20.6,2.1,41-1.2,61.5c-0.1,0.5,0.2,0.9,0.7,1c0.5,0.1,0.9-0.2,1-0.7c0,0,0,0,0,0c3.3-20.7,5.1-41.3,1.2-62.1
						c-3.5-19-11-37.5-11.7-56.9c-0.3-8.4,1.1-16.5,3.2-24.6c1.9-7.4,4.3-16.2,9.9-21.9c0.3-0.4,0.3-0.9-0.1-1.3
						C167.3,456.3,166.8,456.3,166.4,456.6L166.4,456.6z"/>
				</g>
			</g>
		</g>
		<rect x="49.9" y="642.8" class="st9" width="948.9" height="5.1"/>
	</g>
	<g>
		<path class="st10" d="M498.1,375H310.4l-43.5,273.4h231.2V375z"/>
		<g>
			<rect x="137.4" y="608.5" class="st11" width="152.9" height="38.6"/>
			<rect x="163.3" y="569.8" class="st11" width="152.9" height="38.6"/>
			<rect x="189.2" y="531.1" class="st11" width="152.9" height="38.6"/>
			<rect x="215.1" y="492.5" class="st11" width="152.9" height="38.6"/>
			<rect x="241" y="453.8" class="st11" width="152.9" height="38.6"/>
			<rect x="266.8" y="415.1" class="st11" width="152.9" height="38.6"/>
			<rect x="292.7" y="376.4" class="st11" width="152.9" height="38.6"/>
			<g>
				<g>
					<path class="st12" d="M673,580.2H432.7c-18.9,0-34.2,15.3-34.3,34.2c0,0,0,0,0,0v0.1c0,18.9,15.3,34.3,34.3,34.3c0,0,0,0,0,0
						H673V580.2z"/>
					<path class="st13" d="M768.7,580.2H604.1c-18.9,0-34.3,15.3-34.3,34.2c0,0,0,0,0,0v0.1c0,18.9,15.3,34.3,34.3,34.3h164.6V580.2
						z"/>
					<g>
						<path class="st14" d="M768.7,594.7H602c-10.9,0-19.8,8.9-19.8,19.8c0,0,0,0,0,0v0c0,10.9,8.9,19.8,19.8,19.8l0,0h166.7V594.7z
							"/>
						<g>
							<defs>
								<path id="SVGID_5_" d="M768.7,594.7H602c-10.9,0-19.8,8.9-19.8,19.8c0,0,0,0,0,0v0c0,10.9,8.9,19.8,19.8,19.8l0,0h166.7
									V594.7z"/>
							</defs>
							<clipPath id="SVGID_6_">
								<use xlink:href="#SVGID_5_"  style="overflow:visible;"/>
							</clipPath>
							<g class="st15">
								<g>
									<path class="st16" d="M768.7,603H582c-2,0-3.6,1.6-3.6,3.6v0c0,2,1.6,3.6,3.6,3.6h186.7V603z"/>
									<path class="st16" d="M768.7,618H582c-2,0-3.6,1.6-3.6,3.6l0,0c0,2,1.6,3.6,3.6,3.6h186.7V618z"/>
								</g>
							</g>
						</g>
					</g>
				</g>
				<g>
					<path class="st17" d="M724.2,306.2H484c-18.9,0-34.2,15.3-34.3,34.2c0,0,0,0,0,0v0.1c0,18.9,15.3,34.3,34.3,34.3c0,0,0,0,0,0
						h240.2L724.2,306.2z"/>
					<path class="st18" d="M819.9,306.2H655.3c-18.9,0-34.3,15.3-34.3,34.2c0,0,0,0,0,0v0.1c0,18.9,15.3,34.3,34.3,34.3h164.6
						L819.9,306.2z"/>
					<g>
						<path class="st14" d="M819.9,320.6H653.3c-10.9,0-19.8,8.9-19.8,19.8c0,0,0,0,0,0v0c0,10.9,8.9,19.8,19.8,19.8l0,0h166.7
							V320.6z"/>
						<g>
							<defs>
								<path id="SVGID_7_" d="M819.9,320.6H653.3c-10.9,0-19.8,8.9-19.8,19.8c0,0,0,0,0,0v0c0,10.9,8.9,19.8,19.8,19.8l0,0h166.7
									V320.6z"/>
							</defs>
							<clipPath id="SVGID_8_">
								<use xlink:href="#SVGID_7_"  style="overflow:visible;"/>
							</clipPath>
							<g class="st19">
								<g>
									<path class="st16" d="M819.9,329H633.2c-2,0-3.6,1.6-3.6,3.6l0,0c0,2,1.6,3.6,3.6,3.6h186.7L819.9,329z"/>
									<path class="st16" d="M819.9,344H633.2c-2,0-3.6,1.6-3.6,3.6l0,0c0,2,1.6,3.6,3.6,3.6h186.7L819.9,344z"/>
								</g>
							</g>
						</g>
					</g>
				</g>
				<g>
					<path class="st12" d="M591.3,443.4h240.2c18.9,0,34.2,15.3,34.3,34.2c0,0,0,0,0,0v0.1c0,18.9-15.3,34.3-34.2,34.3c0,0,0,0,0,0
						H591.3V443.4z"/>
					<path class="st20" d="M828.4,476.7c0-5.9-4.8-10.7-10.7-10.7h-51.3c-5.9,0-10.7,4.8-10.7,10.7v1.1c0,5.9,4.8,10.7,10.7,10.7
						h51.3c5.9,0,10.7-4.8,10.7-10.7c0,0,0,0,0,0V476.7z"/>
					<path class="st13" d="M495.6,443.4h164.6c18.9,0,34.3,15.3,34.3,34.2c0,0,0,0,0,0v0.1c0,18.9-15.3,34.3-34.3,34.3H495.6V443.4z
						"/>
					<g>
						<path class="st14" d="M495.6,457.9h166.7c10.9,0,19.8,8.9,19.8,19.8c0,0,0,0,0,0v0c0,10.9-8.9,19.8-19.8,19.8l0,0H495.6V457.9
							z"/>
						<g>
							<defs>
								<path id="SVGID_9_" d="M495.6,457.9h166.7c10.9,0,19.8,8.9,19.8,19.8c0,0,0,0,0,0v0c0,10.9-8.9,19.8-19.8,19.8l0,0H495.6
									V457.9z"/>
							</defs>
							<clipPath id="SVGID_10_">
								<use xlink:href="#SVGID_9_"  style="overflow:visible;"/>
							</clipPath>
							<g class="st21">
								<g>
									<path class="st16" d="M495.6,466.2h186.7c2,0,3.6,1.6,3.6,3.6l0,0c0,2-1.6,3.6-3.6,3.6H495.6V466.2z"/>
									<path class="st16" d="M495.6,481.2h186.7c2,0,3.6,1.6,3.6,3.6l0,0c0,2-1.6,3.6-3.6,3.6H495.6V481.2z"/>
								</g>
							</g>
						</g>
					</g>
				</g>
				<g>
					<path class="st17" d="M708.8,511.5H468.5c-18.9,0-34.2,15.3-34.3,34.2c0,0,0,0,0,0v0.1c0,18.9,15.3,34.3,34.3,34.3c0,0,0,0,0,0
						h240.2V511.5z"/>
					<path class="st18" d="M804.5,511.5H639.9c-18.9,0-34.3,15.3-34.3,34.2c0,0,0,0,0,0v0.1c0,18.9,15.3,34.3,34.3,34.3h164.6V511.5
						z"/>
					<g>
						<path class="st14" d="M804.5,526H637.8c-10.9,0-19.8,8.9-19.8,19.8c0,0,0,0,0,0v0c0,10.9,8.9,19.8,19.8,19.8l0,0h166.7V526z"
							/>
						<g>
							<defs>
								<path id="SVGID_11_" d="M804.5,526H637.8c-10.9,0-19.8,8.9-19.8,19.8c0,0,0,0,0,0v0c0,10.9,8.9,19.8,19.8,19.8l0,0h166.7
									V526z"/>
							</defs>
							<clipPath id="SVGID_12_">
								<use xlink:href="#SVGID_11_"  style="overflow:visible;"/>
							</clipPath>
							<g class="st22">
								<g>
									<path class="st16" d="M804.5,534.4H617.8c-2,0-3.6,1.6-3.6,3.6l0,0c0,2,1.6,3.6,3.6,3.6h186.7L804.5,534.4z"/>
									<path class="st16" d="M804.5,549.3H617.8c-2,0-3.6,1.6-3.6,3.6l0,0c0,2,1.6,3.6,3.6,3.6h186.7L804.5,549.3z"/>
								</g>
							</g>
						</g>
					</g>
					<path class="st17" d="M664.5,537.5c0-1.7-1.3-3-3-3h-17c-1.7,0-3,1.3-3,3c0,0,0,0,0,0v40.7c0,0.2,0.1,0.5,0.4,0.6
						c0.2,0.1,0.5,0.1,0.7-0.1c2.4-2.2,8-7.5,9.6-9c0.2-0.2,0.6-0.2,0.8,0c1.7,1.5,8,6.9,10.5,9.1c0.2,0.2,0.4,0.2,0.6,0.1
						c0.2-0.1,0.4-0.3,0.4-0.6L664.5,537.5z"/>
				</g>
				<g>
					<path class="st10" d="M560,374.7h240.2c18.9,0,34.2,15.3,34.3,34.2c0,0,0,0,0,0v0.1c0,18.9-15.3,34.3-34.2,34.3c0,0,0,0,0,0
						H560V374.7z"/>
					<path class="st23" d="M741.2,374.7H774c18.9,0,34.2,15.3,34.3,34.2c0,0,0,0,0,0v0.1c0,18.9-15.3,34.2-34.2,34.3c0,0,0,0,0,0
						h-32.8c18.9,0,34.2-15.3,34.3-34.3V409C775.4,390,760.1,374.7,741.2,374.7z"/>
					<path class="st12" d="M464.3,374.7h164.6c18.9,0,34.3,15.3,34.3,34.2c0,0,0,0,0,0v0.1c0,18.9-15.3,34.3-34.3,34.3H464.3V374.7z
						"/>
					<g>
						<path class="st14" d="M464.3,389.2H631c10.9,0,19.8,8.9,19.8,19.8c0,0,0,0,0,0v0c0,10.9-8.9,19.8-19.8,19.8l0,0H464.3V389.2z"
							/>
						<g>
							<defs>
								<path id="SVGID_13_" d="M464.3,389.2H631c10.9,0,19.8,8.9,19.8,19.8c0,0,0,0,0,0v0c0,10.9-8.9,19.8-19.8,19.8l0,0H464.3
									V389.2z"/>
							</defs>
							<clipPath id="SVGID_14_">
								<use xlink:href="#SVGID_13_"  style="overflow:visible;"/>
							</clipPath>
							<g class="st24">
								<g>
									<path class="st16" d="M464.3,397.6H651c2,0,3.6,1.6,3.6,3.6l0,0c0,2-1.6,3.6-3.6,3.6H464.3V397.6z"/>
									<path class="st16" d="M464.3,412.5H651c2,0,3.6,1.6,3.6,3.6l0,0c0,2-1.6,3.6-3.6,3.6H464.3V412.5z"/>
								</g>
							</g>
						</g>
					</g>
				</g>
			</g>
		</g>
		<g>
			<path class="st10" d="M291.7,608.5c0-0.8-0.6-1.4-1.4-1.4c0,0,0,0,0,0H137.4c-0.8,0-1.4,0.6-1.4,1.4v38.6c0,0.8,0.6,1.4,1.4,1.4
				h152.9c0.8,0,1.4-0.6,1.4-1.4c0,0,0,0,0,0L291.7,608.5z M288.9,609.9v35.8H138.8v-35.8H288.9z"/>
			<path class="st10" d="M317.6,569.8c0-0.8-0.6-1.4-1.4-1.4c0,0,0,0,0,0H163.3c-0.8,0-1.4,0.6-1.4,1.4v38.6c0,0.8,0.6,1.4,1.4,1.4
				h152.9c0.8,0,1.4-0.6,1.4-1.4c0,0,0,0,0,0L317.6,569.8z M314.8,571.2V607H164.7v-35.8H314.8z"/>
			<path class="st10" d="M343.5,531.1c0-0.8-0.6-1.4-1.4-1.4c0,0,0,0,0,0H189.2c-0.8,0-1.4,0.6-1.4,1.4v38.6c0,0.8,0.6,1.4,1.4,1.4
				h152.9c0.8,0,1.4-0.6,1.4-1.4c0,0,0,0,0,0L343.5,531.1z M340.7,532.5v35.8H190.6v-35.8H340.7z"/>
			<path class="st10" d="M369.4,492.5c0-0.8-0.6-1.4-1.4-1.4c0,0,0,0,0,0H215.1c-0.8,0-1.4,0.6-1.4,1.4V531c0,0.8,0.6,1.4,1.4,1.4
				H368c0.8,0,1.4-0.6,1.4-1.4c0,0,0,0,0,0L369.4,492.5z M366.6,493.9v35.8H216.5v-35.8L366.6,493.9z"/>
			<path class="st10" d="M395.2,453.8c0-0.8-0.6-1.4-1.4-1.4c0,0,0,0,0,0H241c-0.8,0-1.4,0.6-1.4,1.4v38.6c0,0.8,0.6,1.4,1.4,1.4
				h152.9c0.8,0,1.4-0.6,1.4-1.4c0,0,0,0,0,0L395.2,453.8z M392.5,455.2V491H242.4v-35.8H392.5z"/>
			<path class="st10" d="M421.1,415.1c0-0.8-0.6-1.4-1.4-1.4c0,0,0,0,0,0H266.8c-0.8,0-1.4,0.6-1.4,1.4v38.6c0,0.8,0.6,1.4,1.4,1.4
				h152.9c0.8,0,1.4-0.6,1.4-1.4c0,0,0,0,0,0V415.1z M418.4,416.5v35.8H268.2v-35.8L418.4,416.5z"/>
			<path class="st10" d="M447,376.4c0-0.8-0.6-1.4-1.4-1.4c0,0,0,0,0,0H292.7c-0.8,0-1.4,0.6-1.4,1.4V415c0,0.8,0.6,1.4,1.4,1.4
				h152.9c0.8,0,1.4-0.6,1.4-1.4c0,0,0,0,0,0V376.4z M444.2,377.8v35.8H294.1v-35.8H444.2z"/>
		</g>
	</g>
	<g>
		<path class="st17" d="M224.3,123.7c-5.6-19.3,5.5-39.4,24.8-45c9.5-2.7,19.7-1.5,28.2,3.4c14-24.1,44.8-32.3,68.9-18.3
			c12.2,7.1,20.9,19,24,32.8c13.4-10,32.3-7.3,42.3,6c4.6,6.1,6.7,13.6,5.9,21.2H224.3z"/>
		<rect x="196.4" y="122.3" class="st11" width="233.4" height="2.4"/>
	</g>
	<g>
		<path class="st17" d="M770.9,204.4c-3.8-13.2,3.8-27,17-30.9c6.5-1.9,13.5-1,19.4,2.3c9.6-16.5,30.7-22.1,47.2-12.6
			c8.4,4.9,14.3,13,16.4,22.5c9.1-6.9,22.1-5,29,4.1c3.1,4.2,4.6,9.3,4.1,14.5H770.9z"/>
		<rect x="751.8" y="203.4" class="st11" width="160" height="1.7"/>
	</g>
	<g>
		<path class="st17" d="M516.7,177.6c-2-6.8,1.9-14,8.8-15.9c3.4-1,7-0.5,10,1.2c4.9-8.5,15.9-11.4,24.4-6.5
			c4.3,2.5,7.4,6.7,8.5,11.6c4.7-3.6,11.4-2.6,15,2.1c1.4,1.9,2.1,4.1,2.1,6.4c0,0.4,0,0.7-0.1,1.1H516.7z"/>
		<rect x="506.8" y="177.1" class="st11" width="82.6" height="0.9"/>
	</g>
	<g>
		<g>
			
				<rect x="775.2" y="352.1" transform="matrix(0.7059 -0.7083 0.7083 0.7059 -26.3825 659.9823)" class="st25" width="12.8" height="19.4"/>
			<g>
				<defs>
					
						<rect id="SVGID_15_" x="775.2" y="352.1" transform="matrix(0.7059 -0.7083 0.7083 0.7059 -26.3825 659.9823)" width="12.8" height="19.4"/>
				</defs>
				<clipPath id="SVGID_16_">
					<use xlink:href="#SVGID_15_"  style="overflow:visible;"/>
				</clipPath>
				<g class="st26">
					<path class="st27" d="M784.6,353.7c1.9,5.9-6.7,7.6-5.2,11.6c0.4,1.1,1.1,2.1,2.1,2.8c1.5,1,3.3,1.5,4.9,2.4
						c0.6,0.3,2.4,1.1,2,2.1c-0.2,0.5-0.9,0.7-1.3,0.9c-1.6,0.6-3.2,0.8-4.9,0.8c-4.9,0-10.7-1.2-13.4-5.7c-0.5-0.8-0.8-1.7-1.1-2.6
						c-1.5-5.9,1.6-12.5,6.4-15.9c2.4-1.7,5.8-3,8.6-1.6c0.7,0.4,1.4,0.9,2,1.6L784.6,353.7z"/>
				</g>
			</g>
		</g>
		<g>
			
				<rect x="678.7" y="366.5" transform="matrix(0.3637 -0.9315 0.9315 0.3637 90.6273 878.4544)" class="st25" width="19.4" height="12.8"/>
			<g>
				<defs>
					
						<rect id="SVGID_17_" x="678.7" y="366.5" transform="matrix(0.3637 -0.9315 0.9315 0.3637 90.6272 878.4545)" width="19.4" height="12.8"/>
				</defs>
				<clipPath id="SVGID_18_">
					<use xlink:href="#SVGID_17_"  style="overflow:visible;"/>
				</clipPath>
				<g class="st28">
					<path class="st27" d="M698.1,371c-3.7,5-10-1.1-12.5,2.4c-0.7,1-1.1,2.1-1.1,3.3c0.1,1.8,0.6,3.6,0.9,5.4
						c0.1,0.7,0.5,2.6-0.6,2.8c-0.6,0-1.1-0.2-1.5-0.6c-1.4-1-2.5-2.2-3.4-3.6c-2.8-4-5.2-9.4-3-14.2c0.4-0.8,0.9-1.6,1.5-2.3
						c3.9-4.6,11.1-5.9,16.7-3.9c2.8,1,5.8,3,6.2,6.1c0.1,0.8,0,1.7-0.1,2.5L698.1,371z"/>
				</g>
			</g>
		</g>
		<path class="st29" d="M802.8,356.2c-2.9,0.7-13,5.3-13,5.3c-1.7,5.8-4,8.1-9,8.9c-0.3,3.7,1.2,6.9,5.7,7.8
			c3.1,0.6,22.8-18.7,20.6-20.6C807.1,357.6,804.7,355.8,802.8,356.2z"/>
		<path class="st29" d="M701.9,390.1c-1.7-2.4-10-9.8-10-9.8c-6,0.7-9-0.4-11.8-4.7c-3.5,1.2-5.8,3.8-4.9,8.3
			c0.7,3.1,26.3,13.5,27.1,10.6C702.3,394.6,703.1,391.7,701.9,390.1z"/>
		<g>
			<path class="st30" d="M783.5,351.1c0,0-37.5-59.3-76.6-78c-36-17.2-76.3-6.9-76.3-6.9c-25,4.7-12.2,39.9,10.1,40.2h47.3
				l79.4,54.7C773.9,367.6,788.9,356.8,783.5,351.1z"/>
			<g>
				<defs>
					<path id="SVGID_19_" d="M783.5,351.1c0,0-37.5-59.3-76.6-78c-36-17.2-76.3-6.9-76.3-6.9c-25,4.7-12.2,39.9,10.1,40.2h47.3
						l79.4,54.7C773.9,367.6,788.9,356.8,783.5,351.1z"/>
				</defs>
				<clipPath id="SVGID_20_">
					<use xlink:href="#SVGID_19_"  style="overflow:visible;"/>
				</clipPath>
				<g class="st31">
					<path class="st27" d="M717.2,248.4c-5.8,1.5-11.7,5.9-17,8.6c-6.5,3.4-12.9,7-18.3,11.9c-2.6,2.3-5.1,5.2-4.9,9
						c0.4,9.4,14.7,14,21.3,18c6.8,3.9,13.4,8.3,19.6,13.2c3.7,3,8.5,15.8,12.3,18.7c8.2,6.5,17.8,7.3,25.9,14
						c9.1,7.5,16.5,15.1,21.1,26.5c1.4,3.5,4.4,5.4,0,7.6c-4.5,2.3-10.7,1.2-15.5,0.6c-11.7-1.5-23.1-4.8-34.4-8.1
						c-30.2-8.7-60-18.5-84.7-38.6c-13.3-10.8-25.1-23.5-29.4-40.5c-3.4-13.4-2-28.4,4.4-40.7c10.5-20.3,33.7-31.7,55.4-23.5
						L717.2,248.4z"/>
				</g>
			</g>
		</g>
		<g>
			<path class="st10" d="M699.6,368.4c0,0,39.9-69.9,5.6-87.2c-35.6-17.9-75.4-12.7-75.4-12.7c-25,4.7-11.4,37.4,10.8,37.7h47.3
				l-4.5,58.7C681,371.5,696.8,374,699.6,368.4z"/>
			<g>
				<defs>
					<path id="SVGID_21_" d="M699.6,368.4c0,0,39.9-69.9,5.6-87.2c-35.6-17.9-75.4-12.7-75.4-12.7c-25,4.7-11.4,37.4,10.8,37.7h47.3
						l-4.5,58.7C681,371.5,696.8,374,699.6,368.4z"/>
				</defs>
				<clipPath id="SVGID_22_">
					<use xlink:href="#SVGID_21_"  style="overflow:visible;"/>
				</clipPath>
				<g class="st32">
					<path class="st27" d="M677.9,260.2c-3.8,0.7-7.5,3-10.9,4.8c-8,4.2-16,9-22.4,15.5c-2.9,2.9-8.2,8.8-5.4,13.4
						c2.2,3.5,8.3,3.9,11.8,3.3c15.7-2.7,17.1,2,33.7,3.7c6.1,0.6,13.1-4.1,13.1-4.1s-2.2,3.9-2.9,5.1c-2.5,4.6-3.4,5.4-4.3,10.8
						c-1,6.4,2,12.9,1.7,19.4c-0.3,8.5-6.2,15.8-6.9,24.3c-0.6,6.6-2.4,15.6-11,16c-9.8,0.5-16.2-5.3-24.3-9.9
						c-24.5-13.9-52.5-33.7-56.3-63.9c-4.2-33.4,25.6-67.6,60.1-63.1L677.9,260.2z"/>
				</g>
			</g>
		</g>
		<g>
			<path class="st33" d="M675.6,199.8c-0.8-5.6-12.2-10.5-15.9-6.1c-8.1,9.8-17.3,51.6-9.7,63c7.5,11.4,54.9,5.1,54.9,5.1
				c2.5,0.2,3.6,0.2,4.1,1.2l16.1-3.5c-0.3-0.8-2.5-4-15.4-3.5l-42.8-15.4C666.8,240.6,676.8,207.6,675.6,199.8z"/>
			<g>
				<defs>
					<path id="SVGID_23_" d="M675.6,199.8c-0.8-5.6-12.2-10.5-15.9-6.1c-8.1,9.8-17.3,51.6-9.7,63c7.5,11.4,54.9,5.1,54.9,5.1
						c2.5,0.2,3.6,0.2,4.1,1.2l16.1-3.5c-0.3-0.8-2.5-4-15.4-3.5l-42.8-15.4C666.8,240.6,676.8,207.6,675.6,199.8z"/>
				</defs>
				<clipPath id="SVGID_24_">
					<use xlink:href="#SVGID_23_"  style="overflow:visible;"/>
				</clipPath>
				<g class="st34">
					<g>
						<path class="st35" d="M641,211.1c1.5,4.1,6.5,7.6,9.9,10c4.6,3.3,9.8,6.3,15.5,7.2c12.3,2,25.2-4.8,27.6-17.7
							c3.1-16.4-12.3-30.9-28.1-30.1c-11.7,0.6-21.2,7.7-27.1,17.5L641,211.1z"/>
						<path class="st27" d="M639.9,227.2c0.2,1.1,1.5,2.1,2.1,2.9c1.9,2.5,3.9,4.9,6,7.3c9.4,10.6,22.6,21,37.3,22.4
							c6.3,0.6,12.3-0.9,18.4-2.1c1.4-0.3,5.3-0.9,6,0.9c0.8,1.9-2.5,3.9-3.6,4.7c-5.2,3.4-11,5.6-17.1,6.6c-17.3,3-42,1.8-49.9-17
							L639.9,227.2z"/>
					</g>
				</g>
			</g>
		</g>
		<g>
			<path class="st35" d="M670.4,193.9c-13.6-7.6-27.3-9.2-40.9,1.1c-6,22.2-9.6,50.9-12.6,80.9c20.5,4.7,50,1,51.5-12.8
				C657.9,236.9,676,221.5,670.4,193.9z"/>
			<g>
				<defs>
					<path id="SVGID_25_" d="M670.4,193.9c-13.6-7.6-27.3-9.2-40.9,1.1c-6,22.2-9.6,50.9-12.6,80.9c20.5,4.7,50,1,51.5-12.8
						C657.9,236.9,676,221.5,670.4,193.9z"/>
				</defs>
				<clipPath id="SVGID_26_">
					<use xlink:href="#SVGID_25_"  style="overflow:visible;"/>
				</clipPath>
				<g class="st36">
					<path class="st27" d="M618.5,194c1.2,1.9,2.7,3.6,3.9,5.4c3.8,5.5,12.5,5.4,15.5,11.3c4.6,8.9-5,13.8-4.5,25.8
						c0.5,12-0.6,12.8-3.1,20.7c-1.3,4.1-2.1,8.8,0.6,12.6c1.9,2.7,5,4.1,8.1,4.9c6.9,1.9,13.1,0.8,19.9-0.9c2.4-0.6,5.1-1.5,7.6-1
						c1.1,0.2,2.5,0.9,2.8,2.1c0.4,1.9-1.8,3.4-3.1,4.3c-4.6,3.1-10.6,4.1-15.9,4.6c-17.9,1.5-37.3-0.2-49.5-15
						c-14.2-17.3-12.8-43.9-3.5-63.1c4.2-8.7,14-21.9,25.4-16.7L618.5,194z"/>
				</g>
			</g>
		</g>
		<g>
			<g>
				<path class="st37" d="M730.7,273.1H652v0c0,2,1.6,3.7,3.6,3.7H727C729.1,276.8,730.7,275.1,730.7,273.1L730.7,273.1z"/>
				<g>
					<defs>
						<path id="SVGID_27_" d="M730.7,273.1H652v0c0,2,1.6,3.7,3.6,3.7H727C729.1,276.8,730.7,275.1,730.7,273.1L730.7,273.1z"/>
					</defs>
					<clipPath id="SVGID_28_">
						<use xlink:href="#SVGID_27_"  style="overflow:visible;"/>
					</clipPath>
					<g class="st38">
						<path class="st39" d="M684.3,273.1h-78.7v0c0,2,1.6,3.7,3.6,3.7h71.4C682.7,276.8,684.3,275.1,684.3,273.1L684.3,273.1z"/>
					</g>
				</g>
			</g>
			<path class="st6" d="M744.1,241.1c0.2-0.6,0.2-1.3-0.2-1.9c-0.4-0.5-1-0.9-1.6-0.9h-43.1c-0.8,0-1.5,0.5-1.8,1.2
				c-2,5-9.5,23.8-12.3,30.9c-0.4,1,0.1,2.2,1.1,2.6c0.2,0.1,0.5,0.1,0.7,0.1H730c0.8,0,1.5-0.5,1.8-1.3
				C733.8,267,741.3,248.2,744.1,241.1z"/>
		</g>
		<path class="st33" d="M642.3,205.5c0.3-5.8-9.4-13.9-13.9-10.3c-10,7.9-27.6,46.9-22.6,59.6s52.6,16.4,52.6,16.4
			c2.4,0.7,3.5,0.9,3.7,2.1l16.4,0c-0.1-0.8-1.6-4.5-14.4-6.7l-38.7-24C625.5,242.5,641.9,213.4,642.3,205.5z"/>
		<g>
			<defs>
				<path id="SVGID_29_" d="M642.3,205.5c0.3-5.8-9.4-13.9-13.9-10.3c-10,7.9-27.6,46.9-22.6,59.6s52.6,16.4,52.6,16.4
					c2.4,0.7,3.5,0.9,3.7,2.1l16.4,0c-0.1-0.8-1.6-4.5-14.4-6.7l-38.7-24C625.5,242.5,641.9,213.4,642.3,205.5z"/>
			</defs>
			<clipPath id="SVGID_30_">
				<use xlink:href="#SVGID_29_"  style="overflow:visible;"/>
			</clipPath>
			<g class="st40">
				<g>
					<path class="st27" d="M614.1,213.3c0.2,3.5,1.3,7.5,3.9,9.9c2.7,2.5,6.3,3.7,8.9,6.4c8.5,8.9,0.7,15.9-6.8,11.8
						c-0.8-0.4,1.7,2.6,6.3,3.8c6,1.5,8,3.7,9.6,3.7c5.8,0.3-0.2-15,0.3-16.5c0.1-0.4,0.2-0.8,0.3-1.2c1.6-7.2-0.7-15.7-6.2-20.7
						c-4.7-4.3-13.2-5.6-17.6-0.1L614.1,213.3z"/>
					<path class="st35" d="M610.6,210c1.5,4.1,6.5,7.6,9.9,10c4.6,3.3,9.8,6.3,15.5,7.2c12.3,2,25.2-4.8,27.6-17.7
						c3.1-16.4-12.3-30.9-28.1-30.1c-11.7,0.6-21.2,7.7-27.1,17.5L610.6,210z"/>
				</g>
			</g>
		</g>
		<path class="st33" d="M657.7,177.6h-10.4c0.6,4-1.2,7.7-3.6,11c6.2,13.4,14.3,14,14.3,0.4C656.8,186,656.8,182.1,657.7,177.6z"/>
		<g>
			<defs>
				<path id="SVGID_31_" d="M657.7,177.6h-10.4c0.6,4-1.2,7.7-3.6,11c6.2,13.4,14.3,14,14.3,0.4C656.8,186,656.8,182.1,657.7,177.6z
					"/>
			</defs>
			<clipPath id="SVGID_32_">
				<use xlink:href="#SVGID_31_"  style="overflow:visible;"/>
			</clipPath>
			<g class="st41">
				<path class="st27" d="M646.7,180c3.7,8.4,11.7,8.4,13,6.8c0.4-0.5,1.3,0.2,1.9-0.2c0.5-0.5,0.9-1.1,0.9-1.8
					c0.3-1.7-0.5-1.2-0.7-2.8c-0.5-3.6-2.5-7.8-6.4-8.6c-0.7-0.1-1.4-0.2-2.1-0.1c-1.1,0.2-2.2,0.5-3.2,1c-1.3,0.6-2.4,1.6-3.2,2.7
					L646.7,180z"/>
			</g>
		</g>
		<path class="st33" d="M654.4,159.1c4.7,0,8.7,4.5,8.7,11.4s-1.5,14.5-6.2,14.5c-4.7,0-12.5-4.6-12.5-11.6S649.7,159.1,654.4,159.1
			z"/>
		<path class="st42" d="M648.2,169.1c5.3,1.4,11.3,2.1,15.7-2.1c1,0.7,2.8,0.5,3.9,0.2c3.1-0.9,5.4-3.4,6.2-6.5
			c1-4.6-0.4-9.3-3.6-12.7c-2.2-2.3-5.3-3.6-8.5-2.7c-1.1,0.3-2.2,0.9-3.1,1.6c-1.1,0.8-2.1,1.8-2.9,2.9c-1.4-0.8-3.4-0.3-4.9,0.1
			c-4.2,1.1-7.4,4.5-8.3,8.7c-1.4,0-2.5,2-3,3.1c-2,3.5-2,7.8,0.1,11.3c-1.1,3.1,6.7,9.9,6.5,6.4c-0.2-3.7,4.4-2.7,4.1-5.4
			C650.1,172.8,648.2,169.1,648.2,169.1z"/>
		
			<ellipse transform="matrix(0.942 -0.3356 0.3356 0.942 -21.2186 227.4543)" class="st25" cx="647.6" cy="175.1" rx="1.8" ry="2.7"/>
	</g>
	<g>
		<g>
			<path class="st33" d="M253.3,497.7l-13.7,0.4c-3.6,11.4-9.9,24.9-9.9,24.9l17.6-3.3L253.3,497.7z"/>
			<g>
				<defs>
					<path id="SVGID_33_" d="M253.3,497.7l-13.7,0.4c-3.6,11.4-9.9,24.9-9.9,24.9l17.6-3.3L253.3,497.7z"/>
				</defs>
				<clipPath id="SVGID_34_">
					<use xlink:href="#SVGID_33_"  style="overflow:visible;"/>
				</clipPath>
				<g class="st43">
					<path class="st27" d="M253.1,511.2c-4.9-0.7-10-1.4-14.2,1.9c-0.8,0.6-1.4,1.4-2,2.2c-0.9,1.7-1.6,3.5-2.1,5.4
						c-0.3,1.4-0.9,2.6-1.8,3.6c-1.3,1.2-3.2,1.6-4.8,0.8c-1-0.6-1.8-1.6-2.3-2.6c-1.1-2.4-1.5-5-1.3-7.7c0.4-5.7,2.7-11.1,6.7-15.2
						c3.5-3.5,8.7-5.3,13.4-3.3c1.5,0.6,2.9,1.5,4.1,2.7c1.5,1.3,2.7,2.9,3.7,4.6L253.1,511.2z"/>
				</g>
			</g>
		</g>
		<path class="st35" d="M268.2,524.3c-12.2-1.1-19.9-9.9-19.9-9.9c-3.8-2.1-10.1,8.6-18.7,7.2c-1.7,2.5-1.9,5.8-0.4,8.5l37.7-0.1
			C270.9,530.3,273.9,524.8,268.2,524.3z"/>
		<g>
			<path class="st44" d="M278.5,384.5c0,0-34.6,2.9-36.3,13.1c-2.7,15.5,13.8,46.7,13.8,46.7l-20.7,59.4c-1.2,6.4,15.9,7.7,20.6,2.4
				c19.5-22.3,35.3-52.2,33.7-71.3C287.7,412.7,290.2,407.6,278.5,384.5z"/>
			<g>
				<defs>
					<path id="SVGID_35_" d="M278.5,384.5c0,0-34.6,2.9-36.3,13.1c-2.7,15.5,13.8,46.7,13.8,46.7l-20.7,59.4
						c-1.2,6.4,15.9,7.7,20.6,2.4c19.5-22.3,35.3-52.2,33.7-71.3C287.7,412.7,290.2,407.6,278.5,384.5z"/>
				</defs>
				<clipPath id="SVGID_36_">
					<use xlink:href="#SVGID_35_"  style="overflow:visible;"/>
				</clipPath>
				<g class="st45">
					<path class="st27" d="M314.6,382.1c-2.4,5.3-6.8,10-10.5,14.4c-8.1,9.5-16.1,17.4-27.5,23c-3.8,1.9-7.4,3.6-11.6,4.4
						c-1.6,0.3-7.7,0.5-8.1,2.1c-1.3,4.5,2.4,7.2,4.4,8.5c1.8,1.2,1,3.2-0.5,4.8c-4.6,4.9,3.3,3.5,3.7,5.6c0,0.1-3.5,4.1-5.3,6.7
						c-4.1,5.9-4.8,13.3-6.7,20.1c-2.9,10.9-6.8,21.9-13.1,31.3c-3,4.5-10.8,15.5-16.6,8.4c-3.3-4-3.7-10.1-4.2-15
						c-1-10.4-1.2-20.9-0.8-31.3c0.9-24.9,4.5-52.2,17.7-73.8c12.1-19.8,35.2-34.6,59-30.5c7,1.3,13.7,3.9,19.7,7.7L314.6,382.1z"/>
				</g>
			</g>
		</g>
		<g>
			<path class="st33" d="M296.5,537.1l-17-0.6l-1.8,26l15.2-3.6L296.5,537.1z"/>
			<g>
				<defs>
					<polygon id="SVGID_37_" points="296.5,537.1 279.5,536.5 277.6,562.5 292.9,558.9 					"/>
				</defs>
				<clipPath id="SVGID_38_">
					<use xlink:href="#SVGID_37_"  style="overflow:visible;"/>
				</clipPath>
				<g class="st46">
					<path class="st27" d="M296.5,548.8c-5-0.3-10-0.6-14,3.1c-0.7,0.7-1.3,1.5-1.8,2.4c-0.8,1.8-1.3,3.7-1.7,5.6
						c-0.2,1.4-0.7,2.7-1.5,3.8c-1.2,1.3-3,1.8-4.7,1.2c-1.1-0.5-1.9-1.4-2.5-2.4c-1.3-2.3-1.9-4.9-1.9-7.5
						c-0.1-5.7,1.8-11.3,5.4-15.7c3.2-3.8,8.2-6,13.1-4.4c1.6,0.5,3,1.3,4.3,2.3c1.6,1.2,3,2.7,4.1,4.3L296.5,548.8z"/>
				</g>
			</g>
		</g>
		<g>
			<path class="st12" d="M304.8,386.4l-35.8,11.9c-3.9,12.5,15.3,27.3,20.6,61.5l-13.2,83.6c1.2,6.7,20.4,7.1,22.8,0.7
				C320.1,488.6,326.5,438.3,304.8,386.4z"/>
			<g>
				<defs>
					<path id="SVGID_39_" d="M304.8,386.4l-35.8,11.9c-3.9,12.5,15.3,27.3,20.6,61.5l-13.2,83.6c1.2,6.7,20.4,7.1,22.8,0.7
						C320.1,488.6,326.5,438.3,304.8,386.4z"/>
				</defs>
				<clipPath id="SVGID_40_">
					<use xlink:href="#SVGID_39_"  style="overflow:visible;"/>
				</clipPath>
				<g class="st47">
					<path class="st27" d="M313.7,385.8c0,3.2-1.2,6.5-2.2,9.6c-2.1,6.1-4.6,12.2-9.4,16.7c-3.9,3.7-11.8,7-13,12.7
						c-0.7,3.5,1.4,7.1,2.8,10.1c1.6,3.3,2.8,6.9,3.4,10.5c0.6,3.9,0,7.8-0.8,11.6c-0.2,1-1,3.4-0.1,4.3c0.6,0.6,1.8-1,2.1-1.3
						c1.8-2.1,0.1,3-1.9,7c-2.5,5-0.1,8.8-0.2,14.2c-0.1,5.4-0.5,10.8-1,16.1c-1.4,14.1-8.6,28.6-14.3,41.6c-8,18.2,8.2,21.9,3,19.9
						c-3.8-1.4-17.4-13.2-18.3-16.7c-2.7-10.1-3.4-20.9-4.9-31.2c-1.7-11.6-3.5-23.2-5.3-34.8c-4.3-28.7-9.1-61.5,10.3-86.2
						c9.4-12,24.5-21,40-21.4c7.7-0.2,16.8,1.6,19.5,9.7L313.7,385.8z"/>
				</g>
			</g>
		</g>
		<path class="st35" d="M316.2,561.8c-12.2-1.2-19.9-10.9-19.9-10.9c-3.8-2.3-10.1,9.5-18.7,8c-1.7,2.8-1.9,6.4-0.4,9.3l37.7-0.1
			C318.9,568.5,321.9,562.3,316.2,561.8z"/>
		<g>
			<path class="st33" d="M287.4,322.6c1.8-2,4.5-6.2,5.6-5.7c2.2,0.8-1.2,6.5-1.2,6.5l7.7-0.2c0,0,1.4,6.6-10.8,8.2
				c0,0-8.4,21.9-16.1,24.4c-7.7,2.5-25.5-4.1-30.3-9.6c-8.2-9.3,1-30.7,6.1-33.1l26.2,24.6C274.6,337.5,284.4,326,287.4,322.6z"/>
			<g>
				<defs>
					<path id="SVGID_41_" d="M287.4,322.6c1.8-2,4.5-6.2,5.6-5.7c2.2,0.8-1.2,6.5-1.2,6.5l7.7-0.2c0,0,1.4,6.6-10.8,8.2
						c0,0-8.4,21.9-16.1,24.4c-7.7,2.5-25.5-4.1-30.3-9.6c-8.2-9.3,1-30.7,6.1-33.1l26.2,24.6C274.6,337.5,284.4,326,287.4,322.6z"
						/>
				</defs>
				<clipPath id="SVGID_42_">
					<use xlink:href="#SVGID_41_"  style="overflow:visible;"/>
				</clipPath>
				<g class="st48">
					<path class="st10" d="M240.8,357.4c1.6-0.7,3-2.2,4.3-3.3c3-2.5,5.9-5.1,8.7-7.9c13.9-13.9,30.4-35.9,18.5-56
						c-1.6-2.6-3.6-5-6-6.9c-3.2-2.6-7-4.6-11-5.6c-24.4-6.2-48.3,15.6-53.3,38.2c-3.6,16,1,32.7,12.3,44.6L240.8,357.4z"/>
				</g>
			</g>
		</g>
		<g>
			<rect x="251.1" y="311" class="st49" width="100.7" height="15.9"/>
			<rect x="255.8" y="295.1" class="st49" width="100.7" height="15.9"/>
			<path class="st16" d="M280.6,319.6l-29.4-1.4v3.6L280.6,319.6z"/>
			<path class="st16" d="M285.2,305.4l-29.4-0.3v0.9L285.2,305.4z"/>
			<path class="st16" d="M303.1,313.4l-52-0.7v1.7L303.1,313.4z"/>
			<path class="st16" d="M274.7,296.6l-18.9,0.3v3.6L274.7,296.6z"/>
			<path class="st16" d="M303.1,325.8l-52-0.7v1.9L303.1,325.8z"/>
			<path class="st16" d="M310.1,310.6l-54.3-1.4v1.9L310.1,310.6z"/>
			<path class="st16" d="M335.8,319.6l16.1-1.4v3.6L335.8,319.6z"/>
			<path class="st16" d="M323.1,314.2l28.7-1.4v3.6L323.1,314.2z"/>
			<path class="st16" d="M323.4,296.3l33.1,0.6v3.6L323.4,296.3z"/>
			<path class="st16" d="M319.7,323.5l32.2-0.8v1.9L319.7,323.5z"/>
			<path class="st16" d="M291.7,310.2l64.8-3.4v4.2L291.7,310.2z"/>
		</g>
		<g>
			<g>
				<g>
					<path class="st50" d="M281.6,253.2c-0.2,0.3-0.5,0.4-0.9,0.4c-0.2,0-0.4,0-0.5-0.1c-0.2-0.1-0.3-0.2-0.4-0.3
						c-0.1-0.1-0.2-0.3-0.2-0.5c-0.1-0.6-0.1-1.2,0-1.8c0-0.2,0.1-0.3,0.2-0.4c0.2-0.3,0.5-0.5,0.9-0.5c0.2,0,0.3,0,0.5,0.1
						c0.1,0.1,0.3,0.2,0.4,0.3l0-1.8l0.7,0l0.1,5l-0.7,0L281.6,253.2z M280.9,250.7c-0.1,0-0.3,0-0.4,0.1c-0.1,0.1-0.2,0.2-0.2,0.3
						c0,0.1-0.1,0.2-0.1,0.4c0,0.1,0,0.3,0,0.4c0,0.1,0,0.3,0,0.4c0,0.1,0,0.2,0.1,0.4c0.1,0.2,0.3,0.4,0.6,0.3c0.1,0,0.3,0,0.4-0.1
						c0.1-0.1,0.2-0.2,0.2-0.3c0-0.1,0.1-0.2,0.1-0.4c0-0.1,0-0.3,0-0.4c0-0.1,0-0.3,0-0.4c0-0.1,0-0.2-0.1-0.4
						c0-0.1-0.1-0.2-0.2-0.3C281.2,250.7,281.1,250.7,280.9,250.7L280.9,250.7z"/>
					<path class="st50" d="M283.5,252.1c0,0.2,0.1,0.5,0.2,0.7c0.2,0.2,0.4,0.2,0.6,0.2c0.3,0,0.6-0.1,0.7-0.4l0.5,0.4
						c-0.3,0.4-0.7,0.6-1.2,0.6c-0.2,0-0.4,0-0.5-0.1c-0.2-0.1-0.3-0.2-0.5-0.3c-0.2-0.2-0.3-0.3-0.4-0.6c-0.1-0.3-0.2-0.6-0.2-0.9
						c0-0.3,0-0.6,0.1-0.9c0.1-0.2,0.2-0.4,0.3-0.6c0.1-0.1,0.3-0.2,0.5-0.3c0.2-0.1,0.3-0.1,0.5-0.1c0.4,0,0.7,0.1,1,0.4
						c0.3,0.3,0.4,0.7,0.4,1.1l0,0.6L283.5,252.1z M284.9,251.5c0-0.2-0.1-0.5-0.2-0.6c-0.3-0.3-0.7-0.3-1,0
						c-0.1,0.2-0.2,0.4-0.2,0.6L284.9,251.5z"/>
					<path class="st50" d="M286.4,250.6l-0.3,0l0-0.5l0.3,0l0-0.5c0-0.3,0.1-0.6,0.3-0.8c0.2-0.2,0.4-0.2,0.7-0.2l0.4,0l0,0.7
						l-0.4,0c-0.2,0-0.3,0.1-0.3,0.3l0,0.5l0.7,0l0,0.6l-0.7,0l0,3l-0.7,0L286.4,250.6z"/>
				</g>
				<g>
					<path class="st51" d="M289.8,248.5l0.7,0l0,1.8c0.1-0.1,0.3-0.2,0.4-0.3c0.1-0.1,0.3-0.1,0.5-0.1c0.4,0,0.7,0.1,0.9,0.5
						c0.1,0.1,0.2,0.3,0.2,0.4c0.1,0.6,0.1,1.2,0,1.8c0,0.2-0.1,0.3-0.2,0.5c-0.1,0.1-0.2,0.3-0.4,0.3c-0.2,0.1-0.4,0.1-0.5,0.1
						c-0.3,0-0.7-0.1-0.9-0.4l0,0.4l-0.7,0L289.8,248.5z M291.2,250.6c-0.2,0-0.5,0.1-0.6,0.4c0,0.1-0.1,0.2-0.1,0.4
						c0,0.1,0,0.3,0,0.4c0,0.1,0,0.3,0,0.4c0,0.1,0,0.2,0.1,0.4c0,0.1,0.1,0.2,0.2,0.3c0.1,0.1,0.2,0.1,0.4,0.1c0.1,0,0.3,0,0.4-0.1
						c0.1-0.1,0.2-0.2,0.2-0.3c0-0.1,0.1-0.2,0.1-0.4c0-0.1,0-0.3,0-0.4c0-0.1,0-0.3,0-0.4c0-0.1,0-0.2-0.1-0.4
						c0-0.1-0.1-0.2-0.2-0.3C291.4,250.7,291.3,250.6,291.2,250.6z"/>
					<path class="st51" d="M295.1,253.2L295.1,253.2c-0.1,0.1-0.2,0.2-0.3,0.3c-0.2,0.1-0.4,0.1-0.5,0.1c-0.3,0-0.6-0.1-0.9-0.3
						c-0.2-0.2-0.3-0.5-0.3-0.8c0-0.3,0.1-0.5,0.3-0.8c0.2-0.2,0.5-0.3,0.8-0.3l0.9,0l0-0.4c0-0.3-0.2-0.5-0.7-0.4
						c-0.1,0-0.3,0-0.4,0.1c-0.1,0-0.2,0.1-0.2,0.2l-0.5-0.4c0.3-0.4,0.7-0.6,1.1-0.5c0.4,0,0.7,0.1,1,0.2c0.3,0.2,0.4,0.6,0.4,0.9
						l0,2.4l-0.7,0L295.1,253.2z M295.1,252l-0.8,0c-0.4,0-0.6,0.2-0.6,0.4c0,0.1,0.1,0.2,0.2,0.3c0.1,0.1,0.3,0.2,0.5,0.1
						c0.2,0,0.4,0,0.6-0.1c0.1-0.1,0.2-0.3,0.2-0.5L295.1,252z"/>
					<path class="st51" d="M296.8,252.3c0.3,0.3,0.7,0.5,1.1,0.4c0.2,0,0.3,0,0.5-0.1c0.1-0.1,0.2-0.2,0.2-0.3c0-0.1,0-0.2-0.1-0.3
						c-0.1-0.1-0.2-0.1-0.3-0.1l-0.6,0c-0.3,0-0.5-0.1-0.7-0.3c-0.2-0.2-0.3-0.4-0.3-0.7c0-0.3,0.1-0.6,0.4-0.8
						c0.3-0.2,0.6-0.3,0.9-0.3c0.1,0,0.3,0,0.4,0c0.1,0,0.2,0.1,0.3,0.1c0.2,0.1,0.4,0.2,0.6,0.4l-0.4,0.5c-0.1-0.1-0.3-0.2-0.4-0.2
						c-0.2-0.1-0.3-0.1-0.5-0.1c-0.2,0-0.3,0-0.4,0.1c-0.1,0.1-0.1,0.2-0.1,0.3c0,0.1,0,0.2,0.1,0.2c0.1,0.1,0.2,0.1,0.4,0.1l0.6,0
						c0.3,0,0.6,0.1,0.8,0.3c0.2,0.2,0.2,0.5,0.2,0.7c0,0.3-0.1,0.6-0.4,0.8c-0.3,0.2-0.6,0.3-1,0.3c-0.6,0-1.1-0.2-1.5-0.6
						L296.8,252.3z"/>
					<path class="st51" d="M300.4,251.9c0,0.2,0.1,0.5,0.2,0.7c0.2,0.2,0.4,0.2,0.6,0.2c0.3,0,0.6-0.1,0.7-0.4l0.5,0.4
						c-0.3,0.4-0.7,0.6-1.2,0.6c-0.2,0-0.4,0-0.5-0.1c-0.2-0.1-0.3-0.2-0.5-0.3c-0.2-0.2-0.3-0.3-0.4-0.6c-0.1-0.3-0.2-0.6-0.2-0.9
						c0-0.3,0-0.6,0.1-0.9c0.1-0.2,0.2-0.4,0.3-0.6c0.1-0.1,0.3-0.2,0.5-0.3c0.5-0.2,1.1-0.1,1.5,0.3c0.3,0.3,0.4,0.7,0.4,1.1l0,0.6
						L300.4,251.9z M301.8,251.2c0-0.2-0.1-0.5-0.2-0.6c-0.3-0.3-0.7-0.3-1,0c-0.1,0.2-0.2,0.4-0.2,0.6L301.8,251.2z"/>
					<polygon class="st51" points="302.8,253.9 306.2,253.8 306.2,254.2 302.8,254.2 					"/>
					<path class="st51" d="M306.5,249.7l0.7,0l0,0.4h0c0.2-0.3,0.5-0.4,0.9-0.4c0.3,0,0.5,0.1,0.7,0.3l-0.5,0.6
						c-0.1-0.1-0.3-0.2-0.5-0.2c-0.2,0-0.3,0.1-0.4,0.2c-0.2,0.2-0.2,0.4-0.2,0.6l0,2.1l-0.7,0L306.5,249.7z"/>
					<path class="st51" d="M310.9,252.9L310.9,252.9c-0.1,0.1-0.2,0.2-0.3,0.3c-0.2,0.1-0.4,0.1-0.5,0.1c-0.3,0-0.6-0.1-0.9-0.3
						c-0.2-0.2-0.3-0.5-0.3-0.8c0-0.3,0.1-0.5,0.3-0.8c0.2-0.2,0.5-0.3,0.8-0.3l0.9,0l0-0.4c0-0.3-0.2-0.5-0.7-0.4
						c-0.1,0-0.3,0-0.4,0.1c-0.1,0-0.2,0.1-0.2,0.2l-0.5-0.4c0.3-0.4,0.7-0.6,1.1-0.5c0.4,0,0.7,0.1,1,0.2c0.3,0.2,0.4,0.6,0.4,0.9
						l0,2.4l-0.7,0L310.9,252.9z M310.8,251.7l-0.8,0c-0.4,0-0.6,0.2-0.6,0.4c0,0.1,0.1,0.2,0.2,0.3c0.1,0.1,0.3,0.2,0.5,0.1
						c0.2,0,0.4,0,0.6-0.1c0.1-0.1,0.2-0.3,0.2-0.5L310.8,251.7z"/>
					<path class="st51" d="M312.4,248.5l0.7,0l0,1.1l0.5,0l0,0.6l-0.5,0l0,2.1c0,0.2,0.1,0.3,0.2,0.3h0.3l0,0.7l-0.4,0
						c-0.2,0-0.4-0.1-0.6-0.2c-0.2-0.2-0.3-0.4-0.2-0.6l0-2.1l-0.3,0l0-0.6l0.3,0L312.4,248.5z"/>
					<path class="st51" d="M314.8,251.6c0,0.2,0.1,0.5,0.2,0.7c0.2,0.2,0.4,0.2,0.6,0.2c0.3,0,0.6-0.1,0.7-0.4l0.5,0.4
						c-0.3,0.4-0.7,0.6-1.2,0.6c-0.2,0-0.4,0-0.5-0.1c-0.1,0-0.2-0.1-0.3-0.1c-0.1,0-0.2-0.1-0.2-0.2c-0.2-0.2-0.3-0.3-0.4-0.6
						c-0.1-0.3-0.2-0.6-0.2-0.9c0-0.3,0-0.6,0.1-0.9c0.1-0.2,0.2-0.4,0.3-0.6c0.1-0.1,0.3-0.2,0.5-0.3c0.5-0.2,1.1-0.1,1.5,0.3
						c0.3,0.3,0.4,0.7,0.4,1.1l0,0.6L314.8,251.6z M316.2,251c0-0.2-0.1-0.5-0.2-0.6c-0.1-0.1-0.3-0.2-0.5-0.2
						c-0.2,0-0.4,0.1-0.5,0.2c-0.1,0.2-0.2,0.4-0.2,0.6L316.2,251z"/>
					<path class="st51" d="M318.7,253.8c-1.4-1.6-1.5-4.1-0.1-5.7h0.3c-0.8,1.8-0.8,3.9,0.1,5.7L318.7,253.8z"/>
				</g>
				<g>
					<path class="st52" d="M319.6,252c0.3,0.3,0.7,0.5,1.1,0.4c0.2,0,0.3,0,0.5-0.1c0.1-0.1,0.2-0.2,0.2-0.3c0-0.1,0-0.2-0.1-0.3
						c-0.1-0.1-0.2-0.1-0.3-0.1l-0.6,0c-0.3,0-0.5-0.1-0.7-0.3c-0.2-0.2-0.3-0.4-0.3-0.7c0-0.3,0.1-0.6,0.4-0.8
						c0.3-0.2,0.6-0.3,0.9-0.3c0.1,0,0.3,0,0.4,0c0.1,0,0.2,0.1,0.4,0.1c0.2,0.1,0.4,0.2,0.6,0.3l-0.4,0.5c-0.1-0.1-0.3-0.2-0.4-0.2
						c-0.2-0.1-0.3-0.1-0.5-0.1c-0.2,0-0.3,0-0.4,0.1c-0.1,0.1-0.1,0.2-0.1,0.3c0,0.1,0,0.2,0.1,0.2c0.1,0.1,0.2,0.1,0.3,0.1l0.6,0
						c0.3,0,0.6,0.1,0.8,0.3c0.2,0.2,0.2,0.5,0.2,0.7c0,0.3-0.1,0.6-0.4,0.8c-0.3,0.2-0.6,0.3-1,0.3c-0.6,0-1.1-0.2-1.5-0.6
						L319.6,252z"/>
					<path class="st52" d="M323.2,251.5c0,0.2,0.1,0.5,0.2,0.7c0.2,0.2,0.4,0.2,0.6,0.2c0.3,0,0.6-0.1,0.7-0.4l0.5,0.4
						c-0.3,0.4-0.7,0.6-1.2,0.6c-0.2,0-0.4,0-0.5-0.1c-0.1,0-0.2-0.1-0.3-0.1c-0.1,0-0.2-0.1-0.2-0.2c-0.2-0.2-0.3-0.3-0.4-0.6
						c-0.1-0.3-0.2-0.6-0.2-0.9c0-0.3,0-0.6,0.1-0.9c0.1-0.2,0.2-0.4,0.3-0.6c0.1-0.1,0.3-0.2,0.5-0.3c0.5-0.2,1.1-0.1,1.5,0.3
						c0.3,0.3,0.4,0.7,0.4,1.1l0,0.6L323.2,251.5z M324.6,250.9c0-0.2-0.1-0.4-0.2-0.6c-0.1-0.1-0.3-0.2-0.5-0.2
						c-0.2,0-0.4,0.1-0.5,0.2c-0.1,0.2-0.2,0.4-0.2,0.6L324.6,250.9z"/>
					<path class="st52" d="M326,247.9l0.7,0l0.1,4.1c0,0.1,0.1,0.2,0.2,0.2c0,0,0,0,0.1,0h0.2l0,0.7l-0.3,0c-0.2,0-0.4-0.1-0.6-0.2
						c-0.2-0.2-0.3-0.4-0.3-0.7L326,247.9z"/>
					<path class="st52" d="M327.9,249.9l-0.3,0l0-0.5l0.3,0l0-0.5c-0.1-0.5,0.3-0.9,0.7-1c0.1,0,0.1,0,0.2,0l0.4,0l0,0.7l-0.4,0
						c-0.2,0-0.3,0.1-0.3,0.3l0,0.5l0.7,0l0,0.5l-0.7,0l0,3l-0.7,0L327.9,249.9z"/>
				</g>
				<path class="st53" d="M329.7,252.2l0.7,0l0,0.7l-0.7,0.5L329.7,252.2z"/>
				<g>
					<path class="st52" d="M332.8,249.3l0.7,0l0,0.4c0.2-0.3,0.5-0.4,0.9-0.4c0.4,0,0.7,0.1,0.9,0.5c0.1,0.1,0.2,0.3,0.2,0.4
						c0,0.3,0.1,0.6,0.1,0.9c0,0.3,0,0.6,0,0.9c0,0.2-0.1,0.3-0.2,0.5c-0.1,0.1-0.2,0.3-0.4,0.3c-0.2,0.1-0.4,0.1-0.5,0.1
						c-0.2,0-0.3,0-0.5-0.1c-0.2-0.1-0.3-0.2-0.4-0.3l0,1.8l-0.7,0L332.8,249.3z M334.2,252.1c0.1,0,0.3,0,0.4-0.1
						c0.1-0.1,0.2-0.2,0.2-0.3c0-0.1,0.1-0.2,0.1-0.4c0-0.1,0-0.3,0-0.4c0-0.1,0-0.3,0-0.4c0-0.1,0-0.2-0.1-0.4
						c0-0.1-0.1-0.2-0.2-0.3c-0.1-0.1-0.3-0.1-0.4-0.1c-0.2,0-0.5,0.1-0.6,0.4c0,0.1-0.1,0.2-0.1,0.4c0,0.1,0,0.3,0,0.4
						c0,0.1,0,0.3,0,0.4c0,0.1,0,0.2,0.1,0.4C333.7,252,334,252.2,334.2,252.1L334.2,252.1z"/>
					<path class="st52" d="M336.3,249.2l0.7,0l0,0.4h0c0.4-0.5,1.1-0.6,1.5-0.2c0,0,0,0,0,0l-0.5,0.6c-0.1-0.1-0.3-0.2-0.5-0.2
						c-0.2,0-0.3,0.1-0.4,0.2c-0.2,0.2-0.2,0.4-0.2,0.6l0,2.2l-0.7,0L336.3,249.2z"/>
					<path class="st52" d="M338.9,249.2l0.7,0l0.1,3.6l-0.7,0L338.9,249.2z M338.9,247.7l0.7,0l0,0.7l-0.7,0L338.9,247.7z"/>
					<path class="st52" d="M340,249.1l0.7,0l0.8,2.5h0l0.8-2.5l0.7,0l-1.2,3.6l-0.6,0L340,249.1z"/>
					<path class="st52" d="M343.5,249.1l0.7,0l0,3.6l-0.7,0L343.5,249.1z M343.5,247.6l0.7,0l0,0.7l-0.7,0L343.5,247.6z"/>
					<path class="st52" d="M345.1,247.6l0.7,0l0.1,4.1c0,0.1,0.1,0.2,0.2,0.2c0,0,0,0,0.1,0h0.2l0,0.7l-0.3,0
						c-0.2,0-0.4-0.1-0.6-0.2c-0.2-0.2-0.3-0.4-0.3-0.7L345.1,247.6z"/>
					<path class="st52" d="M347.4,251.1c0,0.2,0.1,0.5,0.2,0.7c0.2,0.2,0.4,0.2,0.6,0.2c0.3,0,0.6-0.1,0.7-0.4l0.5,0.4
						c-0.3,0.4-0.7,0.6-1.2,0.6c-0.2,0-0.4,0-0.5-0.1c-0.1,0-0.2-0.1-0.3-0.1c-0.1,0-0.2-0.1-0.2-0.2c-0.2-0.2-0.3-0.3-0.4-0.6
						c-0.1-0.3-0.2-0.6-0.2-0.9c0-0.3,0-0.6,0.1-0.9c0.1-0.2,0.2-0.4,0.3-0.6c0.1-0.1,0.3-0.2,0.5-0.3c0.2-0.1,0.3-0.1,0.5-0.1
						c0.4,0,0.7,0.1,1,0.4c0.3,0.3,0.4,0.7,0.4,1.1l0,0.6L347.4,251.1z M348.8,250.5c0-0.2-0.1-0.4-0.2-0.6
						c-0.1-0.1-0.3-0.2-0.5-0.2c-0.2,0-0.4,0.1-0.5,0.2c-0.1,0.2-0.2,0.4-0.2,0.6L348.8,250.5z"/>
					<path class="st52" d="M352.1,252.1c-0.2,0.3-0.5,0.4-0.9,0.4c-0.2,0-0.4,0-0.6-0.1c-0.1-0.1-0.3-0.2-0.4-0.3
						c-0.1-0.1-0.2-0.3-0.2-0.4c-0.1-0.3-0.1-0.6-0.1-1c0-0.3,0-0.7,0-1c0-0.2,0.1-0.3,0.2-0.4c0.1-0.1,0.2-0.2,0.3-0.3
						c0.5-0.3,1.1-0.2,1.4,0.3l0-0.4l0.7,0l0,3.5c0,0.4-0.1,0.9-0.4,1.2c-0.3,0.3-0.6,0.4-1,0.4c-0.5,0-0.9-0.2-1.2-0.6l0.5-0.5
						c0.1,0.1,0.2,0.2,0.3,0.2c0.1,0.1,0.2,0.1,0.4,0.1c0.4,0,0.7-0.3,0.8-0.7c0,0,0-0.1,0-0.1L352.1,252.1z M350.8,250.8
						c0,0.2,0,0.4,0,0.6c0,0.1,0,0.2,0.1,0.3c0.1,0.1,0.1,0.1,0.2,0.2c0.1,0.1,0.2,0.1,0.3,0.1c0.1,0,0.2,0,0.3-0.1
						c0.1,0,0.1-0.1,0.2-0.2c0.1-0.1,0.1-0.2,0.1-0.3c0-0.2,0-0.4,0-0.6c0-0.2,0-0.4,0-0.6c0-0.1-0.1-0.2-0.1-0.3
						c-0.1-0.1-0.1-0.1-0.2-0.2c-0.1-0.1-0.2-0.1-0.3-0.1c-0.1,0-0.2,0-0.3,0.1c-0.1,0.1-0.1,0.1-0.2,0.2c-0.1,0.1-0.1,0.2-0.1,0.3
						C350.8,250.4,350.7,250.6,350.8,250.8L350.8,250.8z"/>
					<path class="st52" d="M354.2,251c0,0.2,0.1,0.5,0.2,0.7c0.2,0.2,0.4,0.2,0.6,0.2c0.3,0,0.6-0.1,0.7-0.4l0.5,0.4
						c-0.3,0.4-0.7,0.6-1.2,0.6c-0.2,0-0.4,0-0.5-0.1c-0.1,0-0.2-0.1-0.3-0.1c-0.1,0-0.2-0.1-0.2-0.2c-0.2-0.2-0.3-0.3-0.4-0.6
						c-0.1-0.3-0.2-0.6-0.2-0.9c0-0.3,0-0.6,0.1-0.9c0.1-0.2,0.2-0.4,0.3-0.6c0.1-0.1,0.3-0.2,0.5-0.3c0.5-0.2,1.1-0.1,1.5,0.3
						c0.3,0.3,0.4,0.7,0.4,1.1l0,0.6L354.2,251z M355.6,250.4c0-0.2-0.1-0.4-0.2-0.6c-0.3-0.3-0.7-0.3-1,0c-0.1,0.2-0.2,0.4-0.2,0.6
						L355.6,250.4z"/>
					<path class="st52" d="M359.1,252c-0.2,0.3-0.5,0.4-0.9,0.4c-0.2,0-0.4,0-0.5-0.1c-0.2-0.1-0.3-0.2-0.4-0.3
						c-0.1-0.1-0.2-0.3-0.2-0.5c-0.1-0.3-0.1-0.6-0.1-0.9c0-0.3,0-0.6,0-0.9c0-0.2,0.1-0.3,0.2-0.4c0.2-0.3,0.5-0.5,0.9-0.5
						c0.2,0,0.3,0,0.5,0.1c0.1,0.1,0.3,0.2,0.4,0.3l0-1.8l0.7,0l0.1,5l-0.7,0L359.1,252z M358.4,249.5c-0.1,0-0.3,0-0.4,0.1
						c-0.1,0.1-0.2,0.2-0.2,0.3c0,0.1-0.1,0.2-0.1,0.4c0,0.1,0,0.3,0,0.4c0,0.1,0,0.3,0,0.4c0,0.1,0,0.2,0.1,0.4
						c0,0.1,0.1,0.2,0.2,0.3c0.1,0.1,0.2,0.1,0.4,0.1c0.1,0,0.3,0,0.4-0.1c0.1-0.1,0.2-0.2,0.2-0.3c0-0.1,0.1-0.2,0.1-0.4
						c0-0.1,0-0.3,0-0.4s0-0.3,0-0.4c0-0.1,0-0.2-0.1-0.4c0-0.1-0.1-0.2-0.2-0.3C358.6,249.5,358.5,249.5,358.4,249.5z"/>
				</g>
				<path class="st53" d="M360.4,249.6l3.4-0.1l0,0.5l-3.4,0.1L360.4,249.6z M360.4,251l3.4-0.1l0,0.5l-3.4,0.1L360.4,251z"/>
				<path class="st54" d="M364.5,248.7l0.7,0l0,0.4h0c0.2-0.3,0.5-0.4,0.9-0.4c0.3,0,0.6,0.1,0.8,0.3c0.2,0.2,0.4,0.6,0.4,0.9l0,2.4
					l-0.7,0l0-2.1c0-0.2-0.1-0.4-0.2-0.6c-0.1-0.1-0.3-0.2-0.5-0.2c-0.2,0-0.4,0.1-0.5,0.2c-0.1,0.2-0.2,0.4-0.2,0.6l0,2.1l-0.7,0
					L364.5,248.7z"/>
				<path class="st54" d="M367.9,250.5c0-0.3,0-0.6,0.1-0.9c0.1-0.2,0.1-0.4,0.3-0.5c0.1-0.1,0.2-0.2,0.4-0.3c0.4-0.2,0.9-0.2,1.3,0
					c0.1,0.1,0.3,0.2,0.4,0.3c0.1,0.1,0.2,0.3,0.3,0.5c0.1,0.3,0.1,0.6,0.1,0.9c0,0.3,0,0.6-0.1,0.9c-0.1,0.2-0.1,0.4-0.3,0.5
					c0,0.1-0.1,0.1-0.2,0.2c-0.1,0.1-0.1,0.1-0.2,0.2c-0.6,0.3-1.3,0.2-1.7-0.3c-0.1-0.1-0.2-0.3-0.3-0.5
					C368,251,367.9,250.8,367.9,250.5z M370.1,250.4c0-0.2,0-0.4,0-0.6c0-0.1-0.1-0.2-0.1-0.3c-0.1-0.1-0.1-0.1-0.2-0.2
					c-0.1,0-0.2-0.1-0.3-0.1c-0.1,0-0.2,0-0.3,0.1c-0.1,0-0.2,0.1-0.2,0.2c-0.1,0.1-0.1,0.2-0.1,0.3c0,0.2,0,0.4,0,0.6
					c0,0.2,0,0.4,0,0.5c0,0.1,0.1,0.2,0.1,0.3c0.1,0.1,0.1,0.1,0.2,0.2c0.1,0,0.2,0.1,0.3,0.1c0.1,0,0.2,0,0.3-0.1
					c0.1,0,0.2-0.1,0.2-0.2c0.1-0.1,0.1-0.2,0.1-0.3C370.1,250.8,370.1,250.6,370.1,250.4L370.1,250.4z"/>
				<path class="st54" d="M371.4,248.6l0.7,0l0,0.4h0c0.2-0.3,0.5-0.4,0.9-0.4c0.3,0,0.6,0.1,0.8,0.3c0.2,0.2,0.4,0.6,0.4,0.9l0,2.4
					l-0.7,0l0-2.1c0-0.2-0.1-0.4-0.2-0.6c-0.1-0.1-0.3-0.2-0.5-0.2c-0.2,0-0.4,0.1-0.5,0.2c-0.1,0.2-0.2,0.4-0.2,0.6l0,2.1l-0.7,0
					L371.4,248.6z"/>
				<path class="st54" d="M375.6,250.6c0,0.2,0.1,0.5,0.2,0.7c0.2,0.2,0.4,0.2,0.6,0.2c0.3,0,0.6-0.1,0.7-0.4l0.5,0.4
					c-0.3,0.4-0.7,0.6-1.2,0.6c-0.2,0-0.4,0-0.5-0.1c-0.2-0.1-0.3-0.2-0.5-0.3c-0.2-0.2-0.3-0.3-0.4-0.6c-0.1-0.3-0.2-0.6-0.2-0.9
					c0-0.3,0-0.6,0.1-0.9c0.1-0.2,0.2-0.4,0.3-0.6c0.1-0.1,0.3-0.2,0.4-0.3c0.5-0.2,1.1-0.1,1.5,0.3c0.3,0.3,0.4,0.7,0.4,1.1l0,0.6
					L375.6,250.6z M377,250c0-0.2-0.1-0.5-0.2-0.6c-0.3-0.3-0.7-0.3-1,0c-0.1,0.2-0.2,0.4-0.2,0.6L377,250z"/>
				<path class="st53" d="M378.3,247.1c1.4,1.6,1.5,4.1,0.1,5.7h-0.3c0.8-1.8,0.8-3.9-0.1-5.7L378.3,247.1z"/>
				<path class="st53" d="M381.9,249.7l0.7,0l0,0.7l-0.7,0L381.9,249.7z M381.9,251.3l0.7,0l0,0.7l-0.7,0L381.9,251.3z"/>
			</g>
			<g>
				<g>
					<path class="st55" d="M293.5,263.1l0.7,0l0,0.4h0c0.2-0.3,0.5-0.4,0.9-0.4c0.3,0,0.5,0.1,0.7,0.3l-0.5,0.6
						c-0.1-0.1-0.3-0.2-0.5-0.2c-0.2,0-0.3,0.1-0.4,0.2c-0.2,0.2-0.2,0.4-0.2,0.6l0,2.1l-0.7,0L293.5,263.1z"/>
					<path class="st55" d="M296.6,265.1c0,0.2,0.1,0.5,0.2,0.7c0.2,0.2,0.4,0.2,0.6,0.2c0.3,0,0.6-0.1,0.7-0.4l0.5,0.4
						c-0.3,0.4-0.7,0.6-1.2,0.6c-0.2,0-0.4,0-0.5-0.1c-0.1,0-0.2-0.1-0.3-0.1c-0.1,0-0.2-0.1-0.2-0.2c-0.2-0.2-0.3-0.3-0.4-0.6
						c-0.1-0.3-0.2-0.6-0.2-0.9c0-0.3,0-0.6,0.1-0.9c0.1-0.2,0.2-0.4,0.3-0.6c0.1-0.1,0.3-0.2,0.4-0.3c0.2-0.1,0.3-0.1,0.5-0.1
						c0.4,0,0.7,0.1,1,0.4c0.3,0.3,0.4,0.7,0.4,1.1l0,0.6L296.6,265.1z M298,264.5c0-0.2-0.1-0.5-0.2-0.6c-0.3-0.3-0.7-0.3-1,0
						c-0.1,0.2-0.2,0.4-0.2,0.6L298,264.5z"/>
					<path class="st55" d="M299.4,261.9l0.7,0l0,1.1l0.5,0l0,0.6l-0.5,0l0,2.1c0,0.2,0.1,0.3,0.2,0.3h0.3l0,0.7l-0.4,0
						c-0.2,0-0.4-0.1-0.6-0.2c-0.2-0.2-0.3-0.4-0.2-0.6l0-2.1l-0.3,0l0-0.6l0.3,0L299.4,261.9z"/>
					<path class="st55" d="M301.2,263l0.7,0l0,2.1c0,0.2,0.1,0.4,0.2,0.6c0.1,0.1,0.3,0.2,0.5,0.2c0.2,0,0.4-0.1,0.5-0.2
						c0.1-0.2,0.2-0.4,0.2-0.6l0-2.1l0.7,0l0,3.6l-0.7,0l0-0.4h0c-0.2,0.3-0.5,0.4-0.9,0.4c-0.3,0-0.6-0.1-0.8-0.3
						c-0.3-0.2-0.4-0.6-0.4-0.9L301.2,263z"/>
					<path class="st55" d="M304.8,262.9l0.7,0l0,0.4h0c0.2-0.3,0.5-0.4,0.9-0.4c0.3,0,0.5,0.1,0.7,0.3l-0.5,0.6
						c-0.1-0.1-0.3-0.2-0.5-0.2c-0.2,0-0.3,0.1-0.4,0.2c-0.1,0.2-0.2,0.4-0.2,0.6l0,2.1l-0.7,0L304.8,262.9z"/>
					<path class="st55" d="M307.3,262.9l0.7,0l0,0.4h0c0.2-0.3,0.5-0.4,0.9-0.4c0.3,0,0.6,0.1,0.8,0.3c0.2,0.2,0.4,0.6,0.4,0.9
						l0,2.4l-0.7,0l0-2.1c0-0.2-0.1-0.4-0.2-0.6c-0.1-0.1-0.3-0.2-0.5-0.2c-0.2,0-0.4,0.1-0.5,0.2c-0.1,0.2-0.2,0.4-0.2,0.6l0,2.1
						l-0.7,0L307.3,262.9z"/>
				</g>
				<path class="st53" d="M313.5,267.1c-1.4-1.6-1.5-4.1-0.1-5.7l0.3,0c-0.8,1.8-0.8,3.9,0.1,5.7L313.5,267.1z"/>
				<g>
					<path class="st54" d="M314.5,265.3c0.3,0.3,0.7,0.5,1.1,0.4c0.2,0,0.3,0,0.5-0.1c0.1-0.1,0.2-0.2,0.2-0.3c0-0.1,0-0.2-0.1-0.3
						c-0.1-0.1-0.2-0.1-0.3-0.1l-0.6,0c-0.3,0-0.5-0.1-0.7-0.3c-0.2-0.2-0.3-0.4-0.3-0.7c0-0.3,0.1-0.6,0.4-0.8
						c0.3-0.2,0.6-0.3,0.9-0.3c0.1,0,0.3,0,0.4,0c0.1,0,0.2,0.1,0.4,0.1c0.2,0.1,0.4,0.2,0.6,0.4l-0.4,0.5c-0.1-0.1-0.3-0.2-0.4-0.2
						c-0.2-0.1-0.3-0.1-0.5-0.1c-0.2,0-0.3,0-0.4,0.1c-0.1,0.1-0.1,0.2-0.1,0.3c0,0.1,0,0.2,0.1,0.2c0.1,0.1,0.2,0.1,0.3,0.1l0.6,0
						c0.3,0,0.6,0.1,0.8,0.3c0.2,0.2,0.2,0.5,0.2,0.7c0,0.3-0.1,0.6-0.4,0.8c-0.3,0.2-0.6,0.3-1,0.3c-0.6,0-1.1-0.2-1.5-0.6
						L314.5,265.3z"/>
					<path class="st54" d="M318.1,264.8c0,0.2,0.1,0.5,0.2,0.7c0.2,0.2,0.4,0.2,0.6,0.2c0.3,0,0.6-0.1,0.7-0.4l0.5,0.4
						c-0.3,0.4-0.7,0.6-1.2,0.6c-0.2,0-0.4,0-0.5-0.1c-0.1,0-0.2-0.1-0.3-0.1c-0.1,0-0.2-0.1-0.2-0.2c-0.2-0.2-0.3-0.3-0.4-0.6
						c-0.1-0.3-0.2-0.6-0.2-0.9c0-0.3,0-0.6,0.1-0.9c0.1-0.2,0.2-0.4,0.3-0.6c0.1-0.1,0.3-0.2,0.5-0.3c0.5-0.2,1.1-0.1,1.5,0.3
						c0.3,0.3,0.4,0.7,0.4,1.1l0,0.6L318.1,264.8z M319.5,264.2c0-0.2-0.1-0.5-0.2-0.6c-0.1-0.1-0.3-0.2-0.5-0.2
						c-0.2,0-0.4,0.1-0.5,0.2c-0.1,0.2-0.2,0.4-0.2,0.6L319.5,264.2z"/>
					<path class="st54" d="M320.9,261.2l0.7,0l0.1,4.1c0,0.1,0.1,0.2,0.2,0.2c0,0,0,0,0.1,0h0.2l0,0.7l-0.3,0
						c-0.2,0-0.4-0.1-0.6-0.2c-0.2-0.2-0.3-0.4-0.3-0.7L320.9,261.2z"/>
					<path class="st54" d="M322.7,263.2l-0.3,0l0-0.5l0.3,0l0-0.5c0-0.3,0.1-0.5,0.3-0.8c0.2-0.2,0.4-0.2,0.7-0.2l0.4,0l0,0.7
						l-0.4,0c-0.2,0-0.3,0.1-0.3,0.3l0,0.5l0.7,0l0,0.6l-0.7,0l0,3l-0.7,0L322.7,263.2z"/>
				</g>
				<polygon class="st53" points="324.5,265.5 325.2,265.4 325.2,266.2 324.6,266.2 				"/>
				<path class="st53" d="M326.1,262.6l0.7,0l0,0.4h0c0.2-0.3,0.5-0.4,0.9-0.4c0.3,0,0.6,0.1,0.8,0.3c0.3,0.2,0.4,0.6,0.4,0.9l0,2.4
					l-0.7,0l0-2.1c0-0.2-0.1-0.4-0.2-0.6c-0.1-0.1-0.3-0.2-0.5-0.2c-0.2,0-0.4,0.1-0.5,0.2c-0.1,0.2-0.2,0.4-0.2,0.6l0,2.1l-0.7,0
					L326.1,262.6z"/>
				<path class="st53" d="M329.7,262.5l0.7,0l0,2.1c0,0.2,0.1,0.4,0.2,0.6c0.1,0.1,0.3,0.2,0.5,0.2c0.2,0,0.4-0.1,0.5-0.2
					c0.1-0.2,0.2-0.4,0.2-0.6l0-2.1l0.7,0l0,3.6l-0.7,0l0-0.4h0c-0.2,0.3-0.5,0.4-0.9,0.4c-0.3,0-0.6-0.1-0.8-0.3
					c-0.3-0.2-0.4-0.6-0.4-0.9L329.7,262.5z"/>
				<path class="st53" d="M333.3,262.5l0.7,0l0,0.4h0c0.2-0.3,0.5-0.4,0.9-0.4c0.2,0,0.4,0,0.6,0.1c0.1,0.1,0.3,0.2,0.4,0.3
					c0.3-0.3,0.7-0.5,1.1-0.5c0.3,0,0.6,0.1,0.8,0.3c0.3,0.2,0.4,0.6,0.4,0.9l0,2.4l-0.7,0l0-2.1c0-0.2-0.1-0.4-0.2-0.6
					c-0.3-0.3-0.7-0.3-1,0c-0.1,0.2-0.2,0.4-0.2,0.6l0,2.1l-0.7,0l0-2.1c0-0.2-0.1-0.4-0.2-0.6c-0.3-0.3-0.7-0.3-1,0
					c-0.1,0.2-0.2,0.4-0.2,0.6l0,2.1l-0.7,0L333.3,262.5z"/>
				<polygon class="st53" points="338.6,266.5 342,266.4 342,266.8 338.6,266.8 				"/>
				<path class="st53" d="M342.3,262.3l0.7,0l0,0.4c0.2-0.3,0.5-0.4,0.9-0.4c0.4,0,0.7,0.1,0.9,0.5c0.1,0.1,0.2,0.3,0.2,0.4
					c0,0.3,0.1,0.6,0.1,0.9c0,0.3,0,0.6,0,0.9c0,0.2-0.1,0.3-0.2,0.5c-0.1,0.1-0.2,0.3-0.4,0.3c-0.2,0.1-0.4,0.1-0.5,0.1
					c-0.2,0-0.3,0-0.5-0.1c-0.2-0.1-0.3-0.2-0.4-0.3l0,1.8l-0.7,0L342.3,262.3z M343.7,265.2c0.1,0,0.3,0,0.4-0.1
					c0.1-0.1,0.2-0.2,0.2-0.3c0-0.1,0.1-0.2,0.1-0.4c0-0.1,0-0.3,0-0.4s0-0.3,0-0.4c0-0.1,0-0.2-0.1-0.4c0-0.1-0.1-0.2-0.2-0.3
					c-0.1-0.1-0.3-0.1-0.4-0.1c-0.1,0-0.3,0-0.4,0.1c-0.1,0.1-0.2,0.2-0.2,0.3c0,0.1-0.1,0.2-0.1,0.4c0,0.1,0,0.3,0,0.4
					c0,0.1,0,0.3,0,0.4c0,0.1,0,0.2,0.1,0.4c0,0.1,0.1,0.2,0.2,0.3C343.5,265.2,343.6,265.2,343.7,265.2L343.7,265.2z"/>
				<path class="st53" d="M345.7,264c0-0.3,0-0.6,0.1-0.9c0.1-0.2,0.1-0.4,0.3-0.5c0.1-0.1,0.2-0.2,0.4-0.3c0.2-0.1,0.4-0.2,0.6-0.2
					c0.2,0,0.4,0,0.7,0.1c0.1,0.1,0.3,0.2,0.4,0.3c0.1,0.1,0.2,0.3,0.3,0.5c0.1,0.3,0.1,0.6,0.1,0.9c0,0.3,0,0.6-0.1,0.9
					c-0.1,0.2-0.1,0.4-0.3,0.5c0,0.1-0.1,0.1-0.2,0.2c-0.1,0.1-0.1,0.1-0.2,0.2c-0.2,0.1-0.4,0.2-0.6,0.2c-0.2,0-0.4,0-0.6-0.1
					c-0.2-0.1-0.3-0.2-0.4-0.3c-0.1-0.1-0.2-0.3-0.3-0.5C345.7,264.6,345.7,264.3,345.7,264z M347.8,264c0-0.2,0-0.4,0-0.6
					c0-0.1-0.1-0.2-0.1-0.3c-0.1-0.1-0.1-0.1-0.2-0.2c-0.1,0-0.2-0.1-0.3-0.1c-0.1,0-0.2,0-0.3,0.1c-0.1,0-0.2,0.1-0.2,0.2
					c-0.1,0.1-0.1,0.2-0.1,0.3c0,0.2,0,0.4,0,0.6c0,0.2,0,0.4,0,0.5c0,0.1,0.1,0.2,0.1,0.3c0.1,0.1,0.1,0.1,0.2,0.2
					c0.1,0,0.2,0.1,0.3,0.1c0.1,0,0.2,0,0.3-0.1c0.1,0,0.2-0.1,0.2-0.2c0.1-0.1,0.1-0.2,0.1-0.3C347.8,264.4,347.8,264.2,347.8,264z
					"/>
				<path class="st53" d="M349.3,264.7c0.3,0.3,0.7,0.5,1.1,0.4c0.2,0,0.3,0,0.5-0.1c0.1-0.1,0.2-0.2,0.2-0.3c0-0.1,0-0.2-0.1-0.3
					c-0.1-0.1-0.2-0.1-0.3-0.1l-0.6,0c-0.3,0-0.5-0.1-0.7-0.3c-0.2-0.2-0.3-0.4-0.3-0.7c0-0.3,0.1-0.6,0.4-0.8
					c0.3-0.2,0.6-0.3,0.9-0.3c0.1,0,0.3,0,0.4,0c0.1,0,0.2,0.1,0.3,0.1c0.2,0.1,0.4,0.2,0.6,0.3l-0.4,0.5c-0.1-0.1-0.3-0.2-0.4-0.2
					c-0.2-0.1-0.3-0.1-0.5-0.1c-0.2,0-0.3,0-0.4,0.1c-0.1,0.1-0.1,0.2-0.1,0.3c0,0.1,0,0.2,0.1,0.2c0.1,0.1,0.2,0.1,0.4,0.1l0.6,0
					c0.3,0,0.6,0.1,0.8,0.3c0.2,0.2,0.2,0.5,0.2,0.7c0,0.3-0.1,0.6-0.4,0.8c-0.3,0.2-0.6,0.3-1,0.3c-0.6,0-1.1-0.2-1.5-0.6
					L349.3,264.7z"/>
				<path class="st53" d="M352.4,262.1l0.7,0l0.1,3.6l-0.7,0L352.4,262.1z M352.4,260.7l0.7,0l0,0.7l-0.7,0L352.4,260.7z"/>
				<path class="st53" d="M354,261l0.7,0l0,1.1l0.5,0l0,0.6l-0.5,0l0,2.1c0,0.2,0.1,0.3,0.2,0.3h0.3l0,0.7l-0.4,0
					c-0.2,0-0.4-0.1-0.6-0.2c-0.2-0.2-0.3-0.4-0.2-0.6l0-2.1l-0.3,0l0-0.6l0.3,0L354,261z"/>
				<path class="st53" d="M355.9,262.1l0.7,0l0,3.6l-0.7,0L355.9,262.1z M355.9,260.6l0.7,0l0,0.7l-0.7,0L355.9,260.6z"/>
				<path class="st53" d="M357,262.1l0.7,0l0.8,2.5h0l0.8-2.5l0.7,0l-1.2,3.6l-0.6,0L357,262.1z"/>
				<path class="st53" d="M360.9,264.1c0,0.2,0.1,0.5,0.2,0.7c0.2,0.1,0.4,0.2,0.6,0.2c0.3,0,0.6-0.1,0.7-0.4l0.5,0.4
					c-0.3,0.4-0.7,0.6-1.2,0.6c-0.2,0-0.4,0-0.5-0.1c-0.2-0.1-0.3-0.2-0.5-0.3c-0.2-0.2-0.3-0.3-0.4-0.6c-0.1-0.3-0.2-0.6-0.2-0.9
					c0-0.3,0-0.6,0.1-0.9c0.1-0.2,0.2-0.4,0.3-0.6c0.1-0.1,0.3-0.2,0.5-0.3c0.2-0.1,0.3-0.1,0.5-0.1c0.4,0,0.7,0.1,1,0.4
					c0.3,0.3,0.4,0.7,0.4,1.1l0,0.6L360.9,264.1z M362.4,263.4c0-0.2-0.1-0.5-0.2-0.6c-0.1-0.1-0.3-0.2-0.5-0.2
					c-0.2,0-0.4,0.1-0.5,0.2c-0.1,0.2-0.2,0.4-0.2,0.6L362.4,263.4z"/>
				<path class="st53" d="M363.9,264.4c0.3,0.3,0.7,0.5,1.1,0.4c0.2,0,0.3,0,0.5-0.1c0.1-0.1,0.2-0.2,0.2-0.3c0-0.1,0-0.2-0.1-0.3
					c-0.1-0.1-0.2-0.1-0.3-0.1l-0.6,0c-0.3,0-0.5-0.1-0.7-0.3c-0.2-0.2-0.3-0.4-0.3-0.7c0-0.3,0.1-0.6,0.4-0.8
					c0.3-0.2,0.6-0.3,0.9-0.3c0.1,0,0.3,0,0.4,0c0.1,0,0.2,0.1,0.4,0.1c0.2,0.1,0.4,0.2,0.6,0.3l-0.4,0.5c-0.1-0.1-0.3-0.2-0.4-0.2
					c-0.2-0.1-0.3-0.1-0.5-0.1c-0.2,0-0.3,0-0.4,0.1c-0.1,0.1-0.1,0.2-0.1,0.3c0,0.1,0,0.2,0.1,0.2c0.1,0.1,0.2,0.1,0.3,0.1l0.6,0
					c0.3,0,0.6,0.1,0.8,0.3c0.2,0.2,0.2,0.5,0.2,0.7c0,0.3-0.1,0.6-0.4,0.8c-0.3,0.2-0.6,0.3-1,0.3c-0.6,0-1.1-0.2-1.5-0.6
					L363.9,264.4z"/>
				<path class="st53" d="M368,266.2c-1.4-1.6-1.5-4.1-0.1-5.7h0.3c-0.8,1.8-0.8,3.9,0.1,5.7H368z"/>
				<g>
					<path class="st56" d="M368.8,261.9l0.7,0l0,0.4c0.2-0.3,0.5-0.4,0.9-0.4c0.4,0,0.7,0.1,0.9,0.5c0.1,0.1,0.2,0.3,0.2,0.4
						c0,0.3,0.1,0.6,0.1,0.9c0,0.3,0,0.6,0,0.9c0,0.2-0.1,0.3-0.2,0.5c-0.1,0.1-0.2,0.3-0.4,0.3c-0.2,0.1-0.4,0.1-0.5,0.1
						c-0.2,0-0.3,0-0.5-0.1c-0.2-0.1-0.3-0.2-0.4-0.3l0,1.8l-0.7,0L368.8,261.9z M370.2,264.7c0.1,0,0.3,0,0.4-0.1
						c0.1-0.1,0.2-0.2,0.2-0.3c0-0.1,0.1-0.2,0.1-0.4c0-0.1,0-0.3,0-0.4s0-0.3,0-0.4c0-0.1,0-0.2-0.1-0.4c0-0.1-0.1-0.2-0.2-0.3
						c-0.1-0.1-0.3-0.1-0.4-0.1c-0.1,0-0.3,0-0.4,0.1c-0.1,0.1-0.2,0.2-0.2,0.3c0,0.1-0.1,0.2-0.1,0.4c0,0.1,0,0.3,0,0.4
						c0,0.1,0,0.3,0,0.4c0,0.1,0,0.2,0.1,0.4C369.7,264.6,370,264.8,370.2,264.7L370.2,264.7z"/>
					<path class="st56" d="M372.3,261.8l0.7,0l0,0.4h0c0.2-0.3,0.5-0.4,0.9-0.4c0.3,0,0.5,0.1,0.7,0.3l-0.5,0.6
						c-0.1-0.1-0.3-0.2-0.5-0.2c-0.2,0-0.3,0.1-0.4,0.2c-0.2,0.2-0.2,0.4-0.2,0.6l0,2.1l-0.7,0L372.3,261.8z"/>
					<path class="st56" d="M374.9,261.8l0.7,0l0,3.6l-0.7,0L374.9,261.8z M374.9,260.3l0.7,0l0,0.7l-0.7,0L374.9,260.3z"/>
					<path class="st56" d="M376,261.7l0.7,0l0.8,2.5h0l0.8-2.5l0.7,0l-1.2,3.6l-0.6,0L376,261.7z"/>
					<path class="st56" d="M379.5,261.7l0.7,0l0.1,3.6l-0.7,0L379.5,261.7z M379.5,260.2l0.7,0l0,0.7l-0.7,0L379.5,260.2z"/>
					<path class="st56" d="M381.1,260.2l0.7,0l0.1,4.1c0,0.1,0.1,0.2,0.2,0.2c0,0,0,0,0.1,0h0.2l0,0.7l-0.3,0
						c-0.2,0-0.4-0.1-0.6-0.2c-0.2-0.2-0.3-0.4-0.3-0.7L381.1,260.2z"/>
					<path class="st56" d="M383.4,263.7c0,0.2,0.1,0.5,0.2,0.7c0.2,0.2,0.4,0.2,0.6,0.2c0.3,0,0.6-0.1,0.7-0.4l0.5,0.4
						c-0.3,0.4-0.7,0.6-1.2,0.6c-0.2,0-0.4,0-0.5-0.1c-0.1,0-0.2-0.1-0.3-0.1c-0.1,0-0.2-0.1-0.2-0.2c-0.2-0.2-0.3-0.3-0.4-0.6
						c-0.1-0.3-0.2-0.6-0.2-0.9c0-0.3,0-0.6,0.1-0.9c0.1-0.2,0.2-0.4,0.3-0.6c0.1-0.1,0.3-0.2,0.4-0.3c0.2-0.1,0.3-0.1,0.5-0.1
						c0.4,0,0.7,0.1,1,0.4c0.3,0.3,0.4,0.7,0.4,1.1l0,0.6L383.4,263.7z M384.8,263.1c0-0.2-0.1-0.5-0.2-0.6c-0.3-0.3-0.7-0.3-1,0
						c-0.1,0.2-0.2,0.4-0.2,0.6L384.8,263.1z"/>
					<path class="st56" d="M388.1,264.7c-0.2,0.3-0.5,0.4-0.9,0.4c-0.2,0-0.4,0-0.6-0.1c-0.1-0.1-0.3-0.2-0.4-0.3
						c-0.1-0.1-0.2-0.3-0.2-0.4c-0.1-0.3-0.1-0.6-0.1-1c0-0.3,0-0.7,0-1c0-0.2,0.1-0.3,0.2-0.4c0.4-0.5,1.1-0.6,1.6-0.2
						c0.1,0.1,0.1,0.1,0.2,0.2l0-0.4l0.7,0l0,3.5c0,0.4-0.1,0.9-0.4,1.2c-0.3,0.3-0.6,0.4-1,0.4c-0.5,0-0.9-0.2-1.2-0.6l0.5-0.5
						c0.1,0.1,0.2,0.2,0.3,0.2c0.1,0.1,0.2,0.1,0.4,0.1c0.4,0,0.7-0.3,0.8-0.7c0,0,0-0.1,0-0.1L388.1,264.7z M386.8,263.4
						c0,0.2,0,0.4,0,0.6c0,0.1,0,0.2,0.1,0.3c0.1,0.1,0.1,0.1,0.2,0.2c0.1,0.1,0.2,0.1,0.3,0.1c0.1,0,0.2,0,0.3-0.1
						c0.1,0,0.1-0.1,0.2-0.2c0.1-0.1,0.1-0.2,0.1-0.3c0-0.2,0-0.4,0-0.6c0-0.2,0-0.4,0-0.6c0-0.1-0.1-0.2-0.1-0.3
						c-0.1-0.1-0.1-0.1-0.2-0.2c-0.1-0.1-0.2-0.1-0.3-0.1c-0.1,0-0.2,0-0.3,0.1c-0.1,0.1-0.1,0.1-0.2,0.2c-0.1,0.1-0.1,0.2-0.1,0.3
						C386.8,263,386.8,263.2,386.8,263.4z"/>
					<path class="st56" d="M390.2,263.6c0,0.2,0.1,0.5,0.2,0.7c0.2,0.2,0.4,0.2,0.6,0.2c0.3,0,0.6-0.1,0.7-0.4l0.5,0.4
						c-0.3,0.4-0.7,0.6-1.2,0.6c-0.2,0-0.4,0-0.5-0.1c-0.1,0-0.2-0.1-0.3-0.1c-0.1,0-0.2-0.1-0.2-0.2c-0.2-0.2-0.3-0.3-0.4-0.6
						c-0.1-0.3-0.2-0.6-0.2-0.9c0-0.3,0-0.6,0.1-0.9c0.1-0.2,0.2-0.4,0.3-0.6c0.1-0.1,0.3-0.2,0.5-0.3c0.5-0.2,1.1-0.1,1.5,0.3
						c0.3,0.3,0.4,0.7,0.4,1.1l0,0.6L390.2,263.6z M391.6,263c0-0.2-0.1-0.5-0.2-0.6c-0.1-0.1-0.3-0.2-0.5-0.2
						c-0.2,0-0.4,0.1-0.5,0.2c-0.1,0.2-0.2,0.4-0.2,0.6L391.6,263z"/>
					<path class="st56" d="M395.1,264.6c-0.2,0.3-0.5,0.4-0.9,0.4c-0.2,0-0.4,0-0.5-0.1c-0.2-0.1-0.3-0.2-0.4-0.3
						c-0.1-0.1-0.2-0.3-0.2-0.5c0-0.3-0.1-0.6-0.1-0.9c0-0.3,0-0.6,0-0.9c0-0.2,0.1-0.3,0.2-0.4c0.2-0.3,0.5-0.5,0.9-0.5
						c0.2,0,0.3,0,0.5,0.1c0.1,0.1,0.3,0.2,0.4,0.3l0-1.8l0.7,0l0.1,5l-0.7,0L395.1,264.6z M394.4,262.1c-0.1,0-0.3,0-0.4,0.1
						c-0.1,0.1-0.2,0.2-0.2,0.3c0,0.1-0.1,0.2-0.1,0.4c0,0.1,0,0.3,0,0.4c0,0.1,0,0.3,0,0.4c0,0.1,0,0.2,0.1,0.4
						c0.1,0.2,0.3,0.4,0.6,0.3c0.1,0,0.3,0,0.4-0.1c0.1-0.1,0.2-0.2,0.2-0.3c0-0.1,0.1-0.2,0.1-0.4c0-0.1,0-0.3,0-0.4s0-0.3,0-0.4
						c0-0.1,0-0.2-0.1-0.4c0-0.1-0.1-0.2-0.2-0.3C394.6,262.1,394.5,262.1,394.4,262.1L394.4,262.1z"/>
				</g>
				<path class="st53" d="M396.9,260c1.4,1.6,1.5,4.1,0.1,5.7h-0.3c0.8-1.8,0.8-3.9-0.1-5.7H396.9z"/>
			</g>
			<g>
				<path class="st53" d="M309.3,271.8l0.5,0l-1.5,5.1l-0.5,0L309.3,271.8z"/>
				<g>
					<path class="st54" d="M313.9,275.7c0.3,0.3,0.7,0.5,1.1,0.4c0.2,0,0.3,0,0.5-0.1c0.1-0.1,0.2-0.2,0.2-0.3c0-0.1,0-0.2-0.1-0.3
						c-0.1-0.1-0.2-0.1-0.3-0.1l-0.6,0c-0.3,0-0.5-0.1-0.7-0.3c-0.2-0.2-0.3-0.4-0.3-0.7c0-0.3,0.1-0.6,0.4-0.8
						c0.3-0.2,0.6-0.3,0.9-0.3c0.1,0,0.3,0,0.4,0c0.1,0,0.2,0.1,0.3,0.1c0.2,0.1,0.4,0.2,0.6,0.4l-0.4,0.5c-0.1-0.1-0.3-0.2-0.4-0.2
						c-0.2-0.1-0.3-0.1-0.5-0.1c-0.2,0-0.3,0-0.4,0.1c-0.1,0.1-0.1,0.2-0.1,0.3c0,0.1,0,0.2,0.1,0.2c0.1,0.1,0.2,0.1,0.4,0.1l0.6,0
						c0.3,0,0.6,0.1,0.8,0.3c0.2,0.2,0.2,0.5,0.2,0.7c0,0.3-0.1,0.6-0.4,0.8c-0.3,0.2-0.6,0.3-1,0.3c-0.6,0-1.1-0.2-1.5-0.6
						L313.9,275.7z"/>
					<path class="st54" d="M317.6,275.2c0,0.2,0.1,0.5,0.2,0.7c0.2,0.1,0.4,0.2,0.6,0.2c0.3,0,0.6-0.1,0.7-0.4l0.5,0.4
						c-0.3,0.4-0.7,0.6-1.2,0.6c-0.2,0-0.4,0-0.5-0.1c-0.1,0-0.2-0.1-0.3-0.1c-0.1,0-0.2-0.1-0.2-0.2c-0.2-0.2-0.3-0.3-0.4-0.6
						c-0.1-0.3-0.2-0.6-0.2-0.9c0-0.3,0-0.6,0.1-0.9c0.1-0.2,0.2-0.4,0.3-0.6c0.1-0.1,0.3-0.2,0.4-0.3c0.5-0.2,1.1-0.1,1.5,0.3
						c0.3,0.3,0.4,0.7,0.4,1.1l0,0.6L317.6,275.2z M319,274.6c0-0.2-0.1-0.5-0.2-0.6c-0.1-0.1-0.3-0.2-0.5-0.2
						c-0.2,0-0.4,0.1-0.5,0.2c-0.1,0.2-0.2,0.4-0.2,0.6L319,274.6z"/>
					<path class="st54" d="M320.3,271.7l0.7,0l0.1,4.1c0,0.1,0.1,0.2,0.2,0.2c0,0,0,0,0.1,0h0.2l0,0.7l-0.3,0
						c-0.2,0-0.4-0.1-0.6-0.2c-0.2-0.2-0.3-0.4-0.3-0.7L320.3,271.7z"/>
					<path class="st54" d="M322.2,273.6l-0.3,0l0-0.6l0.3,0l0-0.5c0-0.3,0.1-0.6,0.3-0.8c0.2-0.2,0.4-0.2,0.7-0.2l0.4,0l0,0.7
						l-0.4,0c-0.2,0-0.3,0.1-0.3,0.3l0,0.5l0.7,0l0,0.5l-0.7,0l0,3l-0.7,0L322.2,273.6z"/>
				</g>
				<polygon class="st53" points="324,275.9 324.7,275.9 324.7,276.6 324,276.6 				"/>
				<path class="st53" d="M325.6,273l0.7,0l0,0.4h0c0.2-0.3,0.5-0.4,0.9-0.4c0.3,0,0.6,0.1,0.8,0.3c0.2,0.2,0.4,0.6,0.4,0.9l0,2.4
					l-0.7,0l0-2.1c0-0.2-0.1-0.4-0.2-0.6c-0.1-0.1-0.3-0.2-0.5-0.2c-0.2,0-0.4,0.1-0.5,0.2c-0.1,0.2-0.2,0.4-0.2,0.6l0,2.1l-0.7,0
					L325.6,273z"/>
				<path class="st53" d="M329.2,273l0.7,0l0,2.1c0,0.2,0.1,0.4,0.2,0.6c0.3,0.3,0.7,0.3,1,0c0,0,0,0,0,0c0.1-0.2,0.2-0.4,0.2-0.6
					l0-2.1l0.7,0l0.1,3.6l-0.7,0l0-0.4h0c-0.2,0.3-0.5,0.4-0.9,0.4c-0.7,0-1.2-0.6-1.2-1.2L329.2,273z"/>
				<path class="st53" d="M332.8,272.9l0.7,0l0,0.4h0c0.2-0.3,0.5-0.4,0.9-0.4c0.2,0,0.4,0,0.6,0.1c0.1,0.1,0.3,0.2,0.4,0.3
					c0.3-0.3,0.7-0.5,1.1-0.5c0.3,0,0.6,0.1,0.8,0.3c0.2,0.2,0.4,0.6,0.4,0.9l0,2.4l-0.7,0l0-2.1c0-0.2-0.1-0.4-0.2-0.6
					c-0.1-0.1-0.3-0.2-0.5-0.2c-0.2,0-0.4,0.1-0.5,0.2c-0.1,0.2-0.2,0.4-0.2,0.6l0,2.1l-0.7,0l0-2.1c0-0.2-0.1-0.4-0.2-0.6
					c-0.3-0.3-0.7-0.3-1,0c-0.1,0.2-0.2,0.4-0.2,0.6l0,2.1l-0.7,0L332.8,272.9z"/>
				<polygon class="st53" points="338.1,276.9 341.4,276.9 341.4,277.2 338.1,277.3 				"/>
				<path class="st53" d="M341.8,272.8l0.7,0l0,3.6l-0.7,0L341.8,272.8z M341.8,271.3l0.7,0l0,0.7l-0.7,0L341.8,271.3z"/>
				<path class="st53" d="M343.4,272.7l0.7,0l0,0.4h0c0.2-0.3,0.5-0.4,0.9-0.4c0.3,0,0.6,0.1,0.8,0.3c0.2,0.2,0.4,0.6,0.4,0.9l0,2.4
					l-0.7,0l0-2.1c0-0.2-0.1-0.4-0.2-0.6c-0.1-0.1-0.3-0.2-0.5-0.2c-0.2,0-0.4,0.1-0.5,0.2c-0.1,0.2-0.2,0.4-0.2,0.6l0,2.1l-0.7,0
					L343.4,272.7z"/>
				<path class="st53" d="M347.2,275.2c0.3,0.3,0.7,0.5,1.1,0.4c0.2,0,0.3,0,0.5-0.1c0.1-0.1,0.2-0.2,0.2-0.3c0-0.1,0-0.2-0.1-0.3
					c-0.1-0.1-0.2-0.1-0.3-0.1l-0.6,0c-0.3,0-0.5-0.1-0.7-0.3c-0.2-0.2-0.3-0.4-0.3-0.7c0-0.3,0.1-0.6,0.4-0.8
					c0.3-0.2,0.6-0.3,0.9-0.3c0.1,0,0.3,0,0.4,0c0.1,0,0.2,0.1,0.3,0.1c0.2,0.1,0.4,0.2,0.6,0.3l-0.4,0.5c-0.1-0.1-0.3-0.2-0.4-0.2
					c-0.2-0.1-0.3-0.1-0.5-0.1c-0.2,0-0.3,0-0.4,0.1c-0.1,0.1-0.1,0.2-0.1,0.3c0,0.1,0,0.2,0.1,0.2c0.1,0.1,0.2,0.1,0.3,0.1l0.6,0
					c0.3,0,0.6,0.1,0.8,0.3c0.2,0.2,0.2,0.5,0.2,0.7c0,0.3-0.1,0.6-0.4,0.8c-0.3,0.2-0.6,0.3-1,0.3c-0.6,0-1.1-0.2-1.5-0.6
					L347.2,275.2z"/>
				<path class="st53" d="M350.3,271.5l0.7,0l0,1.1l0.5,0l0,0.6l-0.5,0l0,2.1c0,0.2,0.1,0.3,0.2,0.3h0.3l0,0.7l-0.4,0
					c-0.2,0-0.4-0.1-0.6-0.2c-0.2-0.2-0.3-0.4-0.2-0.6l0-2.1l-0.3,0l0-0.6l0.3,0L350.3,271.5z"/>
				<path class="st53" d="M353.9,275.8L353.9,275.8c-0.1,0.1-0.2,0.2-0.3,0.3c-0.2,0.1-0.4,0.1-0.5,0.1c-0.3,0-0.6-0.1-0.9-0.3
					c-0.2-0.2-0.3-0.5-0.3-0.8c0-0.3,0.1-0.5,0.3-0.8c0.2-0.2,0.5-0.3,0.8-0.3l0.9,0l0-0.4c0-0.3-0.2-0.5-0.7-0.4
					c-0.1,0-0.3,0-0.4,0.1c-0.1,0-0.2,0.1-0.2,0.2l-0.5-0.4c0.3-0.4,0.7-0.6,1.1-0.5c0.4,0,0.7,0.1,1,0.2c0.3,0.2,0.4,0.6,0.4,0.9
					l0,2.4l-0.7,0L353.9,275.8z M353.9,274.6l-0.8,0c-0.4,0-0.6,0.2-0.6,0.4c0,0.1,0.1,0.2,0.2,0.3c0.1,0.1,0.3,0.2,0.5,0.1
					c0.2,0,0.4,0,0.6-0.1c0.1-0.1,0.2-0.3,0.2-0.5L353.9,274.6z"/>
				<path class="st53" d="M355.4,272.5l0.7,0l0,0.4h0c0.2-0.3,0.5-0.4,0.9-0.4c0.3,0,0.6,0.1,0.8,0.3c0.2,0.2,0.4,0.6,0.4,0.9l0,2.4
					l-0.7,0l0-2.1c0-0.2-0.1-0.4-0.2-0.6c-0.1-0.1-0.3-0.2-0.5-0.2c-0.2,0-0.4,0.1-0.5,0.2c-0.1,0.2-0.2,0.4-0.2,0.6l0,2.1l-0.7,0
					L355.4,272.5z"/>
				<path class="st53" d="M361.6,275.4c-0.1,0.2-0.3,0.3-0.5,0.4c-0.2,0.1-0.5,0.2-0.7,0.2c-0.4,0-0.8-0.1-1.1-0.4
					c-0.4-0.4-0.5-0.9-0.5-1.4c0-0.5,0.1-1,0.5-1.4c0.3-0.3,0.7-0.4,1-0.4c0.2,0,0.5,0,0.7,0.2c0.2,0.1,0.4,0.3,0.5,0.4l-0.5,0.5
					c-0.2-0.2-0.4-0.4-0.7-0.4c-0.6,0-0.9,0.4-0.9,1.1c0,0.7,0.3,1.1,0.9,1.1c0.3,0,0.5-0.1,0.7-0.4L361.6,275.4z"/>
				<path class="st53" d="M362.6,274.5c0,0.2,0.1,0.5,0.2,0.7c0.2,0.2,0.4,0.2,0.6,0.2c0.3,0,0.6-0.1,0.7-0.4l0.5,0.4
					c-0.3,0.4-0.7,0.6-1.2,0.6c-0.2,0-0.4,0-0.5-0.1c-0.1,0-0.2-0.1-0.3-0.1c-0.1,0-0.2-0.1-0.2-0.2c-0.2-0.2-0.3-0.3-0.4-0.6
					c-0.1-0.3-0.2-0.6-0.2-0.9c0-0.3,0-0.6,0.1-0.9c0.1-0.2,0.2-0.4,0.3-0.6c0.1-0.1,0.3-0.2,0.5-0.3c0.5-0.2,1.1-0.1,1.5,0.3
					c0.3,0.3,0.4,0.7,0.4,1.1l0,0.6L362.6,274.5z M364,273.9c0-0.2-0.1-0.5-0.2-0.6c-0.3-0.3-0.7-0.3-1,0c-0.1,0.2-0.2,0.4-0.2,0.6
					L364,273.9z"/>
				<path class="st53" d="M365.5,274.9c0.3,0.3,0.7,0.5,1.1,0.4c0.2,0,0.3,0,0.5-0.1c0.1-0.1,0.2-0.2,0.2-0.3c0-0.1,0-0.2-0.1-0.3
					c-0.1-0.1-0.2-0.1-0.3-0.1l-0.6,0c-0.3,0-0.5-0.1-0.7-0.3c-0.2-0.2-0.3-0.4-0.3-0.7c0-0.3,0.1-0.6,0.4-0.8
					c0.3-0.2,0.6-0.3,0.9-0.3c0.1,0,0.3,0,0.4,0c0.1,0,0.2,0.1,0.4,0.1c0.2,0.1,0.4,0.2,0.6,0.3l-0.4,0.5c-0.1-0.1-0.3-0.2-0.4-0.2
					c-0.2-0.1-0.3-0.1-0.5-0.1c-0.2,0-0.3,0-0.4,0.1c-0.1,0.1-0.1,0.2-0.1,0.3c0,0.1,0,0.2,0.1,0.2c0.1,0.1,0.2,0.1,0.3,0.1l0.6,0
					c0.3,0,0.6,0.1,0.8,0.3c0.2,0.2,0.2,0.5,0.2,0.7c0,0.3-0.1,0.6-0.4,0.8c-0.3,0.2-0.6,0.3-1,0.3c-0.6,0-1.1-0.2-1.5-0.6
					L365.5,274.9z"/>
				<path class="st53" d="M369.7,276.6c-1.4-1.6-1.5-4.1-0.1-5.7h0.3c-0.8,1.8-0.8,3.9,0.1,5.7H369.7z"/>
				<g>
					<path class="st56" d="M370.4,272.3l0.7,0l0,0.4c0.2-0.3,0.5-0.4,0.9-0.4c0.4,0,0.7,0.1,0.9,0.5c0.1,0.1,0.2,0.3,0.2,0.4
						c0.1,0.6,0.1,1.2,0,1.8c0,0.2-0.1,0.3-0.2,0.5c-0.1,0.1-0.2,0.3-0.4,0.3c-0.2,0.1-0.4,0.1-0.5,0.1c-0.2,0-0.3,0-0.5-0.1
						c-0.2-0.1-0.3-0.2-0.4-0.3l0,1.8l-0.7,0L370.4,272.3z M371.8,275.2c0.1,0,0.3,0,0.4-0.1c0.1-0.1,0.2-0.2,0.2-0.3
						c0-0.1,0.1-0.2,0.1-0.4c0-0.1,0-0.3,0-0.4c0-0.1,0-0.3,0-0.4c0-0.1,0-0.2-0.1-0.4c0-0.1-0.1-0.2-0.2-0.3
						c-0.1-0.1-0.3-0.1-0.4-0.1c-0.1,0-0.3,0-0.4,0.1c-0.1,0.1-0.2,0.2-0.2,0.3c0,0.1-0.1,0.2-0.1,0.4c0,0.1,0,0.3,0,0.4
						c0,0.1,0,0.3,0,0.4c0,0.1,0,0.2,0.1,0.4C371.4,275,371.6,275.2,371.8,275.2L371.8,275.2z"/>
					<path class="st56" d="M373.9,272.2l0.7,0l0,0.4h0c0.2-0.3,0.5-0.4,0.9-0.4c0.3,0,0.5,0.1,0.7,0.3l-0.5,0.6
						c-0.1-0.1-0.3-0.2-0.5-0.2c-0.2,0-0.3,0.1-0.4,0.2c-0.2,0.2-0.2,0.4-0.2,0.6l0,2.1l-0.7,0L373.9,272.2z"/>
					<path class="st56" d="M376.5,272.2l0.7,0l0,3.6l-0.7,0L376.5,272.2z M376.5,270.7l0.7,0l0,0.7l-0.7,0L376.5,270.7z"/>
					<path class="st56" d="M377.7,272.2l0.7,0l0.8,2.5h0l0.8-2.5l0.7,0l-1.2,3.6l-0.6,0L377.7,272.2z"/>
					<path class="st56" d="M381.1,272.1l0.7,0l0,3.6l-0.7,0L381.1,272.1z M381.1,270.7l0.7,0l0,0.7l-0.7,0L381.1,270.7z"/>
					<path class="st56" d="M382.7,270.6l0.7,0l0.1,4.1c0,0.1,0.1,0.2,0.2,0.2c0,0,0,0,0.1,0h0.2l0,0.7l-0.3,0
						c-0.2,0-0.4-0.1-0.6-0.2c-0.2-0.2-0.3-0.4-0.3-0.7L382.7,270.6z"/>
					<path class="st56" d="M385,274.1c0,0.2,0.1,0.5,0.2,0.7c0.2,0.2,0.4,0.2,0.6,0.2c0.3,0,0.6-0.1,0.7-0.4l0.5,0.4
						c-0.3,0.4-0.7,0.6-1.2,0.6c-0.2,0-0.4,0-0.5-0.1c-0.1,0-0.2-0.1-0.3-0.1c-0.1,0-0.2-0.1-0.2-0.2c-0.2-0.2-0.3-0.3-0.4-0.6
						c-0.1-0.3-0.2-0.6-0.2-0.9c0-0.3,0-0.6,0.1-0.9c0.1-0.2,0.2-0.4,0.3-0.6c0.1-0.1,0.3-0.2,0.4-0.3c0.2-0.1,0.3-0.1,0.5-0.1
						c0.4,0,0.7,0.1,1,0.4c0.3,0.3,0.4,0.7,0.4,1.1l0,0.6L385,274.1z M386.4,273.5c0-0.2-0.1-0.5-0.2-0.6c-0.1-0.1-0.3-0.2-0.5-0.2
						c-0.2,0-0.4,0.1-0.5,0.2c-0.1,0.2-0.2,0.4-0.2,0.6L386.4,273.5z"/>
					<path class="st56" d="M389.7,275.2c-0.2,0.3-0.5,0.4-0.9,0.4c-0.2,0-0.4,0-0.6-0.1c-0.1-0.1-0.3-0.2-0.4-0.3
						c-0.1-0.1-0.2-0.3-0.2-0.4c-0.1-0.3-0.1-0.6-0.1-1c0-0.3,0-0.7,0-1c0-0.2,0.1-0.3,0.2-0.4c0.1-0.1,0.2-0.2,0.3-0.3
						c0.5-0.3,1.1-0.2,1.4,0.3l0-0.4l0.7,0l0,3.5c0,0.4-0.1,0.9-0.4,1.2c-0.3,0.3-0.6,0.4-1,0.4c-0.5,0-0.9-0.2-1.2-0.6l0.5-0.5
						c0.1,0.1,0.2,0.2,0.3,0.2c0.1,0.1,0.2,0.1,0.4,0.1c0.4,0,0.7-0.3,0.8-0.7c0,0,0-0.1,0-0.1L389.7,275.2z M388.4,273.8
						c0,0.2,0,0.4,0,0.6c0,0.1,0.1,0.2,0.1,0.3c0.1,0.1,0.1,0.1,0.2,0.2c0.1,0.1,0.2,0.1,0.3,0.1c0.1,0,0.2,0,0.3-0.1
						c0.1,0,0.1-0.1,0.2-0.2c0.1-0.1,0.1-0.2,0.1-0.3c0-0.2,0-0.4,0-0.6c0-0.2,0-0.4,0-0.6c0-0.1-0.1-0.2-0.1-0.3
						c-0.1-0.1-0.1-0.1-0.2-0.2c-0.1-0.1-0.2-0.1-0.3-0.1c-0.1,0-0.2,0-0.3,0.1c-0.1,0.1-0.1,0.1-0.2,0.2c-0.1,0.1-0.1,0.2-0.1,0.3
						C388.4,273.4,388.4,273.6,388.4,273.8z"/>
					<path class="st56" d="M391.8,274c0,0.2,0.1,0.5,0.2,0.7c0.2,0.2,0.4,0.2,0.6,0.2c0.3,0,0.6-0.1,0.7-0.4l0.5,0.4
						c-0.3,0.4-0.7,0.6-1.2,0.6c-0.2,0-0.4,0-0.5-0.1c-0.2-0.1-0.3-0.2-0.5-0.3c-0.2-0.2-0.3-0.3-0.4-0.6c-0.1-0.3-0.2-0.6-0.2-0.9
						c0-0.3,0-0.6,0.1-0.9c0.1-0.2,0.2-0.4,0.3-0.6c0.1-0.1,0.3-0.2,0.4-0.3c0.2-0.1,0.3-0.1,0.5-0.1c0.4,0,0.7,0.1,1,0.4
						c0.3,0.3,0.4,0.7,0.4,1.1l0,0.6L391.8,274z M393.2,273.4c0-0.2-0.1-0.5-0.2-0.6c-0.1-0.1-0.3-0.2-0.5-0.2
						c-0.2,0-0.4,0.1-0.5,0.2c-0.1,0.2-0.2,0.4-0.2,0.6L393.2,273.4z"/>
					<path class="st56" d="M396.7,275c-0.2,0.3-0.5,0.4-0.9,0.4c-0.2,0-0.4,0-0.5-0.1c-0.2-0.1-0.3-0.2-0.4-0.3
						c-0.1-0.1-0.2-0.3-0.2-0.5c0-0.3-0.1-0.6-0.1-0.9c0-0.3,0-0.6,0-0.9c0-0.2,0.1-0.3,0.2-0.4c0.2-0.3,0.5-0.5,0.9-0.5
						c0.2,0,0.3,0,0.5,0.1c0.1,0.1,0.3,0.2,0.4,0.3l0-1.8l0.7,0l0.1,5l-0.7,0L396.7,275z M396,272.5c-0.1,0-0.3,0-0.4,0.1
						c-0.1,0.1-0.2,0.2-0.2,0.3c0,0.1-0.1,0.2-0.1,0.4c0,0.1,0,0.3,0,0.4c0,0.1,0,0.3,0,0.4c0,0.1,0,0.2,0.1,0.4
						c0,0.1,0.1,0.2,0.2,0.3c0.1,0.1,0.2,0.1,0.4,0.1c0.1,0,0.3,0,0.4-0.1c0.1-0.1,0.2-0.2,0.2-0.3c0-0.1,0.1-0.2,0.1-0.4
						c0-0.1,0-0.3,0-0.4c0-0.1,0-0.3,0-0.4c0-0.1,0-0.2-0.1-0.4c0-0.1-0.1-0.2-0.2-0.3C396.3,272.6,396.1,272.5,396,272.5L396,272.5
						z"/>
				</g>
				<path class="st53" d="M398.4,270.4c1.4,1.6,1.5,4.1,0.1,5.7l-0.3,0c0.8-1.8,0.8-3.9-0.1-5.7L398.4,270.4z"/>
			</g>
			<path class="st12" d="M279.9,256.1l-0.5,0l0.3,36.1l0.5,0L279.9,256.1z"/>
			<path class="st12" d="M305.3,268.4l-0.5,0l0.1,8.9l0.5,0L305.3,268.4z"/>
			<path class="st12" d="M294.6,268.6l-0.5,0l0.1,16.7l0.5,0L294.6,268.6z"/>
		</g>
		<g>
			<path class="st33" d="M339.5,326.2c1.8-2,4.5-6.2,5.6-5.7c2.2,0.8-1.2,6.5-1.2,6.5l7.7-0.2c0,0,1.4,6.6-10.8,8.2
				c0,0-6.4,25.2-16.1,24.4c-10.8-0.9-48.9-29.8-48.9-29.8s18.6-23.1,30.8-8.6l20.2,20.3C326.7,341.2,336.5,329.7,339.5,326.2z"/>
			<g>
				<defs>
					<path id="SVGID_43_" d="M339.5,326.2c1.8-2,4.5-6.2,5.6-5.7c2.2,0.8-1.2,6.5-1.2,6.5l7.7-0.2c0,0,1.4,6.6-10.8,8.2
						c0,0-6.4,25.2-16.1,24.4c-10.8-0.9-48.9-29.8-48.9-29.8s18.6-23.1,30.8-8.6l20.2,20.3C326.7,341.2,336.5,329.7,339.5,326.2z"/>
				</defs>
				<clipPath id="SVGID_44_">
					<use xlink:href="#SVGID_43_"  style="overflow:visible;"/>
				</clipPath>
				<g class="st57">
					<g>
						<path class="st27" d="M324.1,334.9c0,2.2-0.4,4.4-1.2,6.5c-1.3,3.1-3.8,5.4-5.9,7.9c-1.2,1.5-2.5,3.7-0.7,5.3
							c4,3.7,10.4,3.4,15,1.3c1.9-0.9,3.7-2,5.4-3.2c0.4-0.3,0.8-0.5,1.3-0.6c0.2-0.1,0.5-0.1,0.5,0.2c0,0.8-0.9,1.8-1.4,2.4
							c-1.8,2-3.9,3.7-6.4,4.9c-5.9,3-13.2,2.2-19.3,0.2c-3.4-1.1-6.9-3.2-8.2-6.7c-1.1-2.9-0.5-6.2,0.6-9c1.8-4.4,4.6-8.3,8.2-11.4
							c2.4-2,5-3.6,8.2-3.8L324.1,334.9z"/>
						<path class="st10" d="M292.9,361.1c1.6-0.7,3-2.2,4.3-3.3c3-2.5,11.4-8.9,15.2-9.4c9.6-1.4,23.9-34.4,11.9-54.5
							c-1.6-2.6-3.6-5-6-6.9c-3.2-2.6-7-4.6-11-5.6c-24.4-6.2-48.3,15.6-53.3,38.2c-3.6,16,1,32.7,12.3,44.6L292.9,361.1z"/>
					</g>
				</g>
			</g>
		</g>
		<path class="st58" d="M242.1,294.8c-1.5,1.8-2.6,4-4,5.8c-3.7,4.8-7.7,9.3-12.1,13.6c-5.7,5.5-13.2,9.3-15.1,17.5
			c-2.1,8.8,3.5,18.5,10.1,23.8c11.3,9,28.2,10.5,41,4.2c20.9-10.2,34.3-38.4,21.2-59.5c-1.7-2.7-3.8-5.2-6.2-7.4
			c-2.8-2.3-5.9-4.1-9.3-5.3"/>
		<g>
			<path class="st10" d="M301.5,317.1c-17.6-8.5-32.6-8.7-53.1-4.1c5.3,34.2-15.2,57-9.7,90c16.7,12.8,61.9,5.2,66.7-16.8
				C296.1,365.5,294.8,342.5,301.5,317.1z"/>
			<g>
				<defs>
					<path id="SVGID_45_" d="M301.5,317.1c-17.6-8.5-32.6-8.7-53.1-4.1c5.3,34.2-15.2,57-9.7,90c16.7,12.8,61.9,5.2,66.7-16.8
						C296.1,365.5,294.8,342.5,301.5,317.1z"/>
				</defs>
				<clipPath id="SVGID_46_">
					<use xlink:href="#SVGID_45_"  style="overflow:visible;"/>
				</clipPath>
				<g class="st59">
					<path class="st27" d="M319.2,333c-3,1.2-19.5,8.3-21.5,10.6c-7.8,8.9-1.8,38.6-4.2,45.6c-1.7,5-5.7,8.5-10.1,11.1
						c-9.3,5.5-20,8-30.8,7c-5.9-0.6-11.7-1.4-17.6-2.5c-1-0.2-6.2-1.4-4.9,1.3c1.5,3.1,6,4.9,8.8,6.3c9.3,4.6,19.5,6.1,29.7,5.7
						c9.5-0.4,18.9-1.8,28.2-4.2c8.7-2.2,17.4-5.5,24.3-11.4c19.2-16.3,16-48.4-4.1-62.4L319.2,333z"/>
				</g>
			</g>
		</g>
		<g>
			<path class="st33" d="M281.2,291.3h-14.6c0.8,8.4-0.4,14.6-3.3,18.9c-0.9,5.2,11,4.8,14.6,0C277.1,306.1,277.6,300.4,281.2,291.3
				z"/>
			<g>
				<defs>
					<path id="SVGID_47_" d="M281.2,291.3h-14.6c0.8,8.4-0.4,14.6-3.3,18.9c-0.9,5.2,11,4.8,14.6,0
						C277.1,306.1,277.6,300.4,281.2,291.3z"/>
				</defs>
				<clipPath id="SVGID_48_">
					<use xlink:href="#SVGID_47_"  style="overflow:visible;"/>
				</clipPath>
				<g class="st60">
					<path class="st61" d="M268.2,296.5c1.1,0.4,1.9,0,2.8,0.6c2.2,1.4,1.6,6.1,3.8,7.6c1.4,1,2.9,2.7,4.7,2.8c2.6,0.1,2.7-2,2.8-4
						c0-0.5,0-1.1,0-1.6c0-0.6,0-1.2-0.1-1.8c-0.4-3.9-2.3-8-5.5-10.3c-0.8-0.6-1.7-1-2.7-1.3c-4.7-1.3-8.6,2.4-10.1,6.5
						L268.2,296.5z"/>
				</g>
			</g>
		</g>
		<path class="st33" d="M270.5,278.4c4.9,0,10.9,1.6,12,9.2c1,6.9,0,17.2-4.9,17.2c-4.9,0-14.2-5.5-15.1-12.4
			C261.5,284.9,265.5,278.4,270.5,278.4z"/>
		<path class="st42" d="M277.6,293.7c-0.1-0.7,1.7,1.3,2.9-0.5c0.7-1.3,0.4-6.8,1.8-7c0.8,0.9,5.9-1.4,6.6-2.1
			c1.7-1.7,2.5-4.1,2.3-6.4c-0.1-1.3-0.3-2.5-0.8-3.7c-0.4-1-0.9-1.9-1.5-2.7c-0.5-0.6-1.1-1.1-1.8-1.6c-5-3.1-11.2-0.1-14.3,4.2
			c-0.3,0.4-1,0.2-1.5,0.3c-0.8,0.2-1.6,0.5-2.3,0.9c-4.2,2.2-8.4,6.4-7.7,11.5c0.2,1.1-0.6,2.2-0.7,3.3c-0.3,3.8,1,8.2,4.8,9.8
			c2.4,1,5.1,0.5,7.4-0.3c2.1-0.7,2.4-1.1,3.8-2.9C277.3,295.8,277.7,294.8,277.6,293.7z"/>
		
			<ellipse transform="matrix(0.9875 -0.1576 0.1576 0.9875 -42.5933 47.472)" class="st25" cx="278.1" cy="292.4" rx="1.6" ry="2.6"/>
	</g>
</g>
</svg>
