<svg width="42" height="38" xmlns="http://www.w3.org/2000/svg" xmlns:xlink="http://www.w3.org/1999/xlink" xml:space="preserve" overflow="hidden"><defs><clipPath id="clip0"><rect x="740" y="400" width="42" height="38"/></clipPath></defs><g clip-path="url(#clip0)" transform="translate(-740 -400)"><path d="M42.4088 7.42719C42.4088 6.92285 41.9963 6.51032 41.4919 6.51032L15.8174 6.51032C15.3131 6.51032 14.9006 6.92287 14.9006 7.42719L14.9006 26.6831 11.6913 26.6831 11.6913 28.5168 27.7379 28.5168 27.7379 31.3593 21.3654 37.7324 22.6492 39.0161 27.7382 33.973 27.7382 38.6496 29.5719 38.6496 29.5719 33.973 34.661 39.0621 35.9447 37.7784 29.5719 31.3596 29.5719 28.5171 45.6185 28.5171 45.6185 26.6834 42.4093 26.6834ZM29.5715 26.6831 16.7343 26.6831 16.7343 8.34413 40.5749 8.34413 40.5749 26.6831Z" fill="#02559E" fill-rule="nonzero" fill-opacity="1" transform="matrix(1.02638 0 0 1 731.916 395.713)"/><path d="M1.53638-0.092104C1.45707-0.0511689 1.37423-0.0204676 1.28821 0 1.20282 0.021107 1.11328 0.0319802 1.01958 0.0319802 0.741352 0.0319802 0.521006-0.0454126 0.358223-0.200842 0.195121-0.356904 0.11389-0.567981 0.11389-0.834061 0.11389-1.10078 0.195121-1.31185 0.358223-1.46728 0.521006-1.62334 0.741352-1.70138 1.01958-1.70138 1.11328-1.70138 1.20283-1.69051 1.28821-1.6694 1.37424-1.64893 1.45707-1.61823 1.53638-1.5773L1.53638-1.2319C1.4561-1.28563 1.37712-1.32528 1.29972-1.35087 1.22201-1.37645 1.14014-1.38924 1.05411-1.38924 0.900606-1.38924 0.779716-1.33967 0.69209-1.24085 0.604145-1.14267 0.560328-1.00707 0.560328-0.834053 0.560328-0.661676 0.604142-0.526083 0.69209-0.427257 0.779716-0.329078 0.900606-0.280144 1.05411-0.280144 1.14014-0.280144 1.22201-0.292297 1.29972-0.317242 1.37712-0.342826 1.45611-0.382802 1.53638-0.437493Z" fill="#02559E" fill-rule="nonzero" fill-opacity="1" transform="matrix(1.02638 0 0 1 737.798 448.438)"/><path d="M1.12441-0.912117C1.08859-0.928106 1.05309-0.940255 1.01823-0.947935 0.984007-0.956253 0.949474-0.960723 0.914614-0.960723 0.811318-0.960723 0.732002-0.927467 0.676682-0.860948 0.621036-0.795063 0.593535-0.701043 0.593535-0.578237L0.593535-2.86546e-05 0.19314-2.86546e-05 0.19314-1.25363 0.593535-1.25363 0.593535-1.04768C0.644704-1.12955 0.703552-1.18903 0.770063-1.22677 0.837222-1.26514 0.917495-1.28433 1.01056-1.28433 1.02399-1.28433 1.0387-1.28337 1.05405-1.28177 1.07004-1.28081 1.09307-1.27858 1.12313-1.27537Z" fill="#02559E" fill-rule="nonzero" fill-opacity="1" transform="matrix(1.02638 0 0 1 739.525 448.438)"/><path d="M1.44427-0.630655 1.44427-0.515529 0.506613-0.515529C0.516847-0.421509 0.550746-0.35115 0.608951-0.304459 0.666836-0.257448 0.748384-0.234101 0.853285-0.234101 0.937709-0.234101 1.02374-0.246254 1.11168-0.271199 1.20027-0.296783 1.29109-0.33452 1.38416-0.385047L1.38416-0.0767566C1.2895-0.0409384 1.19483-0.0140751 1.10016 0.0038348 1.00551 0.0223833 0.910839 0.0319777 0.816173 0.0319777 0.589114 0.0319777 0.412577-0.0255869 0.28657-0.140719 0.161211-0.255845 0.0985227-0.417351 0.0985227-0.625547 0.0985227-0.830222 0.160245-0.990761 0.284008-1.10781 0.407452-1.2255 0.577267-1.28434 0.793143-1.28434 0.990139-1.28434 1.1478-1.22453 1.26645-1.10525 1.38478-0.986602 1.44427-0.828298 1.44427-0.630656ZM1.03237-0.763694C1.03237-0.839489 1.00998-0.900573 0.965848-0.946625 0.921392-0.993315 0.86351-1.01698 0.791874-1.01698 0.714161-1.01698 0.651155-0.995239 0.602549-0.951742 0.553942-0.908244 0.523557-0.845564 0.511722-0.763694Z" fill="#02559E" fill-rule="nonzero" fill-opacity="1" transform="matrix(1.02638 0 0 1 740.686 448.438)"/><path d="M0.754745-0.564135C0.67096-0.564135 0.607952-0.550063 0.565421-0.521921 0.523526-0.493778 0.502739-0.451884 0.502739-0.396562 0.502739-0.345393 0.519689-0.305096 0.553908-0.27631 0.587807-0.248168 0.634819-0.234097 0.694627-0.234097 0.77042-0.234097 0.834061-0.26096 0.88523-0.314688 0.937038-0.369055 0.963261-0.436855 0.963261-0.518086L0.963261-0.564138ZM1.36622-0.715088 1.36622 0 0.963261 0 0.963261-0.185485C0.909538-0.109371 0.848774-0.0540426 0.781607-0.0191904 0.714128 0.0147088 0.632259 0.0319785 0.535996 0.0319785 0.406158 0.0319785 0.300939-0.00543864 0.220026-0.0805931 0.138795-0.156387 0.0984981-0.254887 0.0984981-0.376096 0.0984981-0.52257 0.148707-0.630024 0.24945-0.69846 0.35083-0.767538 0.509773-0.802075 0.726599-0.802075L0.963253-0.802075 0.963253-0.834053C0.963253-0.897061 0.937988-0.943104 0.887777-0.972209 0.837246-1.00195 0.759217-1.01698 0.653678-1.01698 0.56733-1.01698 0.487383-1.00835 0.413184-0.9914 0.339629-0.974133 0.271508-0.948549 0.208509-0.914646L0.208509-1.22038C0.29358-1.24085 0.379282-1.25652 0.465631-1.26771 0.552618-1.27858 0.639605-1.28434 0.726592-1.28434 0.952372-1.28434 1.11547-1.23957 1.21526-1.15002 1.31568-1.06112 1.36621-0.916243 1.36621-0.715091Z" fill="#02559E" fill-rule="nonzero" fill-opacity="1" transform="matrix(1.02638 0 0 1 742.281 448.438)"/><path d="M0.630655-1.60924 0.630655-1.25361 1.04385-1.25361 1.04385-0.967068 0.630655-0.967068 0.630655-0.434911C0.630655-0.376706 0.642167-0.33769 0.665194-0.317223 0.688221-0.296755 0.733633-0.286521 0.802073-0.286521L1.00803-0.286521 1.00803 2.45611e-05 0.665194 2.45611e-05C0.506571 2.45611e-05 0.393999-0.0325958 0.327479-0.0984735 0.261599-0.164993 0.228981-0.276926 0.228981-0.434911L0.228981-0.967068 0.0306997-0.967068 0.0306997-1.25361 0.228981-1.25361 0.228981-1.60924Z" fill="#02559E" fill-rule="nonzero" fill-opacity="1" transform="matrix(1.02638 0 0 1 743.869 448.438)"/><path d="M1.44427-0.630655 1.44427-0.515529 0.506613-0.515529C0.516847-0.421509 0.550746-0.35115 0.608951-0.304459 0.666836-0.257448 0.748384-0.234101 0.853285-0.234101 0.937709-0.234101 1.02374-0.246254 1.11168-0.271199 1.20027-0.296783 1.29109-0.33452 1.38416-0.385047L1.38416-0.0767566C1.2895-0.0409384 1.19483-0.0140751 1.10016 0.0038348 1.00551 0.0223833 0.910839 0.0319777 0.816173 0.0319777 0.589114 0.0319777 0.412577-0.0255869 0.28657-0.140719 0.161211-0.255845 0.0985227-0.417351 0.0985227-0.625547 0.0985227-0.830222 0.160245-0.990761 0.284008-1.10781 0.407452-1.2255 0.577267-1.28434 0.793143-1.28434 0.990139-1.28434 1.1478-1.22453 1.26645-1.10525 1.38478-0.986602 1.44427-0.828298 1.44427-0.630656ZM1.03237-0.763694C1.03237-0.839489 1.00998-0.900573 0.965848-0.946625 0.921392-0.993315 0.86351-1.01698 0.791874-1.01698 0.714161-1.01698 0.651155-0.995239 0.602549-0.951742 0.553942-0.908244 0.523557-0.845564 0.511722-0.763694Z" fill="#02559E" fill-rule="nonzero" fill-opacity="1" transform="matrix(1.02638 0 0 1 744.994 448.438)"/><path d="M1.04516-1.0707 1.04516-1.74229 1.44811-1.74229 1.44811-8.18703e-06 1.04516-8.18703e-06 1.04516-0.181662C0.990466-0.107467 0.93003-0.053101 0.863502-0.0191986 0.796974 0.0147039 0.71959 0.0319703 0.631965 0.0319703 0.4775 0.0319703 0.350855-0.0294324 0.252038-0.152238 0.152901-0.275043 0.103648-0.432709 0.103648-0.625546 0.103648-0.81903 0.152898-0.977334 0.252038-1.10014 0.350855-1.22295 0.4775-1.28435 0.631965-1.28435 0.718952-1.28435 0.795705-1.26676 0.862225-1.2319 0.929383-1.19672 0.990466-1.143 1.04516-1.07072ZM0.781632-0.258391C0.866703-0.258391 0.931937-0.289412 0.977351-0.351772 1.02244-0.414774 1.04515-0.505917 1.04515-0.62553 1.04515-0.744815 1.02244-0.835642 0.977351-0.898002 0.931937-0.961001 0.866695-0.99266 0.781632-0.99266 0.696241-0.99266 0.631007-0.961001 0.585913-0.898002 0.5405-0.835642 0.518114-0.744815 0.518114-0.62553 0.518114-0.505925 0.540501-0.414779 0.585913-0.351772 0.631005-0.28941 0.696249-0.258391 0.781632-0.258391Z" fill="#02559E" fill-rule="nonzero" fill-opacity="1" transform="matrix(1.02638 0 0 1 746.589 448.438)"/><path d="M0.859638-0.258399C0.945667-0.258399 1.01123-0.28942 1.05663-0.35178 1.10173-0.414782 1.12443-0.505925 1.12443-0.625538 1.12443-0.744823 1.10173-0.83565 1.05663-0.89801 1.01122-0.96101 0.945659-0.992669 0.859638-0.992669 0.773289-0.992669 0.707408-0.96101 0.661356-0.89801 0.615943-0.834692 0.593558-0.743865 0.593558-0.625538 0.593558-0.506891 0.615944-0.416065 0.661356-0.353065 0.707408-0.289744 0.773289-0.258407 0.859638-0.258407ZM0.593559-1.07071C0.648886-1.14298 0.709971-1.19671 0.77649-1.23189 0.843648-1.26675 0.92104-1.28434 1.00803-1.28434 1.16313-1.28434 1.2901-1.22294 1.38923-1.10013 1.48805-0.977326 1.53762-0.819022 1.53762-0.62554 1.53762-0.432694 1.48805-0.275037 1.38923-0.152231 1.2901-0.0294258 1.16313 0.0319769 1.00803 0.0319769 0.92104 0.0319769 0.843648 0.0147072 0.77649-0.019192 0.709971-0.0540507 0.648887-0.108095 0.593559-0.181655L0.593559-1.63741e-06 0.193165-1.63741e-06 0.193165-1.74228 0.593559-1.74228Z" fill="#02559E" fill-rule="nonzero" fill-opacity="1" transform="matrix(1.02638 0 0 1 749.093 448.438)"/><path d="M0.0281429-1.2536 0.428538-1.2536 0.766252-0.402884 1.0528-1.2536 1.4532-1.2536 0.926157 0.119039C0.873064 0.257834 0.811346 0.355055 0.740668 0.410702 0.669671 0.466988 0.576927 0.495127 0.461801 0.495127L0.228979 0.495127 0.228979 0.231603 0.354339 0.231603C0.422457 0.231603 0.472027 0.220409 0.502728 0.198343 0.534069 0.176916 0.558375 0.138539 0.575644 0.083217L0.587156 0.0486776Z" fill="#02559E" fill-rule="nonzero" fill-opacity="1" transform="matrix(1.02638 0 0 1 750.777 448.438)"/><path d="M0.21107-1.67064 1.37387-1.67064 1.37387-1.34572 0.64088-1.34572 0.64088-1.03486 1.33038-1.03486 1.33038-0.708661 0.64088-0.708661 0.64088 2.45611e-05 0.211062 2.45611e-05Z" fill="#02559E" fill-rule="nonzero" fill-opacity="1" transform="matrix(1.02638 0 0 1 753.13 448.438)"/><path d="M0.789278-0.997835C0.700375-0.997835 0.632571-0.965856 0.58588-0.901891 0.538868-0.837926 0.515522-0.74583 0.515522-0.625579 0.515522-0.505328 0.538868-0.413224 0.58588-0.349267 0.632571-0.285945 0.700367-0.254608 0.789278-0.254608 0.876266-0.254608 0.942785-0.285949 0.988837-0.349267 1.03553-0.413228 1.0592-0.505328 1.0592-0.625579 1.0592-0.74583 1.03553-0.837934 0.988837-0.901891 0.942785-0.965848 0.876266-0.997835 0.789278-0.997835ZM0.789278-1.28438C1.00483-1.28438 1.17336-1.22586 1.29457-1.10913 1.41546-0.993037 1.47623-0.831859 1.47623-0.625587 1.47623-0.419953 1.41546-0.258767 1.29457-0.142045 1.17336-0.0259529 1.00483 0.0319294 0.789278 0.0319294 0.572453 0.0319294 0.403277-0.0259553 0.281429-0.142045 0.159262-0.258776 0.0984981-0.419953 0.0984981-0.625587 0.0984981-0.831859 0.159261-0.993045 0.281429-1.10913 0.403277-1.22586 0.572453-1.28438 0.789278-1.28438Z" fill="#02559E" fill-rule="nonzero" fill-opacity="1" transform="matrix(1.02638 0 0 1 754.737 448.438)"/><path d="M1.20505-1.21397 1.20505-0.887768C1.15132-0.925183 1.09664-0.953011 1.04131-0.970916 0.986618-0.988821 0.930013-0.997777 0.871173-0.997777 0.75924-0.997777 0.671934-0.964841 0.608935-0.899279 0.546572-0.834356 0.515553-0.74322 0.515553-0.625523 0.515553-0.508473 0.546575-0.417327 0.608935-0.351765 0.671936-0.286845 0.75924-0.254544 0.871173-0.254544 0.933214-0.254544 0.992701-0.263499 1.04899-0.281408 1.10527-0.299956 1.15708-0.32778 1.20505-0.364555L1.20505-0.0370741C1.14269-0.0140481 1.07904 0.00290148 1.01445 0.0140948 0.950481 0.0259275 0.885566 0.0320039 0.820004 0.0320039 0.593903 0.0320039 0.417047-0.0258808 0.289125-0.14197 0.161841-0.257743 0.0985227-0.418921 0.0985227-0.625512 0.0985227-0.832743 0.161844-0.994249 0.289125-1.11034 0.417047-1.22611 0.593903-1.28432 0.820004-1.28432 0.885566-1.28432 0.950489-1.27824 1.01445-1.2664 1.0784-1.25521 1.14173-1.23762 1.20505-1.21396Z" fill="#02559E" fill-rule="nonzero" fill-opacity="1" transform="matrix(1.02638 0 0 1 756.353 448.438)"/><path d="M0.179091-0.488667 0.179091-1.25365 0.582048-1.25365 0.582048-1.12829C0.582048-1.05985 0.581409-0.97478 0.580769-0.872442 0.57981-0.770104 0.57949-0.701669 0.57949-0.667767 0.57949-0.566067 0.582048-0.493154 0.587165-0.449017 0.592922-0.404564 0.601877-0.372584 0.614029-0.353074 0.630978-0.32653 0.652725-0.306062 0.679269-0.291671 0.705493-0.277919 0.735875-0.271203 0.770096-0.271203 0.853563-0.271203 0.919125-0.303184 0.967092-0.367147 1.01474-0.431108 1.03873-0.520015 1.03873-0.634503L1.03873-1.25365 1.43912-1.25365 1.43912-4.91222e-05 1.03873-4.91222e-05 1.03873-0.181703C0.977965-0.108147 0.914008-0.0540999 0.846841-0.0192395 0.779362 0.0146597 0.704846 0.0319294 0.622975 0.0319294 0.478745 0.0319294 0.368727-0.0122036 0.29294-0.10111 0.216826-0.189693 0.179091-0.318901 0.179091-0.488716Z" fill="#02559E" fill-rule="nonzero" fill-opacity="1" transform="matrix(1.02638 0 0 1 757.748 448.438)"/><path d="M1.17173-1.21397 1.17173-0.909513C1.08634-0.945331 1.00351-0.972193 0.923562-0.990106 0.843288-1.00801 0.76782-1.01697 0.697142-1.01697 0.621028-1.01697 0.564422-1.00737 0.527007-0.988821 0.490229-0.969958 0.472-0.940534 0.472-0.900565 0.472-0.868897 0.486072-0.844598 0.514214-0.827643 0.542357-0.810376 0.592566-0.797583 0.665166-0.789269L0.735524-0.779035C0.940837-0.752491 1.07899-0.709317 1.14999-0.649835 1.22067-0.590032 1.25617-0.496648 1.25617-0.369684 1.25617-0.235686 1.2066-0.134945 1.10778-0.0677869 1.0096-0.00126735 0.862806 0.0319965 0.667727 0.0319965 0.583941 0.0319965 0.497912 0.0256004 0.409328 0.0128078 0.321383 1.55553e-05 0.230876-0.0194925 0.138133-0.0460365L0.138133-0.350496C0.217445-0.311159 0.298673-0.281738 0.382467-0.262231 0.466891-0.243363 0.552601-0.234088 0.639588-0.234088 0.717941-0.234088 0.776787-0.244642 0.816117-0.266069 0.855135-0.288135 0.874964-0.320435 0.874964-0.363289 0.874964-0.399108 0.86121-0.425332 0.834029-0.442601 0.806523-0.46051 0.752476-0.473942 0.671563-0.483536L0.601205-0.492491C0.422753-0.514558 0.298031-0.555813 0.226395-0.616574 0.154759-0.677017 0.11894-0.768803 0.11894-0.891608 0.11894-1.02465 0.164033-1.12315 0.254534-1.18711 0.34568-1.25171 0.485432-1.28433 0.674119-1.28433 0.747354-1.28433 0.824425-1.27826 0.905657-1.26643 0.987527-1.25523 1.07611-1.23764 1.17174-1.21397Z" fill="#02559E" fill-rule="nonzero" fill-opacity="1" transform="matrix(1.02638 0 0 1 759.423 448.438)"/><path d="M1.01699-1.74228 1.01699-1.47876 0.795689-1.47876C0.739403-1.47876 0.699745-1.46852 0.676723-1.44806 0.654337-1.42759 0.643463-1.39177 0.643463-1.3406L0.643463-1.25361 0.986299-1.25361 0.986299-0.967068 0.643463-0.967068 0.643463-1.63741e-05 0.243069-1.63741e-05 0.243069-0.967068 0.0435099-0.967068 0.0435099-1.25361 0.243069-1.25361 0.243069-1.3406C0.243069-1.47684 0.280806-1.57789 0.356917-1.64377 0.432711-1.70934 0.550721-1.74227 0.71126-1.74227Z" fill="#02559E" fill-rule="nonzero" fill-opacity="1" transform="matrix(1.02638 0 0 1 737.798 450.73)"/><path d="M1.12441-0.912117C1.08859-0.928106 1.05309-0.940255 1.01823-0.947935 0.984007-0.956253 0.949474-0.960723 0.914614-0.960723 0.811318-0.960723 0.732002-0.927467 0.676682-0.860948 0.621036-0.795063 0.593535-0.701043 0.593535-0.578237L0.593535-2.86546e-05 0.19314-2.86546e-05 0.19314-1.25363 0.593535-1.25363 0.593535-1.04768C0.644704-1.12955 0.703552-1.18903 0.770063-1.22677 0.837222-1.26514 0.917495-1.28433 1.01056-1.28433 1.02399-1.28433 1.0387-1.28337 1.05405-1.28177 1.07004-1.28081 1.09307-1.27858 1.12313-1.27537Z" fill="#02559E" fill-rule="nonzero" fill-opacity="1" transform="matrix(1.02638 0 0 1 738.822 450.73)"/><path d="M0.789278-0.997835C0.700375-0.997835 0.632571-0.965856 0.58588-0.901891 0.538868-0.837926 0.515522-0.74583 0.515522-0.625579 0.515522-0.505328 0.538868-0.413224 0.58588-0.349267 0.632571-0.285945 0.700367-0.254608 0.789278-0.254608 0.876266-0.254608 0.942785-0.285949 0.988837-0.349267 1.03553-0.413228 1.0592-0.505328 1.0592-0.625579 1.0592-0.74583 1.03553-0.837934 0.988837-0.901891 0.942785-0.965848 0.876266-0.997835 0.789278-0.997835ZM0.789278-1.28438C1.00483-1.28438 1.17336-1.22586 1.29457-1.10913 1.41546-0.993037 1.47623-0.831859 1.47623-0.625587 1.47623-0.419953 1.41546-0.258767 1.29457-0.142045 1.17336-0.0259529 1.00483 0.0319294 0.789278 0.0319294 0.572453 0.0319294 0.403277-0.0259553 0.281429-0.142045 0.159262-0.258776 0.0984981-0.419953 0.0984981-0.625587 0.0984981-0.831859 0.159261-0.993045 0.281429-1.10913 0.403277-1.22586 0.572453-1.28438 0.789278-1.28438Z" fill="#02559E" fill-rule="nonzero" fill-opacity="1" transform="matrix(1.02638 0 0 1 739.982 450.73)"/><path d="M1.35471-1.04516C1.40492-1.12255 1.46504-1.18203 1.53508-1.22297 1.6048-1.2639 1.68155-1.28437 1.76534-1.28437 1.90925-1.28437 2.01894-1.2396 2.09409-1.15006 2.16989-1.06115 2.20794-0.932592 2.20794-0.763727L2.20794-3.27481e-05 1.80499-3.27481e-05 1.80499-0.653718 1.80499-0.68314C1.80562-0.694013 1.80626-0.709364 1.80626-0.729192 1.80626-0.817776 1.79284-0.881743 1.7666-0.921081 1.74102-0.961059 1.69913-0.981207 1.64124-0.981207 1.56514-0.981207 1.50629-0.949539 1.46472-0.886548 1.42282-0.82418 1.4014-0.733677 1.40076-0.61535L1.40076-4.58473e-05 0.997802-4.58473e-05 0.997802-0.653731C0.997802-0.792525 0.985652-0.881759 0.961984-0.92109 0.937996-0.961059 0.895464-0.981207 0.834061-0.981207 0.757308-0.981207 0.69782-0.949548 0.656247-0.886548 0.614352-0.824188 0.593565-0.734322 0.593565-0.616634L0.593565-5.2397e-05 0.190609-5.2397e-05 0.190609-1.25365 0.593565-1.25365 0.593565-1.07072C0.642815-1.14139 0.699105-1.1948 0.762423-1.23062 0.826382-1.26643 0.896741-1.28435 0.973495-1.28435 1.06048-1.28435 1.13724-1.26324 1.20375-1.22167 1.27027-1.17977 1.32049-1.12093 1.35471-1.04514Z" fill="#02559E" fill-rule="nonzero" fill-opacity="1" transform="matrix(1.02638 0 0 1 741.599 450.73)"/><path d="M0.630655-1.60924 0.630655-1.25361 1.04385-1.25361 1.04385-0.967068 0.630655-0.967068 0.630655-0.434911C0.630655-0.376706 0.642167-0.33769 0.665194-0.317223 0.688221-0.296755 0.733633-0.286521 0.802073-0.286521L1.00803-0.286521 1.00803 2.45611e-05 0.665194 2.45611e-05C0.506571 2.45611e-05 0.393999-0.0325958 0.327479-0.0984735 0.261599-0.164993 0.228981-0.276926 0.228981-0.434911L0.228981-0.967068 0.0306997-0.967068 0.0306997-1.25361 0.228981-1.25361 0.228981-1.60924Z" fill="#02559E" fill-rule="nonzero" fill-opacity="1" transform="matrix(1.02638 0 0 1 744.87 450.73)"/><path d="M1.4532-0.763694 1.4532 0 1.05024 0 1.05024-0.582048C1.05024-0.692066 1.04769-0.767534 1.04257-0.808469 1.03745-0.849404 1.02881-0.879467 1.01698-0.899296 1.00163-0.92488 0.9802-0.944709 0.953019-0.959421 0.926477-0.973814 0.896095-0.981166 0.862192-0.981166 0.778406-0.981166 0.712844-0.948549 0.665196-0.883945 0.617225-0.81998 0.593559-0.730758 0.593559-0.616589L0.593559-8.18703e-06 0.193165-8.18703e-06 0.193165-1.74229 0.593559-1.74229 0.593559-1.0707C0.654003-1.14297 0.717961-1.19671 0.785447-1.23189 0.853563-1.26675 0.92872-1.28433 1.01059-1.28433 1.15546-1.28433 1.26548-1.23956 1.34063-1.15002 1.41546-1.06111 1.4532-0.932551 1.4532-0.763687Z" fill="#02559E" fill-rule="nonzero" fill-opacity="1" transform="matrix(1.02638 0 0 1 745.994 450.73)"/><path d="M1.44427-0.630655 1.44427-0.515529 0.506613-0.515529C0.516847-0.421509 0.550746-0.35115 0.608951-0.304459 0.666836-0.257448 0.748384-0.234101 0.853285-0.234101 0.937709-0.234101 1.02374-0.246254 1.11168-0.271199 1.20027-0.296783 1.29109-0.33452 1.38416-0.385047L1.38416-0.0767566C1.2895-0.0409384 1.19483-0.0140751 1.10016 0.0038348 1.00551 0.0223833 0.910839 0.0319777 0.816173 0.0319777 0.589114 0.0319777 0.412577-0.0255869 0.28657-0.140719 0.161211-0.255845 0.0985227-0.417351 0.0985227-0.625547 0.0985227-0.830222 0.160245-0.990761 0.284008-1.10781 0.407452-1.2255 0.577267-1.28434 0.793143-1.28434 0.990139-1.28434 1.1478-1.22453 1.26645-1.10525 1.38478-0.986602 1.44427-0.828298 1.44427-0.630656ZM1.03237-0.763694C1.03237-0.839489 1.00998-0.900573 0.965848-0.946625 0.921392-0.993315 0.86351-1.01698 0.791874-1.01698 0.714161-1.01698 0.651155-0.995239 0.602549-0.951742 0.553942-0.908244 0.523557-0.845564 0.511722-0.763694Z" fill="#02559E" fill-rule="nonzero" fill-opacity="1" transform="matrix(1.02638 0 0 1 747.669 450.73)"/><path d="M0.21107-1.67064 0.692057-1.67064 1.29969-0.524461 1.29969-1.67064 1.70776-1.67064 1.70776 0 1.22678 0 0.619144-1.14618 0.619144 0 0.21107 0Z" fill="#02559E" fill-rule="nonzero" fill-opacity="1" transform="matrix(1.02638 0 0 1 750.084 450.73)"/><path d="M0.789278-0.997835C0.700375-0.997835 0.632571-0.965856 0.58588-0.901891 0.538868-0.837926 0.515522-0.74583 0.515522-0.625579 0.515522-0.505328 0.538868-0.413224 0.58588-0.349267 0.632571-0.285945 0.700367-0.254608 0.789278-0.254608 0.876266-0.254608 0.942785-0.285949 0.988837-0.349267 1.03553-0.413228 1.0592-0.505328 1.0592-0.625579 1.0592-0.74583 1.03553-0.837934 0.988837-0.901891 0.942785-0.965848 0.876266-0.997835 0.789278-0.997835ZM0.789278-1.28438C1.00483-1.28438 1.17336-1.22586 1.29457-1.10913 1.41546-0.993037 1.47623-0.831859 1.47623-0.625587 1.47623-0.419953 1.41546-0.258767 1.29457-0.142045 1.17336-0.0259529 1.00483 0.0319294 0.789278 0.0319294 0.572453 0.0319294 0.403277-0.0259553 0.281429-0.142045 0.159262-0.258776 0.0984981-0.419953 0.0984981-0.625587 0.0984981-0.831859 0.159261-0.993045 0.281429-1.10913 0.403277-1.22586 0.572453-1.28438 0.789278-1.28438Z" fill="#02559E" fill-rule="nonzero" fill-opacity="1" transform="matrix(1.02638 0 0 1 752.053 450.73)"/><path d="M0.179091-0.488667 0.179091-1.25365 0.582048-1.25365 0.582048-1.12829C0.582048-1.05985 0.581409-0.97478 0.580769-0.872442 0.57981-0.770104 0.57949-0.701669 0.57949-0.667767 0.57949-0.566067 0.582048-0.493154 0.587165-0.449017 0.592922-0.404564 0.601877-0.372584 0.614029-0.353074 0.630978-0.32653 0.652725-0.306062 0.679269-0.291671 0.705493-0.277919 0.735875-0.271203 0.770096-0.271203 0.853563-0.271203 0.919125-0.303184 0.967092-0.367147 1.01474-0.431108 1.03873-0.520015 1.03873-0.634503L1.03873-1.25365 1.43912-1.25365 1.43912-4.91222e-05 1.03873-4.91222e-05 1.03873-0.181703C0.977965-0.108147 0.914008-0.0540999 0.846841-0.0192395 0.779362 0.0146597 0.704846 0.0319294 0.622975 0.0319294 0.478745 0.0319294 0.368727-0.0122036 0.29294-0.10111 0.216826-0.189693 0.179091-0.318901 0.179091-0.488716Z" fill="#02559E" fill-rule="nonzero" fill-opacity="1" transform="matrix(1.02638 0 0 1 753.67 450.73)"/><path d="M1.4532-0.763694 1.4532 0 1.05024 0 1.05024-0.584603C1.05024-0.692696 1.04769-0.767534 1.04257-0.808469 1.03745-0.849404 1.02881-0.879467 1.01698-0.899296 1.00163-0.92488 0.9802-0.944709 0.953019-0.959421 0.926477-0.973814 0.896095-0.981166 0.862192-0.981166 0.778406-0.981166 0.712844-0.948549 0.665196-0.883945 0.617225-0.81998 0.593559-0.730758 0.593559-0.616589L0.593559-8.18703e-06 0.193165-8.18703e-06 0.193165-1.25361 0.593559-1.25361 0.593559-1.07067C0.654003-1.14295 0.717961-1.19668 0.785447-1.23186 0.853563-1.26672 0.92872-1.28431 1.01059-1.28431 1.15546-1.28431 1.26548-1.23953 1.34063-1.14999 1.41546-1.06109 1.4532-0.932527 1.4532-0.763663Z" fill="#02559E" fill-rule="nonzero" fill-opacity="1" transform="matrix(1.02638 0 0 1 755.345 450.73)"/><path d="M0.21107-1.67064 0.926157-1.67064C1.13851-1.67064 1.30129-1.62332 1.41482-1.52865 1.52899-1.43463 1.58624-1.3003 1.58624-1.12569 1.58624-0.950759 1.529-0.816124 1.41482-0.721457 1.3013-0.626799 1.13851-0.579461 0.926157-0.579461L0.640889-0.579461 0.640889 2.45611e-05 0.21107 2.45611e-05ZM0.640889-1.35851 0.640889-0.8916 0.880105-0.8916C0.963572-0.8916 1.02786-0.912067 1.07327-0.953003 1.11932-0.993938 1.14234-1.0515 1.14234-1.1257 1.14234-1.20054 1.11932-1.2581 1.07327-1.2984 1.02786-1.33837 0.96358-1.35852 0.880105-1.35852Z" fill="#02559E" fill-rule="nonzero" fill-opacity="1" transform="matrix(1.02638 0 0 1 757.839 450.73)"/><path d="M1.12441-0.912117C1.08859-0.928106 1.05309-0.940255 1.01823-0.947935 0.984007-0.956253 0.949474-0.960723 0.914614-0.960723 0.811318-0.960723 0.732002-0.927467 0.676682-0.860948 0.621036-0.795063 0.593535-0.701043 0.593535-0.578237L0.593535-2.86546e-05 0.19314-2.86546e-05 0.19314-1.25363 0.593535-1.25363 0.593535-1.04768C0.644704-1.12955 0.703552-1.18903 0.770063-1.22677 0.837222-1.26514 0.917495-1.28433 1.01056-1.28433 1.02399-1.28433 1.0387-1.28337 1.05405-1.28177 1.07004-1.28081 1.09307-1.27858 1.12313-1.27537Z" fill="#02559E" fill-rule="nonzero" fill-opacity="1" transform="matrix(1.02638 0 0 1 759.563 450.73)"/><path d="M0.789278-0.997835C0.700375-0.997835 0.632571-0.965856 0.58588-0.901891 0.538868-0.837926 0.515522-0.74583 0.515522-0.625579 0.515522-0.505328 0.538868-0.413224 0.58588-0.349267 0.632571-0.285945 0.700367-0.254608 0.789278-0.254608 0.876266-0.254608 0.942785-0.285949 0.988837-0.349267 1.03553-0.413228 1.0592-0.505328 1.0592-0.625579 1.0592-0.74583 1.03553-0.837934 0.988837-0.901891 0.942785-0.965848 0.876266-0.997835 0.789278-0.997835ZM0.789278-1.28438C1.00483-1.28438 1.17336-1.22586 1.29457-1.10913 1.41546-0.993037 1.47623-0.831859 1.47623-0.625587 1.47623-0.419953 1.41546-0.258767 1.29457-0.142045 1.17336-0.0259529 1.00483 0.0319294 0.789278 0.0319294 0.572453 0.0319294 0.403277-0.0259553 0.281429-0.142045 0.159262-0.258776 0.0984981-0.419953 0.0984981-0.625587 0.0984981-0.831859 0.159261-0.993045 0.281429-1.10913 0.403277-1.22586 0.572453-1.28438 0.789278-1.28438Z" fill="#02559E" fill-rule="nonzero" fill-opacity="1" transform="matrix(1.02638 0 0 1 760.723 450.73)"/><path d="M0.193165-1.2536 0.593559-1.2536 0.593559-0.0230055C0.593559 0.144894 0.552944 0.273136 0.472031 0.362038 0.39176 0.450622 0.275035 0.495078 0.121528 0.495078L-0.0767534 0.495078-0.0767534 0.231554-0.0063957 0.231554C0.0693981 0.231554 0.121527 0.214284 0.149665 0.180385 0.178448 0.146165 0.193159 0.0783662 0.193159-0.0230137ZM0.193165-1.74226 0.593559-1.74226 0.593559-1.41478 0.193165-1.41478Z" fill="#02559E" fill-rule="nonzero" fill-opacity="1" transform="matrix(1.02638 0 0 1 762.34 450.73)"/><path d="M1.44427-0.630655 1.44427-0.515529 0.506613-0.515529C0.516847-0.421509 0.550746-0.35115 0.608951-0.304459 0.666836-0.257448 0.748384-0.234101 0.853285-0.234101 0.937709-0.234101 1.02374-0.246254 1.11168-0.271199 1.20027-0.296783 1.29109-0.33452 1.38416-0.385047L1.38416-0.0767566C1.2895-0.0409384 1.19483-0.0140751 1.10016 0.0038348 1.00551 0.0223833 0.910839 0.0319777 0.816173 0.0319777 0.589114 0.0319777 0.412577-0.0255869 0.28657-0.140719 0.161211-0.255845 0.0985227-0.417351 0.0985227-0.625547 0.0985227-0.830222 0.160245-0.990761 0.284008-1.10781 0.407452-1.2255 0.577267-1.28434 0.793143-1.28434 0.990139-1.28434 1.1478-1.22453 1.26645-1.10525 1.38478-0.986602 1.44427-0.828298 1.44427-0.630656ZM1.03237-0.763694C1.03237-0.839489 1.00998-0.900573 0.965848-0.946625 0.921392-0.993315 0.86351-1.01698 0.791874-1.01698 0.714161-1.01698 0.651155-0.995239 0.602549-0.951742 0.553942-0.908244 0.523557-0.845564 0.511722-0.763694Z" fill="#02559E" fill-rule="nonzero" fill-opacity="1" transform="matrix(1.02638 0 0 1 763.146 450.73)"/><path d="M1.20505-1.21397 1.20505-0.887768C1.15132-0.925183 1.09664-0.953011 1.04131-0.970916 0.986618-0.988821 0.930013-0.997777 0.871173-0.997777 0.75924-0.997777 0.671934-0.964841 0.608935-0.899279 0.546572-0.834356 0.515553-0.74322 0.515553-0.625523 0.515553-0.508473 0.546575-0.417327 0.608935-0.351765 0.671936-0.286845 0.75924-0.254544 0.871173-0.254544 0.933214-0.254544 0.992701-0.263499 1.04899-0.281408 1.10527-0.299956 1.15708-0.32778 1.20505-0.364555L1.20505-0.0370741C1.14269-0.0140481 1.07904 0.00290148 1.01445 0.0140948 0.950481 0.0259275 0.885566 0.0320039 0.820004 0.0320039 0.593903 0.0320039 0.417047-0.0258808 0.289125-0.14197 0.161841-0.257743 0.0985227-0.418921 0.0985227-0.625512 0.0985227-0.832743 0.161844-0.994249 0.289125-1.11034 0.417047-1.22611 0.593903-1.28432 0.820004-1.28432 0.885566-1.28432 0.950489-1.27824 1.01445-1.2664 1.0784-1.25521 1.14173-1.23762 1.20505-1.21396Z" fill="#02559E" fill-rule="nonzero" fill-opacity="1" transform="matrix(1.02638 0 0 1 764.742 450.73)"/><path d="M0.630655-1.60924 0.630655-1.25361 1.04385-1.25361 1.04385-0.967068 0.630655-0.967068 0.630655-0.434911C0.630655-0.376706 0.642167-0.33769 0.665194-0.317223 0.688221-0.296755 0.733633-0.286521 0.802073-0.286521L1.00803-0.286521 1.00803 2.45611e-05 0.665194 2.45611e-05C0.506571 2.45611e-05 0.393999-0.0325958 0.327479-0.0984735 0.261599-0.164993 0.228981-0.276926 0.228981-0.434911L0.228981-0.967068 0.0306997-0.967068 0.0306997-1.25361 0.228981-1.25361 0.228981-1.60924Z" fill="#02559E" fill-rule="nonzero" fill-opacity="1" transform="matrix(1.02638 0 0 1 766.137 450.73)"/></g></svg>