<svg width="37" height="40" xmlns="http://www.w3.org/2000/svg" xmlns:xlink="http://www.w3.org/1999/xlink" xml:space="preserve" overflow="hidden"><defs><clipPath id="clip0"><rect x="32" y="204" width="37" height="40"/></clipPath><clipPath id="clip1"><rect x="32" y="204" width="37" height="40"/></clipPath><clipPath id="clip2"><rect x="32" y="205" width="37" height="38"/></clipPath><clipPath id="clip3"><rect x="32" y="205" width="37" height="38"/></clipPath></defs><g clip-path="url(#clip0)" transform="translate(-32 -204)"><g clip-path="url(#clip1)"><g clip-path="url(#clip2)"><g clip-path="url(#clip3)"><g><path d="M34.875 25.4131 29.7272 23.4917 19.8664 27.1532C19.3226 27.3345 18.7064 27.4795 18.1263 27.4795 17.51 27.4795 16.93 27.3707 16.3862 27.1532L6.52547 23.4917 1.3776 25.4131C0.761305 25.6306 0.761305 26.5007 1.3776 26.7544L17.2925 32.6274C17.8363 32.8086 18.4163 32.8086 18.9601 32.6274L34.875 26.7544C35.4913 26.5007 35.4913 25.6306 34.875 25.4131Z" fill="#005AA7" fill-rule="nonzero" fill-opacity="1" transform="matrix(1.02062 0 0 1 32 205)"/><path d="M34.875 17.4738 29.7272 15.5524 19.8664 19.1776C19.3226 19.3952 18.7064 19.5039 18.1263 19.5039 17.51 19.5039 16.93 19.3952 16.3862 19.1776L6.52547 15.5524 1.3776 17.4738C0.761305 17.6913 0.761305 18.5613 1.3776 18.8151L17.2925 24.6518C17.8363 24.8693 18.4163 24.8693 18.9601 24.6518L34.875 18.7789C35.4913 18.5613 35.4913 17.6913 34.875 17.4738Z" fill="#005AA7" fill-rule="nonzero" fill-opacity="1" transform="matrix(1.02062 0 0 1 32 205)"/><path d="M1.3776 10.8395 17.2925 16.7125C17.8363 16.8937 18.4163 16.8937 18.9601 16.7125L34.875 10.8395C35.4913 10.622 35.4913 9.7157 34.875 9.49819L18.9601 3.62526C18.4163 3.444 17.8363 3.444 17.2925 3.62526L1.3776 9.49819C0.761305 9.7157 0.761305 10.622 1.3776 10.8395Z" fill="#005AA7" fill-rule="nonzero" fill-opacity="1" transform="matrix(1.02062 0 0 1 32 205)"/><text fill="#005AA7" fill-opacity="1" font-family="Helvetica Neue,Helvetica Neue_MSFontService,sans-serif" font-style="normal" font-variant="normal" font-weight="700" font-stretch="normal" font-size="5" text-anchor="start" direction="ltr" writing-mode="lr-tb" unicode-bidi="normal" text-decoration="none" transform="matrix(0.37 0 0 0.362526 32 247)">Created by Adrien Coquet</text><text fill="#005AA7" fill-opacity="1" font-family="Helvetica Neue,Helvetica Neue_MSFontService,sans-serif" font-style="normal" font-variant="normal" font-weight="700" font-stretch="normal" font-size="5" text-anchor="start" direction="ltr" writing-mode="lr-tb" unicode-bidi="normal" text-decoration="none" transform="matrix(0.37 0 0 0.362526 32 249)">from the Noun Project</text></g></g></g></g></g></svg>