<?xml version="1.0" encoding="utf-8"?>
<!-- Generator: Adobe Illustrator 25.0.0, SVG Export Plug-In . SVG Version: 6.00 Build 0)  -->
<svg version="1.1" id="Layer_1" xmlns="http://www.w3.org/2000/svg" xmlns:xlink="http://www.w3.org/1999/xlink" x="0px" y="0px"
	 viewBox="0 0 800 600" style="enable-background:new 0 0 800 600;" xml:space="preserve">
<style type="text/css">
	.st0{fill-rule:evenodd;clip-rule:evenodd;fill:#53A7B6;}
	.st1{fill-rule:evenodd;clip-rule:evenodd;fill:#63B6C5;}
	.st2{fill-rule:evenodd;clip-rule:evenodd;fill:#348C9B;}
	.st3{fill-rule:evenodd;clip-rule:evenodd;fill:#6FC1D0;}
	.st4{fill-rule:evenodd;clip-rule:evenodd;fill:#81D4E3;}
	.st5{clip-path:url(#SVGID_2_);}
	.st6{fill-rule:evenodd;clip-rule:evenodd;fill:#FFFFFF;}
	.st7{fill-rule:evenodd;clip-rule:evenodd;fill:#72C4D3;}
	.st8{clip-path:url(#SVGID_4_);}
	.st9{fill-rule:evenodd;clip-rule:evenodd;fill:#FFFDE4;}
	.st10{fill-rule:evenodd;clip-rule:evenodd;fill:#03306B;}
	.st11{fill-rule:evenodd;clip-rule:evenodd;fill:#A7BCE1;}
	.st12{fill-rule:evenodd;clip-rule:evenodd;fill:#305495;}
	.st13{fill-rule:evenodd;clip-rule:evenodd;fill:#06316D;}
	.st14{fill-rule:evenodd;clip-rule:evenodd;fill:#F1F2F2;}
	.st15{clip-path:url(#SVGID_6_);}
	.st16{fill-rule:evenodd;clip-rule:evenodd;fill:#D0D1D1;}
	.st17{fill-rule:evenodd;clip-rule:evenodd;fill:#F0F1F1;}
	.st18{clip-path:url(#SVGID_8_);}
	.st19{fill-rule:evenodd;clip-rule:evenodd;fill:#475D7D;}
	.st20{clip-path:url(#SVGID_10_);}
	.st21{fill-rule:evenodd;clip-rule:evenodd;fill:#F0F2F2;}
	.st22{clip-path:url(#SVGID_12_);}
	.st23{fill-rule:evenodd;clip-rule:evenodd;fill:#FFCCC8;}
	.st24{clip-path:url(#SVGID_14_);}
	.st25{fill-rule:evenodd;clip-rule:evenodd;fill-opacity:0.25;}
	.st26{fill-rule:evenodd;clip-rule:evenodd;fill:#234E8F;}
	.st27{clip-path:url(#SVGID_16_);}
	.st28{clip-path:url(#SVGID_18_);}
	.st29{clip-path:url(#SVGID_20_);}
	.st30{clip-path:url(#SVGID_22_);}
	.st31{fill-rule:evenodd;clip-rule:evenodd;fill:#F0F1F2;}
	.st32{fill:#3C5D99;}
	.st33{fill:#FFFDE4;}
	.st34{fill:#96D2F3;}
	.st35{fill:#FFFFFF;}
	.st36{fill:#305495;}
	.st37{fill:#011A52;}
	.st38{fill:#93C5E5;}
	.st39{clip-path:url(#SVGID_24_);}
	.st40{fill:none;}
	.st41{clip-path:url(#SVGID_26_);}
	.st42{clip-path:url(#SVGID_28_);}
	.st43{fill-rule:evenodd;clip-rule:evenodd;fill:#010001;fill-opacity:0.25;}
	.st44{fill-rule:evenodd;clip-rule:evenodd;}
	.st45{fill:#EDF0E0;}
	.st46{fill:#C586C2;}
	.st47{fill:#A7BCE1;}
	.st48{clip-path:url(#SVGID_30_);}
	.st49{clip-path:url(#SVGID_32_);}
	.st50{fill-rule:evenodd;clip-rule:evenodd;fill:#8095B8;}
	.st51{fill-rule:evenodd;clip-rule:evenodd;fill:#03235C;}
	.st52{clip-path:url(#SVGID_34_);}
	.st53{clip-path:url(#SVGID_36_);}
	.st54{clip-path:url(#SVGID_38_);}
	.st55{clip-path:url(#SVGID_40_);}
	.st56{fill-rule:evenodd;clip-rule:evenodd;fill:#4D6EB2;}
	.st57{clip-path:url(#SVGID_42_);}
	.st58{fill-rule:evenodd;clip-rule:evenodd;fill:#6A89D0;}
	.st59{clip-path:url(#SVGID_44_);}
	.st60{clip-path:url(#SVGID_46_);}
</style>
<g>
	<g>
		<g>
			<path class="st0" d="M709.9,406.7c-1.9-1.6-1.8-6.5,0.2-11.7c2.3-5.6,6.2-9.4,8.8-8.3c2.5,1,2.7,6.5,0.4,12.1
				c-2,4.8-5.2,8.2-7.6,8.5c-1.5,2.7-3,5.2-4.8,7.7c2-0.5,4.9-0.2,7.9,0.8c5.1,1.7,8.5,4.9,7.8,7.2c-0.8,2.2-5.5,2.7-10.5,1
				c-4-1.3-7-3.6-7.8-5.7c-3.8,4.6-8.1,8.8-12.7,12.7c2.6-0.2,6.6,1.8,10.2,5.5c4.5,4.7,6.4,10.1,4.3,12.1c-2.1,2-7.5-0.2-11.9-4.8
				c-3.8-3.9-5.7-8.3-5-10.8c-7.4,5.8-15.5,11-23.5,16.2c-1.2,0.7-2.2,1.5-3.4,2.2c2.5-0.5,6.1-0.1,9.8,1.4c6,2.3,10.1,6.5,9,9.2
				c-1.1,2.7-6.8,3-12.8,0.6c-6-2.3-10.1-6.5-9-9.2v-0.1c-6.5,4.2-12.7,8.7-18.5,13.5c2.1-0.1,4.2,0.2,6.1,0.8
				c5.2,1.7,8.7,5.1,7.8,7.7c-0.8,2.5-5.7,3.3-10.8,1.6c-4.1-1.3-7.2-3.7-7.8-5.9c-5.4,5-10.1,10.8-14,17c1.9-0.8,4.9-0.9,8.1-0.3
				c5.2,1,9.1,3.8,8.6,6.1c-0.5,2.3-5.1,3.4-10.2,2.4c-4.2-0.8-7.6-2.8-8.5-4.8c-2.1,3.7-3.8,7.6-5.2,11.6c-0.2,0.5-0.7,0.7-1.2,0.5
				c-0.5-0.2-0.7-0.7-0.5-1.2c1.4-3.9,3.2-7.8,5.2-11.5c-2-0.7-4.3-3.7-5.7-7.6c-1.8-5-1.3-9.7,0.9-10.5c2.2-0.8,5.5,2.6,7.2,7.7
				c0.5,1.5,0.8,3.1,1,4.6c3.9-5.8,8.5-11.2,13.6-15.9c-2.2-0.8-4.2-4.5-4.6-9.2c-0.5-5.4,1.2-10,3.8-10.3c2.7-0.2,5.3,3.9,5.8,9.3
				c0.2,2,0.1,4-0.4,6c5.4-4.4,10.9-8.5,16.8-12.3c-2.3-1.2-4.5-5.3-5.4-10.5c-1-6.4,0.5-11.9,3.3-12.4c2.8-0.5,6,4.3,7.1,10.7
				c0.5,3.5,0.4,6.8-0.4,9.2c1.1-0.7,2.2-1.5,3.4-2.2c8.2-5.3,16.4-10.5,23.8-16.4c-2.2-0.8-4.5-4.3-5.8-8.8
				c-1.5-5.6-0.8-10.7,1.7-11.4c2.5-0.7,5.8,3.3,7.3,8.9c0.8,2.6,1,5.4,0.5,8.1c4-3.5,7.7-7.3,11.1-11.4c-1.8-0.2-4.1-2.5-5.4-6
				c-1.5-4-1.2-7.8,0.7-8.5s4.8,1.9,6.2,5.8c0.7,1.7,1,3.5,0.9,5.3C707.3,411,708.6,408.9,709.9,406.7z"/>
			<path class="st1" d="M671.4,384.4c-2-0.8-3.2-4.9-2.8-9.8c0.5-5.3,2.7-9.5,5.1-9.2c2.3,0.2,3.9,4.6,3.5,9.9
				c-0.4,4.5-2.1,8.2-4.1,9.1c-0.5,2.6-1.2,5.2-1.9,7.6c1.5-0.9,4-1.5,6.8-1.5c4.6,0.1,8.3,1.8,8.3,3.9c0,2.1-3.8,3.7-8.5,3.6
				c-3.6-0.1-6.8-1.2-7.8-2.7c-1.9,4.8-4.3,9.5-7.2,13.8c2.1-0.9,6-0.2,9.8,1.9c4.9,2.7,7.9,6.7,6.7,8.9c-1.2,2.2-6.2,1.8-11.1-0.8
				c-4.1-2.2-6.8-5.4-7-7.7c-4.5,6.8-9.8,13.2-15.2,19.7c-0.8,0.9-1.5,1.8-2.2,2.7c1.9-1.1,5-1.7,8.5-1.5c5.6,0.4,10,2.7,9.8,5.2
				c-0.2,2.5-4.8,4.3-10.4,3.9c-5.6-0.4-10-2.7-9.8-5.2v-0.1c-4.2,5.2-8.2,10.5-11.8,16.2c1.7-0.6,3.5-0.9,5.2-0.9
				c4.7,0,8.5,1.9,8.5,4.3s-3.8,4.2-8.5,4.2c-3.7,0-6.8-1.2-8-2.8c-3.2,5.6-5.5,11.6-7.2,17.8c1.4-1.2,3.8-2.1,6.6-2.4
				c4.5-0.5,8.5,0.7,8.7,2.8c0.2,2.1-3.3,4.2-7.8,4.7c-3.7,0.5-7-0.3-8.2-1.7c-0.7,3.6-1.2,7.3-1.3,11.1c0,0.5-0.4,0.8-0.8,0.8
				c-0.5,0-0.8-0.4-0.8-0.8c0.2-3.7,0.5-7.3,1.2-10.9c-1.8-0.1-4.5-1.9-6.7-4.8c-2.8-3.7-3.6-7.7-2-9c1.6-1.2,5.2,0.8,8,4.5
				c0.8,1.1,1.5,2.3,2.1,3.5c1.7-5.8,4.1-11.5,7.1-16.8c-2.1-0.2-4.6-2.7-6.2-6.4c-1.8-4.4-1.6-8.6,0.5-9.6c2.2-0.9,5.4,1.8,7.2,6.2
				c0.7,1.6,1.2,3.3,1.2,5.1c3.2-5.1,6.8-10,10.6-14.7c-2.2-0.3-5.2-3.2-7.2-7.2c-2.5-5-2.8-10.1-0.5-11.2c2.2-1.2,6.1,2,8.6,7.1
				c1.2,2.4,2,5,2.1,7.7c0.7-0.9,1.5-1.8,2.2-2.7c5.4-6.5,10.8-13.1,15.3-19.9c-2-0.2-4.8-2.4-7-5.8c-2.7-4.2-3.4-8.7-1.5-9.9
				c1.8-1.2,5.6,1.2,8.3,5.5c1.3,2,2.2,4.2,2.5,6.5c2.4-3.9,4.5-8.1,6.2-12.5c-1.5,0.4-4-1.1-6-3.5c-2.3-2.9-3-6.2-1.6-7.3
				c1.4-1.2,4.4,0.3,6.7,3.2c1,1.2,1.8,2.6,2.2,4.2C670.4,388.8,670.9,386.7,671.4,384.4z"/>
			<path class="st2" d="M723.3,460.8c-1-2.3,1.3-6.7,5.5-10.3c4.6-3.9,9.8-5.5,11.5-3.4c1.8,2.1-0.5,6.9-5.2,10.9
				c-4,3.4-8.3,5-10.6,4.1c-2.5,1.7-5.1,3.2-7.8,4.6c2,0.5,4.5,2.1,6.7,4.3c3.7,3.8,5.4,8.3,3.7,9.9c-1.7,1.7-6.2-0.1-9.8-3.9
				c-2.9-3-4.6-6.5-4.3-8.5c-5.5,2.4-11.2,4.2-17.1,5.5c2.4,0.9,5.1,4.7,6.5,9.6c1.8,6.2,1.1,11.9-1.7,12.7
				c-2.8,0.8-6.5-3.5-8.4-9.7c-1.5-5.2-1.3-10,0.5-11.9c-9.2,1.8-18.8,2.8-28.4,3.7c-1.3,0.2-2.7,0.2-4,0.4c2.5,0.7,5.5,2.7,8.2,5.7
				c4.3,4.8,6,10.3,3.8,12.2c-2.2,1.9-7.4-0.5-11.7-5.2c-4.3-4.8-6-10.3-3.8-12.2l0.1-0.1c-7.6,0.8-15.2,1.9-22.7,3.6
				c1.8,0.8,3.5,2.1,5,3.5c3.8,3.8,5.5,8.5,3.5,10.4c-1.9,1.9-6.5,0.3-10.4-3.5c-3-3-4.6-6.5-4.3-8.8c-7.1,2-13.8,4.9-20.2,8.7
				c2.1,0.2,4.8,1.4,7.4,3.5c4.2,3.3,6.4,7.5,4.8,9.3c-1.5,1.8-6.1,0.7-10.2-2.5c-3.4-2.7-5.5-5.9-5.3-8.1c-3.5,2.4-6.8,5.1-9.9,8
				c-0.4,0.3-0.9,0.3-1.3,0c-0.3-0.4-0.3-0.9,0-1.3c3.1-2.9,6.3-5.5,9.8-7.9c-1.5-1.5-2.2-5.2-1.5-9.4c0.7-5.2,3.2-9.2,5.6-8.9
				c2.4,0.3,3.7,4.8,2.9,10.2c-0.2,1.5-0.6,3.1-1.2,4.6c6.2-3.4,12.6-6.1,19.4-7.9c-1.6-1.8-1.6-5.9,0-10.2c2-5.1,5.6-8.4,8.2-7.4
				c2.5,1,2.9,5.9,1,10.9c-0.7,1.8-1.8,3.6-3.1,5.2c6.8-1.5,13.6-2.6,20.5-3.3c-1.5-2.1-1.7-6.8-0.1-11.8c2-6.2,5.8-10.4,8.6-9.5
				c2.8,0.8,3.4,6.6,1.4,12.8c-1.1,3.4-2.8,6.2-4.5,7.9c1.3-0.2,2.6-0.2,4-0.4c9.7-1,19.3-1.8,28.6-3.8c-1.5-1.7-2.1-5.8-1.1-10.5
				c1.2-5.7,4.2-9.8,6.7-9.3s3.6,5.5,2.5,11.2c-0.5,2.7-1.6,5.2-3.2,7.5c5.2-1.2,10.2-2.9,15.1-5.2c-1.5-1-2.5-4.2-2.1-7.8
				c0.5-4.2,2.5-7.5,4.5-7.3c2.1,0.2,3.4,3.8,2.9,8.1c-0.2,1.8-0.7,3.5-1.5,5.2C718.9,463.6,721.1,462.2,723.3,460.8z"/>
			<path class="st3" d="M726.2,524.1c19.9-12.5,14.3-43.6-7-33.5c-13.8,6.5-17.9-25.4-25-13c-1.8-8.4-8.7-17.9-14.5-22.3
				c-5.2-4-10.4-0.2-11.3,6.9c-0.3,2.7-0.4,5.4-0.3,8.2c-2.6-6.7-9.7-12.2-15-14.9c-2.8-1.5-6.9-1.2-7.9,3c-0.8,3.2,0.2,6.8,1.1,9.8
				c2.2,7.3,6.5,13,9.8,19.5c-1.5-3.9-5.3-7.2-8-9.8c-7.2-7.2-15.1-14.8-24.1-18c-1.6-0.7-3.4-1.1-5.2-1.2c-1.1-0.1-2.2,0-3.3,0.3
				c-7.7,2.2-3.1,13.7-0.2,18.5c2.3,4,5.2,7.4,7.7,11.1c-7-7-18.8-12.1-27.7-11.5c-4.5,0.3-11.8,3.7-9.5,10.9
				c1.9,5.8,7,9.5,11.2,12.3c6.8,4.5,14.2,8.2,20.5,13.9c-11.3-3.6-23.8-5.6-35.3-2.2c-5.8,1.8-10.8,4-10.4,12.3L726.2,524.1z"/>
			<path class="st4" d="M584.5,524.2c-3.5-1.4-6.2-7.9-7.5-10.5c-1-1.8-1.9-3.5-2.8-5.4c-3.6-7.6-4.6-22.2,8.7-24.9
				c12.4-2.5,23,9.2,29,15.8c1.5-4.5,7.5-9.6,12.4-11.9c4.5-2.2,8.8-0.1,9.7,3.7c0.2,1.5,0.4,2.9,0.3,4.4c2.2-3.6,8.3-6.5,12.8-8
				c2.4-0.8,5.9-0.7,6.8,1.6c0.7,1.7-0.2,3.6-0.9,5.2c-1.8,3.9-5.5,6.9-8.5,10.4c1.3-2.1,4.5-3.8,6.8-5.2c6.2-3.8,12.9-7.9,20.6-9.6
				c1.5-0.4,2.9-0.6,4.4-0.7c0.9-0.1,1.9,0,2.8,0.2c6.6,1.2,2.6,7.3,0.2,9.9c-2,2.2-4.5,3.9-6.6,5.9c5.9-3.8,16.1-6.5,23.7-6.2
				c3.8,0.2,10.2,2,8.1,5.8c-1.6,3.1-6,5.1-9.6,6.6c-5.8,2.4-12.2,4.4-17.5,7.5c9.7-1.9,20.3-3,30.2-1.2c5,0.9,9.2,2.2,8.9,6.6
				L584.5,524.2z"/>
			<g>
				<path class="st4" d="M114.9,525c2.5-4.2,3.2-10.2,4.1-14.8c2.2-11.4,2.7-22.9,0.1-34.2c-1.2-4.9-2.8-10.5-6.1-14.5
					c-2.9-3.5-6.9-2.8-9.6,0.5c-3.5,4.3-6.3,10.5-13.1,7.8c-1.1-0.5-2.1-1.1-2.9-1.8c-5.9-4.8-8-13.2-8.6-20.5
					c-0.5-5.2,0.1-11.1-3.8-15.1c-3.8-3.9-8.6,1.2-11.1,4c-0.8,0.9-3.2,3-4,0.9c-3.8-9.8,8.1-22.5-1-30.9c-8.2-7.7-22-3.5-23.5,7.9
					c-1.7,12.3,8.8,21,10.8,32.4c0.8,4.3-1,8.5-1.9,12.5c-1.2,5.1-1.2,9.8,0.8,14.8c3.2,7.7,10.8,11.3,18.1,14.2
					c5.1,1.9,11.3,4.5,14.2,9.5c1.8,3.3,1.7,7.2,1.1,10.8c-0.5,2.8-1.3,5.9,0.9,8.3c3.5,3.8,10.2,2.2,14.7,2
					c7.2-0.3,13.5,0.8,18.9,5.8L114.9,525z"/>
				<g>
					<g>
						<g>
							<defs>
								<path id="SVGID_1_" d="M114.9,525c2.5-4.2,3.2-10.2,4.1-14.8c2.2-11.4,2.7-22.9,0.1-34.2c-1.2-4.9-2.8-10.5-6.1-14.5
									c-2.9-3.5-6.9-2.8-9.6,0.5c-3.5,4.3-6.3,10.5-13.1,7.8c-1.1-0.5-2.1-1.1-2.9-1.8c-5.9-4.8-8-13.2-8.6-20.5
									c-0.5-5.2,0.1-11.1-3.8-15.1c-3.8-3.9-8.6,1.2-11.1,4c-0.8,0.9-3.2,3-4,0.9c-3.8-9.8,8.1-22.5-1-30.9
									c-8.2-7.7-22-3.5-23.5,7.9c-1.7,12.3,8.8,21,10.8,32.4c0.8,4.3-1,8.5-1.9,12.5c-1.2,5.1-1.2,9.8,0.8,14.8
									c3.2,7.7,10.8,11.3,18.1,14.2c5.1,1.9,11.3,4.5,14.2,9.5c1.8,3.3,1.7,7.2,1.1,10.8c-0.5,2.8-1.3,5.9,0.9,8.3
									c3.5,3.8,10.2,2.2,14.7,2c7.2-0.3,13.5,0.8,18.9,5.8L114.9,525z"/>
							</defs>
							<clipPath id="SVGID_2_">
								<use xlink:href="#SVGID_1_"  style="overflow:visible;"/>
							</clipPath>
							<g class="st5">
								<path class="st6" d="M48.8,418.7c-1.4,6.2,0.8,13.2,2.6,19c2,6.2,4.5,12.2,8.2,17.7c8.5,12.5,21,21.4,31.2,32.4
									c11,11.8,18.2,25.8,24.5,40.5c0.2,0.4,0.5,0.5,0.9,0.4c0.4-0.2,0.5-0.5,0.4-0.9c-6.4-14.8-13.7-28.9-24.8-40.9
									c-10.1-10.9-22.5-19.9-31-32.2c-3.6-5.3-6.1-11.2-8-17.3c-1.8-5.6-3.8-12.3-2.5-18.2c0.1-0.4-0.2-0.8-0.5-0.8
									C49.2,418.2,48.9,418.4,48.8,418.7z"/>
							</g>
						</g>
					</g>
				</g>
			</g>
			<path class="st0" d="M75.6,358.9c-2.8,1-7.8-1.9-11.8-7.1c-4.4-5.6-5.8-11.8-3.4-13.8c2.5-1.9,8.1,1,12.5,6.7
				c3.8,4.8,5.4,10,4.2,12.7c1.8,3,3.5,6.1,5,9.3c0.7-2.3,2.7-5.1,5.5-7.6c4.7-4.2,10-5.8,11.8-3.8c1.8,2.1-0.5,7.2-5.1,11.3
				c-3.7,3.3-7.8,5-10.2,4.5c2.5,6.5,4.3,13.3,5.5,20.2c1.2-2.8,5.8-5.7,11.5-7.1c7.4-1.8,14-0.6,14.8,2.7c0.8,3.3-4.5,7.5-11.8,9.3
				c-6.2,1.5-11.8,0.9-13.9-1.2c1.6,10.8,2.2,22.1,2.8,33.4c0.1,1.5,0.2,3.2,0.2,4.8c0.9-2.8,3.5-6.2,7.2-9.2
				c5.9-4.8,12.4-6.5,14.5-3.8c2.2,2.6-0.9,8.6-6.8,13.4c-5.9,4.8-12.4,6.5-14.5,3.8l-0.1-0.1c0.5,9,1.5,17.9,2.9,26.8
				c1.2-2.2,2.6-4.1,4.5-5.7c4.7-4.3,10.2-5.8,12.4-3.5c2.2,2.3,0,7.7-4.7,12c-3.7,3.4-7.9,5.1-10.6,4.5c2,8.4,5,16.5,9.1,24.2
				c0.4-2.4,1.9-5.5,4.5-8.4c4.1-4.7,9.1-7,11.2-5.2c2.2,1.8,0.5,7.2-3.6,11.8c-3.3,3.8-7.3,6.1-9.8,5.8c2.6,4.2,5.5,8.3,8.8,12.1
				c0.4,0.5,0.4,1.1-0.1,1.5c-0.5,0.4-1.1,0.4-1.5-0.1c-3.2-3.8-6.2-7.7-8.7-11.9c-1.9,1.6-6.2,2.2-11,1.3
				c-6.2-1.2-10.7-4.3-10.2-7.1c0.5-2.8,5.9-4,12-2.9c1.8,0.3,3.6,0.8,5.3,1.6c-3.6-7.4-6.4-15.2-8.2-23.2c-2.2,1.8-7.1,1.6-12-0.6
				c-5.8-2.6-9.5-7.1-8.2-9.9c1.3-2.8,7.1-3.2,12.8-0.5c2.2,0.9,4.2,2.2,5.8,3.8c-1.4-8-2.2-16.1-2.8-24.2c-2.5,1.7-8,1.5-13.8-0.6
				c-7.1-2.7-11.8-7.4-10.7-10.6c1.2-3.2,7.9-3.6,15-0.9c3.9,1.5,7.2,3.6,9.1,5.8c-0.1-1.5-0.2-3.2-0.2-4.7
				c-0.6-11.4-1.1-22.8-2.8-33.8c-2.1,1.7-7,2.1-12.2,0.7c-6.6-1.7-11.3-5.5-10.5-8.4c0.8-2.9,6.7-3.9,13.3-2.2
				c3.6,0.9,6.6,2.5,8.5,4.2c-1.2-6.1-2.9-12.1-5.2-17.9c-1.2,1.8-5,2.7-9.2,2c-4.9-0.8-8.6-3.3-8.3-5.7c0.4-2.4,4.7-3.7,9.6-2.9
				c2.1,0.3,4.2,1,5.9,2.2C78.6,364,77.1,361.4,75.6,358.9z"/>
			<g>
				<path class="st7" d="M123.8,503.8c4.4-2.2,8.1-6.9,11.3-10.4c7.9-8.5,14.5-17.9,18.4-28.9c1.7-4.8,3.2-10.3,2.5-15.5
					c-0.6-4.6-4.4-6-8.5-4.7c-5.2,1.8-11,5.5-15.2-0.3c-0.7-0.9-1.2-2-1.5-3.1c-2.4-7.2,0.2-15.4,3.6-21.9c2.3-4.6,5.9-9.3,4.8-14.8
					c-1.2-5.4-7.9-3.6-11.5-2.5c-1.2,0.4-4.3,0.8-3.8-1.4c2.1-10.4,18.8-14.6,15.6-26.6c-2.8-10.9-16.8-14.7-24.2-5.8
					c-8,9.5-3.8,22.5-8.2,33.1c-1.6,4-5.4,6.5-8.3,9.5c-3.7,3.7-6.2,7.7-7.2,12.9c-1.5,8.2,3.1,15.3,7.8,21.6
					c3.2,4.4,7.2,9.8,6.8,15.5c-0.2,3.8-2.5,7.1-4.8,9.8c-1.9,2.2-4.3,4.3-3.7,7.5c1,5.1,7.4,7.3,11.3,9.5c6.3,3.6,10.9,7.8,12.8,15
					L123.8,503.8z"/>
				<g>
					<g>
						<g>
							<defs>
								<path id="SVGID_3_" d="M123.8,503.8c4.4-2.2,8.1-6.9,11.3-10.4c7.9-8.5,14.5-17.9,18.4-28.9c1.7-4.8,3.2-10.3,2.5-15.5
									c-0.6-4.6-4.4-6-8.5-4.7c-5.2,1.8-11,5.5-15.2-0.3c-0.7-0.9-1.2-2-1.5-3.1c-2.4-7.2,0.2-15.4,3.6-21.9
									c2.3-4.6,5.9-9.3,4.8-14.8c-1.2-5.4-7.9-3.6-11.5-2.5c-1.2,0.4-4.3,0.8-3.8-1.4c2.1-10.4,18.8-14.6,15.6-26.6
									c-2.8-10.9-16.8-14.7-24.2-5.8c-8,9.5-3.8,22.5-8.2,33.1c-1.6,4-5.4,6.5-8.3,9.5c-3.7,3.7-6.2,7.7-7.2,12.9
									c-1.5,8.2,3.1,15.3,7.8,21.6c3.2,4.4,7.2,9.8,6.8,15.5c-0.2,3.8-2.5,7.1-4.8,9.8c-1.9,2.2-4.3,4.3-3.7,7.5
									c1,5.1,7.4,7.3,11.3,9.5c6.3,3.6,10.9,7.8,12.8,15L123.8,503.8z"/>
							</defs>
							<clipPath id="SVGID_4_">
								<use xlink:href="#SVGID_3_"  style="overflow:visible;"/>
							</clipPath>
							<g class="st8">
								<path class="st6" d="M124.6,378.7c-4.5,4.5-6.4,11.5-7.9,17.5c-1.7,6.3-2.8,12.8-2.5,19.3c0.5,15.1,6.3,29.3,9,44
									c2.9,15.8,1.6,31.5-0.9,47.3c-0.1,0.4,0.2,0.7,0.5,0.8c0.4,0.1,0.7-0.2,0.8-0.5c2.5-15.9,3.9-31.8,0.9-47.8
									c-2.7-14.6-8.5-28.9-9-43.8c-0.2-6.5,0.8-12.7,2.5-18.9c1.5-5.7,3.3-12.5,7.6-16.8c0.2-0.3,0.2-0.7-0.1-1
									C125.3,378.4,124.9,378.4,124.6,378.7z"/>
							</g>
						</g>
					</g>
				</g>
			</g>
			<rect x="35" y="521.9" class="st9" width="730.1" height="3.9"/>
		</g>
		<g>
			<path class="st10" d="M379.8,315.9H235.4l-33.5,210.4h177.9V315.9z"/>
			<g>
				<rect x="102.3" y="495.5" class="st11" width="117.6" height="29.7"/>
				<rect x="122.2" y="465.7" class="st11" width="117.6" height="29.7"/>
				<rect x="142.1" y="436" class="st11" width="117.6" height="29.7"/>
				<rect x="162.1" y="406.3" class="st11" width="117.6" height="29.7"/>
				<rect x="182" y="376.5" class="st11" width="117.6" height="29.7"/>
				<rect x="201.8" y="346.7" class="st11" width="117.6" height="29.7"/>
				<rect x="221.8" y="316.9" class="st11" width="117.6" height="29.7"/>
				<g>
					<g>
						<path class="st12" d="M514.4,473.7H329.5c-14.5,0-26.3,11.8-26.4,26.3v0.1c0,14.5,11.8,26.4,26.4,26.4h184.9V473.7z"/>
						<path class="st13" d="M588,473.7H461.4c-14.5,0-26.4,11.8-26.4,26.3v0.1c0,14.5,11.8,26.4,26.4,26.4H588V473.7z"/>
						<g>
							<path class="st14" d="M588,484.9H459.7c-8.4,0-15.2,6.8-15.2,15.2c0,8.4,6.8,15.2,15.2,15.2H588V484.9z"/>
							<g>
								<g>
									<g>
										<defs>
											<path id="SVGID_5_" d="M588,484.9H459.7c-8.4,0-15.2,6.8-15.2,15.2c0,8.4,6.8,15.2,15.2,15.2H588V484.9z"/>
										</defs>
										<clipPath id="SVGID_6_">
											<use xlink:href="#SVGID_5_"  style="overflow:visible;"/>
										</clipPath>
										<g class="st15">
											<g>
												<path class="st16" d="M588,491.3H444.4c-1.5,0-2.8,1.2-2.8,2.8c0,1.5,1.2,2.8,2.8,2.8H588V491.3z"/>
												<path class="st16" d="M588,502.8H444.4c-1.5,0-2.8,1.2-2.8,2.8c0,1.5,1.2,2.8,2.8,2.8H588V502.8z"/>
											</g>
										</g>
									</g>
								</g>
							</g>
						</g>
					</g>
					<g>
						<path class="st12" d="M451.5,368.5h184.8c14.5,0,26.3,11.8,26.4,26.3v0.1c0,14.5-11.8,26.4-26.3,26.4H451.5V368.5z"/>
						<path class="st17" d="M633.9,394.1c0-4.5-3.7-8.2-8.2-8.2h-39.5c-4.5,0-8.2,3.7-8.2,8.2v0.8c0,4.5,3.7,8.2,8.2,8.2h39.5
							c4.5,0,8.2-3.7,8.2-8.2V394.1z"/>
						<path class="st13" d="M377.9,368.5h126.6c14.5,0,26.4,11.8,26.4,26.3v0.1c0,14.5-11.8,26.4-26.4,26.4H377.9V368.5z"/>
						<g>
							<path class="st14" d="M377.9,379.7h128.3c8.4,0,15.2,6.8,15.2,15.2s-6.8,15.2-15.2,15.2H377.9V379.7z"/>
							<g>
								<g>
									<g>
										<defs>
											<path id="SVGID_7_" d="M377.9,379.7h128.3c8.4,0,15.2,6.8,15.2,15.2s-6.8,15.2-15.2,15.2H377.9V379.7z"/>
										</defs>
										<clipPath id="SVGID_8_">
											<use xlink:href="#SVGID_7_"  style="overflow:visible;"/>
										</clipPath>
										<g class="st18">
											<g>
												<path class="st16" d="M377.9,386h143.6c1.5,0,2.8,1.2,2.8,2.8c0,1.5-1.2,2.8-2.8,2.8H377.9V386z"/>
												<path class="st16" d="M377.9,397.6h143.6c1.5,0,2.8,1.2,2.8,2.8c0,1.5-1.2,2.8-2.8,2.8H377.9V397.6z"/>
											</g>
										</g>
									</g>
								</g>
							</g>
						</g>
					</g>
					<g>
						<path class="st11" d="M541.9,420.9H357c-14.5,0-26.3,11.8-26.4,26.3v0.1c0,14.5,11.8,26.4,26.4,26.4h184.8L541.9,420.9
							L541.9,420.9z"/>
						<path class="st19" d="M615.5,420.9H488.9c-14.5,0-26.4,11.8-26.4,26.3v0.1c0,14.5,11.8,26.4,26.4,26.4h126.6V420.9z"/>
						<g>
							<path class="st14" d="M615.5,432H487.3c-8.4,0-15.2,6.8-15.2,15.2c0,8.4,6.8,15.2,15.2,15.2h128.3V432z"/>
							<g>
								<g>
									<g>
										<defs>
											<path id="SVGID_9_" d="M615.5,432H487.3c-8.4,0-15.2,6.8-15.2,15.2c0,8.4,6.8,15.2,15.2,15.2h128.3V432z"/>
										</defs>
										<clipPath id="SVGID_10_">
											<use xlink:href="#SVGID_9_"  style="overflow:visible;"/>
										</clipPath>
										<g class="st20">
											<g>
												<path class="st16" d="M615.5,438.5H471.9c-1.5,0-2.8,1.2-2.8,2.8c0,1.5,1.2,2.8,2.8,2.8h143.6V438.5z"/>
												<path class="st16" d="M615.5,450H471.9c-1.5,0-2.8,1.2-2.8,2.8c0,1.5,1.2,2.8,2.8,2.8h143.6V450z"/>
											</g>
										</g>
									</g>
								</g>
							</g>
						</g>
						<path class="st11" d="M507.8,440.9c0-1.3-1-2.3-2.3-2.3h-13.1c-1.3,0-2.3,1-2.3,2.3v31.3c0,0.2,0.1,0.4,0.3,0.5
							c0.2,0.1,0.4,0.1,0.5-0.1c1.8-1.7,6.2-5.8,7.4-6.9c0.2-0.2,0.5-0.2,0.6,0c1.3,1.2,6.2,5.3,8.1,7c0.2,0.2,0.3,0.2,0.5,0.1
							c0.2-0.1,0.3-0.2,0.3-0.5V440.9z"/>
					</g>
					<g>
						<path class="st10" d="M427.4,315.6h184.8c14.5,0,26.3,11.8,26.4,26.3v0.1c0,14.5-11.8,26.4-26.3,26.4H427.4V315.6z"/>
						<path class="st21" d="M566.8,315.6h25.2c14.5,0,26.3,11.8,26.4,26.3v0.1c0,14.5-11.8,26.3-26.3,26.4h-25.2
							c14.5,0,26.3-11.8,26.4-26.4C593.2,327.4,581.4,315.6,566.8,315.6z"/>
						<path class="st12" d="M353.8,315.6h126.6c14.5,0,26.4,11.8,26.4,26.3v0.1c0,14.5-11.8,26.4-26.4,26.4H353.8V315.6z"/>
						<g>
							<path class="st14" d="M353.8,326.8h128.3c8.4,0,15.2,6.8,15.2,15.2c0,8.4-6.8,15.2-15.2,15.2H353.8V326.8z"/>
							<g>
								<g>
									<g>
										<defs>
											<path id="SVGID_11_" d="M353.8,326.8h128.3c8.4,0,15.2,6.8,15.2,15.2c0,8.4-6.8,15.2-15.2,15.2H353.8V326.8z"/>
										</defs>
										<clipPath id="SVGID_12_">
											<use xlink:href="#SVGID_11_"  style="overflow:visible;"/>
										</clipPath>
										<g class="st22">
											<g>
												<path class="st16" d="M353.8,333.3h143.6c1.5,0,2.8,1.2,2.8,2.8s-1.2,2.8-2.8,2.8H353.8V333.3z"/>
												<path class="st16" d="M353.8,344.7h143.6c1.5,0,2.8,1.2,2.8,2.8c0,1.5-1.2,2.8-2.8,2.8H353.8V344.7z"/>
											</g>
										</g>
									</g>
								</g>
							</g>
						</g>
					</g>
				</g>
			</g>
			<g>
				<path class="st10" d="M221,495.5c0-0.6-0.5-1.1-1.1-1.1H102.3c-0.6,0-1.1,0.5-1.1,1.1v29.7c0,0.6,0.5,1.1,1.1,1.1h117.6
					c0.6,0,1.1-0.5,1.1-1.1V495.5z M218.8,496.6v27.5H103.4v-27.5H218.8z"/>
				<path class="st10" d="M240.9,465.7c0-0.6-0.5-1.1-1.1-1.1H122.2c-0.6,0-1.1,0.5-1.1,1.1v29.7c0,0.6,0.5,1.1,1.1,1.1h117.6
					c0.6,0,1.1-0.5,1.1-1.1V465.7z M238.8,466.8v27.5H123.3v-27.5H238.8z"/>
				<path class="st10" d="M260.9,436c0-0.6-0.5-1.1-1.1-1.1H142.1c-0.6,0-1.1,0.5-1.1,1.1v29.7c0,0.6,0.5,1.1,1.1,1.1h117.6
					c0.6,0,1.1-0.5,1.1-1.1V436z M258.7,437v27.5H143.2V437H258.7z"/>
				<path class="st10" d="M280.8,406.3c0-0.6-0.5-1.1-1.1-1.1H162.1c-0.6,0-1.1,0.5-1.1,1.1v29.6c0,0.6,0.5,1.1,1.1,1.1h117.6
					c0.6,0,1.1-0.5,1.1-1.1V406.3z M278.6,407.4v27.5H163.1v-27.5H278.6z"/>
				<path class="st10" d="M300.6,376.5c0-0.6-0.5-1.1-1.1-1.1H182c-0.6,0-1.1,0.5-1.1,1.1v29.7c0,0.6,0.5,1.1,1.1,1.1h117.6
					c0.6,0,1.1-0.5,1.1-1.1L300.6,376.5z M298.6,377.6v27.5H183.1v-27.5H298.6z"/>
				<path class="st10" d="M320.6,346.7c0-0.6-0.5-1.1-1.1-1.1H201.8c-0.6,0-1.1,0.5-1.1,1.1v29.7c0,0.6,0.5,1.1,1.1,1.1h117.6
					c0.6,0,1.1-0.5,1.1-1.1V346.7z M318.5,347.8v27.5H202.9v-27.5H318.5z"/>
				<path class="st10" d="M340.5,316.9c0-0.6-0.5-1.1-1.1-1.1H221.8c-0.6,0-1.1,0.5-1.1,1.1v29.7c0,0.6,0.5,1.1,1.1,1.1h117.6
					c0.6,0,1.1-0.5,1.1-1.1V316.9z M338.3,318v27.5H222.8V318H338.3z"/>
			</g>
		</g>
		<g>
			<path class="st11" d="M169.1,122.5c-4.3-14.8,4.2-30.3,19.1-34.6c7.3-2.1,15.2-1.2,21.7,2.6c10.8-18.5,34.5-24.9,53-14.1
				c9.4,5.5,16.1,14.6,18.5,25.2c10.3-7.7,24.9-5.6,32.5,4.6c3.5,4.7,5.2,10.5,4.5,16.3L169.1,122.5L169.1,122.5z"/>
			<rect x="147.7" y="121.4" class="st11" width="179.6" height="1.8"/>
		</g>
		<g transform="matrix(1,0,0,1,12.973,-6.05406)">
			<path class="st11" d="M586.7,186c-2.9-10.2,2.9-20.8,13.1-23.8c5-1.5,10.4-0.8,14.9,1.8c7.4-12.7,23.6-17,36.3-9.7
				c6.5,3.8,11,10,12.6,17.3c7-5.3,17-3.8,22.3,3.2c2.4,3.2,3.5,7.2,3.2,11.2L586.7,186L586.7,186z"/>
			<rect x="572" y="185.2" class="st11" width="123.1" height="1.3"/>
		</g>
		<g>
			<path class="st11" d="M394.1,164c-1.5-5.2,1.5-10.8,6.8-12.2c2.6-0.8,5.4-0.4,7.7,0.9c3.8-6.5,12.2-8.8,18.8-5
				c3.3,1.9,5.7,5.2,6.5,8.9c3.6-2.8,8.8-2,11.5,1.6c1.1,1.5,1.6,3.2,1.6,4.9c0,0.3,0,0.5-0.1,0.8H394.1z"/>
			<rect x="386.5" y="163.6" class="st11" width="63.6" height="0.7"/>
		</g>
		<g>
			<g>
				<path class="st23" d="M191.5,410.3l-10.5,0.3c-2.8,8.8-7.6,19.2-7.6,19.2l13.5-2.5L191.5,410.3z"/>
				<g>
					<g>
						<g>
							<defs>
								<path id="SVGID_13_" d="M191.5,410.3l-10.5,0.3c-2.8,8.8-7.6,19.2-7.6,19.2l13.5-2.5L191.5,410.3z"/>
							</defs>
							<clipPath id="SVGID_14_">
								<use xlink:href="#SVGID_13_"  style="overflow:visible;"/>
							</clipPath>
							<g class="st24">
								<path class="st25" d="M191.3,420.7c-3.8-0.5-7.7-1.1-10.9,1.5c-0.6,0.5-1.1,1.1-1.5,1.7c-0.7,1.3-1.2,2.7-1.6,4.2
									c-0.2,1.1-0.7,2-1.4,2.8c-1,0.9-2.5,1.2-3.7,0.6c-0.8-0.5-1.4-1.2-1.8-2c-0.8-1.8-1.2-3.8-1-5.9c0.3-4.4,2.1-8.5,5.2-11.7
									c2.7-2.7,6.7-4.1,10.3-2.5c1.2,0.5,2.2,1.2,3.2,2.1c1.2,1,2.1,2.2,2.8,3.5L191.3,420.7z"/>
							</g>
						</g>
					</g>
				</g>
			</g>
			<path class="st9" d="M202.9,430.7c-9.4-0.8-15.3-7.6-15.3-7.6c-2.9-1.6-7.8,6.6-14.4,5.5c-1.3,1.9-1.5,4.5-0.3,6.5l29-0.1
				C205,435.4,207.3,431.1,202.9,430.7z"/>
			<g>
				<path class="st26" d="M210.8,323.2c0,0-26.6,2.2-27.9,10.1c-2.1,11.9,10.6,35.9,10.6,35.9l-15.9,45.7
					c-0.9,4.9,12.2,5.9,15.8,1.8c15-17.2,27.2-40.2,25.9-54.9C217.9,344.9,219.8,341,210.8,323.2z"/>
				<g>
					<g>
						<g>
							<defs>
								<path id="SVGID_15_" d="M210.8,323.2c0,0-26.6,2.2-27.9,10.1c-2.1,11.9,10.6,35.9,10.6,35.9l-15.9,45.7
									c-0.9,4.9,12.2,5.9,15.8,1.8c15-17.2,27.2-40.2,25.9-54.9C217.9,344.9,219.8,341,210.8,323.2z"/>
							</defs>
							<clipPath id="SVGID_16_">
								<use xlink:href="#SVGID_15_"  style="overflow:visible;"/>
							</clipPath>
							<g class="st27">
								<path class="st25" d="M238.6,321.3c-1.8,4.1-5.2,7.7-8.1,11.1c-6.2,7.3-12.4,13.4-21.2,17.7c-2.9,1.5-5.7,2.8-8.9,3.4
									c-1.2,0.2-5.9,0.4-6.2,1.6c-1,3.5,1.8,5.5,3.4,6.5c1.4,0.9,0.8,2.5-0.4,3.7c-3.5,3.8,2.5,2.7,2.8,4.3c0,0.1-2.7,3.2-4.1,5.2
									c-3.2,4.5-3.7,10.2-5.2,15.5c-2.2,8.4-5.2,16.8-10.1,24.1c-2.3,3.5-8.3,11.9-12.8,6.5c-2.5-3.1-2.8-7.8-3.2-11.5
									c-0.8-8-0.9-16.1-0.6-24.1c0.7-19.2,3.5-40.2,13.6-56.8c9.3-15.2,27.1-26.6,45.4-23.5c5.4,1,10.5,3,15.2,5.9L238.6,321.3z"
									/>
							</g>
						</g>
					</g>
				</g>
			</g>
			<g>
				<path class="st23" d="M224.7,440.6l-13.1-0.5l-1.4,20l11.7-2.8L224.7,440.6z"/>
				<g>
					<g>
						<g>
							<defs>
								<polygon id="SVGID_17_" points="224.7,440.6 211.6,440.1 210.2,460.1 221.9,457.4 								"/>
							</defs>
							<clipPath id="SVGID_18_">
								<use xlink:href="#SVGID_17_"  style="overflow:visible;"/>
							</clipPath>
							<g class="st28">
								<path class="st25" d="M224.7,449.6c-3.8-0.2-7.7-0.5-10.8,2.4c-0.5,0.5-1,1.2-1.4,1.8c-0.6,1.4-1,2.8-1.3,4.3
									c-0.2,1.1-0.5,2.1-1.2,2.9c-0.9,1-2.3,1.4-3.6,0.9c-0.8-0.4-1.5-1.1-1.9-1.8c-1-1.8-1.5-3.8-1.5-5.8
									c-0.1-4.4,1.4-8.7,4.2-12.1c2.5-2.9,6.3-4.6,10.1-3.4c1.2,0.4,2.3,1,3.3,1.8c1.2,0.9,2.3,2.1,3.2,3.3L224.7,449.6z"/>
							</g>
						</g>
					</g>
				</g>
			</g>
			<g>
				<path class="st12" d="M231.1,324.6l-27.5,9.2c-3,9.6,11.8,21,15.8,47.3l-10.2,64.3c0.9,5.2,15.7,5.5,17.5,0.5
					C242.9,403.3,247.8,364.6,231.1,324.6z"/>
				<g>
					<g>
						<g>
							<defs>
								<path id="SVGID_19_" d="M231.1,324.6l-27.5,9.2c-3,9.6,11.8,21,15.8,47.3l-10.2,64.3c0.9,5.2,15.7,5.5,17.5,0.5
									C242.9,403.3,247.8,364.6,231.1,324.6z"/>
							</defs>
							<clipPath id="SVGID_20_">
								<use xlink:href="#SVGID_19_"  style="overflow:visible;"/>
							</clipPath>
							<g class="st29">
								<path class="st25" d="M237.9,324.2c0,2.5-0.9,5-1.7,7.4c-1.6,4.7-3.5,9.4-7.2,12.8c-3,2.8-9.1,5.4-10,9.8
									c-0.5,2.7,1.1,5.5,2.2,7.8c1.2,2.5,2.2,5.3,2.6,8.1c0.5,3,0,6-0.6,8.9c-0.2,0.8-0.8,2.6-0.1,3.3c0.5,0.5,1.4-0.8,1.6-1
									c1.4-1.6,0.1,2.3-1.5,5.4c-1.9,3.8-0.1,6.8-0.2,10.9c-0.1,4.2-0.4,8.3-0.8,12.4c-1.1,10.8-6.6,22-11,32
									c-6.2,14,6.3,16.8,2.3,15.3c-2.9-1.1-13.4-10.2-14.1-12.8c-2.1-7.8-2.6-16.1-3.8-24c-1.3-8.9-2.7-17.8-4.1-26.8
									c-3.3-22.1-7-47.3,7.9-66.3c7.2-9.2,18.8-16.2,30.8-16.5c5.9-0.2,12.9,1.2,15,7.5L237.9,324.2z"/>
							</g>
						</g>
					</g>
				</g>
			</g>
			<path class="st9" d="M239.9,459.6c-9.4-0.9-15.3-8.4-15.3-8.4c-2.9-1.8-7.8,7.3-14.4,6.2c-1.3,2.2-1.5,4.9-0.3,7.2l29-0.1
				C241.9,464.7,244.2,460,239.9,459.6z"/>
			<g>
				<path class="st23" d="M217.7,275.6c1.4-1.5,3.5-4.8,4.3-4.4c1.7,0.6-0.9,5-0.9,5l5.9-0.2c0,0,1.1,5.1-8.3,6.3
					c0,0-6.5,16.8-12.4,18.8c-5.9,1.9-19.6-3.2-23.3-7.4c-6.3-7.2,0.8-23.6,4.7-25.5l20.2,18.9C207.8,287,215.4,278.2,217.7,275.6z"
					/>
				<g>
					<g>
						<g>
							<defs>
								<path id="SVGID_21_" d="M217.7,275.6c1.4-1.5,3.5-4.8,4.3-4.4c1.7,0.6-0.9,5-0.9,5l5.9-0.2c0,0,1.1,5.1-8.3,6.3
									c0,0-6.5,16.8-12.4,18.8c-5.9,1.9-19.6-3.2-23.3-7.4c-6.3-7.2,0.8-23.6,4.7-25.5l20.2,18.9
									C207.8,287,215.4,278.2,217.7,275.6z"/>
							</defs>
							<clipPath id="SVGID_22_">
								<use xlink:href="#SVGID_21_"  style="overflow:visible;"/>
							</clipPath>
							<g class="st30">
								<path class="st10" d="M181.8,302.3c1.2-0.5,2.3-1.7,3.3-2.5c2.3-1.9,4.5-3.9,6.7-6.1c10.7-10.7,23.4-27.6,14.2-43.1
									c-1.2-2-2.8-3.8-4.6-5.3c-2.5-2-5.4-3.5-8.5-4.3c-18.8-4.8-37.2,12-41,29.4c-2.8,12.3,0.8,25.2,9.5,34.3L181.8,302.3z"/>
							</g>
						</g>
					</g>
				</g>
			</g>
			<g>
				<rect x="189.8" y="266.6" class="st31" width="77.5" height="12.2"/>
				<rect x="193.4" y="254.4" class="st31" width="77.5" height="12.2"/>
				<path class="st16" d="M212.5,273.2l-22.6-1.1v2.8L212.5,273.2z"/>
				<path class="st16" d="M216,262.3l-22.6-0.2v0.7L216,262.3z"/>
				<path class="st16" d="M229.8,268.5l-40-0.5v1.3L229.8,268.5z"/>
				<path class="st16" d="M207.9,255.6l-14.5,0.2v2.8L207.9,255.6z"/>
				<path class="st16" d="M229.8,278l-40-0.5v1.5L229.8,278z"/>
				<path class="st16" d="M235.2,266.3l-41.8-1.1v1.5L235.2,266.3z"/>
				<path class="st16" d="M254.9,273.2l12.4-1.1v2.8L254.9,273.2z"/>
				<path class="st16" d="M245.2,269.1l22.1-1.1v2.8L245.2,269.1z"/>
				<path class="st16" d="M245.4,255.3l25.5,0.5v2.8L245.4,255.3z"/>
				<path class="st16" d="M242.5,276.2l24.8-0.6v1.5L242.5,276.2z"/>
				<path class="st16" d="M221,266l49.9-2.6v3.2L221,266z"/>
			</g>
			<g>
				<g>
					<g>
						<path class="st32" d="M213.2,222.2c-0.2,0.2-0.4,0.3-0.7,0.3c-0.2,0-0.3,0-0.4-0.1c-0.2-0.1-0.2-0.2-0.3-0.2
							c-0.1-0.1-0.2-0.2-0.2-0.4c-0.1-0.5-0.1-0.9,0-1.4c0-0.2,0.1-0.2,0.2-0.3c0.2-0.2,0.4-0.4,0.7-0.4c0.2,0,0.2,0,0.4,0.1
							c0.1,0.1,0.2,0.2,0.3,0.2v-1.4h0.5l0.1,3.8h-0.5L213.2,222.2z M212.7,220.2c-0.1,0-0.2,0-0.3,0.1c-0.1,0.1-0.2,0.2-0.2,0.2
							c0,0.1-0.1,0.2-0.1,0.3v0.6c0,0.1,0,0.2,0.1,0.3c0.1,0.2,0.2,0.3,0.5,0.2c0.1,0,0.2,0,0.3-0.1c0.1-0.1,0.2-0.2,0.2-0.2
							s0.1-0.2,0.1-0.3v-0.6c0-0.1,0-0.2-0.1-0.3c0-0.1-0.1-0.2-0.2-0.2H212.7z"/>
						<path class="st32" d="M214.7,221.3c0,0.2,0.1,0.4,0.2,0.5c0.2,0.2,0.3,0.2,0.5,0.2c0.2,0,0.5-0.1,0.5-0.3l0.4,0.3
							c-0.2,0.3-0.5,0.5-0.9,0.5c-0.2,0-0.3,0-0.4-0.1c-0.2-0.1-0.2-0.2-0.4-0.2c-0.2-0.2-0.2-0.2-0.3-0.5c-0.1-0.2-0.2-0.5-0.2-0.7
							s0-0.5,0.1-0.7c0.1-0.2,0.2-0.3,0.2-0.5c0.1-0.1,0.2-0.2,0.4-0.2c0.2-0.1,0.2-0.1,0.4-0.1c0.3,0,0.5,0.1,0.8,0.3
							c0.2,0.2,0.3,0.5,0.3,0.8v0.5L214.7,221.3z M215.8,220.9c0-0.2-0.1-0.4-0.2-0.5c-0.2-0.2-0.5-0.2-0.8,0
							c-0.1,0.2-0.2,0.3-0.2,0.5H215.8z"/>
						<path class="st32" d="M216.9,220.2h-0.2v-0.4h0.2v-0.4c0-0.2,0.1-0.5,0.2-0.6c0.2-0.2,0.3-0.2,0.5-0.2h0.3v0.5h-0.3
							c-0.2,0-0.2,0.1-0.2,0.2v0.4h0.5v0.5h-0.5v2.3h-0.5V220.2z"/>
					</g>
					<g>
						<path class="st33" d="M219.5,218.5h0.5v1.4c0.1-0.1,0.2-0.2,0.3-0.2c0.1-0.1,0.2-0.1,0.4-0.1c0.3,0,0.5,0.1,0.7,0.4
							c0.1,0.1,0.2,0.2,0.2,0.3c0.1,0.5,0.1,0.9,0,1.4c0,0.2-0.1,0.2-0.2,0.4c-0.1,0.1-0.2,0.2-0.3,0.2c-0.2,0.1-0.3,0.1-0.4,0.1
							c-0.2,0-0.5-0.1-0.7-0.3v0.3h-0.5V218.5z M220.6,220.2c-0.2,0-0.4,0.1-0.5,0.3c0,0.1-0.1,0.2-0.1,0.3v0.6c0,0.1,0,0.2,0.1,0.3
							c0,0.1,0.1,0.2,0.2,0.2c0.1,0.1,0.2,0.1,0.3,0.1c0.1,0,0.2,0,0.3-0.1c0.1-0.1,0.2-0.2,0.2-0.2s0.1-0.2,0.1-0.3v-0.6
							c0-0.1,0-0.2-0.1-0.3c0-0.1-0.1-0.2-0.2-0.2C220.8,220.2,220.7,220.2,220.6,220.2z"/>
						<path class="st33" d="M223.6,222.2c-0.1,0.1-0.2,0.2-0.2,0.2c-0.2,0.1-0.3,0.1-0.4,0.1c-0.2,0-0.5-0.1-0.7-0.2
							c-0.2-0.2-0.2-0.4-0.2-0.6s0.1-0.4,0.2-0.6c0.2-0.2,0.4-0.2,0.6-0.2h0.7v-0.3c0-0.2-0.2-0.4-0.5-0.3c-0.1,0-0.2,0-0.3,0.1
							c-0.1,0-0.2,0.1-0.2,0.2l-0.4-0.3c0.2-0.3,0.5-0.5,0.8-0.4c0.3,0,0.5,0.1,0.8,0.2c0.2,0.2,0.3,0.5,0.3,0.7v1.8h-0.5V222.2z
							 M223.6,221.2H223c-0.3,0-0.5,0.2-0.5,0.3c0,0.1,0.1,0.2,0.2,0.2c0.1,0.1,0.2,0.2,0.4,0.1c0.2,0,0.3,0,0.5-0.1
							c0.1-0.1,0.2-0.2,0.2-0.4L223.6,221.2z"/>
						<path class="st33" d="M224.9,221.5c0.2,0.2,0.5,0.4,0.8,0.3c0.2,0,0.2,0,0.4-0.1c0.1-0.1,0.2-0.2,0.2-0.2s0-0.2-0.1-0.2
							c-0.1-0.1-0.2-0.1-0.2-0.1h-0.5c-0.2,0-0.4-0.1-0.5-0.2c-0.2-0.2-0.2-0.3-0.2-0.5c0-0.2,0.1-0.5,0.3-0.6
							c0.2-0.2,0.5-0.2,0.7-0.2h0.3c0.1,0,0.2,0.1,0.2,0.1c0.2,0.1,0.3,0.2,0.5,0.3l-0.3,0.4c-0.1-0.1-0.2-0.2-0.3-0.2
							c-0.2-0.1-0.2-0.1-0.4-0.1c-0.2,0-0.2,0-0.3,0.1c-0.1,0.1-0.1,0.2-0.1,0.2c0,0.1,0,0.2,0.1,0.2c0.1,0.1,0.2,0.1,0.3,0.1h0.5
							c0.2,0,0.5,0.1,0.6,0.2c0.2,0.2,0.2,0.4,0.2,0.5c0,0.2-0.1,0.5-0.3,0.6c-0.2,0.2-0.5,0.2-0.8,0.2c-0.5,0-0.8-0.2-1.2-0.5
							L224.9,221.5z"/>
						<path class="st33" d="M227.7,221.2c0,0.2,0.1,0.4,0.2,0.5c0.2,0.2,0.3,0.2,0.5,0.2c0.2,0,0.5-0.1,0.5-0.3l0.4,0.3
							c-0.2,0.3-0.5,0.5-0.9,0.5c-0.2,0-0.3,0-0.4-0.1c-0.2-0.1-0.2-0.2-0.4-0.2c-0.2-0.2-0.2-0.2-0.3-0.5c-0.1-0.2-0.2-0.5-0.2-0.7
							s0-0.5,0.1-0.7c0.1-0.2,0.2-0.3,0.2-0.5c0.1-0.1,0.2-0.2,0.4-0.2c0.4-0.2,0.8-0.1,1.2,0.2c0.2,0.2,0.3,0.5,0.3,0.8v0.5
							L227.7,221.2z M228.8,220.6c0-0.2-0.1-0.4-0.2-0.5c-0.2-0.2-0.5-0.2-0.8,0c-0.1,0.2-0.2,0.3-0.2,0.5H228.8z"/>
						<path class="st33" d="M229.5,222.7l2.6-0.1v0.3h-2.6V222.7z"/>
						<path class="st33" d="M232.4,219.5h0.5v0.3c0.2-0.2,0.4-0.3,0.7-0.3c0.2,0,0.4,0.1,0.5,0.2l-0.4,0.5c-0.1-0.1-0.2-0.2-0.4-0.2
							c-0.2,0-0.2,0.1-0.3,0.2c-0.2,0.2-0.2,0.3-0.2,0.5v1.6h-0.5V219.5z"/>
						<path class="st33" d="M235.8,221.9c-0.1,0.1-0.2,0.2-0.2,0.2c-0.2,0.1-0.3,0.1-0.4,0.1c-0.2,0-0.5-0.1-0.7-0.2
							c-0.2-0.2-0.2-0.4-0.2-0.6s0.1-0.4,0.2-0.6c0.2-0.2,0.4-0.2,0.6-0.2h0.7v-0.3c0-0.2-0.2-0.4-0.5-0.3c-0.1,0-0.2,0-0.3,0.1
							c-0.1,0-0.2,0.1-0.2,0.2l-0.4-0.3c0.2-0.3,0.5-0.5,0.8-0.4c0.3,0,0.5,0.1,0.8,0.2c0.2,0.2,0.3,0.5,0.3,0.7v1.8h-0.5V221.9z
							 M235.7,221h-0.6c-0.3,0-0.5,0.2-0.5,0.3c0,0.1,0.1,0.2,0.2,0.2c0.1,0.1,0.2,0.2,0.4,0.1c0.2,0,0.3,0,0.5-0.1
							c0.1-0.1,0.2-0.2,0.2-0.4L235.7,221z"/>
						<path class="st33" d="M236.9,218.5h0.5v0.8h0.4v0.5h-0.4v1.6c0,0.2,0.1,0.2,0.2,0.2h0.2v0.5h-0.3c-0.2,0-0.3-0.1-0.5-0.2
							c-0.2-0.2-0.2-0.3-0.2-0.5V220h-0.2v-0.5h0.2V218.5z"/>
						<path class="st33" d="M238.8,220.9c0,0.2,0.1,0.4,0.2,0.5c0.2,0.2,0.3,0.2,0.5,0.2c0.2,0,0.5-0.1,0.5-0.3l0.4,0.3
							c-0.2,0.3-0.5,0.5-0.9,0.5c-0.2,0-0.3,0-0.4-0.1c-0.1,0-0.2-0.1-0.2-0.1c-0.1,0-0.2-0.1-0.2-0.2c-0.2-0.2-0.2-0.2-0.3-0.5
							c-0.1-0.2-0.2-0.5-0.2-0.7s0-0.5,0.1-0.7c0.1-0.2,0.2-0.3,0.2-0.5c0.1-0.1,0.2-0.2,0.4-0.2c0.4-0.2,0.8-0.1,1.2,0.2
							c0.2,0.2,0.3,0.5,0.3,0.8v0.5L238.8,220.9z M239.9,220.5c0-0.2-0.1-0.4-0.2-0.5c-0.1-0.1-0.2-0.2-0.4-0.2s-0.3,0.1-0.4,0.2
							c-0.1,0.2-0.2,0.3-0.2,0.5H239.9z"/>
						<path class="st33" d="M241.8,222.6c-1.1-1.2-1.2-3.2-0.1-4.4h0.2c-0.6,1.4-0.6,3,0.1,4.4H241.8z"/>
					</g>
					<g>
						<path class="st34" d="M242.5,221.2c0.2,0.2,0.5,0.4,0.8,0.3c0.2,0,0.2,0,0.4-0.1c0.1-0.1,0.2-0.2,0.2-0.2c0-0.1,0-0.2-0.1-0.2
							c-0.1-0.1-0.2-0.1-0.2-0.1h-0.5c-0.2,0-0.4-0.1-0.5-0.2c-0.2-0.2-0.2-0.3-0.2-0.5c0-0.2,0.1-0.5,0.3-0.6
							c0.2-0.2,0.5-0.2,0.7-0.2h0.3c0.1,0,0.2,0.1,0.3,0.1c0.2,0.1,0.3,0.2,0.5,0.2l-0.3,0.4c-0.1-0.1-0.2-0.2-0.3-0.2
							c-0.2-0.1-0.2-0.1-0.4-0.1c-0.2,0-0.2,0-0.3,0.1c-0.1,0.1-0.1,0.2-0.1,0.2c0,0.1,0,0.2,0.1,0.2c0.1,0.1,0.2,0.1,0.2,0.1h0.5
							c0.2,0,0.5,0.1,0.6,0.2c0.2,0.2,0.2,0.4,0.2,0.5c0,0.2-0.1,0.5-0.3,0.6c-0.2,0.2-0.5,0.2-0.8,0.2c-0.5,0-0.8-0.2-1.2-0.5
							L242.5,221.2z"/>
						<path class="st34" d="M245.2,220.9c0,0.2,0.1,0.4,0.2,0.5c0.2,0.2,0.3,0.2,0.5,0.2c0.2,0,0.5-0.1,0.5-0.3l0.4,0.3
							c-0.2,0.3-0.5,0.5-0.9,0.5c-0.2,0-0.3,0-0.4-0.1c-0.1,0-0.2-0.1-0.2-0.1c-0.1,0-0.2-0.1-0.2-0.2c-0.2-0.2-0.2-0.2-0.3-0.5
							c-0.1-0.2-0.2-0.5-0.2-0.7c0-0.2,0-0.5,0.1-0.7c0.1-0.2,0.2-0.3,0.2-0.5c0.1-0.1,0.2-0.2,0.4-0.2c0.4-0.2,0.8-0.1,1.2,0.2
							c0.2,0.2,0.3,0.5,0.3,0.8v0.5L245.2,220.9z M246.3,220.4c0-0.2-0.1-0.3-0.2-0.5c-0.1-0.1-0.2-0.2-0.4-0.2
							c-0.2,0-0.3,0.1-0.4,0.2c-0.1,0.2-0.2,0.3-0.2,0.5H246.3z"/>
						<path class="st34" d="M247.4,218.1h0.5l0.1,3.2c0,0.1,0.1,0.2,0.2,0.2h0.2v0.5h-0.2c-0.2,0-0.3-0.1-0.5-0.2
							c-0.2-0.2-0.2-0.3-0.2-0.5L247.4,218.1z"/>
						<path class="st34" d="M248.9,219.6h-0.2v-0.4h0.2v-0.4c-0.1-0.4,0.2-0.7,0.5-0.8h0.5v0.5h-0.3c-0.2,0-0.2,0.1-0.2,0.2v0.4h0.5
							v0.4h-0.5v2.3h-0.5L248.9,219.6z"/>
					</g>
					<path class="st35" d="M250.2,221.4h0.5v0.5l-0.5,0.4V221.4z"/>
					<g>
						<path class="st34" d="M252.6,219.2h0.5v0.3c0.2-0.2,0.4-0.3,0.7-0.3c0.3,0,0.5,0.1,0.7,0.4c0.1,0.1,0.2,0.2,0.2,0.3
							c0,0.2,0.1,0.5,0.1,0.7v0.7c0,0.2-0.1,0.2-0.2,0.4c-0.1,0.1-0.2,0.2-0.3,0.2c-0.2,0.1-0.3,0.1-0.4,0.1c-0.2,0-0.2,0-0.4-0.1
							c-0.2-0.1-0.2-0.2-0.3-0.2v1.4h-0.5L252.6,219.2z M253.7,221.3c0.1,0,0.2,0,0.3-0.1c0.1-0.1,0.2-0.2,0.2-0.2s0.1-0.2,0.1-0.3
							v-0.6c0-0.1,0-0.2-0.1-0.3c0-0.1-0.1-0.2-0.2-0.2c-0.1-0.1-0.2-0.1-0.3-0.1c-0.2,0-0.4,0.1-0.5,0.3c0,0.1-0.1,0.2-0.1,0.3v0.6
							c0,0.1,0,0.2,0.1,0.3C253.3,221.2,253.5,221.4,253.7,221.3z"/>
						<path class="st34" d="M255.3,219.1h0.5v0.3c0.3-0.4,0.8-0.5,1.2-0.2l-0.4,0.5c-0.1-0.1-0.2-0.2-0.4-0.2s-0.2,0.1-0.3,0.2
							c-0.2,0.2-0.2,0.3-0.2,0.5v1.7h-0.5L255.3,219.1z"/>
						<path class="st34" d="M257.3,219.1h0.5l0.1,2.8h-0.5L257.3,219.1z M257.3,217.9h0.5v0.5h-0.5V217.9z"/>
						<path class="st34" d="M258.2,219h0.5l0.6,1.9l0.6-1.9h0.5l-0.9,2.8h-0.5L258.2,219z"/>
						<path class="st34" d="M260.9,219h0.5v2.8h-0.5V219z M260.9,217.9h0.5v0.5h-0.5V217.9z"/>
						<path class="st34" d="M262.1,217.9h0.5l0.1,3.2c0,0.1,0.1,0.2,0.2,0.2h0.2v0.5h-0.2c-0.2,0-0.3-0.1-0.5-0.2
							c-0.2-0.2-0.2-0.3-0.2-0.5L262.1,217.9z"/>
						<path class="st34" d="M263.9,220.5c0,0.2,0.1,0.4,0.2,0.5c0.2,0.2,0.3,0.2,0.5,0.2c0.2,0,0.5-0.1,0.5-0.3l0.4,0.3
							c-0.2,0.3-0.5,0.5-0.9,0.5c-0.2,0-0.3,0-0.4-0.1c-0.1,0-0.2-0.1-0.2-0.1c-0.1,0-0.2-0.1-0.2-0.2c-0.2-0.2-0.2-0.2-0.3-0.5
							c-0.1-0.2-0.2-0.5-0.2-0.7s0-0.5,0.1-0.7c0.1-0.2,0.2-0.3,0.2-0.5c0.1-0.1,0.2-0.2,0.4-0.2c0.2-0.1,0.2-0.1,0.4-0.1
							c0.3,0,0.5,0.1,0.8,0.3s0.3,0.5,0.3,0.8v0.5L263.9,220.5z M264.9,220.1c0-0.2-0.1-0.3-0.2-0.5c-0.1-0.1-0.2-0.2-0.4-0.2
							c-0.2,0-0.3,0.1-0.4,0.2c-0.1,0.2-0.2,0.3-0.2,0.5H264.9z"/>
						<path class="st34" d="M267.5,221.3c-0.2,0.2-0.4,0.3-0.7,0.3c-0.2,0-0.3,0-0.5-0.1c-0.1-0.1-0.2-0.2-0.3-0.2s-0.2-0.2-0.2-0.3
							c-0.1-0.2-0.1-0.5-0.1-0.8v-0.8c0-0.2,0.1-0.2,0.2-0.3c0.1-0.1,0.2-0.2,0.2-0.2c0.4-0.2,0.8-0.2,1.1,0.2v-0.3h0.5v2.7
							c0,0.3-0.1,0.7-0.3,0.9c-0.2,0.2-0.5,0.3-0.8,0.3c-0.4,0-0.7-0.2-0.9-0.5l0.4-0.4c0.1,0.1,0.2,0.2,0.2,0.2
							c0.1,0.1,0.2,0.1,0.3,0.1c0.3,0,0.5-0.2,0.6-0.5v-0.1L267.5,221.3z M266.5,220.3v0.5c0,0.1,0,0.2,0.1,0.2s0.1,0.1,0.2,0.2
							c0.1,0.1,0.2,0.1,0.2,0.1c0.1,0,0.2,0,0.2-0.1c0.1,0,0.1-0.1,0.2-0.2s0.1-0.2,0.1-0.2v-0.9c0-0.1-0.1-0.2-0.1-0.2
							c-0.1-0.1-0.1-0.1-0.2-0.2s-0.2-0.1-0.2-0.1c-0.1,0-0.2,0-0.2,0.1c-0.1,0.1-0.1,0.1-0.2,0.2s-0.1,0.2-0.1,0.2
							C266.5,220,266.4,220.2,266.5,220.3z"/>
						<path class="st34" d="M269.1,220.5c0,0.2,0.1,0.4,0.2,0.5c0.2,0.2,0.3,0.2,0.5,0.2c0.2,0,0.5-0.1,0.5-0.3l0.4,0.3
							c-0.2,0.3-0.5,0.5-0.9,0.5c-0.2,0-0.3,0-0.4-0.1c-0.1,0-0.2-0.1-0.2-0.1c-0.1,0-0.2-0.1-0.2-0.2c-0.2-0.2-0.2-0.2-0.3-0.5
							c-0.1-0.2-0.2-0.5-0.2-0.7c0-0.2,0-0.5,0.1-0.7c0.1-0.2,0.2-0.3,0.2-0.5c0.1-0.1,0.2-0.2,0.4-0.2c0.4-0.2,0.8-0.1,1.2,0.2
							c0.2,0.2,0.3,0.5,0.3,0.8v0.5L269.1,220.5z M270.2,220c0-0.2-0.1-0.3-0.2-0.5c-0.2-0.2-0.5-0.2-0.8,0
							c-0.1,0.2-0.2,0.3-0.2,0.5H270.2z"/>
						<path class="st34" d="M272.9,221.2c-0.2,0.2-0.4,0.3-0.7,0.3c-0.2,0-0.3,0-0.4-0.1c-0.2-0.1-0.2-0.2-0.3-0.2
							c-0.1-0.1-0.2-0.2-0.2-0.4c-0.1-0.2-0.1-0.5-0.1-0.7v-0.7c0-0.2,0.1-0.2,0.2-0.3c0.2-0.2,0.4-0.4,0.7-0.4c0.2,0,0.2,0,0.4,0.1
							c0.1,0.1,0.2,0.2,0.3,0.2v-1.4h0.5l0.1,3.8h-0.5V221.2z M272.3,219.3c-0.1,0-0.2,0-0.3,0.1c-0.1,0.1-0.2,0.2-0.2,0.2
							s-0.1,0.2-0.1,0.3v0.6c0,0.1,0,0.2,0.1,0.3c0,0.1,0.1,0.2,0.2,0.2s0.2,0.1,0.3,0.1c0.1,0,0.2,0,0.3-0.1s0.2-0.2,0.2-0.2
							c0-0.1,0.1-0.2,0.1-0.3v-0.6c0-0.1,0-0.2-0.1-0.3c0-0.1-0.1-0.2-0.2-0.2C272.5,219.3,272.4,219.3,272.3,219.3z"/>
					</g>
					<path class="st35" d="M273.9,219.4l2.6-0.1v0.4l-2.6,0.1V219.4z M273.9,220.5l2.6-0.1v0.4l-2.6,0.1V220.5z"/>
					<path class="st36" d="M277,218.7h0.5v0.3c0.2-0.2,0.4-0.3,0.7-0.3c0.2,0,0.5,0.1,0.6,0.2c0.2,0.2,0.3,0.5,0.3,0.7v1.8h-0.5
						v-1.6c0-0.2-0.1-0.3-0.2-0.5c-0.1-0.1-0.2-0.2-0.4-0.2c-0.2,0-0.3,0.1-0.4,0.2c-0.1,0.2-0.2,0.3-0.2,0.5v1.6H277V218.7z"/>
					<path class="st36" d="M279.6,220.1c0-0.2,0-0.5,0.1-0.7c0.1-0.2,0.1-0.3,0.2-0.4c0.1-0.1,0.2-0.2,0.3-0.2c0.3-0.2,0.7-0.2,1,0
						c0.1,0.1,0.2,0.2,0.3,0.2c0.1,0.1,0.2,0.2,0.2,0.4c0.1,0.2,0.1,0.5,0.1,0.7s0,0.5-0.1,0.7c-0.1,0.2-0.1,0.3-0.2,0.4
						c0,0.1-0.1,0.1-0.2,0.2c-0.1,0.1-0.1,0.1-0.2,0.2c-0.5,0.2-1,0.2-1.3-0.2c-0.1-0.1-0.2-0.2-0.2-0.4
						C279.7,220.5,279.6,220.3,279.6,220.1z M281.3,220.4v-0.8c0-0.1-0.1-0.2-0.1-0.2c-0.1-0.1-0.1-0.1-0.2-0.2
						c-0.1,0-0.2-0.1-0.2-0.1c-0.1,0-0.2,0-0.2,0.1c-0.1,0-0.2,0.1-0.2,0.2c-0.1,0.1-0.1,0.2-0.1,0.2v0.8c0,0.1,0.1,0.2,0.1,0.2
						c0.1,0.1,0.1,0.1,0.2,0.2c0.1,0,0.2,0.1,0.2,0.1c0.1,0,0.2,0,0.2-0.1c0.1,0,0.2-0.1,0.2-0.2
						C281.3,220.5,281.3,220.5,281.3,220.4z"/>
					<path class="st36" d="M282.3,218.6h0.5v0.3c0.2-0.2,0.4-0.3,0.7-0.3c0.2,0,0.5,0.1,0.6,0.2c0.2,0.2,0.3,0.5,0.3,0.7v1.8h-0.5
						v-1.6c0-0.2-0.1-0.3-0.2-0.5c-0.1-0.1-0.2-0.2-0.4-0.2s-0.3,0.1-0.4,0.2c-0.1,0.2-0.2,0.3-0.2,0.5v1.6h-0.5V218.6z"/>
					<path class="st36" d="M285.6,220.2c0,0.2,0.1,0.4,0.2,0.5c0.2,0.2,0.3,0.2,0.5,0.2c0.2,0,0.5-0.1,0.5-0.3l0.4,0.3
						c-0.2,0.3-0.5,0.5-0.9,0.5c-0.2,0-0.3,0-0.4-0.1c-0.2-0.1-0.2-0.2-0.4-0.2c-0.2-0.2-0.2-0.2-0.3-0.5c-0.1-0.2-0.2-0.5-0.2-0.7
						s0-0.5,0.1-0.7c0.1-0.2,0.2-0.3,0.2-0.5c0.1-0.1,0.2-0.2,0.3-0.2c0.4-0.2,0.8-0.1,1.2,0.2c0.2,0.2,0.3,0.5,0.3,0.8v0.5
						L285.6,220.2z M286.6,219.7c0-0.2-0.1-0.4-0.2-0.5c-0.2-0.2-0.5-0.2-0.8,0c-0.1,0.2-0.2,0.3-0.2,0.5H286.6z"/>
					<path class="st33" d="M287.6,217.5c1.1,1.2,1.2,3.2,0.1,4.4h-0.2c0.6-1.4,0.6-3-0.1-4.4H287.6z"/>
					<path class="st35" d="M290.4,219.5h0.5v0.5h-0.5V219.5z M290.4,220.7h0.5v0.5h-0.5V220.7z"/>
				</g>
				<g>
					<g>
						<path class="st37" d="M222.4,229.8h0.5v0.3c0.2-0.2,0.4-0.3,0.7-0.3c0.2,0,0.4,0.1,0.5,0.2l-0.4,0.5c-0.1-0.1-0.2-0.2-0.4-0.2
							c-0.2,0-0.2,0.1-0.3,0.2c-0.2,0.2-0.2,0.3-0.2,0.5v1.6h-0.5V229.8z"/>
						<path class="st37" d="M224.8,231.3c0,0.2,0.1,0.4,0.2,0.5c0.2,0.2,0.3,0.2,0.5,0.2c0.2,0,0.5-0.1,0.5-0.3l0.4,0.3
							c-0.2,0.3-0.5,0.5-0.9,0.5c-0.2,0-0.3,0-0.4-0.1c-0.1,0-0.2-0.1-0.2-0.1c-0.1,0-0.2-0.1-0.2-0.2c-0.2-0.2-0.2-0.2-0.3-0.5
							c-0.1-0.2-0.2-0.5-0.2-0.7c0-0.2,0-0.5,0.1-0.7c0.1-0.2,0.2-0.3,0.2-0.5c0.1-0.1,0.2-0.2,0.3-0.2c0.2-0.1,0.2-0.1,0.4-0.1
							c0.3,0,0.5,0.1,0.8,0.3c0.2,0.2,0.3,0.5,0.3,0.8v0.5L224.8,231.3z M225.8,230.9c0-0.2-0.1-0.4-0.2-0.5c-0.2-0.2-0.5-0.2-0.8,0
							c-0.1,0.2-0.2,0.3-0.2,0.5H225.8z"/>
						<path class="st37" d="M226.9,228.9h0.5v0.8h0.4v0.5h-0.4v1.6c0,0.2,0.1,0.2,0.2,0.2h0.2v0.5h-0.3c-0.2,0-0.3-0.1-0.5-0.2
							c-0.2-0.2-0.2-0.3-0.2-0.5v-1.6h-0.2v-0.5h0.2V228.9z"/>
						<path class="st37" d="M228.3,229.7h0.5v1.6c0,0.2,0.1,0.3,0.2,0.5c0.1,0.1,0.2,0.2,0.4,0.2c0.2,0,0.3-0.1,0.4-0.2
							c0.1-0.2,0.2-0.3,0.2-0.5v-1.6h0.5v2.8h-0.5v-0.3c-0.2,0.2-0.4,0.3-0.7,0.3c-0.2,0-0.5-0.1-0.6-0.2c-0.2-0.2-0.3-0.5-0.3-0.7
							V229.7z"/>
						<path class="st37" d="M231.1,229.6h0.5v0.3c0.2-0.2,0.4-0.3,0.7-0.3c0.2,0,0.4,0.1,0.5,0.2l-0.4,0.5c-0.1-0.1-0.2-0.2-0.4-0.2
							c-0.2,0-0.2,0.1-0.3,0.2c-0.1,0.2-0.2,0.3-0.2,0.5v1.6h-0.5V229.6z"/>
						<path class="st37" d="M233,229.6h0.5v0.3c0.2-0.2,0.4-0.3,0.7-0.3c0.2,0,0.5,0.1,0.6,0.2c0.2,0.2,0.3,0.5,0.3,0.7v1.8h-0.5
							v-1.6c0-0.2-0.1-0.3-0.2-0.5c-0.1-0.1-0.2-0.2-0.4-0.2c-0.2,0-0.3,0.1-0.4,0.2c-0.1,0.2-0.2,0.3-0.2,0.5v1.6H233V229.6z"/>
					</g>
					<path class="st35" d="M237.8,232.9c-1.1-1.2-1.2-3.2-0.1-4.4h0.2c-0.6,1.4-0.6,3,0.1,4.4H237.8z"/>
					<g>
						<path class="st36" d="M238.5,231.5c0.2,0.2,0.5,0.4,0.8,0.3c0.2,0,0.2,0,0.4-0.1c0.1-0.1,0.2-0.2,0.2-0.2c0-0.1,0-0.2-0.1-0.2
							c-0.1-0.1-0.2-0.1-0.2-0.1h-0.5c-0.2,0-0.4-0.1-0.5-0.2c-0.2-0.2-0.2-0.3-0.2-0.5s0.1-0.5,0.3-0.6c0.2-0.2,0.5-0.2,0.7-0.2
							h0.3c0.1,0,0.2,0.1,0.3,0.1c0.2,0.1,0.3,0.2,0.5,0.3l-0.3,0.4c-0.1-0.1-0.2-0.2-0.3-0.2c-0.2-0.1-0.2-0.1-0.4-0.1
							c-0.2,0-0.2,0-0.3,0.1c-0.1,0.1-0.1,0.2-0.1,0.2c0,0.1,0,0.2,0.1,0.2c0.1,0.1,0.2,0.1,0.2,0.1h0.5c0.2,0,0.5,0.1,0.6,0.2
							c0.2,0.2,0.2,0.4,0.2,0.5c0,0.2-0.1,0.5-0.3,0.6c-0.2,0.2-0.5,0.2-0.8,0.2c-0.5,0-0.8-0.2-1.2-0.5L238.5,231.5z"/>
						<path class="st36" d="M241.3,231.1c0,0.2,0.1,0.4,0.2,0.5c0.2,0.2,0.3,0.2,0.5,0.2c0.2,0,0.5-0.1,0.5-0.3l0.4,0.3
							c-0.2,0.3-0.5,0.5-0.9,0.5c-0.2,0-0.3,0-0.4-0.1c-0.1,0-0.2-0.1-0.2-0.1c-0.1,0-0.2-0.1-0.2-0.2c-0.2-0.2-0.2-0.2-0.3-0.5
							c-0.1-0.2-0.2-0.5-0.2-0.7c0-0.2,0-0.5,0.1-0.7c0.1-0.2,0.2-0.3,0.2-0.5c0.1-0.1,0.2-0.2,0.4-0.2c0.4-0.2,0.8-0.1,1.2,0.2
							c0.2,0.2,0.3,0.5,0.3,0.8v0.5L241.3,231.1z M242.4,230.6c0-0.2-0.1-0.4-0.2-0.5c-0.1-0.1-0.2-0.2-0.4-0.2
							c-0.2,0-0.3,0.1-0.4,0.2c-0.1,0.2-0.2,0.3-0.2,0.5H242.4z"/>
						<path class="st36" d="M243.5,228.3h0.5l0.1,3.2c0,0.1,0.1,0.2,0.2,0.2h0.2v0.5h-0.2c-0.2,0-0.3-0.1-0.5-0.2
							c-0.2-0.2-0.2-0.3-0.2-0.5L243.5,228.3z"/>
						<path class="st36" d="M244.9,229.9h-0.2v-0.4h0.2v-0.4c0-0.2,0.1-0.4,0.2-0.6c0.2-0.2,0.3-0.2,0.5-0.2h0.3v0.5h-0.3
							c-0.2,0-0.2,0.1-0.2,0.2v0.4h0.5v0.5h-0.5v2.3h-0.5V229.9z"/>
					</g>
					<path class="st35" d="M246.2,231.6l0.5-0.1v0.6h-0.5L246.2,231.6z"/>
					<path class="st35" d="M247.5,229.4h0.5v0.3c0.2-0.2,0.4-0.3,0.7-0.3c0.2,0,0.5,0.1,0.6,0.2c0.2,0.2,0.3,0.5,0.3,0.7v1.8h-0.5
						v-1.6c0-0.2-0.1-0.3-0.2-0.5c-0.1-0.1-0.2-0.2-0.4-0.2c-0.2,0-0.3,0.1-0.4,0.2c-0.1,0.2-0.2,0.3-0.2,0.5v1.6h-0.5V229.4z"/>
					<path class="st35" d="M250.2,229.3h0.5v1.6c0,0.2,0.1,0.3,0.2,0.5c0.1,0.1,0.2,0.2,0.4,0.2c0.2,0,0.3-0.1,0.4-0.2
						c0.1-0.2,0.2-0.3,0.2-0.5v-1.6h0.5v2.8h-0.5v-0.3c-0.2,0.2-0.4,0.3-0.7,0.3c-0.2,0-0.5-0.1-0.6-0.2c-0.2-0.2-0.3-0.5-0.3-0.7
						V229.3z"/>
					<path class="st35" d="M253,229.3h0.5v0.3c0.2-0.2,0.4-0.3,0.7-0.3c0.2,0,0.3,0,0.5,0.1c0.1,0.1,0.2,0.2,0.3,0.2
						c0.2-0.2,0.5-0.4,0.8-0.4c0.2,0,0.5,0.1,0.6,0.2c0.2,0.2,0.3,0.5,0.3,0.7v1.8h-0.5v-1.6c0-0.2-0.1-0.3-0.2-0.5
						c-0.2-0.2-0.5-0.2-0.8,0c-0.1,0.2-0.2,0.3-0.2,0.5v1.6h-0.5v-1.6c0-0.2-0.1-0.3-0.2-0.5c-0.2-0.2-0.5-0.2-0.8,0
						c-0.1,0.2-0.2,0.3-0.2,0.5v1.6H253V229.3z"/>
					<path class="st35" d="M257.1,232.4l2.6-0.1v0.3h-2.6V232.4z"/>
					<path class="st35" d="M259.9,229.2h0.5v0.3c0.2-0.2,0.4-0.3,0.7-0.3s0.5,0.1,0.7,0.4c0.1,0.1,0.2,0.2,0.2,0.3
						c0,0.2,0.1,0.5,0.1,0.7v0.7c0,0.2-0.1,0.2-0.2,0.4c-0.1,0.1-0.2,0.2-0.3,0.2c-0.2,0.1-0.3,0.1-0.4,0.1c-0.2,0-0.2,0-0.4-0.1
						c-0.2-0.1-0.2-0.2-0.3-0.2v1.4H260L259.9,229.2z M261,231.4c0.1,0,0.2,0,0.3-0.1c0.1-0.1,0.2-0.2,0.2-0.2
						c0-0.1,0.1-0.2,0.1-0.3v-0.6c0-0.1,0-0.2-0.1-0.3c0-0.1-0.1-0.2-0.2-0.2c-0.1-0.1-0.2-0.1-0.3-0.1s-0.2,0-0.3,0.1
						c-0.1,0.1-0.2,0.2-0.2,0.2c0,0.1-0.1,0.2-0.1,0.3v0.6c0,0.1,0,0.2,0.1,0.3c0,0.1,0.1,0.2,0.2,0.2
						C260.9,231.4,260.9,231.4,261,231.4z"/>
					<path class="st35" d="M262.5,230.5c0-0.2,0-0.5,0.1-0.7c0.1-0.2,0.1-0.3,0.2-0.4c0.1-0.1,0.2-0.2,0.3-0.2
						c0.2-0.1,0.3-0.2,0.5-0.2s0.3,0,0.5,0.1c0.1,0.1,0.2,0.2,0.3,0.2c0.1,0.1,0.2,0.2,0.2,0.4c0.1,0.2,0.1,0.5,0.1,0.7
						s0,0.5-0.1,0.7c-0.1,0.2-0.1,0.3-0.2,0.4c0,0.1-0.1,0.1-0.2,0.2c-0.1,0.1-0.1,0.1-0.2,0.2c-0.2,0.1-0.3,0.2-0.5,0.2
						c-0.2,0-0.3,0-0.5-0.1c-0.2-0.1-0.2-0.2-0.3-0.2c-0.1-0.1-0.2-0.2-0.2-0.4C262.5,230.9,262.5,230.7,262.5,230.5z M264.2,230.9
						V230c0-0.1-0.1-0.2-0.1-0.2c-0.1-0.1-0.1-0.1-0.2-0.2c-0.1,0-0.2-0.1-0.2-0.1c-0.1,0-0.2,0-0.2,0.1c-0.1,0-0.2,0.1-0.2,0.2
						c-0.1,0.1-0.1,0.2-0.1,0.2v0.8c0,0.1,0.1,0.2,0.1,0.2c0.1,0.1,0.1,0.1,0.2,0.2c0.1,0,0.2,0.1,0.2,0.1c0.1,0,0.2,0,0.2-0.1
						c0.1,0,0.2-0.1,0.2-0.2C264.2,231,264.2,230.9,264.2,230.9z"/>
					<path class="st35" d="M265.3,231c0.2,0.2,0.5,0.4,0.8,0.3c0.2,0,0.2,0,0.4-0.1c0.1-0.1,0.2-0.2,0.2-0.2c0-0.1,0-0.2-0.1-0.2
						c-0.1-0.1-0.2-0.1-0.2-0.1h-0.5c-0.2,0-0.4-0.1-0.5-0.2c-0.2-0.2-0.2-0.3-0.2-0.5c0-0.2,0.1-0.5,0.3-0.6s0.5-0.2,0.7-0.2h0.3
						c0.1,0,0.2,0.1,0.2,0.1c0.2,0.1,0.3,0.2,0.5,0.2l-0.3,0.4c-0.1-0.1-0.2-0.2-0.3-0.2c-0.2-0.1-0.2-0.1-0.4-0.1
						c-0.2,0-0.2,0-0.3,0.1s-0.1,0.2-0.1,0.2c0,0.1,0,0.2,0.1,0.2c0.1,0.1,0.2,0.1,0.3,0.1h0.5c0.2,0,0.5,0.1,0.6,0.2
						c0.2,0.2,0.2,0.4,0.2,0.5c0,0.2-0.1,0.5-0.3,0.6c-0.2,0.2-0.5,0.2-0.8,0.2c-0.5,0-0.8-0.2-1.2-0.5L265.3,231z"/>
					<path class="st35" d="M267.7,229h0.5l0.1,2.8h-0.5L267.7,229z M267.7,227.9h0.5v0.5h-0.5V227.9z"/>
					<path class="st35" d="M268.9,228.2h0.5v0.8h0.4v0.5h-0.4v1.6c0,0.2,0.1,0.2,0.2,0.2h0.2v0.5h-0.3c-0.2,0-0.3-0.1-0.5-0.2
						c-0.2-0.2-0.2-0.3-0.2-0.5v-1.6h-0.2v-0.5h0.2V228.2z"/>
					<path class="st35" d="M270.4,229h0.5v2.8h-0.5V229z M270.4,227.9h0.5v0.5h-0.5V227.9z"/>
					<path class="st35" d="M271.2,229h0.5l0.6,1.9l0.6-1.9h0.5l-0.9,2.8h-0.5L271.2,229z"/>
					<path class="st35" d="M274.2,230.5c0,0.2,0.1,0.4,0.2,0.5c0.2,0.1,0.3,0.2,0.5,0.2c0.2,0,0.5-0.1,0.5-0.3l0.4,0.3
						c-0.2,0.3-0.5,0.5-0.9,0.5c-0.2,0-0.3,0-0.4-0.1c-0.2-0.1-0.2-0.2-0.4-0.2c-0.2-0.2-0.2-0.2-0.3-0.5c-0.1-0.2-0.2-0.5-0.2-0.7
						c0-0.2,0-0.5,0.1-0.7c0.1-0.2,0.2-0.3,0.2-0.5c0.1-0.1,0.2-0.2,0.4-0.2c0.2-0.1,0.2-0.1,0.4-0.1c0.3,0,0.5,0.1,0.8,0.3
						c0.2,0.2,0.3,0.5,0.3,0.8v0.5L274.2,230.5z M275.4,230c0-0.2-0.1-0.4-0.2-0.5c-0.1-0.1-0.2-0.2-0.4-0.2s-0.3,0.1-0.4,0.2
						c-0.1,0.2-0.2,0.3-0.2,0.5H275.4z"/>
					<path class="st35" d="M276.6,230.8c0.2,0.2,0.5,0.4,0.8,0.3c0.2,0,0.2,0,0.4-0.1c0.1-0.1,0.2-0.2,0.2-0.2c0-0.1,0-0.2-0.1-0.2
						c-0.1-0.1-0.2-0.1-0.2-0.1h-0.5c-0.2,0-0.4-0.1-0.5-0.2c-0.2-0.2-0.2-0.3-0.2-0.5c0-0.2,0.1-0.5,0.3-0.6
						c0.2-0.2,0.5-0.2,0.7-0.2h0.3c0.1,0,0.2,0.1,0.3,0.1c0.2,0.1,0.3,0.2,0.5,0.2l-0.3,0.4c-0.1-0.1-0.2-0.2-0.3-0.2
						c-0.2-0.1-0.2-0.1-0.4-0.1s-0.2,0-0.3,0.1c-0.1,0.1-0.1,0.2-0.1,0.2s0,0.2,0.1,0.2c0.1,0.1,0.2,0.1,0.2,0.1h0.5
						c0.2,0,0.5,0.1,0.6,0.2s0.2,0.4,0.2,0.5c0,0.2-0.1,0.5-0.3,0.6c-0.2,0.2-0.5,0.2-0.8,0.2c-0.5,0-0.8-0.2-1.2-0.5L276.6,230.8z"
						/>
					<path class="st35" d="M279.7,232.2c-1.1-1.2-1.2-3.2-0.1-4.4h0.2c-0.6,1.4-0.6,3,0.1,4.4H279.7z"/>
					<g>
						<path class="st38" d="M280.3,228.9h0.5v0.3c0.2-0.2,0.4-0.3,0.7-0.3c0.3,0,0.5,0.1,0.7,0.4c0.1,0.1,0.2,0.2,0.2,0.3
							c0,0.2,0.1,0.5,0.1,0.7v0.7c0,0.2-0.1,0.2-0.2,0.4c-0.1,0.1-0.2,0.2-0.3,0.2c-0.2,0.1-0.3,0.1-0.4,0.1c-0.2,0-0.2,0-0.4-0.1
							c-0.2-0.1-0.2-0.2-0.3-0.2v1.4h-0.5L280.3,228.9z M281.4,231c0.1,0,0.2,0,0.3-0.1c0.1-0.1,0.2-0.2,0.2-0.2
							c0-0.1,0.1-0.2,0.1-0.3v-0.6c0-0.1,0-0.2-0.1-0.3c0-0.1-0.1-0.2-0.2-0.2c-0.1-0.1-0.2-0.1-0.3-0.1c-0.1,0-0.2,0-0.3,0.1
							c-0.1,0.1-0.2,0.2-0.2,0.2c0,0.1-0.1,0.2-0.1,0.3v0.6c0,0.1,0,0.2,0.1,0.3C281,230.9,281.2,231.1,281.4,231z"/>
						<path class="st38" d="M283,228.8h0.5v0.3c0.2-0.2,0.4-0.3,0.7-0.3c0.2,0,0.4,0.1,0.5,0.2l-0.4,0.5c-0.1-0.1-0.2-0.2-0.4-0.2
							s-0.2,0.1-0.3,0.2c-0.2,0.2-0.2,0.3-0.2,0.5v1.6H283V228.8z"/>
						<path class="st38" d="M285,228.8h0.5v2.8H285V228.8z M285,227.6h0.5v0.5H285V227.6z"/>
						<path class="st38" d="M285.9,228.7h0.5l0.6,1.9l0.6-1.9h0.5l-0.9,2.8h-0.5L285.9,228.7z"/>
						<path class="st38" d="M288.6,228.7h0.5l0.1,2.8h-0.5L288.6,228.7z M288.6,227.5h0.5v0.5h-0.5V227.5z"/>
						<path class="st38" d="M289.8,227.5h0.5l0.1,3.2c0,0.1,0.1,0.2,0.2,0.2h0.2v0.5h-0.2c-0.2,0-0.3-0.1-0.5-0.2
							c-0.2-0.2-0.2-0.3-0.2-0.5L289.8,227.5z"/>
						<path class="st38" d="M291.6,230.2c0,0.2,0.1,0.4,0.2,0.5c0.2,0.2,0.3,0.2,0.5,0.2c0.2,0,0.5-0.1,0.5-0.3l0.4,0.3
							c-0.2,0.3-0.5,0.5-0.9,0.5c-0.2,0-0.3,0-0.4-0.1c-0.1,0-0.2-0.1-0.2-0.1c-0.1,0-0.2-0.1-0.2-0.2c-0.2-0.2-0.2-0.2-0.3-0.5
							c-0.1-0.2-0.2-0.5-0.2-0.7c0-0.2,0-0.5,0.1-0.7c0.1-0.2,0.2-0.3,0.2-0.5c0.1-0.1,0.2-0.2,0.3-0.2c0.2-0.1,0.2-0.1,0.4-0.1
							c0.3,0,0.5,0.1,0.8,0.3c0.2,0.2,0.3,0.5,0.3,0.8v0.5L291.6,230.2z M292.6,229.8c0-0.2-0.1-0.4-0.2-0.5c-0.2-0.2-0.5-0.2-0.8,0
							c-0.1,0.2-0.2,0.3-0.2,0.5H292.6z"/>
						<path class="st38" d="M295.2,231c-0.2,0.2-0.4,0.3-0.7,0.3c-0.2,0-0.3,0-0.5-0.1c-0.1-0.1-0.2-0.2-0.3-0.2
							c-0.1-0.1-0.2-0.2-0.2-0.3c-0.1-0.2-0.1-0.5-0.1-0.8v-0.8c0-0.2,0.1-0.2,0.2-0.3c0.3-0.4,0.8-0.5,1.2-0.2
							c0.1,0.1,0.1,0.1,0.2,0.2v-0.3h0.5v2.7c0,0.3-0.1,0.7-0.3,0.9c-0.2,0.2-0.5,0.3-0.8,0.3c-0.4,0-0.7-0.2-0.9-0.5l0.4-0.4
							c0.1,0.1,0.2,0.2,0.2,0.2c0.1,0.1,0.2,0.1,0.3,0.1c0.3,0,0.5-0.2,0.6-0.5v-0.1L295.2,231z M294.2,229.5v0.9
							c0,0.1,0,0.2,0.1,0.2c0.1,0.1,0.1,0.1,0.2,0.2c0.1,0.1,0.2,0.1,0.2,0.1c0.1,0,0.2,0,0.2-0.1c0.1,0,0.1-0.1,0.2-0.2
							c0.1-0.1,0.1-0.2,0.1-0.2v-0.9c0-0.1-0.1-0.2-0.1-0.2c-0.1-0.1-0.1-0.1-0.2-0.2c-0.1-0.1-0.2-0.1-0.2-0.1
							c-0.1,0-0.2,0-0.2,0.1c-0.1,0.1-0.1,0.1-0.2,0.2C294.2,229.4,294.2,229.5,294.2,229.5z"/>
						<path class="st38" d="M296.8,230.2c0,0.2,0.1,0.4,0.2,0.5c0.2,0.2,0.3,0.2,0.5,0.2c0.2,0,0.5-0.1,0.5-0.3l0.4,0.3
							c-0.2,0.3-0.5,0.5-0.9,0.5c-0.2,0-0.3,0-0.4-0.1c-0.1,0-0.2-0.1-0.2-0.1s-0.2-0.1-0.2-0.2c-0.2-0.2-0.2-0.2-0.3-0.5
							c-0.1-0.2-0.2-0.5-0.2-0.7c0-0.2,0-0.5,0.1-0.7c0.1-0.2,0.2-0.3,0.2-0.5c0.1-0.1,0.2-0.2,0.4-0.2c0.4-0.2,0.8-0.1,1.2,0.2
							c0.2,0.2,0.3,0.5,0.3,0.8v0.5L296.8,230.2z M297.9,229.7c0-0.2-0.1-0.4-0.2-0.5c-0.1-0.1-0.2-0.2-0.4-0.2s-0.3,0.1-0.4,0.2
							c-0.1,0.2-0.2,0.3-0.2,0.5H297.9z"/>
						<path class="st38" d="M300.6,230.9c-0.2,0.2-0.4,0.3-0.7,0.3c-0.2,0-0.3,0-0.4-0.1c-0.2-0.1-0.2-0.2-0.3-0.2s-0.2-0.2-0.2-0.4
							c0-0.2-0.1-0.5-0.1-0.7v-0.7c0-0.2,0.1-0.2,0.2-0.3c0.2-0.2,0.4-0.4,0.7-0.4c0.2,0,0.2,0,0.4,0.1c0.1,0.1,0.2,0.2,0.3,0.2
							v-1.4h0.5l0.1,3.8h-0.5V230.9z M300,229c-0.1,0-0.2,0-0.3,0.1c-0.1,0.1-0.2,0.2-0.2,0.2c0,0.1-0.1,0.2-0.1,0.3v0.6
							c0,0.1,0,0.2,0.1,0.3c0.1,0.2,0.2,0.3,0.5,0.2c0.1,0,0.2,0,0.3-0.1c0.1-0.1,0.2-0.2,0.2-0.2c0-0.1,0.1-0.2,0.1-0.3v-0.6
							c0-0.1,0-0.2-0.1-0.3c0-0.1-0.1-0.2-0.2-0.2H300z"/>
					</g>
					<path class="st35" d="M301.9,227.4c1.1,1.2,1.2,3.2,0.1,4.4h-0.2c0.6-1.4,0.6-3-0.1-4.4H301.9z"/>
				</g>
				<g>
					<path class="st35" d="M234.5,236.5h0.4l-1.2,3.9h-0.4L234.5,236.5z"/>
					<g>
						<path class="st36" d="M238.1,239.5c0.2,0.2,0.5,0.4,0.8,0.3c0.2,0,0.2,0,0.4-0.1c0.1-0.1,0.2-0.2,0.2-0.2c0-0.1,0-0.2-0.1-0.2
							c-0.1-0.1-0.2-0.1-0.2-0.1h-0.5c-0.2,0-0.4-0.1-0.5-0.2s-0.2-0.3-0.2-0.5c0-0.2,0.1-0.5,0.3-0.6c0.2-0.2,0.5-0.2,0.7-0.2h0.3
							c0.1,0,0.2,0.1,0.2,0.1c0.2,0.1,0.3,0.2,0.5,0.3l-0.3,0.4c-0.1-0.1-0.2-0.2-0.3-0.2c-0.2-0.1-0.2-0.1-0.4-0.1s-0.2,0-0.3,0.1
							c-0.1,0.1-0.1,0.2-0.1,0.2c0,0.1,0,0.2,0.1,0.2c0.1,0.1,0.2,0.1,0.3,0.1h0.5c0.2,0,0.5,0.1,0.6,0.2c0.2,0.2,0.2,0.4,0.2,0.5
							c0,0.2-0.1,0.5-0.3,0.6c-0.2,0.2-0.5,0.2-0.8,0.2c-0.5,0-0.8-0.2-1.2-0.5L238.1,239.5z"/>
						<path class="st36" d="M240.9,239.1c0,0.2,0.1,0.4,0.2,0.5c0.2,0.1,0.3,0.2,0.5,0.2c0.2,0,0.5-0.1,0.5-0.3l0.4,0.3
							c-0.2,0.3-0.5,0.5-0.9,0.5c-0.2,0-0.3,0-0.4-0.1c-0.1,0-0.2-0.1-0.2-0.1c-0.1,0-0.2-0.1-0.2-0.2c-0.2-0.2-0.2-0.2-0.3-0.5
							c-0.1-0.2-0.2-0.5-0.2-0.7c0-0.2,0-0.5,0.1-0.7c0.1-0.2,0.2-0.3,0.2-0.5c0.1-0.1,0.2-0.2,0.3-0.2c0.4-0.2,0.8-0.1,1.2,0.2
							c0.2,0.2,0.3,0.5,0.3,0.8v0.5L240.9,239.1z M242,238.6c0-0.2-0.1-0.4-0.2-0.5c-0.1-0.1-0.2-0.2-0.4-0.2
							c-0.2,0-0.3,0.1-0.4,0.2c-0.1,0.2-0.2,0.3-0.2,0.5H242z"/>
						<path class="st36" d="M243,236.4h0.5l0.1,3.2c0,0.1,0.1,0.2,0.2,0.2h0.2v0.5h-0.2c-0.2,0-0.3-0.1-0.5-0.2
							c-0.2-0.2-0.2-0.3-0.2-0.5L243,236.4z"/>
						<path class="st36" d="M244.5,237.9h-0.2v-0.5h0.2V237c0-0.2,0.1-0.5,0.2-0.6c0.2-0.2,0.3-0.2,0.5-0.2h0.3v0.5h-0.3
							c-0.2,0-0.2,0.1-0.2,0.2v0.4h0.5v0.4H245v2.3h-0.5V237.9z"/>
					</g>
					<rect x="245.9" y="239.6" class="st35" width="0.5" height="0.5"/>
					<path class="st35" d="M247.1,237.4h0.5v0.3c0.2-0.2,0.4-0.3,0.7-0.3c0.2,0,0.5,0.1,0.6,0.2c0.2,0.2,0.3,0.5,0.3,0.7v1.8h-0.5
						v-1.6c0-0.2-0.1-0.3-0.2-0.5c-0.1-0.1-0.2-0.2-0.4-0.2s-0.3,0.1-0.4,0.2c-0.1,0.2-0.2,0.3-0.2,0.5v1.6h-0.5V237.4z"/>
					<path class="st35" d="M249.9,237.4h0.5v1.6c0,0.2,0.1,0.3,0.2,0.5c0.2,0.2,0.5,0.2,0.8,0c0.1-0.2,0.2-0.3,0.2-0.5v-1.6h0.5
						l0.1,2.8h-0.5v-0.3c-0.2,0.2-0.4,0.3-0.7,0.3c-0.5,0-0.9-0.5-0.9-0.9L249.9,237.4z"/>
					<path class="st35" d="M252.6,237.3h0.5v0.3c0.2-0.2,0.4-0.3,0.7-0.3c0.2,0,0.3,0,0.5,0.1c0.1,0.1,0.2,0.2,0.3,0.2
						c0.2-0.2,0.5-0.4,0.8-0.4c0.2,0,0.5,0.1,0.6,0.2c0.2,0.2,0.3,0.5,0.3,0.7v1.8h-0.5v-1.6c0-0.2-0.1-0.3-0.2-0.5
						c-0.1-0.1-0.2-0.2-0.4-0.2c-0.2,0-0.3,0.1-0.4,0.2c-0.1,0.2-0.2,0.3-0.2,0.5v1.6h-0.5v-1.6c0-0.2-0.1-0.3-0.2-0.5
						c-0.2-0.2-0.5-0.2-0.8,0c-0.1,0.2-0.2,0.3-0.2,0.5v1.6h-0.5V237.3z"/>
					<path class="st35" d="M256.7,240.4h2.5v0.2l-2.5,0.1V240.4z"/>
					<path class="st35" d="M259.5,237.2h0.5v2.8h-0.5V237.2z M259.5,236.1h0.5v0.5h-0.5V236.1z"/>
					<path class="st35" d="M260.8,237.2h0.5v0.3c0.2-0.2,0.4-0.3,0.7-0.3c0.2,0,0.5,0.1,0.6,0.2c0.2,0.2,0.3,0.5,0.3,0.7v1.8h-0.5
						v-1.6c0-0.2-0.1-0.3-0.2-0.5c-0.1-0.1-0.2-0.2-0.4-0.2c-0.2,0-0.3,0.1-0.4,0.2c-0.1,0.2-0.2,0.3-0.2,0.5v1.6h-0.5V237.2z"/>
					<path class="st35" d="M263.7,239.1c0.2,0.2,0.5,0.4,0.8,0.3c0.2,0,0.2,0,0.4-0.1c0.1-0.1,0.2-0.2,0.2-0.2c0-0.1,0-0.2-0.1-0.2
						c-0.1-0.1-0.2-0.1-0.2-0.1h-0.5c-0.2,0-0.4-0.1-0.5-0.2c-0.2-0.2-0.2-0.3-0.2-0.5c0-0.2,0.1-0.5,0.3-0.6
						c0.2-0.2,0.5-0.2,0.7-0.2h0.3c0.1,0,0.2,0.1,0.2,0.1c0.2,0.1,0.3,0.2,0.5,0.2l-0.3,0.4c-0.1-0.1-0.2-0.2-0.3-0.2
						c-0.2-0.1-0.2-0.1-0.4-0.1c-0.2,0-0.2,0-0.3,0.1c-0.1,0.1-0.1,0.2-0.1,0.2c0,0.1,0,0.2,0.1,0.2c0.1,0.1,0.2,0.1,0.2,0.1h0.5
						c0.2,0,0.5,0.1,0.6,0.2c0.2,0.2,0.2,0.4,0.2,0.5c0,0.2-0.1,0.5-0.3,0.6c-0.2,0.2-0.5,0.2-0.8,0.2c-0.5,0-0.8-0.2-1.2-0.5
						L263.7,239.1z"/>
					<path class="st35" d="M266.1,236.2h0.5v0.8h0.4v0.5h-0.4v1.6c0,0.2,0.1,0.2,0.2,0.2h0.2v0.5h-0.3c-0.2,0-0.3-0.1-0.5-0.2
						c-0.2-0.2-0.2-0.3-0.2-0.5v-1.6h-0.2v-0.5h0.2V236.2z"/>
					<path class="st35" d="M268.9,239.5c-0.1,0.1-0.2,0.2-0.2,0.2c-0.2,0.1-0.3,0.1-0.4,0.1c-0.2,0-0.5-0.1-0.7-0.2
						c-0.2-0.2-0.2-0.4-0.2-0.6c0-0.2,0.1-0.4,0.2-0.6c0.2-0.2,0.4-0.2,0.6-0.2h0.7v-0.3c0-0.2-0.2-0.4-0.5-0.3
						c-0.1,0-0.2,0-0.3,0.1c-0.1,0-0.2,0.1-0.2,0.2l-0.4-0.3c0.2-0.3,0.5-0.5,0.8-0.4c0.3,0,0.5,0.1,0.8,0.2
						c0.2,0.2,0.3,0.5,0.3,0.7v1.8h-0.5V239.5z M268.9,238.6h-0.6c-0.3,0-0.5,0.2-0.5,0.3c0,0.1,0.1,0.2,0.2,0.2
						c0.1,0.1,0.2,0.2,0.4,0.1c0.2,0,0.3,0,0.5-0.1c0.1-0.1,0.2-0.2,0.2-0.4L268.9,238.6z"/>
					<path class="st35" d="M270,237h0.5v0.3c0.2-0.2,0.4-0.3,0.7-0.3c0.2,0,0.5,0.1,0.6,0.2c0.2,0.2,0.3,0.5,0.3,0.7v1.8h-0.5v-1.6
						c0-0.2-0.1-0.3-0.2-0.5c-0.1-0.1-0.2-0.2-0.4-0.2c-0.2,0-0.3,0.1-0.4,0.2c-0.1,0.2-0.2,0.3-0.2,0.5v1.6H270V237z"/>
					<path class="st35" d="M274.8,239.2c-0.1,0.2-0.2,0.2-0.4,0.3c-0.2,0.1-0.4,0.2-0.5,0.2c-0.3,0-0.6-0.1-0.8-0.3
						c-0.3-0.3-0.4-0.7-0.4-1.1c0-0.4,0.1-0.8,0.4-1.1c0.2-0.2,0.5-0.3,0.8-0.3c0.2,0,0.4,0,0.5,0.2c0.2,0.1,0.3,0.2,0.4,0.3
						l-0.4,0.4c-0.2-0.2-0.3-0.3-0.5-0.3c-0.5,0-0.7,0.3-0.7,0.8c0,0.5,0.2,0.8,0.7,0.8c0.2,0,0.4-0.1,0.5-0.3L274.8,239.2z"/>
					<path class="st35" d="M275.6,238.5c0,0.2,0.1,0.4,0.2,0.5c0.2,0.2,0.3,0.2,0.5,0.2c0.2,0,0.5-0.1,0.5-0.3l0.4,0.3
						c-0.2,0.3-0.5,0.5-0.9,0.5c-0.2,0-0.3,0-0.4-0.1c-0.1,0-0.2-0.1-0.2-0.1s-0.2-0.1-0.2-0.2c-0.2-0.2-0.2-0.2-0.3-0.5
						s-0.2-0.5-0.2-0.7c0-0.2,0-0.5,0.1-0.7c0.1-0.2,0.2-0.3,0.2-0.5c0.1-0.1,0.2-0.2,0.4-0.2c0.4-0.2,0.8-0.1,1.2,0.2
						c0.2,0.2,0.3,0.5,0.3,0.8v0.5L275.6,238.5z M276.6,238.1c0-0.2-0.1-0.4-0.2-0.5c-0.2-0.2-0.5-0.2-0.8,0
						c-0.1,0.2-0.2,0.3-0.2,0.5H276.6z"/>
					<path class="st35" d="M277.8,238.9c0.2,0.2,0.5,0.4,0.8,0.3c0.2,0,0.2,0,0.4-0.1c0.1-0.1,0.2-0.2,0.2-0.2c0-0.1,0-0.2-0.1-0.2
						c-0.1-0.1-0.2-0.1-0.2-0.1h-0.5c-0.2,0-0.4-0.1-0.5-0.2c-0.2-0.2-0.2-0.3-0.2-0.5s0.1-0.5,0.3-0.6c0.2-0.2,0.5-0.2,0.7-0.2h0.3
						c0.1,0,0.2,0.1,0.3,0.1c0.2,0.1,0.3,0.2,0.5,0.2l-0.3,0.4c-0.1-0.1-0.2-0.2-0.3-0.2c-0.2-0.1-0.2-0.1-0.4-0.1s-0.2,0-0.3,0.1
						c-0.1,0.1-0.1,0.2-0.1,0.2c0,0.1,0,0.2,0.1,0.2c0.1,0.1,0.2,0.1,0.2,0.1h0.5c0.2,0,0.5,0.1,0.6,0.2c0.2,0.2,0.2,0.4,0.2,0.5
						c0,0.2-0.1,0.5-0.3,0.6c-0.2,0.2-0.5,0.2-0.8,0.2c-0.5,0-0.8-0.2-1.2-0.5L277.8,238.9z"/>
					<path class="st35" d="M281,240.2c-1.1-1.2-1.2-3.2-0.1-4.4h0.2c-0.6,1.4-0.6,3,0.1,4.4H281z"/>
					<g>
						<path class="st38" d="M281.6,236.9h0.5v0.3c0.2-0.2,0.4-0.3,0.7-0.3s0.5,0.1,0.7,0.4c0.1,0.1,0.2,0.2,0.2,0.3
							c0.1,0.5,0.1,0.9,0,1.4c0,0.2-0.1,0.2-0.2,0.4c-0.1,0.1-0.2,0.2-0.3,0.2c-0.2,0.1-0.3,0.1-0.4,0.1c-0.2,0-0.2,0-0.4-0.1
							c-0.2-0.1-0.2-0.2-0.3-0.2v1.4h-0.5V236.9z M282.6,239.1c0.1,0,0.2,0,0.3-0.1c0.1-0.1,0.2-0.2,0.2-0.2c0-0.1,0.1-0.2,0.1-0.3
							v-0.6c0-0.1,0-0.2-0.1-0.3c0-0.1-0.1-0.2-0.2-0.2c-0.1-0.1-0.2-0.1-0.3-0.1c-0.1,0-0.2,0-0.3,0.1c-0.1,0.1-0.2,0.2-0.2,0.2
							c0,0.1-0.1,0.2-0.1,0.3v0.6c0,0.1,0,0.2,0.1,0.3C282.3,238.9,282.5,239.1,282.6,239.1z"/>
						<path class="st38" d="M284.2,236.8h0.5v0.3c0.2-0.2,0.4-0.3,0.7-0.3c0.2,0,0.4,0.1,0.5,0.2l-0.4,0.5c-0.1-0.1-0.2-0.2-0.4-0.2
							s-0.2,0.1-0.3,0.2c-0.2,0.2-0.2,0.3-0.2,0.5v1.6h-0.5V236.8z"/>
						<path class="st38" d="M286.2,236.8h0.5v2.8h-0.5V236.8z M286.2,235.6h0.5v0.5h-0.5V235.6z"/>
						<path class="st38" d="M287.2,236.8h0.5l0.6,1.9l0.6-1.9h0.5l-0.9,2.8h-0.5L287.2,236.8z"/>
						<path class="st38" d="M289.8,236.7h0.5v2.8h-0.5V236.7z M289.8,235.6h0.5v0.5h-0.5V235.6z"/>
						<path class="st38" d="M291,235.5h0.5l0.1,3.2c0,0.1,0.1,0.2,0.2,0.2h0.2v0.5h-0.2c-0.2,0-0.3-0.1-0.5-0.2
							c-0.2-0.2-0.2-0.3-0.2-0.5L291,235.5z"/>
						<path class="st38" d="M292.8,238.2c0,0.2,0.1,0.4,0.2,0.5c0.2,0.2,0.3,0.2,0.5,0.2c0.2,0,0.5-0.1,0.5-0.3l0.4,0.3
							c-0.2,0.3-0.5,0.5-0.9,0.5c-0.2,0-0.3,0-0.4-0.1c-0.1,0-0.2-0.1-0.2-0.1c-0.1,0-0.2-0.1-0.2-0.2c-0.2-0.2-0.2-0.2-0.3-0.5
							c-0.1-0.2-0.2-0.5-0.2-0.7s0-0.5,0.1-0.7c0.1-0.2,0.2-0.3,0.2-0.5c0.1-0.1,0.2-0.2,0.3-0.2c0.2-0.1,0.2-0.1,0.4-0.1
							c0.3,0,0.5,0.1,0.8,0.3c0.2,0.2,0.3,0.5,0.3,0.8v0.5L292.8,238.2z M293.9,237.8c0-0.2-0.1-0.4-0.2-0.5
							c-0.1-0.1-0.2-0.2-0.4-0.2c-0.2,0-0.3,0.1-0.4,0.2c-0.1,0.2-0.2,0.3-0.2,0.5H293.9z"/>
						<path class="st38" d="M296.4,239.1c-0.2,0.2-0.4,0.3-0.7,0.3c-0.2,0-0.3,0-0.5-0.1c-0.1-0.1-0.2-0.2-0.3-0.2
							c-0.1-0.1-0.2-0.2-0.2-0.3c-0.1-0.2-0.1-0.5-0.1-0.8v-0.8c0-0.2,0.1-0.2,0.2-0.3c0.1-0.1,0.2-0.2,0.2-0.2
							c0.4-0.2,0.8-0.2,1.1,0.2v-0.3h0.5v2.7c0,0.3-0.1,0.7-0.3,0.9c-0.2,0.2-0.5,0.3-0.8,0.3c-0.4,0-0.7-0.2-0.9-0.5l0.4-0.4
							c0.1,0.1,0.2,0.2,0.2,0.2c0.1,0.1,0.2,0.1,0.3,0.1c0.3,0,0.5-0.2,0.6-0.5v-0.1L296.4,239.1z M295.4,237.5v0.9
							c0,0.1,0.1,0.2,0.1,0.2c0.1,0.1,0.1,0.1,0.2,0.2c0.1,0.1,0.2,0.1,0.2,0.1c0.1,0,0.2,0,0.2-0.1c0.1,0,0.1-0.1,0.2-0.2
							c0.1-0.1,0.1-0.2,0.1-0.2v-0.9c0-0.1-0.1-0.2-0.1-0.2c-0.1-0.1-0.1-0.1-0.2-0.2c-0.1-0.1-0.2-0.1-0.2-0.1
							c-0.1,0-0.2,0-0.2,0.1c-0.1,0.1-0.1,0.1-0.2,0.2C295.4,237.4,295.4,237.5,295.4,237.5z"/>
						<path class="st38" d="M298,238.2c0,0.2,0.1,0.4,0.2,0.5c0.2,0.2,0.3,0.2,0.5,0.2c0.2,0,0.5-0.1,0.5-0.3l0.4,0.3
							c-0.2,0.3-0.5,0.5-0.9,0.5c-0.2,0-0.3,0-0.4-0.1c-0.2-0.1-0.2-0.2-0.4-0.2c-0.2-0.2-0.2-0.2-0.3-0.5c-0.1-0.2-0.2-0.5-0.2-0.7
							c0-0.2,0-0.5,0.1-0.7c0.1-0.2,0.2-0.3,0.2-0.5c0.1-0.1,0.2-0.2,0.3-0.2c0.2-0.1,0.2-0.1,0.4-0.1c0.3,0,0.5,0.1,0.8,0.3
							c0.2,0.2,0.3,0.5,0.3,0.8v0.5L298,238.2z M299.1,237.7c0-0.2-0.1-0.4-0.2-0.5c-0.1-0.1-0.2-0.2-0.4-0.2s-0.3,0.1-0.4,0.2
							c-0.1,0.2-0.2,0.3-0.2,0.5H299.1z"/>
						<path class="st38" d="M301.8,238.9c-0.2,0.2-0.4,0.3-0.7,0.3c-0.2,0-0.3,0-0.4-0.1c-0.2-0.1-0.2-0.2-0.3-0.2
							c-0.1-0.1-0.2-0.2-0.2-0.4c0-0.2-0.1-0.5-0.1-0.7v-0.7c0-0.2,0.1-0.2,0.2-0.3c0.2-0.2,0.4-0.4,0.7-0.4c0.2,0,0.2,0,0.4,0.1
							c0.1,0.1,0.2,0.2,0.3,0.2v-1.4h0.5l0.1,3.8h-0.5V238.9z M301.2,237c-0.1,0-0.2,0-0.3,0.1c-0.1,0.1-0.2,0.2-0.2,0.2
							c0,0.1-0.1,0.2-0.1,0.3v0.6c0,0.1,0,0.2,0.1,0.3c0,0.1,0.1,0.2,0.2,0.2c0.1,0.1,0.2,0.1,0.3,0.1c0.1,0,0.2,0,0.3-0.1
							c0.1-0.1,0.2-0.2,0.2-0.2c0-0.1,0.1-0.2,0.1-0.3v-0.6c0-0.1,0-0.2-0.1-0.3c0-0.1-0.1-0.2-0.2-0.2
							C301.5,237.1,301.3,237,301.2,237z"/>
					</g>
					<path class="st35" d="M303.1,235.4c1.1,1.2,1.2,3.2,0.1,4.4h-0.2c0.6-1.4,0.6-3-0.1-4.4H303.1z"/>
				</g>
				<path class="st12" d="M211.9,224.4h-0.4l0.2,27.8h0.4L211.9,224.4z"/>
				<path class="st12" d="M231.5,233.9h-0.4l0.1,6.8h0.4L231.5,233.9z"/>
				<path class="st12" d="M223.2,234h-0.4l0.1,12.8h0.4L223.2,234z"/>
			</g>
			<g>
				<path class="st23" d="M257.8,278.3c1.4-1.5,3.5-4.8,4.3-4.4c1.7,0.6-0.9,5-0.9,5l5.9-0.2c0,0,1.1,5.1-8.3,6.3
					c0,0-4.9,19.4-12.4,18.8c-8.3-0.7-37.6-22.9-37.6-22.9s14.3-17.8,23.7-6.6l15.5,15.6C247.9,289.9,255.5,281,257.8,278.3z"/>
				<g>
					<g>
						<g>
							<defs>
								<path id="SVGID_23_" d="M257.8,278.3c1.4-1.5,3.5-4.8,4.3-4.4c1.7,0.6-0.9,5-0.9,5l5.9-0.2c0,0,1.1,5.1-8.3,6.3
									c0,0-4.9,19.4-12.4,18.8c-8.3-0.7-37.6-22.9-37.6-22.9s14.3-17.8,23.7-6.6l15.5,15.6C247.9,289.9,255.5,281,257.8,278.3z"/>
							</defs>
							<clipPath id="SVGID_24_">
								<use xlink:href="#SVGID_23_"  style="overflow:visible;"/>
							</clipPath>
							<g class="st39">
								<g>
									<path class="st25" d="M245.9,285c0,1.7-0.3,3.4-0.9,5c-1,2.4-2.9,4.2-4.5,6.1c-0.9,1.2-1.9,2.8-0.5,4.1
										c3.1,2.8,8,2.6,11.5,1c1.5-0.7,2.8-1.5,4.2-2.5c0.3-0.2,0.6-0.4,1-0.5c0.2-0.1,0.4-0.1,0.4,0.2c0,0.6-0.7,1.4-1.1,1.8
										c-1.4,1.5-3,2.8-4.9,3.8c-4.5,2.3-10.2,1.7-14.8,0.2c-2.6-0.8-5.3-2.5-6.3-5.2c-0.8-2.2-0.4-4.8,0.5-6.9
										c1.4-3.4,3.5-6.4,6.3-8.8c1.8-1.5,3.8-2.8,6.3-2.9L245.9,285z"/>
									<path class="st10" d="M221.9,305.2c1.2-0.5,2.3-1.7,3.3-2.5c2.3-1.9,8.8-6.8,11.7-7.2c7.4-1.1,18.4-26.5,9.2-41.9
										c-1.2-2-2.8-3.8-4.6-5.3c-2.5-2-5.4-3.5-8.5-4.3c-18.8-4.8-37.2,12-41,29.4c-2.8,12.3,0.8,25.2,9.5,34.3L221.9,305.2z"/>
								</g>
							</g>
						</g>
					</g>
				</g>
			</g>
			<path class="st40" d="M182.8,254.2c-1.2,1.4-2,3.1-3.1,4.5c-2.8,3.7-5.9,7.2-9.3,10.5c-4.4,4.2-10.2,7.2-11.6,13.5
				c-1.6,6.8,2.7,14.2,7.8,18.3c8.7,6.9,21.7,8.1,31.5,3.2c16.1-7.8,26.4-29.5,16.3-45.8c-1.3-2.1-2.9-4-4.8-5.7
				c-2.2-1.8-4.5-3.2-7.2-4.1"/>
			<g>
				<path class="st10" d="M228.5,271.3c-13.5-6.5-25.1-6.7-40.9-3.2c4.1,26.3-11.7,43.9-7.5,69.2c12.8,9.8,47.6,4,51.3-12.9
					C224.4,308.6,223.4,290.9,228.5,271.3z"/>
				<g>
					<g>
						<g>
							<defs>
								<path id="SVGID_25_" d="M228.5,271.3c-13.5-6.5-25.1-6.7-40.9-3.2c4.1,26.3-11.7,43.9-7.5,69.2c12.8,9.8,47.6,4,51.3-12.9
									C224.4,308.6,223.4,290.9,228.5,271.3z"/>
							</defs>
							<clipPath id="SVGID_26_">
								<use xlink:href="#SVGID_25_"  style="overflow:visible;"/>
							</clipPath>
							<g class="st41">
								<path class="st25" d="M242.2,283.6c-2.3,0.9-15,6.4-16.5,8.2c-6,6.8-1.4,29.7-3.2,35.1c-1.3,3.8-4.4,6.5-7.8,8.5
									c-7.2,4.2-15.4,6.2-23.7,5.4c-4.5-0.5-9-1.1-13.5-1.9c-0.8-0.2-4.8-1.1-3.8,1c1.2,2.4,4.6,3.8,6.8,4.8
									c7.2,3.5,15,4.7,22.9,4.4c7.3-0.3,14.5-1.4,21.7-3.2c6.7-1.7,13.4-4.2,18.7-8.8c14.8-12.5,12.3-37.2-3.2-48L242.2,283.6z"/>
							</g>
						</g>
					</g>
				</g>
			</g>
			<g>
				<path class="st23" d="M212.9,251.5h-11.2c0.6,6.5-0.3,11.2-2.5,14.5c-0.7,4,8.5,3.7,11.2,0C209.8,262.9,210.2,258.5,212.9,251.5
					z"/>
				<g>
					<g>
						<g>
							<defs>
								<path id="SVGID_27_" d="M212.9,251.5h-11.2c0.6,6.5-0.3,11.2-2.5,14.5c-0.7,4,8.5,3.7,11.2,0
									C209.8,262.9,210.2,258.5,212.9,251.5z"/>
							</defs>
							<clipPath id="SVGID_28_">
								<use xlink:href="#SVGID_27_"  style="overflow:visible;"/>
							</clipPath>
							<g class="st42">
								<path class="st43" d="M202.9,255.5c0.8,0.3,1.5,0,2.2,0.5c1.7,1.1,1.2,4.7,2.9,5.8c1.1,0.8,2.2,2.1,3.6,2.2
									c2,0.1,2.1-1.5,2.2-3.1v-1.2c0-0.5,0-0.9-0.1-1.4c-0.3-3-1.8-6.2-4.2-7.9c-0.6-0.5-1.3-0.8-2.1-1c-3.6-1-6.6,1.8-7.8,5
									L202.9,255.5z"/>
							</g>
						</g>
					</g>
				</g>
			</g>
			<path class="st23" d="M204.7,241.5c3.8,0,8.4,1.2,9.2,7.1c0.8,5.3,0,13.2-3.8,13.2s-10.9-4.2-11.6-9.5
				C197.8,246.5,200.8,241.5,204.7,241.5z"/>
			<path class="st44" d="M210.2,253.3c-0.1-0.5,1.3,1,2.2-0.4c0.5-1,0.3-5.2,1.4-5.4c0.6,0.7,4.5-1.1,5.1-1.6
				c1.3-1.3,1.9-3.2,1.8-4.9c-0.1-1-0.2-1.9-0.6-2.8c-0.3-0.8-0.7-1.5-1.2-2.1c-0.4-0.5-0.8-0.8-1.4-1.2c-3.8-2.4-8.6-0.1-11,3.2
				c-0.2,0.3-0.8,0.2-1.2,0.2c-0.6,0.2-1.2,0.4-1.8,0.7c-3.2,1.7-6.5,4.9-5.9,8.8c0.2,0.8-0.5,1.7-0.5,2.5c-0.2,2.9,0.8,6.3,3.7,7.5
				c1.8,0.8,3.9,0.4,5.7-0.2c1.6-0.5,1.8-0.8,2.9-2.2C209.9,254.9,210.2,254.2,210.2,253.3z"/>
			<g transform="matrix(0.9875,-0.1576,0.1576,0.9875,-42.5933,47.472)">
				
					<ellipse transform="matrix(-1 2.533797e-06 -2.533797e-06 -1 435.3924 484.3497)" class="st23" cx="217.7" cy="242.2" rx="1.2" ry="2"/>
			</g>
		</g>
		<g transform="matrix(0.902239,0,0,0.902239,34.4143,23.8293)">
			<g transform="matrix(1.4076,0,0,1.4076,-320.187,138.822)">
				<path class="st45" d="M460.2,75.3h1.2v-0.6c0-0.7,0.1-1.2,0.2-1.5c0.1-0.3,0.4-0.6,0.8-0.8c0.4-0.2,0.9-0.3,1.5-0.3
					c0.6,0,1.2,0.1,1.8,0.3l-0.3,1.5c-0.3-0.1-0.7-0.1-1-0.1c-0.3,0-0.5,0.1-0.7,0.2c-0.1,0.1-0.2,0.4-0.2,0.8v0.6h1.6V77h-1.6v6.5
					h-2.2V77h-1.2V75.3z"/>
				<path class="st45" d="M465.8,79.3c0-0.7,0.2-1.4,0.5-2.1c0.4-0.7,0.9-1.2,1.5-1.5c0.6-0.4,1.4-0.5,2.2-0.5c1.2,0,2.2,0.4,3,1.2
					c0.8,0.8,1.2,1.8,1.2,3c0,1.2-0.4,2.3-1.2,3.1c-0.8,0.8-1.8,1.2-3,1.2c-0.7,0-1.5-0.2-2.1-0.5c-0.7-0.3-1.2-0.8-1.5-1.5
					C466,81,465.8,80.2,465.8,79.3z M468,79.4c0,0.8,0.2,1.4,0.6,1.9c0.4,0.4,0.9,0.6,1.4,0.6c0.6,0,1-0.2,1.4-0.6
					c0.4-0.4,0.6-1.1,0.6-1.9c0-0.8-0.2-1.4-0.6-1.8c-0.4-0.4-0.9-0.6-1.4-0.6c-0.6,0-1,0.2-1.4,0.6C468.2,78,468,78.6,468,79.4z"/>
				<path class="st45" d="M478,83.5h-2.2v-8.1h2v1.2c0.3-0.5,0.7-0.9,0.9-1.1c0.3-0.2,0.6-0.3,0.9-0.3c0.5,0,1,0.1,1.4,0.4l-0.7,1.9
					c-0.4-0.2-0.7-0.4-1-0.4c-0.3,0-0.6,0.1-0.8,0.2c-0.2,0.2-0.4,0.5-0.5,0.9c-0.1,0.4-0.2,1.3-0.2,2.7V83.5z"/>
				<path class="st34" d="M491.1,80.9l2.1,0.4c-0.3,0.8-0.7,1.4-1.3,1.8c-0.6,0.4-1.3,0.6-2.2,0.6c-1.4,0-2.5-0.5-3.1-1.4
					c-0.5-0.7-0.8-1.7-0.8-2.8c0-1.4,0.4-2.4,1.1-3.2c0.7-0.8,1.6-1.1,2.7-1.1c1.2,0,2.2,0.4,2.9,1.2c0.7,0.8,1,2,1,3.7H488
					c0,0.6,0.2,1.1,0.5,1.5c0.3,0.4,0.7,0.5,1.2,0.5c0.3,0,0.6-0.1,0.9-0.3C490.8,81.6,491,81.3,491.1,80.9z M491.3,78.7
					c0-0.6-0.2-1.1-0.5-1.4c-0.3-0.3-0.7-0.5-1.1-0.5c-0.5,0-0.9,0.2-1.2,0.5c-0.3,0.3-0.5,0.8-0.5,1.4H491.3z"/>
				<rect x="495.1" y="72.2" class="st34" width="2.2" height="11.2"/>
				<path class="st34" d="M499.4,75.3h2v1.1c0.7-0.9,1.6-1.3,2.5-1.3c0.5,0,1,0.1,1.4,0.3c0.4,0.2,0.7,0.5,0.9,1
					c0.4-0.4,0.7-0.8,1.2-1c0.4-0.2,0.9-0.3,1.3-0.3c0.6,0,1.1,0.1,1.5,0.4c0.4,0.2,0.7,0.6,0.9,1.1c0.1,0.3,0.2,0.9,0.2,1.7v5.2
					h-2.2v-4.7c0-0.8-0.1-1.3-0.2-1.6c-0.2-0.3-0.5-0.5-0.9-0.5c-0.3,0-0.6,0.1-0.9,0.3c-0.3,0.2-0.5,0.5-0.6,0.8
					c-0.1,0.4-0.2,0.9-0.2,1.7v3.9h-2.2V79c0-0.8,0-1.3-0.1-1.5c-0.1-0.2-0.2-0.4-0.4-0.5c-0.2-0.1-0.4-0.2-0.7-0.2
					c-0.3,0-0.6,0.1-0.9,0.3s-0.5,0.4-0.6,0.8c-0.1,0.3-0.2,0.9-0.2,1.7v4h-2.2V75.3z"/>
				<path class="st45" d="M517.9,74.2v-2h2.2v2H517.9z M517.9,83.5v-8.1h2.2v8.1H517.9z"/>
				<path class="st45" d="M529.6,83.5h-2.2v-4.2c0-0.9,0-1.4-0.1-1.7c-0.1-0.3-0.2-0.5-0.4-0.6c-0.2-0.1-0.5-0.2-0.7-0.2
					c-0.4,0-0.7,0.1-1,0.3c-0.3,0.2-0.5,0.5-0.6,0.8s-0.2,1-0.2,1.9v3.7h-2.2v-8.1h2v1.2c0.7-0.9,1.6-1.4,2.7-1.4
					c0.5,0,0.9,0.1,1.3,0.3c0.4,0.2,0.7,0.4,0.9,0.7c0.2,0.3,0.3,0.6,0.4,0.9c0.1,0.3,0.1,0.8,0.1,1.4V83.5z"/>
				<path class="st34" d="M543.7,83.5h-2v-1.2c-0.3,0.5-0.7,0.8-1.2,1c-0.5,0.2-0.9,0.3-1.4,0.3c-0.9,0-1.7-0.4-2.4-1.1
					c-0.7-0.8-1-1.8-1-3.2c0-1.4,0.3-2.4,1-3.1c0.6-0.7,1.5-1.1,2.5-1.1c0.9,0,1.7,0.4,2.4,1.1v-4.1h2.2V83.5z M537.9,79.2
					c0,0.9,0.1,1.5,0.4,1.9c0.3,0.6,0.8,0.8,1.5,0.8c0.5,0,0.9-0.2,1.3-0.6c0.3-0.4,0.5-1.1,0.5-1.9c0-0.9-0.2-1.6-0.5-2
					c-0.3-0.4-0.8-0.6-1.3-0.6c-0.5,0-0.9,0.2-1.3,0.6C538.1,77.8,537.9,78.4,537.9,79.2z"/>
				<path class="st34" d="M545,81.2l2.2-0.3c0.1,0.4,0.3,0.7,0.6,1c0.3,0.2,0.7,0.3,1.2,0.3c0.6,0,1-0.1,1.3-0.3
					c0.2-0.1,0.3-0.3,0.3-0.6c0-0.2-0.1-0.3-0.2-0.4c-0.1-0.1-0.3-0.2-0.7-0.3c-1.7-0.4-2.8-0.7-3.3-1.1c-0.6-0.4-1-1.1-1-1.8
					c0-0.7,0.3-1.3,0.8-1.8c0.6-0.5,1.4-0.7,2.6-0.7c1.1,0,1.9,0.2,2.5,0.5c0.5,0.4,0.9,0.9,1.1,1.6l-2,0.4
					c-0.1-0.3-0.3-0.6-0.5-0.7c-0.2-0.2-0.6-0.3-1-0.3c-0.6,0-1,0.1-1.2,0.2c-0.2,0.1-0.2,0.3-0.2,0.4c0,0.2,0.1,0.3,0.2,0.4
					c0.2,0.1,0.9,0.3,2,0.6c1.1,0.3,2,0.6,2.4,1c0.5,0.4,0.7,0.9,0.7,1.6c0,0.7-0.3,1.4-0.9,1.9c-0.6,0.5-1.5,0.8-2.8,0.8
					c-1.1,0-2-0.2-2.6-0.7C545.6,82.5,545.2,81.9,545,81.2z"/>
				<path class="st34" d="M559.2,80.9l2.1,0.4c-0.3,0.8-0.7,1.4-1.3,1.8c-0.6,0.4-1.3,0.6-2.2,0.6c-1.4,0-2.5-0.5-3.1-1.4
					c-0.5-0.7-0.8-1.7-0.8-2.8c0-1.4,0.4-2.4,1.1-3.2c0.7-0.8,1.6-1.1,2.7-1.1c1.2,0,2.2,0.4,2.9,1.2c0.7,0.8,1,2,1,3.7h-5.4
					c0,0.6,0.2,1.1,0.5,1.5c0.3,0.4,0.7,0.5,1.2,0.5c0.3,0,0.6-0.1,0.9-0.3C559,81.6,559.1,81.3,559.2,80.9z M559.4,78.7
					c0-0.6-0.2-1.1-0.5-1.4c-0.3-0.3-0.7-0.5-1.1-0.5c-0.5,0-0.9,0.2-1.2,0.5c-0.3,0.3-0.5,0.8-0.5,1.4H559.4z"/>
				<path class="st34" d="M567,75.3v1.7h-1.5v3.3c0,0.7,0,1.1,0,1.2c0,0.1,0.1,0.2,0.2,0.3c0.1,0.1,0.2,0.1,0.4,0.1
					c0.2,0,0.5-0.1,0.9-0.2l0.2,1.7c-0.5,0.2-1.1,0.3-1.7,0.3c-0.4,0-0.7-0.1-1.1-0.2c-0.3-0.1-0.5-0.3-0.7-0.5
					c-0.1-0.2-0.2-0.5-0.3-0.8c0-0.3-0.1-0.8-0.1-1.5v-3.6h-1v-1.7h1v-1.6l2.2-1.3v2.9H567z"/>
				<rect x="568" y="84.4" class="st34" width="9" height="1.4"/>
				<path class="st34" d="M579.5,83.5l-3.3-8.1h2.3l1.5,4.2l0.4,1.4c0.1-0.4,0.2-0.6,0.2-0.7c0.1-0.2,0.1-0.5,0.2-0.7l1.5-4.2h2.2
					l-3.2,8.1H579.5z"/>
				<path class="st34" d="M587.6,77.8l-2-0.4c0.2-0.8,0.6-1.4,1.1-1.7c0.5-0.4,1.3-0.6,2.4-0.6c1,0,1.7,0.1,2.1,0.3
					c0.5,0.2,0.8,0.5,1,0.9c0.2,0.4,0.3,1,0.3,1.9l0,2.5c0,0.7,0,1.2,0.1,1.6c0.1,0.3,0.2,0.7,0.4,1.1h-2.1
					c-0.1-0.1-0.1-0.4-0.2-0.6c0-0.1-0.1-0.2-0.1-0.3c-0.4,0.4-0.8,0.6-1.2,0.8c-0.4,0.2-0.9,0.3-1.3,0.3c-0.8,0-1.5-0.2-2-0.7
					c-0.5-0.5-0.7-1-0.7-1.7c0-0.5,0.1-0.9,0.3-1.2c0.2-0.4,0.5-0.6,0.9-0.8c0.4-0.2,1-0.4,1.7-0.5c1-0.2,1.7-0.4,2.1-0.5v-0.2
					c0-0.4-0.1-0.7-0.3-0.9c-0.2-0.2-0.6-0.3-1.2-0.3c-0.4,0-0.7,0.1-0.9,0.2C587.9,77.2,587.7,77.4,587.6,77.8z M590.5,79.6
					c-0.3,0.1-0.7,0.2-1.3,0.3c-0.6,0.1-1,0.3-1.2,0.4c-0.3,0.2-0.4,0.5-0.4,0.8c0,0.3,0.1,0.6,0.3,0.8c0.2,0.2,0.5,0.3,0.9,0.3
					c0.4,0,0.8-0.1,1.1-0.4c0.3-0.2,0.4-0.4,0.5-0.7c0.1-0.2,0.1-0.5,0.1-1.1V79.6z"/>
				<rect x="594.7" y="72.2" class="st34" width="2.2" height="11.2"/>
				<path class="st34" d="M599.5,77.5v-2.2h2.2v2.2H599.5z M599.5,83.5v-2.2h2.2v2.2H599.5z"/>
			</g>
			<g transform="matrix(1.4076,0,0,1.4076,-275.338,168.646)">
				<path class="st34" d="M471.1,76l2.1,0.4c-0.3,0.8-0.7,1.4-1.3,1.8c-0.6,0.4-1.3,0.6-2.2,0.6c-1.4,0-2.5-0.5-3.1-1.4
					c-0.5-0.7-0.8-1.7-0.8-2.8c0-1.4,0.4-2.4,1.1-3.2c0.7-0.8,1.6-1.1,2.7-1.1c1.2,0,2.2,0.4,2.9,1.2c0.7,0.8,1,2,1,3.7h-5.4
					c0,0.6,0.2,1.1,0.5,1.5c0.3,0.4,0.7,0.5,1.2,0.5c0.3,0,0.6-0.1,0.9-0.3C470.8,76.7,470.9,76.4,471.1,76z M471.2,73.8
					c0-0.6-0.2-1.1-0.5-1.4c-0.3-0.3-0.7-0.5-1.1-0.5c-0.5,0-0.9,0.2-1.2,0.5c-0.3,0.3-0.5,0.8-0.5,1.4H471.2z"/>
				<rect x="475.1" y="67.3" class="st34" width="2.2" height="11.2"/>
				<path class="st34" d="M479.3,70.4h2v1.1c0.7-0.9,1.6-1.3,2.5-1.3c0.5,0,1,0.1,1.4,0.3c0.4,0.2,0.7,0.5,0.9,1
					c0.4-0.4,0.7-0.8,1.2-1c0.4-0.2,0.9-0.3,1.3-0.3c0.6,0,1.1,0.1,1.5,0.4c0.4,0.2,0.7,0.6,0.9,1.1c0.1,0.3,0.2,0.9,0.2,1.7v5.2
					h-2.2v-4.7c0-0.8-0.1-1.3-0.2-1.6c-0.2-0.3-0.5-0.5-0.9-0.5c-0.3,0-0.6,0.1-0.9,0.3c-0.3,0.2-0.5,0.5-0.6,0.8
					c-0.1,0.4-0.2,0.9-0.2,1.7v3.9h-2.2v-4.5c0-0.8,0-1.3-0.1-1.5c-0.1-0.2-0.2-0.4-0.4-0.5c-0.2-0.1-0.4-0.2-0.7-0.2
					c-0.3,0-0.6,0.1-0.9,0.3c-0.3,0.2-0.5,0.4-0.6,0.8c-0.1,0.3-0.2,0.9-0.2,1.7v4h-2.2V70.4z"/>
				<rect x="493.4" y="76.4" class="st34" width="2.2" height="2.2"/>
				<rect x="497.8" y="67.3" class="st46" width="2.2" height="11.2"/>
				<path class="st46" d="M503.8,72.9l-2-0.4c0.2-0.8,0.6-1.4,1.1-1.7c0.5-0.4,1.3-0.6,2.4-0.6c1,0,1.7,0.1,2.1,0.3s0.8,0.5,1,0.9
					c0.2,0.4,0.3,1,0.3,1.9l0,2.5c0,0.7,0,1.2,0.1,1.6c0.1,0.3,0.2,0.7,0.4,1.1h-2.1c-0.1-0.1-0.1-0.4-0.2-0.6
					c0-0.1-0.1-0.2-0.1-0.3c-0.4,0.4-0.8,0.6-1.2,0.8c-0.4,0.2-0.9,0.3-1.3,0.3c-0.8,0-1.5-0.2-2-0.7c-0.5-0.5-0.7-1-0.7-1.7
					c0-0.5,0.1-0.9,0.3-1.2c0.2-0.4,0.5-0.6,0.9-0.8c0.4-0.2,1-0.4,1.7-0.5c1-0.2,1.7-0.4,2.1-0.5v-0.2c0-0.4-0.1-0.7-0.3-0.9
					c-0.2-0.2-0.6-0.3-1.2-0.3c-0.4,0-0.7,0.1-0.9,0.2C504.1,72.3,503.9,72.6,503.8,72.9z M506.7,74.7c-0.3,0.1-0.7,0.2-1.3,0.3
					c-0.6,0.1-1,0.3-1.2,0.4c-0.3,0.2-0.4,0.5-0.4,0.8c0,0.3,0.1,0.6,0.3,0.8c0.2,0.2,0.5,0.3,0.9,0.3c0.4,0,0.8-0.1,1.1-0.4
					c0.3-0.2,0.4-0.4,0.5-0.7c0.1-0.2,0.1-0.5,0.1-1.1V74.7z"/>
				<path class="st46" d="M510.8,78.6V67.3h2.2v4.1c0.7-0.8,1.5-1.1,2.4-1.1c1,0,1.8,0.4,2.5,1.1c0.6,0.7,1,1.8,1,3.1
					c0,1.4-0.3,2.5-1,3.2s-1.5,1.1-2.4,1.1c-0.5,0-0.9-0.1-1.4-0.3c-0.5-0.2-0.8-0.6-1.2-1v1.2H510.8z M512.9,74.3
					c0,0.8,0.1,1.5,0.4,1.9c0.4,0.6,0.9,0.9,1.5,0.9c0.5,0,0.9-0.2,1.2-0.6c0.3-0.4,0.5-1,0.5-1.9c0-0.9-0.2-1.6-0.5-2
					c-0.3-0.4-0.8-0.6-1.3-0.6c-0.5,0-0.9,0.2-1.3,0.6C513.1,72.9,512.9,73.5,512.9,74.3z"/>
				<path class="st46" d="M525.2,76l2.1,0.4c-0.3,0.8-0.7,1.4-1.3,1.8c-0.6,0.4-1.3,0.6-2.2,0.6c-1.4,0-2.5-0.5-3.1-1.4
					c-0.5-0.7-0.8-1.7-0.8-2.8c0-1.4,0.4-2.4,1.1-3.2c0.7-0.8,1.6-1.1,2.7-1.1c1.2,0,2.2,0.4,2.9,1.2c0.7,0.8,1,2,1,3.7h-5.4
					c0,0.6,0.2,1.1,0.5,1.5c0.3,0.4,0.7,0.5,1.2,0.5c0.3,0,0.6-0.1,0.9-0.3C524.9,76.7,525.1,76.4,525.2,76z M525.3,73.8
					c0-0.6-0.2-1.1-0.5-1.4c-0.3-0.3-0.7-0.5-1.1-0.5c-0.5,0-0.9,0.2-1.2,0.5c-0.3,0.3-0.5,0.8-0.5,1.4H525.3z"/>
				<rect x="529.2" y="67.3" class="st46" width="2.2" height="11.2"/>
				<path class="st46" d="M532.8,76.3l2.2-0.3c0.1,0.4,0.3,0.7,0.6,1c0.3,0.2,0.7,0.3,1.2,0.3c0.6,0,1-0.1,1.3-0.3
					c0.2-0.1,0.3-0.3,0.3-0.6c0-0.2-0.1-0.3-0.2-0.4c-0.1-0.1-0.3-0.2-0.7-0.3c-1.7-0.4-2.8-0.7-3.3-1.1c-0.6-0.4-1-1.1-1-1.8
					c0-0.7,0.3-1.3,0.8-1.8c0.6-0.5,1.4-0.7,2.6-0.7c1.1,0,1.9,0.2,2.5,0.5c0.5,0.4,0.9,0.9,1.1,1.6l-2,0.4
					c-0.1-0.3-0.3-0.6-0.5-0.7c-0.2-0.2-0.6-0.3-1-0.3c-0.6,0-1,0.1-1.2,0.2c-0.2,0.1-0.2,0.3-0.2,0.4c0,0.2,0.1,0.3,0.2,0.4
					c0.2,0.1,0.9,0.3,2,0.6c1.1,0.3,2,0.6,2.4,1c0.5,0.4,0.7,0.9,0.7,1.6c0,0.7-0.3,1.4-0.9,1.9c-0.6,0.5-1.5,0.8-2.8,0.8
					c-1.1,0-2-0.2-2.6-0.7C533.5,77.7,533,77,532.8,76.3z"/>
				<path class="st34" d="M546.2,72.3v-2h7.9v2H546.2z M546.2,75.7v-2h7.9v2H546.2z"/>
				<path class="st34" d="M563.8,81.9h-1.5c-0.8-1.2-1.4-2.4-1.8-3.7c-0.4-1.3-0.6-2.5-0.6-3.7c0-1.5,0.3-2.9,0.8-4.2
					c0.4-1.1,1-2.2,1.7-3.2h1.5c-0.7,1.5-1.2,2.9-1.4,4c-0.3,1.1-0.4,2.2-0.4,3.5c0,0.8,0.1,1.7,0.2,2.6c0.2,0.9,0.4,1.7,0.6,2.5
					C563.1,80.2,563.4,80.9,563.8,81.9z"/>
				<path class="st47" d="M565.4,70.4h2v1.2c0.3-0.4,0.6-0.7,1.1-1c0.4-0.3,0.9-0.4,1.5-0.4c0.9,0,1.7,0.4,2.4,1.1
					c0.7,0.7,1,1.8,1,3.1c0,1.4-0.3,2.4-1,3.2c-0.7,0.8-1.5,1.1-2.4,1.1c-0.5,0-0.9-0.1-1.2-0.3c-0.4-0.2-0.8-0.5-1.2-0.9v4.1h-2.2
					V70.4z M567.6,74.4c0,0.9,0.2,1.6,0.5,2c0.4,0.4,0.8,0.7,1.3,0.7c0.5,0,0.9-0.2,1.3-0.6c0.3-0.4,0.5-1.1,0.5-2
					c0-0.9-0.2-1.5-0.5-1.9c-0.3-0.4-0.8-0.6-1.3-0.6c-0.5,0-1,0.2-1.3,0.6C567.7,73,567.6,73.6,567.6,74.4z"/>
				<path class="st47" d="M577.1,78.6H575v-8.1h2v1.2c0.3-0.5,0.7-0.9,0.9-1.1c0.3-0.2,0.6-0.3,0.9-0.3c0.5,0,1,0.1,1.4,0.4
					l-0.7,1.9c-0.4-0.2-0.7-0.4-1-0.4c-0.3,0-0.6,0.1-0.8,0.2c-0.2,0.2-0.4,0.5-0.5,0.9c-0.1,0.4-0.2,1.3-0.2,2.7V78.6z"/>
				<rect x="579.9" y="80.3" class="st47" width="9" height="1.4"/>
				<path class="st47" d="M589.9,70.4h2v1.2c0.3-0.4,0.6-0.7,1.1-1c0.4-0.3,0.9-0.4,1.5-0.4c0.9,0,1.7,0.4,2.4,1.1
					c0.7,0.7,1,1.8,1,3.1c0,1.4-0.3,2.4-1,3.2c-0.7,0.8-1.5,1.1-2.4,1.1c-0.5,0-0.9-0.1-1.2-0.3c-0.4-0.2-0.8-0.5-1.2-0.9v4.1h-2.2
					V70.4z M592,74.4c0,0.9,0.2,1.6,0.5,2c0.4,0.4,0.8,0.7,1.3,0.7c0.5,0,0.9-0.2,1.3-0.6c0.3-0.4,0.5-1.1,0.5-2
					c0-0.9-0.2-1.5-0.5-1.9c-0.3-0.4-0.8-0.6-1.3-0.6c-0.5,0-1,0.2-1.3,0.6C592.2,73,592,73.6,592,74.4z"/>
				<path class="st34" d="M601.6,78.6h-2.2v-8.1h2v1.2c0.3-0.5,0.7-0.9,0.9-1.1c0.3-0.2,0.6-0.3,0.9-0.3c0.5,0,1,0.1,1.4,0.4
					l-0.7,1.9c-0.4-0.2-0.7-0.4-1-0.4c-0.3,0-0.6,0.1-0.8,0.2c-0.2,0.2-0.4,0.5-0.5,0.9c-0.1,0.4-0.2,1.3-0.2,2.7V78.6z"/>
				<path class="st34" d="M610.4,76l2.1,0.4c-0.3,0.8-0.7,1.4-1.3,1.8c-0.6,0.4-1.3,0.6-2.2,0.6c-1.4,0-2.5-0.5-3.1-1.4
					c-0.5-0.7-0.8-1.7-0.8-2.8c0-1.4,0.4-2.4,1.1-3.2c0.7-0.8,1.6-1.1,2.7-1.1c1.2,0,2.2,0.4,2.9,1.2c0.7,0.8,1,2,1,3.7h-5.4
					c0,0.6,0.2,1.1,0.5,1.5c0.3,0.4,0.7,0.5,1.2,0.5c0.3,0,0.6-0.1,0.9-0.3C610.1,76.7,610.3,76.4,610.4,76z M610.5,73.8
					c0-0.6-0.2-1.1-0.5-1.4c-0.3-0.3-0.7-0.5-1.1-0.5c-0.5,0-0.9,0.2-1.2,0.5c-0.3,0.3-0.5,0.8-0.5,1.4H610.5z"/>
				<path class="st34" d="M621.9,78.6h-2v-1.2c-0.3,0.5-0.7,0.8-1.2,1c-0.5,0.2-0.9,0.3-1.4,0.3c-0.9,0-1.7-0.4-2.4-1.1
					c-0.7-0.8-1-1.8-1-3.2c0-1.4,0.3-2.4,1-3.1c0.7-0.7,1.5-1.1,2.5-1.1c0.9,0,1.7,0.4,2.4,1.1v-4.1h2.2V78.6z M616.1,74.3
					c0,0.9,0.1,1.5,0.4,1.9c0.3,0.6,0.8,0.8,1.5,0.8c0.5,0,0.9-0.2,1.3-0.6c0.3-0.4,0.5-1.1,0.5-1.9c0-0.9-0.2-1.6-0.5-2
					c-0.3-0.4-0.8-0.6-1.3-0.6c-0.5,0-0.9,0.2-1.3,0.6C616.3,72.9,616.1,73.5,616.1,74.3z"/>
				<rect x="622.7" y="80.3" class="st34" width="9" height="1.4"/>
				<path class="st34" d="M632.7,70.4h2v1.2c0.3-0.4,0.6-0.7,1.1-1c0.4-0.3,0.9-0.4,1.5-0.4c0.9,0,1.7,0.4,2.4,1.1
					c0.7,0.7,1,1.8,1,3.1c0,1.4-0.3,2.4-1,3.2c-0.7,0.8-1.5,1.1-2.4,1.1c-0.5,0-0.9-0.1-1.2-0.3s-0.8-0.5-1.2-0.9v4.1h-2.2V70.4z
					 M634.8,74.4c0,0.9,0.2,1.6,0.5,2c0.4,0.4,0.8,0.7,1.3,0.7c0.5,0,0.9-0.2,1.3-0.6c0.3-0.4,0.5-1.1,0.5-2c0-0.9-0.2-1.5-0.5-1.9
					c-0.3-0.4-0.8-0.6-1.3-0.6c-0.5,0-1,0.2-1.3,0.6C635,73,634.8,73.6,634.8,74.4z"/>
				<path class="st34" d="M644.4,78.6h-2.2v-8.1h2v1.2c0.3-0.5,0.7-0.9,0.9-1.1c0.3-0.2,0.6-0.3,0.9-0.3c0.5,0,1,0.1,1.4,0.4
					l-0.7,1.9c-0.4-0.2-0.7-0.4-1-0.4c-0.3,0-0.6,0.1-0.8,0.2c-0.2,0.2-0.4,0.5-0.5,0.9c-0.1,0.4-0.2,1.3-0.2,2.7V78.6z"/>
				<path class="st34" d="M647.9,74.4c0-0.7,0.2-1.4,0.5-2.1c0.4-0.7,0.9-1.2,1.5-1.5c0.6-0.4,1.4-0.5,2.2-0.5c1.2,0,2.2,0.4,3,1.2
					c0.8,0.8,1.2,1.8,1.2,3c0,1.2-0.4,2.3-1.2,3.1c-0.8,0.8-1.8,1.2-3,1.2c-0.7,0-1.5-0.2-2.1-0.5c-0.7-0.3-1.2-0.8-1.5-1.5
					C648.1,76.1,647.9,75.3,647.9,74.4z M650.2,74.5c0,0.8,0.2,1.4,0.6,1.9c0.4,0.4,0.9,0.6,1.4,0.6c0.6,0,1-0.2,1.4-0.6
					c0.4-0.4,0.6-1.1,0.6-1.9c0-0.8-0.2-1.4-0.6-1.8c-0.4-0.4-0.9-0.6-1.4-0.6c-0.6,0-1,0.2-1.4,0.6
					C650.3,73.1,650.2,73.7,650.2,74.5z"/>
				<path class="st34" d="M658,78.6V67.3h2.2v4.1c0.7-0.8,1.5-1.1,2.4-1.1c1,0,1.8,0.4,2.5,1.1c0.6,0.7,1,1.8,1,3.1
					c0,1.4-0.3,2.5-1,3.2c-0.7,0.8-1.5,1.1-2.4,1.1c-0.5,0-0.9-0.1-1.4-0.3c-0.5-0.2-0.8-0.6-1.2-1v1.2H658z M660.1,74.3
					c0,0.8,0.1,1.5,0.4,1.9c0.4,0.6,0.9,0.9,1.5,0.9c0.5,0,0.9-0.2,1.2-0.6c0.3-0.4,0.5-1,0.5-1.9c0-0.9-0.2-1.6-0.5-2
					c-0.3-0.4-0.8-0.6-1.3-0.6c-0.5,0-0.9,0.2-1.3,0.6C660.3,72.9,660.1,73.5,660.1,74.3z"/>
				<path class="st34" d="M466.3,98V83.6h3.8v1.7h-1.8v11h1.8V98H466.3z"/>
				<path class="st34" d="M472,88.8v-2.2h2.2v2.2H472z M472,94.8v-2.2h2.2v2.2H472z"/>
				<path class="st34" d="M476.8,92.7h2.2v1.5c0,0.6-0.1,1.1-0.2,1.5c-0.1,0.4-0.3,0.7-0.6,1c-0.3,0.3-0.7,0.5-1.1,0.7l-0.4-0.9
					c0.4-0.1,0.7-0.3,0.9-0.6c0.2-0.3,0.3-0.6,0.3-1h-1V92.7z"/>
				<path class="st34" d="M488.7,83.5c1.1,0,1.9,0.4,2.6,1.2c0.7,0.9,1.1,2.4,1.1,4.6c0,2.1-0.4,3.7-1.1,4.6
					c-0.6,0.8-1.5,1.2-2.5,1.2c-1.1,0-2-0.4-2.6-1.3c-0.7-0.8-1-2.3-1-4.5c0-2.1,0.4-3.6,1.1-4.6C486.8,83.9,487.6,83.5,488.7,83.5z
					 M488.7,85.3c-0.3,0-0.5,0.1-0.7,0.2c-0.2,0.2-0.4,0.5-0.5,0.9c-0.1,0.6-0.2,1.5-0.2,2.8c0,1.3,0.1,2.2,0.2,2.7
					c0.1,0.5,0.3,0.8,0.5,1c0.2,0.2,0.4,0.2,0.7,0.2c0.3,0,0.5-0.1,0.7-0.2c0.2-0.2,0.4-0.5,0.5-0.9c0.1-0.6,0.2-1.5,0.2-2.8
					c0-1.3-0.1-2.2-0.2-2.7c-0.1-0.5-0.3-0.8-0.5-1C489.2,85.4,489,85.3,488.7,85.3z"/>
				<path class="st34" d="M497.3,83.6V98h-3.8v-1.7h1.8v-11h-1.8v-1.7H497.3z"/>
				<path class="st34" d="M503.5,93.5v-2.2l5.4-2.1l-5.4-2.1V85l7.7,3.3v1.8L503.5,93.5z"/>
				<path class="st34" d="M521.2,86.7v1.7h-1.5v3.3c0,0.7,0,1.1,0,1.2s0.1,0.2,0.2,0.3c0.1,0.1,0.2,0.1,0.4,0.1
					c0.2,0,0.5-0.1,0.9-0.2l0.2,1.7c-0.5,0.2-1.1,0.3-1.7,0.3c-0.4,0-0.7-0.1-1.1-0.2c-0.3-0.1-0.5-0.3-0.7-0.5
					c-0.1-0.2-0.2-0.5-0.3-0.8c0-0.3-0.1-0.8-0.1-1.5v-3.6h-1v-1.7h1v-1.6l2.2-1.3v2.9H521.2z"/>
				<path class="st34" d="M524.8,83.6v4.1c0.7-0.8,1.5-1.2,2.5-1.2c0.5,0,0.9,0.1,1.3,0.3c0.4,0.2,0.7,0.4,0.9,0.7
					c0.2,0.3,0.3,0.6,0.4,1c0.1,0.3,0.1,0.9,0.1,1.6v4.8h-2.2v-4.3c0-0.9,0-1.4-0.1-1.6c-0.1-0.2-0.2-0.4-0.4-0.5
					c-0.2-0.1-0.5-0.2-0.8-0.2c-0.4,0-0.7,0.1-1,0.3c-0.3,0.2-0.5,0.4-0.6,0.8c-0.1,0.4-0.2,0.9-0.2,1.6v4.1h-2.2V83.6H524.8z"/>
				<path class="st34" d="M534.3,94.8h-2.2v-8.1h2v1.2c0.3-0.5,0.7-0.9,0.9-1.1s0.6-0.3,0.9-0.3c0.5,0,1,0.1,1.4,0.4l-0.7,1.9
					c-0.4-0.2-0.7-0.4-1-0.4c-0.3,0-0.6,0.1-0.8,0.2c-0.2,0.2-0.4,0.5-0.5,0.9c-0.1,0.4-0.2,1.3-0.2,2.7V94.8z"/>
				<path class="st34" d="M543.1,92.2l2.1,0.4c-0.3,0.8-0.7,1.4-1.3,1.8c-0.6,0.4-1.3,0.6-2.2,0.6c-1.4,0-2.5-0.5-3.1-1.4
					c-0.5-0.7-0.8-1.7-0.8-2.8c0-1.4,0.4-2.4,1.1-3.2c0.7-0.8,1.6-1.1,2.7-1.1c1.2,0,2.2,0.4,2.9,1.2c0.7,0.8,1,2,1,3.7H540
					c0,0.6,0.2,1.1,0.5,1.5c0.3,0.4,0.7,0.5,1.2,0.5c0.3,0,0.6-0.1,0.9-0.3C542.8,92.9,543,92.6,543.1,92.2z M543.2,90.1
					c0-0.6-0.2-1.1-0.5-1.4c-0.3-0.3-0.7-0.5-1.1-0.5c-0.5,0-0.9,0.2-1.2,0.5c-0.3,0.3-0.5,0.8-0.5,1.4H543.2z"/>
				<path class="st34" d="M546.4,92.5l2.2-0.3c0.1,0.4,0.3,0.7,0.6,1c0.3,0.2,0.7,0.3,1.2,0.3c0.6,0,1-0.1,1.3-0.3
					c0.2-0.1,0.3-0.3,0.3-0.6c0-0.2-0.1-0.3-0.2-0.4c-0.1-0.1-0.3-0.2-0.7-0.3c-1.7-0.4-2.8-0.7-3.3-1.1c-0.6-0.4-1-1.1-1-1.8
					c0-0.7,0.3-1.3,0.8-1.8c0.6-0.5,1.4-0.7,2.6-0.7c1.1,0,1.9,0.2,2.5,0.5s0.9,0.9,1.1,1.6l-2,0.4c-0.1-0.3-0.3-0.6-0.5-0.7
					c-0.2-0.2-0.6-0.3-1-0.3c-0.6,0-1,0.1-1.2,0.2c-0.2,0.1-0.2,0.3-0.2,0.4c0,0.2,0.1,0.3,0.2,0.4c0.2,0.1,0.9,0.3,2,0.6
					c1.1,0.3,2,0.6,2.4,1c0.5,0.4,0.7,0.9,0.7,1.6c0,0.7-0.3,1.4-0.9,1.9c-0.6,0.5-1.5,0.8-2.8,0.8c-1.1,0-2-0.2-2.6-0.7
					C547,93.9,546.6,93.3,546.4,92.5z"/>
				<path class="st47" d="M558,83.6v4.1c0.7-0.8,1.5-1.2,2.5-1.2c0.5,0,0.9,0.1,1.3,0.3c0.4,0.2,0.7,0.4,0.9,0.7
					c0.2,0.3,0.3,0.6,0.4,1c0.1,0.3,0.1,0.9,0.1,1.6v4.8h-2.2v-4.3c0-0.9,0-1.4-0.1-1.6c-0.1-0.2-0.2-0.4-0.4-0.5
					c-0.2-0.1-0.5-0.2-0.8-0.2c-0.4,0-0.7,0.1-1,0.3c-0.3,0.2-0.5,0.4-0.6,0.8c-0.1,0.4-0.2,0.9-0.2,1.6v4.1h-2.2V83.6H558z"/>
				<path class="st34" d="M565,90.6c0-0.7,0.2-1.4,0.5-2.1c0.4-0.7,0.9-1.2,1.5-1.5c0.6-0.4,1.4-0.5,2.2-0.5c1.2,0,2.2,0.4,3,1.2
					c0.8,0.8,1.2,1.8,1.2,3c0,1.2-0.4,2.3-1.2,3.1c-0.8,0.8-1.8,1.2-3,1.2c-0.7,0-1.5-0.2-2.1-0.5c-0.7-0.3-1.2-0.8-1.5-1.5
					C565.1,92.4,565,91.6,565,90.6z M567.2,90.7c0,0.8,0.2,1.4,0.6,1.9c0.4,0.4,0.9,0.6,1.4,0.6c0.6,0,1-0.2,1.4-0.6
					c0.4-0.4,0.6-1.1,0.6-1.9c0-0.8-0.2-1.4-0.6-1.8c-0.4-0.4-0.9-0.6-1.4-0.6c-0.6,0-1,0.2-1.4,0.6
					C567.4,89.3,567.2,89.9,567.2,90.7z"/>
				<rect x="575.1" y="83.6" class="st34" width="2.2" height="11.2"/>
				<path class="st34" d="M586.9,94.8h-2v-1.2c-0.3,0.5-0.7,0.8-1.2,1c-0.5,0.2-0.9,0.3-1.4,0.3c-0.9,0-1.7-0.4-2.4-1.1
					c-0.7-0.8-1-1.8-1-3.2c0-1.4,0.3-2.4,1-3.1c0.6-0.7,1.5-1.1,2.5-1.1c0.9,0,1.7,0.4,2.4,1.1v-4.1h2.2V94.8z M581.1,90.6
					c0,0.9,0.1,1.5,0.4,1.9c0.3,0.6,0.8,0.8,1.5,0.8c0.5,0,0.9-0.2,1.3-0.6c0.3-0.4,0.5-1.1,0.5-1.9c0-0.9-0.2-1.6-0.5-2
					c-0.3-0.4-0.8-0.6-1.3-0.6c-0.5,0-0.9,0.2-1.3,0.6C581.3,89.2,581.1,89.8,581.1,90.6z"/>
				<path class="st47" d="M592.8,98.1c0.4-0.9,0.7-1.6,0.9-2.1c0.2-0.5,0.3-1,0.5-1.7c0.1-0.6,0.3-1.2,0.3-1.8
					c0.1-0.6,0.1-1.2,0.1-1.8c0-1.2-0.1-2.4-0.4-3.5c-0.3-1.1-0.7-2.4-1.4-4h1.5c0.8,1.1,1.4,2.3,1.8,3.5c0.4,1.2,0.6,2.5,0.6,3.8
					c0,1.1-0.2,2.2-0.5,3.4c-0.4,1.4-1,2.7-1.9,4.1H592.8z"/>
			</g>
		</g>
		<g transform="matrix(-0.924358,0,0,0.924358,1350.62,26.5355)">
			<g transform="matrix(0.7059,-0.7083,0.7083,0.7059,-26.3825,659.982)">
				
					<rect x="930.2" y="437.7" transform="matrix(-2.548611e-06 -1 1 -2.548611e-06 504.9206 1370.4124)" class="st23" width="14.9" height="-9.8"/>
				<g>
					<defs>
						
							<rect id="SVGID_29_" x="930.8" y="428.2" transform="matrix(0.7083 -0.7059 0.7059 0.7083 -31.9669 788.1326)" width="13.8" height="9.1"/>
					</defs>
					<clipPath id="SVGID_30_">
						<use xlink:href="#SVGID_29_"  style="overflow:visible;"/>
					</clipPath>
					<g class="st48">
						<g transform="matrix(0.705912,0.708312,-0.708312,0.705912,486.097,-447.202)">
							<g>
								<path class="st25" d="M944.3,295.1c1.5,4.5-5.2,5.8-4,8.9c0.3,0.8,0.8,1.6,1.6,2.2c1.2,0.8,2.5,1.2,3.8,1.8
									c0.5,0.2,1.8,0.8,1.5,1.6c-0.2,0.4-0.7,0.5-1,0.7c-1.2,0.5-2.5,0.6-3.8,0.6c-3.8,0-8.2-0.9-10.3-4.4c-0.4-0.6-0.6-1.3-0.8-2
									c-1.2-4.5,1.2-9.6,4.9-12.2c1.8-1.3,4.5-2.3,6.6-1.2c0.5,0.3,1.1,0.7,1.5,1.2L944.3,295.1z"/>
							</g>
						</g>
					</g>
				</g>
			</g>
			<g transform="matrix(0.3637,-0.9315,0.9315,0.3637,90.6273,878.454)">
				
					<rect x="808.3" y="526.9" transform="matrix(-2.531030e-06 -1 1 -2.531030e-06 293.8169 1332.7148)" class="st23" width="9.8" height="-14.9"/>
				<g>
					<defs>
						
							<rect id="SVGID_31_" x="808.7" y="512.6" transform="matrix(0.9315 -0.3637 0.3637 0.9315 -133.2294 331.3636)" width="9.1" height="13.8"/>
					</defs>
					<clipPath id="SVGID_32_">
						<use xlink:href="#SVGID_31_"  style="overflow:visible;"/>
					</clipPath>
					<g class="st49">
						<g transform="matrix(0.363711,0.931528,-0.931528,0.363711,785.343,-403.925)">
							<g>
								<path class="st25" d="M877.8,308.4c-2.8,3.8-7.7-0.8-9.6,1.8c-0.5,0.8-0.8,1.6-0.8,2.5c0.1,1.4,0.5,2.8,0.7,4.2
									c0.1,0.5,0.4,2-0.5,2.2c-0.5,0-0.8-0.2-1.2-0.5c-1.1-0.8-1.9-1.7-2.6-2.8c-2.2-3.1-4-7.2-2.3-10.9c0.3-0.6,0.7-1.2,1.2-1.8
									c3-3.5,8.5-4.5,12.8-3c2.2,0.8,4.5,2.3,4.8,4.7c0.1,0.6,0,1.3-0.1,1.9L877.8,308.4z"/>
							</g>
						</g>
					</g>
				</g>
			</g>
			<path class="st50" d="M958.3,297c-2.2,0.5-10,4.1-10,4.1c-1.3,4.5-3.1,6.2-6.9,6.8c-0.2,2.8,0.9,5.3,4.4,6
				c2.4,0.5,17.5-14.4,15.8-15.8C961.6,298.1,959.8,296.7,958.3,297z"/>
			<path class="st50" d="M880.7,323.1c-1.3-1.8-7.7-7.5-7.7-7.5c-4.6,0.5-6.9-0.3-9.1-3.6c-2.7,0.9-4.5,2.9-3.8,6.4
				c0.5,2.4,20.2,10.4,20.9,8.2C881,326.6,881.6,324.3,880.7,323.1z"/>
			<g>
				<path class="st51" d="M943.5,293.1c0,0-28.9-45.6-58.9-60c-27.7-13.2-58.7-5.3-58.7-5.3c-19.2,3.6-9.4,30.7,7.8,30.9H870
					l61.1,42.1C936.1,305.8,947.6,297.5,943.5,293.1z"/>
				<g>
					<g>
						<g>
							<defs>
								<path id="SVGID_33_" d="M943.5,293.1c0,0-28.9-45.6-58.9-60c-27.7-13.2-58.7-5.3-58.7-5.3c-19.2,3.6-9.4,30.7,7.8,30.9H870
									l61.1,42.1C936.1,305.8,947.6,297.5,943.5,293.1z"/>
							</defs>
							<clipPath id="SVGID_34_">
								<use xlink:href="#SVGID_33_"  style="overflow:visible;"/>
							</clipPath>
							<g class="st52">
								<path class="st25" d="M892.5,214.1c-4.5,1.2-9,4.5-13.1,6.6c-5,2.6-9.9,5.4-14.1,9.2c-2,1.8-3.9,4-3.8,6.9
									c0.3,7.2,11.3,10.8,16.4,13.8c5.2,3,10.3,6.4,15.1,10.2c2.8,2.3,6.5,12.2,9.5,14.4c6.3,5,13.7,5.6,19.9,10.8
									c7,5.8,12.7,11.6,16.2,20.4c1.1,2.7,3.4,4.2,0,5.8c-3.5,1.8-8.2,0.9-11.9,0.5c-9-1.2-17.8-3.7-26.5-6.2
									c-23.2-6.7-46.2-14.2-65.2-29.7c-10.2-8.3-19.3-18.1-22.6-31.2c-2.6-10.3-1.5-21.9,3.4-31.3c8.1-15.6,25.9-24.4,42.6-18.1
									L892.5,214.1z"/>
							</g>
						</g>
					</g>
				</g>
			</g>
			<g>
				<path class="st10" d="M878.9,306.4c0,0,30.7-53.8,4.3-67.1c-27.4-13.8-58-9.8-58-9.8c-19.2,3.6-8.8,28.8,8.3,29h36.4l-3.5,45.2
					C864.6,308.8,876.8,310.7,878.9,306.4z"/>
				<g>
					<g>
						<g>
							<defs>
								<path id="SVGID_35_" d="M878.9,306.4c0,0,30.7-53.8,4.3-67.1c-27.4-13.8-58-9.8-58-9.8c-19.2,3.6-8.8,28.8,8.3,29h36.4
									l-3.5,45.2C864.6,308.8,876.8,310.7,878.9,306.4z"/>
							</defs>
							<clipPath id="SVGID_36_">
								<use xlink:href="#SVGID_35_"  style="overflow:visible;"/>
							</clipPath>
							<g class="st53">
								<path class="st25" d="M862.2,223.2c-2.9,0.5-5.8,2.3-8.4,3.7c-6.2,3.2-12.3,6.9-17.2,11.9c-2.2,2.2-6.3,6.8-4.2,10.3
									c1.7,2.7,6.4,3,9.1,2.5c12.1-2.1,13.2,1.5,25.9,2.8c4.7,0.5,10.1-3.2,10.1-3.2s-1.7,3-2.2,3.9c-1.9,3.5-2.6,4.2-3.3,8.3
									c-0.8,4.9,1.5,9.9,1.3,14.9c-0.2,6.5-4.8,12.2-5.3,18.7c-0.5,5.1-1.8,12-8.5,12.3c-7.5,0.4-12.5-4.1-18.7-7.6
									c-18.9-10.7-40.4-25.9-43.3-49.2c-3.2-25.7,19.7-52,46.2-48.5L862.2,223.2z"/>
							</g>
						</g>
					</g>
				</g>
			</g>
			<g>
				<path class="st23" d="M860.5,176.7c-0.6-4.3-9.4-8.1-12.2-4.7c-6.2,7.5-13.3,39.7-7.5,48.5c5.8,8.8,42.2,3.9,42.2,3.9
					c1.9,0.2,2.8,0.2,3.2,0.9l12.4-2.7c-0.2-0.6-1.9-3.1-11.8-2.7l-32.9-11.8C853.7,208.1,861.4,182.7,860.5,176.7z"/>
				<g>
					<g>
						<g>
							<defs>
								<path id="SVGID_37_" d="M860.5,176.7c-0.6-4.3-9.4-8.1-12.2-4.7c-6.2,7.5-13.3,39.7-7.5,48.5c5.8,8.8,42.2,3.9,42.2,3.9
									c1.9,0.2,2.8,0.2,3.2,0.9l12.4-2.7c-0.2-0.6-1.9-3.1-11.8-2.7l-32.9-11.8C853.7,208.1,861.4,182.7,860.5,176.7z"/>
							</defs>
							<clipPath id="SVGID_38_">
								<use xlink:href="#SVGID_37_"  style="overflow:visible;"/>
							</clipPath>
							<g class="st54">
								<g>
									<path class="st9" d="M833.8,185.4c1.2,3.2,5,5.8,7.6,7.7c3.5,2.5,7.5,4.8,11.9,5.5c9.5,1.5,19.4-3.7,21.2-13.6
										c2.4-12.6-9.5-23.8-21.6-23.2c-9,0.5-16.3,5.9-20.9,13.5L833.8,185.4z"/>
									<path class="st25" d="M833,197.8c0.2,0.8,1.2,1.6,1.6,2.2c1.5,1.9,3,3.8,4.6,5.6c7.2,8.2,17.4,16.2,28.7,17.2
										c4.8,0.5,9.5-0.7,14.2-1.6c1.1-0.2,4.1-0.7,4.6,0.7c0.6,1.5-1.9,3-2.8,3.6c-4,2.6-8.5,4.3-13.2,5.1
										c-13.3,2.3-32.3,1.4-38.4-13.1L833,197.8z"/>
								</g>
							</g>
						</g>
					</g>
				</g>
			</g>
			<g>
				<path class="st9" d="M856.5,172.2c-10.5-5.8-21-7.1-31.5,0.8c-4.6,17.1-7.4,39.2-9.7,62.2c15.8,3.6,38.5,0.8,39.6-9.8
					C846.8,205.2,860.8,193.4,856.5,172.2z"/>
				<g>
					<g>
						<g>
							<defs>
								<path id="SVGID_39_" d="M856.5,172.2c-10.5-5.8-21-7.1-31.5,0.8c-4.6,17.1-7.4,39.2-9.7,62.2c15.8,3.6,38.5,0.8,39.6-9.8
									C846.8,205.2,860.8,193.4,856.5,172.2z"/>
							</defs>
							<clipPath id="SVGID_40_">
								<use xlink:href="#SVGID_39_"  style="overflow:visible;"/>
							</clipPath>
							<g class="st55">
								<path class="st25" d="M816.5,172.2c0.9,1.5,2.1,2.8,3,4.2c2.9,4.2,9.6,4.2,11.9,8.7c3.5,6.8-3.8,10.6-3.5,19.9
									c0.4,9.2-0.5,9.8-2.4,15.9c-1,3.2-1.6,6.8,0.5,9.7c1.5,2.1,3.8,3.2,6.2,3.8c5.3,1.5,10.1,0.6,15.3-0.7
									c1.8-0.5,3.9-1.2,5.8-0.8c0.8,0.2,1.9,0.7,2.2,1.6c0.3,1.5-1.4,2.6-2.4,3.3c-3.5,2.4-8.2,3.2-12.2,3.5
									c-13.8,1.2-28.7-0.2-38.1-11.5c-10.9-13.3-9.8-33.8-2.7-48.5c3.2-6.7,10.8-16.8,19.5-12.8L816.5,172.2z"/>
							</g>
						</g>
					</g>
				</g>
			</g>
			<g>
				<g>
					<path class="st56" d="M902.9,233.1h-60.6c0,1.5,1.2,2.8,2.8,2.8H900C901.6,235.9,902.9,234.6,902.9,233.1z"/>
					<g>
						<g>
							<g>
								<defs>
									<path id="SVGID_41_" d="M902.9,233.1h-60.6c0,1.5,1.2,2.8,2.8,2.8H900C901.6,235.9,902.9,234.6,902.9,233.1z"/>
								</defs>
								<clipPath id="SVGID_42_">
									<use xlink:href="#SVGID_41_"  style="overflow:visible;"/>
								</clipPath>
								<g class="st57">
									<path class="st58" d="M867.2,233.1h-60.6c0,1.5,1.2,2.8,2.8,2.8h54.9C865.9,235.9,867.2,234.6,867.2,233.1z"/>
								</g>
							</g>
						</g>
					</g>
				</g>
				<path class="st12" d="M913.2,208.5c0.2-0.5,0.2-1-0.2-1.5c-0.3-0.4-0.8-0.7-1.2-0.7h-33.2c-0.6,0-1.2,0.4-1.4,0.9
					c-1.5,3.8-7.3,18.3-9.5,23.8c-0.3,0.8,0.1,1.7,0.8,2c0.2,0.1,0.4,0.1,0.5,0.1h33.2c0.6,0,1.2-0.4,1.4-1
					C905.2,228.4,911,213.9,913.2,208.5z"/>
			</g>
			<path class="st23" d="M834.8,181.1c0.2-4.5-7.2-10.7-10.7-7.9c-7.7,6.1-21.2,36.1-17.4,45.9c3.8,9.8,40.5,12.6,40.5,12.6
				c1.8,0.5,2.6,0.6,2.8,1.5l12.6,0c-0.1-0.6-1.2-3.3-11-5l-29.8-18.5C821.9,209.5,834.5,187.2,834.8,181.1z"/>
			<g>
				<g>
					<g>
						<defs>
							<path id="SVGID_43_" d="M834.8,181.1c0.2-4.5-7.2-10.7-10.7-7.9c-7.7,6.1-21.2,36.1-17.4,45.9c3.8,9.8,40.5,12.6,40.5,12.6
								c1.8,0.5,2.7,0.7,2.8,1.6h12.6c-0.1-0.6-1.2-3.5-11.1-5.2l-29.8-18.5C821.9,209.5,834.5,187.2,834.8,181.1z"/>
						</defs>
						<clipPath id="SVGID_44_">
							<use xlink:href="#SVGID_43_"  style="overflow:visible;"/>
						</clipPath>
						<g class="st59">
							<g>
								<path class="st25" d="M813.1,187.1c0.2,2.7,1,5.8,3,7.6c2.1,1.9,4.8,2.8,6.8,4.9c6.5,6.8,0.5,12.2-5.2,9.1
									c-0.6-0.3,1.3,2,4.8,2.9c4.6,1.2,6.2,2.8,7.4,2.8c4.5,0.2-0.2-11.5,0.2-12.7c0.1-0.3,0.2-0.6,0.2-0.9
									c1.2-5.5-0.5-12.1-4.8-15.9c-3.6-3.3-10.2-4.3-13.5-0.1L813.1,187.1z"/>
								<path class="st9" d="M810.5,184.5c1.2,3.2,5,5.8,7.6,7.7c3.5,2.5,7.5,4.8,11.9,5.5c9.5,1.5,19.4-3.7,21.2-13.6
									c2.4-12.6-9.5-23.8-21.6-23.2c-9,0.5-16.3,5.9-20.9,13.5L810.5,184.5z"/>
							</g>
						</g>
					</g>
				</g>
			</g>
			<path class="st23" d="M846.7,159.6h-8c0.5,3.1-0.9,5.9-2.8,8.5c4.8,10.3,11,10.8,11,0.3C846,166.1,846,163.1,846.7,159.6z"/>
			<g>
				<g>
					<g>
						<defs>
							<path id="SVGID_45_" d="M846.7,159.6h-8c0.5,3.1-0.9,5.9-2.8,8.5c4.8,10.3,11,10.8,11,0.3C846,166.1,846,163.1,846.7,159.6z"
								/>
						</defs>
						<clipPath id="SVGID_46_">
							<use xlink:href="#SVGID_45_"  style="overflow:visible;"/>
						</clipPath>
						<g class="st60">
							<path class="st25" d="M838.2,161.5c2.8,6.5,9,6.5,10,5.2c0.3-0.4,1,0.2,1.5-0.2c0.4-0.4,0.7-0.8,0.7-1.4
								c0.2-1.3-0.4-0.9-0.5-2.2c-0.4-2.8-1.9-6-4.9-6.6c-0.5-0.1-1.1-0.2-1.6-0.1c-0.8,0.2-1.7,0.4-2.5,0.8c-1,0.5-1.8,1.2-2.5,2.1
								L838.2,161.5z"/>
						</g>
					</g>
				</g>
			</g>
			<path class="st23" d="M844.2,145.4c3.6,0,6.7,3.5,6.7,8.8c0,5.3-1.2,11.2-4.8,11.2c-3.6,0-9.6-3.5-9.6-8.9
				S840.5,145.4,844.2,145.4z"/>
			<path class="st44" d="M839.4,153.1c4.1,1.1,8.7,1.6,12.1-1.6c0.8,0.5,2.2,0.4,3,0.2c2.4-0.7,4.2-2.6,4.8-5
				c0.8-3.5-0.3-7.2-2.8-9.8c-1.7-1.8-4.1-2.8-6.5-2.1c-0.8,0.2-1.7,0.7-2.4,1.2c-0.8,0.6-1.6,1.4-2.2,2.2c-1.1-0.6-2.6-0.2-3.8,0.1
				c-3.2,0.8-5.7,3.5-6.4,6.7c-1.1,0-1.9,1.5-2.3,2.4c-1.5,2.7-1.5,6,0.1,8.7c-0.8,2.4,5.2,7.6,5,4.9c-0.2-2.8,3.4-2.1,3.2-4.2
				C840.8,155.9,839.4,153.1,839.4,153.1z"/>
			<g transform="matrix(0.942,-0.3356,0.3356,0.942,-21.2186,227.454)">
				
					<ellipse transform="matrix(-2.536380e-06 -1 1 -2.536380e-06 610.7571 1056.5876)" class="st23" cx="833.7" cy="222.9" rx="2.1" ry="-1.4"/>
			</g>
		</g>
	</g>
</g>
</svg>
