<svg xmlns="http://www.w3.org/2000/svg" xmlns:xlink="http://www.w3.org/1999/xlink" viewBox="0 0 1396.61 506.27"><defs><style>.cls-1{fill:url(#New_Gradient_Swatch_5);}</style><linearGradient id="New_Gradient_Swatch_5" y1="253.13" x2="1396.61" y2="253.13" gradientUnits="userSpaceOnUse"><stop offset="0" stop-color="#282e71"/><stop offset="0.5" stop-color="#3a72b9"/><stop offset="1" stop-color="#282e71"/></linearGradient></defs><g id="Layer_2" data-name="Layer 2"><g id="Layer_1-2" data-name="Layer 1"><path class="cls-1" d="M158.64,362.58a9.32,9.32,0,0,0,.14-1c0-.45,0-.91,0-1.36V286.78c0-.67,0-1.35,0-1.92a1.3,1.3,0,0,0-1.22-.4H146a2.62,2.62,0,0,0-1.53.23,6.66,6.66,0,0,0-.11.73c0,.45,0,.91,0,1.36q0,23.13,0,46.26a12.74,12.74,0,0,1-.72,4.54,12.13,12.13,0,0,1-10.73,8.35,19.66,19.66,0,0,1-2.17.06H62.28a5.74,5.74,0,0,0-3.08.93,5.08,5.08,0,0,0-1.58,1.65,26.52,26.52,0,0,1-11,9.45,26,26,0,0,1-12.95,2.47,26.86,26.86,0,1,1,23-43c.22.29.42.59.64.88a6.91,6.91,0,0,0,5,2.64c.41,0,.82,0,1.23,0h54a3.15,3.15,0,0,0,1.58-.16,2.54,2.54,0,0,0,.2-1.48q0-4.08,0-8.16,0-12.39,0-24.77a3.9,3.9,0,0,0-.18-1.8,3.9,3.9,0,0,0-.73-.18c-.54,0-1.09,0-1.63,0H14.67a16.15,16.15,0,0,1-3.92-.33,12.47,12.47,0,0,1,.18-24.25,21,21,0,0,1,3-.36c.59-.05,1.18,0,1.77,0H156.71a4.37,4.37,0,0,0,1.92-.16,6.55,6.55,0,0,0,.15-.77c0-.41,0-.82,0-1.23V100.46a16.77,16.77,0,0,0-.45-4.58,11.61,11.61,0,0,0-7.91-8.29,9.21,9.21,0,0,0-1.6-.26c-.31,0-.63,0-1,0H81.1a5.52,5.52,0,0,0-1.83.13,3.6,3.6,0,0,0,.18.63c.17.32.39.61.59.91Q89.49,103.46,99,117.91c.29.45.61.89,1,1.38.94,0,1.85,0,2.75,0a11.4,11.4,0,0,1,11.43,9.83,10.92,10.92,0,0,1,.08,1.62,70.29,70.29,0,0,1-.51,8.82,60.21,60.21,0,0,1-4.45,17.32C102,173.6,89.45,184.29,71.91,189.1a56.71,56.71,0,0,1-10.45,1.73,53.1,53.1,0,0,1-10.32-.13c-16.19-1.84-29.52-8.89-39.45-22a56.33,56.33,0,0,1-9.76-21.07,60.17,60.17,0,0,1-1.69-11c-.11-2-.2-4-.24-6a11.36,11.36,0,0,1,9.81-11.29,20.11,20.11,0,0,1,2.58-.08c1.94,0,1.62.14,2.6-1.4q15.15-23.8,30.29-47.63c.36-.57.67-1.17,1-1.75A12.22,12.22,0,0,1,56.74,62.4c.73,0,1.45,0,2.18,0q44.55,0,89.09,0a9.42,9.42,0,0,0,5.49-1.67A11.3,11.3,0,0,0,158.79,51q0-18.76,0-37.55a17.12,17.12,0,0,1,.29-3.78,12.47,12.47,0,0,1,24.25-.26,14.81,14.81,0,0,1,.41,3.5V48.16c0,1,0,2.09,0,3.13A11.79,11.79,0,0,0,191.66,62a5.73,5.73,0,0,0,2.13.38c.45,0,.9,0,1.36,0H283.7a17.24,17.24,0,0,1,4.05.29,12.35,12.35,0,0,1,5.8,3.11A17.77,17.77,0,0,1,296.23,69q16,24.52,32.09,49.05a.76.76,0,0,1,.08.11,1.74,1.74,0,0,0,2,1.11,15.42,15.42,0,0,1,2,0,11.44,11.44,0,0,1,10.84,9.21,21.69,21.69,0,0,1,.16,5.15c-.14,2.63-.32,5.25-.71,7.86-2.14,14.12-8,26.27-18.88,35.77a55.09,55.09,0,0,1-23.75,12.11A56.06,56.06,0,0,1,284.41,191c-15.84-.72-29.41-6.52-40.22-18.29A55.09,55.09,0,0,1,232.1,151a67.05,67.05,0,0,1-2.54-13.33c-.21-2.31-.23-4.61-.29-6.93a11.37,11.37,0,0,1,9.46-11.3,18.06,18.06,0,0,1,2.44-.15c1.08,0,2.17,0,3.17,0,.65-.75,19.19-29.7,20-31.23a2.73,2.73,0,0,0,.16-.56,3.41,3.41,0,0,0-.55-.14c-.5,0-1,0-1.5,0H195.13c-5-.51-9.94,3.8-11.07,8.49a15.52,15.52,0,0,0-.3,2.14,9.91,9.91,0,0,0,0,1.09V257.28c0,.67,0,1.34.05,2.07a6.9,6.9,0,0,0,.86.14c.54,0,1.09,0,1.63,0H331a17.06,17.06,0,0,1,4.45.48,12.46,12.46,0,0,1-.7,24.23,17.4,17.4,0,0,1-2.16.24c-.63,0-1.27,0-1.91,0H227.86a3.92,3.92,0,0,0-2,.22,2.36,2.36,0,0,0-.12.51q0,16.67,0,33.33a1.6,1.6,0,0,0,.16.44,5.89,5.89,0,0,0,.63.11c.41,0,.81,0,1.22,0H284.2a42.5,42.5,0,0,0,5.29-.26,4.37,4.37,0,0,0,3.32-2.05,26.22,26.22,0,0,1,14.05-10.62,26.84,26.84,0,1,1-13.26,41.59c-.19-.26-.39-.51-.56-.77a6.76,6.76,0,0,0-5.41-2.94c-.27,0-.54,0-.81,0H227.65a4.23,4.23,0,0,0-1.81.18c0,.26-.1.51-.12.77s0,.64,0,.95q0,18.65,0,37.28c0,1.89-.21,1.48,1.22,2.79q10.69,9.87,21.41,19.73a8.2,8.2,0,0,0,4,2.19,10.13,10.13,0,0,0,3.25,0,26.85,26.85,0,1,1-23.13,32.85,25.55,25.55,0,0,1,0-12.26,4.81,4.81,0,0,0-1.42-4.81c-1-1.05-2.12-2-3.19-3Q216.53,410.36,205.22,400a13.13,13.13,0,0,1-4-6.21,11.72,11.72,0,0,1-.47-3.22c0-.59,0-1.18,0-1.77V286.58a5.36,5.36,0,0,0-.12-1.87,2.15,2.15,0,0,0-1.46-.25h-14a1.88,1.88,0,0,0-1.4.32c0,.37,0,.81,0,1.26V435c0,5.71,0,11.43,0,17.14a6.77,6.77,0,0,0,.43,2.53A4.5,4.5,0,0,0,186,457a25.93,25.93,0,0,1,7.73,7.74,26.85,26.85,0,1,1-37.69-7.4,6.35,6.35,0,0,0,2.75-4.9,9.92,9.92,0,0,0,0-1.22V389.73c0-2.33.13-2.17-2.11-2.17h-26c-.36,0-.72,0-1.08,0a1.58,1.58,0,0,0-1.23.48c-.34.36-.72.69-1.07,1l-26.09,25.27c-.23.22-.47.43-.68.67a5.6,5.6,0,0,0-1.36,5.78,26.62,26.62,0,0,1-4.69,24.75,26.62,26.62,0,0,1-17,9.77A27.12,27.12,0,0,1,47.35,437a26.69,26.69,0,0,1,12.91-31.78A26.38,26.38,0,0,1,72.91,402c1,0,2.08,0,3.12.08A4.38,4.38,0,0,0,79.15,401c.31-.26.6-.55.9-.84q17.39-16.85,34.77-33.7a12.94,12.94,0,0,1,6-3.4,14.69,14.69,0,0,1,3.5-.41h32.64C157.45,362.62,158,362.6,158.64,362.58ZM89.81,142.38a4.49,4.49,0,0,0-2.06-.22H26.27c-.41,0-.82,0-1.22,0a3.18,3.18,0,0,0-.7.22c0,.19,0,.28,0,.37s0,.27.07.4a33.58,33.58,0,0,0,7.52,14.15c6.06,6.61,13.69,10,22.54,10.67A33,33,0,0,0,65,167.2c12.87-3.15,21-11.19,24.67-23.87A8.09,8.09,0,0,0,89.81,142.38Zm163.84-.07a2.13,2.13,0,0,0,0,.41,7.1,7.1,0,0,0,.17.8,34.14,34.14,0,0,0,4.94,10.67c6.18,8.66,14.76,13,25.22,13.81a33.62,33.62,0,0,0,9.06-.53,33.28,33.28,0,0,0,15-6.88,32.87,32.87,0,0,0,11-17.69,2.52,2.52,0,0,0,0-.55,4.44,4.44,0,0,0-1.9-.19H255.57c-.4,0-.81,0-1.22,0C254.13,142.19,253.92,142.26,253.65,142.31ZM72.14,119.11a2.71,2.71,0,0,0-.13-.49l-15-23c-.07-.11-.21-.16-.34-.26a3.15,3.15,0,0,0-.92,1.17L42.46,117.44c-.22.34-.45.68-.65,1a3.68,3.68,0,0,0-.23.69c.41,0,.71.1,1,.11C50.66,119.47,70.85,119.36,72.14,119.11ZM84.33,429.5a10.88,10.88,0,0,0-1.22-5.59,11.24,11.24,0,0,0-17-3.28,10.53,10.53,0,0,0,.12,16.47,11.26,11.26,0,0,0,13.44.5A10.29,10.29,0,0,0,84.33,429.5Zm230.86-87.05a10.76,10.76,0,1,0-10.82-10.76A10.74,10.74,0,0,0,315.19,342.45ZM182,479.41a10.76,10.76,0,1,0-10.82,10.77A10.71,10.71,0,0,0,182,479.41Zm76.45-34.05a10.71,10.71,0,0,0,10.87-10.57,10.84,10.84,0,0,0-10.56-10.92,10.75,10.75,0,1,0-.31,21.49ZM35.3,344.41A10.74,10.74,0,0,0,46,333.7a10.75,10.75,0,1,0-21.5,0A10.69,10.69,0,0,0,35.3,344.41ZM286.5,96.25a3.21,3.21,0,0,0-.95,1.19q-6.46,10.16-12.92,20.3a6.75,6.75,0,0,0-.48.82,3.35,3.35,0,0,0-.12.69l1.58,0q13,0,26.1,0c.37,0,.73,0,1.09,0a2.52,2.52,0,0,0,.58-.21c-.48-1.13-12.05-19-14.41-22.32A5.26,5.26,0,0,0,286.5,96.25ZM465.15,64.91h27.3l65.19,149.85H520.39L507.48,183H449.27l-12.48,31.75H400.38Zm12.7,43.6-18.21,46.56h36.62Zm91.22-53.76h31.74v160H569.07ZM731.61,206.08q0,29.21-14.71,44.34t-44.76,15.13a120.17,120.17,0,0,1-27.09-3.07,61.22,61.22,0,0,1-24.55-12l17.56-26.25A66.66,66.66,0,0,0,653.62,234a43.75,43.75,0,0,0,17.89,3.6q14.6,0,21.48-7.09t6.88-18.1v-10h-.43A29.9,29.9,0,0,1,685.79,213,43.76,43.76,0,0,1,670.45,216a53,53,0,0,1-20.74-3.92,46,46,0,0,1-16-11,49.08,49.08,0,0,1-10.27-16.83,61.18,61.18,0,0,1-3.6-21.38A61.81,61.81,0,0,1,623.14,143a54.42,54.42,0,0,1,9.32-17.15,46.7,46.7,0,0,1,14.71-12,41.63,41.63,0,0,1,19.68-4.55,47.81,47.81,0,0,1,22.43,5.29,36.69,36.69,0,0,1,7.62,5.18,33.11,33.11,0,0,1,5.08,5.61h.43V111.9h29.2Zm-80-43.39a24.85,24.85,0,0,0,7.3,17.67,28,28,0,0,0,8,5.61,24.67,24.67,0,0,0,20,0,27.37,27.37,0,0,0,8.14-5.61,25,25,0,0,0,0-35.34,27.37,27.37,0,0,0-8.14-5.61,24.67,24.67,0,0,0-20,0,28,28,0,0,0-8,5.61,24.85,24.85,0,0,0-7.3,17.67Zm101.59.64a54,54,0,0,1,4.44-22.23,51.17,51.17,0,0,1,12.17-17A53.68,53.68,0,0,1,788,113.17a67.34,67.34,0,0,1,44.66,0,53.73,53.73,0,0,1,18.2,10.9,51.17,51.17,0,0,1,12.17,17,57.85,57.85,0,0,1,0,44.45,51.31,51.31,0,0,1-12.17,17,53.73,53.73,0,0,1-18.2,10.9,67.34,67.34,0,0,1-44.66,0,53.68,53.68,0,0,1-18.21-10.9,51.31,51.31,0,0,1-12.17-17A53.93,53.93,0,0,1,753.2,163.33Zm31.75,0q0,11.64,6.66,18.83t18.74,7.2q12.06,0,18.73-7.2t6.66-18.83q0-11.64-6.66-18.84t-18.73-7.2q-12.08,0-18.74,7.2T785,163.33ZM886.11,111.9h31.75v16.5h.42q5.09-9.53,12.07-14.28t17.57-4.76c1.83,0,3.66.07,5.5.21a27.62,27.62,0,0,1,5.08.84v29a49.88,49.88,0,0,0-6.67-1.59,43.52,43.52,0,0,0-6.88-.53q-9.11,0-14.39,2.54a19.2,19.2,0,0,0-8.15,7.09,27,27,0,0,0-3.7,10.9,105.24,105.24,0,0,0-.85,14v43H886.11Zm84-32.39a18.42,18.42,0,1,1,31.43,13,18.42,18.42,0,0,1-31.43-13Zm2.54,32.39h31.75V214.76H972.68Zm124.66,25.39H1069.4v34.29a65,65,0,0,0,.42,7.73,15.51,15.51,0,0,0,1.91,6,9.54,9.54,0,0,0,4.55,3.91,20.1,20.1,0,0,0,8.15,1.38,55.7,55.7,0,0,0,6.67-.53,11.27,11.27,0,0,0,6.24-2.43v26.45a47.92,47.92,0,0,1-11,2.54,100,100,0,0,1-11.21.64,60.91,60.91,0,0,1-14.82-1.7,33.51,33.51,0,0,1-11.85-5.39,25.31,25.31,0,0,1-7.94-9.63,33,33,0,0,1-2.86-14.39v-48.9h-20.32V111.9h20.32V81.42h31.75V111.9h27.94Zm47.83-82.54v71.11h.43a19.09,19.09,0,0,1,3.59-5.92,28.11,28.11,0,0,1,6.14-5.29,33.55,33.55,0,0,1,8.47-3.81,36.08,36.08,0,0,1,10.58-1.48q12.06,0,19.47,3.7a28.24,28.24,0,0,1,11.54,10.26,41.46,41.46,0,0,1,5.6,15.46,116.94,116.94,0,0,1,1.49,19.26v56.72h-31.75V164.38q0-4.44-.32-9.2a29.31,29.31,0,0,0-1.9-8.79,15.34,15.34,0,0,0-4.87-6.56q-3.29-2.54-9.42-2.54a19.52,19.52,0,0,0-10,2.23,15.18,15.18,0,0,0-5.82,5.92,24.19,24.19,0,0,0-2.64,8.36,71,71,0,0,0-.64,9.74v51.22h-31.75v-160Zm89.74,57.15h30.48v14h.42a26.1,26.1,0,0,1,4.23-5.92,30.71,30.71,0,0,1,6.56-5.29,37.64,37.64,0,0,1,8.68-3.81,36.17,36.17,0,0,1,10.58-1.48A40.25,40.25,0,0,1,1315,113.8a28.13,28.13,0,0,1,12.59,14q5.51-9.94,13.34-14.18t19.26-4.23q10.36,0,17.46,3.49a28.7,28.7,0,0,1,11.22,9.52,40.2,40.2,0,0,1,5.92,14.18,80.94,80.94,0,0,1,1.8,17.46v60.75h-31.75v-59.9a23.86,23.86,0,0,0-3.07-12.38q-3.06-5.19-10.9-5.19a21.06,21.06,0,0,0-9.2,1.8,15.15,15.15,0,0,0-5.93,5,20.54,20.54,0,0,0-3.17,7.4,40.17,40.17,0,0,0-1,8.89v54.4h-31.74v-54.4c0-1.83-.08-4.09-.22-6.77a26.9,26.9,0,0,0-1.48-7.62,14.59,14.59,0,0,0-4.12-6.14q-2.86-2.54-8.36-2.54a19.5,19.5,0,0,0-10,2.23,15.18,15.18,0,0,0-5.82,5.92,24.42,24.42,0,0,0-2.65,8.36,72.69,72.69,0,0,0-.63,9.74v51.22h-31.75Zm-769.76,192h27.3l65.19,149.85H520.39L507.48,422H449.27l-12.48,31.75H400.38Zm12.7,43.6-18.21,46.56h36.62ZM667.7,453.76H637.22v-14h-.42a36,36,0,0,1-4.34,5.93A28.72,28.72,0,0,1,626,451a37.64,37.64,0,0,1-8.68,3.81,36.41,36.41,0,0,1-10.58,1.48q-12.06,0-19.58-3.71a28,28,0,0,1-11.64-10.26,40.15,40.15,0,0,1-5.5-15.45,125.86,125.86,0,0,1-1.38-19.26V350.9h31.75v50.37q0,4.44.32,9.21a29.25,29.25,0,0,0,1.9,8.78,15.14,15.14,0,0,0,4.87,6.56q3.28,2.54,9.42,2.54a19.63,19.63,0,0,0,10-2.22,15.14,15.14,0,0,0,5.82-5.93,24.12,24.12,0,0,0,2.64-8.36,70.89,70.89,0,0,0,.64-9.73V350.9H667.7Zm130.37,0H768.86V440.21h-.42a34.89,34.89,0,0,1-5,5.61,37.54,37.54,0,0,1-7.2,5.19,44.38,44.38,0,0,1-9.1,3.81,36.08,36.08,0,0,1-10.27,1.48,53,53,0,0,1-20.74-3.92,46.23,46.23,0,0,1-16-11,49.05,49.05,0,0,1-10.26-16.83,61.18,61.18,0,0,1-3.6-21.38,64.73,64.73,0,0,1,3.28-20.63,56.89,56.89,0,0,1,9.31-17.46,45.48,45.48,0,0,1,14.71-12.17,41.7,41.7,0,0,1,19.69-4.55,54.73,54.73,0,0,1,18.52,3.06A29.68,29.68,0,0,1,765.9,361.9h.42V293.75h31.75Zm-29.21-51.43q0-11.64-6.66-18.84t-18.73-7.2q-12.08,0-18.74,7.2t-6.66,18.84q0,11.64,6.66,18.83t18.74,7.2q12.06,0,18.73-7.2T768.86,402.33Zm52.49-83.82a18.44,18.44,0,1,1,5.4,13A17.71,17.71,0,0,1,821.35,318.51Zm2.54,32.39h31.75V453.76H823.89Zm124.66,25.39H920.61v34.29a62.88,62.88,0,0,0,.43,7.73,15.51,15.51,0,0,0,1.9,6,9.63,9.63,0,0,0,4.55,3.91,20.13,20.13,0,0,0,8.15,1.38,55.55,55.55,0,0,0,6.67-.53,11.27,11.27,0,0,0,6.24-2.43v26.45a47.84,47.84,0,0,1-11,2.54,100,100,0,0,1-11.22.64,61,61,0,0,1-14.82-1.7,33.67,33.67,0,0,1-11.85-5.39,25.31,25.31,0,0,1-7.94-9.63,33,33,0,0,1-2.85-14.39v-48.9H868.55V350.9h20.32V320.42h31.74V350.9h27.94Z"/></g></g></svg>