<?xml version="1.0" encoding="utf-8"?>
<!-- Generator: Adobe Illustrator 25.0.0, SVG Export Plug-In . SVG Version: 6.00 Build 0)  -->
<svg version="1.1" id="Layer_1" xmlns="http://www.w3.org/2000/svg" xmlns:xlink="http://www.w3.org/1999/xlink" x="0px" y="0px"
	 viewBox="0 0 600 800" style="enable-background:new 0 0 600 800;" xml:space="preserve">
<style type="text/css">
	.st0{fill:none;}
	.st1{fill:url(#SVGID_1_);}
</style>
<path class="st0" d="M612,664.5c8.5,0,15.7-6.7,15.7-15.8c0-9.4-7.6-15.9-15.8-15.9c-7.6-0.1-15.6,6-15.8,15.8
	C596,656.5,602.2,664.4,612,664.5z"/>
<path class="st0" d="M694.8,522.2c7.4,0.1,15.9-5.7,16-15.8c0-9.4-7.7-15.9-15.7-15.8c-8.1-0.2-15.8,6.5-15.9,15.6
	C679.1,514.8,686.2,522,694.8,522.2z"/>
<path class="st0" d="M269.5,237.8c-0.5,0-1,0.1-1.8,0.1l0,0l0,0c0.1,0.7,0.2,1.2,0.3,1.6c2.3,8.2,6.1,15.6,12.1,21.7
	c8.4,8.5,18.7,13,30.5,14.3c6.4,0.7,12.8,0.2,19-1.6c17.9-5.1,29.2-16.9,34.2-34.7c0.1-0.4,0.1-0.9,0.1-1.3l0,0l0,0
	C361.8,237.7,290.8,237.5,269.5,237.8z"/>
<path class="st0" d="M483.5,717.7c-8.6,0-15.7,7-15.7,15.9c0,9,7.5,15.8,15.8,15.7c7.1,0.2,15.7-5.4,15.8-15.7
	C499.5,724.7,492.4,717.7,483.5,717.7z"/>
<path class="st0" d="M605.6,267.8c-0.3,0-0.6,0.1-1,0.2c0,0.3-0.1,0.6,0,0.9c0.4,1.5,0.9,3.1,1.4,4.6c4,11.3,11,20.1,21.6,26
	c8.6,4.8,17.8,6.8,27.6,6.3c5.6-0.3,11-1.3,16.1-3.3c15.3-6,24.8-17.2,29.2-32.9c0.1-0.5,0.5-1,0-1.6c-0.8-0.2-1.6-0.1-2.5-0.1
	c-30.2,0-60.4,0-90.7,0C606.8,267.8,606.2,267.8,605.6,267.8z"/>
<path class="st0" d="M672.7,234.1c0.4,0,0.8,0,1.2,0c0.3,0,0.7,0.1,0.9-0.4c0-0.2,0-0.4-0.1-0.5c-7.1-10.8-14.1-21.6-21.2-32.4
	c-0.1-0.2-0.3-0.2-0.7-0.5c-0.5,0.7-0.8,1.2-1.2,1.8c-6.4,10-12.7,20-19.1,30c-0.2,0.3-0.5,0.7-0.6,1s-0.1,0.6-0.2,1
	c0.8,0,1.5,0.1,2.1,0.1C646.7,234.1,659.7,234.1,672.7,234.1z"/>
<path class="st0" d="M337.3,204.1c0.2,0,0.4-0.1,0.5-0.2c0-0.2,0.1-0.3,0.1-0.4c-7.1-10.9-14.1-21.8-21.2-32.6
	c-0.4-0.6-0.7-1.3-1.3-1.7c-0.1,0-0.2,0-0.2,0c-0.2,0.1-0.3,0.2-0.4,0.4c-7,11.1-14.1,22.1-21.1,33.2c-0.2,0.3-0.3,0.6-0.5,1.1
	c0.4,0.1,0.6,0.3,0.7,0.3C308.3,204.1,322.8,204.1,337.3,204.1z"/>
<path class="st0" d="M326.9,649.3c-4.3,5.2-4.7,12.9-1,18.3c3.3,4.8,7.9,7.2,13.6,7.4c3.3,0.1,6.3-0.9,9.1-2.6c8-5.1,10-16,3.3-23.6
	C345.2,641.3,333.3,641.6,326.9,649.3z"/>
<path class="st0" d="M283.7,503.5c-7.5,0-15.6,5.8-15.7,15.8c-0.1,8.5,6.6,15.8,15.9,15.8c9.1,0,15.7-7.4,15.7-15.8
	C299.7,510.6,292.6,503.4,283.7,503.5z"/>
<linearGradient id="SVGID_1_" gradientUnits="userSpaceOnUse" x1="110.1284" y1="400" x2="1220.3928" y2="400" gradientTransform="matrix(1 0 0 -1 0 800)">
	<stop  offset="0" style="stop-color:#293373"/>
	<stop  offset="0.4922" style="stop-color:#3972B8"/>
	<stop  offset="1" style="stop-color:#293373"/>
</linearGradient>
<path class="st1" d="M489.5,417.1c-1.6-6-7.1-9.8-12.1-10c-1-0.1-2-0.1-3-0.1c-52.9,0-105.8,0-158.7,0c-0.7,0-1.3,0-2,0
	c-0.3,0-0.6-0.1-0.8-0.2c-0.3-0.8-0.1-1.6-0.1-2.4c0-58,0-116,0-174c0-0.4,0-0.8,0-1.2c0-1,0.1-2.1,0.5-3.1c1.6-5.4,7.2-9.5,12.1-9
	c24.8,0,49.6,0,74.3,0c0.5,0,1,0,1.5,0c0.2,0,0.4,0.1,0.5,0.1c0,0.1,0.1,0.3,0.1,0.4c-7.2,11.6-14.6,23.1-21.9,34.6
	c-0.2,0.1-0.4,0.1-0.5,0.1c-1.3,0-2.6,0.1-3.9,0.1c-5.8,0-10.7,3.9-12.2,9.4c-0.4,1.5-0.5,2.9-0.5,4.4c0.2,2.4,0.2,4.8,0.5,7.2
	c0.5,5.1,1.5,10.1,3,14.9c3.1,9.7,8.1,18.2,15.5,25.4c11.2,10.9,24.8,16.6,40.3,17.5c6.5,0.5,12.9-0.2,19.2-1.7
	c9.7-2.4,18.4-6.8,25.9-13.3c12.8-11.2,19.3-25.7,21.1-42.5c0.3-2.5,0.3-5,0.4-7.5c0.1-1,0-1.9-0.1-2.9c-0.5-5.4-4.9-10-10.2-10.9
	c-1.3-0.2-2.6-0.2-3.9-0.2c-1.8,0-1.5,0.1-2.5-1.4c-11.8-18-23.5-36.1-35.3-54.1c-0.8-1.3-1.8-2.4-2.8-3.5c-2-1.9-4.3-3.1-7-3.6
	c-1.3-0.2-2.5-0.2-3.9-0.2c-32.5,0-65.2,0-97.7,0c-0.5,0-1,0-1.5,0c-0.8,0.1-1.6-0.1-2.3-0.4c-4.3-1.6-7-4.7-8.2-9.2
	c-0.5-1.6-0.5-3.3-0.5-4.9c0-13.2,0-26.4,0-39.6c0-1.1,0-2.3-0.2-3.4c-1.3-5.7-4.7-9.4-10.4-10.8c-5.8-1.3-10.5,0.6-14.2,5.2
	c-1.9,2.4-2.6,5.3-2.7,8.3c0,1.4,0,2.9,0,4.3c0,12.8,0,25.5,0,38.2c0,0.8,0,1.7-0.2,2.6c-0.8,3.4-2.7,6.1-5.6,8
	c-1.8,1.2-3.7,1.8-5.9,1.8c-32.7-0.1-65.5,0-98.2,0c-0.8,0-1.5,0-2.2,0c-5.2,0.2-9.1,2.5-11.8,6.8c-0.4,0.6-0.7,1.2-1.1,1.8
	c-11.2,17.6-22.4,35.2-33.5,52.7c-0.3,0.5-0.5,0.8-0.9,1.3c-1,0-2,0-3,0c-5.4,0-10.2,3.5-11.9,8.7c-0.5,1.6-0.7,3.1-0.6,4.7
	c0.1,2.2,0.2,4.5,0.4,6.8c0.4,5,1.3,10,2.8,14.9c3.3,10.9,8.9,20.2,17.3,27.9c10.9,10,24,15.1,38.6,16c6.4,0.5,12.9-0.1,19.2-1.7
	c9.5-2.3,18-6.5,25.4-12.9c12.2-10.5,18.9-24,21.2-39.8c0.5-2.9,0.7-5.8,0.8-8.6c0.1-1.9,0.1-3.7-0.2-5.5c-0.9-5.1-4.9-9.1-10-10.1
	c-1.3-0.2-2.6-0.2-3.9-0.2c-1.8,0-1.6,0.2-2.6-1.4c-7-10.6-14-21.3-20.9-32c-0.2-0.3-0.4-0.7-0.6-1.1c-0.1-0.2-0.1-0.4-0.1-0.8
	c0.8,0,1.4,0,2,0c24.5,0,49,0,73.4,0c0.3,0,0.6,0,0.9,0c0.7-0.1,1.4,0.1,2,0.3c4.6,1.6,7.5,4.7,8.8,9.4c0.4,1.5,0.4,3.1,0.4,4.6
	c0,57.7,0,115.4,0,173.1c0,0.4,0,0.9,0,1.3c0,0.3-0.1,0.6-0.1,0.8c-0.8,0.3-1.7,0.2-2.4,0.2c-51.7,0-103.4,0-155.1,0
	c-0.8,0-1.5,0-2.2,0c-0.8,0.1-1.6,0.1-2.4,0.2c-6.9,1.3-10.7,7.1-11.1,12.3c-0.5,6.7,3.7,12.8,10.1,14.5c1.5,0.4,3.1,0.5,4.6,0.5
	c37.5,0,75.1,0,112.6,0c0.6,0,1.2,0,1.8,0c0.2,0,0.5,0.1,0.8,0.1c0.2,0.7,0.2,1.3,0.2,2c0,12.1,0,24.1,0,36.1c0,0.4,0,0.7,0,1
	c0,0.3-0.1,0.6-0.2,0.8c-0.8,0.2-1.4,0.2-2.1,0.2c-17,0-33.9,0-50.8,0c-2.8,0-5.7,0-8.6,0c-0.9,0-1.8-0.2-2.6-0.4
	c-1.9-0.5-3.3-1.7-4.5-3.3c-6.8-9.2-18.1-13.8-29.6-11.5c-16.3,3.6-26.6,19.3-23.2,35.5c3.8,17.9,22.6,28.1,39.8,21.4
	c5.8-2.2,10.4-6,13.9-11.2c1.2-1.8,2.9-2.7,5-2.7c0.5,0,1.1,0,1.7,0c24.7,0,49.4,0,74.2,0c1,0,2,0,3-0.2c5.8-1.1,9.5-4.4,11.1-10.1
	c0.5-1.4,0.5-2.9,0.5-4.4c0-13.8,0-27.6,0-41.4c0-3.2,0-6.5,0-9.8c0-0.6-0.1-1.2,0.2-1.9c0.4,0,0.8-0.1,1.1-0.1c1.2,0,2.4,0,3.6,0
	c3.1,0,6.3,0,9.4,0c0.5,0,1-0.2,1.5,0.4c0,0.6,0,1.3,0,2c0,27.2,0,54.3,0,81.5c0,0.4,0,0.9,0,1.3c0,0.3-0.1,0.5-0.1,0.9
	c-0.8,0-1.7,0.1-2.5,0.1c-11.7,0-23.4,0-35.1,0c-1.3,0-2.5,0.1-3.8,0.3c-2.7,0.5-4.9,1.9-6.9,3.8c-7.4,7.1-14.7,14.2-22.1,21.4
	c-5.5,5.4-11.1,10.8-16.6,16.2c-1.4,1.3-2.9,2-4.9,1.8c-4.6-0.4-9.1,0.3-13.5,2c-14.5,5.8-21.8,21.3-17.6,35.8
	c4.3,14.3,18.4,23.1,33.2,20.9c5.1-0.8,9.8-2.7,13.9-5.9c6.7-5.2,10.4-12,11.4-20.3c0.4-4,0.1-8-1.2-11.9c-0.8-2.4-0.1-4.5,1.5-6.4
	c0.3-0.3,0.7-0.6,1-1c9.5-9.2,19-18.4,28.4-27.5c0.5-0.4,0.9-0.8,1.3-1.3c0.3-0.3,0.7-0.5,1-0.5s0.8,0,1.2,0c6.5,0,13,0,19.5,0
	c3.3,0,6.6,0,9.9,0c0.5,0,1.1-0.1,1.7,0.2c0.2,0.7,0.1,1.4,0.1,2.1c0,22.7,0,45.4,0,68.1c0,0.4,0,0.8,0,1.2c-0.2,2.1-1,3.9-2.8,5.2
	c-10,6.8-15,18.9-12.2,31.1c2.9,12.8,13.6,21.6,25.7,22.8c0.5,0.1,1,0.2,1.4,0.3c1.1,0,2.2,0,3.3,0c0.5-0.1,1-0.3,1.4-0.3
	c10.9-1.1,21.9-8.8,25.3-21.5c3.5-12.7-1.6-25.4-11.9-32.4c-1.9-1.3-2.6-3-2.9-5.2c-0.1-0.5,0-0.9,0-1.3c0-22.7,0-45.5,0-68.2
	c0-28.6,0-57.2,0-85.8c0-9.2,0-18.4,0-27.6c0-0.7-0.1-1.4,0.2-2.2c0.3-0.1,0.7-0.1,1-0.1c5.5,0,10.9,0,16.4,0c0.4,0,0.7,0.1,1.1,0.1
	c0.1,0.4,0.1,0.7,0.1,1.1c0,0.6,0,1.2,0,1.8c0,37.6,0,75.2,0,112.8c0,1.3,0,2.6,0.3,3.9c0.6,2.8,1.9,5.1,4,7.1
	c1.6,1.5,3.2,2.9,4.7,4.3c7.9,7.3,15.9,14.6,23.8,21.9c0.9,0.8,1.6,1.8,2,2.9c0.3,0.8,0.4,1.5,0.1,2.3c-0.8,2.9-1,5.9-0.8,8.9
	c0.3,5.8,2.2,11,5.6,15.8c4.7,6.5,11,10.4,18.8,11.8c16.4,2.8,30.9-7.9,34.1-23c3.4-16-6.7-31-21.5-34.8c-3.2-0.8-6.5-1.2-9.8-0.9
	c-0.7,0.1-1.4,0.2-2.1,0.2c-2.6,0.2-4.7-0.5-6.6-2.2c-2.5-2.3-5-4.6-7.5-6.9c-5.5-5.1-11-10.1-16.6-15.2c-0.2-0.2-0.4-0.4-0.7-0.6
	c-0.4-0.3-0.5-0.7-0.5-1.2c0-0.3,0-0.6,0-0.9c0-13.9,0-27.7,0-41.5c0-0.5,0.1-1.1,0.1-1.7c0.4-0.1,0.7-0.1,0.9-0.1
	c0.2,0,0.5,0,0.8,0c22,0,44.1,0,66.1,0c0.8,0,1.5,0.1,2.2,0.3c1.7,0.4,3.1,1.4,4.2,3c4.1,5.8,9.6,9.7,16.6,11.6
	c16.7,4.5,33.4-6.1,36.7-22.7c3.2-15.8-6.7-31.3-22.6-34.8c-11.8-2.6-23.8,2.2-30.5,11.9c-0.3,0.4-0.5,0.8-0.8,1.2
	c-0.6,0.8-1.4,1.3-2.5,1.5c-2,0.4-4,0.5-6.2,0.5c-21,0-42,0-62.9,0c-0.5,0-1-0.1-1.6-0.1c-0.1-0.4-0.2-0.7-0.2-0.9c0-0.4,0-0.7,0-1
	c0-11.3,0-22.7,0-34c0-0.6,0-1.2,0.1-1.9c0.4-0.1,0.6-0.2,0.9-0.2c0.6,0,1.2,0,1.8,0c37.9,0,75.8,0,113.6,0c1.6,0,3.1-0.1,4.6-0.5
	c4.3-1.3,7.4-4,9.1-8.2c0.4-0.9,0.7-1.9,0.7-2.9c0-0.5,0.1-1,0.4-1.4c0-0.5,0-1,0-1.5c-0.4-0.5-0.3-0.9-0.4-1.4
	C489.6,418.2,489.6,417.6,489.5,417.1z M461.6,277.8c0.4,0.4,0.1,0.8,0,1.2c-3.3,11.8-10.4,20.2-21.9,24.7c-3.9,1.5-8,2.3-12.1,2.5
	c-7.3,0.3-14.3-1.1-20.7-4.7c-7.9-4.4-13.2-11-16.2-19.5c-0.4-1.1-0.7-2.2-1-3.5c-0.1-0.1,0-0.4,0-0.7c0.2-0.1,0.4-0.2,0.8-0.2
	c0.4,0,0.9,0,1.3,0c22.7,0,45.3,0,68,0C460.4,277.8,461,277.7,461.6,277.8z M410.1,251.7c0.2-0.3,0.3-0.5,0.5-0.8
	c4.8-7.5,9.5-15,14.3-22.5c0.3-0.5,0.5-0.8,0.9-1.4c0.3,0.2,0.5,0.3,0.5,0.4c5.3,8.1,10.6,16.2,15.9,24.3c0.1,0.1,0.1,0.3,0.1,0.4
	c-0.2,0.3-0.5,0.3-0.7,0.3c-0.3,0-0.6,0-0.9,0c-9.8,0-19.5,0-29.2,0c-0.5,0-1,0-1.6-0.1C410,252.1,410,251.8,410.1,251.7z
	 M156.3,251.4c5.2-8.3,10.6-16.6,15.8-24.9c0.1-0.2,0.2-0.2,0.3-0.3c0,0,0.1,0,0.1,0c0.4,0.3,0.7,0.8,1,1.3
	c5.3,8.2,10.6,16.3,15.9,24.4c0.1,0.1,0,0.1-0.1,0.3c-0.1,0.1-0.2,0.1-0.4,0.1c-10.9,0-21.8,0-32.6,0c-0.1,0-0.3-0.1-0.5-0.2
	C156.1,251.9,156.2,251.7,156.3,251.4z M209.1,277.9L209.1,277.9L209.1,277.9c0,0.4,0,0.7-0.1,1c-3.8,13.4-12.2,22.2-25.6,26
	c-4.7,1.4-9.5,1.7-14.2,1.2c-8.9-0.9-16.6-4.3-22.9-10.7c-4.5-4.6-7.4-10.1-9.1-16.3c-0.1-0.3-0.1-0.7-0.2-1.2l0,0l0,0
	c0.5-0.1,0.9-0.1,1.3-0.1C154.3,277.5,207.5,277.6,209.1,277.9z M149.1,500.7c-7,0.1-12-5.5-11.9-11.9c0.1-7.5,6.1-11.9,11.8-11.8
	c6.7-0.1,11.9,5.3,11.9,11.8C160.9,495.1,156,500.7,149.1,500.7z M197.6,603.6c-2.1,1.3-4.4,2-6.8,2c-4.4-0.2-7.8-2-10.2-5.6
	c-2.7-4-2.5-9.8,0.8-13.7c4.8-5.8,13.8-6,18.8-0.5C205.2,591.6,203.6,599.7,197.6,603.6z M298.9,661.3c-6.2,0.1-11.9-5-11.9-11.8
	c0-6.7,5.3-11.8,11.8-11.9c6.6,0,12,5.2,11.9,11.9C310.6,657.3,304.2,661.5,298.9,661.3z M395.1,588.3c6.2-0.1,11.9,4.9,11.9,11.9
	c0,6.8-5.4,11.8-11.8,11.8c-7.3,0-11.9-5.9-11.9-11.9C383.4,592.8,389.4,588.2,395.1,588.3z M457.5,474.8c6-0.1,11.8,4.8,11.8,11.9
	c-0.1,7.6-6.5,11.9-12,11.8c-6.5-0.1-11.8-5.6-11.7-11.9C445.6,479.7,451.4,474.6,457.5,474.8z"/>
</svg>
