<?xml version="1.0" encoding="utf-8"?>
<!-- Generator: Adobe Illustrator 25.0.0, SVG Export Plug-In . SVG Version: 6.00 Build 0)  -->
<svg version="1.1" id="Layer_1" xmlns="http://www.w3.org/2000/svg" xmlns:xlink="http://www.w3.org/1999/xlink" x="0px" y="0px"
	 viewBox="0 0 1600 400" style="enable-background:new 0 0 1600 400;" xml:space="preserve">
<style type="text/css">
	.st0{fill:none;stroke:#000000;stroke-width:12;stroke-linecap:round;stroke-miterlimit:10;}
	.st1{fill:none;}
	.st2{fill:#005357;}
	.st3{font-family:'Seravek';}
	.st4{font-size:84px;}
	.st5{fill:none;stroke:#005357;stroke-width:5;stroke-miterlimit:10;}
	.st6{fill:none;stroke:#005357;stroke-width:6;stroke-linecap:round;stroke-miterlimit:10;}
	.st7{stroke:#005357;stroke-width:6;stroke-miterlimit:10;}
	.st8{fill:none;stroke:#005357;stroke-width:3;stroke-linecap:round;stroke-miterlimit:10;}
	.st9{stroke:#005357;stroke-miterlimit:10;}
	.st10{fill:#FFFFFF;stroke:#005357;stroke-miterlimit:10;}
</style>
<path class="st0" d="M19.2,129.6"/>
<path class="st0" d="M19.2,25.1"/>
<polygon class="st1" points="1006.3,-324.2 1008.7,-324.2 1008.7,-324.2 "/>
<polygon class="st1" points="1153.3,344.9 1155.8,344.9 1155.8,344.9 "/>
<rect x="443.7" y="190.8" class="st1" width="1033.1" height="95.6"/>
<text transform="matrix(1 0 0 1 445.3821 250.052)" class="st2 st3 st4">Algorithm Audit Foundation</text>
<g>
	<g>
		<path d="M282.2,361.5L282.2,361.5c-1.3,0-2.4-1.1-2.4-2.4V51.4c0-1.3,1.1-2.4,2.4-2.4l0,0c1.3,0,2.4,1.1,2.4,2.4v307.8
			C284.6,360.5,283.5,361.5,282.2,361.5z"/>
		<path class="st2" d="M282.2,362c-1.6,0-2.9-1.3-2.9-2.9V51.4c0-1.6,1.3-2.9,2.9-2.9s2.9,1.3,2.9,2.9v307.8
			C285.1,360.7,283.8,362,282.2,362z M282.2,49.5c-1,0-1.9,0.8-1.9,1.9v307.8c0,1,0.8,1.9,1.9,1.9s1.9-0.8,1.9-1.9V51.4
			C284.1,50.3,283.2,49.5,282.2,49.5z"/>
	</g>
	<g>
		<g>
			<g>
				<line class="st1" x1="143.1" y1="140.2" x2="183.6" y2="73.8"/>
				<g>
					<path class="st2" d="M144.4,141c13.5-22.1,27-44.2,40.5-66.4c1-1.7-1.6-3.2-2.6-1.5c-13.5,22.1-27,44.2-40.5,66.4
						C140.8,141.1,143.4,142.6,144.4,141L144.4,141z"/>
				</g>
			</g>
			<g>
				<line class="st1" x1="222.4" y1="140.5" x2="183.8" y2="73.6"/>
				<g>
					<path class="st2" d="M223.7,139.7c-12.9-22.3-25.7-44.6-38.6-66.9c-1-1.7-3.6-0.2-2.6,1.5c12.9,22.3,25.7,44.6,38.6,66.9
						C222.1,142.9,224.7,141.4,223.7,139.7L223.7,139.7z"/>
				</g>
			</g>
		</g>
		<line class="st5" x1="123.2" y1="139.3" x2="243.1" y2="139.7"/>
		<path class="st5" d="M240.7,141.4c0,22.3-25.8,40.4-57.6,40.4s-57.6-18.1-57.6-40.4"/>
	</g>
	<g>
		<g>
			<g>
				<line class="st1" x1="346.1" y1="139.2" x2="386.5" y2="72.8"/>
				<g>
					<path class="st2" d="M347.4,140c13.5-22.1,27-44.2,40.5-66.4c1-1.7-1.6-3.2-2.6-1.5c-13.5,22.1-27,44.2-40.5,66.4
						C343.8,140.1,346.4,141.6,347.4,140L347.4,140z"/>
				</g>
			</g>
			<g>
				<line class="st1" x1="425.5" y1="139.5" x2="386.8" y2="72.6"/>
				<g>
					<path class="st2" d="M426.7,138.7c-12.9-22.3-25.7-44.6-38.6-66.9c-1-1.7-3.6-0.2-2.6,1.5c12.9,22.3,25.7,44.6,38.6,66.9
						C425.1,141.9,427.7,140.4,426.7,138.7L426.7,138.7z"/>
				</g>
			</g>
		</g>
		<line class="st5" x1="326.2" y1="138.3" x2="446.1" y2="138.7"/>
		<path class="st5" d="M443.7,140.4c0,22.3-25.8,40.4-57.6,40.4s-57.6-18.1-57.6-40.4"/>
	</g>
	<g>
		<line class="st6" x1="183.6" y1="69.3" x2="386.8" y2="68.5"/>
		<circle class="st7" cx="282.2" cy="68.9" r="6.2"/>
	</g>
	<line class="st8" x1="183.5" y1="285.2" x2="386.5" y2="285.2"/>
	<g>
		<line class="st6" x1="187.2" y1="316" x2="240.3" y2="316"/>
		<line class="st6" x1="240.7" y1="315.6" x2="240.7" y2="286.9"/>
	</g>
	<g>
		<line class="st6" x1="279.8" y1="332.5" x2="253.6" y2="332.5"/>
		<line class="st6" x1="253.6" y1="332.5" x2="220.6" y2="351.4"/>
	</g>
	<line class="st6" x1="380.4" y1="316" x2="327.2" y2="316"/>
	<line class="st6" x1="326.9" y1="332.5" x2="326.9" y2="286.9"/>
	<line class="st6" x1="328.5" y1="333.8" x2="361.5" y2="352.7"/>
	<g>
		<g>
			<circle class="st9" cx="211.2" cy="356.8" r="10.5"/>
		</g>
		<circle class="st10" cx="211.2" cy="356.8" r="6"/>
	</g>
	<g>
		<g>
			<circle class="st9" cx="176.7" cy="316" r="10.5"/>
		</g>
		<circle class="st10" cx="176.7" cy="316" r="6"/>
	</g>
	<g>
		<g>
			<circle class="st9" cx="390.6" cy="315.6" r="10.5"/>
		</g>
		<circle class="st10" cx="390.6" cy="315.6" r="6"/>
	</g>
	<g>
		<g>
			<circle class="st9" cx="368.7" cy="356.8" r="10.5"/>
		</g>
		<circle class="st10" cx="368.7" cy="356.8" r="6"/>
	</g>
	<g>
		<g>
			<circle class="st9" cx="282.2" cy="367.3" r="10.5"/>
		</g>
		<circle class="st10" cx="282.2" cy="367.3" r="6"/>
	</g>
</g>
</svg>
