<svg xmlns:dc="http://purl.org/dc/elements/1.1/" xmlns:cc="http://creativecommons.org/ns#" xmlns:rdf="http://www.w3.org/1999/02/22-rdf-syntax-ns#" xmlns:svg="http://www.w3.org/2000/svg" xmlns="http://www.w3.org/2000/svg" xmlns:sodipodi="http://sodipodi.sourceforge.net/DTD/sodipodi-0.dtd" xmlns:inkscape="http://www.inkscape.org/namespaces/inkscape" version="1.1" x="0px" y="0px" viewBox="0 0 100 125"><g transform="translate(0,-952.36218)"><path style="color:#000000;enable-background:accumulate;" d="m 12,976.36215 c -0.8557,0 -1.671,0.1799 -2.4062005,0.5 L 47.9688,1008.7996 c 0.9572,0.7971 3.1052,0.7971 4.0624,0 l 38.375001,-31.93745 c -0.7352,-0.3201 -1.550501,-0.5 -2.406201,-0.5 l -76,0 z m -5.3438005,3.25 c -0.4206,0.8211 -0.6562,1.7607 -0.6562,2.75 l 0,39.99995 c 0,3.3241 2.676,6.0001 6.0000005,6.0001 l 76,0 c 3.324,0 6,-2.676 6,-6.0001 l 0,-39.99995 c 0,-0.9893 -0.2356,-1.9289 -0.6562,-2.75 l -38.75,32.28115 c -2.639801,2.1983 -6.547801,2.1983 -9.187601,0 L 6.6561995,979.61215 z" fill="#005AA7" stroke="none" marker="none" visibility="visible" display="inline" overflow="visible"/></g></svg>