<svg width="66" height="73" xmlns="http://www.w3.org/2000/svg" xmlns:xlink="http://www.w3.org/1999/xlink" xml:space="preserve" overflow="hidden"><defs><clipPath id="clip0"><rect x="100" y="381" width="66" height="73"/></clipPath><clipPath id="clip1"><rect x="100" y="382" width="66" height="72"/></clipPath><clipPath id="clip2"><rect x="100" y="382" width="66" height="72"/></clipPath><clipPath id="clip3"><rect x="88" y="382" width="89" height="89"/></clipPath></defs><g clip-path="url(#clip0)" transform="translate(-100 -381)"><g clip-path="url(#clip1)"><g clip-path="url(#clip2)"><g clip-path="url(#clip3)"><path d="M49.4868 54.9853C49.4868 55.2769 49.3709 55.5568 49.1648 55.7631 48.9586 55.9692 48.6787 56.085 48.3871 56.085 47.7798 56.085 47.2874 55.5926 47.2874 54.9853 47.2874 54.378 47.7798 53.8856 48.3871 53.8856 48.6787 53.8856 48.9586 54.0015 49.1648 54.2076 49.3709 54.4139 49.4868 54.6938 49.4868 54.9853Z" fill="#005AA8" fill-rule="evenodd" fill-opacity="1" transform="matrix(-1 0 0 1.01144 176.247 382)"/><path d="M39.5894 56.0838 43.9883 56.0838C44.5951 56.0838 45.088 55.5909 45.088 54.9841 45.088 54.3773 44.5951 53.8844 43.9883 53.8844L39.5894 53.8844C38.9827 53.8844 38.4897 54.3773 38.4897 54.9841 38.4897 55.5909 38.9827 56.0838 39.5894 56.0838Z" fill="#005AA8" fill-rule="evenodd" fill-opacity="1" transform="matrix(-1 0 0 1.01144 176.247 382)"/><path d="M42.8886 31.8488C42.6014 31.8266 42.3147 31.7957 42.0299 31.7565 41.6264 31.7015 41.2866 31.4266 41.1468 31.0426L40.2758 28.6454C39.7711 28.476 39.2773 28.2713 38.801 28.0342L36.4897 29.1142C36.12 29.287 35.6845 29.2409 35.3605 28.9944 34.3147 28.2025 33.3821 27.2702 32.5902 26.224 32.3437 25.8995 32.2974 25.4641 32.4703 25.0949L33.5504 22.7835C33.3128 22.3073 33.1086 21.8149 32.9392 21.3088L30.5419 20.4378C30.158 20.2985 29.8831 19.9582 29.8281 19.5547 29.648 18.2546 29.648 16.9375 29.8281 15.6375 29.8831 15.2339 30.158 14.8942 30.5419 14.7543L32.9392 13.8833C33.1086 13.3786 33.3133 12.8848 33.5504 12.4086L32.4703 10.0972C32.2974 9.7275 32.3437 9.29204 32.5902 8.96801 33.3819 7.92231 34.3144 6.98955 35.3605 6.19763 35.685 5.95119 36.1204 5.90504 36.4897 6.07785L38.801 7.15792C39.2773 6.92031 39.7697 6.71608 40.2758 6.5467L41.1468 4.14946C41.2861 3.76555 41.6264 3.49062 42.0299 3.43563 43.33 3.25546 44.6471 3.25546 45.9471 3.43563 46.3507 3.49062 46.6904 3.76555 46.8303 4.14946L47.7013 6.5467C48.206 6.71608 48.6998 6.9208 49.176 7.15792L51.4874 6.07785C51.857 5.90504 52.2925 5.95119 52.6165 6.19763 53.6623 6.98952 54.595 7.92185 55.3869 8.96801 55.6334 9.29252 55.6795 9.72799 55.5068 10.0972L54.4267 12.4086C54.6642 12.8848 54.8685 13.3772 55.0379 13.8833L57.4351 14.7543C57.8191 14.8937 58.0939 15.2339 58.149 15.6375 58.3291 16.9375 58.3291 18.2546 58.149 19.5547 58.0939 19.9582 57.8191 20.2979 57.4351 20.4378L55.0379 21.3088C54.8685 21.8134 54.6637 22.3073 54.4267 22.7835L55.5068 25.0949C55.6796 25.4646 55.6334 25.9 55.3869 26.224 54.5951 27.2698 53.6627 28.2025 52.6165 28.9944 52.292 29.2409 51.8565 29.287 51.4874 29.1142L49.176 28.0342C48.6998 28.2718 48.2074 28.476 47.7013 28.6454L46.8303 31.0426C46.6909 31.4266 46.3507 31.7015 45.9471 31.7565 45.6623 31.7962 45.3752 31.8266 45.0885 31.8488L45.0885 39.0013 50.9203 42.8886 60.4844 42.8886 60.4844 39.5894C60.4844 38.9827 60.9773 38.4897 61.5841 38.4897L72.5812 38.4897C73.1879 38.4897 73.6809 38.9827 73.6809 39.5894L73.6809 48.3871C73.6809 48.9939 73.1879 49.4868 72.5812 49.4868L68.1823 49.4868 68.1823 62.6833C68.1823 63.2901 67.6894 63.783 67.0826 63.783L51.6867 63.783 51.6867 65.9824C51.6867 66.5892 51.1938 67.0821 50.587 67.0821L37.3905 67.0821C36.7837 67.0821 36.2908 66.5892 36.2908 65.9824L36.2908 63.783 20.8949 63.783C20.2881 63.783 19.7952 63.2901 19.7952 62.6833L19.7952 49.4868 15.3964 49.4868C14.7896 49.4868 14.2967 48.9939 14.2967 48.3871L14.2967 39.5894C14.2967 38.9827 14.7896 38.4897 15.3964 38.4897L26.3935 38.4897C27.0003 38.4897 27.4932 38.9827 27.4932 39.5894L27.4932 42.8886 37.0572 42.8886 42.8891 39.0013ZM38.4897 60.4839 38.4897 64.8827 49.4868 64.8827 49.4868 60.4839ZM60.4839 45.088 50.9198 45.088 44.5985 49.3022C44.2288 49.5486 43.7472 49.5486 43.378 49.3022L37.0566 45.088 27.4925 45.088 27.4925 48.3871C27.4925 48.9939 26.9996 49.4868 26.3928 49.4868L21.994 49.4868 21.994 61.5836 36.2902 61.5836 36.2902 59.3842C36.2902 58.7774 36.7831 58.2845 37.3899 58.2845L50.5864 58.2845C51.1932 58.2845 51.6861 58.7774 51.6861 59.3842L51.6861 61.5836 65.9823 61.5836 65.9823 49.4868 61.5835 49.4868C60.9767 49.4868 60.4837 48.9939 60.4837 48.3871ZM62.6833 40.6892 62.6833 47.2874 71.4809 47.2874 71.4809 40.6892ZM16.4956 40.6892 16.4956 47.2874 25.2933 47.2874 25.2933 40.6892ZM39.3733 43.9883 43.9886 47.0654 48.604 43.9883 43.9886 40.9111ZM44.996 5.54001C44.3253 5.48404 43.6508 5.48404 42.9812 5.54001L42.1563 7.80968C42.0357 8.14155 41.7617 8.39685 41.422 8.49258 40.7061 8.69387 40.0164 8.97959 39.3679 9.34386 39.0591 9.51667 38.6859 9.52993 38.3648 9.3802L36.1777 8.35855C35.6642 8.79303 35.187 9.27023 34.7525 9.78377L35.7742 11.9709C35.924 12.2919 35.9106 12.6646 35.7378 12.9739 35.3741 13.6229 35.0878 14.3121 34.8866 15.028 34.7908 15.3677 34.5356 15.6416 34.2036 15.7624L31.934 16.5872C31.878 17.2579 31.878 17.9324 31.934 18.602L34.2036 19.4267C34.5356 19.5475 34.7908 19.8215 34.8866 20.1612 35.0878 20.8771 35.3736 21.5668 35.7378 22.2153 35.9106 22.5241 35.924 22.8973 35.7742 23.2184L34.7525 25.4055C35.187 25.919 35.6642 26.3962 36.1777 26.8307L38.3648 25.809C38.6859 25.6592 39.0586 25.6726 39.3679 25.8454 40.0169 26.2091 40.7061 26.4954 41.422 26.6966 41.7617 26.7924 42.0357 27.0476 42.1563 27.3796L42.9812 29.6492C43.6518 29.7052 44.3264 29.7052 44.996 29.6492L45.8208 27.3796C45.9415 27.0476 46.2155 26.7924 46.5552 26.6966 47.2711 26.4954 47.9608 26.2096 48.6093 25.8454 48.9181 25.6726 49.2912 25.6592 49.6124 25.809L51.7995 26.8307C52.313 26.3962 52.7902 25.919 53.2247 25.4055L52.203 23.2184C52.0533 22.8973 52.0665 22.5246 52.2393 22.2153 52.6031 21.5663 52.8894 20.8771 53.0906 20.1612 53.1863 19.8215 53.4416 19.5475 53.7735 19.4267L56.0432 18.602C56.0991 17.9314 56.0991 17.2569 56.0432 16.5872L53.7735 15.7624C53.4416 15.6417 53.1863 15.3677 53.0906 15.028 52.8894 14.3121 52.6036 13.6224 52.2393 12.9739 52.0665 12.6651 52.0532 12.2919 52.203 11.9709L53.2247 9.78377C52.7902 9.27025 52.313 8.79305 51.7995 8.35855L49.6124 9.3802C49.2912 9.52993 48.9186 9.51667 48.6093 9.34386 47.9603 8.98008 47.2711 8.69386 46.5552 8.49258 46.2155 8.39685 45.9416 8.14155 45.8208 7.80968Z" fill="#005AA8" fill-rule="evenodd" fill-opacity="1" transform="matrix(-1 0 0 1.01144 176.247 382)"/><path d="M43.9883 13.1965C41.5606 13.1965 39.5894 15.1677 39.5894 17.5953 39.5894 20.023 41.5606 21.9941 43.9883 21.9941 46.4159 21.9941 48.3871 20.023 48.3871 17.5953 48.3871 15.1677 46.4159 13.1965 43.9883 13.1965ZM43.9883 15.3959C45.2018 15.3959 46.1877 16.3817 46.1877 17.5953 46.1877 18.8089 45.2018 19.7947 43.9883 19.7947 42.7747 19.7947 41.7889 18.8089 41.7889 17.5953 41.7889 16.3817 42.7747 15.3959 43.9883 15.3959Z" fill="#005AA8" fill-rule="evenodd" fill-opacity="1" transform="matrix(-1 0 0 1.01144 176.247 382)"/><path d="M3.68395-0.219941C3.49396-0.121753 3.29563-0.0476204 3.08893 0.00196062 2.88323 0.0530184 2.66918 0.078548 2.44678 0.078548 1.7791 0.078548 1.24938-0.108013 0.858048-0.481121 0.467746-0.854242 0.272853-1.36088 0.272853-2.0011 0.272853-2.64132 0.467759-3.14794 0.858048-3.52109 1.24933-3.89421 1.77905-4.08075 2.44678-4.08075 2.66917-4.08075 2.88323-4.05572 3.08893-4.00614 3.29561-3.95605 3.49396-3.88144 3.68395-3.78227L3.68395-2.95356C3.49151-3.08416 3.302-3.17989 3.11643-3.24026 2.93036-3.30163 2.73447-3.33256 2.52926-3.33256 2.16008-3.33256 1.86993-3.21375 1.65931-2.97713 1.44821-2.74147 1.34315-2.41599 1.34315-2.00113 1.34315-1.58726 1.44821-1.26177 1.65931-1.02515 1.86993-0.789495 2.16008-0.671669 2.52926-0.671669 2.73447-0.671669 2.93036-0.701617 3.11643-0.762003 3.30201-0.82337 3.49151-0.919594 3.68395-1.05068Z" fill="#005AA8" fill-rule="nonzero" fill-opacity="1" transform="matrix(-1 0 0 1.01144 167.449 469.871)"/><path d="M2.69623-2.1876C2.6108-2.22687 2.52636-2.25535 2.44291-2.27401 2.36044-2.29365 2.27697-2.30346 2.19351-2.30346 1.94607-2.30346 1.75558-2.22393 1.62205-2.06585 1.48949-1.90728 1.42371-1.67997 1.42371-1.38442L1.42371 7.79221e-05 0.461475 7.79221e-05 0.461475-3.00646 1.42371-3.00646 1.42371-2.51355C1.54645-2.70993 1.68784-2.85328 1.84788-2.94362 2.00891-3.03395 2.20136-3.07912 2.42524-3.07912 2.45666-3.07912 2.49102-3.07765 2.52931-3.07518 2.56712-3.07224 2.62161-3.06635 2.69231-3.05751Z" fill="#005AA8" fill-rule="nonzero" fill-opacity="1" transform="matrix(-1 0 0 1.01144 163.413 469.871)"/><path d="M3.46401-1.51207 3.46401-1.23714 1.21546-1.23714C1.23902-1.01179 1.32003-0.842916 1.45897-0.730494 1.59889-0.617578 1.79477-0.561605 2.04613-0.561605 2.24742-0.561605 2.4546-0.591062 2.66668-0.649973 2.87877-0.709868 3.09675-0.80118 3.32061-0.922939L3.32061-0.182604C3.0938-0.0961986 2.86698-0.0313976 2.63918 0.0118115 2.41139 0.0559958 2.18408 0.0785794 1.95775 0.0785794 1.41282 0.0785794 0.989623-0.0593804 0.687248-0.335778 0.385815-0.613155 0.235576-1.0015 0.235576-1.50029 0.235576-1.99122 0.383352-2.37662 0.67938-2.65694 0.976401-2.93825 1.38437-3.07915 1.90281-3.07915 2.37509-3.07915 2.7536-2.93629 3.03786-2.65106 3.32162-2.36681 3.46399-1.98731 3.46399-1.51208ZM2.47624-1.83019C2.47624-2.01331 2.42223-2.16059 2.31522-2.27203 2.20918-2.38445 2.07024-2.44092 1.8989-2.44092 1.71136-2.44092 1.55966-2.38839 1.44331-2.28382 1.32793-2.17876 1.25576-2.02754 1.22729-1.83019Z" fill="#005AA8" fill-rule="nonzero" fill-opacity="1" transform="matrix(-1 0 0 1.01144 160.702 469.871)"/><path d="M1.80867-1.35308C1.60836-1.35308 1.45765-1.31872 1.357-1.25096 1.25587-1.18272 1.20579-1.08258 1.20579-0.950511 1.20579-0.828758 1.24605-0.733021 1.32754-0.663808 1.40855-0.595567 1.52196-0.561693 1.66728-0.561693 1.84795-0.561693 1.99963-0.626496 2.12286-0.756108 2.24707-0.88571 2.30943-1.04773 2.30943-1.24312L2.30943-1.35309ZM3.27763-1.71637 3.27763-7.54085e-05 2.3095-7.54085e-05 2.3095-0.445853C2.1799-0.263716 2.03457-0.13067 1.87354-0.0472057 1.7125 0.0362589 1.51663 0.0784751 1.28637 0.0784751 0.974617 0.0784751 0.721295-0.0123494 0.526389-0.194491 0.332463-0.376137 0.235752-0.611789 0.235752-0.901445 0.235752-1.25492 0.356524-1.51316 0.599045-1.67713 0.842551-1.84209 1.22353-1.92457 1.74196-1.92457L2.30948-1.92457 2.30948-2.00116C2.30948-2.15286 2.2491-2.26432 2.12882-2.335 2.00952-2.40569 1.82247-2.44104 1.56718-2.44104 1.36147-2.44104 1.1705-2.41993 0.993758-2.37819 0.817026-2.33745 0.652057-2.27608 0.49889-2.19359L0.49889-2.92607C0.705572-2.97714 0.912266-3.01494 1.11944-3.03998 1.32759-3.06599 1.53478-3.07925 1.74195-3.07925 2.28493-3.07925 2.6767-2.97173 2.91628-2.7572 3.15685-2.54364 3.27762-2.19655 3.27762-1.71641Z" fill="#005AA8" fill-rule="nonzero" fill-opacity="1" transform="matrix(-1 0 0 1.01144 156.973 469.871)"/><path d="M1.51207-3.86079 1.51207-3.00655 2.5018-3.00655 2.5018-2.31923 1.51207-2.31923 1.51207-1.0447C1.51207-0.904286 1.53956-0.809535 1.59455-0.759954 1.64953-0.711351 1.75951-0.687295 1.92446-0.687295L2.41933-0.687295 2.41933 2.76498e-05 1.59455 2.76498e-05C1.21456 2.76498e-05 0.945515-0.0790142 0.787434-0.237584 0.628863-0.395666 0.549822-0.664698 0.549822-1.04469L0.549822-2.31923 0.0726246-2.31923 0.0726246-3.00655 0.549822-3.00655 0.549822-3.86079Z" fill="#005AA8" fill-rule="nonzero" fill-opacity="1" transform="matrix(-1 0 0 1.01144 153.262 469.871)"/><path d="M3.46401-1.51207 3.46401-1.23714 1.21546-1.23714C1.23902-1.01179 1.32003-0.842916 1.45897-0.730494 1.59889-0.617578 1.79477-0.561605 2.04613-0.561605 2.24742-0.561605 2.4546-0.591062 2.66668-0.649973 2.87877-0.709868 3.09675-0.80118 3.32061-0.922939L3.32061-0.182604C3.0938-0.0961986 2.86698-0.0313976 2.63918 0.0118115 2.41139 0.0559958 2.18408 0.0785794 1.95775 0.0785794 1.41282 0.0785794 0.989623-0.0593804 0.687248-0.335778 0.385815-0.613155 0.235576-1.0015 0.235576-1.50029 0.235576-1.99122 0.383352-2.37662 0.67938-2.65694 0.976401-2.93825 1.38437-3.07915 1.90281-3.07915 2.37509-3.07915 2.7536-2.93629 3.03786-2.65106 3.32162-2.36681 3.46399-1.98731 3.46399-1.51208ZM2.47624-1.83019C2.47624-2.01331 2.42223-2.16059 2.31522-2.27203 2.20918-2.38445 2.07024-2.44092 1.8989-2.44092 1.71136-2.44092 1.55966-2.38839 1.44331-2.28382 1.32793-2.17876 1.25576-2.02754 1.22729-1.83019Z" fill="#005AA8" fill-rule="nonzero" fill-opacity="1" transform="matrix(-1 0 0 1.01144 150.634 469.871)"/><path d="M2.50771-2.56665 2.50771-4.17688 3.47388-4.17688 3.47388 0 2.50771 0 2.50771-0.433988C2.37515-0.257256 2.22935-0.127641 2.06979-0.0451571 1.90974 0.0373209 1.72514 0.0785605 1.51601 0.0785605 1.14535 0.0785605 0.840968-0.0687248 0.602866-0.363283 0.365744-0.657853 0.247428-1.03686 0.247428-1.5003 0.247428-1.96375 0.365745-2.34275 0.602866-2.63732 0.840968-2.93189 1.14535-3.07917 1.51601-3.07917 1.72416-3.07917 1.90778-3.03695 2.06783-2.95349 2.22885-2.87101 2.37515-2.74189 2.50771-2.56663ZM1.87341-0.620612C2.08009-0.620612 2.23719-0.695726 2.34471-0.846447 2.45321-0.996674 2.50771-1.21465 2.50771-1.50038 2.50771-1.78708 2.45321-2.00555 2.34471-2.15628 2.23719-2.30651 2.08009-2.38212 1.87341-2.38212 1.66918-2.38212 1.51257-2.30651 1.40407-2.15628 1.29655-2.00556 1.24305-1.78709 1.24305-1.50038 1.24305-1.21465 1.29656-0.996674 1.40407-0.846447 1.51257-0.695731 1.66918-0.620612 1.87341-0.620612Z" fill="#005AA8" fill-rule="nonzero" fill-opacity="1" transform="matrix(-1 0 0 1.01144 146.905 469.871)"/><path d="M2.06192-0.620549C2.26713-0.620549 2.42423-0.695663 2.53322-0.846385 2.64172-0.996611 2.69622-1.21459 2.69622-1.50031 2.69622-1.78702 2.64172-2.00549 2.53322-2.15622 2.42423-2.30644 2.26713-2.38205 2.06192-2.38205 1.85622-2.38205 1.69863-2.30595 1.58866-2.15426 1.47868-2.00354 1.4237-1.78556 1.4237-1.50033 1.4237-1.21607 1.47868-0.998094 1.58866-0.846397 1.69863-0.695681 1.85622-0.620561 2.06192-0.620561ZM1.4237-2.56659C1.55576-2.74185 1.70256-2.87098 1.86358-2.95345 2.0246-3.03691 2.20969-3.07913 2.41933-3.07913 2.7895-3.07913 3.09388-2.93184 3.33248-2.63729 3.57058-2.34271 3.68989-1.96371 3.68989-1.50026 3.68989-1.03682 3.57059-0.657813 3.33248-0.363243 3.09388-0.068672 2.7895 0.0786008 2.41933 0.0786008 2.20969 0.0786008 2.02462 0.0363796 1.86358-0.04708 1.70255-0.13054 1.55576-0.259656 1.4237-0.433938L1.4237 5.02723e-05 0.461462 5.02723e-05 0.461462-4.17682 1.4237-4.17682Z" fill="#005AA8" fill-rule="nonzero" fill-opacity="1" transform="matrix(-1 0 0 1.01144 141.055 469.871)"/><path d="M0.0667679-3.00654 1.02901-3.00654 1.83612-0.966234 2.52343-3.00654 3.48568-3.00654 2.22107 0.284793C2.09393 0.619619 1.94516 0.853297 1.7753 0.985853 1.6064 1.11939 1.38303 1.18616 1.10566 1.18616L0.54991 1.18616 0.54991 0.555798 0.850362 0.555798C1.01385 0.555798 1.13216 0.529287 1.2058 0.477248 1.28042 0.42619 1.33836 0.332916 1.38057 0.198387L1.4061 0.115909Z" fill="#005AA8" fill-rule="nonzero" fill-opacity="1" transform="matrix(-1 0 0 1.01144 137.119 469.871)"/><path d="M1.97357-2.23083C2.18959-2.23083 2.34471-2.2706 2.43897-2.35062 2.53323-2.43163 2.58036-2.56467 2.58036-2.74927 2.58036-2.93091 2.53323-3.06151 2.43897-3.14006 2.34471-3.21959 2.18957-3.25985 1.97357-3.25985L1.5376-3.25985 1.5376-2.23083ZM1.5376-1.51602 1.5376-6.28404e-05 0.504659-6.28404e-05 0.504659-4.00815 2.08346-4.00815C2.61073-4.00815 2.99759-3.91978 3.24405-3.74304 3.49-3.56631 3.61323-3.28597 3.61323-2.90255 3.61323-2.63793 3.54892-2.42045 3.42079-2.25058 3.29364-2.08022 3.10119-1.95454 2.84344-1.87354 2.98483-1.84212 3.111-1.76946 3.22244-1.65556 3.33486-1.54165 3.44828-1.36934 3.56217-1.13908L4.12381-0.000100545 3.02215-0.000100545 2.53513-0.995731C2.43547-1.19604 2.33532-1.33252 2.23468-1.40615 2.13354-1.4793 1.99903-1.51612 1.83014-1.51612Z" fill="#005AA8" fill-rule="nonzero" fill-opacity="1" transform="matrix(-1 0 0 1.01144 131.62 469.871)"/><path d="M1.80867-1.35308C1.60836-1.35308 1.45765-1.31872 1.357-1.25096 1.25587-1.18272 1.20579-1.08258 1.20579-0.950511 1.20579-0.828758 1.24605-0.733021 1.32754-0.663808 1.40855-0.595567 1.52196-0.561693 1.66728-0.561693 1.84795-0.561693 1.99963-0.626496 2.12286-0.756108 2.24707-0.88571 2.30943-1.04773 2.30943-1.24312L2.30943-1.35309ZM3.27763-1.71637 3.27763-7.54085e-05 2.3095-7.54085e-05 2.3095-0.445853C2.1799-0.263716 2.03457-0.13067 1.87354-0.0472057 1.7125 0.0362589 1.51663 0.0784751 1.28637 0.0784751 0.974617 0.0784751 0.721295-0.0123494 0.526389-0.194491 0.332463-0.376137 0.235752-0.611789 0.235752-0.901445 0.235752-1.25492 0.356524-1.51316 0.599045-1.67713 0.842551-1.84209 1.22353-1.92457 1.74196-1.92457L2.30948-1.92457 2.30948-2.00116C2.30948-2.15286 2.2491-2.26432 2.12882-2.335 2.00952-2.40569 1.82247-2.44104 1.56718-2.44104 1.36147-2.44104 1.1705-2.41993 0.993758-2.37819 0.817026-2.33745 0.652057-2.27608 0.49889-2.19359L0.49889-2.92607C0.705572-2.97714 0.912266-3.01494 1.11944-3.03998 1.32759-3.06599 1.53478-3.07925 1.74195-3.07925 2.28493-3.07925 2.6767-2.97173 2.91628-2.7572 3.15685-2.54364 3.27762-2.19655 3.27762-1.71641Z" fill="#005AA8" fill-rule="nonzero" fill-opacity="1" transform="matrix(-1 0 0 1.01144 127.386 469.871)"/><path d="M3.48563-1.83016 3.48563 0 2.5175 0 2.5175-1.40209C2.5175-1.66131 2.5116-1.84002 2.49983-1.9382 2.48902-2.03639 2.46939-2.10905 2.44091-2.15618 2.40261-2.21902 2.35156-2.26713 2.28773-2.30149 2.22342-2.33685 2.15026-2.35452 2.06779-2.35452 1.86748-2.35452 1.7094-2.27695 1.59452-2.12279 1.48063-1.96814 1.42367-1.7536 1.42367-1.47867L1.42367 9.04902e-05 0.461441 9.04902e-05 0.461441-3.00645 1.42367-3.00645 1.42367-2.56656C1.56752-2.74183 1.7207-2.87095 1.88319-2.95342 2.04667-3.03688 2.22734-3.0791 2.42519-3.0791 2.77179-3.0791 3.03494-2.97207 3.21461-2.75901 3.39528-2.54692 3.48561-2.23714 3.48561-1.83015Z" fill="#005AA8" fill-rule="nonzero" fill-opacity="1" transform="matrix(-1 0 0 1.01144 123.676 469.871)"/><path d="M1.80867-1.35308C1.60836-1.35308 1.45765-1.31872 1.357-1.25096 1.25587-1.18272 1.20579-1.08258 1.20579-0.950511 1.20579-0.828758 1.24605-0.733021 1.32754-0.663808 1.40855-0.595567 1.52196-0.561693 1.66728-0.561693 1.84795-0.561693 1.99963-0.626496 2.12286-0.756108 2.24707-0.88571 2.30943-1.04773 2.30943-1.24312L2.30943-1.35309ZM3.27763-1.71637 3.27763-7.54085e-05 2.3095-7.54085e-05 2.3095-0.445853C2.1799-0.263716 2.03457-0.13067 1.87354-0.0472057 1.7125 0.0362589 1.51663 0.0784751 1.28637 0.0784751 0.974617 0.0784751 0.721295-0.0123494 0.526389-0.194491 0.332463-0.376137 0.235752-0.611789 0.235752-0.901445 0.235752-1.25492 0.356524-1.51316 0.599045-1.67713 0.842551-1.84209 1.22353-1.92457 1.74196-1.92457L2.30948-1.92457 2.30948-2.00116C2.30948-2.15286 2.2491-2.26432 2.12882-2.335 2.00952-2.40569 1.82247-2.44104 1.56718-2.44104 1.36147-2.44104 1.1705-2.41993 0.993758-2.37819 0.817026-2.33745 0.652057-2.27608 0.49889-2.19359L0.49889-2.92607C0.705572-2.97714 0.912266-3.01494 1.11944-3.03998 1.32759-3.06599 1.53478-3.07925 1.74195-3.07925 2.28493-3.07925 2.6767-2.97173 2.91628-2.7572 3.15685-2.54364 3.27762-2.19655 3.27762-1.71641Z" fill="#005AA8" fill-rule="nonzero" fill-opacity="1" transform="matrix(-1 0 0 1.01144 119.761 469.871)"/><path d="M3.48563-1.83016 3.48563 0 2.5175 0 2.5175-1.39619C2.5175-1.65934 2.5116-1.83999 2.49983-1.93819 2.48902-2.03637 2.46939-2.10904 2.44091-2.15617 2.40261-2.21901 2.35156-2.26712 2.28773-2.30148 2.22342-2.33682 2.15026-2.3545 2.06779-2.3545 1.86748-2.3545 1.7094-2.27693 1.59452-2.12277 1.48063-1.96812 1.42367-1.75359 1.42367-1.47866L1.42367 0.000103058 0.461441 0.000103058 0.461441-4.17677 1.42367-4.17677 1.42367-2.56655C1.56752-2.74181 1.7207-2.87094 1.88319-2.95341 2.04667-3.03686 2.22734-3.07909 2.42519-3.07909 2.77179-3.07909 3.03494-2.97206 3.21461-2.75899 3.39528-2.54691 3.48561-2.23713 3.48561-1.83014Z" fill="#005AA8" fill-rule="nonzero" fill-opacity="1" transform="matrix(-1 0 0 1.01144 116.05 469.871)"/><path d="M0.504684-4.00809 2.22098-4.00809C2.73009-4.00809 3.12088-3.89468 3.39334-3.66836 3.6668-3.44154 3.80377-3.11899 3.80377-2.70023 3.80377-2.27997 3.6668-1.95645 3.39334-1.73012 3.12087-1.50331 2.73009-1.39039 2.22098-1.39039L1.53759-1.39039 1.53759-0.000113113 0.504646-0.000113113ZM1.53763-3.2599 1.53763-2.14056 2.11105-2.14056C2.31136-2.14056 2.4655-2.18867 2.5745-2.28587 2.68447-2.38406 2.73945-2.52201 2.73945-2.70023 2.73945-2.87942 2.68447-3.01737 2.5745-3.11458 2.4655-3.21129 2.31134-3.2599 2.11105-3.2599Z" fill="#005AA8" fill-rule="nonzero" fill-opacity="1" transform="matrix(-1 0 0 1.01144 110.222 469.871)"/><path d="M0.461487-3.00654 1.42372-3.00654 1.42372 0 0.461487 0ZM0.461487-4.17694 1.42372-4.17694 1.42372-3.39339 0.461487-3.39339Z" fill="#005AA8" fill-rule="nonzero" fill-opacity="1" transform="matrix(-1 0 0 1.01144 106.192 469.871)"/><path d="M1.22147-1.53758 0.13747-3.00654 1.1547-3.00654 1.76936-2.11498 2.39187-3.00654 3.4091-3.00654 2.32511-1.54349 3.46409 -4.46507e-16 2.44685 -4.46507e-16 1.76936-0.950461 1.10168 -4.46507e-16 0.0824843 -4.46507e-16Z" fill="#005AA8" fill-rule="nonzero" fill-opacity="1" transform="matrix(-1 0 0 1.01144 104.307 469.871)"/><path d="M3.46401-1.51207 3.46401-1.23714 1.21546-1.23714C1.23902-1.01179 1.32003-0.842916 1.45897-0.730494 1.59889-0.617578 1.79477-0.561605 2.04613-0.561605 2.24742-0.561605 2.4546-0.591062 2.66668-0.649973 2.87877-0.709868 3.09675-0.80118 3.32061-0.922939L3.32061-0.182604C3.0938-0.0961986 2.86698-0.0313976 2.63918 0.0118115 2.41139 0.0559958 2.18408 0.0785794 1.95775 0.0785794 1.41282 0.0785794 0.989623-0.0593804 0.687248-0.335778 0.385815-0.613155 0.235576-1.0015 0.235576-1.50029 0.235576-1.99122 0.383352-2.37662 0.67938-2.65694 0.976401-2.93825 1.38437-3.07915 1.90281-3.07915 2.37509-3.07915 2.7536-2.93629 3.03786-2.65106 3.32162-2.36681 3.46399-1.98731 3.46399-1.51208ZM2.47624-1.83019C2.47624-2.01331 2.42223-2.16059 2.31522-2.27203 2.20918-2.38445 2.07024-2.44092 1.8989-2.44092 1.71136-2.44092 1.55966-2.38839 1.44331-2.28382 1.32793-2.17876 1.25576-2.02754 1.22729-1.83019Z" fill="#005AA8" fill-rule="nonzero" fill-opacity="1" transform="matrix(-1 0 0 1.01144 100.761 469.871)"/><path d="M0.461487-4.17688 1.42372-4.17688 1.42372 0 0.461487 0Z" fill="#005AA8" fill-rule="nonzero" fill-opacity="1" transform="matrix(-1 0 0 1.01144 97.0314 469.871)"/><path d="M3.29522-3.8824 3.29522-3.03406C3.07381-3.13225 2.85828-3.20589 2.64915-3.25596 2.43951-3.30703 2.24167-3.33255 2.05609-3.33255 1.80964-3.33255 1.627-3.29818 1.50819-3.23044 1.39037-3.16219 1.33146-3.05615 1.33146-2.91231 1.33146-2.80479 1.37123-2.72085 1.45125-2.66095 1.53078-2.60203 1.67561-2.55098 1.88524-2.50777L2.32512-2.41941C2.76992-2.32907 3.08706-2.19259 3.27558-2.01094 3.4641-1.82881 3.55836-1.56959 3.55836-1.23329 3.55836-0.790464 3.42679-0.461532 3.16365-0.245512 2.90149-0.0294922 2.50088 0.0785052 1.96183 0.0785052 1.70752 0.0785052 1.45223 0.0539585 1.19596 0.00584667 0.940673-0.0422652 0.685377-0.114434 0.430082-0.210173L0.430082-1.08208C0.685365-0.945607 0.931825-0.843001 1.17042-0.773776 1.40999-0.705535 1.64074-0.671661 1.86362-0.671661 2.08848-0.671661 2.2608-0.708973 2.38009-0.783594 2.50037-0.859199 2.56076-0.966711 2.56076-1.10565 2.56076-1.23133 2.52001-1.32804 2.43901-1.39629 2.35751-1.46404 2.1955-1.52491 1.952-1.57891L1.55139-1.66728C1.15078-1.75369 0.857202-1.89016 0.671622-2.0777 0.487022-2.26623 0.394734-2.51955 0.394734-2.83768 0.394734-3.23682 0.523356-3.54366 0.781592-3.75868 1.03934-3.97322 1.41-4.08074 1.89309-4.08074 2.11303-4.08074 2.33936-4.06405 2.57255-4.03165 2.80526-3.99876 3.0463-3.94918 3.29521-3.8824Z" fill="#005AA8" fill-rule="nonzero" fill-opacity="1" transform="matrix(-1 0 0 1.01144 93.232 469.871)"/><path d="M1.51207-3.86079 1.51207-3.00655 2.5018-3.00655 2.5018-2.31923 1.51207-2.31923 1.51207-1.0447C1.51207-0.904286 1.53956-0.809535 1.59455-0.759954 1.64953-0.711351 1.75951-0.687295 1.92446-0.687295L2.41933-0.687295 2.41933 2.76498e-05 1.59455 2.76498e-05C1.21456 2.76498e-05 0.945515-0.0790142 0.787434-0.237584 0.628863-0.395666 0.549822-0.664698 0.549822-1.04469L0.549822-2.31923 0.0726246-2.31923 0.0726246-3.00655 0.549822-3.00655 0.549822-3.86079Z" fill="#005AA8" fill-rule="nonzero" fill-opacity="1" transform="matrix(-1 0 0 1.01144 89.2721 469.871)"/></g></g></g></g></svg>