<svg xmlns="http://www.w3.org/2000/svg" xmlns:xlink="http://www.w3.org/1999/xlink" version="1.1" x="0px" y="0px" viewBox="0 0 24 30" style="enable-background:new 0 0 24 24;" xml:space="preserve"><path d="M22.0773926,7.6046143C20.3771973,3.7220459,16.5026245,1,12,1S3.6228027,3.7220459,1.9226074,7.6046143  c-0.0015869,0.0036011-0.003479,0.0067139-0.0050049,0.010376C1.3303833,8.9597778,1,10.4412842,1,12  s0.3303833,3.0402222,0.9176025,4.3850098c0.0015259,0.0036621,0.003418,0.0067749,0.0050049,0.010376  C3.6228027,20.2779541,7.4973755,23,12,23s8.3771973-2.7220459,10.0773926-6.6046143  c0.0015869-0.0036011,0.003479-0.0067139,0.0050049-0.010376C22.6696167,15.0402222,23,13.5587158,23,12  s-0.3303833-3.0402222-0.9176025-4.3850098C22.0808716,7.6113281,22.0789795,7.6082153,22.0773926,7.6046143z M12,21  c-0.7915039,0-1.8123169-1.4749146-2.4360352-4h4.8720703C13.8123169,19.5250854,12.7915039,21,12,21z M9.190918,15  C9.0708618,14.0836792,9,13.0821533,9,12s0.0708618-2.0836792,0.190918-3h5.6181641C14.9291382,9.9163208,15,10.9178467,15,12  s-0.0708618,2.0836792-0.190918,3H9.190918z M3,12c0-1.0530396,0.1912842-2.0599976,0.5251465-3h3.6586304  C7.0618896,9.9853516,7,10.9985352,7,12s0.0618896,2.0146484,0.1837769,3H3.5251465C3.1912842,14.0599976,3,13.0530396,3,12z M12,3  c0.7915039,0,1.8123169,1.4749146,2.4360352,4H9.5639648C10.1876831,4.4749146,11.2084961,3,12,3z M16.8162231,9h3.6586304  C20.8087158,9.9400024,21,10.9469604,21,12s-0.1912842,2.0599976-0.5251465,3h-3.6586304C16.9381104,14.0146484,17,13.0014648,17,12  S16.9381104,9.9853516,16.8162231,9z M19.4780884,7h-3.0043945c-0.2769165-1.2545166-0.6625977-2.4039917-1.151001-3.3565063  C17.0228271,4.3220215,18.4711304,5.4990234,19.4780884,7z M8.6773071,3.6434937  C8.1889038,4.5960083,7.8032227,5.7454834,7.5263062,7H4.5219116C5.5288696,5.4990234,6.9771729,4.3220215,8.6773071,3.6434937z   M4.5219116,17h3.0043945c0.2769165,1.2545166,0.6625977,2.4039917,1.151001,3.3565063  C6.9771729,19.6779785,5.5288696,18.5009766,4.5219116,17z M15.3226929,20.3565063  C15.8110962,19.4039917,16.1967773,18.2545166,16.4736938,17h3.0043945  C18.4711304,18.5009766,17.0228271,19.6779785,15.3226929,20.3565063z" fill="#005AA7"/></svg>