<svg width="813" height="235" viewBox="0 0 813 235" fill="none" xmlns="http://www.w3.org/2000/svg">
<g clip-path="url(#clip0_106_4)">
<path d="M247.23 195.51H251.54L255.04 156.19H249.56L249.97 151.87H265.59C276 151.87 280.93 156.39 280.93 164.68C280.93 172.22 276.93 180.37 262.93 180.37C261.416 180.391 259.904 180.277 258.41 180.03L257.04 195.51H262.52L262.11 199.83H246.81L247.23 195.51ZM258.8 175.85C259.959 176.02 261.129 176.09 262.3 176.06C270.25 176.06 275.45 172.7 275.45 164.89C275.45 161.81 274.56 159.68 272.78 158.24C271 156.8 268.6 156.24 264.42 156.24H260.52L258.8 175.85Z" fill="#333333"/>
<path d="M300.53 163.79C310.47 163.79 313.76 172.15 313.76 179.62C313.76 191.2 308 200.52 297.38 200.52C287.45 200.52 284.16 192.16 284.16 184.76C284.16 173.45 289.91 163.79 300.53 163.79ZM297.79 195.86C302.79 195.86 308.28 192.09 308.28 179.34C308.28 171.88 304.71 168.45 300.12 168.45C295.12 168.45 289.64 172.22 289.64 184.96C289.64 192.43 293.2 195.86 297.79 195.86Z" fill="#333333"/>
<path d="M325.54 151.46H319.24L319.65 147.14H331.31L327.06 195.51H332.31L331.89 199.83H321.31L325.54 151.46Z" fill="#333333"/>
<path d="M343.63 168.79H338.15L338.56 164.48H349.31L346.5 195.48H351.7L351.29 199.8H340.82L343.63 168.79ZM351.58 150.5C351.582 151.274 351.354 152.031 350.926 152.675C350.497 153.319 349.888 153.822 349.173 154.119C348.459 154.417 347.672 154.496 346.913 154.346C346.154 154.196 345.457 153.825 344.909 153.278C344.361 152.732 343.988 152.035 343.836 151.276C343.684 150.518 343.761 149.731 344.057 149.016C344.352 148.301 344.853 147.69 345.497 147.26C346.14 146.83 346.896 146.6 347.67 146.6C348.702 146.61 349.689 147.024 350.42 147.753C351.151 148.482 351.567 149.468 351.58 150.5V150.5Z" fill="#333333"/>
<path d="M377.31 168.52C376.26 168.238 375.177 168.1 374.09 168.11C366.01 168.11 362.44 175.17 362.44 184.35C362.44 192.64 366.35 195.86 371.35 195.86C374.544 195.684 377.657 194.792 380.46 193.25L379.98 198.12C376.966 199.73 373.596 200.555 370.18 200.52C360.25 200.52 356.96 192.16 356.96 184.76C356.96 173.18 362.72 163.76 374.3 163.76C376.972 163.756 379.628 164.174 382.17 165L381.49 173.9H377.04L377.31 168.52Z" fill="#333333"/>
<path d="M382.97 212.98C384.267 213.371 385.616 213.556 386.97 213.53C390.05 213.53 392.86 212.23 396.29 205.11L398.34 200.79L389.23 168.79H384.03L384.44 164.48H394.03L400.54 190.17C401.051 191.789 401.327 193.473 401.36 195.17H401.5C402.11 193.17 402.59 191.4 403.21 189.69L411.43 168.79H405.51L405.92 164.48H416.81L416.4 168.79L410.58 183.11C399 211.82 396.12 217.85 386.74 217.85C385.33 217.832 383.927 217.647 382.56 217.3L382.97 212.98Z" fill="#333333"/>
<path d="M465.53 150.91C479.43 150.91 484.78 161.19 484.78 172.77C484.78 189.83 475.19 200.77 461.48 200.77C447.77 200.77 442.31 190.51 442.31 178.93C442.31 161.87 451.89 150.91 465.53 150.91ZM465.05 155.57C455.11 155.57 448.19 163.86 448.19 179C448.19 191.34 454.36 196.13 461.96 196.13C471.96 196.13 478.89 187.84 478.89 172.63C478.89 160.37 472.72 155.57 465.05 155.57Z" fill="#333333"/>
<path d="M491.42 147.14H503.07C501.63 160.23 501.63 170.44 499.51 180.78H499.65C502.52 170.1 507.65 163.78 514.51 163.78C520.95 163.78 522.94 169.95 522.94 176.87C522.94 183.79 519.58 200.51 504.37 200.51C500.47 200.577 496.606 199.757 493.07 198.11C494.23 190.78 495.47 172.55 497.38 151.45H491.08L491.42 147.14ZM513.62 168.45C507.32 168.45 499.99 180.51 498.76 195.17C500.621 195.862 502.595 196.201 504.58 196.17C513.14 196.17 517.46 186.58 517.46 176.57C517.46 171.33 516.31 168.45 513.62 168.45V168.45Z" fill="#333333"/>
<path d="M529.65 189.42H534.11L533.83 194.83C536.189 195.747 538.699 196.212 541.23 196.2C546.23 196.2 548.91 193.32 548.91 189.96C548.91 182.84 530.68 184.76 530.68 174.34C530.68 168.18 534.86 163.79 543.68 163.79C547.3 163.828 550.89 164.453 554.31 165.64L553.62 174.55H549.17L549.44 169.14C547.512 168.464 545.483 168.126 543.44 168.14C537.61 168.14 535.9 171.14 535.9 173.41C535.9 176.57 538.57 177.73 542.41 179.17L546.41 180.68C550.93 182.39 554.15 184.17 554.15 189.24C554.15 196.64 549.08 200.55 540.79 200.55C536.759 200.579 532.759 199.833 529.01 198.35L529.65 189.42Z" fill="#333333"/>
<path d="M584.6 197.91C581.314 199.669 577.637 200.566 573.91 200.52C565.21 200.52 560.83 196.06 560.83 184.62C560.682 179.166 562.451 173.833 565.83 169.55C567.286 167.686 569.161 166.192 571.304 165.191C573.447 164.19 575.796 163.71 578.16 163.79C584.94 163.79 587.89 167.79 587.89 171.79C587.89 180.22 578.23 184.74 566.31 186.11C566.31 193.3 569.87 195.84 575.31 195.84C578.848 195.715 582.286 194.626 585.25 192.69L584.6 197.91ZM577.2 168.11C570.69 168.11 567.06 174.62 566.31 182.29C576.11 181.06 582.41 178.29 582.41 172.15C582.41 170.23 580.83 168.11 577.2 168.11Z" fill="#333333"/>
<path d="M593.37 164.48H603.65C603.38 167.48 603.03 172.84 602.01 179.76L602.14 179.89C604.14 170.23 607.28 163.79 614.54 163.79C615.67 163.772 616.798 163.89 617.9 164.14L617.08 169.14C616.314 168.97 615.534 168.876 614.75 168.86C607.83 168.86 603.38 176.67 600.84 199.86H595.63C597.07 189.17 597.69 178.35 598.44 168.86H592.96L593.37 164.48Z" fill="#333333"/>
<path d="M620.5 164.48H631.5C631.22 169.82 630.67 177.91 630.67 182.57C630.67 193.32 631.84 195.86 634.92 195.86C640.47 195.86 645.92 186.86 647.25 168.79H641.77L642.18 164.48H652.73C651.3 184.28 646.29 200.48 633.89 200.48C627.38 200.48 625.05 195.61 625.19 182.53C625.26 178.69 625.4 174.3 625.6 168.75H620.12L620.5 164.48Z" fill="#333333"/>
<path d="M689.65 195.51L689.24 199.83H678.96C679.359 193.877 680.228 187.966 681.56 182.15L681.43 182.02C679.64 188.53 675.74 200.52 667.11 200.52C661.28 200.52 658.11 195.24 658.11 187.7C658.11 178.45 661.47 171.6 664.41 168.7C668.41 164.7 672.91 163.83 677.41 163.83C680.015 163.805 682.593 164.369 684.95 165.48H687.28C686.28 170.34 685.09 185.69 684.47 195.55L689.65 195.51ZM667.72 195.45C674.99 195.45 680.4 179.62 681.49 169C679.923 168.377 678.246 168.075 676.56 168.11C666.42 168.11 663.56 178.39 663.56 187.63C663.61 192.84 665.05 195.45 667.72 195.45V195.45Z" fill="#333333"/>
<path d="M700.88 168.79H695.2L695.54 164.48H701.31L702.14 155.64L707.34 155.43L706.52 164.48H716.59L716.25 168.79H706.09L704.17 190.38C703.83 193.8 704.99 195.86 707.8 195.86C710.388 195.804 712.916 195.07 715.13 193.73L714.72 198.6C712.262 199.858 709.541 200.516 706.78 200.52C701.23 200.52 698.28 197.64 698.97 189.76L700.88 168.79Z" fill="#333333"/>
<path d="M735.76 163.79C745.69 163.79 748.98 172.15 748.98 179.62C748.98 191.2 743.23 200.52 732.6 200.52C722.67 200.52 719.38 192.16 719.38 184.76C719.38 173.45 725.14 163.79 735.76 163.79ZM733.02 195.86C738.02 195.86 743.5 192.09 743.5 179.34C743.5 171.88 739.94 168.45 735.35 168.45C730.35 168.45 724.86 172.22 724.86 184.96C724.86 192.43 728.43 195.86 733.02 195.86Z" fill="#333333"/>
<path d="M754.46 164.48H764.74C764.46 167.48 764.12 172.84 763.09 179.76L763.23 179.89C765.23 170.23 768.37 163.79 775.63 163.79C776.76 163.772 777.888 163.89 778.99 164.14L778.17 169.14C777.404 168.97 776.624 168.876 775.84 168.86C768.92 168.86 764.46 176.67 761.93 199.86H756.72C758.16 189.17 758.78 178.35 759.53 168.86H754.05L754.46 164.48Z" fill="#333333"/>
<path d="M778.52 212.98C779.817 213.371 781.166 213.556 782.52 213.53C785.6 213.53 788.41 212.23 791.83 205.11L793.89 200.79L784.78 168.79H779.57L779.98 164.48H789.57L796.08 190.17C796.591 191.789 796.867 193.473 796.9 195.17H797.04C797.66 193.17 798.14 191.4 798.75 189.69L806.97 168.79H801.08L801.49 164.48H812.39L811.98 168.79L806.15 183.11C794.57 211.82 791.7 217.85 782.31 217.85C780.9 217.832 779.497 217.647 778.13 217.3L778.52 212.98Z" fill="#333333"/>
<path d="M295.81 112.13C274.87 112.13 259.96 95.13 259.96 74.47C259.96 53.81 274.57 37.11 295.5 37.11C316.43 37.11 331.36 54.11 331.36 74.77C331.36 95.43 316.75 112.13 295.81 112.13ZM295.81 24.76C266.19 24.76 245.25 47.48 245.25 74.76C245.25 102.04 265.91 124.48 295.53 124.48C325.15 124.48 346.08 101.76 346.08 74.48C346.08 47.2 325.41 24.76 295.8 24.76" fill="#333333"/>
<path d="M425.63 25.8101H354.16V123.43H426.33V110.74H368.25V80.5501H419.64V67.8601H368.25V38.5001H425.63V25.8101Z" fill="#333333"/>
<path d="M508.66 98.75C499.66 107.19 491.79 112.13 478.89 112.13C458.8 112.13 443.89 95.26 443.89 74.47C443.89 53.68 458.81 37.11 478.89 37.11C490.89 37.11 499.52 42.03 507.89 49.86L517.15 39.48C507.36 30.27 496.78 24.14 479.01 24.14C450.18 24.14 429.47 46.87 429.47 74.76C429.47 102.93 450.32 125.11 478.59 125.11C496.36 125.11 507.59 118.2 517.78 107.88L508.66 98.75Z" fill="#333333"/>
<path d="M557.8 110.53H536.71V38.7101H557.8C580.26 38.7101 594.93 53.9501 594.93 74.7701C594.93 95.5901 580.31 110.53 557.8 110.53ZM557.8 25.8101H522.62V123.43H557.77C588.5 123.43 609.65 102.09 609.65 74.4801C609.65 46.8701 588.46 25.8101 557.77 25.8101" fill="#333333"/>
<path d="M738.97 99.84H696.03L684.85 124.21H668.54L718.18 17.59L766.06 124.21H749.5L738.97 99.84ZM732.8 85.61L717.92 51.5L702.31 85.61H732.8Z" fill="#333333"/>
<path d="M797.73 23.89V124.21H782.6V23.89H797.73Z" fill="#333333"/>
<path d="M627.31 116.15C627.315 114.368 627.85 112.628 628.845 111.15C629.841 109.672 631.253 108.522 632.902 107.848C634.552 107.173 636.364 107.003 638.11 107.359C639.856 107.716 641.457 108.583 642.71 109.85C643.777 110.901 644.566 112.2 645.007 113.631C645.448 115.062 645.527 116.58 645.238 118.049C644.948 119.518 644.298 120.892 643.346 122.048C642.395 123.204 641.171 124.106 639.785 124.673C638.399 125.24 636.895 125.454 635.406 125.297C633.917 125.139 632.49 124.614 631.254 123.77C630.017 122.925 629.01 121.787 628.321 120.457C627.633 119.127 627.286 117.647 627.31 116.15V116.15Z" fill="#333333"/>
<path d="M115.99 230.35C179.149 230.35 230.35 179.149 230.35 115.99C230.35 52.8307 179.149 1.63 115.99 1.63C52.8307 1.63 1.63 52.8307 1.63 115.99C1.63 179.149 52.8307 230.35 115.99 230.35Z" fill="#7F0506" stroke="#135781" stroke-width="2" stroke-miterlimit="10"/>
<path d="M107.53 63.98C107.66 64.49 107.91 64.74 108.16 64.74C108.41 64.74 108.42 64.61 108.54 64.49C108.54 64.87 108.67 65.25 108.67 65.49C108.92 67.76 109.17 68.77 110.44 70.16C112.44 72.16 113.84 73.06 115.74 73.06C117.64 73.06 118.89 72.3 120.91 70.28C122.17 69.02 122.43 67.89 122.68 65.61C122.68 65.36 122.81 64.98 122.81 64.61C122.93 64.74 123.06 64.87 123.18 64.87C123.3 64.87 123.69 64.61 123.82 64.11C123.994 63.1253 124.245 62.1556 124.57 61.21C125.08 59.57 124.7 59.06 124.45 58.93C124.399 58.8845 124.338 58.8503 124.273 58.8296C124.207 58.809 124.138 58.8023 124.07 58.81C123.737 58.8233 123.42 58.9585 123.18 59.19C123.31 57.67 123.31 55.9 123.31 54.14C123.31 48.84 117.13 47.95 115.74 47.95C114.35 47.95 108.16 48.71 108.16 54.14C108.16 56.03 108.16 57.67 108.29 59.19C108.055 58.9576 107.741 58.8219 107.41 58.81C107.342 58.801 107.272 58.807 107.207 58.8278C107.141 58.8485 107.081 58.8834 107.03 58.93C106.77 59.19 106.4 59.57 106.9 61.21C107.4 62.85 107.41 63.23 107.53 63.98ZM132.65 224.29C131.239 223.378 129.928 222.319 128.74 221.13C127.74 220.13 128.61 218.23 128.23 216.21C127.85 214.19 127.85 213.43 129.37 206.87C130.804 201.172 131.565 195.325 131.64 189.45C131.64 183.9 129.87 181.5 129.75 179.23C129.63 176.96 129.87 174.43 129.75 170.9C129.601 167.813 129.813 164.718 130.38 161.68C131.01 157.52 131.77 151.84 132.27 144.39C132.77 136.94 132.53 131.77 131.64 127.85C130.75 123.93 129.5 121.42 130.64 117.25C131.78 113.08 130.52 109.93 130.39 106.52C130.26 103.11 130.52 103.37 132.03 101.22C133.54 99.07 135.56 88.85 136.83 84.94C138.1 81.03 138.34 80.94 138.34 80.94C147.68 79.94 150.84 77.66 152.73 76.39C154.62 75.12 154.37 75.39 157.78 74.88C161.19 74.37 164.47 73.62 170.53 70.33C175.197 67.5839 179.708 64.5792 184.04 61.33H185.04C188.04 61.33 190.72 60.83 191.98 59.57C193.24 58.31 194.12 58.04 194.75 58.04H197.53C198.92 58.04 199.93 57.28 199.42 56.15C199.05 55.39 195.89 55.26 194.25 55.26H193.25C193.25 55.26 194.64 54.26 196.41 52.74C198.18 51.22 198.68 51.86 201.2 50.47C203.72 49.08 203.1 47.94 203.1 47.94C199.96 48.9627 196.752 49.7646 193.5 50.34C189.84 50.97 187.82 53.12 182.39 55.26C176.96 57.4 171.39 57.91 162.32 60.57C156.85 62.1672 151.657 64.5919 146.92 67.76C145.264 67.5202 143.593 67.3933 141.92 67.38C132.07 67.38 128.41 72.43 127.27 71.93C126.39 72.43 124.27 70.79 122.86 69.65C122.566 70.1401 122.231 70.605 121.86 71.04C119.58 73.31 117.94 74.2 115.8 74.2C113.66 74.2 111.88 73.2 109.61 70.92C109.237 70.4864 108.903 70.0213 108.61 69.53C107.062 70.6997 105.586 71.962 104.19 73.31V73.31C103.06 72.31 99.52 67.13 89.55 67.13C87.8769 67.1486 86.2067 67.2755 84.55 67.51C79.8072 64.3213 74.6173 61.8544 69.15 60.19C59.82 57.67 54.39 57.29 48.96 55.04C43.53 52.79 41.52 50.75 37.96 50.04C34.7093 49.4209 31.5051 48.5789 28.37 47.52C28.37 47.52 27.74 48.52 30.26 50.04C32.78 51.56 33.17 50.8 34.93 52.44C36.69 54.08 38.09 54.96 38.09 54.96H37.09C35.45 54.96 32.29 55.09 31.91 55.85C31.41 56.98 32.42 57.74 33.81 57.74H36.58C37.21 57.74 37.97 57.74 39.36 59.26C40.63 60.45 43.31 60.95 46.31 60.95H47.31C51.6409 64.2336 56.1548 67.2685 60.83 70.04C66.76 73.32 70.17 74.21 73.45 74.71C76.73 75.21 76.61 74.96 78.45 76.23C80.29 77.5 83.45 79.76 92.71 80.9C92.71 80.9 93.09 80.9 94.23 84.9C95.37 88.9 97.38 99.03 98.9 101.18C100.42 103.33 100.67 103.18 100.54 106.48C100.41 109.78 99.03 113.05 100.29 117.21C101.55 121.37 100.16 123.9 99.29 127.81C98.42 131.72 98.15 136.9 98.66 144.35C98.951 150.14 99.5385 155.911 100.42 161.64C100.987 164.678 101.199 167.773 101.05 170.86C100.93 174.39 101.05 176.92 100.93 179.19C100.81 181.46 99.04 183.73 99.04 189.41C99.0089 195.284 99.7281 201.138 101.18 206.83C102.7 213.52 102.57 214.15 102.18 216.3C101.79 218.45 102.69 220.3 101.68 221.22C100.483 222.402 99.1695 223.461 97.76 224.38C95.76 225.64 94.61 226.14 94.86 226.9C95.11 227.66 96.86 228.42 99.03 229.05C99.6759 229.255 100.354 229.339 101.03 229.3C102.403 229.331 103.759 228.985 104.95 228.3C105.987 227.592 107.226 227.24 108.48 227.3C110.12 227.3 110.63 226.79 110.63 225.66C110.63 224.53 109.87 223.39 109.11 222.12C108.766 221.68 108.54 221.161 108.453 220.61C108.365 220.059 108.419 219.494 108.61 218.97C108.99 217.83 108.86 217.58 108.73 215.97C108.6 214.36 108.86 207.26 108.86 203.97C108.86 200.68 110.12 198.29 110.86 195.38C111.529 192.358 111.701 189.247 111.37 186.17C111.154 184.28 111.194 182.369 111.49 180.49C111.87 177.71 112.63 173.8 113.38 169.26C114.141 165.305 114.523 161.287 114.52 157.26C114.52 152.59 115.03 147.04 115.52 147.04C116.01 147.04 116.4 152.59 116.4 157.26C116.295 161.284 116.631 165.308 117.4 169.26C118.16 173.8 118.92 177.71 119.3 180.49C119.68 183.27 119.8 183.39 119.42 186.17C119.047 189.24 119.175 192.351 119.8 195.38C120.56 198.29 121.7 200.69 121.7 203.97C121.7 207.25 121.82 214.32 121.7 215.97C121.58 217.62 121.44 217.86 121.82 218.97C122.018 219.502 122.065 220.078 121.953 220.635C121.842 221.191 121.578 221.706 121.19 222.12C120.43 223.39 119.55 224.4 119.68 225.66C119.81 226.92 120.31 227.3 121.82 227.3C123.077 227.24 124.32 227.591 125.36 228.3C126.564 228.943 127.905 229.286 129.27 229.3C129.943 229.275 130.612 229.191 131.27 229.05C133.41 228.42 135.18 227.78 135.43 226.9C135.68 226.02 134.8 225.68 132.65 224.29ZM73.07 86.83C76.35 86.07 76.07 85.95 78.37 86.58C81.7425 87.5426 85.3049 87.6287 88.72 86.83C90.72 86.45 92.01 85.83 93.39 86.58L93.02 85.06C92.51 83.17 92.13 82.29 92.02 81.78C83.18 80.65 79.9 78.5 78.02 77.11L77.76 76.98C76.7616 76.391 75.6372 76.0482 74.48 75.98C74.1 75.98 73.72 75.86 73.09 75.86C71.7273 75.7158 70.3853 75.4172 69.09 74.97C67.58 74.97 65.81 74.97 64.09 75.1C54.63 75.73 49.33 77.25 43.39 76.99C37.45 76.73 34.94 75.61 31.28 76.11C28.0238 76.6708 24.7325 77.0049 21.43 77.11C21.43 77.11 21.18 78.25 23.95 78.75C26.72 79.25 26.95 78.5 29.26 79.26C31.57 80.02 33.04 80.52 33.04 80.52C33.04 80.52 27.61 82.29 27.49 83.52C27.37 84.75 28.62 85.03 29.89 84.65C31.16 84.27 31.89 83.9 32.54 83.65C33.19 83.4 33.93 83.28 35.69 84.03C37.45 84.78 40.49 84.29 43.77 82.9C48.9511 84.4692 54.2202 85.7314 59.55 86.68C66.31 87.97 69.66 87.59 73.07 86.83ZM209.78 77.83C206.477 77.7385 203.184 77.4042 199.93 76.83C196.27 76.2 193.74 77.46 187.81 77.59C181.88 77.72 176.58 76.2 167.11 75.59C165.34 75.46 163.7 75.46 162.06 75.46C160.747 75.8094 159.41 76.0634 158.06 76.22C157.603 76.3146 157.136 76.3549 156.67 76.34C155.517 76.3303 154.399 76.7348 153.52 77.48L153.27 77.61C151.27 78.87 147.96 81.14 139.27 82.15C139.14 82.65 138.76 83.54 138.27 85.43C138.109 85.9274 137.982 86.4353 137.89 86.95C139.28 86.19 140.41 86.82 142.56 87.2C145.976 87.9934 149.537 87.9074 152.91 86.95C155.18 86.44 154.8 86.57 158.21 87.33C161.62 88.09 165.03 88.46 171.72 87.45C177.039 86.5162 182.303 85.2944 187.49 83.79C190.65 85.05 193.8 85.79 195.57 84.93C197.34 84.07 198.1 84.3 198.73 84.55C199.36 84.8 200.12 85.05 201.38 85.55C202.64 86.05 203.9 85.67 203.78 84.55C203.66 83.43 198.22 81.55 198.22 81.55C198.22 81.55 199.86 81.04 202.01 80.29C204.16 79.54 204.41 80.29 207.31 79.78C210.03 79.04 209.78 77.87 209.78 77.87V77.83ZM97.06 144.39C96.6708 139.61 96.7545 134.803 97.31 130.04C96.8 131.04 96.31 132.04 95.41 133.7C92.2585 138.974 89.7602 144.612 87.97 150.49C85.97 157.43 84.97 159.83 82.67 163.87C80.37 167.91 80.39 167.87 77.87 170.43C75.35 172.99 70.93 179.65 68.53 188.99C66.13 198.33 65.88 199.17 64.74 201.04C63.6 202.91 63.23 203.82 61.84 204.2C60.0608 204.611 58.2346 204.783 56.41 204.71C53.89 204.58 53.13 204.58 51.74 204.07C50.35 203.56 49.59 203.32 49.22 203.82C49.0866 204.058 49.0034 204.322 48.9756 204.594C48.9478 204.865 48.976 205.14 49.0585 205.4C49.1409 205.661 49.2759 205.902 49.455 206.108C49.6342 206.314 49.8537 206.482 50.1 206.6C51.49 207.23 51.36 207.1 51.87 207.99C52.6497 209.182 53.7385 210.139 55.02 210.76C56.1065 211.501 57.3688 211.942 58.68 212.04C59.82 212.16 59.68 212.16 60.32 213.04C60.8469 214.243 61.73 215.255 62.85 215.94C64.49 217.08 65.5 217.2 66.38 216.44C67.26 215.68 67.9 214.44 67.9 212.15C67.9 209.86 68.02 208.87 68.78 207.73C69.54 206.59 71.31 202.73 72.95 199.15C74.59 195.57 75.6 193.47 78.37 190.44C81.14 187.41 83.68 185.77 85.44 181.35C87.2 176.93 87.08 176.05 88.6 174.28C89.5997 173.159 90.4103 171.882 91 170.5C91.63 169.24 92.13 168.86 94.15 166.59C95.54 165.07 97.31 162.92 98.82 160.9C97.8962 155.438 97.3085 149.924 97.06 144.39V144.39ZM178.6 204.6C177.21 205.1 176.45 205.1 173.93 205.1C172.097 205.207 170.26 204.994 168.5 204.47C167.11 204.09 166.73 203.21 165.6 201.32C164.47 199.43 164.21 198.67 161.81 189.2C159.41 179.73 155.12 173.04 152.6 170.52C150.08 168 150.07 167.99 147.8 163.95C145.53 159.91 144.52 157.52 142.5 150.45C140.77 144.529 138.312 138.845 135.18 133.53C134.29 132.02 133.79 130.88 133.28 129.87C133.788 134.651 133.831 139.47 133.41 144.26C133.03 150.07 132.53 155.5 131.64 161.05C133.16 163.2 134.92 165.34 136.19 166.86C138.19 169.13 138.71 169.51 139.34 170.77C139.927 172.156 140.738 173.436 141.74 174.56C143.25 176.32 143.25 177.21 144.9 181.75C146.55 186.29 149.19 187.94 151.84 190.84C154.102 193.412 155.895 196.36 157.14 199.55C158.78 203.21 160.55 207.12 161.3 208.26C162.05 209.4 162.06 210.41 162.19 212.68C162.138 214.249 162.677 215.78 163.7 216.97C164.59 217.73 165.6 217.6 167.24 216.46C168.322 215.79 169.195 214.831 169.76 213.69C170.27 212.8 170.14 212.8 171.4 212.69C172.706 212.583 173.965 212.15 175.06 211.43C176.321 210.77 177.404 209.816 178.22 208.65C178.72 207.76 178.6 207.89 179.99 207.26C180.236 207.142 180.456 206.974 180.635 206.768C180.814 206.562 180.949 206.321 181.032 206.06C181.114 205.8 181.142 205.525 181.114 205.254C181.087 204.982 181.003 204.718 180.87 204.48C180.74 203.97 179.99 204.22 178.6 204.6V204.6Z" fill="white"/>
<path d="M166.1 217.22C165.1 217.6 164.46 217.6 163.83 216.97C162.95 216.21 162.31 214.97 162.31 212.68C162.31 210.39 162.19 209.4 161.43 208.26C160.67 207.12 159.03 203.21 157.27 199.55C156.018 196.361 154.221 193.414 151.96 190.84C149.31 187.84 146.66 186.17 145.02 181.75C143.38 177.33 143.38 176.45 141.87 174.56C140.868 173.436 140.057 172.156 139.47 170.77C138.84 169.51 138.33 169.13 136.31 166.86C134.685 165.013 133.169 163.073 131.77 161.05C132.65 155.62 133.16 150.05 133.53 144.26C133.886 139.722 133.846 135.161 133.41 130.63C133.28 130.63 133.28 130.76 133.16 130.76H132.16C132.534 135.251 132.574 139.763 132.28 144.26C131.78 151.71 131.02 157.39 130.39 161.56C129.76 165.73 129.51 167.24 129.76 170.77C130.01 174.3 129.76 176.83 129.76 179.1C129.76 181.37 131.53 183.65 131.65 189.33C131.567 195.201 130.806 201.044 129.38 206.74C127.86 213.43 127.99 214.07 128.24 216.09C128.49 218.11 127.74 220.09 128.75 221.01C129.907 222.23 131.222 223.289 132.66 224.16C134.66 225.43 135.82 225.93 135.44 226.69C135.06 227.45 133.44 228.2 131.27 228.83C130.626 229.041 129.947 229.129 129.27 229.09C127.9 229.12 126.548 228.774 125.36 228.09C124.323 227.381 123.084 227.03 121.83 227.09C120.18 227.09 119.68 226.58 119.68 225.45C119.68 224.32 120.44 223.17 121.19 221.91C121.94 220.65 122.19 219.91 121.83 218.76C121.47 217.61 121.57 217.37 121.7 215.76C121.83 214.15 121.7 207.05 121.7 203.76C121.7 200.47 120.56 198.08 119.81 195.17C119.118 192.15 118.989 189.027 119.43 185.96C119.81 183.05 119.55 183.05 119.3 180.28C119.05 177.51 118.17 173.59 117.41 169.04C116.63 165.09 116.294 161.065 116.41 157.04C116.53 152.37 116.16 146.82 115.52 146.82C114.88 146.82 114.39 152.37 114.52 157.04C114.501 161.069 114.096 165.088 113.31 169.04C112.55 173.59 111.67 177.5 111.42 180.28C110.997 182.146 110.953 184.077 111.29 185.96C111.625 189.037 111.452 192.149 110.78 195.17C110.03 198.08 108.89 200.47 108.78 203.76C108.67 207.05 108.53 214.11 108.66 215.76C108.79 217.41 108.91 217.65 108.53 218.76C108.339 219.285 108.285 219.85 108.375 220.401C108.464 220.953 108.693 221.472 109.04 221.91C109.79 223.17 110.55 224.18 110.55 225.45C110.55 226.72 109.92 227.09 108.41 227.09C107.153 227.029 105.91 227.38 104.87 228.09C103.659 228.715 102.322 229.057 100.96 229.09C100.287 229.066 99.617 228.979 98.96 228.83C96.81 228.2 95.05 227.45 94.79 226.69C94.53 225.93 95.55 225.43 97.7 224.16C99.1083 223.247 100.419 222.192 101.61 221.01C102.61 220.12 101.74 218.11 102.11 216.09C102.48 214.07 102.49 213.31 101.11 206.62C99.73 199.93 98.84 194.88 98.97 189.2C99.1 183.52 100.86 181.25 100.86 178.98C100.86 176.71 100.86 174.18 100.99 170.64C101.133 167.556 100.922 164.466 100.36 161.43C99.4753 155.701 98.8845 149.93 98.59 144.14C98.3029 139.723 98.3464 135.291 98.72 130.88H97.45C97.0199 135.328 96.9798 139.805 97.33 144.26C97.58 150.07 98.21 155.5 98.97 161.05C97.5641 163.062 96.0026 164.962 94.3 166.73C92.3 169 91.77 169.38 91.14 170.64C90.5046 172 89.698 173.274 88.74 174.43C87.23 176.2 87.23 177.08 85.59 181.5C83.95 185.92 81.3 187.56 78.52 190.59C76.2631 193.19 74.4305 196.129 73.09 199.3C71.33 202.96 69.68 206.87 68.93 207.88C68.18 208.89 68.17 210.03 68.04 212.3C68.0973 213.869 67.5577 215.402 66.53 216.59C65.77 217.35 64.89 217.22 63.53 216.34C63.28 216.59 63.15 216.84 62.9 217.1C79.0514 225.647 97.0199 230.188 115.293 230.341C133.565 230.494 151.608 226.255 167.9 217.98C167.521 217.696 167.095 217.482 166.64 217.35C166.23 217.47 166.23 217.35 166.1 217.22Z" fill="#AC967F"/>
<path d="M51.61 204.22C53 204.73 53.76 204.73 56.28 204.85C58.1041 204.923 59.9299 204.755 61.71 204.35C63.1 204.09 63.48 203.08 64.62 201.19C65.76 199.3 66 198.54 68.4 189.07C70.8 179.6 75.22 173.07 77.74 170.52C80.26 167.97 80.27 167.99 82.54 163.95C84.81 159.91 85.82 157.52 87.84 150.57C89.6331 144.692 92.1419 139.056 95.31 133.79C96.0339 132.621 96.6658 131.397 97.2 130.13V130.25C97.33 130.13 97.33 130.13 97.45 130.13H98.45C98.58 129.37 98.71 128.61 98.83 127.98C99.72 124.07 101.1 121.54 99.83 117.38C98.56 113.22 99.96 110.06 100.08 106.65C100.2 103.24 99.96 103.49 98.44 101.35C97.06 99.45 95.44 91.35 94.28 86.7H93.02V86.83C91.63 86.07 90.49 86.7 88.35 87.08C84.9351 87.88 81.3723 87.7939 78 86.83C75.72 86.33 76.1 86.45 72.69 87.08C69.28 87.71 65.88 88.22 59.19 87.21C53.8596 86.2602 48.5903 84.9946 43.41 83.42C40.13 84.68 37.1 85.42 35.33 84.56C33.56 83.7 32.81 83.93 32.18 84.18C31.55 84.43 30.79 84.68 29.52 85.18C28.25 85.68 27 85.31 27.13 84.04C27.26 82.77 32.68 81.04 32.68 81.04C32.68 81.04 31.04 80.54 28.89 79.78C26.74 79.02 26.5 79.78 23.59 79.28C21.07 78.9 20.94 77.89 20.94 77.64H8.31C3.78031 90.098 1.47197 103.254 1.49 116.51C1.49248 137.378 7.19775 157.848 17.9893 175.709C28.7808 193.57 44.2482 208.141 62.72 217.85V216.97C62.72 216.84 62.72 216.84 62.85 216.84C62.98 216.84 62.72 216.84 62.72 216.72C61.5987 216.035 60.7181 215.018 60.2 213.81C59.69 212.81 59.82 212.81 58.56 212.81C57.2527 212.708 55.993 212.274 54.9 211.55C53.6371 210.893 52.5527 209.939 51.74 208.77C51.24 207.89 51.36 208.02 49.97 207.39C49.7237 207.272 49.5041 207.104 49.325 206.898C49.1459 206.692 49.0109 206.451 48.9285 206.19C48.846 205.93 48.8178 205.655 48.8456 205.383C48.8734 205.112 48.9565 204.848 49.09 204.61C49.47 203.46 50.31 203.72 51.61 204.22Z" fill="#135781"/>
<path d="M207.38 46.6899C206.11 47.4459 204.77 48.0787 203.38 48.5799C203.5 48.9599 203.38 49.7199 201.48 50.8599C198.96 52.3699 198.58 51.6099 196.69 53.1299C194.8 54.6499 193.53 55.6499 193.53 55.6499H194.53C196.17 55.6499 199.33 55.7799 199.71 56.5399C200.21 57.6699 199.2 58.4299 197.81 58.4299H195.01C194.38 58.4299 193.62 58.4299 192.23 59.9399C190.97 61.2099 188.32 61.7099 185.29 61.7099H184.29C179.958 64.9592 175.447 67.9638 170.78 70.7099C164.85 73.9999 161.44 74.7099 158.03 75.2599C154.62 75.8099 154.88 75.5099 152.98 76.7699C151.08 78.0299 147.98 80.3099 138.59 81.3199C138.59 81.3199 138.22 81.3199 137.08 85.3199C135.94 89.3199 133.92 99.4499 132.28 101.6C130.64 103.75 130.52 103.49 130.64 106.9C130.76 110.31 132.03 113.46 130.89 117.63C129.75 121.8 131.02 124.32 131.89 128.23C132.132 129.311 132.303 130.407 132.4 131.51H133.66C133.66 131.14 133.53 130.88 133.53 130.51C134.089 131.767 134.724 132.989 135.43 134.17C138.507 139.495 140.963 145.155 142.75 151.04C144.64 157.98 145.75 160.51 148.05 164.55C150.35 168.59 150.2 168.55 152.85 171.11C155.5 173.67 159.79 180.32 162.06 189.79C164.33 199.26 164.59 200.01 165.85 201.91C167.11 203.81 167.36 204.81 168.75 205.06C172.063 205.867 175.517 205.912 178.85 205.19C180.24 204.69 181 204.43 181.37 204.94C181.611 205.426 181.655 205.986 181.49 206.503C181.326 207.02 180.967 207.453 180.49 207.71C179.1 208.35 179.23 208.22 178.72 209.1C177.947 210.3 176.857 211.262 175.57 211.88C174.484 212.619 173.221 213.054 171.91 213.14C170.77 213.27 170.91 213.27 170.27 214.14C169.696 215.28 168.821 216.241 167.74 216.92V216.92L167.87 217.05C186.606 207.526 202.349 193.016 213.366 175.118C224.383 157.219 230.247 136.627 230.31 115.61C230.172 90.7858 222.141 66.6489 207.38 46.6899V46.6899ZM207.25 79.7599C204.35 80.2699 204.25 79.5099 201.95 80.2699L198.16 81.5299C198.16 81.5299 203.59 83.2999 203.72 84.5299C203.85 85.7599 202.58 86.0399 201.32 85.5299C200.06 85.0199 199.32 84.7699 198.67 84.5299C198.02 84.2899 197.28 84.0199 195.51 84.9099C193.74 85.7999 190.72 85.0299 187.43 83.7699C182.243 85.2744 176.979 86.4961 171.66 87.4299C167.191 88.2559 162.604 88.2151 158.15 87.3099C154.87 86.5499 155.15 86.4199 152.85 86.9299C149.477 87.8873 145.916 87.9733 142.5 87.1799C140.5 86.7999 139.22 86.1799 137.83 86.9299L138.21 85.4099C138.71 83.5199 139.09 82.6299 139.21 82.1299C148.04 81.1299 151.32 78.9699 153.21 77.5899L153.46 77.4599C154.363 76.7556 155.466 76.3564 156.61 76.3199C156.99 76.3199 157.37 76.1999 158 76.1999C159.35 76.0442 160.687 75.7902 162 75.4399C163.64 75.4399 165.28 75.4399 167.05 75.5699C176.52 76.3199 181.82 77.8399 187.75 77.5699C193.68 77.2999 196.21 76.1799 199.87 76.8099C203.126 77.3717 206.417 77.7059 209.72 77.8099C209.9 78.1199 210.15 79.3799 207.25 79.7599Z" fill="#135781"/>
<path d="M115.99 230.35C179.149 230.35 230.35 179.149 230.35 115.99C230.35 52.8307 179.149 1.63 115.99 1.63C52.8307 1.63 1.63 52.8307 1.63 115.99C1.63 179.149 52.8307 230.35 115.99 230.35Z" stroke="#135781" stroke-width="2" stroke-miterlimit="10"/>
<path d="M64.49 217.35C63.9911 217.168 63.5226 216.912 63.1 216.59C61.9798 215.908 61.0993 214.894 60.58 213.69C60.07 212.69 60.2 212.69 58.94 212.69C57.6438 212.573 56.3967 212.136 55.31 211.42C54.0539 210.757 52.974 209.804 52.16 208.64C51.65 207.75 51.78 207.88 50.39 207.25C50.1437 207.132 49.9242 206.964 49.745 206.758C49.5659 206.552 49.4309 206.311 49.3485 206.05C49.266 205.79 49.2378 205.515 49.2656 205.244C49.2934 204.972 49.3765 204.708 49.51 204.47C49.89 203.97 50.64 204.22 52.03 204.73C53.42 205.24 54.18 205.23 56.7 205.36C58.5244 205.426 60.3497 205.254 62.13 204.85C63.52 204.6 63.9 203.59 65.03 201.7C66.16 199.81 66.42 199.05 68.82 189.58C71.22 180.11 75.64 173.58 78.16 171.02C80.68 168.46 80.69 168.5 82.96 164.46C85.23 160.42 86.24 158.02 88.26 151.08C90.0488 145.2 92.5508 139.562 95.71 134.29C96.34 133.29 96.71 132.4 97.1 131.77C97.1 131.64 97.1 131.51 97.22 131.51L97.6 130.76C97.6205 131.017 97.5758 131.275 97.47 131.51H98.74C98.8349 130.499 99.002 129.497 99.24 128.51C100.12 124.6 101.51 122.08 100.24 117.91C98.97 113.74 100.37 110.59 100.49 107.18C100.61 103.77 100.37 104.03 98.85 101.88C97.33 99.7301 95.32 89.5101 94.18 85.6001C93.04 81.6901 92.67 81.6001 92.67 81.6001C83.33 80.4601 80.3 78.1901 78.4 76.9301C76.5 75.6701 76.76 75.9301 73.4 75.4101C70.04 74.8901 66.64 74.0401 60.7 70.6701C56.0213 67.9143 51.5131 64.8788 47.2 61.5801H46.2C43.2 61.5801 40.52 61.0801 39.25 59.8201C37.98 58.5601 37.11 58.3001 36.48 58.3001H33.69C32.3 58.3001 31.29 57.5501 31.8 56.4101C32.18 55.6501 35.33 55.5301 36.97 55.5301H37.97C37.97 55.5301 36.58 54.5301 34.82 53.0001C33.06 51.4701 32.67 52.1201 30.15 50.6001C28.5 49.6001 28.25 48.8401 28.25 48.4601L25.25 46.9401C25 46.8201 24.62 46.6901 24.37 46.5601C14.3376 59.9454 7.36288 75.3682 3.93751 91.7414C0.512132 108.115 0.719428 125.04 4.54478 141.324C8.37014 157.609 15.7205 172.856 26.0777 185.992C36.435 199.127 49.5471 209.832 64.49 217.35V217.35ZM36.09 84.5601C34.32 83.6701 33.56 83.9301 32.93 84.1801C32.3 84.4301 31.54 84.6801 30.28 85.1801C29.02 85.6801 27.76 85.3101 27.88 84.0401C28 82.7701 33.44 81.0401 33.44 81.0401C33.44 81.0401 31.8 80.5401 29.65 79.7801C27.5 79.0201 27.25 79.7801 24.35 79.2801C21.45 78.7801 21.82 77.6401 21.82 77.6401C25.1234 77.5485 28.4156 77.2143 31.67 76.6401C35.33 76.0001 37.86 77.2701 43.79 77.5201C49.72 77.7701 55.02 76.2601 64.49 75.6301C66.26 75.5001 67.9 75.5001 69.49 75.5001C71 75.8801 72.27 76.1301 73.49 76.3801C73.9459 76.4824 74.413 76.5261 74.88 76.5101C76.77 76.7601 76.77 76.7601 78.03 77.6501L78.28 77.7701C80.28 79.0301 83.46 81.3101 92.28 82.4401C92.4 82.9501 92.78 83.8301 93.28 85.7201C93.4411 86.2175 93.5681 86.7253 93.66 87.2401C92.28 86.4801 91.14 87.1101 88.99 87.4901C85.5749 88.2887 82.0125 88.2027 78.64 87.2401C76.37 86.7301 76.75 86.8601 73.34 87.4901C69.93 88.1201 66.53 88.6301 59.84 87.6201C54.5096 86.6703 49.2403 85.4047 44.06 83.8301C40.88 84.6801 37.86 85.4401 36.09 84.5601Z" fill="#0F8793"/>
<path d="M107.91 63.98C108.04 64.49 108.29 64.74 108.54 64.74C108.79 64.74 108.79 64.61 108.92 64.49C108.92 64.87 109.05 65.25 109.05 65.49C109.3 67.76 109.55 68.77 110.81 70.16C112.81 72.16 114.22 73.06 116.12 73.06C118.02 73.06 119.27 72.3 121.29 70.28C122.55 69.02 122.81 67.89 123.06 65.61C123.06 65.36 123.18 64.98 123.18 64.61C123.31 64.74 123.44 64.87 123.56 64.87C123.68 64.87 124.07 64.61 124.19 64.11C124.374 63.1264 124.628 62.1573 124.95 61.21C125.46 59.57 125.08 59.06 124.83 58.93C124.779 58.8845 124.718 58.8503 124.653 58.8296C124.587 58.8089 124.518 58.8022 124.45 58.81C124.116 58.8214 123.799 58.9569 123.56 59.19C123.69 57.67 123.69 55.9 123.69 54.14C123.69 48.84 117.5 47.95 116.12 47.95C114.74 47.95 108.54 48.71 108.54 54.14C108.54 56.03 108.54 57.67 108.67 59.19C108.432 58.9552 108.114 58.8194 107.78 58.81C107.713 58.8017 107.646 58.8082 107.582 58.829C107.518 58.8497 107.459 58.8842 107.41 58.93C107.15 59.19 106.77 59.57 107.28 61.21C107.79 62.85 107.78 63.23 107.91 63.98ZM133.03 224.29C131.619 223.378 130.308 222.319 129.12 221.13C128.12 220.13 128.99 218.23 128.61 216.21C128.23 214.19 128.23 213.43 129.75 206.87C131.184 201.172 131.945 195.325 132.02 189.45C132.02 183.9 130.25 181.5 130.13 179.23C130.01 176.96 130.25 174.43 130.13 170.9C129.981 167.813 130.193 164.718 130.76 161.68C131.39 157.52 132.15 151.84 132.65 144.39C133.15 136.94 132.9 131.77 132.02 127.85C131.14 123.93 129.87 121.42 131.02 117.25C132.17 113.08 130.89 109.93 130.77 106.52C130.65 103.11 130.89 103.37 132.41 101.22C133.93 99.07 135.94 88.85 137.21 84.94C138.48 81.03 138.72 80.94 138.72 80.94C148.06 79.94 151.22 77.66 153.11 76.39C155 75.12 154.75 75.39 158.16 74.88C161.57 74.37 164.85 73.62 170.91 70.33C175.575 67.585 180.082 64.5802 184.41 61.33H185.41C188.41 61.33 191.09 60.83 192.41 59.57C193.73 58.31 194.5 58.04 195.13 58.04H197.91C199.3 58.04 200.31 57.28 199.8 56.15C199.42 55.39 196.27 55.26 194.63 55.26H193.63C193.63 55.26 195.02 54.26 196.78 52.74C198.54 51.22 199.06 51.86 201.58 50.47C204.1 49.08 203.47 47.94 203.47 47.94C200.334 48.9638 197.129 49.7658 193.88 50.34C190.22 50.97 188.2 53.12 182.77 55.26C177.34 57.4 171.77 57.91 162.7 60.57C157.232 62.1685 152.041 64.5968 147.31 67.77C145.654 67.5304 143.983 67.4034 142.31 67.39C132.47 67.39 128.81 72.44 127.67 72.44C126.79 72.44 124.67 70.8 123.25 69.66C122.962 70.1545 122.627 70.62 122.25 71.05C119.98 73.32 118.34 74.21 116.2 74.21C114.06 74.21 112.28 73.21 110.01 70.93C109.637 70.4963 109.303 70.0313 109.01 69.54C107.5 70.93 105.35 72.44 104.47 72.44C103.33 72.44 99.8 67.27 89.82 67.27C88.147 67.2841 86.4768 67.4077 84.82 67.64C80.0391 64.4487 74.8126 61.982 69.31 60.32C60.22 57.67 54.66 57.17 49.24 54.89C43.82 52.61 41.79 50.6 38.24 49.89C34.9883 49.271 31.7838 48.4256 28.65 47.36C28.65 47.36 28.02 48.36 30.54 49.89C33.06 51.42 33.45 50.64 35.21 52.28C36.97 53.92 38.37 54.81 38.37 54.81H37.31C35.67 54.81 32.51 54.93 32.14 55.69C31.63 56.83 32.64 57.59 34.03 57.59H36.81C37.44 57.59 38.19 57.59 39.58 59.1C40.84 60.36 43.5 60.87 46.58 60.87H47.58C51.9076 64.1533 56.4182 67.1882 61.09 69.96C67.02 73.24 70.43 74.12 73.71 74.63C76.99 75.14 76.87 74.88 78.71 76.14C80.55 77.4 83.71 79.68 92.98 80.81C92.98 80.81 93.35 80.81 94.49 84.81C95.63 88.81 97.65 98.95 99.16 101.09C100.67 103.23 100.93 103.09 100.8 106.4C100.67 109.71 99.29 112.96 100.55 117.12C101.81 121.28 100.42 123.81 99.55 127.73C98.68 131.65 98.41 136.82 98.92 144.26C99.209 150.053 99.7998 155.828 100.69 161.56C101.252 164.596 101.464 167.686 101.32 170.77C101.19 174.3 101.32 176.83 101.19 179.1C101.06 181.37 99.31 183.65 99.31 189.33C99.2798 195.201 99.9989 201.051 101.45 206.74C102.97 213.43 102.84 214.07 102.45 216.21C102.06 218.35 102.96 220.21 101.95 221.13C100.76 222.316 99.4494 223.375 98.04 224.29C96.04 225.55 94.88 226.06 95.13 226.81C95.38 227.56 97.13 228.33 99.3 228.96C99.9461 229.163 100.624 229.248 101.3 229.21C102.67 229.24 104.022 228.894 105.21 228.21C106.249 227.506 107.486 227.155 108.74 227.21C110.39 227.21 110.89 226.71 110.89 225.57C110.89 224.43 110.13 223.3 109.38 222.04C109.032 221.601 108.803 221.08 108.713 220.526C108.624 219.973 108.678 219.406 108.87 218.88C109.25 217.75 109.12 217.49 109 215.88C108.88 214.27 109.12 207.17 109.12 203.88C109.12 200.59 110.39 198.2 111.12 195.3C111.789 192.275 111.961 189.161 111.63 186.08C111.419 184.19 111.459 182.28 111.75 180.4C112.13 177.63 112.89 173.71 113.65 169.17C114.404 165.215 114.783 161.197 114.78 157.17C114.78 152.5 115.29 146.94 115.78 146.94C116.27 146.94 116.67 152.5 116.67 157.17C116.554 161.195 116.89 165.22 117.67 169.17C118.42 173.71 119.18 177.63 119.56 180.4C119.94 183.17 120.06 183.31 119.69 186.08C119.308 189.153 119.433 192.268 120.06 195.3C120.82 198.2 121.96 200.6 121.96 203.88C121.96 207.16 122.08 214.23 121.96 215.88C121.84 217.53 121.71 217.78 122.08 218.88C122.286 219.412 122.337 219.992 122.225 220.552C122.114 221.111 121.845 221.628 121.45 222.04C120.7 223.3 119.81 224.31 119.94 225.57C120.07 226.83 120.57 227.21 122.08 227.21C123.337 227.154 124.578 227.505 125.62 228.21C126.823 228.856 128.165 229.199 129.53 229.21C130.203 229.19 130.873 229.106 131.53 228.96C133.68 228.33 135.44 227.7 135.7 226.81C135.96 225.92 135.05 225.68 133.03 224.29ZM73.31 86.83C76.59 86.07 76.31 85.95 78.61 86.58C81.9823 87.5439 85.5451 87.63 88.96 86.83C90.96 86.45 92.24 85.83 93.63 86.58L93.31 85.04C92.8 83.15 92.43 82.27 92.31 81.76C83.47 80.63 80.19 78.48 78.31 77.09L78.06 76.96C77.1555 76.2535 76.0474 75.8573 74.9 75.83C74.52 75.83 74.14 75.7 73.51 75.7C72.1475 75.5598 70.8055 75.2645 69.51 74.82C68 74.82 66.23 74.82 64.51 74.94C55.05 75.58 49.74 77.09 43.81 76.84C37.88 76.59 35.35 75.45 31.69 75.95C28.4385 76.5211 25.1499 76.8553 21.85 76.95C21.85 76.95 21.6 78.09 24.37 78.6C27.14 79.11 27.37 78.34 29.67 79.1C31.97 79.86 33.31 80.39 33.31 80.39C33.31 80.39 27.88 82.16 27.76 83.39C27.64 84.62 28.89 84.91 30.16 84.53C31.43 84.15 32.16 83.77 32.81 83.53C33.46 83.29 34.19 83.15 35.96 83.91C37.73 84.67 40.76 84.16 44.04 82.77C49.2203 84.3446 54.4896 85.6102 59.82 86.56C66.64 87.97 70.04 87.59 73.31 86.83ZM210.13 77.83C206.83 77.7379 203.541 77.4037 200.29 76.83C196.63 76.2 194.1 77.46 188.17 77.59C182.24 77.72 176.94 76.2 167.47 75.59C165.7 75.46 164.06 75.46 162.42 75.46C161.107 75.8094 159.77 76.0634 158.42 76.22C157.963 76.3145 157.496 76.3548 157.03 76.34C155.877 76.3303 154.759 76.7348 153.88 77.48L153.62 77.61C151.62 78.87 148.32 81.14 139.62 82.15C139.5 82.65 139.12 83.54 138.62 85.43C138.468 85.9291 138.344 86.4367 138.25 86.95C139.63 86.19 140.77 86.82 142.92 87.2C146.336 87.9934 149.897 87.9074 153.27 86.95C155.54 86.44 155.16 86.57 158.57 87.33C161.98 88.09 165.38 88.46 172.07 87.45C177.392 86.5156 182.66 85.2939 187.85 83.79C191.01 85.05 194.16 85.79 195.93 84.93C197.7 84.07 198.46 84.3 199.09 84.55C199.72 84.8 200.47 85.05 201.74 85.55C203.01 86.05 204.26 85.67 204.14 84.55C204.02 83.43 198.58 81.55 198.58 81.55C198.58 81.55 200.22 81.04 202.37 80.29C204.52 79.54 204.77 80.29 207.67 79.78C210.41 79.04 210.15 77.87 210.15 77.87L210.13 77.83ZM97.43 144.39C97.0457 139.596 97.1328 134.777 97.69 130C97.18 131 96.69 132 95.79 133.66C92.6246 138.932 90.1128 144.571 88.31 150.45C86.31 157.39 85.31 159.79 83 163.83C80.69 167.87 80.73 167.83 78.21 170.39C75.69 172.95 71.27 179.61 68.87 188.95C66.47 198.29 66.31 199.17 65.12 201.04C63.93 202.91 63.61 203.82 62.22 204.2C60.4407 204.611 58.6146 204.782 56.79 204.71C54.26 204.58 53.51 204.58 52.12 204.07C50.73 203.56 49.97 203.32 49.59 203.82C49.4569 204.059 49.3742 204.323 49.3471 204.595C49.3201 204.867 49.3491 205.142 49.4325 205.403C49.516 205.663 49.652 205.904 49.8321 206.11C50.0123 206.316 50.2328 206.483 50.48 206.6C51.87 207.23 51.74 207.1 52.25 207.99C53.027 209.184 54.1165 210.142 55.4 210.76C56.4865 211.501 57.7488 211.942 59.06 212.04C60.2 212.16 60.06 212.16 60.7 213.04C61.2269 214.243 62.11 215.255 63.23 215.94C64.87 217.08 65.88 217.2 66.76 216.44C67.64 215.68 68.28 214.44 68.28 212.15C68.28 209.86 68.4 208.87 69.16 207.73C69.92 206.59 71.68 202.73 73.33 199.15C74.98 195.57 75.98 193.47 78.75 190.44C81.52 187.41 84.05 185.77 85.82 181.35C87.59 176.93 87.46 176.05 88.98 174.28C89.9762 173.156 90.7864 171.88 91.38 170.5C92.01 169.24 92.51 168.86 94.53 166.59C95.92 165.07 97.69 162.92 99.2 160.9C98.2138 155.446 97.6223 149.929 97.43 144.39V144.39ZM178.98 204.6C177.59 205.1 176.83 205.1 174.31 205.1C172.477 205.207 170.64 204.994 168.88 204.47C167.49 204.09 167.11 203.21 165.97 201.32C164.83 199.43 164.59 198.67 162.19 189.2C159.79 179.73 155.5 173.04 152.97 170.52C150.44 168 150.45 167.99 148.18 163.95C145.91 159.91 144.9 157.52 142.88 150.45C141.152 144.526 138.689 138.842 135.55 133.53C134.67 132.02 134.17 130.88 133.66 129.87C134.168 134.651 134.211 139.47 133.79 144.26C133.41 150.07 132.9 155.5 132.02 161.05C133.53 163.2 135.3 165.34 136.56 166.86C138.56 169.13 139.09 169.51 139.72 170.77C140.307 172.156 141.118 173.436 142.12 174.56C143.63 176.32 143.63 177.21 145.27 181.75C146.91 186.29 149.57 187.94 152.22 190.84C154.482 193.412 156.275 196.359 157.52 199.55C159.16 203.21 160.93 207.12 161.68 208.26C162.43 209.4 162.44 210.41 162.57 212.68C162.513 214.249 163.052 215.782 164.08 216.97C164.97 217.73 165.97 217.6 167.62 216.46C168.702 215.79 169.575 214.831 170.14 213.69C170.65 212.8 170.52 212.8 171.78 212.69C173.086 212.582 174.344 212.149 175.44 211.43C176.701 210.77 177.784 209.816 178.6 208.65C179.1 207.76 178.98 207.89 180.36 207.26C180.607 207.143 180.828 206.976 181.008 206.77C181.188 206.564 181.324 206.323 181.407 206.063C181.491 205.802 181.52 205.527 181.493 205.255C181.466 204.983 181.383 204.719 181.25 204.48C181.12 203.97 180.24 204.22 178.98 204.6V204.6Z" fill="white" stroke="#135781" stroke-width="1.5" stroke-miterlimit="10"/>
<path d="M107.91 63.98C108.04 64.49 108.29 64.74 108.54 64.74C108.79 64.74 108.79 64.61 108.92 64.49C108.92 64.87 109.05 65.25 109.05 65.49C109.3 67.76 109.55 68.77 110.81 70.16C112.81 72.16 114.22 73.06 116.12 73.06C118.02 73.06 119.27 72.3 121.29 70.28C122.55 69.02 122.81 67.89 123.06 65.61C123.06 65.36 123.18 64.98 123.18 64.61C123.31 64.74 123.44 64.87 123.56 64.87C123.68 64.87 124.07 64.61 124.19 64.11C124.374 63.1264 124.628 62.1573 124.95 61.21C125.46 59.57 125.08 59.06 124.83 58.93C124.779 58.8845 124.718 58.8503 124.653 58.8296C124.587 58.8089 124.518 58.8022 124.45 58.81C124.116 58.8214 123.799 58.9569 123.56 59.19C123.69 57.67 123.69 55.9 123.69 54.14C123.69 48.84 117.5 47.95 116.12 47.95C114.74 47.95 108.54 48.71 108.54 54.14C108.54 56.03 108.54 57.67 108.67 59.19C108.432 58.9552 108.114 58.8194 107.78 58.81C107.713 58.8017 107.646 58.8082 107.582 58.829C107.518 58.8497 107.459 58.8842 107.41 58.93C107.15 59.19 106.77 59.57 107.28 61.21C107.79 62.85 107.78 63.23 107.91 63.98ZM133.03 224.29C131.619 223.378 130.308 222.319 129.12 221.13C128.12 220.13 128.99 218.23 128.61 216.21C128.23 214.19 128.23 213.43 129.75 206.87C131.184 201.172 131.945 195.325 132.02 189.45C132.02 183.9 130.25 181.5 130.13 179.23C130.01 176.96 130.25 174.43 130.13 170.9C129.981 167.813 130.193 164.718 130.76 161.68C131.39 157.52 132.15 151.84 132.65 144.39C133.15 136.94 132.9 131.77 132.02 127.85C131.14 123.93 129.87 121.42 131.02 117.25C132.17 113.08 130.89 109.93 130.77 106.52C130.65 103.11 130.89 103.37 132.41 101.22C133.93 99.07 135.94 88.85 137.21 84.94C138.48 81.03 138.72 80.94 138.72 80.94C148.06 79.94 151.22 77.66 153.11 76.39C155 75.12 154.75 75.39 158.16 74.88C161.57 74.37 164.85 73.62 170.91 70.33C175.575 67.585 180.082 64.5802 184.41 61.33H185.41C188.41 61.33 191.09 60.83 192.41 59.57C193.73 58.31 194.5 58.04 195.13 58.04H197.91C199.3 58.04 200.31 57.28 199.8 56.15C199.42 55.39 196.27 55.26 194.63 55.26H193.63C193.63 55.26 195.02 54.26 196.78 52.74C198.54 51.22 199.06 51.86 201.58 50.47C204.1 49.08 203.47 47.94 203.47 47.94C200.334 48.9638 197.129 49.7658 193.88 50.34C190.22 50.97 188.2 53.12 182.77 55.26C177.34 57.4 171.77 57.91 162.7 60.57C157.232 62.1685 152.041 64.5968 147.31 67.77C145.654 67.5304 143.983 67.4034 142.31 67.39C132.47 67.39 128.81 72.44 127.67 72.44C126.79 72.44 124.67 70.8 123.25 69.66C122.962 70.1545 122.627 70.62 122.25 71.05C119.98 73.32 118.34 74.21 116.2 74.21C114.06 74.21 112.28 73.21 110.01 70.93C109.637 70.4963 109.303 70.0313 109.01 69.54C107.5 70.93 105.35 72.44 104.47 72.44C103.33 72.44 99.8 67.27 89.82 67.27C88.147 67.2841 86.4768 67.4077 84.82 67.64C80.0391 64.4487 74.8126 61.982 69.31 60.32C60.22 57.67 54.66 57.17 49.24 54.89C43.82 52.61 41.79 50.6 38.24 49.89C34.9883 49.271 31.7838 48.4256 28.65 47.36C28.65 47.36 28.02 48.36 30.54 49.89C33.06 51.42 33.45 50.64 35.21 52.28C36.97 53.92 38.37 54.81 38.37 54.81H37.31C35.67 54.81 32.51 54.93 32.14 55.69C31.63 56.83 32.64 57.59 34.03 57.59H36.81C37.44 57.59 38.19 57.59 39.58 59.1C40.84 60.36 43.5 60.87 46.58 60.87H47.58C51.9076 64.1533 56.4182 67.1882 61.09 69.96C67.02 73.24 70.43 74.12 73.71 74.63C76.99 75.14 76.87 74.88 78.71 76.14C80.55 77.4 83.71 79.68 92.98 80.81C92.98 80.81 93.35 80.81 94.49 84.81C95.63 88.81 97.65 98.95 99.16 101.09C100.67 103.23 100.93 103.09 100.8 106.4C100.67 109.71 99.29 112.96 100.55 117.12C101.81 121.28 100.42 123.81 99.55 127.73C98.68 131.65 98.41 136.82 98.92 144.26C99.209 150.053 99.7998 155.828 100.69 161.56C101.252 164.596 101.464 167.686 101.32 170.77C101.19 174.3 101.32 176.83 101.19 179.1C101.06 181.37 99.31 183.65 99.31 189.33C99.2798 195.201 99.9989 201.051 101.45 206.74C102.97 213.43 102.84 214.07 102.45 216.21C102.06 218.35 102.96 220.21 101.95 221.13C100.76 222.316 99.4494 223.375 98.04 224.29C96.04 225.55 94.88 226.06 95.13 226.81C95.38 227.56 97.13 228.33 99.3 228.96C99.9461 229.163 100.624 229.248 101.3 229.21C102.67 229.24 104.022 228.894 105.21 228.21C106.249 227.506 107.486 227.155 108.74 227.21C110.39 227.21 110.89 226.71 110.89 225.57C110.89 224.43 110.13 223.3 109.38 222.04C109.032 221.601 108.803 221.08 108.713 220.526C108.624 219.973 108.678 219.406 108.87 218.88C109.25 217.75 109.12 217.49 109 215.88C108.88 214.27 109.12 207.17 109.12 203.88C109.12 200.59 110.39 198.2 111.12 195.3C111.789 192.275 111.961 189.161 111.63 186.08C111.419 184.19 111.459 182.28 111.75 180.4C112.13 177.63 112.89 173.71 113.65 169.17C114.404 165.215 114.783 161.197 114.78 157.17C114.78 152.5 115.29 146.94 115.78 146.94C116.27 146.94 116.67 152.5 116.67 157.17C116.554 161.195 116.89 165.22 117.67 169.17C118.42 173.71 119.18 177.63 119.56 180.4C119.94 183.17 120.06 183.31 119.69 186.08C119.308 189.153 119.433 192.268 120.06 195.3C120.82 198.2 121.96 200.6 121.96 203.88C121.96 207.16 122.08 214.23 121.96 215.88C121.84 217.53 121.71 217.78 122.08 218.88C122.286 219.412 122.337 219.992 122.225 220.552C122.114 221.111 121.845 221.628 121.45 222.04C120.7 223.3 119.81 224.31 119.94 225.57C120.07 226.83 120.57 227.21 122.08 227.21C123.337 227.154 124.578 227.505 125.62 228.21C126.823 228.856 128.165 229.199 129.53 229.21C130.203 229.19 130.873 229.106 131.53 228.96C133.68 228.33 135.44 227.7 135.7 226.81C135.96 225.92 135.05 225.68 133.03 224.29ZM73.31 86.83C76.59 86.07 76.31 85.95 78.61 86.58C81.9823 87.5439 85.5451 87.63 88.96 86.83C90.96 86.45 92.24 85.83 93.63 86.58L93.31 85.04C92.8 83.15 92.43 82.27 92.31 81.76C83.47 80.63 80.19 78.48 78.31 77.09L78.06 76.96C77.1555 76.2535 76.0474 75.8573 74.9 75.83C74.52 75.83 74.14 75.7 73.51 75.7C72.1475 75.5598 70.8055 75.2645 69.51 74.82C68 74.82 66.23 74.82 64.51 74.94C55.05 75.58 49.74 77.09 43.81 76.84C37.88 76.59 35.35 75.45 31.69 75.95C28.4385 76.5211 25.1499 76.8553 21.85 76.95C21.85 76.95 21.6 78.09 24.37 78.6C27.14 79.11 27.37 78.34 29.67 79.1C31.97 79.86 33.31 80.39 33.31 80.39C33.31 80.39 27.88 82.16 27.76 83.39C27.64 84.62 28.89 84.91 30.16 84.53C31.43 84.15 32.16 83.77 32.81 83.53C33.46 83.29 34.19 83.15 35.96 83.91C37.73 84.67 40.76 84.16 44.04 82.77C49.2203 84.3446 54.4896 85.6102 59.82 86.56C66.64 87.97 70.04 87.59 73.31 86.83ZM210.13 77.83C206.83 77.7379 203.541 77.4037 200.29 76.83C196.63 76.2 194.1 77.46 188.17 77.59C182.24 77.72 176.94 76.2 167.47 75.59C165.7 75.46 164.06 75.46 162.42 75.46C161.107 75.8094 159.77 76.0634 158.42 76.22C157.963 76.3145 157.496 76.3548 157.03 76.34C155.877 76.3303 154.759 76.7348 153.88 77.48L153.62 77.61C151.62 78.87 148.32 81.14 139.62 82.15C139.5 82.65 139.12 83.54 138.62 85.43C138.468 85.9291 138.344 86.4367 138.25 86.95C139.63 86.19 140.77 86.82 142.92 87.2C146.336 87.9934 149.897 87.9074 153.27 86.95C155.54 86.44 155.16 86.57 158.57 87.33C161.98 88.09 165.38 88.46 172.07 87.45C177.392 86.5156 182.66 85.2939 187.85 83.79C191.01 85.05 194.16 85.79 195.93 84.93C197.7 84.07 198.46 84.3 199.09 84.55C199.72 84.8 200.47 85.05 201.74 85.55C203.01 86.05 204.26 85.67 204.14 84.55C204.02 83.43 198.58 81.55 198.58 81.55C198.58 81.55 200.22 81.04 202.37 80.29C204.52 79.54 204.77 80.29 207.67 79.78C210.41 79.04 210.15 77.87 210.15 77.87L210.13 77.83ZM97.43 144.39C97.0457 139.596 97.1328 134.777 97.69 130C97.18 131 96.69 132 95.79 133.66C92.6246 138.932 90.1128 144.571 88.31 150.45C86.31 157.39 85.31 159.79 83 163.83C80.69 167.87 80.73 167.83 78.21 170.39C75.69 172.95 71.27 179.61 68.87 188.95C66.47 198.29 66.31 199.17 65.12 201.04C63.93 202.91 63.61 203.82 62.22 204.2C60.4407 204.611 58.6146 204.782 56.79 204.71C54.26 204.58 53.51 204.58 52.12 204.07C50.73 203.56 49.97 203.32 49.59 203.82C49.4569 204.059 49.3742 204.323 49.3471 204.595C49.3201 204.867 49.3491 205.142 49.4325 205.403C49.516 205.663 49.652 205.904 49.8321 206.11C50.0123 206.316 50.2328 206.483 50.48 206.6C51.87 207.23 51.74 207.1 52.25 207.99C53.027 209.184 54.1165 210.142 55.4 210.76C56.4865 211.501 57.7488 211.942 59.06 212.04C60.2 212.16 60.06 212.16 60.7 213.04C61.2269 214.243 62.11 215.255 63.23 215.94C64.87 217.08 65.88 217.2 66.76 216.44C67.64 215.68 68.28 214.44 68.28 212.15C68.28 209.86 68.4 208.87 69.16 207.73C69.92 206.59 71.68 202.73 73.33 199.15C74.98 195.57 75.98 193.47 78.75 190.44C81.52 187.41 84.05 185.77 85.82 181.35C87.59 176.93 87.46 176.05 88.98 174.28C89.9762 173.156 90.7864 171.88 91.38 170.5C92.01 169.24 92.51 168.86 94.53 166.59C95.92 165.07 97.69 162.92 99.2 160.9C98.2138 155.446 97.6223 149.929 97.43 144.39V144.39ZM178.98 204.6C177.59 205.1 176.83 205.1 174.31 205.1C172.477 205.207 170.64 204.994 168.88 204.47C167.49 204.09 167.11 203.21 165.97 201.32C164.83 199.43 164.59 198.67 162.19 189.2C159.79 179.73 155.5 173.04 152.97 170.52C150.44 168 150.45 167.99 148.18 163.95C145.91 159.91 144.9 157.52 142.88 150.45C141.152 144.526 138.689 138.842 135.55 133.53C134.67 132.02 134.17 130.88 133.66 129.87C134.168 134.651 134.211 139.47 133.79 144.26C133.41 150.07 132.9 155.5 132.02 161.05C133.53 163.2 135.3 165.34 136.56 166.86C138.56 169.13 139.09 169.51 139.72 170.77C140.307 172.156 141.118 173.436 142.12 174.56C143.63 176.32 143.63 177.21 145.27 181.75C146.91 186.29 149.57 187.94 152.22 190.84C154.482 193.412 156.275 196.359 157.52 199.55C159.16 203.21 160.93 207.12 161.68 208.26C162.43 209.4 162.44 210.41 162.57 212.68C162.513 214.249 163.052 215.782 164.08 216.97C164.97 217.73 165.97 217.6 167.62 216.46C168.702 215.79 169.575 214.831 170.14 213.69C170.65 212.8 170.52 212.8 171.78 212.69C173.086 212.582 174.344 212.149 175.44 211.43C176.701 210.77 177.784 209.816 178.6 208.65C179.1 207.76 178.98 207.89 180.36 207.26C180.607 207.143 180.828 206.976 181.008 206.77C181.188 206.564 181.324 206.323 181.407 206.063C181.491 205.802 181.52 205.527 181.493 205.255C181.466 204.983 181.383 204.719 181.25 204.48C181.12 203.97 180.24 204.22 178.98 204.6V204.6Z" fill="white" stroke="white" stroke-width="1.5" stroke-miterlimit="10"/>
<path d="M115.99 230.48C179.221 230.48 230.48 179.221 230.48 115.99C230.48 52.7589 179.221 1.5 115.99 1.5C52.7589 1.5 1.5 52.7589 1.5 115.99C1.5 179.221 52.7589 230.48 115.99 230.48Z" stroke="white" stroke-width="3" stroke-miterlimit="10"/>
</g>
<defs>
<clipPath id="clip0_106_4">
<rect width="812.36" height="234.82" fill="white"/>
</clipPath>
</defs>
</svg>
