<?xml version="1.0" encoding="UTF-8"?>
<svg width="700pt" height="700pt" version="1.1" viewBox="0 0 700 200" xmlns="http://www.w3.org/2000/svg">
 <g>
  <path fill="#005aa7" d="m507.97 273.02c1.0312-5.3555 1.5742-10.746 1.5742-16.188 0-47.844-38.973-86.781-86.816-86.781-14.961 0-29.262 3.7266-42.035 10.867-17.973-40.637-57.977-67.059-103.43-67.059-62.441 0-113.24 50.785-113.24 113.24 0 10.254 1.3984 20.406 4.1992 30.344-32.988 17.133-53.797 50.926-53.797 88.656 0 55.16 44.871 100.05 100.01 100.05h284.34c47.844 0 86.781-38.953 86.781-86.816 0.003906-44.73-34.031-81.707-77.59-86.312zm-9.1875 151.61h-284.34c-43.277 0-78.504-35.227-78.504-78.504 0-32.305 19.441-60.898 49.488-72.887 5.4766-2.1719 8.1719-8.3125 6.0898-13.789-3.9727-10.5-5.9492-21.387-5.9492-32.34 0-50.574 41.125-91.719 91.699-91.719 40.738 0 76.02 26.199 87.781 65.188 1.0664 3.3945 3.6914 6.1094 7.1055 7.1562 3.4141 1.0508 7.1406 0.36719 9.9062-1.8711 11.691-9.3281 25.742-14.246 40.672-14.246 35.996 0 65.273 29.277 65.273 65.258 0 7.7188-1.4336 15.453-4.2344 22.941-1.2617 3.3789-0.75391 7.2109 1.3984 10.148 2.1875 2.9414 5.9141 4.5859 9.293 4.375l1.3633-0.10547c0.96094-0.070312 1.9414-0.14062 2.9414-0.14062 35.996 0 65.258 29.297 65.258 65.273-0.003906 35.984-29.246 65.262-65.242 65.262z"/>
  <path fill="#005aa7" d="m356.16 247.57c-3.5156-4.5664-8.6445-7.1914-14.121-7.1914h-0.035156c-5.4414 0-10.586 2.625-14.086 7.2109l-49.84 64.836c-3.6562 4.707-2.7305 11.445 1.9414 15.066 1.9766 1.5039 4.2695 2.2383 6.5625 2.2383 3.2188 0 6.4219-1.4531 8.5391-4.1992l36.121-47.023v117.95c0 5.9492 4.8125 10.762 10.762 10.762 5.9492 0 10.762-4.8125 10.762-10.762v-117.95l36.121 47.023c3.6211 4.707 10.395 5.6172 15.102 1.9609 4.6914-3.6211 5.6016-10.379 1.9414-15.066z"/>
 </g>
</svg>
