<?xml version="1.0" encoding="utf-8"?>
<!-- Generator: Adobe Illustrator 24.3.0, SVG Export Plug-In . SVG Version: 6.00 Build 0)  -->
<svg version="1.1" id="Layer_1" xmlns="http://www.w3.org/2000/svg" xmlns:xlink="http://www.w3.org/1999/xlink" x="0px" y="0px"
	 width="1048.7px" height="705.7px" viewBox="0 0 1048.7 705.7" style="enable-background:new 0 0 1048.7 705.7;"
	 xml:space="preserve">
<style type="text/css">
	.st0{fill-rule:evenodd;clip-rule:evenodd;fill:#53A7B6;}
	.st1{fill-rule:evenodd;clip-rule:evenodd;fill:#63B6C5;}
	.st2{fill-rule:evenodd;clip-rule:evenodd;fill:#348C9B;}
	.st3{fill-rule:evenodd;clip-rule:evenodd;fill:#6FC1D0;}
	.st4{fill-rule:evenodd;clip-rule:evenodd;fill:#81D4E3;}
	.st5{clip-path:url(#SVGID_2_);}
	.st6{fill-rule:evenodd;clip-rule:evenodd;fill:#FFFFFF;}
	.st7{fill-rule:evenodd;clip-rule:evenodd;fill:#72C4D3;}
	.st8{clip-path:url(#SVGID_4_);}
	.st9{fill:#FFFDE4;}
	.st10{fill-rule:evenodd;clip-rule:evenodd;fill:#03306B;}
	.st11{fill:#A7BCE1;}
	.st12{fill-rule:evenodd;clip-rule:evenodd;fill:#305495;}
	.st13{fill-rule:evenodd;clip-rule:evenodd;fill:#06316D;}
	.st14{fill-rule:evenodd;clip-rule:evenodd;fill:#F1F2F2;}
	.st15{clip-path:url(#SVGID_6_);}
	.st16{fill-rule:evenodd;clip-rule:evenodd;fill:#D0D1D1;}
	.st17{fill-rule:evenodd;clip-rule:evenodd;fill:#A7BCE1;}
	.st18{fill-rule:evenodd;clip-rule:evenodd;fill:#475D7D;}
	.st19{clip-path:url(#SVGID_8_);}
	.st20{fill-rule:evenodd;clip-rule:evenodd;fill:#F0F1F1;}
	.st21{clip-path:url(#SVGID_10_);}
	.st22{clip-path:url(#SVGID_12_);}
	.st23{fill-rule:evenodd;clip-rule:evenodd;fill:#F0F2F2;}
	.st24{clip-path:url(#SVGID_14_);}
	.st25{fill:#FFCCC8;}
	.st26{clip-path:url(#SVGID_16_);}
	.st27{fill-rule:evenodd;clip-rule:evenodd;fill-opacity:0.25;}
	.st28{clip-path:url(#SVGID_18_);}
	.st29{fill-rule:evenodd;clip-rule:evenodd;fill:#8095B8;}
	.st30{fill-rule:evenodd;clip-rule:evenodd;fill:#03235C;}
	.st31{clip-path:url(#SVGID_20_);}
	.st32{clip-path:url(#SVGID_22_);}
	.st33{fill-rule:evenodd;clip-rule:evenodd;fill:#FFCCC8;}
	.st34{clip-path:url(#SVGID_24_);}
	.st35{fill-rule:evenodd;clip-rule:evenodd;fill:#FFFDE4;}
	.st36{clip-path:url(#SVGID_26_);}
	.st37{fill-rule:evenodd;clip-rule:evenodd;fill:#D9D9D9;}
	.st38{clip-path:url(#SVGID_28_);}
	.st39{fill-rule:evenodd;clip-rule:evenodd;fill:#B0B0B0;}
	.st40{clip-path:url(#SVGID_30_);}
	.st41{clip-path:url(#SVGID_32_);}
	.st42{fill-rule:evenodd;clip-rule:evenodd;}
	.st43{clip-path:url(#SVGID_34_);}
	.st44{fill-rule:evenodd;clip-rule:evenodd;fill:#234E8F;}
	.st45{clip-path:url(#SVGID_36_);}
	.st46{clip-path:url(#SVGID_38_);}
	.st47{clip-path:url(#SVGID_40_);}
	.st48{clip-path:url(#SVGID_42_);}
	.st49{fill:#F0F1F2;}
	.st50{fill:#3C5D99;}
	.st51{fill:#DBDBA7;}
	.st52{fill:#96D2F3;}
	.st53{fill:#FFFFFF;}
	.st54{fill:#305495;}
	.st55{fill:#011A52;}
	.st56{fill:#93C5E5;}
	.st57{clip-path:url(#SVGID_44_);}
	.st58{fill:none;}
	.st59{clip-path:url(#SVGID_46_);}
	.st60{clip-path:url(#SVGID_48_);}
	.st61{fill-rule:evenodd;clip-rule:evenodd;fill:#010001;fill-opacity:0.25;}
	.st62{fill-rule:evenodd;clip-rule:evenodd;fill:#00154B;}
	.st63{fill-rule:evenodd;clip-rule:evenodd;fill:#6781B0;}
	.st64{clip-path:url(#SVGID_50_);}
	.st65{clip-path:url(#SVGID_52_);}
	.st66{fill-rule:evenodd;clip-rule:evenodd;fill:#7F98C8;}
	.st67{clip-path:url(#SVGID_54_);}
	.st68{clip-path:url(#SVGID_56_);}
	.st69{clip-path:url(#SVGID_58_);}
	.st70{fill-rule:evenodd;clip-rule:evenodd;fill:#32558B;}
	.st71{clip-path:url(#SVGID_60_);}
	.st72{fill-rule:evenodd;clip-rule:evenodd;fill:#0C2642;}
	.st73{clip-path:url(#SVGID_62_);}
	.st74{fill-rule:evenodd;clip-rule:evenodd;fill:#FFFDE4;fill-opacity:0.57;}
	.st75{fill-opacity:0.25;}
	.st76{fill:#3E5474;}
	.st77{fill-rule:evenodd;clip-rule:evenodd;fill:#5875AE;}
	.st78{clip-path:url(#SVGID_64_);}
	.st79{clip-path:url(#SVGID_66_);}
	.st80{fill-rule:evenodd;clip-rule:evenodd;fill:#0C2B60;}
	.st81{clip-path:url(#SVGID_68_);}
	.st82{fill-rule:evenodd;clip-rule:evenodd;fill:#0A295E;}
	.st83{clip-path:url(#SVGID_70_);}
	.st84{clip-path:url(#SVGID_72_);}
	.st85{clip-path:url(#SVGID_74_);}
	.st86{clip-path:url(#SVGID_76_);}
	.st87{clip-path:url(#SVGID_78_);}
	.st88{fill-rule:evenodd;clip-rule:evenodd;fill:#011A52;}
	.st89{fill-rule:evenodd;clip-rule:evenodd;fill:#875B59;}
	.st90{clip-path:url(#SVGID_80_);}
	.st91{clip-path:url(#SVGID_82_);}
	.st92{clip-path:url(#SVGID_84_);}
	.st93{fill-rule:evenodd;clip-rule:evenodd;fill:#ADC8FF;}
	.st94{clip-path:url(#SVGID_86_);}
	.st95{clip-path:url(#SVGID_88_);}
	.st96{clip-path:url(#SVGID_90_);}
	.st97{fill-rule:evenodd;clip-rule:evenodd;fill:#6E4443;}
	.st98{clip-path:url(#SVGID_92_);}
	.st99{clip-path:url(#SVGID_94_);}
	.st100{clip-path:url(#SVGID_96_);}
	.st101{fill-rule:evenodd;clip-rule:evenodd;fill:#10346B;}
	.st102{fill-rule:evenodd;clip-rule:evenodd;fill:#092559;}
	.st103{clip-path:url(#SVGID_98_);}
	.st104{clip-path:url(#SVGID_100_);}
	.st105{clip-path:url(#SVGID_102_);}
	.st106{clip-path:url(#SVGID_104_);}
	.st107{clip-path:url(#SVGID_106_);}
	.st108{fill:#D2D1B9;}
</style>
<g>
	<g>
		<path class="st0" d="M429.7,492.3c-2.3-1.9-2.3-7.7,0.3-13.7c2.8-6.6,7.6-10.9,10.7-9.7c3.1,1.2,3.3,7.5,0.4,14.1
			c-2.4,5.6-6.3,9.6-9.3,9.9c-1.7,3.1-3.7,6.1-5.8,8.9c2.5-0.5,6-0.2,9.7,1c6.2,2,10.4,5.7,9.5,8.4c-0.9,2.6-6.7,3.2-12.9,1.2
			c-4.9-1.6-8.6-4.3-9.4-6.6c-4.7,5.4-9.8,10.4-15.4,14.8c3.2-0.3,8.1,2.2,12.4,6.5c5.5,5.5,7.8,11.8,5.3,14.1
			c-2.6,2.3-9.1-0.2-14.5-5.6c-4.6-4.6-7-9.7-6.1-12.7c-9,6.8-18.8,12.8-28.7,18.9c-1.4,0.9-2.8,1.7-4.1,2.6c3-0.6,7.4-0.1,12,1.6
			c7.4,2.7,12.3,7.5,11,10.7c-1.3,3.2-8.3,3.5-15.6,0.8s-12.3-7.5-11-10.7c0,0,0-0.1,0-0.1c-7.9,4.8-15.4,10.1-22.7,15.8
			c2.5-0.1,5,0.3,7.4,1c6.3,1.9,10.6,6,9.6,9c-1,3-7,3.9-13.3,1.9c-5-1.5-8.7-4.3-9.6-6.9c-6.5,5.8-12.3,12.5-17.1,19.8
			c2.3-0.9,6-1.1,9.9-0.3c6.4,1.2,11.1,4.4,10.5,7.1c-0.6,2.7-6.2,4-12.5,2.8c-5.2-1-9.3-3.3-10.3-5.6c-2.5,4.3-4.6,8.9-6.4,13.6
			c-0.2,0.6-0.8,0.8-1.4,0.6c-0.6-0.2-0.9-0.8-0.7-1.3c0,0,0,0,0,0c1.7-4.6,3.8-9.1,6.3-13.4c-2.5-0.8-5.2-4.3-6.9-8.9
			c-2.1-5.9-1.6-11.4,1.1-12.3c2.7-0.9,6.7,3.1,8.8,9c0.6,1.7,1.1,3.6,1.3,5.4c4.8-6.8,10.4-13.1,16.7-18.6c-2.7-1-5.1-5.3-5.7-10.7
			c-0.7-6.3,1.4-11.7,4.7-12c3.3-0.3,6.5,4.6,7.1,10.9c0.3,2.3,0.1,4.7-0.5,7c6.5-5.2,13.4-9.9,20.4-14.4c-2.9-1.3-5.6-6.2-6.6-12.2
			c-1.3-7.5,0.6-14,4-14.5s7.4,5.1,8.6,12.5c0.7,3.5,0.5,7.2-0.5,10.7c1.4-0.9,2.7-1.7,4.1-2.5c10-6.2,20-12.2,29-19.1
			c-2.6-1-5.5-5-7-10.3c-1.9-6.5-0.9-12.5,2.1-13.3c3-0.8,7,3.9,8.9,10.4c1,3,1.2,6.3,0.7,9.4c4.9-4,9.4-8.5,13.5-13.3
			c-2.2-0.2-5-3-6.6-7c-1.9-4.6-1.5-9.1,0.9-10s5.8,2.2,7.6,6.9c0.8,2,1.2,4.1,1.2,6.2C426.5,497.5,428.2,494.9,429.7,492.3z"/>
		<path class="st1" d="M382.7,466.4c-2.4-1-4-5.8-3.5-11.4c0.5-6.2,3.3-11,6.2-10.8c2.9,0.2,4.7,5.4,4.2,11.6
			c-0.5,5.3-2.6,9.6-4.9,10.6c-0.6,3-1.4,6-2.4,8.9c2.6-1.2,5.4-1.8,8.2-1.7c5.6,0.1,10.2,2.1,10.1,4.6s-4.7,4.3-10.3,4.3
			c-4.5-0.1-8.2-1.4-9.6-3.1c-2.4,5.7-5.3,11.1-8.7,16.2c2.5-1,7.3-0.2,12,2.2c6,3.1,9.7,7.8,8.2,10.4c-1.5,2.6-7.5,2.1-13.5-1
			c-5-2.6-8.4-6.3-8.5-9c-5.6,7.9-12,15.4-18.5,23c-0.9,1.1-1.8,2.1-2.7,3.2c2.3-1.3,6.1-2,10.3-1.7c6.8,0.4,12.2,3.1,12,6.1
			c-0.2,2.9-5.9,5-12.7,4.6s-12.2-3.1-12-6.1c0,0,0-0.1,0-0.1c-5.2,6-10,12.3-14.4,18.9c2.1-0.7,4.2-1.1,6.4-1
			c5.7,0,10.4,2.3,10.4,5c0,2.7-4.7,5-10.4,5c-4.5,0-8.3-1.4-9.8-3.3c-3.8,6.5-6.7,13.5-8.7,20.8c1.7-1.3,4.6-2.4,8.1-2.8
			c5.6-0.6,10.3,0.8,10.6,3.3c0.3,2.4-4,4.9-9.6,5.5c-4.5,0.5-8.5-0.4-10-2c-0.9,4.3-1.4,8.6-1.6,12.9c0,0.5-0.5,0.9-1,0.9
			c-0.5,0-0.9-0.4-0.9-1c0.2-4.3,0.7-8.6,1.5-12.8c-2.3-0.1-5.5-2.2-8.1-5.6c-3.4-4.3-4.4-9-2.4-10.5s6.4,0.9,9.7,5.2
			c1,1.3,1.8,2.7,2.5,4.2c2.1-6.9,5-13.5,8.7-19.7c-2.5-0.1-5.6-3.1-7.6-7.4c-2.3-5.1-2-10.1,0.6-11.2c2.6-1.1,6.6,2.1,8.8,7.2
			c0.9,1.9,1.4,3.9,1.5,5.9c4-5.9,8.3-11.7,12.9-17.1c-2.7-0.4-6.3-3.7-8.8-8.5c-3.1-5.9-3.3-11.7-0.6-13.1
			c2.7-1.3,7.4,2.4,10.5,8.2c1.5,2.8,2.4,5.8,2.5,9c0.9-1.1,1.8-2.1,2.7-3.2c6.6-7.7,13.1-15.2,18.7-23.3c-2.4-0.1-5.9-2.8-8.6-6.7
			c-3.3-4.9-4.2-10.1-1.9-11.6c2.3-1.4,6.8,1.4,10.2,6.4c1.6,2.3,2.7,4.9,3.1,7.7c2.9-4.6,5.5-9.5,7.5-14.5
			c-1.9,0.4-4.9-1.2-7.3-4.1c-2.8-3.4-3.7-7.2-2-8.5s5.4,0.4,8.2,3.8c1.2,1.4,2.1,3.1,2.6,4.8C381.5,471.5,382.2,468.9,382.7,466.4z
			"/>
		<path class="st2" d="M446,555.6c-1.2-2.7,1.6-7.8,6.8-12c5.6-4.6,12-6.4,14.1-4c2.2,2.4-0.7,8.1-6.3,12.7c-4.8,4-10.2,5.8-13,4.8
			c-3,2-6.2,3.8-9.5,5.4c2.4,0.6,5.4,2.4,8.2,5.1c4.5,4.5,6.6,9.7,4.5,11.6c-2.1,1.9-7.5-0.1-12-4.6c-3.6-3.5-5.6-7.5-5.3-10
			c-6.7,2.8-13.7,4.9-20.8,6.4c2.9,1.1,6.2,5.5,8,11.2c2.3,7.2,1.3,13.9-2,14.9s-8-4.1-10.2-11.4c-1.9-6-1.6-11.7,0.6-13.9
			c-11.2,2.1-22.9,3.2-34.6,4.3c-1.6,0.2-3.3,0.3-4.9,0.5c3,0.8,6.7,3.2,9.9,6.7c5.2,5.6,7.4,12.1,4.7,14.3c-2.6,2.3-9-0.5-14.3-6.2
			c-5.2-5.6-7.4-12.1-4.7-14.3c0,0,0.1-0.1,0.1-0.1c-9.3,0.9-18.6,2.3-27.7,4.2c2.3,1,4.3,2.4,6.1,4.1c4.7,4.5,6.6,9.9,4.3,12.2
			c-2.3,2.2-8,0.4-12.7-4.1c-3.7-3.5-5.7-7.6-5.2-10.3c-8.6,2.4-16.9,5.8-24.7,10.2c2.5,0.2,5.8,1.7,9,4c5.1,3.8,7.8,8.7,6,10.9
			c-1.8,2.2-7.4,0.8-12.5-3c-4.1-3.1-6.7-7-6.5-9.5c-4.3,2.8-8.4,5.9-12.1,9.3c-0.5,0.4-1.1,0.4-1.6,0c-0.4-0.4-0.4-1,0-1.4
			c0,0,0,0,0,0c3.7-3.4,7.7-6.5,12-9.2c-1.8-1.8-2.6-6.1-1.9-10.9c0.9-6.1,4-10.8,6.8-10.4s4.5,5.7,3.6,11.8
			c-0.3,1.8-0.7,3.6-1.5,5.3c7.5-4,15.5-7.1,23.7-9.3c-1.9-2.1-2-7,0-12c2.4-5.9,6.9-9.8,9.9-8.6c3.1,1.2,3.6,6.9,1.2,12.8
			c-0.9,2.2-2.1,4.2-3.7,6c8.3-1.7,16.6-3,25-3.9c-1.9-2.4-2-7.9-0.1-13.7c2.4-7.2,7.1-12.2,10.5-11.1c3.4,1,4.1,7.7,1.7,14.9
			c-1.1,3.5-3,6.7-5.5,9.3c1.6-0.2,3.2-0.3,4.9-0.5c11.8-1.1,23.6-2.2,34.9-4.4c-1.9-2-2.5-6.9-1.4-12.2c1.4-6.6,5.1-11.5,8.2-10.9
			c3.1,0.6,4.4,6.5,3,13.1c-0.6,3.2-1.9,6.1-3.9,8.7c6.3-1.4,12.4-3.5,18.4-6c-1.9-1.1-3-4.8-2.5-9.1c0.5-4.9,3-8.8,5.5-8.5
			c2.5,0.3,4.1,4.5,3.5,9.4c-0.2,2.1-0.9,4.2-1.9,6C440.7,558.8,443.4,557.2,446,555.6z"/>
		<path class="st3" d="M449.5,629.5c24.2-14.6,17.5-51-8.5-39.1c-16.8,7.7-21.9-29.6-30.5-15.2c-2.2-9.8-10.6-20.9-17.7-26
			c-6.4-4.7-12.6-0.1-13.8,8.1c-0.4,3.2-0.5,6.3-0.4,9.5c-3.2-7.9-11.8-14.2-18.3-17.4c-3.4-1.7-8.4-1.4-9.7,3.5
			c-1,3.8,0.2,7.9,1.3,11.4c2.7,8.6,7.9,15.2,12,22.7c-1.9-4.6-6.5-8.3-9.7-11.5c-8.7-8.4-18.4-17.2-29.4-21c-2-0.8-4.1-1.3-6.3-1.4
			c-1.3-0.1-2.7,0-4,0.4c-9.4,2.5-3.7,16-0.2,21.7c2.8,4.6,6.3,8.6,9.4,13c-8.5-8.2-22.9-14.1-33.8-13.4
			c-5.5,0.4-14.4,4.3-11.5,12.7c2.3,6.7,8.6,11.1,13.7,14.4c8.3,5.3,17.3,9.5,24.9,16.2c-13.8-4.2-29-6.6-43-2.6
			c-7.2,2.1-13.2,4.7-12.7,14.4L449.5,629.5z"/>
		<path class="st4" d="M276.8,629.6c-4.2-1.6-7.5-9.3-9.2-12.2c-1.2-2.1-2.4-4.2-3.4-6.3c-4.4-8.9-5.7-25.9,10.6-29.1
			c15.1-2.9,28.1,10.8,35.4,18.5c1.9-5.2,9.1-11.2,15.1-13.9c5.5-2.5,10.8-0.1,11.8,4.3c0.3,1.7,0.4,3.4,0.3,5.1
			c2.7-4.2,10.1-7.6,15.7-9.3c2.9-0.9,7.2-0.8,8.3,1.9c0.8,2-0.2,4.2-1.1,6.1c-2.3,4.6-6.8,8.1-10.3,12.2c1.6-2.4,5.5-4.5,8.3-6.1
			c7.5-4.5,15.7-9.2,25.1-11.3c1.8-0.4,3.6-0.7,5.4-0.8c1.1-0.1,2.3,0,3.4,0.2c8.1,1.3,3.2,8.5,0.2,11.6c-2.4,2.5-5.4,4.6-8.1,7
			c7.3-4.4,19.6-7.6,28.9-7.2c4.7,0.2,12.4,2.3,9.9,6.8c-2,3.6-7.3,6-11.8,7.7c-7.1,2.8-14.8,5.1-21.3,8.7
			c11.8-2.3,24.8-3.5,36.8-1.4c6.1,1.1,11.3,2.5,10.9,7.7L276.8,629.6z"/>
	</g>
	<rect x="158.8" y="630.1" class="st9" width="746.1" height="5.1"/>
	<g>
		<g>
			<path class="st62" d="M847.1,72.5c0-5-1.9-9.7-5.4-13.2c-3.5-3.5-8.2-5.5-13.1-5.5H386.3c-4.9,0-25.6,10.5-29,14
				c-3.5,3.5,10.5-0.2,10.5,4.8v284c0,5,2,9.7,5.4,13.2c3.5,3.5,8.2,5.5,13.1,5.5c76.4,0,358.9,0.1,435.2,0.1
				c4.9,0-4.4,13.2-0.9,9.7c3.5-3.5,26.7-10.9,26.5-28.4C848.9,299.6,847.1,129.3,847.1,72.5z"/>
			<path class="st12" d="M830.8,84.2c0-10.3-8.4-18.7-18.7-18.7H366.1c-10.3,0-18.7,8.4-18.7,18.7v284c0,10.3,8.4,18.7,18.7,18.7
				c0,0,0,0,0,0h445.9c10.3,0,18.7-8.4,18.7-18.7c0,0,0,0,0,0V84.2z"/>
			<rect x="347.4" y="86.6" class="st9" width="483.4" height="279.1"/>
		</g>
		<g>
			<path class="st63" d="M502.2,124.6c0-5.3-4.3-9.7-9.7-9.7c0,0,0,0,0,0h-97.9c-5.3,0-9.7,4.3-9.7,9.7c0,0,0,0,0,0v133.4
				c0,5.3,4.3,9.7,9.7,9.7h97.9c5.3,0,9.7-4.3,9.7-9.7V124.6z"/>
			<path class="st17" d="M630.2,125.7c0-5.2-4.2-9.3-9.4-9.3h-65.4c-5.2,0-9.3,4.2-9.4,9.3v0.1c0,5.2,4.2,9.3,9.4,9.3h65.4
				c5.2,0,9.3-4.2,9.4-9.3L630.2,125.7z"/>
			<path class="st17" d="M676.1,172.4c0-2.9-2.4-5.3-5.3-5.3H551.4c-2.9,0-5.3,2.4-5.3,5.3v0.1c0,2.9,2.4,5.3,5.3,5.3h119.4
				C673.8,177.7,676.1,175.4,676.1,172.4L676.1,172.4z"/>
			<path class="st17" d="M794.3,194.6c0-2.9-2.4-5.3-5.3-5.3H551.4c-2.9,0-5.3,2.4-5.3,5.3v0.1c0,2.9,2.4,5.3,5.3,5.3H789
				C791.9,200,794.3,197.7,794.3,194.6L794.3,194.6z"/>
			<g>
				<path class="st17" d="M458.6,296.5c0-2.1-1.7-3.8-3.8-3.8l0,0h-62.3c-2.1,0-3.8,1.7-3.8,3.8v0.1c0,2.1,1.7,3.8,3.8,3.8h62.3
					C456.9,300.4,458.6,298.7,458.6,296.5C458.6,296.6,458.6,296.6,458.6,296.5L458.6,296.5z"/>
				<path class="st17" d="M458.6,312.6c0-2.1-1.7-3.8-3.8-3.8l0,0h-62.3c-2.1,0-3.8,1.7-3.8,3.8v0.1c0,2.1,1.7,3.8,3.8,3.8h62.3
					C456.9,316.5,458.6,314.8,458.6,312.6C458.6,312.7,458.6,312.7,458.6,312.6L458.6,312.6z"/>
				<path class="st17" d="M458.6,328.7c0-2.1-1.7-3.8-3.8-3.8l0,0h-62.3c-2.1,0-3.8,1.7-3.8,3.8v0.1c0,2.1,1.7,3.8,3.8,3.8h62.3
					C456.9,332.6,458.6,330.9,458.6,328.7C458.6,328.8,458.6,328.8,458.6,328.7L458.6,328.7z"/>
				<path class="st17" d="M440.8,344.8c0-2.1-1.7-3.8-3.8-3.8c0,0,0,0,0,0h-44.5c-2.1,0-3.8,1.7-3.8,3.8v0.1c0,2.1,1.7,3.8,3.8,3.8
					H437C439.1,348.7,440.8,347,440.8,344.8L440.8,344.8L440.8,344.8z"/>
			</g>
			<g>
				<path class="st17" d="M616.1,293.4c0-2.1-1.7-3.8-3.8-3.8c0,0,0,0,0,0h-62.3c-2.1,0-3.8,1.7-3.8,3.8v0.1c0,2.1,1.7,3.8,3.8,3.8
					h62.3C614.3,297.3,616,295.6,616.1,293.4C616.1,293.4,616.1,293.4,616.1,293.4L616.1,293.4z"/>
				<path class="st17" d="M616.1,309.5c0-2.1-1.7-3.8-3.8-3.8c0,0,0,0,0,0h-62.3c-2.1,0-3.8,1.7-3.8,3.8v0.1c0,2.1,1.7,3.8,3.8,3.8
					h62.3C614.3,313.3,616,311.6,616.1,309.5C616.1,309.5,616.1,309.5,616.1,309.5L616.1,309.5z"/>
				<path class="st17" d="M616.1,325.6c0-2.1-1.7-3.8-3.8-3.8c0,0,0,0,0,0h-62.3c-2.1,0-3.8,1.7-3.8,3.8v0.1c0,2.1,1.7,3.8,3.8,3.8
					h62.3C614.3,329.4,616,327.7,616.1,325.6C616.1,325.6,616.1,325.6,616.1,325.6L616.1,325.6z"/>
				<path class="st17" d="M598.2,341.6c0-2.1-1.7-3.8-3.8-3.8h-44.5c-2.1,0-3.8,1.7-3.8,3.8v0.1c0,2.1,1.7,3.8,3.8,3.8h44.5
					C596.5,345.5,598.2,343.8,598.2,341.6L598.2,341.6z"/>
			</g>
			<g>
				<path class="st17" d="M773.5,290.2c0-2.1-1.7-3.8-3.8-3.8l0,0h-62.3c-2.1,0-3.8,1.7-3.8,3.8v0.1c0,2.1,1.7,3.8,3.8,3.8h62.3
					C771.8,294.1,773.5,292.4,773.5,290.2C773.5,290.3,773.5,290.3,773.5,290.2L773.5,290.2z"/>
				<path class="st17" d="M773.5,306.3c0-2.1-1.7-3.8-3.8-3.8l0,0h-62.3c-2.1,0-3.8,1.7-3.8,3.8v0.1c0,2.1,1.7,3.8,3.8,3.8h62.3
					C771.8,310.2,773.5,308.5,773.5,306.3C773.5,306.4,773.5,306.4,773.5,306.3L773.5,306.3z"/>
				<path class="st17" d="M773.5,322.4c0-2.1-1.7-3.8-3.8-3.8l0,0h-62.3c-2.1,0-3.8,1.7-3.8,3.8v0.1c0,2.1,1.7,3.8,3.8,3.8h62.3
					C771.8,326.3,773.5,324.6,773.5,322.4C773.5,322.5,773.5,322.5,773.5,322.4L773.5,322.4z"/>
				<path class="st17" d="M755.7,338.5c0-2.1-1.7-3.8-3.8-3.8c0,0,0,0,0,0h-44.5c-2.1,0-3.8,1.7-3.8,3.8v0.1c0,2.1,1.7,3.8,3.8,3.8
					h44.5C753.9,342.4,755.7,340.7,755.7,338.5C755.7,338.5,755.7,338.5,755.7,338.5L755.7,338.5z"/>
			</g>
			<path class="st17" d="M794.3,216.9c0-2.9-2.4-5.3-5.3-5.3H551.4c-2.9,0-5.3,2.4-5.3,5.3v0.1c0,2.9,2.4,5.3,5.3,5.3H789
				C791.9,222.3,794.3,219.9,794.3,216.9L794.3,216.9z"/>
			<path class="st17" d="M756.7,239.2c0-2.9-2.4-5.3-5.3-5.3H551.4c-2.9,0-5.3,2.3-5.3,5.2c0,0,0,0,0,0v0.1c0,2.9,2.3,5.3,5.3,5.3
				c0,0,0,0,0,0h200C754.3,244.6,756.7,242.2,756.7,239.2L756.7,239.2z"/>
		</g>
	</g>
	<g>
		<g>
			<path class="st4" d="M836.7,596.3c4.3-3.6,7-9.9,9.6-14.6c6.4-11.6,11-23.8,12.2-37.1c0.5-5.8,0.7-12.3-1.5-17.8
				c-1.9-4.9-6.5-5.4-10.6-2.8c-5.3,3.4-10.6,9.2-16.9,3.9c-1-0.9-1.9-1.9-2.6-3c-4.7-7.4-4-17.1-2.1-25.2c1.3-5.7,4-11.9,1.2-17.6
				c-2.7-5.6-9.8-1.7-13.4,0.4c-1.2,0.7-4.5,2.2-4.6-0.4c-0.6-12,16.7-21.4,9.8-33.8c-6.2-11.3-22.6-11.6-28.3,0.3
				c-6.2,12.8,2.1,25.9,0.2,38.9c-0.7,4.9-4.1,8.8-6.5,12.9c-3,5.1-4.7,10.3-4.3,16.3c0.7,9.4,7.7,16.1,14.6,21.7
				c4.8,3.9,10.7,8.8,11.9,15.3c0.8,4.2-0.7,8.5-2.7,12.2c-1.5,2.9-3.5,6-2,9.3c2.5,5.4,10.2,6,15.2,7.4c7.9,2.2,14.3,5.6,18.4,13
				L836.7,596.3z"/>
			<g>
				<defs>
					<path id="SVGID_49_" d="M836.7,596.3c4.3-3.6,7-9.9,9.6-14.6c6.4-11.6,11-23.8,12.2-37.1c0.5-5.8,0.7-12.3-1.5-17.8
						c-1.9-4.9-6.5-5.4-10.6-2.8c-5.3,3.4-10.6,9.2-16.9,3.9c-1-0.9-1.9-1.9-2.6-3c-4.7-7.4-4-17.1-2.1-25.2
						c1.3-5.7,4-11.9,1.2-17.6c-2.7-5.6-9.8-1.7-13.4,0.4c-1.2,0.7-4.5,2.2-4.6-0.4c-0.6-12,16.7-21.4,9.8-33.8
						c-6.2-11.3-22.6-11.6-28.3,0.3c-6.2,12.8,2.1,25.9,0.2,38.9c-0.7,4.9-4.1,8.8-6.5,12.9c-3,5.1-4.7,10.3-4.3,16.3
						c0.7,9.4,7.7,16.1,14.6,21.7c4.8,3.9,10.7,8.8,11.9,15.3c0.8,4.2-0.7,8.5-2.7,12.2c-1.5,2.9-3.5,6-2,9.3
						c2.5,5.4,10.2,6,15.2,7.4c7.9,2.2,14.3,5.6,18.4,13L836.7,596.3z"/>
				</defs>
				<clipPath id="SVGID_2_">
					<use xlink:href="#SVGID_49_"  style="overflow:visible;"/>
				</clipPath>
				<g class="st5">
					<path class="st6" d="M802.7,457.8c-3.7,6.2-3.9,14.5-3.9,21.5c-0.2,7.4,0.7,14.9,2.6,22c4.8,16.5,15.2,30.6,22.3,46.1
						c7.7,16.7,10.6,34.4,12.2,52.6c0,0.4,0.4,0.8,0.8,0.7c0.4,0,0.8-0.4,0.7-0.8c0,0,0,0,0,0c-1.6-18.4-4.6-36.2-12.3-53.1
						c-7.1-15.4-17.4-29.5-22.2-45.9c-2.1-7-2.6-14.3-2.6-21.6c0.1-6.7,0.2-14.7,3.7-20.7c0.2-0.4,0.1-0.9-0.3-1.1
						C803.4,457.3,802.9,457.4,802.7,457.8L802.7,457.8z"/>
				</g>
			</g>
		</g>
		<path class="st0" d="M853,402.4c-3.3,0.1-7.7-4.8-10.2-11.8c-2.7-7.7-2.2-14.9,1.2-16.1c3.4-1.2,8.4,4,11.2,11.6
			c2.3,6.6,2.3,12.8,0.1,15.2c1,3.9,1.7,7.9,2.1,11.9c1.6-2.2,4.7-4.6,8.6-6.3c6.5-2.8,12.9-2.8,14.2,0.1c1.3,2.9-3,7.6-9.6,10.5
			c-5.2,2.3-10.2,2.7-12.7,1.3c0.4,8,0,16-1.2,23.9c2.3-2.6,8.3-4.1,15.1-3.6c8.6,0.6,15.4,4.3,15.1,8.1c-0.3,3.9-7.5,6.5-16.1,5.9
			c-7.2-0.5-13.1-3.1-14.7-6.2c-2.1,12.4-5.5,24.7-8.9,37.2c-0.5,1.7-0.9,3.5-1.4,5.2c2-2.7,6-5.5,11-7.4c8.1-3.1,15.8-2.6,17.1,1
			c1.4,3.6-4.1,9.1-12.1,12.1c-8.1,3.1-15.8,2.6-17.1-1c0,0,0-0.1,0-0.1c-2.7,9.9-4.8,19.9-6.3,30.1c2-1.9,4.3-3.5,6.8-4.6
			c6.6-3,13.2-2.7,14.7,0.5c1.5,3.3-2.7,8.4-9.3,11.4c-5.2,2.3-10.4,2.7-13.1,1.1c-0.8,9.8-0.4,19.7,1.3,29.4c1.2-2.5,4-5.3,7.8-7.5
			c6.1-3.6,12.4-4.4,14-1.7c1.6,2.7-2,7.9-8.1,11.5c-5,3-10,4-12.6,2.8c1.3,5.5,3,11,5.2,16.2c0.3,0.6,0,1.3-0.7,1.6
			c-0.6,0.3-1.3,0-1.6-0.7c-2.2-5.2-3.9-10.5-5.2-16c-2.6,1.1-7.6,0.2-12.4-2.5c-6.2-3.4-10-8.4-8.5-11.2c1.5-2.8,7.8-2.3,14,1.1
			c1.9,1,3.6,2.2,5.2,3.7c-1.3-9.3-1.6-18.7-0.7-28c-3,1.1-8.2-0.8-12.8-4.9c-5.4-4.9-7.8-11-5.4-13.7c2.4-2.7,8.7-0.9,14.1,4
			c2,1.8,3.7,3.9,5,6.3c1.4-9.2,3.2-18.2,5.6-27.2c-3.3,1-9.3-1.1-14.7-5.5c-6.7-5.4-10.2-12.3-7.8-15.3c2.4-3,9.9-1.1,16.6,4.3
			c3.7,3,6.5,6.4,7.8,9.4c0.5-1.7,0.9-3.4,1.4-5.2c3.4-12.6,6.9-25,8.9-37.5c-2.9,1.1-8.3-0.2-13.5-3.6c-6.5-4.2-10.3-9.9-8.5-12.8
			s8.7-1.9,15.2,2.3c3.1,1.9,5.8,4.5,7.8,7.5c0.9-7,1.1-14.1,0.7-21.2c-1.9,1.5-6.3,1.1-10.7-1.1c-5.1-2.6-8.2-6.7-6.9-9.1
			c1.2-2.5,6.4-2.4,11.5,0.2c2.2,1.1,4.1,2.6,5.7,4.4C854.4,409.1,853.8,405.7,853,402.4z"/>
		<g>
			<path class="st7" d="M853.9,576.4c5.5-0.8,11.2-4.6,16-7.2c11.6-6.4,22-14.3,30.1-24.8c3.5-4.6,7.2-10.1,8.3-15.9
				c1-5.2-2.6-8.1-7.5-8c-6.3,0-13.9,2.1-16.4-5.7c-0.4-1.3-0.6-2.6-0.6-3.9c0-8.7,5.7-16.6,11.7-22.5c4.2-4.1,9.7-8,10.4-14.3
				c0.7-6.2-7.3-6.7-11.5-6.8c-1.4-0.1-4.9-0.6-3.7-2.8c5.9-10.5,25.6-9.2,26.4-23.3c0.8-12.8-12.9-21.8-24.1-14.9
				c-12,7.5-12.1,23-20.6,32.9c-3.2,3.8-8.2,5.2-12.4,7.4c-5.3,2.7-9.5,6.2-12.3,11.5c-4.5,8.3-2.1,17.7,0.7,26.2
				c2,5.9,4.3,13.2,1.9,19.3c-1.6,4-5.2,6.8-8.8,8.9c-2.8,1.7-6.2,3.2-6.6,6.8c-0.8,5.9,5.4,10.5,8.9,14.4c5.5,6.1,9,12.4,8.6,20.8
				L853.9,576.4z"/>
			<g>
				<defs>
					<path id="SVGID_51_" d="M853.9,576.4c5.5-0.8,11.2-4.6,16-7.2c11.6-6.4,22-14.3,30.1-24.8c3.5-4.6,7.2-10.1,8.3-15.9
						c1-5.2-2.6-8.1-7.5-8c-6.3,0-13.9,2.1-16.4-5.7c-0.4-1.3-0.6-2.6-0.6-3.9c0-8.7,5.7-16.6,11.7-22.5c4.2-4.1,9.7-8,10.4-14.3
						c0.7-6.2-7.3-6.7-11.5-6.8c-1.4-0.1-4.9-0.6-3.7-2.8c5.9-10.5,25.6-9.2,26.4-23.3c0.8-12.8-12.9-21.8-24.1-14.9
						c-12,7.5-12.1,23-20.6,32.9c-3.2,3.8-8.2,5.2-12.4,7.4c-5.3,2.7-9.5,6.2-12.3,11.5c-4.5,8.3-2.1,17.7,0.7,26.2
						c2,5.9,4.3,13.2,1.9,19.3c-1.6,4-5.2,6.8-8.8,8.9c-2.8,1.7-6.2,3.2-6.6,6.8c-0.8,5.9,5.4,10.5,8.9,14.4
						c5.5,6.1,9,12.4,8.6,20.8L853.9,576.4z"/>
				</defs>
				<clipPath id="SVGID_4_">
					<use xlink:href="#SVGID_51_"  style="overflow:visible;"/>
				</clipPath>
				<g class="st8">
					<path class="st6" d="M899.1,441.2c-6.4,3.3-11,10.2-14.8,16.1c-4.2,6.2-7.4,12.9-9.6,20c-4.7,16.5-3.5,34-5.8,50.9
						c-2.5,18.3-9.4,34.7-17.8,51c-0.2,0.4,0,0.9,0.3,1c0.4,0.2,0.8,0,1-0.3c8.4-16.4,15.5-33,17.9-51.4c2.3-16.8,1-34.2,5.8-50.7
						c2-7.1,5.4-13.5,9.4-19.6c3.6-5.6,8-12.3,14.2-15.5c0.4-0.2,0.5-0.7,0.3-1.1C899.9,441.1,899.5,441,899.1,441.2L899.1,441.2z"
						/>
				</g>
			</g>
		</g>
		<g>
			<path class="st66" d="M802.4,583.9h74l-18.5,52.3c-12.6,3.4-25,4.1-37,0L802.4,583.9z"/>
			<g>
				<defs>
					<path id="SVGID_53_" d="M802.4,583.9h74l-18.5,52.3c-12.6,3.4-25,4.1-37,0L802.4,583.9z"/>
				</defs>
				<clipPath id="SVGID_6_">
					<use xlink:href="#SVGID_53_"  style="overflow:visible;"/>
				</clipPath>
				<g class="st15">
					<path class="st27" d="M795.5,588.6c15.5,3.6,30.9,7.6,46.7,10.1c9.7,1.5,19.4,2.8,29.2,3c15.9,0.3,36.4-6.6,35.7-25.8
						c-0.2-3.4-1-6.8-2.4-9.9c-1.6-3.6-3.8-6.8-6.4-9.6c-19.5-20.5-52.9-25.1-78.9-16.1c-15.7,5.4-30,17.5-33.5,34.3L795.5,588.6z"
						/>
				</g>
			</g>
		</g>
		<path class="st62" d="M882,575c0-2.7-2.2-4.9-4.9-4.9h-75.4c-2.7,0-4.9,2.2-4.9,4.9v4.9c0,2.7,2.2,4.9,4.9,4.9c0,0,0,0,0,0h75.4
			c2.7,0,4.9-2.2,4.9-4.9c0,0,0,0,0,0V575z"/>
	</g>
	<g>
		<g>
			<path class="st33" d="M264.2,529.8h-33.7c4.8,36.7,7.2,73.2,0,108.7h33.7C257,602.3,258.8,566.1,264.2,529.8z"/>
			<g>
				<defs>
					<path id="SVGID_55_" d="M264.2,529.8h-33.7c4.8,36.7,7.2,73.2,0,108.7h33.7C257,602.3,258.8,566.1,264.2,529.8z"/>
				</defs>
				<clipPath id="SVGID_8_">
					<use xlink:href="#SVGID_55_"  style="overflow:visible;"/>
				</clipPath>
				<g class="st19">
					<path class="st27" d="M229.2,588.9c5.9,3.1,12.3,4.9,18.8,6.5c4.4,1.2,8.9,2,13.5,2.3c1.7,0.1,3.4-0.1,5-0.5
						c11.2-2.6,10.6-14.8,7.6-23.6c-5.4-15.7-23.3-25.3-38.7-17.2c-2.9,1.6-5.5,3.7-7.7,6.2c-3.2,3.8-5.5,8.3-6.7,13.2L229.2,588.9z
						"/>
				</g>
			</g>
		</g>
		<g>
			<path class="st33" d="M330.5,529h-33.7c4.9,38.3,6.2,75.1,0,108.7h33.7C322.9,601.8,324.1,565.5,330.5,529z"/>
			<g>
				<defs>
					<path id="SVGID_57_" d="M330.5,529h-33.7c4.9,38.3,6.2,75.1,0,108.7h33.7C322.9,601.8,324.1,565.5,330.5,529z"/>
				</defs>
				<clipPath id="SVGID_10_">
					<use xlink:href="#SVGID_57_"  style="overflow:visible;"/>
				</clipPath>
				<g class="st21">
					<path class="st27" d="M295.6,587.5c5.9,3.1,12.3,4.9,18.8,6.5c4.4,1.2,8.9,2,13.5,2.3c1.7,0.1,3.4-0.1,5-0.5
						c11.2-2.6,10.6-14.8,7.6-23.6c-5.4-15.7-23.3-25.3-38.7-17.2c-2.9,1.6-5.5,3.7-7.7,6.2c-3.2,3.8-5.5,8.3-6.7,13.2L295.6,587.5z
						"/>
				</g>
			</g>
		</g>
		<g>
			<path class="st70" d="M285.6,347.5l-64-8l7.7,243.1c11.9,8.3,22.1,8.3,38.6,0L285.6,347.5z"/>
			<g>
				<defs>
					<path id="SVGID_59_" d="M285.6,347.5l-64-8l7.7,243.1c11.9,8.3,22.1,8.3,38.6,0L285.6,347.5z"/>
				</defs>
				<clipPath id="SVGID_12_">
					<use xlink:href="#SVGID_59_"  style="overflow:visible;"/>
				</clipPath>
				<g class="st22">
					<path class="st27" d="M301.6,380c-4.1,2.6-6.4,8-8.5,12.1c-5.6,10.8-6.4-18-10.2-6.4c-14.2,44.3-22.2,130.8-20.7,177.2
						c0.4,13.5-4.9,28.9-1.6,42.1c1,4.1,8.2,9.6,11.7,12.6c2.8,2.4,7,0.7,10.1-0.4c9.8-3.7,18.6-9.6,25.6-17.3
						c25.7-27.8,32.4-68.6,28.8-105c-2.7-27.2-9.4-54.3-20.5-79.4L301.6,380z"/>
				</g>
			</g>
		</g>
		<path class="st70" d="M345.5,338.7l-66,12.4l15.1,231.7c14.8,7.9,19.8,8,40.2-1.9L345.5,338.7z"/>
		<path class="st72" d="M258,621.9c-4.7-3.3-9.9-3.3-15.8,0c-0.9,0.8-1.7,1.6-2.5,2.4c-7.7,7.5-10.9,13.1-9.6,23.3
			c14.2,5.6,23.5,5.7,37.4,0.5c1.8-8.4-2-16.3-7.8-23.9C259.2,623.4,258.6,622.7,258,621.9z"/>
		<path class="st72" d="M324.4,620c-4.9-3.3-10.4-3.3-16.5,0c-0.9,0.8-1.8,1.6-2.6,2.4c-8,7.5-11.4,13.1-10.1,23.3
			c14.9,5.6,24.5,5.7,39,0.5c1.9-8.4-2.1-16.3-8.1-23.9C325.6,621.5,325,620.8,324.4,620z"/>
		<path class="st42" d="M271.6,119c12.7,0,23,11,23,24.6S284.7,185,272,185c-12.7,0,7.4-10.6-12.4-36.4
			C251.3,137.9,258.9,119,271.6,119z"/>
		<path class="st42" d="M305.2,125.7c17.9,0,6,13.1,16.3,21.9c14.2,12.2,2.1,44.2-15.8,44.2c-17.8,0-13.1-6.9-17.4-36.4
			C286,139.7,287.3,125.7,305.2,125.7z"/>
		<path class="st14" d="M337.8,184.7c-34.6-17.6-72.1-13.4-111.4,4.7c22.7,75.1-1.1,93.8-13.9,150.3c-7,30.9,144.3,39.2,144.4,0
			C345.4,287.5,317.3,251.8,337.8,184.7z"/>
		<path class="st62" d="M345.5,189.1c-12.2-8.9-25.8-15.9-42.7-15.4c4,62.3,1.2,114.1-13,145.8c19.6,39,77.9,60.5,72.2,41.1
			C346.4,307.3,343.5,253.2,345.5,189.1z"/>
		<path class="st62" d="M229.2,187.6c13.5-6.3,25.8-11.6,40.8-12.4c-4,62.3,0.7,111.1,14.8,142.8c-19.6,39-86.2,55.6-80.5,36.3
			C219.9,300.9,231.1,251.6,229.2,187.6z"/>
		<path class="st33" d="M157,89.9c-2-2.1-6.1,7.7-6.1,7.7c-2.1,3.4-2.1-11.2-3.6-16.6c-1.1-4-14.1,2.6-15.5,11.2
			c-1.3,8.7,5.9,13.9,5.1,25.3c-0.4,5.7,18.4,5.7,17.9,0C153.3,103,161,94.3,157,89.9z"/>
		<path class="st33" d="M474.7,215.3c2.8,0.8-4.2,8.9-4.2,8.9c-2.1,3.4,11-3.1,16.5-4.1c4.1-0.8,3.9,13.8-3.2,18.9
			c-7.2,5.1-15.1,0.9-25,6.7c-4.9,2.9-13.3-14-7.9-16C464.6,224.4,468.9,213.6,474.7,215.3z"/>
		<path class="st62" d="M239.4,234.4c30.4-5.4,7.9-53.4-6.3-48c-13,5-60-3.3-60-3.3l-16.4-76.5c-7.9-1.4-15.3,0.7-22,7
			c0,0-0.1,75.5,17.4,95.6C169.5,229.4,224.2,237.1,239.4,234.4z"/>
		<path class="st62" d="M306.5,196.6c-6.7-30.1,26.9-15.3,39-8.1c12.2,7.2,33.9,51.3,33.9,51.3l76.8-16.1c4.3,6.8,5.2,14.4,2,23
			c0,0-70.7,35-96,26.6C336.9,265,309.8,211.6,306.5,196.6z"/>
		<g>
			<path class="st33" d="M297.2,146.5H274c3.5,10.1,3,19.5-0.7,28.3c2.2,27.4,20.2,28.7,25.3-1.3
				C294.4,164.9,293.3,156.8,297.2,146.5z"/>
			<g>
				<defs>
					<path id="SVGID_61_" d="M297.2,146.5H274c3.5,10.1,3,19.5-0.7,28.3c2.2,27.4,20.2,28.7,25.3-1.3
						C294.4,164.9,293.3,156.8,297.2,146.5z"/>
				</defs>
				<clipPath id="SVGID_14_">
					<use xlink:href="#SVGID_61_"  style="overflow:visible;"/>
				</clipPath>
				<g class="st24">
					<path class="st27" d="M274.6,158c1.5,1.6,3.7,2.7,5.6,3.8c4.5,2.5,9.5,4.9,14.8,4.5c1.8-0.1,3.6-0.6,5.1-1.6
						c4-2.5,5.3-7.8,3.7-12.1c-4.8-13.4-27.6-12-30.4,2.1L274.6,158z"/>
				</g>
			</g>
		</g>
		<ellipse class="st25" cx="285.4" cy="135.6" rx="17.4" ry="25.4"/>
		<path class="st42" d="M263.4,125.5c1.6,2,3.7,3.1,7.4,4.1c9.7,2.7,22.2,2.3,30.1-5c0,8.8,8.5,14.7,11.6,23.4
			c3.7,10.7,7.9,19.8,17.9,14.9c9.8-4.9,16.4-17.3,12.6-28c-1.6-4.4-5.5-8.1-9.1-10.9c1.5-4.5-0.1-10-1.8-14.3
			c-6.3-15.6-26.3-24.1-40.7-13.7c-0.8-0.7-1.8-1.2-2.8-1.3c-3-0.5-6.1-0.3-9,0.5c-9.8,2.4-18.9,11.6-18.1,22.1
			C261.3,117.3,261.8,123.4,263.4,125.5z"/>
	</g>
</g>
</svg>
