<?xml version="1.0" encoding="UTF-8"?>
<svg xmlns="http://www.w3.org/2000/svg" xmlns:xlink="http://www.w3.org/1999/xlink" version="1.1" viewBox="0 0 841.9 595.3">
  <!-- Generator: Adobe Illustrator 29.3.0, SVG Export Plug-In . SVG Version: 2.1.0 Build 146)  -->
  <defs>
    <style>
      .st0 {
        fill: none;
      }

      .st1 {
        fill: #2c1913;
      }

      .st2 {
        fill: #e2dabf;
      }

      .st3 {
        fill: #1f3465;
      }

      .st4 {
        isolation: isolate;
      }

      .st5 {
        mix-blend-mode: multiply;
      }

      .st6 {
        clip-path: url(#clippath-1);
      }

      .st7 {
        clip-path: url(#clippath-3);
      }

      .st8 {
        clip-path: url(#clippath-4);
      }

      .st9 {
        clip-path: url(#clippath-2);
      }

      .st10 {
        clip-path: url(#clippath-7);
      }

      .st11 {
        clip-path: url(#clippath-6);
      }

      .st12 {
        clip-path: url(#clippath-9);
      }

      .st13 {
        clip-path: url(#clippath-8);
      }

      .st14 {
        clip-path: url(#clippath-5);
      }

      .st15 {
        fill: #fff;
      }

      .st16 {
        fill: #a97c50;
      }

      .st17 {
        fill: #fffde7;
      }

      .st18 {
        fill: #e6e7e8;
      }

      .st19 {
        fill: #f37962;
      }

      .st20 {
        fill: #f1ebcc;
      }

      .st21 {
        fill: #e0e1e2;
      }

      .st22 {
        clip-path: url(#clippath);
      }

      .st23 {
        fill: #d2e0ed;
      }
    </style>
    <clipPath id="clippath">
      <rect class="st0" x="149.5" y="65.2" width="542.9" height="430"/>
    </clipPath>
    <clipPath id="clippath-1">
      <rect class="st0" x="149.5" y="65.2" width="542.9" height="430"/>
    </clipPath>
    <clipPath id="clippath-2">
      <rect class="st0" x="149.5" y="65.2" width="542.9" height="430"/>
    </clipPath>
    <clipPath id="clippath-3">
      <rect class="st0" x="149.5" y="65.2" width="542.9" height="430"/>
    </clipPath>
    <clipPath id="clippath-4">
      <rect class="st0" x="292.8" y="160.1" width="134.7" height="142.3"/>
    </clipPath>
    <clipPath id="clippath-5">
      <rect class="st0" x="149.5" y="65.2" width="542.9" height="430"/>
    </clipPath>
    <clipPath id="clippath-6">
      <rect class="st0" x="338.9" y="286.7" width="115.8" height="116.6"/>
    </clipPath>
    <clipPath id="clippath-7">
      <rect class="st0" x="149.5" y="65.2" width="542.9" height="430"/>
    </clipPath>
    <clipPath id="clippath-8">
      <rect class="st0" x="381.4" y="200.5" width="152.6" height="294.7"/>
    </clipPath>
    <clipPath id="clippath-9">
      <rect class="st0" x="149.5" y="65.2" width="542.9" height="430"/>
    </clipPath>
  </defs>
  <g class="st4">
    <g id="Layer_1">
      <g class="st22">
        <g class="st6">
          <path class="st23" d="M650.8,409.3c-.7,1.2-1.7,1.6-3,2-.7,0-1.4-.1-2.1-.4-2.2-.9-2.9-3.6-1.8-5.5.8-1.4,1.9-1.9,3.4-2.3.7,0,1.5.1,2.1.5,1.8,1,2.7,3.6,1.4,5.7M627.7,438.3c.5-1.5,1.8-2.2,3.1-2.8.6,0,1.2,0,1.8,0,2.5.7,3.5,3.5,2.6,5.7-.5,1.3-1.5,1.8-2.7,2.3-.7,0-1.5,0-2.2,0-1.9-.4-3.5-2.8-2.7-5.3M599.2,482.9c.5-1.1,1.7-1.7,2.7-2.2.7,0,1.4,0,2,.3,2,.7,3.3,2.7,2.5,4.8-.5,1.4-1.4,2-2.7,2.7-4.4.9-5.6-3.4-4.6-5.6ZM566.1,515.2c.6-1.6,1.8-2.2,3.2-2.9.7,0,1.5,0,2.2.2,2.4.8,3.5,3.5,2.5,5.8-.6,1.3-1.6,1.9-2.8,2.4-.6,0-1.5,0-2.1-.1-2.4-.8-3.8-3.3-3-5.4ZM525.9,539.5c.5-1.3,1.7-1.9,2.8-2.5.7,0,1.5,0,2.2.2,2.4.6,3.4,3.2,2.7,5.3-.5,1.4-1.7,2.2-2.9,2.7l-1.9-.2c-1.8-.4-3.7-2.9-2.8-5.5M473.8,384.5h-104s.2-104.6.2-104.6h104.2c0,112.8.3,103.8-.4,104.6h0ZM425.8,574.9c-.6,1.5-1.6,2.1-3,2.7-.6,0-1.2,0-1.8,0-2.2-.5-3.8-2.6-2.9-5.4.5-1.4,1.6-2,2.8-2.6.7-.1,1.3-.2,2,0,2.3.5,3.8,3,3,5.3M418,88.2c.6-1.4,1.9-2,3.3-2.5.9,0,1.7.1,2.5.5.9.5,1.8,1.5,2,2.5.2,1.1.2,2.4-.4,3.4-.8,1.3-1.7,1.7-3.2,2l-1.9-.2c-1.9-.5-3.4-3.3-2.4-5.7M496.6,552.8c2.4,0,3.7,1,4.3,2.4.5,1.1.5,2.7,0,3.8-.6,1.3-1.6,1.7-2.9,2.2-.7,0-1.5,0-2.2-.3-2.4-.9-3.1-3.4-2.3-5.4.6-1.5,1.7-2.1,3.1-2.7ZM470.9,475.7c.3-1.2,1.5-1.9,2.5-2.5.7,0,1.4-.2,2,0,2.1.3,3.5,2.7,3,4.7-.4,1.6-1.3,2.4-2.7,3.2-.6,0-1.4.3-2,0-2.1-.6-3.6-3-2.9-5.4M471.2,535.7c2.2.3,3.6,1.2,4.1,3.5.2,1.1,0,2.4-.6,3.3-.7,1-1.7,1.2-2.9,1.4-.8,0-1.7,0-2.4-.4-1.9-1-2.7-3.6-1.6-5.5.8-1.4,1.9-1.8,3.3-2.3M468.3,503.1c.5-1.2,1.7-1.9,2.8-2.5h1.9c2,.4,3.6,3,2.9,5.4-.5,1.5-1.6,2.1-2.9,2.7-.7,0-1.6,0-2.3-.1-2-.6-3.4-3-2.5-5.6ZM372.8,508.5c-.8.2-1.7.3-2.5,0-3-1-4.2-6,.3-7.9,4.7-.9,7.5,5.1,2.2,8M375.5,538.3c.4,1,.5,2.2,0,3.2-.6,1.5-1.7,2-3,2.6-.8,0-1.7,0-2.4-.4-2.1-1.1-2.9-3.7-1.7-5.7.7-1.2,1.7-1.7,3-2,.6,0,1.4,0,2,.3.8.3,1.8,1.3,2.1,2ZM372.3,477.8c-.8,1.2-1.8,1.5-3.1,1.8-.6-.1-1.4-.2-2-.5-2.4-1.1-4-5.4,1.5-7.5,1.4.1,3.2,0,4,2.4.4,1,.2,2.9-.4,3.8M350.5,558.3c-.5,1.4-1.7,2.1-3,2.7-.8.1-1.6.2-2.4,0-2.1-.8-2.9-3.4-2.2-5.2.5-1.3,1.7-2,2.9-2.6.6,0,1.1,0,1.7,0,2.6.5,3.7,3,3,5.1ZM317.4,542.5c-.5,1.3-1.6,1.9-2.8,2.5-.7,0-1.6.1-2.3,0-2.3-.7-3.2-3.2-2.4-5.4.5-1.3,1.7-2,2.9-2.6.7,0,1.3,0,2,.2,2.1.6,3.5,2.9,2.6,5.4M276.9,517.3c-.5,1.5-1.7,2.1-3.1,2.7-.7,0-1.4,0-2.1-.2-2-.5-3.5-2.8-2.6-5.2.6-1.5,1.8-2.2,3.2-2.8.6,0,1.2,0,1.8.2,2.3.7,3.5,3.1,2.7,5.3M241.8,487.7c-2.4.7-5.4-2.6-4.3-5.5.6-1.6,1.7-2.2,3.2-2.9.7,0,1.4,0,2,.3,3.3,1.3,3.9,6.6-.9,8.1ZM215.6,441.9c-.5,1.4-1.5,2.2-2.8,2.8-3.8.4-5.7-2.8-4.6-5.5.6-1.4,1.6-2,2.9-2.6,3.1-.6,5.5,2.2,4.5,5.2M200.1,409c-.7,1.4-2,1.9-3.4,2.4-.7,0-1.4,0-2-.3-3.3-1.3-3.6-6.5,1.3-8,.7,0,1.5,0,2.1.4.9.4,1.8,1.4,2.1,2.3.3.9.3,2.3-.1,3.2M280.7,386.5c-.6,1.3-1.6,1.9-2.8,2.4-.8,0-1.7,0-2.4-.2-3-1.3-3.9-6.4,1.1-7.9.7,0,1.5.1,2.1.4,1.9.8,3,3.1,2,5.3M250.1,381.8c-.4,1.5-1.4,2.3-2.6,2.9-.9,0-1.6.2-2.3.1-2.4-.4-3.6-3.1-2.9-5.4.4-1.2,1.1-1.9,2.2-2.5,4.3-1,6.4,2.2,5.7,4.8M183.8,333.5c-.5,1.3-1.5,1.8-2.7,2.4-.7,0-1.5,0-2.2-.1-1.8-.5-3.2-2.7-2.3-5.1.5-1.4,1.6-2,2.8-2.6.6,0,1.2,0,1.7.1,2.3.5,3.5,3.3,2.7,5.4ZM249.2,282c-.7,1.1-1.7,1.5-2.9,1.8-3.1.3-5.5-3.2-4.1-5.8,1-1.8,3.4-3,5.4-1.8,2.3,1.4,2.7,4.1,1.6,5.8M280.6,280.6c-.5,1.3-1.6,1.9-2.8,2.3-.8,0-1.7,0-2.4-.2-3.1-1.2-3.7-6.2.6-7.7,2.2-.4,4,.7,4.7,2.4.4.9.4,2.3,0,3.2M199.8,256.9c-.4,1.4-1.5,2.1-2.7,2.8-.8,0-1.6,0-2.4-.2-2.6-.7-4.4-5.5.2-7.7,3.3-.8,5.7,2.4,4.9,5ZM215.9,224.5c-.6,1.4-1.8,1.9-3.2,2.4-.6,0-1.3-.2-1.9-.4-2.1-1-3-3.9-1.9-5.9.7-1.2,1.7-1.6,3-2l1.6.3c1.1.4,2.1,1.5,2.5,2.5.4,1.1.4,2.1-.1,3.2ZM244.1,180.6c-.5,1.3-1.5,1.9-2.7,2.4h-1.6c-1-.2-2.1-1.2-2.6-2.1-.5-1-.5-2.4-.2-3.5.5-1.4,1.8-2,3-2.6.7,0,1.4,0,2,.3,2,.7,3.1,3.1,2.2,5.4M276.9,148.6c-.6,1.2-1.5,1.6-2.7,2-.7,0-1.4,0-2-.1-1-.3-2.1-1.4-2.5-2.4-.4-.9-.3-2,0-2.9.6-1.5,1.6-2,3-2.6.8,0,1.5,0,2.2.3,2.1.8,3,3.7,1.9,5.8ZM317.1,123.7c-.5,1.4-1.5,2.1-2.7,2.7-.7,0-1.5.1-2.1,0-2.9-.6-5-6,0-8.2,3.8-.8,5.8,2.7,4.9,5.5M347.5,109.9c-.9,0-1.8,0-2.7-.5-.8-.4-1.7-1.6-1.9-2.4-.4-1.2-.2-2.4.4-3.5.7-1.2,1.7-1.6,3-2,.7,0,1.4,0,2,.3,2.3.8,4.9,5.7-.8,8M370.2,190.6c-3.7,1-6-2.2-5.4-5,.4-1.5,1.3-2.1,2.5-2.9.8,0,1.8-.2,2.6,0,3.1.6,4.3,5.9.3,7.9ZM374.2,156.2c-.4,1.4-1.6,2.2-2.9,2.8-4.3.7-5.8-3-5.2-5.1.4-1.4,1.5-2.3,2.7-3,.7,0,1.5-.2,2.1,0,2,.4,4,3.1,3.2,5.4ZM472.5,150.1c3.7-.9,5.8,2.7,4.8,5.6-.5,1.5-1.4,2.1-2.8,2.7-.8,0-1.8,0-2.5-.2-3-1-4.4-6.1.5-8.1ZM474,182.5c.9,0,1.6,0,2.3.3,2.3.9,3.1,3.9,2.1,5.9-.7,1.4-1.8,1.9-3.1,2.4-.7,0-1.6,0-2.2-.3-3.1-1.1-4.4-6.4.9-8.3M493.3,104.2c.5-1.3,1.5-1.9,2.7-2.4,3.2-.6,5.7,2.2,4.8,5.3-.4,1.4-1.7,2.2-2.9,2.8-.5,0-1,.1-1.6,0-2.2-.4-4-3-3-5.7M528.8,118.2c.8-.1,1.9,0,2.7.3.9.4,1.8,1.4,2.1,2.3.3,1,.4,2.4-.1,3.3-.6,1.2-1.6,1.8-2.8,2.3-.9,0-1.8,0-2.6-.3-2.8-1.5-3.4-6.6.8-7.9M567,146.1c.4-1.3,1.5-2.1,2.6-2.7,4.1-1,5.9,2.6,5.4,4.7-.4,1.6-1.5,2.3-2.8,3.1-.8.1-1.8.3-2.6,0-1-.3-2.1-1.3-2.6-2.2-.4-.7-.3-2.2,0-3M602.7,174.5c3-.5,5.9,3.1,4,6.4-.7,1.3-1.7,1.7-3,2.1l-2-.4c-3.4-1.2-3.9-6.6,1-8.1M628.4,221.8c.4-1.6,1.4-2.2,2.9-3,.7,0,1.3,0,2,.1,3.6.9,4.7,5.7.2,8-.7,0-1.5,0-2.3,0-1.9-.3-3.5-2.6-2.8-5.1M643.9,253.7c.6-1.2,1.8-1.7,3-2.2.9,0,1.9,0,2.7.5,3,1.7,2.5,6.8-1.4,7.6-.7,0-1.4,0-2-.2-2.2-.8-3.5-3.6-2.3-5.7ZM562.3,278.3c.5-1.3,1.4-1.9,2.6-2.5,5.1-1.4,7.5,5.3,2.6,7.7-3.3,1.1-6.3-2-5.2-5.2M597,275.9c.8,0,1.5.2,2.1.6,3.1,1.9,3,7.1-1.7,7.9-.7,0-1.3,0-1.9-.4-3.3-1.7-3.2-6.7,1.5-8.1M659.5,330.4c.6-1.4,1.7-1.8,3-2.4l1.8.2c2,.5,3.5,2.9,2.6,5.2-.5,1.4-1.5,2-2.9,2.5-1.9,0-3.5-.4-4.4-2.2-.4-.9-.5-2.6,0-3.5ZM593.5,379.4c.7-1.2,1.9-1.7,3.2-2,.6,0,1.2,0,1.7.3,2.7,1,2.9,4.1,2,5.8-.7,1.4-1.7,1.8-3.2,2.2-.7-.1-1.4-.2-2-.5-2.1-1.1-2.7-4-1.7-5.8M566.4,380.8c.6,0,1.4.1,2,.4,1.6.6,2.9,3.4,1.5,5.6-.8,1.2-1.7,1.6-3.1,2-.8,0-1.6,0-2.4-.5-2.1-1.2-3.4-6.4,1.9-7.5M652,395.7c-2.9-1.1-6.6-1-9.4.4-3,1.5-5.3,4.4-6.5,7.5l-77-.2-36.1-36.4h-41.2s0-5.2,0-5.2c49.8,0,38.4,0,51.7,0,4.8,0,2.9-.9,6.6,2.7l8.7,8.9c2.1,2.1,4.5,4.2,6.3,6.6-3.7,13,8.3,20.7,17.3,15.4,6.3-3.7,7.7-11.8,4.5-16.8-2.5-4-7.5-6.8-13.2-5.4-.7.2-3,1.3-3.4,1.2-.3,0-19.1-19.7-19.6-19.9-1-.5-10.2-.1-12-.2h-47v-5.5h75.9l28,28.6c-1.2,3.5-.8,7.2.8,10.1,3.2,6.1,11.3,8.2,16.9,4.7,5.8-3.6,7.3-11.5,3.4-17.5-2.9-4.4-8.4-6.2-13.5-4.6-.5.2-2.4,1.2-2.8,1.2-.1,0-12-12.3-13.1-13.4-13.6-13.6-10.5-10.5-15.3-15.4-1.7-1.7-.6-1.2-3.3-1.3-12.3-.2,1.4,0-77.1-.2v-5.1s169.8-.1,169.8-.1c1.5,3.6,3.4,6.3,7,7.8,7.3,2.9,14.4-1,16.5-7.8,2-6.2-1.5-13.6-8.3-15.6-5.5-1.6-11.5.4-14.5,6.5l-.7,1.3-169.9-.2v-5.7c53.2.1,78,.2,79.1,0,.7-.2,0,.4,21.9-21.7,2.9-2.9,6.6-5.8,9-9.1,3.5,1.4,6.1,2.1,9.8.7,5.7-2.3,10-9.5,6.7-16.9-2.9-6.3-10.1-8.8-16-5.9-6,3-8.1,9.6-6.6,14.7.1.4.6,1.5.6,1.8,0,.1-.1.2-.2.3-3,3.9-7.3,7.5-10.8,11l-17.4,17.5h-75.9s0-5.3,0-5.3c62.5,0,58.8,0,59.2-.2,1.1-.6-.8,1,18.9-18.9,3.6,1.5,7,2.3,10.8.7,3.2-1.4,5.9-4.3,7.1-7.5,1-2.8.5-6.4-.8-9-3.1-6.4-10.9-9-17.3-5.4-5.1,2.9-7.1,9.5-5.3,14.4l.4,1.1-12.3,12.4c-1.3,1.4-2.9,3.5-4.5,4.5h-56.2s0-5.4,0-5.4h41c0-.2,35.5-35.7,35.6-35.7,0,0-1.7,0,77.6-.3,1.8,3.4,4.2,6.1,8,7.4,10.8,3.5,19.6-8.9,14-18.2-4.6-7.5-15.5-8.1-20.5-.3-.4.6-1.6,3.7-1.8,3.8-.4.2-80-.2-81.2.2,0,0,1.5-1.3-24.4,24.9-3.5,3.5-7.4,6.9-10.4,10.7h-37.8s0-5.2,0-5.2c29.4,0,24.2,0,30.3,0,1.2,0,.7.3,1.9-.9l36.6-36.7c64.6,0,62.4.1,62.5,0,.8-.3,5.2-5,12.6-12.6,7.1,4.3,14.2,1.6,17.5-4.4,3.1-5.6,1.2-13.5-5.4-16.8-8.3-4.2-20,2.2-17.2,15.1-.4,1.2-2.5,2.7-3.4,3.6-2.4,2.3-4.7,4.6-6.9,7.2-.8.3-62.8.1-62.8.1-.6.2-37.4,37.5-37.7,37.6-1.8.5-4.6.1-6.6.1h-19.2s60.5-60.2,60.5-60.2c33.2,0,30.3,0,30.6-.1.7-.3,2-2,2.6-2.6,12.5-12.5,7.7-7.5,21.3-21.8,4.7.1,8.9.3,12.6-3.2,7.9-7.5,2.9-21.7-8.6-21.3-6.7.2-12.5,5.5-11.9,13.7.1,2.1,1,3.7,2,5.5-7.7,8.8-19.6,19.6-21.4,22.1h-25.9s0-27.9,0-27.9l20.8-20.8c3.6,1.1,7.6.6,10.2-.9,3.3-1.8,4.8-4.4,5.8-7.8.7-2.4.5-4.5-.2-6.9-1.8-6.1-9-10-15.4-7.8-6,2-9.9,9.3-8,15.4.3.9,1.2,2,1.3,2.9-2.7,2.8-22,22.2-22.2,22.6-.4,1.1,0,4,0,5.2,0,28.9.1,27.2,0,27.7,0,.2-27.4,27.3-59.6,59.5-.1-25-.3-23.2,0-25.3,31.8-32.2,36.9-36.5,37.3-37.7,0,0-.1-57.7-.1-57.8,0-3.1-.6-1.6,2.3-4.5l8.8-9c4.3.2,7.9.1,11.3-3,5-4.6,5.9-12.5.7-17.9-7.9-8.2-21.6-3-21,9.6.1,2.6,1.2,4.6,2.8,6.5,0,0-12.4,12.5-12.5,12.7-.1.4.1,60,0,60.3-.2.6-32.1,32.4-36.2,36.4-1.3,1.2-.9.4-.9,2.5,0,6.1,0,1.1,0,30.6h-5.4c-.1-39.4-.1-37.5,0-37.6.4-.9,34.5-34.1,35.6-35.9v-81.4c12.2-4.3,10.4-21-1.7-23.6-13-2.8-21.4,16.3-6.8,23.6.4.2.2.1.6.4v78.2c-37.7,37.5-35,34.7-35.1,35,0,.1,0-1.7,0,41.4h-5.8c0-52.6,0-43.2,0-54s-.7-1.6,2.9-5.2l15-15.1c8,3,14.3-1.1,16.2-7.2,2.2-7-1.8-14.2-8.3-15.9-11-2.8-18.5,7.9-15,16.2.1.3,1.1,2.1,1.1,2.3,0,.3-19,19-19.2,19.3-.2.6,0,59.6,0,59.7h-5.5s0-76.3,0-76.3c.5-.4-2,2.1,30.1-30.1,12.3,3.9,19.9-8.5,14.8-17.6-1.5-2.8-4.3-5.2-7.4-6.1-3.1-.9-7-.1-9.7,1.5-5.3,3.2-7.9,10-4.6,16,.1.2.8,1.2.8,1.4,0,.3-30.9,30.3-31.4,31.8-.2.6,0,48.3,0,79.4h-6.2s0-170.8,0-170.8c11.5-3.8,11.1-18.1,1.4-22.7-2.2-1.1-4.3-1.2-6.8-1-12.5,2.7-14.3,17.2-4.6,22.6l2.1,1.1.3,170.8h-5.7c.1-86.4.1-78.2,0-78.9-.2-1,.9.3-31.9-32.2,7.2-10.5-5.6-23.8-16.6-17-6,3.7-8.1,11.7-3.9,17.7,3.9,5.7,10.5,6.4,14.5,4,26.4,26.8,20.7,21.1,28.6,28.8.4.4,1.6,1.3,1.8,1.7,0,0,0,55.6,0,75.8h-5.5s0-59.4,0-59.4l-19.8-19.8c1.5-3.1,2.4-6.4,1.2-9.8-2.1-6.4-9.4-10.7-16.4-8.1-2.8,1-5.6,3.7-6.7,6.4l-.4,1.3c-2.2,7.2,2.2,13.9,8.2,15.7,4.2,1.2,7.9-.6,8.4-.5,0,0-.6-.6,13.1,13.3,1.6,1.6,3.8,3.3,5.1,5.1v55.9c0,0-5.8,0-5.8,0v-27.3c0-4.3.3-9.1-.2-13.3l-35.4-35.5v-78.9c3.3-1.4,6.2-3.3,7.7-6.7,4.4-10.3-6.3-21.4-16.6-16.2-5.9,3-9,10.9-5.6,17.1,1.5,2.7,4.1,5,7.1,6v82.1c-.1,0,35.4,35.8,35.4,35.8v36.9s-5.2,0-5.2,0c0-32.8,0-30.7-.2-31.1-.6-1.8-33.3-34.1-35.4-36.2-1.8-1.7-1.3-.7-1.4-3.1-.4-62.5,0-59.1-.2-59.7-.5-1.7-7.9-7.9-12.2-12.9,1.6-4.2,2.6-7.9.7-12.2-1.4-3.1-3.8-5.4-7-6.6-6.7-2.5-14,1.8-15.8,8-2.2,7.3,2.2,14,8.6,15.6,2.5.6,4.8.2,7.2-.5l11.1,11.3.2,62.1c6.9,6.9,36.4,36.5,36.5,36.8.3.5.2-1.7.2,26.1-62-62.2-60.2-60.3-60.2-60.4,0,0,0-31.2,0-31.2,0-2.3.3-1.4-.9-2.8-4.8-4.9-.6-.7-21.1-21.5,2.1-3.4,3-6.5,2.1-10.5-2.5-10.6-17.5-12.7-22.5-2.6-3.3,6.7-.1,14.2,6.6,16.9,2.4,1,5,1,7.5.7,3.5,3.6,20.6,20.9,20.8,21.3,0,0,0,15.3,0,27.7h-18.7c-2.3,0-6.1.6-7-.3l-20.9-21.5c1.3-3.1,2.1-5.8,1.4-9.2-2.2-11.1-17.2-13.3-22.5-3.5-3,5.6-1.3,13.3,5.4,16.7,5,2.5,8.9.6,9.5.9.3.1,23.6,24.4,24.7,24.6.3,0,30.4,0,30.8,0,.2,0,40.7,40.8,59.9,60.5h-26.6q-37.4-37.6-37.4-37.7c-.3-.2-60.8,0-60.8-.1-.3-.1-11.1-11-11.3-11.2.8-3.9.7-7.3-1.6-10.8-3.8-5.6-11.7-7.2-17.4-3-11.3,8.4-1.2,26.6,12.4,20.5.4-.2,1.3-.8,1.7-.8.7,0,11.1,11.7,12.8,12.7.1,0,60.1,0,60.8.1.7.2,2.3,2.9,36.7,36.6,1.7,1.6.9,1.2,2.9,1.3,6,0,.5,0,30,0v5.3c-39.9,0-37,0-37.4,0-.6-.2,0,.2-17.7-17.7-13.8-13.4-10.1-9.8-17-16.6-2.6-2.6-1.4-1.9-4.8-1.9-4.2,0-77.9,0-77.9,0-.4-.4-.8-2-1.2-2.7-3.8-7.1-13.6-8.1-19.1-2.3-4.6,4.8-4.8,12.3.5,17.4,4.4,4.2,12.3,4.4,17.1-.9,1.1-1.2,1.9-2.6,2.7-4.1,7.2,0,76.9-.2,77.4,0,.3.1,16.7,16.4,27.7,27.3,1.3,1.3,8.1,8.7,9.4,9.1.1,0-2,0,40.3,0v5.2s-56.6,0-56.6,0c-15.7-15.7-15.8-15.3-17.3-17.8,3.8-11.9-8.5-20.6-17.6-15.4-6,3.5-7.9,11.9-4.4,17.1,1.8,2.6,5,5.2,8.2,5.6,3,.4,5.6-.2,8.2-1.7l16.1,16c1.1,1.1,2.6,3,3.9,3.8.3.2-2.6.1,59.5.1v5.2s-76.8,0-76.8,0c-4.1-4.8-28.2-28-28.8-29.3,5.2-8.9-4.1-20.2-14.4-17.2-6,1.7-10.2,8.6-8.1,15.2,1,3.2,3.4,6.1,6.4,7.7,2.3,1.2,5.8,1.5,8.3.7l1.9-.9c33.7,33.5,31.7,31.7,31.7,31.7.5.2,2.2,0,2.8,0,12.3,0-1.5,0,77.1,0v5.5s-170.5,0-170.5,0c-1.8-3.7-4-6.3-8-7.6-2.9-1-6.5-.6-9.2.8-6.7,3.4-8.4,11.3-5.3,17.1,4.6,8.8,18.3,9.4,22.6-2.2l170.5-.2v5.4s-79.9.2-79.9.2c-29.8,30.2-28.7,29.1-29.4,29.4-3.6-1.8-6.8-2.8-10.9-1.4-6.6,2.2-9.9,9.8-7.5,16,2.4,6.3,9.5,9.7,15.9,7.1,3.7-1.5,6.8-4.9,7.4-9.2.1-1.1.2-1.8,0-4.1-.2-2.1-.5-1.2.8-2.8,5.7-6.2,25.8-26.1,27.1-27.3l76.4-.2v5.5s-59.1-.3-59.1-.3l-19.9,19.7c-3.9-1.4-7.2-2.1-11.1-.2-7,3.3-9.2,10.9-6.5,16.4,1.4,2.8,4.1,5.6,7.1,6.6,3.2,1.1,7,.8,10-.7,3-1.6,4.9-4.5,5.9-7.7.8-2.8.4-5.4-.7-8,2-2,17.6-18,18.1-18.1.5-.1,1.5,0,2.1,0,6.1,0-3,0,54.1,0v5.4s-41.9,0-41.9,0l-35.4,35.7h-76.9c-1.4-3.3-3.5-6.2-7.1-7.6-3.1-1.2-6.7-.9-9.7.4-6.5,3-8.7,11-5.7,17,4.1,8.2,17.6,10,22.4-2.1,70.3-.3,55.6-.2,75.9-.3,5.2,0,4,.6,7.1-2.4,33.2-33.5,27.8-27.9,31.9-32.3,1-1.2.2-.8,2.8-.8,7.2,0,1.1,0,36.6,0v5.4s-32.7,0-32.8,0c-.4.1-36.8,37-37,37.1-.3.1-36.6,0-44.8,0-5.5,0-11.4-.5-16.9,0l-12.4,12.3c-3.7-1.7-7.2-2.4-11-1-2.9,1.1-5.5,3.5-6.8,6.3-2.9,6.5.5,14.5,6.7,16.8,10,3.8,20.3-6.2,15.8-16.4l7.9-7.7c.7-.7,1.8-2.3,2.6-2.8.6-.4,2.7-.1,3.5-.1,13.3.1,58,.2,58.2,0,1.7-.7,36.4-36.6,37.6-37,0,0,27.3,0,27.4,0l-60.2,60.4c-31.7,0-30.5,0-30.7.1-1.5.8-.8.4-17.5,17.1-6.8,6.8-5.7,6.1-6.5,5.9-17.8-4.8-22.8,21.1-5.9,24.3,2.8.5,6.8-.6,9.1-2.3,2.5-1.8,4.3-4.7,4.7-7.8.8-6.2-1.6-8.1-1.6-9,0-.4,18.1-18.7,20.1-20.8h25.9c0,23.7,0,18.9,0,25,0,2.4.7,1.1-3.2,5.1l-17.8,17.8c-14.3-2.6-19.3,11.3-13.6,19.3,3.9,5.4,11.9,6.8,17.2,2.7,5-3.8,6.9-10.9,2.7-17.4,2.8-3.2,21.9-21.6,22.2-23.1.3-1.3,0-3.7,0-5.1v-20.5c0-1.4-.4-4.8,0-6,.2-.5-2.9,2.7,46.7-46.5,4.4-4.4,8.7-9.4,13.5-13.3,0,27.3.2,25.2,0,25.5-.5.9-36.2,35.6-36.6,36.7,0,.1,0,61.1,0,61.3-.6,1.3-11.4,11.8-11.5,11.8-3.8-.8-7-.7-10.4,1.4-9.7,6.2-5.7,20.5,4.5,22.1,6.8,1.1,13.3-3.1,14.5-11,.4-2.8-.6-5.7-2.1-7.9.9-.9-.3.3,9.4-9.7.7-.7,2.7-2.4,2.9-3.2,0,0,0-61.4,0-61.5.2-.4,1.1-1.1,1.4-1.4,10.8-10.4,11.8-11.8,32.7-32.2.7-.7,2.5-2.1,2.9-3,.2-.5,0-28.1,0-30.8h5.2c0,33,0,26.5,0,33.8,0,2.8,4.2-2-35.2,37.4v82c-11.9,4.8-10.5,19.8-.4,23.4,5.8,2.1,13.1-1.1,15.2-7.7,1.9-6.1-.8-12.1-5.6-14.7-.4-.2-1.4-.6-1.7-.9,0,0-.4-74.7.2-79,10.6-10.7,34.9-34.8,35.1-35.5.1-.3,0-29.3.1-38.8h5.6s0,54.9,0,54.9l-17.6,17.5c-3.7-1.2-7-1.7-10.7,0-6.3,3-8.7,10.6-5.3,16.5,4.9,8.6,20,8.1,22.4-3.6.9-4.6-1-6.3-.7-7.5,0-.3-1.1,1.1,16.3-16.3,3.8-3.9,3-2.4,3.1-5.9,0-12.8,0-2.3,0-55.5,1.3-.5,4-.1,5.5-.1,0,7.3.3,74.8,0,75.4-.2.3.5-.5-6.6,6.6-19.8,19.7-18.1,18.3-20,19.7-17.4-7.4-24.8,13.2-12.9,20.6.3.2,2.2,1.1,2.3,1.3.1.2,0-.7,0,12.6-6.5,2.2-9.4,9.8-7.4,15.1,2.4,6.1,10,10.3,17.1,7,2.9-1.3,5.2-4.1,6.2-7.1.9-2.7.6-5.8.8-6.2,0-.2,29.6-29.5,30-30.3.3-.6-.5-5.2,0-10.8l-34.3,34.5c-1.5-1.2-2.7-1.9-5.1-2.6v-12.2c3.4-1.3,6.2-3.4,7.6-6.7,2-4.8.8-8.5,1-9.4,0-.4,27.3-27.7,27.5-27.9,1.6-1.7,1.1-1,1.1-4,0-15,0-1.9.2-75.8h5.3s.2,169.3.2,169.3c-3.5,1.6-6.3,3.8-7.7,7.6-4.2,11.8,9,20.8,18.4,14.5,7.5-5.1,7.1-16.5-.7-20.8-.4-.2-1.8-.7-2-.9-.2-.2,0,6.8-.3-169.6h5.1c.1,69.7,0,56,.1,73.4,0,5.4-1.6,2.7,5.5,9.9,25.9,26.4,24.5,24.9,24.6,25.2,0,.3-4.8,8.8,6.7,15.6v11.7c-1.9.8-3.3,1.7-4.8,3l-33.9-34.3c0,11.3,0,10.3,0,10.6.7,1.7,29.8,30.1,29.9,30.4.2.4,0,1.7.1,2.3.5,6.7,5.9,12,13,11.8,6.5-.2,12-5.7,11.7-12.6-.1-3.4-2.3-7.8-6.2-10-.7-.4-1.8-.7-2.3-1.3v-11.8c12.7-4.3,12.2-21.4-1.5-23.6-1.8-.3-3.6,0-5.3.6-.6.2-2.4,1.1-3,1-1-.2-24-24.5-26.9-27.3v-74.7s5.5,0,5.5,0c0,61.2-.2,57.2,0,57.7.5,1.1,19.8,20,20,21,0,.2-.7,1.7-.8,2-4.3,12.2,10.8,21.6,19.7,12.6,4.7-4.8,5-12.8-.2-17.7-2.3-2.1-5.3-3.3-8.4-3.1-1.5,0-2.8.5-4.2,1.1-1.4-.3-16.2-16.2-18.3-18.2v-55.4c0,0,6,0,6,0,.1,42.1,0,39.1.2,39.6.2.6,35,35.6,35.2,35.7v77.6c-3.4,1.7-6.3,3.9-7.6,7.7-2.4,6.9,1.7,14.2,7.9,16.1,7.4,2.2,14.1-2.3,15.7-8.8,1.6-6.1-1.5-12.8-8.3-15.1,0,0,0-80.5,0-80.6-.2-.8-35.3-34.9-35.6-36,0-.3,0,3,0-36.3h5.7c0,27.9,0,22.3,0,29.1,0,2.4-.3,1.6.9,3,.9,1.1-.4-.3,21,21.3,1.7,1.7,13.7,13.1,14.1,14.3.2.5-.4,58.5.2,59.7.4.9,9.1,8.5,13.1,13.3-4.1,6.1-4.1,14,2.9,18.5,5.8,3.8,13.9,1.9,17.3-4,3.9-6.7,1.3-14.4-4.9-17.7-4.6-2.4-8.3-1.1-8.8-1.3-1.2-.5-11.2-11-11.9-12-.1-64.4,0-58.9,0-59.5-.3-1.4-35.9-36-36.1-36.4-.3-.6,0-24.2,0-26.8,61.5,61.2,59.5,59.3,59.6,59.7.3,1.1,0,3.8,0,5,0,21.7,0,16,0,25.6,0,2.7-.4,1.7,1,3.3,6.1,6.3,20.7,21,21.1,21.4-7.6,11.6,2.9,22.2,12.9,19.6,7.2-1.8,10.8-9.1,9-15.3-1.8-6.3-7.9-10.5-15.5-9-19.4-19.2-19.1-18.7-20.9-21v-19.9c0-1.9-.5-5.4.1-7.1,24.3,0,22.9-.3,24.9.1.8.2,11.7,12.1,19.8,19.7.6.5,1.5,1.1,1.8,1.9-1.7,3.5-2.4,7-1,10.8,1.1,3,3.9,5.8,6.9,7,6.5,2.7,13.8-.8,16.1-7,3.2-8.7-4.3-17.1-12.6-16.1-.4,0-3,.7-3.1.6-1-.5-2.7-2.7-3.6-3.5-21.3-21.6-20.5-21-21.2-21.2-1.5-.3-3.8,0-5.4,0h-19.3c-1.2,0-4.6.3-5.5-.1-.5-.2,4.7,4.7-60.4-60.4v-.2s26.3,0,26.3,0l37.6,37.6h62c3.4,3.4,6.9,7.7,10.9,10.5-.7,4.1-.9,7.5,1.7,11,6.2,8.7,20.6,5.9,21.9-5.6,1.1-10.4-9.5-17.3-19-11.4l-12.1-12.1-62.5-.2c0,0-36-35.8-37.2-37.6h-31.1s0-5.2,0-5.2h38c37.8,38.4,34.4,34.4,36,36.5l80.3-.2c3.8,11.2,18.3,10.9,22.4,1,2.7-6.5-.7-14.1-6.5-16.4h0Z"/>
          <path class="st23" d="M368.7,121.5c.4-1.2,1.4-2,2.5-2.5.6,0,1.2-.2,1.7-.1,3.6.4,5.1,5.4.9,8-.7,0-1.6.2-2.3,0-2.2-.3-3.6-2.9-2.8-5.4M364.8,132.6c4.8,3.8,9.8,3.5,15,.4,31.9,31.9,25.1,25.2,34,34v-11.1c-31.5-31.3-28.9-28.6-29.7-29.7.8-3.6.6-6.7-1.4-10-1.7-2.6-4.2-4.6-7.2-5.3-1.1-.3-2.3-.3-3.5-.3-3.7.4-6.7,1.5-9.1,4.5-2.4,2.9-3.1,6.2-2.7,9.9.4,3.3,2,5.7,4.5,7.7Z"/>
          <path class="st23" d="M467.6,120.8c.7-1.3,1.7-1.8,3-2.2l1.8.2c2,.5,3.4,2.8,2.5,5.3-.4,1.4-1.6,2-2.8,2.6-1.3,0-2.1,0-2.9-.3-.8-.4-1.7-1.4-2-2.2-.3-1-.2-2.5.3-3.4ZM429.2,155.4c-.2.5,0-.8-.1,11.1.4-.2,34.5-34,34.5-34.1,3.5,2.1,7.2,3.3,11.3,2.2,13.2-3.5,10.9-25.1-5.1-24.1-7.5,1.4-11.1,6.7-10.9,13.9,0,1.9.4,1.1-1,2.5-30.4,30.1-28.7,28.3-28.7,28.4"/>
          <path class="st23" d="M178.9,282.5c.7-.1,1.6-.2,2.2,0,1.8.5,3.3,2.9,2.5,5.2-.4,1.3-1.4,1.8-2.6,2.3-.7,0-1.4.2-2.1,0-3.2-.7-4.2-5.7-.1-7.5ZM173.6,296.8c5.6,3.6,13.4,1.8,17.1-4.4l1-2.1h14.8c1,0,3.2-.3,4,0,.4.2,29.5,29.6,29.5,29.7,1,.9,3.1,3.3,4.3,3.8.3.1-.9,0,11.2,0-24.4-23.9-40.2-39.4-41.7-41.3h-22.3c-2.1-5.7-5.9-9.1-12.7-8.7-3.6.6-6.4,1.9-8.5,4.9-4,5.5-3.1,13.8,3.3,17.8Z"/>
          <path class="st23" d="M659.4,284.7c.5-1.1,1.4-1.7,2.5-2.2,3.6-.8,5.8,1.8,4.6,5.7-.7.9-1.3,1.3-2.3,1.8-1,.1-2.1.2-3-.2-1.9-.8-2.6-3.3-1.8-5.2M651.5,282.7h-17.2c-.9,0-4.1-.3-4.7,0-.1,0,1.8-1.8-40.6,41.1h7.8c3.3,0,2.1.8,5.4-2.4,7.7-7.6,30.6-30.8,30.6-30.8.4-.2-.7-.1,18.7,0,1.9,3.7,3.8,6.1,7.9,7.5,3,1,6.5.7,9.2-.8,12-6.2,6.5-24.3-7-23.2-4.6.8-7.8,2.7-10.2,8.5Z"/>
          <path class="st23" d="M459.6,369.2h-75.9c0,0,.1-74.9.1-74.9h75.8s0,74.9,0,74.9h0ZM378.3,288.9v86.1c0,0,86.8.1,86.8.1v-86c-.6-.2,5.3-.2-86.8-.2Z"/>
        </g>
        <path class="st23" d="M397.3,307.5h49.1v48.5c0,0-49.2,0-49.2,0v-48.5ZM451.3,361.1v-58.8c0,0-59.1,0-59.1,0v58.9s59.1,0,59.1,0Z"/>
        <g class="st9">
          <path class="st23" d="M184,378.4c-.4,1.3-1.3,1.9-2.5,2.5-.9,0-1.8.2-2.6-.1-2.1-.7-2.8-3.3-2.1-5.3.4-1.1,1.2-1.7,2.3-2.2.7-.2,2-.3,2.7,0,2.1.7,2.8,3.1,2.2,5.1ZM190.4,384.1c.7-1,1.1-2,1.5-3.1,2.6,0,20.9.4,21.8,0,.4-.2,23.4-23.2,42-41.7h-11c-12.1,12.1-6.1,6.1-27.2,27.1-7.1,7.5-6.2,6.8-6.7,7-.7.4-16.6,0-18.8,0-4.5-12.1-19-10.5-23-.9-2,5-1,10.3,3.7,14.4,6.1,4.2,13.4,3.3,17.6-2.8Z"/>
          <path class="st23" d="M664.5,381.1c-2,0-3.5.3-4.8-1.9-.5-.9-.6-2.2-.4-3.2.4-1.4,1.6-2.1,2.8-2.8.8,0,1.8-.1,2.6.2,3,1.2,3.3,6.2-.2,7.6M665.5,365.2c-5.5-1.1-11.1,1.4-14.1,8.3h-18.1c0,.1-33.5-33.8-33.5-33.8h-10.8c33.1,33.6,40.4,41.3,40.5,41.3.1,0-1.5,0,22,0,1.4,3.3,3.5,6.4,7,7.8,3.3,1.3,7,1.1,10.2-.5,9.7-4.6,9.2-20.7-3.2-23.2Z"/>
        </g>
        <g class="st7">
          <g class="st5">
            <g class="st8">
              <polygon class="st21" points="391.6 181.1 316.4 181.1 316.4 299.7 403.9 299.7 403.9 192.2 391.6 181.1"/>
            </g>
          </g>
        </g>
        <polygon class="st15" points="408.7 295.6 320.3 295.6 320.3 177.5 390.6 177.5 408.7 195.7 408.7 295.6"/>
        <g class="st14">
          <path class="st18" d="M363.5,239.7h-20.6c-6.6,0-12-5.4-12-12v-25.8c0-6.6,5.4-12,12-12h20.6c6.6,0,12,5.4,12,12v25.8c0,6.6-5.4,12-12,12"/>
          <path class="st18" d="M394.7,219.3h-10.3c-1.3,0-2.3-1-2.3-2.3s1-2.3,2.3-2.3h10.3c1.3,0,2.3,1,2.3,2.3s-1,2.3-2.3,2.3"/>
          <path class="st18" d="M400.7,228h-16.3c-1.3,0-2.3-1-2.3-2.3s1-2.3,2.3-2.3h16.3c1.3,0,2.3,1,2.3,2.3s-1,2.3-2.3,2.3"/>
          <path class="st18" d="M400.7,236.7h-16.3c-1.3,0-2.3-1-2.3-2.3s1-2.3,2.3-2.3h16.3c1.3,0,2.3,1,2.3,2.3s-1,2.3-2.3,2.3"/>
          <path class="st18" d="M357.4,255.6h-24.3c-1.3,0-2.3-1-2.3-2.3s1-2.3,2.3-2.3h24.3c1.3,0,2.3,1,2.3,2.3s-1,2.3-2.3,2.3"/>
          <path class="st18" d="M374.2,264.3h-41.1c-1.3,0-2.3-1-2.3-2.3s1-2.3,2.3-2.3h41.1c1.3,0,2.3,1,2.3,2.3s-1,2.3-2.3,2.3"/>
          <path class="st18" d="M374.2,281.2h-41.1c-1.3,0-2.3-1-2.3-2.3s1-2.3,2.3-2.3h41.1c1.3,0,2.3,1,2.3,2.3s-1,2.3-2.3,2.3"/>
          <path class="st18" d="M347.2,273h-14c-1.3,0-2.3-1-2.3-2.3s1-2.3,2.3-2.3h14c1.3,0,2.3,1,2.3,2.3s-1,2.3-2.3,2.3"/>
          <path class="st18" d="M400.7,273h-16.2c-1.3,0-2.3-1-2.3-2.3s1-2.3,2.3-2.3h16.2c1.3,0,2.3,1,2.3,2.3s-1,2.3-2.3,2.3"/>
          <path class="st18" d="M386.2,264.3h-3.8c-1.3,0-2.3-1-2.3-2.3s1-2.3,2.3-2.3h3.8c1.3,0,2.3,1,2.3,2.3s-1,2.3-2.3,2.3"/>
          <path class="st18" d="M400.9,264.3h-6.8c-1.2,0-2.1-1-2.1-2.1s1-2.1,2.1-2.1h6.8c1.2,0,2.1,1,2.1,2.1s-1,2.1-2.1,2.1"/>
          <g class="st5">
            <g class="st11">
              <rect class="st21" x="362.6" y="307.7" width="68.6" height="93"/>
            </g>
          </g>
        </g>
        <rect class="st15" x="365.6" y="304.9" width="69.2" height="92.5"/>
        <g class="st10">
          <path class="st18" d="M396.8,353.7h-11c-6.6,0-12-5.4-12-12v-15c0-6.6,5.4-12,12-12h11c6.6,0,12,5.4,12,12v15c0,6.6-5.4,12-12,12"/>
          <path class="st18" d="M424,337.7h-8.4c-.9,0-1.7-.7-1.7-1.7v-.3c0-.9.7-1.7,1.7-1.7h8.4c.9,0,1.7.7,1.7,1.7v.3c0,.9-.7,1.7-1.7,1.7"/>
          <path class="st18" d="M428.7,344.5h-13.1c-.9,0-1.7-.7-1.7-1.7v-.3c0-.9.7-1.7,1.7-1.7h13.1c.9,0,1.7.7,1.7,1.7v.3c0,.9-.7,1.7-1.7,1.7"/>
          <path class="st18" d="M428.7,351.3h-13.1c-.9,0-1.7-.7-1.7-1.7v-.3c0-.9.7-1.7,1.7-1.7h13.1c.9,0,1.7.7,1.7,1.7v.3c0,.9-.7,1.7-1.7,1.7"/>
          <path class="st18" d="M394.8,366.1h-19.4c-.9,0-1.7-.7-1.7-1.7v-.3c0-.9.7-1.7,1.7-1.7h19.4c.9,0,1.7.7,1.7,1.7v.3c0,.9-.7,1.7-1.7,1.7"/>
          <path class="st18" d="M408,372.9h-32.5c-.9,0-1.7-.7-1.7-1.7v-.3c0-.9.7-1.7,1.7-1.7h32.5c.9,0,1.7.7,1.7,1.7v.3c0,.9-.7,1.7-1.7,1.7"/>
          <path class="st18" d="M408,386.2h-32.5c-.9,0-1.7-.7-1.7-1.7v-.3c0-.9.7-1.7,1.7-1.7h32.5c.9,0,1.7.7,1.7,1.7v.3c0,.9-.7,1.7-1.7,1.7"/>
          <path class="st18" d="M386.8,379.7h-11.3c-.9,0-1.7-.7-1.7-1.7v-.3c0-.9.7-1.7,1.7-1.7h11.3c.9,0,1.7.7,1.7,1.7v.3c0,.9-.7,1.7-1.7,1.7"/>
          <path class="st18" d="M428.7,379.7h-13c-.9,0-1.7-.7-1.7-1.7v-.3c0-.9.7-1.7,1.7-1.7h13c.9,0,1.7.7,1.7,1.7v.3c0,.9-.7,1.7-1.7,1.7"/>
          <path class="st18" d="M417.4,372.9h-3.3c-.9,0-1.7-.7-1.7-1.7v-.3c0-.9.7-1.7,1.7-1.7h3.3c.9,0,1.7.7,1.7,1.7v.3c0,.9-.7,1.7-1.7,1.7"/>
          <path class="st18" d="M428.9,372.9h-5.7c-.8,0-1.5-.7-1.5-1.5v-.3c0-.8.7-1.5,1.5-1.5h5.7c.8,0,1.5.7,1.5,1.5v.3c0,.8-.7,1.5-1.5,1.5"/>
        </g>
        <g class="st13">
          <path class="st19" d="M408.2,254.2c.8,0,1.6,0,2.3-.1,14.7-1.3,25.7-14.3,24.4-29-.6-7.1-4-13.6-9.5-18.2-5.5-4.6-12.4-6.8-19.6-6.2-7.1.6-13.6,4-18.2,9.5-4.6,5.5-6.8,12.4-6.2,19.6,1.2,14,13,24.5,26.7,24.5M408.3,207.2c4.7,0,9.2,1.6,12.9,4.7,4.1,3.5,6.6,8.3,7.1,13.7,1,11-7.2,20.8-18.3,21.8-.6,0-1.2,0-1.8,0-10.3,0-19.1-7.9-20-18.4-.5-5.4,1.2-10.6,4.6-14.7,3.5-4.1,8.3-6.6,13.7-7.1.6,0,1.2,0,1.8,0"/>
          <path class="st19" d="M411.1,263c0,0,.1,0,.2,0,1.2-.1,2.1-1.2,2-2.4l-.7-8.3c-.1-1.2-1.2-2.1-2.4-2-1.2.1-2.1,1.2-2,2.4l.7,8.3c.1,1.2,1.1,2,2.2,2"/>
          <path class="st19" d="M414.6,306.3c.2,0,.3,0,.5,0,3.1-.3,5.4-3,5.1-6.1l-3.3-37.5c-.3-3.1-3-5.4-6.1-5.1-3.1.3-5.4,3-5.1,6.1l3.3,37.5c.3,2.9,2.7,5.1,5.6,5.1"/>
          <path class="st1" d="M490.8,248.8c8,1.4,12.7-6.1,10.4-12,.7-12.1-4.5-23.9-22.5-17.5-9,1.1-12.4,13-5,16.1,9.8,8.7,17.2,13.4,17.2,13.4"/>
          <path class="st16" d="M483.6,253.5c.6,3.4.6,7.4-4.2,10.7.1,15.1,22.3-.6,22.2-2.9,0-.3-4.1-1.2-5.5-3.8-1.5-2.6-2.2-9.2-1.6-18-3.4.9-4.6-1.8-4.7-6.5,0-4.7-2.3-12.2-11.4-11-3.4,4.2-5.3,6.9-5,12.3.3,5.5-.3,9.3.3,12,.6,2.6,3.5,7.4,9.9,7.2"/>
          <path class="st16" d="M499,241.3c0,1.5-1.3,2.8-2.8,2.8s-2.8-1.3-2.8-2.8,1.3-2.8,2.8-2.8,2.8,1.3,2.8,2.8"/>
          <path class="st16" d="M511.9,430.4c-1-2.4,4.2-39.7,2.4-47.8l-31.4.3s4.2,46.5,4.2,52.3,8.2,53.9,10.5,77.1c.4,4.1.3,8.3-.4,12.4-.2,1.2-.5,2.3-.7,2.9-1,2-8.2,9.1-11.5,15.1-.3.7-7.8,1.9-6.6,3.7.7.4,13.7,1.3,15.2,0,1.5-1.4,4.9-4.9,8.8-5.7.2,0,.3,6.3.3,6.3h5.6s.6-5.6.9-7.3c.2-1.7,2.2-4.3.8-6.9-1.3-2.6-2.7-7.4-2.4-14.5,2.6-19.7,10.3-75,4.4-87.8"/>
          <path class="st1" d="M484.9,542.7c2.4.3,5,.8,5.9.4,1.2-.5,9.2-10.6,18.1-13.1.3,1.1.7,2,1.1,2.7,1.3,2.6-.6,5.2-.8,6.9-.2,1.7-.9,7.3-.9,7.3h-5.6s0-6.3-.3-6.3c-3.9.8-7.3,4.3-8.8,5.7-1.5,1.4-14.5.4-15.2,0-1.1-1.7,5.9-2.8,6.6-3.6"/>
          <path class="st16" d="M481.2,430.4c-1-2.4,10.2-39.7,8.4-47.8l-31.4.3s-1.8,46.5-1.8,52.3,4.9,53.9,7.2,77.1c.4,4.1.3,8.3-.4,12.4-.2,1.2-.5,2.3-.7,2.9-1,2-8.2,9.1-11.5,15.1-.3.7-7.8,1.9-6.6,3.7.7.4,13.7,1.3,15.2,0,1.5-1.4,4.9-4.9,8.8-5.7.2,0,.3,6.3.3,6.3h5.6s.6-5.6.9-7.3c.2-1.7,2.2-4.3.8-6.9-1.3-2.6-2.7-7.4-2.4-14.5,2.6-19.7,10.1-78.1,7.7-87.8"/>
          <path class="st20" d="M509.9,265.2c14.6,13.1,25.9,49.2,23.8,58.3-2.1,9.1-23.9,8.5-35.9.7-12-7.8,12.1-59,12.1-59"/>
          <path class="st2" d="M480.8,259.9c-5.8,1.6-9.1,5.2-9.1,5.2,0,0-19.5,16.6-14.5,25.4,5,8.9,6.3,28.5,6.3,28.5l39.5.5c0-1.3,10.7-21.9,12.5-32.4,1.8-10.5-2.8-24-12.9-26.2s-21.8-1-21.8-1"/>
          <path class="st3" d="M462.7,326.1c-19.3,15.9-9.4,92.2-9.4,92.2h64.5c3.1-49.7.3-85.2-15.4-93-15.7-7.8-39.7.8-39.7.8"/>
          <rect class="st3" x="462.7" y="319.1" width="40.1" height="7"/>
          <path class="st16" d="M423.2,279.3c-.8-1.2-5.4-8.7-6.2-9.4-.8-.7-9.8-4.6-10.6-4.7-.3,0-.7,0-1,0-.5,0-1,.3-1.3.8-.6,1.3-.4,2.3.3,2.7,1.8.9,1.6,1.1,1.8,1.4.2.2,1.8,1.5,1.5,1.8-.3.3-1,5.1-1.1,6.6s1.1,3.5,3,4.8c2,1.3,12.2,4.6,12.2,4.6l1.3-8.4Z"/>
          <path class="st1" d="M450.9,542.7c2.4.3,5,.8,5.9.4,1.2-.5,9.2-10.6,18.1-13.1.3,1.1.7,2,1.1,2.7,1.3,2.6-.6,5.2-.8,6.9-.2,1.7-.9,7.3-.9,7.3h-5.6s0-6.3-.3-6.3c-3.9.8-7.3,4.3-8.8,5.7-1.5,1.4-14.5.4-15.2,0-1.1-1.7,5.9-2.8,6.6-3.6"/>
          <path class="st1" d="M489,275.3c.8,5.5,5,6.4,23.2,6.6,18.3.3,7.2-19.6,1.4-23.5-5.8-3.9.4-32.7-17.7-37.9,0,0,3.7,20.6,3.7,21.1s-.2,2.1-.2,2.1l-1.3.4-1.6.5h-1.7l-.6-1.2c0,7.7-24.4,10.8-22.7,21.7,11.7-5.9,13.4-1.4,13.9,3.3.6,4.6,0,8.3,3.4,6.9"/>
          <path class="st17" d="M471.7,265.1c-11.3,4.2-23,28.6-29.1,28.2-6.1-.3-19.5-13.4-19.5-13.4l-5.7,6.3c0,9.1,8.9,40.2,26,42.7,17.1,2.4,33.8-23.2,36.6-38.3,3.7-20-8.2-25.4-8.2-25.4"/>
        </g>
        <polygon class="st3" points="335.3 211.3 349.2 229 372.4 200.5 348.7 217.7 335.3 211.3"/>
        <g class="st12">
          <path class="st19" d="M401.8,340.7c-.4-.2-.8-.1-1.1.2-2.1,3.2-5.7,5.1-9.5,5.1-6.3,0-11.4-5.1-11.4-11.4s1.7-7,4.5-9.1l1,1.5,3-4.8-5.6.6.8,1.3c-3.3,2.4-5.3,6.2-5.3,10.4,0,7.1,5.8,12.9,12.9,12.9s8.4-2.2,10.8-5.8c.2-.4.1-.8-.2-1.1"/>
          <path class="st19" d="M404.2,334.3c-.2-7-5.9-12.6-12.9-12.6s-.8.3-.8.8.3.8.8.8c6.1,0,11.1,4.9,11.4,10.9l-1.9-.2,1.9,5.3,3-4.8h-1.5Z"/>
        </g>
      </g>
    </g>
  </g>
</svg>