<?xml version="1.0" encoding="utf-8"?>
<!-- Generator: Adobe Illustrator 28.1.0, SVG Export Plug-In . SVG Version: 6.00 Build 0)  -->
<svg version="1.1" id="Layer_1" xmlns="http://www.w3.org/2000/svg" xmlns:xlink="http://www.w3.org/1999/xlink" x="0px" y="0px"
	 viewBox="0 0 841.9 595.3" style="enable-background:new 0 0 841.9 595.3;" xml:space="preserve">
<style type="text/css">
	.st0{fill:#93ADDA;}
	.st1{fill:#F5F4FA;}
	.st2{fill:#203365;}
	.st3{fill:#B4B4B4;}
	.st4{fill:#DBDADA;}
	.st5{fill:#9C9B9B;}
	.st6{fill:#C8C6C6;}
	.st7{fill:#939598;}
	.st8{fill:none;}
	.st9{fill:#FBCCC8;}
	.st10{fill:#010101;}
	.st11{fill:#5467A3;}
	.st12{fill:#FFFCE6;}
</style>
<g>
	<polygon class="st0" points="436.4,157.8 317,226.3 317,170.8 436.4,102.2 	"/>
	<polygon points="303.5,163 303.5,218.5 317,226.3 317,170.8 	"/>
	<polygon class="st1" points="436.4,102.2 317,170.8 303.5,163 422.8,94.5 	"/>
</g>
<g>
	<polygon class="st2" points="335.2,200.3 432.1,255.9 432.1,200.3 335.2,144.8 	"/>
	<polygon class="st0" points="445.6,192.5 445.6,248.1 432.1,255.9 432.1,200.3 	"/>
	<polygon class="st1" points="335.2,144.8 432.1,200.3 445.6,192.5 348.8,137 	"/>
</g>
<g>
	<polygon class="st0" points="348.8,208.1 229.5,276.6 229.5,221.1 348.8,152.6 	"/>
	<polygon class="st2" points="215.9,213.3 215.9,268.8 229.5,276.6 229.5,221.1 	"/>
	<polygon class="st1" points="348.8,152.6 229.5,221.1 215.9,213.3 335.2,144.8 	"/>
</g>
<g>
	<polygon class="st3" points="278.6,201.1 280.9,203.1 279.4,208.3 277.2,206.3 	"/>
	<polygon class="st3" points="280.6,194.3 282.8,196.3 281.1,202.4 278.9,200.4 	"/>
	<polygon class="st3" points="282.5,187.4 284.7,189.4 283,195.5 280.8,193.5 	"/>
	<polygon class="st3" points="284.4,180.6 286.6,182.6 284.9,188.7 282.7,186.7 	"/>
	<polygon class="st3" points="286.3,173.8 288.5,175.8 286.8,181.9 284.6,179.9 	"/>
	<polygon class="st3" points="288.2,166.9 290.4,168.9 288.7,175 286.5,173 	"/>
	<polygon class="st3" points="290.1,160.1 292.3,162.1 290.6,168.2 288.4,166.2 	"/>
	<polygon class="st3" points="292,153.3 294.2,155.3 292.5,161.4 290.3,159.4 	"/>
	<polygon class="st4" points="278.9,200.4 281.1,202.4 265.5,211.4 263.3,209.3 	"/>
	<polygon class="st4" points="265.2,202.5 280.8,193.5 283,195.5 267.4,204.5 	"/>
	<polygon class="st4" points="267.1,195.7 282.7,186.7 284.9,188.7 269.3,197.7 	"/>
	<polygon class="st4" points="269,188.9 284.6,179.9 286.8,181.9 271.2,190.9 	"/>
	<polygon class="st4" points="270.9,182 286.5,173 288.7,175 273.1,184 	"/>
	<polygon class="st4" points="272.8,175.2 288.4,166.2 290.6,168.2 275,177.2 	"/>
	<polygon class="st4" points="274.7,168.4 290.3,159.4 292.5,161.4 276.9,170.4 	"/>
	<polygon class="st4" points="276.6,161.5 292.2,152.5 294.4,154.5 278.8,163.5 	"/>
	<polygon class="st4" points="278.5,154.7 294.1,145.7 296.3,147.7 280.7,156.7 	"/>
	<path class="st5" d="M282.6,149.9l15.6-9l1.4-5l0.8-0.4l-1.4,5l-0.2,0.7l-1.7,6.1l-0.2,0.7l-1.7,6.1l-0.2,0.7l-1.7,6.1l-0.2,0.7
		l-1.7,6.1l-0.2,0.7l-1.7,6.1l-0.2,0.7l-1.7,6.1l-0.2,0.7l-1.7,6.1l-0.2,0.7l-1.7,6.1l-0.2,0.7l-1.7,6.1l-0.2,0.7l-1.4,5.2l-0.8,0.4
		l1.4-5.2l-15.6,9l-1.4,5.1l-0.8,0.4l20.2-72.4l0.8-0.4L282.6,149.9z M267.4,204.5l15.6-9l1.7-6.1l-15.6,9L267.4,204.5 M271.2,190.9
		l15.6-9l1.7-6.1l-15.6,9L271.2,190.9 M269.3,197.7l15.6-9l1.7-6.1l-15.6,9L269.3,197.7 M273.1,184l15.6-9l1.7-6.1l-15.6,9
		L273.1,184 M278.8,163.5l15.6-9l1.7-6.1l-15.6,9L278.8,163.5 M276.9,170.4l15.6-9l1.7-6.1l-15.6,9L276.9,170.4 M265.5,211.4l15.6-9
		l1.7-6.1l-15.6,9L265.5,211.4 M280.7,156.7l15.6-9l1.7-6.1l-15.6,9L280.7,156.7 M275,177.2l15.6-9l1.7-6.1l-15.6,9L275,177.2"/>
	<polygon class="st6" points="333.8,239.6 331.6,238.9 330.2,232.1 332.4,232.7 	"/>
	<polygon class="st6" points="332.2,231.7 330,231.1 328.4,223.1 330.6,223.7 	"/>
	<polygon class="st6" points="330.4,222.7 328.2,222.1 326.6,214 328.8,214.6 	"/>
	<polygon class="st6" points="328.6,213.7 326.4,213 324.7,205 326.9,205.6 	"/>
	<polygon class="st6" points="326.8,204.6 324.5,204 322.9,195.9 325.1,196.6 	"/>
	<polygon class="st6" points="324.9,195.6 322.7,195 321.1,186.9 323.3,187.5 	"/>
	<polygon class="st6" points="323.1,186.5 320.9,185.9 319.2,177.9 321.5,178.5 	"/>
	<polygon class="st6" points="321.3,177.5 319,176.9 317.4,168.8 319.6,169.4 	"/>
	<polygon class="st6" points="319.4,168.5 317.2,167.8 315.6,159.8 317.8,160.4 	"/>
	<polygon class="st6" points="317.6,159.4 315.4,158.8 313.7,150.7 316,151.4 	"/>
	<polygon class="st6" points="314.4,143.8 315.8,150.4 313.5,149.8 312.2,143.2 	"/>
	<polygon class="st4" points="332.2,231.7 316.7,240.7 314.4,240.1 330,231.1 	"/>
	<polygon class="st4" points="330.4,222.7 314.8,231.7 312.6,231.1 328.2,222.1 	"/>
	<polygon class="st4" points="328.6,213.7 313,222.7 310.8,222 326.4,213 	"/>
	<polygon class="st4" points="326.8,204.6 311.2,213.6 308.9,213 324.5,204 	"/>
	<polygon class="st4" points="324.9,195.6 309.3,204.6 307.1,204 322.7,195 	"/>
	<polygon class="st4" points="323.1,186.5 307.5,195.5 305.3,194.9 320.9,185.9 	"/>
	<polygon class="st4" points="321.3,177.5 305.7,186.5 303.5,185.9 319,176.9 	"/>
	<polygon class="st4" points="319.4,168.5 303.9,177.5 301.6,176.8 317.2,167.8 	"/>
	<polygon class="st4" points="317.6,159.4 302,168.4 299.8,167.8 315.4,158.8 	"/>
	<polygon class="st4" points="298,158.8 313.5,149.8 315.8,150.4 300.2,159.4 	"/>
	<polygon class="st4" points="281.1,143.2 298.1,153.1 315.2,143.2 298.2,133.3 	"/>
	<path class="st3" d="M300.2,159.4l15.6-9l-1.3-6.6l0.8-0.4l1.3,6.6l0.2,1l1.6,8.1l0.2,1l1.6,8.1l0.2,1l1.6,8.1l0.2,1l1.6,8.1l0.2,1
		l1.6,8.1l0.2,1l1.6,8.1l0.2,1l1.6,8.1l0.2,1l1.6,8.1l0.2,1l1.6,8.1l0.2,1l1.4,6.8l-0.8,0.4l-1.4-6.8l-15.6,9l1.4,6.7l-0.8,0.4
		l-19.4-95.8l0.8-0.4L300.2,159.4z M314.8,231.7l15.6-9l-1.6-8.1l-15.6,9L314.8,231.7 M311.2,213.6l15.6-9l-1.6-8.1l-15.6,9
		L311.2,213.6 M313,222.7l15.6-9l-1.6-8.1l-15.6,9L313,222.7 M309.3,204.6l15.6-9l-1.6-8.1l-15.6,9L309.3,204.6 M303.9,177.5l15.6-9
		l-1.6-8.1l-15.6,9L303.9,177.5 M305.7,186.5l15.6-9l-1.6-8.1l-15.6,9L305.7,186.5 M316.7,240.7l15.6-9l-1.6-8.1l-15.6,9
		L316.7,240.7 M302,168.4l15.6-9l-1.6-8.1l-15.6,9L302,168.4 M307.5,195.5l15.6-9l-1.6-8.1l-15.6,9L307.5,195.5"/>
	<polygon class="st3" points="298.1,153.1 298.1,155.8 315.2,145.9 315.2,143.2 	"/>
	<polygon class="st6" points="283.3,145.2 281.1,143.2 260.9,215.6 263.1,217.6 	"/>
	<polygon class="st6" points="298.1,153.1 295.8,152.5 315.2,248.3 317.4,248.9 	"/>
	<polygon class="st6" points="281.1,143.2 281.1,145.9 298.1,155.8 298.1,153.1 	"/>
</g>
<g>
	<polygon class="st2" points="452.5,206.8 549.3,262.3 549.3,206.8 452.5,151.2 	"/>
	<polygon class="st7" points="562.9,199 562.9,254.6 549.3,262.3 549.3,206.8 	"/>
	<polygon class="st1" points="452.5,151.2 549.3,206.8 562.9,199 466.1,143.4 	"/>
</g>
<g>
	<polygon class="st2" points="228.8,276.5 348.2,345 348.2,289.5 228.8,220.9 	"/>
	<polygon class="st7" points="361.8,281.7 361.8,337.2 348.2,345 348.2,289.5 	"/>
	<polygon class="st1" points="228.8,220.9 348.2,289.5 361.8,281.7 242.4,213.1 	"/>
</g>
<g>
	<polygon class="st0" points="275.8,303.1 156.5,371.7 156.5,316.1 275.8,247.6 	"/>
	<polygon points="142.9,308.3 142.9,363.9 156.5,371.7 156.5,316.1 	"/>
	<polygon class="st1" points="275.8,247.6 156.5,316.1 142.9,308.3 262.2,239.8 	"/>
</g>
<g>
	<polygon class="st2" points="142.9,363.8 262.2,432.3 262.2,376.7 142.9,308.2 	"/>
	<polygon class="st8" points="275.8,368.9 275.8,424.5 262.2,432.3 262.2,376.7 	"/>
	<polygon class="st1" points="142.9,308.2 262.2,376.7 275.8,368.9 156.5,300.4 	"/>
</g>
<g>
	<polygon class="st0" points="569.2,258.5 449.9,327 449.9,271.4 569.2,202.9 	"/>
	<polygon points="436.3,263.6 436.3,319.2 449.9,327 449.9,271.4 	"/>
	<polygon class="st1" points="569.2,202.9 449.9,271.4 436.3,263.6 555.6,195.1 	"/>
</g>
<g>
	<polygon class="st2" points="363.9,293.2 525.2,385.2 525.2,329.7 363.9,237.6 	"/>
	<polygon class="st0" points="538.8,321.9 538.8,377.4 525.2,385.2 525.2,329.7 	"/>
	<polygon class="st1" points="363.9,237.6 525.2,329.7 538.8,321.9 377.4,229.9 	"/>
</g>
<g>
	<polygon class="st0" points="413.8,321.8 202.3,443.6 202.3,388 413.8,266.2 	"/>
	<polygon class="st2" points="188.7,380.2 188.7,435.8 202.3,443.6 202.3,388 	"/>
	<polygon class="st1" points="413.8,266.2 202.3,388 188.7,380.2 400.2,258.5 	"/>
</g>
<g>
	<polygon class="st2" points="520,286.9 598.9,332.2 598.9,276.7 520,231.3 	"/>
	<polygon class="st0" points="612.5,268.9 612.5,324.4 598.9,332.2 598.9,276.7 	"/>
	<polygon class="st1" points="520,231.3 598.9,276.7 612.5,268.9 533.6,223.5 	"/>
</g>
<g>
	<polygon class="st3" points="348.7,361.7 346.5,363.7 345.1,358.6 347.3,356.6 	"/>
	<polygon class="st3" points="347.1,355.8 344.9,357.8 343.2,351.8 345.4,349.8 	"/>
	<polygon class="st3" points="345.2,349.1 343,351.1 341.3,345 343.5,343 	"/>
	<polygon class="st3" points="343.3,342.3 341.1,344.3 339.4,338.3 341.6,336.3 	"/>
	<polygon class="st3" points="341.4,335.6 339.2,337.5 337.5,331.5 339.7,329.5 	"/>
	<polygon class="st3" points="339.5,328.8 337.3,330.8 335.7,324.7 337.9,322.7 	"/>
	<polygon class="st3" points="337.6,322 335.5,324 333.8,318 336,316 	"/>
	<polygon class="st3" points="335.8,315.3 333.6,317.2 331.9,311.2 334.1,309.2 	"/>
	<polygon class="st4" points="362.5,364.8 360.3,366.7 344.9,357.8 347.1,355.8 	"/>
	<polygon class="st4" points="358.4,360 343,351.1 345.2,349.1 360.6,358 	"/>
	<polygon class="st4" points="356.5,353.2 341.1,344.3 343.3,342.3 358.7,351.2 	"/>
	<polygon class="st4" points="354.7,346.4 339.2,337.5 341.4,335.6 356.8,344.5 	"/>
	<polygon class="st4" points="352.8,339.7 337.3,330.8 339.5,328.8 355,337.7 	"/>
	<polygon class="st4" points="350.9,332.9 335.5,324 337.6,322 353.1,330.9 	"/>
	<polygon class="st4" points="349,326.2 333.6,317.2 335.8,315.3 351.2,324.2 	"/>
	<polygon class="st4" points="347.1,319.4 331.7,310.5 333.9,308.5 349.3,317.4 	"/>
	<polygon class="st4" points="345.2,312.6 329.8,303.7 332,301.7 347.4,310.6 	"/>
	<path class="st5" d="M341.9,300.8l0.8,0.4l20,71.7l-0.8-0.4l-1.4-5l-15.4-8.9l1.4,5.1l-0.8-0.4l-1.4-5.1l-0.2-0.7l-1.7-6l-0.2-0.7
		l-1.7-6l-0.2-0.7l-1.7-6l-0.2-0.7l-1.7-6l-0.2-0.7l-1.7-6l-0.2-0.7l-1.7-6l-0.2-0.7l-1.7-6l-0.2-0.7l-1.7-6l-0.2-0.7l-1.7-6
		l-0.2-0.7l-1.4-4.9l0.8,0.4l1.4,4.9l15.4,8.9L341.9,300.8z M358.4,360l-1.7-6l-15.4-8.9l1.7,6L358.4,360 M354.7,346.4l-1.7-6
		l-15.4-8.9l1.7,6L354.7,346.4 M356.5,353.2l-1.7-6l-15.4-8.9l1.7,6L356.5,353.2 M352.8,339.7l-1.7-6l-15.4-8.9l1.7,6L352.8,339.7
		 M347.1,319.4l-1.7-6l-15.4-8.9l1.7,6L347.1,319.4 M349,326.2l-1.7-6l-15.4-8.9l1.7,6L349,326.2 M360.3,366.7l-1.7-6l-15.4-8.9
		l1.7,6L360.3,366.7 M345.2,312.6l-1.7-6l-15.4-8.9l1.7,6L345.2,312.6 M350.9,332.9l-1.7-6l-15.4-8.9l1.7,6L350.9,332.9"/>
	<polygon class="st6" points="294,387.9 296.2,387.3 294.9,394.1 292.6,394.7 	"/>
	<polygon class="st6" points="295.8,378.9 298,378.3 296.4,386.3 294.2,386.9 	"/>
	<polygon class="st6" points="297.6,370 299.8,369.4 298.2,377.4 296,378 	"/>
	<polygon class="st6" points="299.5,361 301.7,360.4 300,368.4 297.8,369 	"/>
	<polygon class="st6" points="301.3,352.1 303.5,351.5 301.9,359.5 299.6,360.1 	"/>
	<polygon class="st6" points="303.1,343.1 305.3,342.5 303.7,350.5 301.5,351.1 	"/>
	<polygon class="st6" points="304.9,334.2 307.1,333.6 305.5,341.6 303.3,342.2 	"/>
	<polygon class="st6" points="306.7,325.2 308.9,324.6 307.3,332.6 305.1,333.2 	"/>
	<polygon class="st6" points="308.5,316.3 310.7,315.7 309.1,323.7 306.9,324.3 	"/>
	<polygon class="st6" points="310.3,307.3 312.5,306.7 310.9,314.7 308.7,315.3 	"/>
	<polygon class="st6" points="314,299.2 312.7,305.8 310.5,306.4 311.8,299.8 	"/>
	<polygon class="st4" points="296.4,386.3 311.8,395.2 309.6,395.8 294.2,386.9 	"/>
	<polygon class="st4" points="298.2,377.4 313.7,386.3 311.5,386.9 296,378 	"/>
	<polygon class="st4" points="300,368.4 315.5,377.3 313.3,377.9 297.8,369 	"/>
	<polygon class="st4" points="301.9,359.5 317.3,368.4 315.1,369 299.6,360.1 	"/>
	<polygon class="st4" points="303.7,350.5 319.1,359.4 316.9,360 301.5,351.1 	"/>
	<polygon class="st4" points="305.5,341.6 320.9,350.5 318.7,351.1 303.3,342.2 	"/>
	<polygon class="st4" points="307.3,332.6 322.7,341.5 320.5,342.1 305.1,333.2 	"/>
	<polygon class="st4" points="309.1,323.7 324.5,332.6 322.3,333.2 306.9,324.3 	"/>
	<polygon class="st4" points="310.9,314.7 326.3,323.6 324.1,324.2 308.7,315.3 	"/>
	<polygon class="st4" points="325.9,315.3 310.5,306.4 312.7,305.8 328.2,314.7 	"/>
	<polygon class="st4" points="327.9,289.5 311.1,299.3 328.1,309.1 344.9,299.3 	"/>
	<path class="st3" d="M327.3,308.6l0.8,0.4l-19.2,94.8l-0.8-0.4l1.3-6.7l-15.4-8.9l-1.4,6.8l-0.8-0.4l1.4-6.8l0.2-1l1.6-8l0.2-1
		l1.6-8l0.2-1l1.6-8l0.2-1l1.6-8l0.2-1l1.6-8l0.2-1l1.6-8l0.2-1l1.6-8l0.2-1l1.6-8l0.2-1l1.6-8l0.2-1l1.3-6.5l0.8,0.4l-1.3,6.5
		l15.4,8.9L327.3,308.6z M311.5,386.9l1.6-8l-15.4-8.9l-1.6,8L311.5,386.9 M315.1,369l1.6-8l-15.4-8.9l-1.6,8L315.1,369
		 M313.3,377.9l1.6-8l-15.4-8.9l-1.6,8L313.3,377.9 M316.9,360l1.6-8l-15.4-8.9l-1.6,8L316.9,360 M322.3,333.2l1.6-8l-15.4-8.9
		l-1.6,8L322.3,333.2 M320.5,342.1l1.6-8l-15.4-8.9l-1.6,8L320.5,342.1 M309.6,395.8l1.6-8l-15.4-8.9l-1.6,8L309.6,395.8
		 M324.1,324.2l1.6-8l-15.4-8.9l-1.6,8L324.1,324.2 M318.7,351.1l1.6-8l-15.4-8.9l-1.6,8L318.7,351.1"/>
	<polygon class="st3" points="311.1,299.3 311.1,301.9 328,311.7 328.1,309.1 	"/>
	<polygon class="st6" points="362.7,372.9 364.9,371 344.9,299.3 342.7,301.3 	"/>
	<polygon class="st6" points="308.9,403.9 311.1,403.3 330.3,308.4 328.1,309.1 	"/>
	<polygon class="st6" points="328.1,309.1 328,311.7 344.9,301.9 344.9,299.3 	"/>
</g>
<g>
	<path class="st9" d="M355,332.1c0,0-4.2,1.8-5,0.5c-0.8-1.3-1.1-9.4-1.7-12.3c-1.4-0.4-2.3-3.6-2.4-5.2c-0.1-1.6,1.5-3.2,2.1-1.9
		c0.6,1.3,2.3,3.6,2.9,4.2c0.6,0.6,1.7,9.4,2.1,11.3L355,332.1"/>
	<path class="st9" d="M338.1,347.4c0,0-4.7-2.7-5.7-3.4c-0.9-0.7-5-11.1-5-11.1s-0.6-0.2-2.2-1.1c-2.3-1.4-2.1-3.6-1.6-4.2
		c0.5-0.6,1.5,1.5,3.7,1.8c2.2,0.3,1.6,1.2,2.5,2.2c0.9,0.9,4.6,8.8,4.9,9.5c0.4,0.6,5.2,2.5,5.2,2.5L338.1,347.4z"/>
	<path class="st10" d="M353.6,396.4c0,0,1.4,0.2,4.1,0.1c0,0.6,0.4,2.2,0.6,2.8c0.2,0.5,0.5,2.6-0.7,3.2c-2,0.9-2.9-0.8-3.2-1.3
		c-0.3-0.5-1.3-1.3-2.3-1.7c-1-0.5-1.3-1.7-0.9-2.9C351.6,395.4,353.6,396.4,353.6,396.4"/>
	<path class="st2" d="M349.3,370.1v4.3c0,4.3,2.8,15.5,4.4,22.7c2.9,1.2,4.3-1,4.3-1s-0.8-8-1.6-15.4c-0.2-8.6,1.2-19.5,1.2-19.5
		L349.3,370.1z"/>
	<path class="st10" d="M349,402.6c0.2,1.6,1.2,4.8,0.8,5.8c-0.8,1.6-3.9,1-5.2,0.5c-1.3-0.4-2.4-0.1-3.4-0.2c-1-0.1-2.6-0.9-2.6-2.5
		c0.1-1.6,1.7-1.5,4-1.7c2.3-0.2,2.5-1.6,2.5-1.6L349,402.6z"/>
	<path class="st11" d="M343.2,362.9c-1.3,6,0.1,24.8,1.2,39.5c0.5,1,3.8,1.4,5.2-0.4c0,0-0.1-16.9,0-18.8c0.1-1.9,1.2-12.7,1.2-12.7
		l3.7-1.5c3.7-1.5,3.3-8,3.3-8L343.2,362.9z"/>
	<path class="st12" d="M357.1,336.2c0,0,1.2,2.5,1.9,4.5c0.6,2,0.2,5.6-0.2,7.5c-0.4,1.9-0.5,10.8-0.8,12.3
		c-0.2,1.5-3.2,3.1-4.7,3.7c-1.5,0.6-6.3,1.6-8.8,0c-2.5-1.6-1.4-3.8-1-4.9c0.4-1.1,0.3-8.2,0.2-8.6c-0.1-0.4-4.3-2.1-5.6-2.7
		c-0.2-2.9,1.3-4.3,2.6-4.8c1.5,0.7,3.3,1.3,5,1.3c1.7,0.1,3.7-0.8,5.3-1.7L357.1,336.2z"/>
	<path class="st9" d="M353,341.4c1.9,1.1,0.1,2.6-1.3,2.9c-1.5,0.3-2.7-0.3-2.7-0.7l0.4-0.2c0,0-0.1-1.6-1.1-2.2
		c-3.4-1.9-1.8-4-1.1-5.6c0.5-2.1,2.1-3.4,2.1-3.4l5.2,3.2l-1.5,5.9C352.9,341.4,352.9,341.4,353,341.4"/>
	<path class="st10" d="M348.7,337.4c1.2-0.9,2.1-3,1.6-3.5c-0.9-0.8-2.1-2.7-0.8-3.7c0.9-0.5,2.1,0.1,3.6,0.7
		c4.6,2.2,4.2,4.7,3.9,5.7c0.4,2.9-3.2,4.4-4,4.7c-1.2,0.1-2.1-0.8-2.2-2.5c0.6-0.1,1.2-0.5,1.1-1.1c-0.3-1-1.5-0.8-1.5-0.8
		l-1.2,0.9L348.7,337.4z"/>
</g>
<g>
	<polygon class="st0" points="525.2,385.2 365.4,476.8 365.4,421.2 525.2,329.7 	"/>
	<polygon class="st1" points="525.2,329.7 365.4,421.2 351.8,413.5 511.7,321.9 	"/>
</g>
<g>
	<polygon class="st2" points="241.6,420.6 351.8,484.6 351.8,429 241.6,365.1 	"/>
	<polygon class="st0" points="365.4,421.2 365.4,476.8 351.8,484.6 351.8,429 	"/>
	<polygon class="st1" points="241.6,365.1 351.8,429 365.4,421.2 255.2,357.3 	"/>
</g>
<polygon class="st0" points="255.6,206.1 291.7,185.4 290.4,210.7 267.8,221.1 259.5,218.4 "/>
<polygon class="st1" points="258.1,189 292.5,169.3 296.3,182.9 259.2,204 "/>
</svg>
