<?xml version="1.0" encoding="utf-8"?>
<!-- Generator: Adobe Illustrator 24.3.0, SVG Export Plug-In . SVG Version: 6.00 Build 0)  -->
<svg version="1.1" id="Layer_1" xmlns="http://www.w3.org/2000/svg" xmlns:xlink="http://www.w3.org/1999/xlink" x="0px" y="0px"
	 width="1048.7px" height="705.7px" viewBox="0 0 1048.7 705.7" style="enable-background:new 0 0 1048.7 705.7;"
	 xml:space="preserve">
<style type="text/css">
	.st0{fill-rule:evenodd;clip-rule:evenodd;fill:#53A7B6;}
	.st1{fill-rule:evenodd;clip-rule:evenodd;fill:#63B6C5;}
	.st2{fill-rule:evenodd;clip-rule:evenodd;fill:#348C9B;}
	.st3{fill-rule:evenodd;clip-rule:evenodd;fill:#6FC1D0;}
	.st4{fill-rule:evenodd;clip-rule:evenodd;fill:#81D4E3;}
	.st5{clip-path:url(#SVGID_2_);}
	.st6{fill-rule:evenodd;clip-rule:evenodd;fill:#FFFFFF;}
	.st7{fill-rule:evenodd;clip-rule:evenodd;fill:#72C4D3;}
	.st8{clip-path:url(#SVGID_4_);}
	.st9{fill:#FFFDE4;}
	.st10{fill-rule:evenodd;clip-rule:evenodd;fill:#03306B;}
	.st11{fill:#A7BCE1;}
	.st12{fill-rule:evenodd;clip-rule:evenodd;fill:#305495;}
	.st13{fill-rule:evenodd;clip-rule:evenodd;fill:#06316D;}
	.st14{fill-rule:evenodd;clip-rule:evenodd;fill:#F1F2F2;}
	.st15{clip-path:url(#SVGID_6_);}
	.st16{fill-rule:evenodd;clip-rule:evenodd;fill:#D0D1D1;}
	.st17{fill-rule:evenodd;clip-rule:evenodd;fill:#A7BCE1;}
	.st18{fill-rule:evenodd;clip-rule:evenodd;fill:#475D7D;}
	.st19{clip-path:url(#SVGID_8_);}
	.st20{fill-rule:evenodd;clip-rule:evenodd;fill:#F0F1F1;}
	.st21{clip-path:url(#SVGID_10_);}
	.st22{clip-path:url(#SVGID_12_);}
	.st23{fill-rule:evenodd;clip-rule:evenodd;fill:#F0F2F2;}
	.st24{clip-path:url(#SVGID_14_);}
	.st25{fill:#FFCCC8;}
	.st26{clip-path:url(#SVGID_16_);}
	.st27{fill-rule:evenodd;clip-rule:evenodd;fill-opacity:0.25;}
	.st28{clip-path:url(#SVGID_18_);}
	.st29{fill-rule:evenodd;clip-rule:evenodd;fill:#8095B8;}
	.st30{fill-rule:evenodd;clip-rule:evenodd;fill:#03235C;}
	.st31{clip-path:url(#SVGID_20_);}
	.st32{clip-path:url(#SVGID_22_);}
	.st33{fill-rule:evenodd;clip-rule:evenodd;fill:#FFCCC8;}
	.st34{clip-path:url(#SVGID_24_);}
	.st35{fill-rule:evenodd;clip-rule:evenodd;fill:#FFFDE4;}
	.st36{clip-path:url(#SVGID_26_);}
	.st37{fill-rule:evenodd;clip-rule:evenodd;fill:#D9D9D9;}
	.st38{clip-path:url(#SVGID_28_);}
	.st39{fill-rule:evenodd;clip-rule:evenodd;fill:#B0B0B0;}
	.st40{clip-path:url(#SVGID_30_);}
	.st41{clip-path:url(#SVGID_32_);}
	.st42{fill-rule:evenodd;clip-rule:evenodd;}
	.st43{clip-path:url(#SVGID_34_);}
	.st44{fill-rule:evenodd;clip-rule:evenodd;fill:#234E8F;}
	.st45{clip-path:url(#SVGID_36_);}
	.st46{clip-path:url(#SVGID_38_);}
	.st47{clip-path:url(#SVGID_40_);}
	.st48{clip-path:url(#SVGID_42_);}
	.st49{fill:#F0F1F2;}
	.st50{fill:#3C5D99;}
	.st51{fill:#DBDBA7;}
	.st52{fill:#96D2F3;}
	.st53{fill:#FFFFFF;}
	.st54{fill:#305495;}
	.st55{fill:#011A52;}
	.st56{fill:#93C5E5;}
	.st57{clip-path:url(#SVGID_44_);}
	.st58{fill:none;}
	.st59{clip-path:url(#SVGID_46_);}
	.st60{clip-path:url(#SVGID_48_);}
	.st61{fill-rule:evenodd;clip-rule:evenodd;fill:#010001;fill-opacity:0.25;}
	.st62{fill-rule:evenodd;clip-rule:evenodd;fill:#00154B;}
	.st63{fill-rule:evenodd;clip-rule:evenodd;fill:#6781B0;}
	.st64{clip-path:url(#SVGID_50_);}
	.st65{clip-path:url(#SVGID_52_);}
	.st66{fill-rule:evenodd;clip-rule:evenodd;fill:#7F98C8;}
	.st67{clip-path:url(#SVGID_54_);}
	.st68{clip-path:url(#SVGID_56_);}
	.st69{clip-path:url(#SVGID_58_);}
	.st70{fill-rule:evenodd;clip-rule:evenodd;fill:#32558B;}
	.st71{clip-path:url(#SVGID_60_);}
	.st72{fill-rule:evenodd;clip-rule:evenodd;fill:#0C2642;}
	.st73{clip-path:url(#SVGID_62_);}
	.st74{fill-rule:evenodd;clip-rule:evenodd;fill:#FFFDE4;fill-opacity:0.57;}
	.st75{fill-opacity:0.25;}
	.st76{fill:#3E5474;}
	.st77{fill-rule:evenodd;clip-rule:evenodd;fill:#5875AE;}
	.st78{clip-path:url(#SVGID_64_);}
	.st79{clip-path:url(#SVGID_66_);}
	.st80{fill-rule:evenodd;clip-rule:evenodd;fill:#0C2B60;}
	.st81{clip-path:url(#SVGID_68_);}
	.st82{fill-rule:evenodd;clip-rule:evenodd;fill:#0A295E;}
	.st83{clip-path:url(#SVGID_70_);}
	.st84{clip-path:url(#SVGID_72_);}
	.st85{clip-path:url(#SVGID_74_);}
	.st86{clip-path:url(#SVGID_76_);}
	.st87{clip-path:url(#SVGID_78_);}
	.st88{fill-rule:evenodd;clip-rule:evenodd;fill:#011A52;}
	.st89{fill-rule:evenodd;clip-rule:evenodd;fill:#875B59;}
	.st90{clip-path:url(#SVGID_80_);}
	.st91{clip-path:url(#SVGID_82_);}
	.st92{clip-path:url(#SVGID_84_);}
	.st93{fill-rule:evenodd;clip-rule:evenodd;fill:#ADC8FF;}
	.st94{clip-path:url(#SVGID_86_);}
	.st95{clip-path:url(#SVGID_88_);}
	.st96{clip-path:url(#SVGID_90_);}
	.st97{fill-rule:evenodd;clip-rule:evenodd;fill:#6E4443;}
	.st98{clip-path:url(#SVGID_92_);}
	.st99{clip-path:url(#SVGID_94_);}
	.st100{clip-path:url(#SVGID_96_);}
	.st101{fill-rule:evenodd;clip-rule:evenodd;fill:#10346B;}
	.st102{fill-rule:evenodd;clip-rule:evenodd;fill:#092559;}
	.st103{clip-path:url(#SVGID_98_);}
	.st104{clip-path:url(#SVGID_100_);}
	.st105{clip-path:url(#SVGID_102_);}
	.st106{clip-path:url(#SVGID_104_);}
	.st107{clip-path:url(#SVGID_106_);}
	.st108{fill:#D2D1B9;}
</style>
<g>
	<path class="st74" d="M424,159.3l-80-46.2c-0.3-0.2-0.7-0.2-1,0L0.5,311c-0.5,0.3-0.6,0.8-0.3,1.3c0.1,0.1,0.2,0.3,0.3,0.3l79,45.6
		l-79,45.6c-0.5,0.3-0.6,0.9-0.3,1.3c0.1,0.1,0.2,0.3,0.3,0.3l79,45.6l-79,45.6c-0.5,0.3-0.6,0.8-0.3,1.3c0.1,0.1,0.2,0.3,0.3,0.3
		l342.7,197.8c0.3,0.2,0.7,0.2,1,0l80-46.2l80,46.2c0.3,0.2,0.7,0.2,1,0l80-46.2l80,46.2c0.3,0.2,0.6,0.2,0.9,0l342.7-197.8
		c0.5-0.3,0.6-0.8,0.3-1.3c-0.1-0.1-0.2-0.3-0.3-0.3l-79-45.6l79-45.6c0.5-0.3,0.6-0.9,0.4-1.3c-0.1-0.1-0.2-0.3-0.4-0.4l-79-45.6
		l79-45.6c0.5-0.3,0.6-0.8,0.3-1.3c-0.1-0.1-0.2-0.3-0.3-0.3L665.9,113.2c-0.3-0.2-0.6-0.2-0.9,0l-80,46.2l-80-46.2
		c-0.3-0.2-0.7-0.2-1,0L424,159.3z M422.2,649l-112.5-64.9l-78.5,45.3l112.4,64.9L422.2,649z M777.9,629.4l-78.5-45.3L586.9,649
		l78.5,45.3L777.9,629.4z M583,649l-78.5-45.3L426,649l78.5,45.3L583,649z M506.4,602.5l78.5,45.3L697.4,583l-78.5-45.3L506.4,602.5
		z M311.6,583l112.5,64.9l78.5-45.3l-112.4-64.9L311.6,583z M116.8,563.4l112.8,65.1l78.5-45.3L195.4,518L116.8,563.4z M700.8,583.2
		l78.5,45.3l112.8-65.1L813.7,518L700.8,583.2z M392.1,536.5l112.5,64.9L617,536.5l-112.4-64.9L392.1,536.5z M620.4,536.7l78.5,45.3
		l112.8-65.1l-78.5-45.3L620.4,536.7z M197.3,516.9l112.8,65.1l78.5-45.3l-112.8-65.1L197.3,516.9z M927.6,452.3l-112.5,64.9
		l78.5,45.3l112.5-64.9L927.6,452.3z M2.9,497.6l112.5,64.9l78.5-45.3L81.4,452.3L2.9,497.6z M277.7,470.5l112.8,65.1L503,470.7
		l-112.8-65.1L277.7,470.5z M506,470.7l112.5,64.9l112.8-65.1l-112.5-64.9L506,470.7z M734.7,470.7l78.5,45.3l112.5-64.9l-78.5-45.3
		L734.7,470.7z M83.3,451.1l112.4,64.9l78.5-45.3l-112.5-64.9L83.3,451.1z M391.7,404.7l112.8,65.1l112.8-65.1l-112.8-65.1
		L391.7,404.7z M163.8,404.7l112.4,64.9l112.5-64.9l-112.5-64.9L163.8,404.7z M620.4,404.7l112.5,64.9l112.5-64.9l-112.5-64.9
		L620.4,404.7z M927.6,359.4l-78.5,45.3l78.5,45.3l78.5-45.3L927.6,359.4z M2.9,404.7L81.4,450l78.5-45.3l-78.5-45.3L2.9,404.7z
		 M506,338.7l112.8,65.1l112.5-64.9l-112.8-65.1L506,338.7z M277.7,338.9l112.4,64.9L503,338.7l-112.4-64.9L277.7,338.9z
		 M83.3,358.3l78.5,45.3l112.5-64.9l-78.5-45.3L83.3,358.3z M734.7,338.7l112.4,64.9l78.5-45.3l-112.5-64.9L734.7,338.7z
		 M893.7,246.9l-78.5,45.3l112.5,64.9l78.5-45.3L893.7,246.9z M2.9,311.8l78.5,45.3l112.4-64.9l-78.5-45.3L2.9,311.8z M392.1,272.9
		l112.5,64.9L617,272.9L504.5,208L392.1,272.9z M620.4,272.7l112.8,65.1l78.5-45.3l-112.8-65.1L620.4,272.7z M197.3,292.5l78.5,45.3
		l112.8-65.1l-78.5-45.3L197.3,292.5z M700.8,226.2l112.8,65.1l78.5-45.3l-112.8-65.1L700.8,226.2z M116.8,246l78.5,45.3l112.8-65.1
		l-78.5-45.3L116.8,246z M506.4,206.9l112.5,64.9l78.5-45.3l-112.5-64.9L506.4,206.9z M311.6,226.4l78.5,45.3l112.4-64.9l-78.5-45.3
		L311.6,226.4z M586.9,160.4l112.4,64.9l78.5-45.3l-112.5-64.9L586.9,160.4z M231.2,180l78.5,45.3l112.5-64.9l-78.5-45.3L231.2,180z
		 M426,160.4l78.5,45.3l78.5-45.3l-78.5-45.3L426,160.4z"/>
	<g>
		
			<ellipse transform="matrix(0.3172 -0.9484 0.9484 0.3172 -140.7137 1012.8159)" class="st75" cx="633" cy="604.1" rx="6.7" ry="13.9"/>
		<g>
			<path class="st76" d="M623.5,582.2l-6.2-15.1c0-3.7,0.7-6.4,2.1-8.1c1.4-1.8,3.9-3.1,7.4-3.9c3.3-0.7,5.6-1.6,6.7-2.7
				c1.2-1,1.8-2.6,1.8-4.9c0-2.7-0.9-5.3-2.4-7.4c-1.8-2.5-4.2-4.6-6.9-6.1c-5.1-2.9-10.9-4.3-16.7-4.2l-11.2-10.3l6.4-3.8
				c7.2-0.5,14.7,1.6,22.6,6.1c4.3,2.4,8.2,5.5,11.5,9.2c3.1,3.3,5.6,7.2,7.3,11.3c1.6,3.7,2.5,7.7,2.5,11.8c0,3.8-0.7,6.7-2.1,8.8
				c-1.4,2.1-4.5,3.7-9.3,5c-2.9,0.8-4.8,1.6-5.7,2.5c-0.9,0.8-1.3,2.5-1.3,4.8v3.3L623.5,582.2z M624.3,584.4
				c2.5,1.4,4.6,3.5,6.1,5.9c1.5,2.5,2.2,5.3,2.2,8.1c0.1,2.1-0.7,4.2-2.2,5.6c-1.4,1.4-6.4,5-8.6,3.9c-2.7-1.4-2.2-8.5-3.7-11
				c-1.5-2.5-7.8-5-7.8-7.9c0-3,6.3-5.2,7.8-5.9S621.6,582.8,624.3,584.4L624.3,584.4z"/>
			<path class="st11" d="M610.9,574.9v-4.1c0-3.7,0.7-6.4,2.1-8.1c1.4-1.8,3.9-3.1,7.4-3.9c3.3-0.7,5.6-1.6,6.7-2.6
				c1.2-1,1.8-2.6,1.8-4.9c0-2.7-0.9-5.3-2.4-7.4c-1.8-2.5-4.2-4.6-6.9-6.1c-5.1-2.9-10.9-4.3-16.7-4.2l-4.8-14
				c7.2-0.5,14.7,1.6,22.6,6.1c4.3,2.4,8.2,5.5,11.5,9.2c3.1,3.3,5.6,7.2,7.3,11.3c1.6,3.7,2.5,7.7,2.5,11.8c0,3.8-0.7,6.7-2.1,8.8
				c-1.4,2.1-4.5,3.7-9.3,5c-2.9,0.8-4.8,1.6-5.7,2.5c-0.9,0.8-1.3,2.5-1.3,4.8v3.3L610.9,574.9z M617.9,588.1
				c2.5,1.4,4.6,3.5,6.1,5.9c1.5,2.5,2.2,5.3,2.2,8.1c0,3-0.8,4.9-2.2,5.6c-1.5,0.8-3.5,0.4-6.1-1.1c-2.6-1.4-4.7-3.5-6.2-6
				c-1.5-2.5-2.3-5.3-2.2-8.2c0-3,0.7-4.9,2.2-5.7C613.1,586.1,615.1,586.5,617.9,588.1L617.9,588.1z"/>
		</g>
	</g>
	<g>
		
			<ellipse transform="matrix(0.2824 -0.9593 0.9593 0.2824 -221.4185 435.4491)" class="st75" cx="180.3" cy="365.7" rx="8.9" ry="17.6"/>
		<g>
			<path class="st76" d="M180.7,323.1l-7-17c0-4.1,0.8-7.2,2.4-9.1c1.5-2,4.3-3.5,8.3-4.4c3.7-0.8,6.3-1.8,7.6-3c1.3-1.1,2-3,2-5.5
				c0-3-1-5.9-2.7-8.4c-2.1-2.8-4.7-5.1-7.8-6.8c-5.7-3.2-12.2-4.9-18.8-4.8L152,252.6l7.2-4.2c8.1-0.5,16.5,1.8,25.4,6.9
				c4.8,2.7,9.2,6.2,13,10.3c3.5,3.7,6.2,8,8.2,12.7c1.8,4.2,2.8,8.7,2.9,13.2c0,4.3-0.8,7.6-2.4,10c-1.6,2.3-5.1,4.2-10.4,5.6
				c-3.3,0.9-5.4,1.8-6.4,2.8c-1,1-1.5,2.8-1.5,5.4v3.7L180.7,323.1z M181.5,325.5c2.8,1.6,5.2,3.9,6.9,6.7c1.7,2.8,2.5,5.9,2.5,9.2
				c0.2,2.4-0.8,4.7-2.5,6.3c-1.5,1.5-7.2,5.6-9.7,4.4c-3.1-1.6-2.5-9.6-4.1-12.4c-1.7-2.8-8.8-5.6-8.8-8.9c0-3.4,7.1-5.9,8.7-6.7
				S178.4,323.7,181.5,325.5L181.5,325.5z"/>
			<path class="st11" d="M166.4,314.9v-4.6c0-4.1,0.8-7.2,2.4-9.1c1.5-2,4.3-3.5,8.3-4.4c3.7-0.8,6.3-1.8,7.6-3c1.3-1.1,2-3,2-5.5
				c0-3-1-5.9-2.7-8.4c-2.1-2.8-4.7-5.1-7.8-6.8c-5.7-3.2-12.2-4.9-18.8-4.8l-5.4-15.8c8.1-0.5,16.5,1.8,25.4,6.9
				c4.8,2.7,9.2,6.2,13,10.3c3.5,3.7,6.2,8,8.2,12.7c1.8,4.2,2.8,8.7,2.9,13.2c0,4.3-0.8,7.6-2.4,10c-1.6,2.3-5.1,4.2-10.4,5.6
				c-3.3,0.9-5.4,1.8-6.4,2.8c-1,1-1.5,2.8-1.5,5.4v3.7L166.4,314.9z M174.3,329.7c2.8,1.6,5.2,3.9,6.9,6.7c1.7,2.8,2.5,5.9,2.5,9.2
				c0,3.4-0.9,5.5-2.5,6.3c-1.6,0.9-4,0.4-6.8-1.2c-2.9-1.6-5.3-3.9-7-6.8c-1.7-2.8-2.6-6-2.5-9.3c0-3.4,0.8-5.5,2.5-6.4
				C168.9,327.4,171.2,327.9,174.3,329.7L174.3,329.7z"/>
		</g>
	</g>
	<g>
		
			<ellipse transform="matrix(0.2502 -0.9682 0.9682 0.2502 -364.6968 670.9576)" class="st75" cx="250.8" cy="570.9" rx="13.9" ry="26.7"/>
		<g>
			<path class="st76" d="M234.7,522.6l-14.8-35.8c0-8.7,1.7-15.2,5.1-19.2c3.2-4.3,9.1-7.3,17.6-9.2c7.9-1.6,13.2-3.7,16-6.3
				c2.8-2.4,4.2-6.3,4.2-11.6c-0.1-6.3-2.1-12.5-5.8-17.6c-4.4-5.9-10-10.8-16.4-14.4c-11.7-6.7-24.9-10.1-39.6-10l-26.6-24.3
				l15.3-8.9c17-1.1,34.8,3.8,53.4,14.6c10.2,5.8,19.4,13.1,27.3,21.8c7.3,7.9,13.2,17,17.3,26.8c3.9,8.8,5.9,18.3,6,27.9
				c0,9.1-1.7,16-5.1,21c-3.4,4.9-10.8,8.8-22,11.8c-6.9,1.9-11.5,3.8-13.5,5.8c-2.1,2-3.1,5.8-3.1,11.3v7.7L234.7,522.6z
				 M236.4,527.6c5.9,3.4,10.9,8.2,14.5,14.1c3.5,5.8,5.3,12.5,5.2,19.3c0,7.2-2.5,10.7-5.3,13.4c-3.2,3.2-15.3,11.9-20.4,9.3
				c-6.5-3.3-5.2-20.2-8.7-26.1c-3.6-5.8-18.5-11.8-18.5-18.8c0-7.2,14.9-12.4,18.4-14.1S229.9,523.9,236.4,527.6L236.4,527.6z"/>
			<path class="st11" d="M204.7,505.3v-9.6c0-8.7,1.7-15.2,5.1-19.2c3.2-4.3,9.1-7.3,17.6-9.2c7.9-1.6,13.2-3.7,16-6.3
				c2.8-2.4,4.2-6.3,4.2-11.6c-0.1-6.3-2.1-12.5-5.8-17.6c-4.4-5.9-10-10.8-16.4-14.4c-11.7-6.7-24.9-10.1-39.6-10L174.4,374
				c17-1.1,34.8,3.8,53.4,14.6c10.2,5.8,19.4,13.1,27.3,21.8c7.3,7.9,13.2,17,17.3,26.8c3.9,8.8,5.9,18.3,6,27.9
				c0,9.1-1.7,16-5.1,21c-3.4,4.9-10.8,8.8-22,11.8c-6.9,1.9-11.4,3.8-13.5,5.8c-2.1,2-3.1,5.8-3.1,11.3v7.7L204.7,505.3z
				 M221.2,536.5c5.9,3.4,10.9,8.2,14.5,14.1c3.5,5.8,5.3,12.5,5.2,19.3c0,7.2-1.9,11.6-5.3,13.4c-3.5,1.9-8.3,0.9-14.3-2.5
				c-6.1-3.4-11.1-8.3-14.7-14.2c-3.6-5.9-5.4-12.6-5.3-19.5c0-7.2,1.7-11.7,5.2-13.4C209.9,531.8,214.7,532.7,221.2,536.5
				L221.2,536.5z"/>
		</g>
	</g>
	<g>
		<ellipse transform="matrix(0.3242 -0.946 0.946 0.3242 290.0373 1011.731)" class="st75" cx="853.2" cy="302.9" rx="9" ry="19"/>
		<g>
			<path class="st76" d="M853,247.1l-8.6-20.7c0-5,1-8.8,2.9-11.1c1.9-2.5,5.3-4.2,10.2-5.3c4.6-0.9,7.6-2.2,9.2-3.6
				c1.6-1.4,2.4-3.6,2.4-6.7c0-3.7-1.2-7.2-3.3-10.2c-2.5-3.4-5.8-6.3-9.5-8.3c-7-4-14.9-6-22.9-5.8l-15.4-14.1l8.8-5.2
				c9.8-0.7,20.1,2.2,30.9,8.4c5.9,3.4,11.2,7.6,15.8,12.6c4.2,4.6,7.6,9.8,10,15.5c2.2,5.1,3.4,10.6,3.5,16.1c0,5.3-1,9.2-2.9,12.1
				c-1.9,2.8-6.2,5.1-12.7,6.8c-4,1.1-6.6,2.2-7.8,3.4c-1.2,1.2-1.8,3.4-1.8,6.5v4.5L853,247.1z M854,250c3.4,2,6.3,4.8,8.4,8.2
				c2,3.4,3.1,7.2,3,11.2c0,4.2-1.5,6.2-3.1,7.7c-1.9,1.9-8.8,6.9-11.8,5.4c-3.7-1.9-3-11.7-5-15.1c-2.1-3.4-10.7-6.8-10.7-10.9
				c0-4.2,8.6-7.1,10.6-8.2S850.2,247.8,854,250L854,250z"/>
			<path class="st11" d="M835.6,237.1v-5.6c0-5,1-8.8,2.9-11.1c1.9-2.5,5.3-4.2,10.2-5.3c4.6-0.9,7.6-2.2,9.2-3.6
				c1.6-1.4,2.4-3.6,2.4-6.7c0-3.7-1.2-7.2-3.3-10.2c-2.5-3.4-5.8-6.3-9.5-8.3c-7-4-14.9-6-22.9-5.8l-6.6-19.2
				c9.8-0.7,20.1,2.2,30.9,8.4c5.9,3.4,11.2,7.6,15.8,12.6c4.2,4.6,7.6,9.8,10,15.5c2.2,5.1,3.4,10.6,3.5,16.1c0,5.3-1,9.2-2.9,12.1
				c-1.9,2.8-6.2,5.1-12.7,6.8c-4,1.1-6.6,2.2-7.8,3.4c-1.2,1.2-1.8,3.4-1.8,6.5v4.5L835.6,237.1z M845.2,255.1
				c3.4,2,6.3,4.8,8.4,8.1c2,3.4,3.1,7.2,3,11.2c0,4.2-1.1,6.7-3.1,7.7c-2,1.1-4.8,0.5-8.3-1.5c-3.5-2-6.4-4.8-8.5-8.2
				c-2.1-3.4-3.1-7.3-3.1-11.3c0-4.2,1-6.8,3-7.8C838.6,252.4,841.4,253,845.2,255.1L845.2,255.1z"/>
		</g>
	</g>
	<g>
		
			<ellipse transform="matrix(0.2824 -0.9593 0.9593 0.2824 50.4369 1223.1951)" class="st75" cx="842.8" cy="577.9" rx="15.8" ry="31.3"/>
		<g>
			<path class="st76" d="M848.8,497.6l-14.4-34.8c0-8.4,1.7-14.7,4.9-18.7c3.1-4.2,8.9-7.1,17.1-9c7.6-1.6,12.8-3.6,15.5-6.1
				c2.7-2.3,4.1-6.1,4-11.3c-0.1-6.2-2-12.1-5.6-17.1c-4.3-5.8-9.7-10.5-16-14c-11.4-6.6-24.2-9.8-38.4-9.7l-25.8-23.6l14.8-8.7
				c16.5-1.1,33.8,3.7,51.9,14.1c9.9,5.6,18.8,12.8,26.5,21.2c7.1,7.7,12.8,16.5,16.9,26.1c3.8,8.6,5.8,17.8,5.8,27.1
				c0,8.8-1.7,15.5-4.9,20.4c-3.3,4.7-10.4,8.5-21.4,11.4c-6.7,1.8-11.1,3.7-13.2,5.6c-2,1.9-3,5.6-3,11v7.5L848.8,497.6z
				 M850.5,502.5c5.8,3.3,10.6,8,14,13.7c3.4,5.7,5.1,12.2,5.1,18.8c0,7-2.5,10.4-5.2,13c-3.1,3.1-14.8,11.5-19.8,9.1
				c-6.3-3.2-5.1-19.7-8.4-25.4c-3.5-5.6-18-11.4-18-18.3c0-7,14.5-12,17.9-13.7S844.2,498.9,850.5,502.5L850.5,502.5z"/>
			<path class="st11" d="M819.6,480.8v-9.3c0-8.4,1.7-14.7,4.9-18.7c3.1-4.2,8.9-7.1,17.1-9c7.6-1.6,12.8-3.6,15.5-6.1
				c2.7-2.3,4.1-6.1,4-11.3c-0.1-6.2-2-12.1-5.6-17.1c-4.3-5.8-9.7-10.5-16-14c-11.4-6.6-24.2-9.8-38.4-9.7l-11-32.3
				c16.5-1.1,33.8,3.7,51.9,14.1c9.9,5.6,18.8,12.8,26.5,21.2c7.1,7.7,12.8,16.5,16.9,26.1c3.8,8.6,5.8,17.8,5.8,27.1
				c0,8.8-1.7,15.5-4.9,20.4c-3.3,4.7-10.4,8.5-21.4,11.4c-6.7,1.8-11.1,3.7-13.2,5.6c-2,1.9-3,5.6-3,11v7.5L819.6,480.8z
				 M835.7,511.1c5.8,3.3,10.6,8,14,13.7c3.4,5.7,5.1,12.2,5.1,18.8c0,7-1.8,11.3-5.2,13c-3.4,1.8-8.1,0.9-13.9-2.5
				c-5.9-3.3-10.8-8.1-14.3-13.8c-3.5-5.7-5.3-12.3-5.2-18.9c0-7,1.7-11.4,5.1-13C824.7,506.6,829.4,507.5,835.7,511.1L835.7,511.1z
				"/>
		</g>
	</g>
	<g>
		<path class="st27" d="M525.6,330.5c-2.7-1.6-6.1-1.7-8.9-0.2l-124.8,72.1c-2.7,1.6-4.2,4.5-4,7.6c0.2,3.3,2.1,6.2,4.9,7.8
			L526.5,495c2.7,1.6,6.1,1.7,8.9,0.2l124.8-72.1c2.7-1.6,4.2-4.5,4-7.6c-0.2-3.3-2.1-6.2-4.9-7.8L525.6,330.5z"/>
		<path class="st35" d="M516.7,319.7c-2.8-1.6-6.3-1.6-9.2,0l-133.2,76.9c-4.4,2.5-5.9,8.1-3.4,12.5c0.8,1.4,2,2.6,3.4,3.4
			l133.2,76.9c2.8,1.6,6.3,1.6,9.2,0l133.2-76.9c4.4-2.5,5.9-8.1,3.4-12.5c-0.8-1.4-2-2.6-3.4-3.4L516.7,319.7z"/>
		<path class="st12" d="M516.7,307c-2.8-1.6-6.3-1.6-9.2,0l-133.2,76.9c-4.4,2.5-5.9,8.1-3.4,12.5c0.8,1.4,2,2.6,3.4,3.4l133.2,76.9
			c2.8,1.6,6.3,1.6,9.2,0l133.2-76.9c4.4-2.5,5.9-8.1,3.4-12.5c-0.8-1.4-2-2.6-3.4-3.4L516.7,307z"/>
		<path class="st35" d="M516.6,332.4c-2.8-1.6-6.3-1.6-9.2,0l-89.2,51.5c-4.4,2.5-5.9,8.1-3.4,12.5c0.8,1.4,2,2.6,3.4,3.4l89.2,51.5
			c2.8,1.6,6.3,1.6,9.2,0l89.2-51.5c4.4-2.5,5.9-8.1,3.4-12.5c-0.8-1.4-2-2.6-3.4-3.4L516.6,332.4z"/>
		<path class="st77" d="M516.6,332.4c-2.8-1.6-6.3-1.6-9.2,0L430.2,377c-4.4,2.5-5.9,8.1-3.4,12.5c0.8,1.4,2,2.6,3.4,3.4l77.3,44.6
			c2.8,1.6,6.3,1.6,9.2,0l77.3-44.6c4.4-2.5,5.9-8.1,3.4-12.5c-0.8-1.4-2-2.6-3.4-3.4L516.6,332.4z"/>
		
			<ellipse transform="matrix(0.3515 -0.9362 0.9362 0.3515 -23.6849 726.6024)" class="st75" cx="512.7" cy="380.4" rx="11.9" ry="26.5"/>
	</g>
	<g>
		
			<ellipse transform="matrix(0.2739 -0.9617 0.9617 0.2739 205.4722 977.3137)" class="st75" cx="750" cy="352.6" rx="18" ry="35.4"/>
		<g>
			<g>
				<path class="st14" d="M734.4,329.4c-2.3-5.2-10.4-8-15.6,0.5c-6.2,10.3-17.5,16.4-12.6,19.2s12.5-1.7,21.1-6.7
					S737,335.2,734.4,329.4z"/>
				<g>
					<defs>
						<path id="SVGID_63_" d="M734.4,329.4c-2.3-5.2-10.4-8-15.6,0.5c-6.2,10.3-17.5,16.4-12.6,19.2s12.5-1.7,21.1-6.7
							S737,335.2,734.4,329.4z"/>
					</defs>
					<clipPath id="SVGID_2_">
						<use xlink:href="#SVGID_63_"  style="overflow:visible;"/>
					</clipPath>
					<g class="st5">
						<path class="st27" d="M731.4,318.6c2.8,4.3,5.1,11.8,0.8,15.9c-1.8,1.7-4.5,2-6.4,3.5c-1.6,1.2-2.9,2.8-4.6,3.9
							c-2.9,1.8-6.2,2.8-9.6,2.9c-1.1,0-2.5,0.1-3-1.1c-0.4-1,0.2-1.7,0.1-2.6c-0.1-0.4-0.5-0.6-0.9-0.6c0,0,0,0,0,0
							c-1,0.2-2,0.7-2.7,1.5c-0.5,0.4-1,0.9-1.4,1.4c-1.8,2.1-4.1,6.2-1.7,8.7c1.1,1,2.5,1.6,4,1.7c3.6,0.5,7.3,0,10.6-1.5
							c3.5-1.5,6.8-3.4,10.2-5.2c3.7-2.1,7.6-4.3,10.1-7.9c4.1-5.8,3.3-14.9-3.1-18.7L731.4,318.6z"/>
					</g>
				</g>
			</g>
			<g>
				<path class="st14" d="M751.2,339.1c-2.3-5.2-10.4-8-15.6,0.5c-6.2,10.3-20.5,14.6-15.6,17.5s15.9,1.1,24.5-3.8
					S753.7,344.8,751.2,339.1z"/>
				<g>
					<defs>
						<path id="SVGID_65_" d="M751.2,339.1c-2.3-5.2-10.4-8-15.6,0.5c-6.2,10.3-20.5,14.6-15.6,17.5s15.9,1.1,24.5-3.8
							S753.7,344.8,751.2,339.1z"/>
					</defs>
					<clipPath id="SVGID_4_">
						<use xlink:href="#SVGID_65_"  style="overflow:visible;"/>
					</clipPath>
					<g class="st8">
						<path class="st27" d="M722.6,344.6c-0.4,1-0.7,2.1-0.8,3.2c-0.3,1.9-0.7,4.3,1.5,5.3c0.6,0.3,1.2,0.5,1.9,0.6
							c0.7,0.2,1.4,0.3,2.2,0.4c4.3,0.4,8.5-1.2,12.4-2.9c2.5-1.1,5-2.3,7.4-3.7c2.2-1.3,4.1-2.9,6.2-4.4c1-0.7,3.8-3,4.3-0.7
							c0.1,0.3,0.1,0.5,0.1,0.8c0.1,5-3.4,9.1-7.2,11.8c-4.9,3.4-10.3,5.9-16.1,7.3c-3.7,1.1-7.7,1.4-11.5,1.1
							c-4.5-0.5-12.2-3.5-10.4-9.4c0.6-1.6,1.6-3.1,2.8-4.3L722.6,344.6z"/>
					</g>
				</g>
			</g>
			<g>
				<path class="st80" d="M717.8,205l28.7,8c5.4,34.9-8.5,51.9-10.6,113.2c-0.9,9.6-18.5,8-18.4-1.6L717.8,205z"/>
				<g>
					<defs>
						<path id="SVGID_67_" d="M717.8,205l28.7,8c5.4,34.9-8.5,51.9-10.6,113.2c-0.9,9.6-18.5,8-18.4-1.6L717.8,205z"/>
					</defs>
					<clipPath id="SVGID_6_">
						<use xlink:href="#SVGID_67_"  style="overflow:visible;"/>
					</clipPath>
					<g class="st15">
						<path class="st27" d="M712.2,222.8c0,1.7,0.3,3.4,0.9,5c1.2,3.4,3.3,6.6,6.8,7.8c4.2,1.4,10.3-1.7,13.1,2.7
							c0.4,0.7,0.8,1.5,1,2.3c0.3,1.2,0.5,2.4,0.6,3.7c0.4,7.5-2.6,14.8-2.4,22.4c0.1,2,1.9,10.3,0.5,12.8c-1.2,2.1-5.6,0-5.6,0
							c0.4,0.9,1.1,1.7,2,2.1c1.8,1,4.9,1.8,5,2.9c0.9,11.1,0.6,22.2-0.9,33.3c-0.7,4.5-1.9,9.9-5.9,12.6c-2,1.3-4.3,1-6.4,1.9
							c-0.4,0.2-1.9,0.5-1.5,1.3c0.4,1,2.3,1.8,3.1,2.2c3.6,1.7,7.4,2.5,11.4,2.5c4.6,0,9.1-1.3,13.5-2.8
							c9.8-3.5,19.3-9.1,25.6-17.5c13.2-17.7,9.2-42.7,2.7-62.3c-1.6-4.8-3.6-9.4-5.9-13.9c-2.5-4.9-5.5-9.6-8.9-14
							c-2.9-3.7-6.5-6.9-10.4-9.6c-6-4.1-12.5-7.9-20-7c-4.8,0.6-8.6,2.8-12.4,5.6c-0.8,0.6-1.5,1.3-2.3,1.9L712.2,222.8z"/>
					</g>
				</g>
			</g>
			<g>
				<path class="st82" d="M737.6,216.4l28.7,8c5.4,34.9-8.5,51.9-10.6,113.2c-0.9,9.6-18.5,8-18.4-1.6L737.6,216.4z"/>
				<g>
					<defs>
						<path id="SVGID_69_" d="M737.6,216.4l28.7,8c5.4,34.9-8.5,51.9-10.6,113.2c-0.9,9.6-18.5,8-18.4-1.6L737.6,216.4z"/>
					</defs>
					<clipPath id="SVGID_8_">
						<use xlink:href="#SVGID_69_"  style="overflow:visible;"/>
					</clipPath>
					<g class="st19">
						<path class="st27" d="M777.9,218.8c-4.7,3.4-8.8,20.8-18.3,20.1c-4.1-0.3-11.1,1.5-14.8,3.8c-2.1,1.3-1.4,4.9-3.4,6.2
							c-4.9,3-4.3,16.5-4.3,16.5s-9,6.5-13.3,2.9c-1.6-1.4-2.9-3.2-3.7-5.2c-1.2-2.7-2.2-5.5-2.8-8.4c-1-4.4-1.7-8.9-2-13.5
							c-0.5-6-0.1-12,1.3-17.9c0.8-3.9,2.4-7.5,4.6-10.7c3-3.9,7.3-6.4,11.9-8c14.1-4.9,28.9-0.6,39.9,9c5.9,5.1,10.6,11.6,11,19.6
							L777.9,218.8z"/>
					</g>
				</g>
			</g>
			<path class="st42" d="M727.1,168.6c-4.1-4.7-9.3-8.2-12.9-13.4c-1.6-2.3-3.2-5.1-3.4-8c-0.1-0.7,0-1.5,0.2-2.2
				c0.9-3.3,4.1-3.1,6.8-2.5c1.5,0.5,3,0.1,4.1-1c2.2-1.9,4.5,0.6,3-4.5c-0.7-2.2,2-3.7,3.1-5.4s0.8-3.9,1.7-5.6
				c1.6-3.1,3.3-7.1,6.2-5.5c1.9,1.1,2.7,3.1,3,5.2c0.5,3.9-0.5,7.9-0.5,11.9c0,4.2,1.8,7.4,2.6,11.4c1.3,6.3,0.1,14.9-5.9,18.5
				c-1.6,0.9-3.5,1.6-5.3,1.8L727.1,168.6z"/>
			<path class="st42" d="M750.5,132.3c3.5,4.1,0.2,6.5,2.5,9.9c1.7,2.6,5.4,3.8,6.3,7.1c0.5,2.1-1.2,4.1-1.8,6.1
				c-0.6,2.2-0.8,4.5-0.6,6.8c0.1,5.1-0.2,10.5-5.1,14c-0.9,0.6-1.8,1.1-2.8,1.4c-1,0.3-2.1,0.5-3.2,0.4c-4.5-0.1-8.7-3.1-9.5-7.7
				c-0.3-1.6,0-3.2,0.7-4.7c1.5-3,4.1-5.1,4.5-8.5c0.4-3.4-0.4-6.8-1-10.1c-0.9-4.3-1.2-8.7-0.9-13c0.3-3,1.7-7.5,5.4-7.8
				c0.6,0,1.3,0,1.9,0.2L750.5,132.3z"/>
			<g>
				<path class="st33" d="M727,148.9c11-4,12,11.2,7.8,16.3c-7.3,8.8-33.1,12.6-43.3,7c-8.1-5.7-11-23.6-8-40.4c0-0.8,0-1.6-0.1-2.4
					c-1.1-6.9,1.8-5.7,3.6-7c1.1-0.9,0.2-7.1,1.9-6c1,0.7,0.2,3.1,1.3,7.4c1.2,0.6,1.3,5.3-0.6,6.9l8.9,27.6L727,148.9z"/>
				<g>
					<defs>
						<path id="SVGID_71_" d="M727,148.9c11-4,12,11.2,7.8,16.3c-7.3,8.8-33.1,12.6-43.3,7c-8.1-5.7-11-23.6-8-40.4
							c0-0.8,0-1.6-0.1-2.4c-1.1-6.9,1.8-5.7,3.6-7c1.1-0.9,0.2-7.1,1.9-6c1,0.7,0.2,3.1,1.3,7.4c1.2,0.6,1.3,5.3-0.6,6.9l8.9,27.6
							L727,148.9z"/>
					</defs>
					<clipPath id="SVGID_10_">
						<use xlink:href="#SVGID_71_"  style="overflow:visible;"/>
					</clipPath>
					<g class="st21">
						<g>
							<path class="st6" d="M718.4,173.6c-2.9-1.3-4.6-4.8-5.9-7.6c-1.5-2.8-2.3-6-2.4-9.2c-0.2-9.6,7.6-16.8,16.6-18.4
								s18.5,3.2,19.4,13c0.2,2,0,3.9-0.5,5.9c-1.7,7.2-6.8,12.5-13.3,15.6L718.4,173.6z"/>
							<path class="st27" d="M678.4,149.5c0.8,4.9,9.7,26.5,30.2,21.9c7.6-1.7,18.9-15.5,18.9-15.5s2.8,1.3,3.8-0.2
								c0.4-0.6,0.8-1.2,1.1-1.7c0.1-0.1,0.4-0.8,0.6-0.4c0.5,1,0.2,2.8,0.1,3.9c-0.1,2.8-0.2,5.6-0.4,8.4c-0.3,5.7-0.9,12.6-5,17
								c-4.3,4.6-12.2,5.2-18.1,5.3c-3.4,0.1-6.7-0.2-10-0.8c-14.5-2.8-30.3-14.1-30.2-30.4L678.4,149.5z"/>
						</g>
					</g>
				</g>
			</g>
			<path class="st6" d="M726.9,149c11.9-3.8,22.9,1.7,30.9,7.8c5.3,25.6,12.9,47.6,9.6,74.4c-16.2,4.5-32.1,4.9-52.7-11.1
				C728.8,190.7,716.2,172.9,726.9,149z"/>
			<g>
				<defs>
					<path id="SVGID_73_" d="M726.9,149c11.9-3.8,22.9,1.7,30.9,7.8c5.3,25.6,12.9,47.6,9.6,74.4c-16.2,4.5-32.1,4.9-52.7-11.1
						C728.8,190.7,716.2,172.9,726.9,149z"/>
				</defs>
				<clipPath id="SVGID_12_">
					<use xlink:href="#SVGID_73_"  style="overflow:visible;"/>
				</clipPath>
				<g class="st22">
					<path class="st27" d="M776.2,167.2c-1.7-1.8-3.8-3.2-6.1-4.2c-1.5-0.8-3-1.4-4.7-1.9c-2-0.5-14.7,2.3-14.7,2.3
						s-4.4,16.5,0.2,25.5c4.1,7.9,6.6,10.9,7.2,19.7c0.3,4.4,0,9.2-2.9,12.8c-0.9,1.1-2,2.2-3.2,3c-3.4,2.6-7.9,3.2-11.9,1.5
						c-2.3-1-3.4-2.4-5.9-2.9c-1.8-0.2-3.6,0.1-5.3,0.6c-1.9,0.7-7,2.2-9,1.9c-4.6-0.7,6,11.9,1.7,10.7
						c-2.9-0.8-16.9-15.7-15.8-12.6c2.5,6.7,10.7,10.6,16.8,13c3,1.2,6,2.2,9.1,3c2.6,0.7,5.3,1.3,8,1.8c11.3,2,25.5,3.4,34.1-5.8
						c9.2-9.9,6.2-25.7,3.5-37.5c-0.7-2.9-1.4-5.8-2.3-8.6c-1.1-3.6-2.4-7.2-4-10.6L776.2,167.2z"/>
				</g>
			</g>
			<g>
				<path class="st33" d="M735.9,136.6l9.4,1.2c-1,6.8-0.5,10.3,1.1,12.3c-3.1,8.3-11.3,10.8-10.9-2.3
					C736.7,146,737.9,143.2,735.9,136.6z"/>
				<g>
					<defs>
						<path id="SVGID_75_" d="M735.9,136.6l9.4,1.2c-1,6.8-0.5,10.3,1.1,12.3c-3.1,8.3-11.3,10.8-10.9-2.3
							C736.7,146,737.9,143.2,735.9,136.6z"/>
					</defs>
					<clipPath id="SVGID_14_">
						<use xlink:href="#SVGID_75_"  style="overflow:visible;"/>
					</clipPath>
					<g class="st24">
						<path class="st27" d="M745.7,137.8c0.1,3.9-4,4.2-4.7,6.7c-0.8,2.9-3.5,1.2-4.2,2.5c-1.9,3.3-2.1,8.1,0.1,10.2
							c0.8,0.7,4.3,1.7,5,2.5c0.2,0.2,0.6,0.7,0.4,1c-0.3,0.5-1.4,0.4-1.8,0.3c-1.8-0.2-3.5-0.8-5-1.7c-2.9-1.7-4.9-4.7-6.2-7.7
							c-1-2.1-1.6-4.3-1.8-6.6c-0.2-1.8,0.1-3.7,0.9-5.3c1-1.8,2.5-3.3,4.3-4.4c3.1-2,6.7-3.4,10.4-2.7c4,0.8,8.2,4,7.8,8.5
							c-0.1,0.7-0.3,1.4-0.6,2.1L745.7,137.8z"/>
					</g>
				</g>
			</g>
			<path class="st33" d="M739.4,122.2c-4.2,0-6.8,4.9-6.8,11.2s-0.9,10.9,3.2,10.9s11.2-4.3,11.2-10.6S743.5,122.2,739.4,122.2z"/>
			<g>
				<path class="st12" d="M699,176.4c-0.1-0.3,0-0.7,0.3-0.9c0.3-0.2,0.7-0.2,1-0.1l19.8,11.4c0.2,0.1,0.3,0.3,0.4,0.5
					c0.9,3.1,8.2,27.1,10.4,34.3c0.1,0.4-0.1,0.9-0.6,1.1c-0.2,0.1-0.5,0-0.7-0.1l-19.8-11.4c-0.2-0.1-0.3-0.3-0.4-0.5
					C708.4,207.7,701.2,183.7,699,176.4z"/>
				<path class="st14" d="M704.5,177.9c1.1-1.4,11.3,2.2,13.2,7.8c-3.9,9,8,29.9,6.3,30c-2.6,0.1-13.5-6.8-14.4-8.8
					C701.4,189.4,703.1,178.8,704.5,177.9z"/>
			</g>
			<g>
				<path class="st33" d="M751,170.1c-3-13.5,3.9-16.8,8.5-12.1c8,8.1,16.7,34.5,10,44c-6.5,7.5-24.6,8.5-41,3.8
					c-0.8-0.2-1.6-0.2-2.4-0.2c-5.3,0.8-8.4-3.1-7.4-5.5c0.4-1.2,3.8,1,5.1-0.8l-0.8-3.2c2,0,3.6,1.3,5,3.4l28.4-6L751,170.1z"/>
				<g>
					<defs>
						<path id="SVGID_77_" d="M751,170.1c-3-13.5,3.9-16.8,8.5-12.1c8,8.1,16.7,34.5,10,44c-6.5,7.5-24.6,8.5-41,3.8
							c-0.8-0.2-1.6-0.2-2.4-0.2c-5.3,0.8-8.4-3.1-7.4-5.5c0.4-1.2,3.8,1,5.1-0.8l-0.8-3.2c2,0,3.6,1.3,5,3.4l28.4-6L751,170.1z"/>
					</defs>
					<clipPath id="SVGID_16_">
						<use xlink:href="#SVGID_77_"  style="overflow:visible;"/>
					</clipPath>
					<g class="st26">
						<g>
							<path class="st27" d="M772.3,171c-0.2,2.2-0.6,4.4-1,6.5c0,0-6.8,5.7-11.6,6.7c-1.8,0.4-5.1,1.5-6.9,1.8
								c-0.6,0.1-1,5,3.9,7.4c1.6,0.8,1.8,4.1,1.8,4.1c-1.1-1.2-2.5-2.2-4.1-2.6c-0.4-0.1-0.3,1.1-0.8,0.4c-1.2-1.7-4.5,0.3-6.6,0
								c-2.9-0.3-5.4-2-6.6-4.6c-1.6-2.8-1.5-6.5-1.2-9.6c1.2-10.1,8.4-18.4,18.2-21.1c5.8-1.5,13.4-0.1,15.1,6.5
								c0.3,1.5,0.4,3,0.1,4.5L772.3,171z"/>
							<path class="st6" d="M773.8,175.4c-1.6,2.7-5.3,4.1-8.1,5.1c-3,1.2-6.2,1.6-9.4,1.4c-9.5-0.8-15.9-9.3-16.5-18.4
								s5.1-18.1,14.9-17.9c2,0,3.9,0.4,5.8,1.1c7,2.4,11.8,8,14.1,14.9L773.8,175.4z"/>
						</g>
					</g>
				</g>
			</g>
			<path class="st42" d="M743.6,130.4c-0.9,0.2-1.8,0.2-2.7,0.1c-2.7,0-5.2-0.9-7.3-2.6c-1.4,1.8-4.8,0.8-6.3-0.4
				c-2.7-2.2-3.7-6.2-3.2-9.6c0.2-1.5,0.8-3,1.6-4.3c0.6-1,1.5-1.9,2.4-2.6c0.9-0.6,2-1.1,3.1-1.3c6.1-1.3,10.7,3.7,10.7,9.5
				c1-0.3,2.2-0.3,3.2,0.1c2.8,1,4.7,3.7,4.7,6.7c0.9,0.5,1.6,1.4,1.9,2.4c0.8,1.5,0.9,3.2,0.4,4.8c-0.8,2.1-3.1,3.3-5.2,2.7
				c0.4,1.3-1.2,1.6-2.1,1c-1.7-1.2-1.8-3.3-1.2-5.1L743.6,130.4z"/>
		</g>
	</g>
	<g>
		
			<ellipse transform="matrix(0.4135 -0.9105 0.9105 0.4135 -45.2476 461.8638)" class="st75" cx="335.9" cy="266.1" rx="19.2" ry="51.9"/>
		<g>
			<path class="st88" d="M351.3,252.8c2.3-5.1,10.2-7.8,15.3,0.5c6.1,10.1,17.2,16,12.4,18.8s-12.3-1.7-20.7-6.6
				S348.8,258.5,351.3,252.8z"/>
			<path class="st89" d="M364.4,235.2h-10.1c0.8,5.1,1.5,10.2-0.6,14.7c-0.2,5.7,8.8,4.8,11.5,1.3
				C362.3,246.5,362.8,241.2,364.4,235.2z"/>
			<g>
				<defs>
					<path id="SVGID_79_" d="M364.4,235.2h-10.1c0.8,5.1,1.5,10.2-0.6,14.7c-0.2,5.7,8.8,4.8,11.5,1.3
						C362.3,246.5,362.8,241.2,364.4,235.2z"/>
				</defs>
				<clipPath id="SVGID_18_">
					<use xlink:href="#SVGID_79_"  style="overflow:visible;"/>
				</clipPath>
				<g class="st28">
					<path class="st27" d="M364.6,244.9c-0.9,0.1-1.9,0.3-2.7,0.7c-2.5,0.8-5.4,1.9-6.4,4.5c-0.6,1.4,0,3.6-1.2,4.8
						c-1.4,1.4-3.2,0.1-4-1.3c-2.6-4.5-1.4-11.3,2.4-14.8c2.9-2.7,7.1-3.3,10.7-1.6c1.3,0.7,2.5,1.8,3.2,3.2L364.6,244.9z"/>
				</g>
			</g>
			<path class="st88" d="M271.7,229.6c4.5-3.2,12.8-1.5,12.9,8.2c0.1,11.8,10,22.6,4.4,22.5s-14-7-18.8-15.5
				S266.6,233.2,271.7,229.6z"/>
			<g>
				<path class="st89" d="M293.4,224.7l-7.4-6.8c-2.9,4.3-5.8,8.5-10.4,10.4c-4,4.1,4.5,9.3,8.9,8.4
					C285.5,231.3,288.2,228.1,293.4,224.7z"/>
				<g>
					<defs>
						<path id="SVGID_81_" d="M293.4,224.7l-7.4-6.8c-2.9,4.3-5.8,8.5-10.4,10.4c-4,4.1,4.5,9.3,8.9,8.4
							C285.5,231.3,288.2,228.1,293.4,224.7z"/>
					</defs>
					<clipPath id="SVGID_20_">
						<use xlink:href="#SVGID_81_"  style="overflow:visible;"/>
					</clipPath>
					<g class="st31">
						<path class="st27" d="M289.4,231.1c-0.8-0.4-1.7-0.7-2.7-0.9c-2.5-0.6-5.6-1.3-7.8,0.4c-1.2,0.9-2,3-3.6,3.4
							c-1.9,0.4-2.7-1.7-2.7-3.2c0.2-5.3,4.8-10.3,9.9-11.3c3.9-0.7,7.8,1,9.9,4.4c0.7,1.3,1.1,2.9,1,4.4L289.4,231.1z"/>
					</g>
				</g>
			</g>
			<g>
				<path class="st89" d="M351.7,63.7c-6.8-11.8-17-7.3-17.2-0.8c-0.4,11.2,10.9,36,21.9,38.4c9.7,1.1,23.3-10.2,32.1-24.5
					c0.4-0.7,0.9-1.3,1.6-1.7c6.3-3.5,6.3-9.4,4-10.5c-1.1-0.5-5.9,4.6-6.7,4.5c0,0,0.2-2.4-0.4-2.5c-1.1-0.2-2.6,2.9-2.3,5.4
					l-24.5,14.5L351.7,63.7z"/>
				<g>
					<defs>
						<path id="SVGID_83_" d="M351.7,63.7c-6.8-11.8-17-7.3-17.2-0.8c-0.4,11.2,10.9,36,21.9,38.4c9.7,1.1,23.3-10.2,32.1-24.5
							c0.4-0.7,0.9-1.3,1.6-1.7c6.3-3.5,6.3-9.4,4-10.5c-1.1-0.5-5.9,4.6-6.7,4.5c0,0,0.2-2.4-0.4-2.5c-1.1-0.2-2.6,2.9-2.3,5.4
							l-24.5,14.5L351.7,63.7z"/>
					</defs>
					<clipPath id="SVGID_22_">
						<use xlink:href="#SVGID_83_"  style="overflow:visible;"/>
					</clipPath>
					<g class="st32">
						<path class="st88" d="M335.8,84.9c3,0.9,6.5-0.6,9.3-1.7c2.9-1.1,5.6-2.9,7.7-5.2c6.3-6.9,5.3-17.3-0.3-24.3s-15.7-9.6-22.7-3
							c-1.4,1.3-2.6,2.9-3.5,4.6c-3.4,6.4-3.1,13.6-0.3,20.1L335.8,84.9z"/>
					</g>
				</g>
			</g>
			<g>
				<path class="st93" d="M353.2,124.8l-27.4,1c-3.5,22.5,14.7,39.1,18.9,63.7c2.8,16.2,4.4,32.5,4.9,48.9c0.9,9.4,18.2,7.9,18-1.5
					c0,0-0.2-34.7-0.5-51C366.8,161.2,353.2,124.8,353.2,124.8z"/>
				<g>
					<defs>
						<path id="SVGID_85_" d="M353.2,124.8l-27.4,1c-3.5,22.5,14.7,39.1,18.9,63.7c2.8,16.2,4.4,32.5,4.9,48.9
							c0.9,9.4,18.2,7.9,18-1.5c0,0-0.2-34.7-0.5-51C366.8,161.2,353.2,124.8,353.2,124.8z"/>
					</defs>
					<clipPath id="SVGID_24_">
						<use xlink:href="#SVGID_85_"  style="overflow:visible;"/>
					</clipPath>
					<g class="st34">
						<path class="st27" d="M356.1,115.1c0.6,8.2,6.1,17.2-9.6,21.8c-12.4,3.6-9.4,11-8.9,11.8c1.9,3.2,4,5.4,5.3,7.5
							c3.9,6.1,6.5,13,7.3,20.2c0.4,3.7,0.4,7.4,0.2,11.2c0,1-0.7,3.6,0,4.5c0.5,0.6,2.2-3.1,2.4-3.3c0.1-0.2,0.6-1.1,0.9-0.8
							c0.8,1-1,4.9-1.3,5.9c-1.9,5.5-2,10.4-1.1,16.2c0.8,5.4,2.3,10.9,2.4,16.3c0.1,3.6-1.4,7.3-0.9,10.8c0.4,2.5,3.8,7.1,1.5,9.3
							c-4,3.8-11.2-2.5-13.7-5c-1-1-1.9-2.1-2.8-3.2c-1-1.3-2-2.7-2.9-4.2c-1-1.6-1.9-3.2-2.8-4.9c-3.1-5.9-5.9-12-8.3-18.2
							c-4.3-10.7-7.6-21.8-9.9-33.1c-4-19.9-3.4-43.2,10.4-59.4c4.6-5.4,10.9-10,17.8-11.8c8.1-2.1,17.6,0.7,22.2,7.9L356.1,115.1z"
							/>
					</g>
				</g>
			</g>
			<g>
				<path class="st93" d="M332,121.4l-28.2,7.8c-3.3,21.4,0,28.1,4.1,50.8c2.4,13.5-17.3,20.5-27.5,38.7c-3.7,8,7.5,15,14.2,8.9
					c0,0,35.5-20.8,37.5-44.9C333.6,164.9,332,121.4,332,121.4z"/>
				<g>
					<defs>
						<path id="SVGID_87_" d="M332,121.4l-28.2,7.8c-3.3,21.4,0,28.1,4.1,50.8c2.4,13.5-17.3,20.5-27.5,38.7c-3.7,8,7.5,15,14.2,8.9
							c0,0,35.5-20.8,37.5-44.9C333.6,164.9,332,121.4,332,121.4z"/>
					</defs>
					<clipPath id="SVGID_26_">
						<use xlink:href="#SVGID_87_"  style="overflow:visible;"/>
					</clipPath>
					<g class="st36">
						<path class="st27" d="M338,152.7c-1,6.6-2.9-10-20.3-8.9c-3.2,0.2-8.8,5.1-9.4,8.1c-1.2,5.7,4.2,11,5.4,16.7
							c0.7,3.3-4.7,13.8-1.5,14.6c1,0.3,4.1-0.9,4-0.8c-4.5,7.2-5.2,6.3-10.5,13c-8.3,10.7-23,13.3-25.2,29
							c-1.2,8.5-18.5,6.8-21-5.8c-7-35.2,4-80.8,27.9-107.7c19.4-21.8,52.4-26.1,69.4,0L338,152.7z"/>
					</g>
				</g>
			</g>
			<g>
				<path class="st88" d="M344.7,57.1c-13.2-4.7-28.7,1.5-33.3,5.5c-5.1,25.1-11.9,47-8.7,73.2c15.9,4.4,31.5,4.8,51.6-10.8
					c-5.9-12.4-6.9-22.7-7.1-32.4C347,80,350.7,70.4,344.7,57.1z"/>
				<g>
					<defs>
						<path id="SVGID_89_" d="M344.7,57.1c-13.2-4.7-28.7,1.5-33.3,5.5c-5.1,25.1-11.9,47-8.7,73.2c15.9,4.4,31.5,4.8,51.6-10.8
							c-5.9-12.4-6.9-22.7-7.1-32.4C347,80,350.7,70.4,344.7,57.1z"/>
					</defs>
					<clipPath id="SVGID_28_">
						<use xlink:href="#SVGID_89_"  style="overflow:visible;"/>
					</clipPath>
					<g class="st38">
						<path class="st27" d="M307.4,55.8c-0.2,11,18.9,1.7,0.5,33c-3.7,6.3,4.1,13.7,6.1,20.7c1.8,6.1,2.3,14.9,8.6,18.4
							c3,1.7,6.8,2.9,10.1,2.4c5.4-0.8,6.6-9.2,11.1-6.1c7.6,5.2,16.4-5.7,15.6,2.9c-0.3,2.8-3.8,2.1-5.4,3.7
							c-5.4,5.3-12.9,8.6-20.1,10.6c-6,1.6-12.1,2.2-18.3,2c-5.2,0-10.3-0.9-15.1-2.6c-2.5-0.9-4.9-2.2-7.1-3.7
							c-17.3-11.9-19.3-35.7-15-54.6c0.6-2.6,1.3-5.2,2.2-7.7c0.8-2.4,1.8-4.7,2.9-7c3.9-8,12.2-20.5,22.9-16.7L307.4,55.8z"/>
					</g>
				</g>
			</g>
			<g>
				<path class="st97" d="M335.6,43.8l-11.2,0.5c1,6.7-0.2,11-1.8,12.9c3.1,8.1,13.1,11.4,12.7-1.5C334.2,54,333.6,50.2,335.6,43.8z
					"/>
				<g>
					<defs>
						<path id="SVGID_91_" d="M335.6,43.8l-11.2,0.5c1,6.7-0.2,11-1.8,12.9c3.1,8.1,13.1,11.4,12.7-1.5
							C334.2,54,333.6,50.2,335.6,43.8z"/>
					</defs>
					<clipPath id="SVGID_30_">
						<use xlink:href="#SVGID_91_"  style="overflow:visible;"/>
					</clipPath>
					<g class="st40">
						<path class="st27" d="M321.9,46.1c0.8,0.9,1.5,1.8,2.1,2.8c1.3,1.6,2.1,1.5,3.3,4.3c0.8,1.9,3.6,3.7,5.5,2.5
							c3.6-2.1,4.8,6,6.8,6.1c0.8,0.1,2.1-3.8,2.7-4.3c0.4-0.4,0.6-1,0.5-1.6c-0.1-1.2-0.4-2.5-0.7-3.7c-1.2-4.7-3.2-10.7-8.4-13.5
							c-5-2.6-11.8-0.7-12.9,4.3L321.9,46.1z"/>
					</g>
				</g>
			</g>
			<path class="st89" d="M333.2,31.6c4,1,5.3,6.3,3.7,12.4s-1.8,10.5-5.7,9.5s-9.6-6.8-8-12.8S329.2,30.5,333.2,31.6z"/>
			<g>
				<path class="st76" d="M334.2,108L346,83.2c4.6-4.1,8.8-6.3,12.5-6.4c3.8-0.3,8.2,1.4,13.2,4.9c4.6,3.4,8.2,5.2,10.9,5.4
					c2.6,0.3,5.3-0.8,8.1-3.3c3.3-3,5.6-7,6.5-11.4c1-5.1,1-10.4-0.2-15.5c-2.1-9.6-6.8-18.4-13.5-25.5l0.2-25.5l11.9,3.8
					c8.7,8.4,14.5,20.1,17.7,35c1.8,8.1,2.3,16.4,1.5,24.7c-0.7,7.6-2.7,14.9-5.9,21.8c-2.8,6.2-6.8,11.8-11.8,16.4
					c-4.8,4.3-9.2,6.6-13.4,7.3c-4.2,0.5-9.7-1.5-16.6-6c-4.3-2.8-7.4-4.2-9.5-4.4c-2-0.1-4.5,1.1-7.4,3.7l-4.1,3.7L334.2,108z
					 M332.4,111.2c1,4.7,0.8,9.6-0.6,14.3c-1.4,4.6-4.1,8.7-7.7,11.9c-3.8,3.4-6.8,3.7-9.5,3.5c-3.2-0.2-13.5-2.4-14.6-6.3
					c-1.3-5,8.2-12.3,9.6-16.9c1.4-4.6-2.6-15.3,1.1-18.6c3.8-3.4,13.6,2,16.1,3S331.3,106.1,332.4,111.2L332.4,111.2z"/>
				<path class="st11" d="M329.1,84l5.1-4.6c4.6-4.1,8.8-6.3,12.5-6.4c3.8-0.3,8.2,1.4,13.2,4.9c4.6,3.4,8.2,5.2,10.9,5.4
					c2.6,0.3,5.3-0.8,8.1-3.3c3.3-3,5.6-7,6.5-11.4c1-5.1,1-10.4-0.2-15.5c-2.1-9.6-6.8-18.4-13.5-25.5l12.1-21.7
					c8.7,8.4,14.5,20.1,17.7,35c1.8,8.1,2.3,16.4,1.5,24.7c-0.7,7.6-2.7,14.9-5.9,21.8c-2.8,6.2-6.8,11.8-11.8,16.4
					c-4.8,4.3-9.2,6.6-13.4,7.3c-4.2,0.5-9.7-1.5-16.6-6c-4.3-2.8-7.4-4.2-9.5-4.4c-2-0.1-4.5,1.1-7.4,3.7l-4.1,3.7L329.1,84z
					 M320.5,107.4c1,4.7,0.8,9.6-0.6,14.3c-1.4,4.6-4.1,8.7-7.7,11.9c-3.8,3.4-7,4.5-9.5,3.5c-2.6-0.9-4.4-3.9-5.5-8.7
					c-1.1-4.8-0.9-9.8,0.5-14.5c1.4-4.7,4.1-8.8,7.7-12c3.8-3.4,7-4.6,9.5-3.6C317.6,99.3,319.4,102.3,320.5,107.4L320.5,107.4z"/>
			</g>
			<g>
				<path class="st89" d="M316.1,78.8c9.2-10,4.7-20.2-1.5-18.4c-4,1.1-12.3,6.2-17.4,10.4c-8.5,7.1-16.1,16.8-15.5,23.9
					c1.3,6.6,18.5,24.3,30,27.8c0.8,0.1,1.5,0.5,2.1,1c6.4,6.2,9.8,1.5,10.2-1c0.2-1.2-4.4-2.3-4.6-3.2c0,0,2.4-1.1,2.3-1.7
					c-0.2-1.1-4.4-1.2-6.6-0.2l-18.2-23.5L316.1,78.8z"/>
				<g>
					<defs>
						<path id="SVGID_93_" d="M316.1,78.8c9.2-10,4.7-20.2-1.5-18.4c-4,1.1-12.3,6.2-17.4,10.4c-8.5,7.1-16.1,16.8-15.5,23.9
							c1.3,6.6,18.5,24.3,30,27.8c0.8,0.1,1.5,0.5,2.1,1c6.4,6.2,9.8,1.5,10.2-1c0.2-1.2-4.4-2.3-4.6-3.2c0,0,2.4-1.1,2.3-1.7
							c-0.2-1.1-4.4-1.2-6.6-0.2l-18.2-23.5L316.1,78.8z"/>
					</defs>
					<clipPath id="SVGID_32_">
						<use xlink:href="#SVGID_93_"  style="overflow:visible;"/>
					</clipPath>
					<g class="st41">
						<g>
							<path class="st27" d="M291.5,71.6c0,4.2,1.8,8.2,5.1,10.9c1.1,0.8,2.3,1.5,3.5,2.1c0.4,0.2,1.2,0.5,1.3,1
								c0.1,0.5-0.4,0.9-0.7,1.2c-0.8,0.7-1.6,1.5-2.3,2.3c-0.6,0.8-1.1,1.7-1.5,2.6c-0.1,0.4-0.1,1.1-0.6,1.3
								c-0.7,0.3-1.9-0.6-2.4-0.9c-0.1,0-1.2-0.8-1-0.4c0.6,1.4,2.4,1.8,3.4,2.8c0.5,0.5,0.7,1.2,1.1,1.7c1.9,2.3,5,4.7,8.1,3.9
								c0.8-0.2,1.5-0.5,2.2-0.9c1-0.6,1.9-1.3,2.7-2.1c1.2-1.2,2.3-2.5,3.2-4c2.5-4,3.9-9,2.8-13.6c-2.2-9.2-12.9-13.7-21.3-10.3
								L291.5,71.6z"/>
							<path class="st88" d="M291,69.9c0.1,3.1,2.5,6.1,4.4,8.3c2,2.4,4.5,4.4,7.3,5.8c8.5,3.9,18.1-0.1,23.1-7.6s4.5-17.9-3.9-22.5
								c-1.7-0.9-3.5-1.6-5.4-1.9c-7.1-1.3-13.9,1.1-19.3,5.8L291,69.9z"/>
						</g>
					</g>
				</g>
			</g>
			<path class="st42" d="M325.2,40.2c4.2,1.2,8.8,0.9,11.6-3.3c0.7,0.4,1.6,0,2.1-0.5c1.5-1.3,2.5-3.2,2.6-5.2
				c0.3-3-0.4-6.3-2.5-8.3c-3.2-3-8.4-1.1-10.2,2.8c-1,0.2-1.9,0.6-2.6,1.4c-1.5,1.2-2.3,3.1-2.2,5.1c-1,0.1-2.1,1.4-2.7,2.1
				c-1.6,1.9-3.2,5-1.9,7.5c1.5,2.9,5.4,1.7,5.9-1.3L325.2,40.2z"/>
		</g>
	</g>
	<g>
		
			<ellipse transform="matrix(0.3791 -0.9254 0.9254 0.3791 -360.537 716.1647)" class="st75" cx="353.4" cy="626.7" rx="17.4" ry="41.6"/>
		<g>
			<g>
				<g>
					<path class="st33" d="M324.7,583.4l-10.3,5.1c-0.6,17.6-2.3,16.9-2.6,29.4l15.4-9.4C324.5,602.9,325.2,597.5,324.7,583.4z"/>
					<g>
						<defs>
							<path id="SVGID_95_" d="M324.7,583.4l-10.3,5.1c-0.6,17.6-2.3,16.9-2.6,29.4l15.4-9.4C324.5,602.9,325.2,597.5,324.7,583.4z"
								/>
						</defs>
						<clipPath id="SVGID_34_">
							<use xlink:href="#SVGID_95_"  style="overflow:visible;"/>
						</clipPath>
						<g class="st43">
							<path class="st27" d="M309.4,603c3.8,2.4,8.5,0.7,12.6,1.6c0.4,0.1,0.8,0.2,1.1,0.4c2.1,1,1.6,3.1,2.7,4.8
								c1.1,1.8,3.1,1.1,4.4-0.2c0.5-0.5,0.9-1.1,1.2-1.8c0.5-0.9,0.8-1.8,1-2.8c0.3-1.5,0.2-3.1-0.2-4.6c-0.3-0.9-0.7-1.8-1.2-2.6
								c-3.5-5.2-10.5-5.5-16-3.7c-2.9,0.9-5.5,2.4-7,5.2L309.4,603z"/>
						</g>
					</g>
				</g>
				<path class="st101" d="M326.1,603.1c-2.5,9.1-8.6,7.8-14.2,7.6c-3.5,2.6-2.7,8.2-0.7,10.2c5.1,4.8,29-6.5,32.6-12.5
					c3.5-3.2,6-7-7.6-4.3C332.1,604.9,332.2,603.2,326.1,603.1z"/>
				<g>
					<path class="st102" d="M344.1,446.4l-31.1,3.3c-5,30.5,6.4,45,6,71.4c-6.9,23.6-0.8,35.8-10.1,77.6c-0.5,3.3,3.4,4.6,7.8,4
						c5-0.7,10.7-3.8,11.5-9.1c0,0,11.8-48.4,13.4-76.2C343.3,484.6,344.1,446.4,344.1,446.4z"/>
					<g>
						<defs>
							<path id="SVGID_97_" d="M344.1,446.4l-31.1,3.3c-5,30.5,6.4,45,6,71.4c-6.9,23.6-0.8,35.8-10.1,77.6c-0.5,3.3,3.4,4.6,7.8,4
								c5-0.7,10.7-3.8,11.5-9.1c0,0,11.8-48.4,13.4-76.2C343.3,484.6,344.1,446.4,344.1,446.4z"/>
						</defs>
						<clipPath id="SVGID_36_">
							<use xlink:href="#SVGID_97_"  style="overflow:visible;"/>
						</clipPath>
						<g class="st45">
							<path class="st27" d="M301.7,452.3c5,6.3,7.3,16.5,14.6,20c4.8,2.3,13.8,0.1,16.5,5.4c1.8,3.5,1.4,7.5,1.6,11.4
								c0.2,7.8,6.9,33.8,1.3,31.1c-6.1-2.8-0.4,17.5-2.9,30.3c-2.4,12.2-9,26.6-9.4,39.2c-3.8,16.2,18.6,18.3,28.6,19.6
								c7.3,0.9-10.5-1.8-6.6-6.9c8.3-10.9,13.3-23.9,17.3-36.8c6.8-21.7,10.3-44.3,10.5-67c0.1-13.6-0.3-32.7-11.2-42.7
								c-4.1-3.8-9.6-5.5-14.8-6.9c-10.8-2.9-22.1-3.8-33.3-2.5L301.7,452.3z"/>
						</g>
					</g>
				</g>
			</g>
			<g>
				<g>
					<path class="st33" d="M353.6,596.4l-11.4,1.5c-2.6,16.6-5.7,14.4-7.8,27.3l16.9-4C350.7,615.2,349.6,609.9,353.6,596.4z"/>
					<g>
						<defs>
							<path id="SVGID_99_" d="M353.6,596.4l-11.4,1.5c-2.6,16.6-5.7,14.4-7.8,27.3l16.9-4C350.7,615.2,349.6,609.9,353.6,596.4z"/>
						</defs>
						<clipPath id="SVGID_38_">
							<use xlink:href="#SVGID_99_"  style="overflow:visible;"/>
						</clipPath>
						<g class="st46">
							<path class="st27" d="M333.3,613.9c3.7,2.5,8.5,0.8,12.6,1.8c0.4,0.1,0.8,0.2,1.1,0.4c2,1.1,1.6,3.3,2.6,5.1
								c1.1,2,3.1,1.2,4.4-0.2c0.5-0.5,0.9-1.2,1.3-1.8c0.5-0.9,0.8-1.9,1-3c0.3-1.6,0.3-3.3-0.1-4.9c-0.3-1-0.6-1.9-1.2-2.7
								c-3.4-5.5-10.4-5.9-15.9-4.1c-3,0.8-5.5,2.7-7.1,5.4L333.3,613.9z"/>
						</g>
					</g>
				</g>
				<path class="st101" d="M351.1,616.6c-5.7,7.5-10.1,4.5-15.2,2.3c-4.2,1.1-2.8,8.5-1.8,11.2c1.6,4,30.7,0.3,36.2-3.9
					c7.1-4.1,3.9-7.9-8.3-6.7C358,619.9,356.8,619,351.1,616.6z"/>
				<g>
					<path class="st102" d="M355.9,459.9l-29.7,7.3c-9.2,29.5,33.9,43.2,29.8,69.3c-10.1,22.5-5,33.3-20,73.4
						c-2.1,6.9,16.9,7.3,19.8-2.4c0,0,18.3-46.3,23.7-73.6C385.9,501.6,355.9,459.9,355.9,459.9z"/>
					<g>
						<defs>
							<path id="SVGID_101_" d="M355.9,459.9l-29.7,7.3c-9.2,29.5,33.9,43.2,29.8,69.3c-10.1,22.5-5,33.3-20,73.4
								c-2.1,6.9,16.9,7.3,19.8-2.4c0,0,18.3-46.3,23.7-73.6C385.9,501.6,355.9,459.9,355.9,459.9z"/>
						</defs>
						<clipPath id="SVGID_40_">
							<use xlink:href="#SVGID_101_"  style="overflow:visible;"/>
						</clipPath>
						<g class="st47">
							<path class="st27" d="M318.1,470.1c3.4,5.1,42.6,6.9,53.2,41.7c9.5,31.1-3.3,12.2-2.9,21c0.9,20-2.4,28-8.8,46.7
								c-3.7,10.6-6.6,21.6-11.9,31.5c-4.6,8.6,14.6,17.9,24,16.7c7.2-1,13.7-6.1,18.3-11.4c17.1-19.8,20.3-50.2,19.6-75.3
								c-0.2-8.2-2.3-17-4-24.9c-4-18.6-8.2-39-20.8-53.9c-3.7-4.4-8.4-8.7-14.1-10.2c-11.9-3.1-49.1,0-54.2,10.7L318.1,470.1z"/>
						</g>
					</g>
				</g>
			</g>
			<path class="st33" d="M248.1,393.9c-6.5-1.7-3.4-5.5-0.2-5.5c3.3,0,4.5,2.3,4.8,1.5c0,0-1-2.9,0.1-2.6c4.2,1.3,3,7.9,3,7.9
				l-1.9,2.4C250.9,398.4,250.7,394.6,248.1,393.9z"/>
			<g>
				<path class="st93" d="M256.8,390.6l37,14.2c0,0,14.2-6.2,24.4-12.8c7.4-4.8,17.8,14.9,12.8,19.3c-12.2,10.5-28.1,13.4-36,12
					c-13.1-2.2-42.7-25.2-42.7-25.2C251.1,397.5,255.3,389.8,256.8,390.6z"/>
				<g>
					<defs>
						<path id="SVGID_103_" d="M256.8,390.6l37,14.2c0,0,14.2-6.2,24.4-12.8c7.4-4.8,17.8,14.9,12.8,19.3
							c-12.2,10.5-28.1,13.4-36,12c-13.1-2.2-42.7-25.2-42.7-25.2C251.1,397.5,255.3,389.8,256.8,390.6z"/>
					</defs>
					<clipPath id="SVGID_42_">
						<use xlink:href="#SVGID_103_"  style="overflow:visible;"/>
					</clipPath>
					<g class="st48">
						<path class="st27" d="M274.7,420.6c0.8,0.6,2.4,0.5,3.3,0.7c2.9,0.4,5.8,0.3,8.7,0.7c24.6,3.5,25.9-4.7,35.4-14.3
							c1.1-1.1,2.1-2.2,3.2-3.4c3.5-4,8.6-12.3,15-8.1c9.9,6.4,5.8,21.7-0.3,29.1c-1.4,1.7-2.9,3.2-4.6,4.6
							c-14.4,11.9-37.4,14.8-53.5,5L274.7,420.6z"/>
					</g>
				</g>
			</g>
			<g>
				<path class="st93" d="M354.1,402.7c-8.2-13.3-30.7-13.8-34.2-9.2c-8.7,11.7,4.7,37.4-10.6,61.1c-5.9,9.2,58,26.1,49.8,7.7
					C341.8,424,359.8,424.7,354.1,402.7z"/>
				<g>
					<defs>
						<path id="SVGID_105_" d="M354.1,402.7c-8.2-13.3-30.7-13.8-34.2-9.2c-8.7,11.7,4.7,37.4-10.6,61.1c-5.9,9.2,58,26.1,49.8,7.7
							C341.8,424,359.8,424.7,354.1,402.7z"/>
					</defs>
					<clipPath id="SVGID_44_">
						<use xlink:href="#SVGID_105_"  style="overflow:visible;"/>
					</clipPath>
					<g class="st57">
						<path class="st27" d="M364.8,406.8c-3.3,0.5-6.6,3.5-9.1,5.5c-2.4,1.9-4.5,4.2-6.2,6.8c-4.9,8.1-3,18.2-0.5,26.8
							c1.2,4.1,3.2,8.3,3,12.7c-0.2,5.3-3.3,8.9-7.7,11.4c-1.6,0.9-3.3,1.7-4.8,2.6c-0.5,0.3-1.4,0.8-1.6,1.5
							c-0.3,1.6,4.1,1.9,4.9,2c3.6,0.3,7.3,0.1,10.8-0.5c4.5-0.6,8.9-2.2,12.7-4.6c12.5-8.1,16.9-25,16.1-39.1
							c-0.7-11.9-5.3-25.2-17.2-29.8L364.8,406.8z"/>
					</g>
				</g>
			</g>
			<path class="st33" d="M365.5,461.9c-0.9,2.9-2.4,4.8-5.7,3.9c0,0-3.4-3.6-4.3-4.8c0,0-5-0.6-4.2-1.6c2.1-2.5,9.8-0.8,9.8-0.8
				L365.5,461.9z"/>
			<path class="st93" d="M358.9,458l3.9-21.9c0,0-10.1-13.3-21.2-20.7c-5.5-3.7,1.7-21,7.6-17.8c14,7.7,25.8,24.4,28.4,34.7
				c2.8,11.1-11.5,32-11.5,32C363.3,467,358.8,460.8,358.9,458z"/>
			<path class="st33" d="M340.2,381.5l-8.2-1.7c1.1,4.4,1.1,7.4-1.8,11.1c1.6,2.9,4.7,3.7,9.7,1.8
				C338.1,388.8,337.7,387.1,340.2,381.5z"/>
			<path class="st33" d="M337.3,369.4c4,0,6.4,2.2,7.1,7.1c0.6,4.2,0.9,11.4-3,11.4s-10.8-2.1-11.2-9.6
				C329.9,373.3,333.3,369.4,337.3,369.4z"/>
			<path class="st42" d="M330.2,370.8c0-0.2,0-0.4,0-0.6c0-4,3.3-7.3,7.3-7.3c4,0,7.3,3.3,7.3,7.3c0,2.4-1.1,4.6-3.1,6
				c2.1,2.8,1.5,6.8-1.4,8.9c-0.1,0.1-0.2,0.2-0.4,0.2c3.7,3.4,4,9.2,0.6,12.9c-3.4,3.7-9.2,4-12.9,0.6c-0.4-0.3-0.7-0.7-1-1.1
				c-0.6,0.1-1.3,0.2-2,0.2c-5,0-9.1-4.1-9.1-9.1s4.1-9.1,9.1-9.1c0.2,0,0.4,0,0.5,0c-0.3-0.8-0.5-1.7-0.5-2.5
				C324.7,373.9,327,371.2,330.2,370.8z"/>
		</g>
	</g>
	<g>
		<path class="st108" d="M547.4,248.8l-30.3,17.3L469.3,45.8L498.6,28l56.1,32.4L547.4,248.8z M526.6,268.9
			c8.9,5.1,16.4,12.4,21.7,21.2c5.4,8.9,8.1,19.1,8,29.5c0,10.9-3.5,16.4-8,20.4c-5.6,4.6-29.9,21.9-38.1,18
			c-9.8-4.8-0.5-34.6-5.8-43.3c-5.4-9-33.9-16-33.9-26.7c0-11.1,28.5-20.9,33.8-23.5C509.7,262,517,263.4,526.6,268.9z"/>
		<path class="st9" d="M518.1,266.2l-41.5-23.9l-7.3-196.9l56.1,32.4L518.1,266.2z M497.2,286.3c8.9,5.1,16.4,12.4,21.7,21.2
			c5.4,8.9,8.1,19.1,8,29.5c0,10.9-2.8,17.6-8,20.4c-5.3,2.6-12.6,1.4-21.7-3.8c-9.1-5.2-16.7-12.6-22.2-21.5
			c-5.4-9-8.2-19.2-8-29.7c0-10.9,2.6-17.9,7.9-20.5C480.3,279.3,487.6,280.8,497.2,286.3L497.2,286.3z"/>
	</g>
</g>
</svg>
