<?xml version="1.0" encoding="utf-8"?>
<!-- Generator: Adobe Illustrator 28.1.0, SVG Export Plug-In . SVG Version: 6.00 Build 0)  -->
<svg version="1.1" xmlns="http://www.w3.org/2000/svg" xmlns:xlink="http://www.w3.org/1999/xlink" x="0px" y="0px"
	 viewBox="0 0 841.9 812.3" style="enable-background:new 0 0 841.9 812.3;" xml:space="preserve">
<style type="text/css">
	.st0{fill:#D8DFEA;}
	.st1{fill:#5467A3;}
	.st2{fill:#F5F4FA;}
	.st3{fill:none;stroke:#AEC3E5;stroke-linecap:round;stroke-linejoin:round;stroke-miterlimit:10;}
	.st4{opacity:0.34;fill:#AEC3E5;}
	.st5{fill:#F1EFF7;stroke:#AEC3E5;stroke-linecap:round;stroke-linejoin:round;stroke-miterlimit:10;}
	.st6{opacity:0.3;}
	.st7{fill:#AEC3E5;}
	.st8{fill:#93ADDA;}
	.st9{fill:#4067B1;}
	.st10{fill:#FFFCE6;}
	.st11{fill:#5875AC;}
	.st12{fill:#B0C5E1;}
	.st13{fill:#111842;}
	.st14{fill:#FFFFFF;}
	.st15{fill:#D3D2BA;}
	.st16{fill-rule:evenodd;clip-rule:evenodd;fill:#203365;}
	.st17{fill-rule:evenodd;clip-rule:evenodd;fill:#111842;}
	.st18{fill-rule:evenodd;clip-rule:evenodd;fill:#93ADDA;}
	.st19{fill:#333333;}
	.st20{fill:#00AEEF;}
	.st21{fill:#C2C2C2;}
	.st22{fill:#DBDADA;}
	.st23{fill:#D4D4D4;}
	.st24{fill:#39C1EC;}
	.st25{opacity:0.1;}
	.st26{fill-rule:evenodd;clip-rule:evenodd;fill:#020202;}
	.st27{fill-rule:evenodd;clip-rule:evenodd;fill:#325698;}
	.st28{fill-rule:evenodd;clip-rule:evenodd;fill:#F3F3F3;}
	.st29{fill-rule:evenodd;clip-rule:evenodd;fill:#A7BCE1;}
	.st30{fill-rule:evenodd;clip-rule:evenodd;fill:#4067B1;}
	.st31{fill-rule:evenodd;clip-rule:evenodd;fill:#FFFCE6;}
	.st32{fill-rule:evenodd;clip-rule:evenodd;fill:#D3D2BA;}
	.st33{fill-rule:evenodd;clip-rule:evenodd;fill:#010101;fill-opacity:0.25;}
	.st34{clip-path:url(#SVGID_00000013884085281337447720000015500489868581061555_);}
	.st35{fill-rule:evenodd;clip-rule:evenodd;fill:#754C29;}
	.st36{fill-rule:evenodd;clip-rule:evenodd;fill:#72C1D1;}
	.st37{clip-path:url(#SVGID_00000167394239648897497850000006419843020037511814_);}
	.st38{clip-path:url(#SVGID_00000008142304211997150110000005813768105795572884_);}
	.st39{fill:none;stroke:#00AEEF;stroke-width:2;stroke-linecap:round;stroke-linejoin:round;}
	.st40{fill:none;stroke:#00AEEF;stroke-width:2;stroke-linecap:round;stroke-linejoin:round;stroke-dasharray:8.2162,8.2162;}
	.st41{fill:none;stroke:#00AEEF;stroke-width:2;stroke-linecap:round;stroke-linejoin:round;stroke-dasharray:8.0784,8.0784;}
	.st42{fill:none;stroke:#00AEEF;stroke-width:2;stroke-linecap:round;stroke-linejoin:round;stroke-dasharray:8.0932,8.0932;}
	.st43{fill:#6E87C4;}
	.st44{fill:#C7DFF4;}
	.st45{fill:#FFFFFF;fill-opacity:0.75;}
	.st46{fill-rule:evenodd;clip-rule:evenodd;fill:#213467;}
	.st47{fill-rule:evenodd;clip-rule:evenodd;fill:#FFFFFF;}
	.st48{clip-path:url(#SVGID_00000103258747806428300330000001245264130046214057_);}
	.st49{clip-path:url(#SVGID_00000098195293081232628420000002134826793900582059_);}
	.st50{fill-rule:evenodd;clip-rule:evenodd;fill:#FBCCC8;}
	.st51{clip-path:url(#SVGID_00000000945567793446093970000013287969971029223854_);}
	.st52{fill-rule:evenodd;clip-rule:evenodd;fill:#010101;}
	.st53{opacity:0.34;fill:#FFFFFF;}
	.st54{clip-path:url(#SVGID_00000152942370337029658230000013756286874373691583_);}
	.st55{fill-rule:evenodd;clip-rule:evenodd;fill:#594A42;}
	.st56{clip-path:url(#SVGID_00000017498088745113913820000014498467794035646134_);}
	.st57{clip-path:url(#SVGID_00000118364103005208209810000006190870527341565086_);}
	.st58{fill:#F1EFF7;}
	.st59{opacity:0.25;fill:#F1EFF7;}
	.st60{fill:#FFFFFF;stroke:#FFFCE6;stroke-miterlimit:10;}
	.st61{fill:none;stroke:#FFFCE6;stroke-miterlimit:10;}
	.st62{fill-rule:evenodd;clip-rule:evenodd;fill:#C49A6C;}
	.st63{clip-path:url(#SVGID_00000111886318518750607340000005551685873830716050_);}
	.st64{fill-rule:evenodd;clip-rule:evenodd;}
	.st65{clip-path:url(#SVGID_00000100355929673895636030000004309915704486951836_);}
	.st66{clip-path:url(#SVGID_00000032633829973356855830000010149346843434840196_);}
	.st67{fill-rule:evenodd;clip-rule:evenodd;fill:#010101;fill-opacity:0.18;}
	.st68{fill-rule:evenodd;clip-rule:evenodd;fill:#010101;fill-opacity:0.24;}
	.st69{fill-rule:evenodd;clip-rule:evenodd;fill:none;stroke:#000000;stroke-miterlimit:10;}
	.st70{clip-path:url(#SVGID_00000140721207106666376800000003150454697732045233_);}
	.st71{clip-path:url(#SVGID_00000087412792076926520930000007031464564178622651_);}
	.st72{clip-path:url(#SVGID_00000183965815802956190310000009696137245896039355_);}
</style>
<g id="Layer_1">
	<g>
		<polygon class="st0" points="604.6,335.5 368.8,474.3 368.8,156 604.6,17.2 		"/>
		<polygon class="st0" points="604.6,333.9 806.4,450 806.4,132.2 604.6,16.1 		"/>
		<path class="st1" d="M806.4,452.2L578.1,586.6c-4.6,2.7-10.3,2.7-15,0.1L368.8,474.9v-4l235.7-134.8l201.8,112.2V452.2z"/>
		<path class="st2" d="M806.4,448.2L578.1,582.6c-4.6,2.7-10.3,2.7-15,0.1L368.8,470.9l235.7-138.8L806.4,448.2z"/>
		<g>
			<g>
				<polygon class="st3" points="792.9,406.9 768.9,419.9 768.9,453.1 792.9,440.2 				"/>
				<polygon class="st3" points="753.8,385.2 792.9,406.9 768.9,419.9 730.3,397 				"/>
				<polyline class="st3" points="768.9,453.1 705.5,416.6 705.5,340.2 				"/>
				<line class="st3" x1="729.4" y1="353.3" x2="729.4" y2="430.4"/>
				<line class="st3" x1="768.9" y1="431.5" x2="744.9" y2="417.5"/>
				<polyline class="st3" points="768.9,393.6 744.9,405.7 744.9,439.3 				"/>
				<polygon class="st3" points="792.9,358.9 792.9,369.7 768.9,383.2 768.9,372 				"/>
				<polyline class="st3" points="768.9,372 744.9,358.9 744.9,369.3 768.9,383.2 				"/>
				<polyline class="st3" points="792.9,358.9 768.9,345.6 744.9,358.9 				"/>
				<line class="st3" x1="753.8" y1="341.1" x2="753.8" y2="353.3"/>
				<line class="st3" x1="753.8" y1="375.1" x2="753.8" y2="385.2"/>
				<ellipse class="st3" cx="777.3" cy="406.4" rx="4.4" ry="2.4"/>
				<ellipse class="st3" cx="767.7" cy="411.2" rx="4.4" ry="2.4"/>
				<ellipse class="st3" cx="768.1" cy="401.5" rx="4.4" ry="2.4"/>
				<ellipse class="st3" cx="758.5" cy="406.4" rx="4.4" ry="2.4"/>
				<line class="st3" x1="729.4" y1="396.7" x2="705.5" y2="382.5"/>
			</g>
			<line class="st3" x1="705.5" y1="416.6" x2="698.8" y2="413"/>
		</g>
		<polygon class="st4" points="496,261.1 496,395.9 628.7,472.3 628.7,383 677.4,409 677.4,500.3 697.8,512.1 697.8,377.3 		"/>
		<g>
			<path class="st3" d="M479.1,455l89.2,51.1c2.9,1.6,6.4,1.6,9.2-0.1l27-16c2.8-1.6,4.5-4.6,4.5-7.9v-25.5c0-3.3-1.7-6.3-4.5-7.9
				l-94.6-54.9c-2-1.1-4.3-1.3-6.5-0.4l-4.1,1.7c-3.1,1.2-5,4.2-5,7.5v11.9l-15.5,9.7c-2.5,1.6-4,4.3-4,7.3v15.9
				C474.7,450.5,476.4,453.4,479.1,455z"/>
			<line class="st3" x1="509" y1="423.1" x2="583.6" y2="464.8"/>
			<path class="st3" d="M560.2,487.8v-4.4c0-3.2,1.8-6.2,4.7-7.7l17.4-9.1c2.3-1.2,3.7-3.6,3.7-6.1v-3c0-2.6,1.4-5.1,3.8-6.3
				l9.7-5.2"/>
		</g>
		<g>
			<polygon class="st3" points="452.6,405.7 391.3,440 391.3,361.1 452.6,326.8 			"/>
			<polygon class="st3" points="446.9,402.6 391.3,433.8 391.3,361.1 446.9,330 			"/>
			<line class="st3" x1="421.9" y1="344" x2="421.9" y2="416.5"/>
			<line class="st3" x1="391.3" y1="414.8" x2="446.9" y2="383.6"/>
			<line class="st3" x1="391.3" y1="386.8" x2="446.9" y2="355.6"/>
		</g>
		<path class="st1" d="M806.4,315.2L578.1,449.6c-4.6,2.7-10.3,2.7-15,0.1L368.8,337.9v-4l235.7-134.8l201.8,112.2V315.2z"/>
		<path class="st2" d="M806.4,311.2L578.1,445.6c-4.6,2.7-10.3,2.7-15,0.1L368.8,333.9l235.7-138.8L806.4,311.2z"/>
		<polygon class="st1" points="371.7,476.5 368.8,474.7 368.8,333.9 371.7,336.1 		"/>
		<polygon class="st1" points="371.7,338.8 368.8,337 368.8,153.1 371.7,155.3 		"/>
		<g>
			<polygon class="st3" points="492.9,538.7 415.1,494.2 415.1,475.3 492.9,518.9 			"/>
			<polygon class="st3" points="492.9,538.7 512.2,527 512.2,508.1 492.9,518.9 			"/>
			<polygon class="st3" points="415.1,475.1 434.4,462.8 512.2,508.1 492.9,518.9 			"/>
		</g>
		<rect x="697.8" y="376.4" class="st1" width="3.1" height="136.6"/>
		<g>
			<polyline class="st5" points="493.6,504.3 497.5,502.3 497.5,471.5 439.4,436.8 435.2,438.7 			"/>
			<polyline class="st5" points="453.5,481.2 450.3,484 467.3,493.5 469.4,490.3 			"/>
			<polygon class="st5" points="435.2,438.7 435.2,470.6 493.6,504.3 493.6,473.9 			"/>
		</g>
		<g>
			<path class="st3" d="M757.5,272.5l-16,8.5c0,0-7.3,6.3,2.2,10.7c9.5,4.4,17.3,0.2,21.7-2.2c4.3-2.5,10.8-5.9,10.8-5.9
				L757.5,272.5z"/>
			<path class="st3" d="M738.8,287.6l0.5,2.8c0,0,2.6,5,11.2,5.3c8.7,0.3,16.3-4.8,17.7-5.6c1.4-0.8,7.8-4.4,7.8-4.4v-2.1"/>
			<path class="st3" d="M742.2,293.7l8.2,11.1c0,0,3.2,5.9,10.1,4.6l14.7-7.7c0,0,0.8-7.7,2-9.1c1.2-1.4,6.7-7.2,6.8-8
				c0.2-0.8,0.4-28.6,0.4-28.6L765.3,245l-6.8,3.8v24.4"/>
			<path class="st3" d="M758.5,248.8l17,10.1c1,0.6,2.2,0.6,3.2,0.1l5.7-3.1"/>
		</g>
		<g class="st6">
			<polygon class="st7" points="559.2,280.5 711.9,367.2 711.9,189.6 559.2,102.8 			"/>
			<polygon class="st8" points="417.6,184.1 559.2,100.8 559.2,279.6 417.7,362.9 			"/>
			<polygon class="st9" points="510,222.7 536.1,207.3 536.1,252.8 510,268.2 			"/>
			<polygon class="st10" points="483.6,223.6 500.6,213.6 500.6,243.2 483.6,253.2 			"/>
			<polygon class="st10" points="510,194.2 521.3,187.5 521.3,207.3 510,214 			"/>
			<path class="st11" d="M417.7,362.9l145.2,82.9c5.2,3,11.7,2.9,16.9-0.1l132.1-78.4l-152.7-87.7L417.7,362.9z"/>
			<g>
				<polygon class="st0" points="509.8,340.8 595.8,291.2 556.2,268.5 470.2,318.1 				"/>
				<polygon class="st0" points="595.8,263.5 599.7,261.2 560.1,238.5 556.2,240.8 				"/>
				<polygon class="st12" points="595.8,291.2 595.8,263.5 556.2,240.8 556.2,268.5 				"/>
				<polygon class="st13" points="595.8,312.7 595.8,263.5 599.7,261.2 599.7,310.4 				"/>
				<polygon class="st13" points="595.8,312.7 509.8,362.4 509.8,340.8 595.8,291.2 				"/>
				<polygon class="st12" points="470.2,339.6 509.8,362.4 509.8,340.8 470.2,318.1 				"/>
				<path class="st14" d="M550.1,258.4c0,0,24.7,3.1,33.8,10.7c0,0,4.2,14.9-4.2,19.8c-8.3,4.9-34.5-6.7-36-12.9
					S550.1,258.4,550.1,258.4z"/>
				<path class="st15" d="M517,336.9c0,0,2.4,1.8,2.4,4.6v5c0,1.5,1.6,2.4,2.8,1.7l30.6-16.6c0.6-0.3,1-1,1-1.7l-0.1-12.8L517,336.9
					z"/>
				<path class="st10" d="M476.7,314.3c0,0-0.7-2.4,5.2-5.7c4.7-2.7,18.7-10.7,23.9-13.7c1.3-0.7,2.8-0.8,4.1-0.1l43.1,21.6
					c1,0.5,1.1,2,0,2.6l-33.8,18c-0.7,0.4-1.6,0.4-2.3,0L476.7,314.3z"/>
			</g>
			<g>
				<polygon class="st16" points="572.5,306.2 575.7,308.1 575.7,347.7 572.5,345.8 				"/>
				<polygon class="st17" points="579,306.2 575.7,308.1 575.7,347.7 579,345.8 				"/>
				<polygon class="st16" points="612.1,283.4 615.4,285.3 615.4,324.9 612.1,323 				"/>
				<polygon class="st17" points="618.7,283.4 615.4,285.3 615.4,324.9 618.7,323 				"/>
				<polygon class="st16" points="628.8,338.8 632.1,340.7 632.1,380.3 628.8,378.4 				"/>
				<polygon class="st17" points="635.4,338.8 632.1,340.7 632.1,380.3 635.4,378.4 				"/>
				<polygon class="st16" points="668.5,316 671.8,317.9 671.8,357.5 668.5,355.6 				"/>
				<polygon class="st17" points="675,316 671.8,317.9 671.8,357.5 675,355.6 				"/>
				<path class="st16" d="M607.3,279.5c-1-0.6-2.2-0.6-3.1,0c-5.7,3.3-25.2,14.5-34.2,19.8c-1,0.6-1.6,1.6-1.6,2.7
					c0,1.1,0.6,2.2,1.6,2.7l66.9,38.6c1,0.6,2.2,0.6,3.1,0c5.7-3.3,25.2-14.5,34.2-19.8c1-0.6,1.6-1.6,1.6-2.7
					c0-1.1-0.6-2.2-1.6-2.7L607.3,279.5z"/>
				<path class="st18" d="M607.3,276.6c-1-0.6-2.2-0.6-3.1,0c-5.7,3.3-25.2,14.5-34.2,19.8c-1,0.6-1.6,1.6-1.6,2.7
					c0,1.1,0.6,2.2,1.6,2.7l66.9,38.6c1,0.6,2.2,0.6,3.1,0c5.7-3.3,25.2-14.5,34.2-19.8c1-0.6,1.6-1.6,1.6-2.7
					c0-1.1-0.6-2.2-1.6-2.7C659.6,306.9,616.1,281.7,607.3,276.6z"/>
			</g>
			<g>
				<path id="path6492_00000108288406594662782630000007727628047335709592_" class="st19" d="M644.2,309.3v-17.2l-5-2.9l-5-2.9
					l-5-2.9l-5-2.9l-5-2.9v17.2L644.2,309.3z"/>
				<path id="path6494_00000112621234754431453770000002331752871881164727_" class="st20" d="M620.4,279.4v14.9l22.9,13.2v-14.9
					L620.4,279.4"/>
				<path id="path6496_00000062872046475959178740000004125641399661023365_" class="st14" d="M619.4,277.7l1-0.6l24.8,14.3l-1,0.6
					L619.4,277.7z"/>
				<path id="path6498_00000076567725323379766920000017895116047297416864_" class="st21" d="M644.2,292.1l1-0.6v17.2l-1,0.6V292.1
					z"/>
				<path id="path6500_00000048476041576542016470000010262283829929535111_" class="st14" d="M619.4,294.9l-14.9,8.6l24.8,14.3
					l14.9-8.6L619.4,294.9z"/>
				<path id="path6502_00000140713524935898424430000004619696532033412493_" class="st22" d="M604.5,303.5v1.1l24.8,14.3v-1.1
					L604.5,303.5z"/>
				<path id="path6508_00000078011629998802535450000003169471261824404628_" class="st21" d="M629.3,317.9v1.1l15.9-9.2v-1.1
					L629.3,317.9"/>
				<path id="path6512_00000047028814602456505440000009147478232469538454_" class="st23" d="M619.4,296.1l22.9,13.2l-7.9,4.6
					l-22.9-13.2L619.4,296.1"/>
				<path id="path6516_00000106143790490471725300000013240207026972485802_" class="st23" d="M619.4,306.4l-3,1.7l5,2.9l3-1.7
					L619.4,306.4z"/>
				<path id="path6554_00000014629711108265904110000000800168817273444231_" class="st24" d="M620.4,279.4l22.9,28.1l-22.9-13.2
					V279.4z"/>
			</g>
			<g>
				<g>
					<g class="st25">
						<path class="st26" d="M594.7,287.6c-0.4,0.2-0.6,0.6-0.7,1.1s0.2,0.9,0.6,1.1l11.8,6.7c0.4,0.2,0.9,0.2,1.3,0l7.3-4.2
							c0.4-0.2,0.6-0.6,0.7-1.1s-0.2-0.9-0.6-1.1l-11.8-6.7c-0.4-0.2-0.9-0.2-1.3,0L594.7,287.6z"/>
					</g>
					<path class="st27" d="M596.5,286.8c-0.2,0.1-0.4,0.3-0.5,0.5c-0.3,0.6-0.1,1.4,0.5,1.8l12.6,7.2c0.4,0.2,0.9,0.2,1.3,0l7.3-4.2
						c0.2-0.1,0.4-0.3,0.5-0.5c0.3-0.6,0.1-1.4-0.5-1.8l-12.6-7.2c-0.4-0.2-0.9-0.2-1.3,0L596.5,286.8z"/>
					<path class="st28" d="M597,286.4c-0.2,0.1-0.4,0.3-0.5,0.5c-0.3,0.6-0.1,1.4,0.5,1.8l12.1,6.9c0.4,0.2,0.9,0.2,1.3,0l6.7-3.8
						c0.2-0.1,0.4-0.3,0.5-0.5c0.3-0.6,0.1-1.4-0.5-1.8l-12.1-6.9c-0.4-0.2-0.9-0.2-1.3,0L597,286.4z"/>
					<path class="st27" d="M596.4,284.9c-0.2,0.1-0.4,0.3-0.5,0.5c-0.3,0.6-0.1,1.4,0.5,1.8l12.6,7.2c0.4,0.2,0.9,0.2,1.3,0l7.3-4.2
						c0.2-0.1,0.4-0.3,0.5-0.5c0.3-0.6,0.1-1.4-0.5-1.8l-12.6-7.2c-0.4-0.2-0.9-0.2-1.3,0L596.4,284.9z"/>
				</g>
				<g>
					<path class="st29" d="M595.9,282c-0.2,0.1-0.4,0.3-0.5,0.5c-0.3,0.6-0.1,1.4,0.5,1.8l12.6,7.2c0.4,0.2,0.9,0.2,1.3,0l7.3-4.2
						c0.2-0.1,0.4-0.3,0.5-0.5c0.3-0.6,0.1-1.4-0.5-1.8l-12.6-7.2c-0.4-0.2-0.9-0.2-1.3,0L595.9,282z"/>
					<path class="st28" d="M596.5,281.7c-0.2,0.1-0.4,0.3-0.5,0.5c-0.3,0.6-0.1,1.4,0.5,1.8l12.1,6.9c0.4,0.2,0.9,0.2,1.3,0l6.7-3.8
						c0.2-0.1,0.4-0.3,0.5-0.5c0.3-0.6,0.1-1.4-0.5-1.8l-12.1-6.9c-0.4-0.2-0.9-0.2-1.3,0L596.5,281.7z"/>
					<path class="st29" d="M595.9,280.1c-0.2,0.1-0.4,0.3-0.5,0.5c-0.3,0.6-0.1,1.4,0.5,1.8l12.6,7.2c0.4,0.2,0.9,0.2,1.3,0l7.3-4.2
						c0.2-0.1,0.4-0.3,0.5-0.5c0.3-0.6,0.1-1.4-0.5-1.8l-12.6-7.2c-0.4-0.2-0.9-0.2-1.3,0L595.9,280.1z"/>
				</g>
				<g>
					<path class="st30" d="M596.5,278.2c-0.2,0.1-0.4,0.3-0.5,0.5c-0.3,0.6-0.1,1.4,0.5,1.8l12.6,7.2c0.4,0.2,0.9,0.2,1.3,0l7.3-4.2
						c0.2-0.1,0.4-0.3,0.5-0.5c0.3-0.6,0.1-1.4-0.5-1.8l-12.6-7.2c-0.4-0.2-0.9-0.2-1.3,0L596.5,278.2z"/>
					<path class="st28" d="M597,277.9c-0.2,0.1-0.4,0.3-0.5,0.5c-0.3,0.6-0.1,1.4,0.5,1.8l12.1,6.9c0.4,0.2,0.9,0.2,1.3,0l6.7-3.8
						c0.2-0.1,0.4-0.3,0.5-0.5c0.3-0.6,0.1-1.4-0.5-1.8l-12.1-6.9c-0.4-0.2-0.9-0.2-1.3,0L597,277.9z"/>
					<path class="st30" d="M596.5,276.4c-0.2,0.1-0.4,0.3-0.5,0.5c-0.3,0.6-0.1,1.4,0.5,1.8l12.6,7.2c0.4,0.2,0.9,0.2,1.3,0l7.3-4.2
						c0.2-0.1,0.4-0.3,0.5-0.5c0.3-0.6,0.1-1.4-0.5-1.8l-12.6-7.2c-0.4-0.2-0.9-0.2-1.3,0L596.5,276.4z"/>
					<path class="st28" d="M597.7,277.2c-0.1,0-0.1,0.1-0.1,0.1c-0.1,0.2-0.1,0.3,0.1,0.5l2.2,1.3c0.4,0.2,0.9,0.2,1.3,0
						c1.4-0.8,4.8-2.8,6.1-3.5c0.1,0,0.1-0.1,0.1-0.1c0.1-0.2,0.1-0.3-0.1-0.5l-2.1-1.2c-0.4-0.2-0.9-0.2-1.3,0L597.7,277.2z"/>
				</g>
			</g>
			<g>
				<path class="st31" d="M652.5,313.1c-0.4-0.2-0.9-0.2-1.3,0l-12.6,7.2c-0.6,0.3-0.9,1.1-0.5,1.8c0.1,0.2,0.3,0.4,0.5,0.5l7.3,4.2
					c0.4,0.2,0.9,0.2,1.3,0l12.6-7.2c0.6-0.3,0.9-1.1,0.5-1.8c-0.1-0.2-0.3-0.4-0.5-0.5L652.5,313.1z"/>
				<path class="st32" d="M652.5,313.1c-0.4-0.2-0.9-0.2-1.3,0l-12.1,6.9c-0.6,0.3-0.9,1.1-0.5,1.8c0.1,0.2,0.3,0.4,0.5,0.5l6.7,3.8
					c0.4,0.2,0.9,0.2,1.3,0l12.1-6.9c0.6-0.3,0.9-1.1,0.5-1.8c-0.1-0.2-0.3-0.4-0.5-0.5L652.5,313.1z"/>
				<path class="st31" d="M652.5,311.2c-0.4-0.2-0.9-0.2-1.3,0l-12.6,7.2c-0.6,0.3-0.9,1.1-0.5,1.8c0.1,0.2,0.3,0.4,0.5,0.5l7.3,4.2
					c0.4,0.2,0.9,0.2,1.3,0l12.6-7.2c0.6-0.3,0.9-1.1,0.5-1.8c-0.1-0.2-0.3-0.4-0.5-0.5L652.5,311.2z"/>
			</g>
			<g>
				<ellipse class="st33" cx="684.7" cy="369" rx="13.3" ry="5"/>
				<g transform="matrix(1.63365,-0.943187,1.88637,1.0891,-3066.16,-1823.32)">
					<path class="st31" d="M-18.1,1997.3c0-2.9,10.6-8.5,10.6-8.5l5.3,4.6c0,0-6.4,9.1-9.8,9.1
						C-15.3,2002.7-18.1,2000.3-18.1,1997.3z"/>
					<g>
						<defs>
							<path id="SVGID_1_" d="M-18.1,1997.3c0-2.9,10.6-8.5,10.6-8.5l5.3,4.6c0,0-6.4,9.1-9.8,9.1
								C-15.3,2002.7-18.1,2000.3-18.1,1997.3z"/>
						</defs>
						<clipPath id="SVGID_00000044154197113330262960000010147773844421834386_">
							<use xlink:href="#SVGID_1_"  style="overflow:visible;"/>
						</clipPath>
						<g style="clip-path:url(#SVGID_00000044154197113330262960000010147773844421834386_);">
							<g transform="matrix(0.306063,0.265059,-0.530118,0.459095,-355.413,1577.94)">
								<path class="st33" d="M1367.6,120.6c0,0-7-3.5-7-3.5c0.1,0.1,0.1,0.3,0.2,0.4c0.1,0.4,0.2,0.8,0.3,1.3
									c0.3,1.3,0.5,2.6,0.6,4c0.3,4.5-0.7,9-4.4,11.9c-3.6,2.9-8.7,2.8-12.8,1c-1.7-0.7-3.6-2.4-5.5-2.3c-3.2,0.1-2.3,4.3-1.1,6
									c1,1.3,2.6,2.1,4.1,2.7c2.8,1,5.9,1.4,8.8,1.4c7.3,0,16.6-2.4,17.7-10.9c0.2-1.5,0.1-2.9-0.2-4.4
									C1367.9,126.3,1368.5,122.4,1367.6,120.6z"/>
							</g>
						</g>
					</g>
				</g>
				<g transform="matrix(1.00524,-0.580374,1.16075,0.670158,-1082.64,-161.607)">
					
						<ellipse transform="matrix(-0.866 -0.5 0.5 -0.866 244.6344 2349.1545)" class="st18" cx="437" cy="1141.8" rx="7.5" ry="4.3"/>
				</g>
				<g transform="matrix(0.816848,-0.471608,0.943215,0.544565,-488.008,359.012)">
					
						<ellipse transform="matrix(-0.866 -0.5 0.5 -0.866 1048.4467 1504.7469)" class="st35" cx="725.8" cy="611.9" rx="7.5" ry="4.3"/>
				</g>
				<g transform="matrix(-0.790309,1.12433,-1.04582,-1.30101,5247.33,-339.476)">
					<path class="st36" d="M3014,2087.6c0,0-4,7.4-4,10.5c0,1.9,1.8,3.5,4,3.5c2.2,0,4-1.6,4-3.5
						C3018.1,2095,3014,2087.6,3014,2087.6z"/>
					<g>
						<defs>
							<path id="SVGID_00000138553866743856908590000018187180916548402345_" d="M3014,2087.6c0,0-4,7.4-4,10.5c0,1.9,1.8,3.5,4,3.5
								c2.2,0,4-1.6,4-3.5C3018.1,2095,3014,2087.6,3014,2087.6z"/>
						</defs>
						<clipPath id="SVGID_00000071557346803319990520000013002083054941365909_">
							<use xlink:href="#SVGID_00000138553866743856908590000018187180916548402345_"  style="overflow:visible;"/>
						</clipPath>
						<g style="clip-path:url(#SVGID_00000071557346803319990520000013002083054941365909_);">
							<g transform="matrix(0.710287,0.613829,0.380721,-0.287706,364.739,-445.323)">
								<path class="st33" d="M3959.3-414c0,0-4.5-0.4-4.5-0.3c0,0.3,0,0.5,0,0.8c0,0.8-0.1,1.5-0.2,2.3c-0.3,2.5-1.3,4.9-3,6.8
									c-1.3,1.4-2.8,2.3-4.8,2.3c-1.6,0-3.7-0.7-5.2,0.2c-2.7,1.5-3,5.5-0.6,7.3c2,1.5,4.9,1.4,7.2,0.8c5.1-1.3,9.7-5.4,12-10.1
									C3961.9-407.3,3962.5-411.5,3959.3-414z"/>
							</g>
						</g>
					</g>
				</g>
				<g transform="matrix(0.790309,1.12433,0.917264,-1.14109,-976.57,-401.237)">
					<path class="st36" d="M1331.8,663.6c0,0-4,7-4,10c0,2.2,1.8,3.9,4,3.9c2.2,0,4-1.8,4-3.9
						C1335.9,670.7,1331.8,663.6,1331.8,663.6z"/>
					<g>
						<defs>
							<path id="SVGID_00000014625950465678186780000010445870521319216819_" d="M1331.8,663.6c0,0-4,7-4,10c0,2.2,1.8,3.9,4,3.9
								c2.2,0,4-1.8,4-3.9C1335.9,670.7,1331.8,663.6,1331.8,663.6z"/>
						</defs>
						<clipPath id="SVGID_00000021078515931570240230000011179331317010555051_">
							<use xlink:href="#SVGID_00000014625950465678186780000010445870521319216819_"  style="overflow:visible;"/>
						</clipPath>
						<g style="clip-path:url(#SVGID_00000021078515931570240230000011179331317010555051_);">
							<g transform="matrix(0.639931,0.630533,0.377832,-0.325538,569.874,-410.027)">
								<path class="st33" d="M1481.1-479.5c0,0-4.5-0.4-4.5-0.3c0,0.3,0,0.5,0,0.8c0,0.8-0.1,1.5-0.2,2.3c-0.3,2.5-1.3,4.9-3,6.8
									c-1.3,1.4-2.8,2.3-4.8,2.3c-1.6,0-3.7-0.7-5.2,0.2c-2.7,1.5-3,5.5-0.6,7.3c2,1.5,4.9,1.4,7.2,0.8c5.1-1.3,9.7-5.4,12-10.1
									C1483.8-472.7,1484.4-477,1481.1-479.5z"/>
							</g>
						</g>
					</g>
				</g>
				<g transform="matrix(1.2076,0,0,1.2076,-1226.62,-262.441)">
					<path class="st36" d="M1582.4,507.6c-0.7,1.3-4.4,2.7-3.6-3c0.3-2,0.9-4,1-6c0.1-3.4-0.8-6.7-1.1-10.1
						c-0.5-4.9-0.5-9.9,0.6-14.7c0.7-3,1.9-6.2,4.1-8.4c0.8-0.8,2.1-1.9,3.3-1.1c1.3,1,0.3,3.2-0.3,4.3c-2,4.1-5.1,7.3-6.1,11.9
						c-1.3,6,2.4,11.4,3.5,17.1C1584.4,501.3,1583.8,505,1582.4,507.6z"/>
				</g>
			</g>
			<polygon class="st1" points="708.4,192.1 711.9,189.8 711.9,369.8 708.4,372.1 			"/>
		</g>
		<polygon class="st1" points="604.6,18.1 368.8,152.9 368.8,156.9 417.7,185 558.1,102.3 711.3,190.2 806.4,134.2 806.4,130.2 		
			"/>
		<polygon class="st2" points="558.1,102.3 707.8,188.3 806.4,130.2 604.6,14.1 368.8,152.9 421.1,183 		"/>
		<polygon class="st1" points="708.4,188.1 711.9,189.8 711.9,369.8 708.4,372.1 		"/>
		<polygon class="st1" points="420.5,366.6 417.6,364.8 417.6,181.9 420.5,183.1 		"/>
	</g>
	<polygon class="st0" points="270.8,532.4 35.1,671.2 35.1,352.9 270.8,214.1 	"/>
	<polygon class="st0" points="270.8,530.7 472.6,646.9 472.6,512.1 270.8,395.9 	"/>
	<path class="st1" d="M472.6,649.1L244.4,783.5c-4.6,2.7-10.3,2.7-15,0.1L35.1,671.7v-4l235.7-134.8l201.8,112.2V649.1z"/>
	<path class="st2" d="M472.6,645.1L244.4,779.5c-4.6,2.7-10.3,2.7-15,0.1L35.1,667.7l235.7-138.8L472.6,645.1z"/>
	<polygon class="st1" points="469.9,509.7 472.6,507.9 472.6,649.1 469.9,650.9 	"/>
	<g>
		<g>
			<polygon class="st3" points="459.1,603.8 435.2,616.7 435.2,650 459.1,637 			"/>
			<polygon class="st3" points="420.1,582 459.1,603.8 435.2,616.7 396.6,593.9 			"/>
			<polyline class="st3" points="435.2,650 371.7,613.5 371.7,537.1 			"/>
			<line class="st3" x1="395.7" y1="550.2" x2="395.7" y2="627.2"/>
			<line class="st3" x1="435.2" y1="628.4" x2="411.2" y2="614.4"/>
			<polyline class="st3" points="435.2,590.5 411.2,602.6 411.2,636.2 			"/>
			<polygon class="st3" points="459.1,555.8 459.1,566.6 435.2,580.1 435.2,568.9 			"/>
			<polyline class="st3" points="435.2,568.9 411.2,555.8 411.2,566.2 435.2,580.1 			"/>
			<polyline class="st3" points="459.1,555.8 435.2,542.5 411.2,555.8 			"/>
			<line class="st3" x1="420.1" y1="538" x2="420.1" y2="550.2"/>
			<line class="st3" x1="420.1" y1="571.9" x2="420.1" y2="582"/>
			<ellipse class="st3" cx="443.6" cy="603.2" rx="4.4" ry="2.4"/>
			<ellipse class="st3" cx="434" cy="608.1" rx="4.4" ry="2.4"/>
			<ellipse class="st3" cx="434.4" cy="598.4" rx="4.4" ry="2.4"/>
			<ellipse class="st3" cx="424.8" cy="603.2" rx="4.4" ry="2.4"/>
			<line class="st3" x1="395.7" y1="593.5" x2="371.7" y2="579.3"/>
		</g>
		<line class="st3" x1="371.7" y1="613.5" x2="365.1" y2="609.9"/>
	</g>
	<polygon class="st4" points="162.3,458 162.3,592.8 295,669.2 295,579.8 343.7,605.8 343.7,697.2 364.1,708.9 364.1,574.1 	"/>
	<g>
		<path class="st3" d="M145.3,651.9l89.2,51.1c2.9,1.6,6.4,1.6,9.2-0.1l27-16c2.8-1.6,4.5-4.6,4.5-7.9v-25.5c0-3.3-1.7-6.3-4.5-7.9
			L176,590.7c-2-1.1-4.3-1.3-6.5-0.4l-4.1,1.7c-3.1,1.2-5,4.2-5,7.5v11.9L145,621c-2.5,1.6-4,4.3-4,7.3v15.9
			C140.9,647.4,142.6,650.3,145.3,651.9z"/>
		<line class="st3" x1="175.3" y1="619.9" x2="249.8" y2="661.6"/>
		<path class="st3" d="M226.5,684.7v-4.4c0-3.2,1.8-6.2,4.7-7.7l17.4-9.1c2.3-1.2,3.7-3.6,3.7-6.1v-3c0-2.6,1.4-5.1,3.8-6.3l9.7-5.2
			"/>
	</g>
	<g>
		<polygon class="st3" points="118.9,602.5 57.5,636.9 57.5,558 118.9,523.7 		"/>
		<polygon class="st3" points="113.2,599.5 57.5,630.6 57.5,558 113.2,526.9 		"/>
		<line class="st3" x1="88.2" y1="540.8" x2="88.2" y2="613.3"/>
		<line class="st3" x1="57.5" y1="611.6" x2="113.2" y2="580.5"/>
		<line class="st3" x1="57.5" y1="583.6" x2="113.2" y2="552.5"/>
	</g>
	<g>
		<polygon class="st3" points="120.5,428.1 59.2,462.4 59.2,383.5 120.5,349.2 		"/>
		<polygon class="st3" points="114.8,425 59.2,456.2 59.2,383.5 114.8,352.4 		"/>
		<line class="st3" x1="89.8" y1="366.3" x2="89.8" y2="438.8"/>
		<line class="st3" x1="59.2" y1="437.2" x2="114.8" y2="406"/>
		<line class="st3" x1="59.2" y1="409.2" x2="114.8" y2="378"/>
	</g>
	<path class="st1" d="M472.6,512.1L244.4,646.5c-4.6,2.7-10.3,2.7-15,0.1L35.1,534.7v-4l235.7-134.8l201.8,112.2V512.1z"/>
	<path class="st2" d="M472.6,508.1L244.4,642.5c-4.6,2.7-10.3,2.7-15,0.1L35.1,530.7l235.7-138.8L472.6,508.1z"/>
	<polygon class="st1" points="38,673.4 35.1,671.6 35.1,530.7 38,532.9 	"/>
	<polygon class="st1" points="38,535.6 35.1,533.8 35.1,350 38,352.2 	"/>
	<g>
		<polygon class="st3" points="159.1,735.6 81.4,691.1 81.4,672.2 159.1,715.7 		"/>
		<polygon class="st3" points="159.1,735.6 178.5,723.9 178.5,705 159.1,715.7 		"/>
		<polygon class="st3" points="81.4,672 100.7,659.6 178.5,705 159.1,715.7 		"/>
	</g>
	<polygon class="st1" points="469.9,372 472.6,370.3 472.6,511.4 469.9,513.2 	"/>
	<rect x="364.1" y="573.3" class="st1" width="3.1" height="136.6"/>
	<g>
		<g>
			<line class="st39" x1="711.9" y1="371.8" x2="708.5" y2="373.8"/>
			<line class="st40" x1="701.4" y1="378" x2="478.9" y2="510.1"/>
			<line class="st39" x1="475.3" y1="512.2" x2="471.9" y2="514.3"/>
		</g>
	</g>
	<g>
		<g>
			<line class="st39" x1="708.4" y1="189.8" x2="705" y2="191.9"/>
			<line class="st41" x1="698" y1="196" x2="478.8" y2="325.2"/>
			<line class="st39" x1="475.3" y1="327.3" x2="471.9" y2="329.3"/>
		</g>
	</g>
	<g>
		<g>
			<line class="st39" x1="558.1" y1="102.3" x2="554.7" y2="104.4"/>
			<line class="st42" x1="547.7" y1="108.5" x2="328.7" y2="239"/>
			<line class="st39" x1="325.3" y1="241.1" x2="321.8" y2="243.1"/>
		</g>
	</g>
	<g>
		<polyline class="st5" points="159.9,701.2 163.8,699.2 163.8,668.4 105.6,633.7 101.4,635.6 		"/>
		<polyline class="st5" points="119.8,678 116.6,680.9 133.6,690.4 135.7,687.2 		"/>
		<polygon class="st5" points="101.4,635.6 101.4,667.5 159.9,701.2 159.9,670.7 		"/>
	</g>
	<g>
		<polygon class="st7" points="320.1,418.9 472.9,505.7 472.9,328.1 320.1,241.3 		"/>
		<g>
			<polygon class="st43" points="368.8,402.8 447.8,447.1 447.8,345.4 368.8,301.1 			"/>
			<polygon class="st44" points="376.2,398.9 447.8,439.1 447.8,345.4 376.2,305.3 			"/>
			<polygon class="st45" points="376.2,398.9 447.8,439.1 376.2,305.3 			"/>
			<polygon class="st14" points="409,417.3 407.5,416.5 407.5,322.8 409,323.7 			"/>
			<polygon class="st14" points="447.8,413.7 376.2,373.6 376.2,375.3 447.8,415.4 			"/>
			<polygon class="st14" points="447.8,377.6 376.2,337.5 376.2,339.2 447.8,379.3 			"/>
		</g>
		<polygon class="st1" points="472.9,511.1 332.3,594.9 178.5,508.3 178.5,501.3 320.1,410.4 472.9,505.9 		"/>
		<polygon class="st8" points="178.5,324.6 320.1,241.3 320.1,418 178.7,501.3 		"/>
		<polygon class="st9" points="270.9,361.1 297.1,345.8 297.1,391.3 270.9,406.7 		"/>
		<polygon class="st10" points="244.5,362.1 261.5,352.1 261.5,381.7 244.5,391.7 		"/>
		<polygon class="st10" points="270.9,332.6 282.3,325.9 282.3,345.7 270.9,352.4 		"/>
		<polygon class="st11" points="178.7,501.3 332.3,589 472.9,505.7 320.1,418 		"/>
		<g>
			<polygon class="st0" points="270.8,479.3 356.8,429.6 317.2,406.9 231.2,456.5 			"/>
			<polygon class="st0" points="356.8,402 360.7,399.7 321.1,377 317.2,379.2 			"/>
			<polygon class="st12" points="356.8,429.6 356.8,401.9 317.2,379.2 317.2,406.9 			"/>
			<polygon class="st13" points="356.8,451.1 356.8,401.9 360.7,399.7 360.7,448.9 			"/>
			<polygon class="st13" points="356.8,451.2 270.8,500.8 270.8,479.3 356.8,429.6 			"/>
			<polygon class="st12" points="231.2,478.1 270.8,500.8 270.8,479.3 231.2,456.5 			"/>
			<path class="st14" d="M311,396.8c0,0,24.7,3.1,33.8,10.7c0,0,4.2,14.9-4.2,19.8c-8.3,4.9-34.5-6.7-36-12.9
				C303.1,408.3,311,396.8,311,396.8z"/>
			<path class="st15" d="M277.9,475.4c0,0,2.4,1.8,2.4,4.6v5c0,1.5,1.6,2.4,2.8,1.7l30.6-16.6c0.6-0.3,1-1,1-1.7l-0.1-12.8
				L277.9,475.4z"/>
			<path class="st10" d="M237.7,452.8c0,0-0.7-2.4,5.2-5.7c4.7-2.7,18.7-10.7,23.9-13.7c1.3-0.7,2.8-0.8,4.1-0.1l43.1,21.6
				c1,0.5,1.1,2,0,2.6l-33.8,18c-0.7,0.4-1.6,0.4-2.3,0L237.7,452.8z"/>
		</g>
		<g>
			<polygon class="st16" points="333.4,444.7 336.7,446.6 336.7,486.2 333.4,484.3 			"/>
			<polygon class="st17" points="340,444.7 336.7,446.6 336.7,486.2 340,484.3 			"/>
			<polygon class="st16" points="373.1,421.9 376.4,423.8 376.4,463.4 373.1,461.5 			"/>
			<polygon class="st17" points="379.6,421.9 376.4,423.8 376.4,463.4 379.6,461.5 			"/>
			<polygon class="st16" points="389.8,477.2 393.1,479.1 393.1,518.7 389.8,516.8 			"/>
			<polygon class="st17" points="396.3,477.2 393.1,479.1 393.1,518.7 396.3,516.8 			"/>
			<polygon class="st16" points="429.4,454.4 432.7,456.3 432.7,495.9 429.4,494 			"/>
			<polygon class="st17" points="436,454.4 432.7,456.3 432.7,495.9 436,494 			"/>
			<path class="st16" d="M368.2,418c-1-0.6-2.2-0.6-3.1,0c-5.7,3.3-25.2,14.5-34.2,19.8c-1,0.6-1.6,1.6-1.6,2.7
				c0,1.1,0.6,2.2,1.6,2.7l66.9,38.6c1,0.6,2.2,0.6,3.1,0c5.7-3.3,25.2-14.5,34.2-19.8c1-0.6,1.6-1.6,1.6-2.7c0-1.1-0.6-2.2-1.6-2.7
				L368.2,418z"/>
			<path class="st18" d="M368.2,415.1c-1-0.6-2.2-0.6-3.1,0c-5.7,3.3-25.2,14.5-34.2,19.8c-1,0.6-1.6,1.6-1.6,2.7
				c0,1.1,0.6,2.2,1.6,2.7l66.9,38.6c1,0.6,2.2,0.6,3.1,0c5.7-3.3,25.2-14.5,34.2-19.8c1-0.6,1.6-1.6,1.6-2.7c0-1.1-0.6-2.2-1.6-2.7
				C420.6,445.3,377.1,420.2,368.2,415.1z"/>
		</g>
		<g>
			<path class="st46" d="M394.8,509.7c-3.2,0.6-3.8,3.1-8.6,0.2c-4.4-2.7-8,0.9-9.6,2c-2,1.5-1.3,7,0.3,7.5
				c6.8,2.2,17.4-3.1,20.3-4.2C402.5,513.3,400.3,508.7,394.8,509.7z"/>
			<path class="st46" d="M406.2,516.3c-3.2,0.6-3.8,3.1-8.6,0.2c-4.4-2.7-8,0.9-9.6,2c-2,1.5-1.3,7,0.3,7.5
				c6.8,2.2,17.4-3.1,20.3-4.2C413.9,519.8,411.6,515.2,406.2,516.3z"/>
			<path class="st47" d="M387.5,509.5c0,0-10.5-21-22.5-29.2c-6.8-4.6-28.2-2.8-28.2-2.8s-9,8.1,1.6,15.9c9.2,6.8,19,2.2,24.1,6.8
				c7.5,6.9,11.8,13.9,11.8,13.9C382.7,515.6,387.3,513.1,387.5,509.5z"/>
			<g>
				<defs>
					<path id="SVGID_00000067956409114426213450000006265306413526212765_" d="M387.5,509.5c0,0-10.5-21-22.5-29.2
						c-6.8-4.6-28.2-2.8-28.2-2.8s-9,8.1,1.6,15.9c9.2,6.8,19,2.2,24.1,6.8c7.5,6.9,11.8,13.9,11.8,13.9
						C382.7,515.6,387.3,513.1,387.5,509.5z"/>
				</defs>
				<clipPath id="SVGID_00000088124499811074637120000008744733499611440275_">
					<use xlink:href="#SVGID_00000067956409114426213450000006265306413526212765_"  style="overflow:visible;"/>
				</clipPath>
				<g style="clip-path:url(#SVGID_00000088124499811074637120000008744733499611440275_);">
					<g transform="matrix(1,0,0,1,19.1944,107.423)">
						<path class="st33" d="M318.9,384.8c-0.6-0.1,19.1-16.2,18.7-15.8c-2.9,3.9-5.2,9.1-2.6,13.7c3.8,6.8,11.9,6.2,17.7,10
							c3.9,2.6,3.6,7.1,6.2,10.6c1.9,2.5,8.6,1.9,5.3,6.5c-3.1,4.3-10.9,3.3-15.3,2.4C335.3,409.5,321.9,398.8,318.9,384.8z"/>
					</g>
				</g>
			</g>
			<path class="st31" d="M398.9,516c0,0-4.8-19.4-16.9-27.7c-6.8-4.6-33.9-4.3-33.9-4.3s-9,8.1,1.6,15.9c9.2,6.8,19.5-3.4,24.6,1.3
				c7.5,6.9,11.3,19.4,11.3,19.4C394.1,522.1,398.7,519.6,398.9,516z"/>
			<g>
				<defs>
					<path id="SVGID_00000072241594758398524470000000784699619366245279_" d="M398.9,516c0,0-4.8-19.4-16.9-27.7
						c-6.8-4.6-33.9-4.3-33.9-4.3s-9,8.1,1.6,15.9c9.2,6.8,19.5-3.4,24.6,1.3c7.5,6.9,11.3,19.4,11.3,19.4
						C394.1,522.1,398.7,519.6,398.9,516z"/>
				</defs>
				<clipPath id="SVGID_00000067950491064438205260000005938184537016105138_">
					<use xlink:href="#SVGID_00000072241594758398524470000000784699619366245279_"  style="overflow:visible;"/>
				</clipPath>
				<g style="clip-path:url(#SVGID_00000067950491064438205260000005938184537016105138_);">
					<g transform="matrix(1,0,0,1,-30.2111,78.8985)">
						<path class="st33" d="M400.8,400.8c0,3.4-4.4,9.5-7.1,11.3c-0.8,0.6-5.1,1.9-4,3.5c1.2,1.8,4.9,1.7,6.7,1.7
							c4.4,0.2,9.2,0.4,13,2.9c8,5.2,5.9,11.5,9.7,17.9c1.6,2.6,4.2,2.7,6.3,4.5c1.2,1,0.6,2.5-0.6,3.3c-4.2,2.7-11,0-14.8-2.2
							c-6.3-3.6-11.4-8.9-17.1-13.2c-5.2-3.9-11.3-6.7-15.5-11.8C372.6,413,386.8,403,400.8,400.8z"/>
					</g>
				</g>
			</g>
			<path class="st46" d="M357.1,454.2c-4.7-8.2-16.9-11.8-22.5-7c-5.6,4.8-4.3,34.5-4.3,34.5c9,10.9,28.4,8,36.8,4.8
				C358.9,471.4,362,462.8,357.1,454.2z"/>
			<path class="st50" d="M363.1,475.2c-3.3-4.8-2.4-15.4-4.4-18.6c-3-4.8-8.9-3.3-10,4.5c-1.7,12.2,1.6,18.7,5.6,22.4
				c5.7,5.3,21,4.1,21,4.1c1.4,0.7,2.5-0.2,3.8,0.4c3.1,1.5,5,1.3,2.3-1.9c-1.8-2.1-4.1-1.3-5.3-1.6
				C376.1,484.4,367,480.9,363.1,475.2z"/>
			<g>
				<defs>
					<path id="SVGID_00000109736654538705790380000016175857846861166987_" d="M363.1,475.2c-3.3-4.8-2.4-15.4-4.4-18.6
						c-3-4.8-8.9-3.3-10,4.5c-1.7,12.2,1.6,18.7,5.6,22.4c5.7,5.3,21,4.1,21,4.1c1.4,0.7,2.5-0.2,3.8,0.4c3.1,1.5,5,1.3,2.3-1.9
						c-1.8-2.1-4.1-1.3-5.3-1.6C376.1,484.4,367,480.9,363.1,475.2z"/>
				</defs>
				<clipPath id="SVGID_00000122715734863169278040000002502206419143140004_">
					<use xlink:href="#SVGID_00000109736654538705790380000016175857846861166987_"  style="overflow:visible;"/>
				</clipPath>
				<g style="clip-path:url(#SVGID_00000122715734863169278040000002502206419143140004_);">
					<g transform="matrix(0.913333,0.407214,-0.407214,0.913333,1239.2,-148.617)">
						<path class="st33" d="M-549.7,919.3c0,0.2-0.3,0.8-0.4,0.9c-0.4,1-0.9,1.9-1.5,2.8c-1.8,2.8-5,5.3-8.5,5.3
							c-2.2,0-5.8-1-5.4-3.9c0.1-0.4,0.2-0.8,0.4-1.2c0.5-0.9,1.2-1.7,2-2.4c1.1-0.9,2.3-1.7,3.5-2.3
							C-557.6,917.5-551.9,919.5-549.7,919.3z"/>
					</g>
					<g transform="matrix(1,0,0,1,19.1944,107.423)">
						<path class="st46" d="M326.5,362.6c2.6,0.7,5.6,0.4,8.2-0.1c2.1-0.4,4.2-1.4,5.9-2.8c1.9-1.6,3.2-3.7,3.5-6.2
							c0.7-5.3-3.3-11.1-8.9-11.2c-2.3,0-4.6,1.1-6.4,2.4c-1.5,1.1-2.9,2.5-3.8,4.2C323.6,351.1,326.4,360.1,326.5,362.6z"/>
					</g>
				</g>
			</g>
			<path class="st50" d="M348.3,440.2h-7.2c1,2.5,1,4.5-0.3,6c-0.4,2.7,4.9,4.6,7.4,2.5C347,445.8,347.1,443,348.3,440.2z"/>
			<path class="st50" d="M344.6,429.4c3.2,0,5.7,2.6,5.7,5.7c0,3.2-0.2,8.6-3.3,8.6c-3.2,0-8.1-5.4-8.1-8.6
				C338.9,431.9,341.4,429.4,344.6,429.4z"/>
			<path class="st52" d="M347.4,437c1.3,0.6,3.1,0.2,4.3-0.6c2.7-1.8,4.3-6.9,1-9.1c0,0-0.8-0.4-0.9-0.4c-0.6-0.3-1.3-0.4-2-0.1
				c-0.7,0.3-1.2,0.6-1.6,1.2c0,0-0.4,0.6-0.4,0.6c-0.1,0-0.3-0.7-0.3-0.8c-0.3-0.5-0.7-0.8-1.2-1c-2.6-1.3-6.2-0.1-8,2
				c-1.9,2.2-2.3,5.4-1.6,8.2c0.4,2,0.2,4.7-0.3,6.7c-0.7,2.6-3,3.9-4.6,5.9c-17,20.4,7.8,20.8,11.2,18.6c2.8-1.9,4,2.1,7.5,0.4
				c4-2,3.5-4.7,2.9-8.2c-0.6-3.3-1.1-6.7-2.9-9.3c-1.2-1.8,0.3-2.3-2.1-4.4C346,444.5,347.1,439.6,347.4,437z"/>
			<ellipse class="st33" cx="350.3" cy="524.1" rx="26" ry="7.8"/>
			<path class="st16" d="M347.1,477.2c6.6,8.9,4.2,15.1,14.2,20c13.9,6.7,16.7,1.2,16.5,11.2c-0.2,13.1-24.4,26.4-45.1,17.8
				c-19.5-8.1-27.1-30.9-17.2-46C326.5,463.3,341,469.1,347.1,477.2z"/>
		</g>
		<polygon class="st53" points="178.5,324.6 178.7,501.3 243.9,538.2 243.9,423.1 306.6,456.6 306.6,574.4 332.9,589.5 332.9,415.7 
					"/>
		<g>
			<path id="path6492_00000067219131779112527850000006209974373706025361_" class="st19" d="M405.2,447.7v-17.2l-5-2.9l-5-2.9
				l-5-2.9l-5-2.9l-5-2.9v17.2L405.2,447.7z"/>
			<path id="path6494_00000032616646121702409090000007146083191458617750_" class="st20" d="M381.3,417.9v14.9l22.9,13.2v-14.9
				L381.3,417.9"/>
			<path id="path6496_00000035510215172351848460000014167179730703990456_" class="st14" d="M380.3,416.2l1-0.6l24.8,14.3l-1,0.6
				L380.3,416.2z"/>
			<path id="path6498_00000113326866219526087400000017222713861720828058_" class="st21" d="M405.2,430.5l1-0.6v17.2l-1,0.6V430.5z
				"/>
			<path id="path6500_00000070813007440867246880000002450109065287752092_" class="st14" d="M380.3,433.4l-14.9,8.6l24.8,14.3
				l14.9-8.6L380.3,433.4z"/>
			<path id="path6502_00000083049865124349883690000017630931312480664253_" class="st22" d="M365.4,442v1.1l24.8,14.3v-1.1
				L365.4,442z"/>
			<path id="path6508_00000180357556405717056310000009100377105694719416_" class="st21" d="M390.3,456.3v1.1l15.9-9.2v-1.1
				L390.3,456.3"/>
			<path id="path6512_00000169526082437624383400000015148049604329587128_" class="st23" d="M380.3,434.5l22.9,13.2l-7.9,4.6
				l-22.9-13.2L380.3,434.5"/>
			<path id="path6516_00000008147558250970752120000007545288947779646607_" class="st23" d="M380.3,444.8l-3,1.7l5,2.9l3-1.7
				L380.3,444.8z"/>
			<path id="path6554_00000061471644620965398070000012176805882456930691_" class="st24" d="M381.3,417.9l22.9,28.1l-22.9-13.2
				V417.9z"/>
		</g>
		<g>
			<g>
				<g class="st25">
					<path class="st26" d="M355.7,426c-0.4,0.2-0.6,0.6-0.7,1.1c-0.1,0.5,0.2,0.9,0.6,1.1l11.8,6.7c0.4,0.2,0.9,0.2,1.3,0l7.3-4.2
						c0.4-0.2,0.6-0.6,0.7-1.1c0.1-0.5-0.2-0.9-0.6-1.1l-11.8-6.7c-0.4-0.2-0.9-0.2-1.3,0L355.7,426z"/>
				</g>
				<path class="st27" d="M357.4,425.3c-0.2,0.1-0.4,0.3-0.5,0.5c-0.3,0.6-0.1,1.4,0.5,1.8l12.6,7.2c0.4,0.2,0.9,0.2,1.3,0l7.3-4.2
					c0.2-0.1,0.4-0.3,0.5-0.5c0.3-0.6,0.1-1.4-0.5-1.8l-12.6-7.2c-0.4-0.2-0.9-0.2-1.3,0L357.4,425.3z"/>
				<path class="st28" d="M357.9,424.8c-0.2,0.1-0.4,0.3-0.5,0.5c-0.3,0.6-0.1,1.4,0.5,1.8L370,434c0.4,0.2,0.9,0.2,1.3,0l6.7-3.8
					c0.2-0.1,0.4-0.3,0.5-0.5c0.3-0.6,0.1-1.4-0.5-1.8L366,421c-0.4-0.2-0.9-0.2-1.3,0L357.9,424.8z"/>
				<path class="st27" d="M357.4,423.4c-0.2,0.1-0.4,0.3-0.5,0.5c-0.3,0.6-0.1,1.4,0.5,1.8l12.6,7.2c0.4,0.2,0.9,0.2,1.3,0l7.3-4.2
					c0.2-0.1,0.4-0.3,0.5-0.5c0.3-0.6,0.1-1.4-0.5-1.8l-12.6-7.2c-0.4-0.2-0.9-0.2-1.3,0L357.4,423.4z"/>
			</g>
			<g>
				<path class="st29" d="M356.8,420.5c-0.2,0.1-0.4,0.3-0.5,0.5c-0.3,0.6-0.1,1.4,0.5,1.8l12.6,7.2c0.4,0.2,0.9,0.2,1.3,0l7.3-4.2
					c0.2-0.1,0.4-0.3,0.5-0.5c0.3-0.6,0.1-1.4-0.5-1.8l-12.6-7.2c-0.4-0.2-0.9-0.2-1.3,0L356.8,420.5z"/>
				<path class="st28" d="M357.4,420.1c-0.2,0.1-0.4,0.3-0.5,0.5c-0.3,0.6-0.1,1.4,0.5,1.8l12.1,6.9c0.4,0.2,0.9,0.2,1.3,0l6.7-3.8
					c0.2-0.1,0.4-0.3,0.5-0.5c0.3-0.6,0.1-1.4-0.5-1.8l-12.1-6.9c-0.4-0.2-0.9-0.2-1.3,0L357.4,420.1z"/>
				<path class="st29" d="M356.8,418.6c-0.2,0.1-0.4,0.3-0.5,0.5c-0.3,0.6-0.1,1.4,0.5,1.8l12.6,7.2c0.4,0.2,0.9,0.2,1.3,0l7.3-4.2
					c0.2-0.1,0.4-0.3,0.5-0.5c0.3-0.6,0.1-1.4-0.5-1.8l-12.6-7.2c-0.4-0.2-0.9-0.2-1.3,0L356.8,418.6z"/>
			</g>
			<g>
				<path class="st30" d="M357.4,416.7c-0.2,0.1-0.4,0.3-0.5,0.5c-0.3,0.6-0.1,1.4,0.5,1.8l12.6,7.2c0.4,0.2,0.9,0.2,1.3,0l7.3-4.2
					c0.2-0.1,0.4-0.3,0.5-0.5c0.3-0.6,0.1-1.4-0.5-1.8l-12.6-7.2c-0.4-0.2-0.9-0.2-1.3,0L357.4,416.7z"/>
				<path class="st28" d="M358,416.3c-0.2,0.1-0.4,0.3-0.5,0.5c-0.3,0.6-0.1,1.4,0.5,1.8l12.1,6.9c0.4,0.2,0.9,0.2,1.3,0l6.7-3.8
					c0.2-0.1,0.4-0.3,0.5-0.5c0.3-0.6,0.1-1.4-0.5-1.8l-12.1-6.9c-0.4-0.2-0.9-0.2-1.3,0L358,416.3z"/>
				<path class="st30" d="M357.4,414.8c-0.2,0.1-0.4,0.3-0.5,0.5c-0.3,0.6-0.1,1.4,0.5,1.8l12.6,7.2c0.4,0.2,0.9,0.2,1.3,0l7.3-4.2
					c0.2-0.1,0.4-0.3,0.5-0.5c0.3-0.6,0.1-1.4-0.5-1.8l-12.6-7.2c-0.4-0.2-0.9-0.2-1.3,0L357.4,414.8z"/>
				<path class="st28" d="M358.6,415.6c-0.1,0-0.1,0.1-0.1,0.1c-0.1,0.2-0.1,0.3,0.1,0.5l2.2,1.3c0.4,0.2,0.9,0.2,1.3,0
					c1.4-0.8,4.8-2.8,6.1-3.5c0.1,0,0.1-0.1,0.1-0.1c0.1-0.2,0.1-0.3-0.1-0.5l-2.1-1.2c-0.4-0.2-0.9-0.2-1.3,0L358.6,415.6z"/>
			</g>
		</g>
		<g>
			<path class="st31" d="M413.5,451.6c-0.4-0.2-0.9-0.2-1.3,0l-12.6,7.2c-0.6,0.3-0.9,1.1-0.5,1.8c0.1,0.2,0.3,0.4,0.5,0.5l7.3,4.2
				c0.4,0.2,0.9,0.2,1.3,0l12.6-7.2c0.6-0.3,0.9-1.1,0.5-1.8c-0.1-0.2-0.3-0.4-0.5-0.5L413.5,451.6z"/>
			<path class="st32" d="M413.5,451.6c-0.4-0.2-0.9-0.2-1.3,0l-12.1,6.9c-0.6,0.3-0.9,1.1-0.5,1.8c0.1,0.2,0.3,0.4,0.5,0.5l6.7,3.8
				c0.4,0.2,0.9,0.2,1.3,0l12.1-6.9c0.6-0.3,0.9-1.1,0.5-1.8c-0.1-0.2-0.3-0.4-0.5-0.5L413.5,451.6z"/>
			<path class="st31" d="M413.5,449.7c-0.4-0.2-0.9-0.2-1.3,0l-12.6,7.2c-0.6,0.3-0.9,1.1-0.5,1.8c0.1,0.2,0.3,0.4,0.5,0.5l7.3,4.2
				c0.4,0.2,0.9,0.2,1.3,0l12.6-7.2c0.6-0.3,0.9-1.1,0.5-1.8c-0.1-0.2-0.3-0.4-0.5-0.5L413.5,449.7z"/>
		</g>
		<g>
			<ellipse class="st33" cx="445.7" cy="507.5" rx="13.3" ry="5"/>
			<g transform="matrix(1.63365,-0.943187,1.88637,1.0891,-3066.16,-1823.32)">
				<path class="st31" d="M-164.7,1997.5c0-2.9,10.6-8.5,10.6-8.5l5.3,4.6c0,0-6.4,9.1-9.8,9.1S-164.7,2000.5-164.7,1997.5z"/>
				<g>
					<defs>
						<path id="SVGID_00000135653147201215961650000014941436939910642346_" d="M-164.7,1997.5c0-2.9,10.6-8.5,10.6-8.5l5.3,4.6
							c0,0-6.4,9.1-9.8,9.1S-164.7,2000.5-164.7,1997.5z"/>
					</defs>
					<clipPath id="SVGID_00000172440715627344616220000007070412965097863077_">
						<use xlink:href="#SVGID_00000135653147201215961650000014941436939910642346_"  style="overflow:visible;"/>
					</clipPath>
					<g style="clip-path:url(#SVGID_00000172440715627344616220000007070412965097863077_);">
						<g transform="matrix(0.306063,0.265059,-0.530118,0.459095,-355.413,1577.94)">
							<path class="st33" d="M1128.5,259.1c0,0-7-3.5-7-3.5c0.1,0.1,0.1,0.3,0.2,0.4c0.1,0.4,0.2,0.8,0.3,1.3c0.3,1.3,0.5,2.6,0.6,4
								c0.3,4.5-0.7,9-4.4,11.9c-3.6,2.9-8.7,2.8-12.8,1c-1.7-0.7-3.6-2.4-5.5-2.3c-3.2,0.1-2.3,4.3-1.1,6c1,1.3,2.6,2.1,4.1,2.7
								c2.8,1,5.9,1.4,8.8,1.4c7.3,0,16.6-2.4,17.7-10.9c0.2-1.5,0.1-2.9-0.2-4.4C1128.9,264.8,1129.5,260.8,1128.5,259.1z"/>
						</g>
					</g>
				</g>
			</g>
			<g transform="matrix(1.00524,-0.580374,1.16075,0.670158,-1082.64,-161.607)">
				
					<ellipse transform="matrix(-2.812790e-02 0.9996 -0.9996 -2.812790e-02 1346.1395 975.457)" class="st18" cx="198.9" cy="1142.1" rx="5.8" ry="5.7"/>
			</g>
			<g transform="matrix(0.816848,-0.471608,0.943215,0.544565,-488.008,359.012)">
				
					<ellipse transform="matrix(0.2942 0.9557 -0.9557 0.2942 890.6039 18.5799)" class="st55" cx="432.7" cy="612.3" rx="13.4" ry="2.5"/>
			</g>
			<g transform="matrix(-0.790309,1.12433,-1.04582,-1.30101,5247.33,-339.476)">
				<path class="st36" d="M3220.8,2159.9c0,0-4,7.4-4,10.5c0,1.9,1.8,3.5,4,3.5c2.2,0,4-1.6,4-3.5
					C3224.9,2167.3,3220.8,2159.9,3220.8,2159.9z"/>
				<g>
					<defs>
						<path id="SVGID_00000044868099805176125090000003239272275857313208_" d="M3220.8,2159.9c0,0-4,7.4-4,10.5
							c0,1.9,1.8,3.5,4,3.5c2.2,0,4-1.6,4-3.5C3224.9,2167.3,3220.8,2159.9,3220.8,2159.9z"/>
					</defs>
					<clipPath id="SVGID_00000057133202219797998150000007439311243266477228_">
						<use xlink:href="#SVGID_00000044868099805176125090000003239272275857313208_"  style="overflow:visible;"/>
					</clipPath>
					<g style="clip-path:url(#SVGID_00000057133202219797998150000007439311243266477228_);">
						<g transform="matrix(0.710287,0.613829,0.380721,-0.287706,364.739,-445.323)">
							<path class="st33" d="M4157.9-241.5c0,0-4.5-0.4-4.5-0.3c0,0.3,0,0.5,0,0.8c0,0.8-0.1,1.5-0.2,2.3c-0.3,2.5-1.3,4.9-3,6.8
								c-1.3,1.4-2.8,2.3-4.8,2.3c-1.6,0-3.7-0.7-5.2,0.2c-2.7,1.5-3,5.5-0.6,7.3c2,1.5,4.9,1.4,7.2,0.8c5.1-1.3,9.7-5.4,12-10.1
								C4160.6-234.7,4161.2-239,4157.9-241.5z"/>
						</g>
					</g>
				</g>
			</g>
			<g transform="matrix(0.790309,1.12433,0.917264,-1.14109,-976.57,-401.237)">
				<path class="st36" d="M1256.4,468c0,0-4,7-4,10c0,2.2,1.8,3.9,4,3.9c2.2,0,4-1.8,4-3.9C1260.4,475,1256.4,468,1256.4,468z"/>
				<g>
					<defs>
						<path id="SVGID_00000176759499684791309530000000309355295102728346_" d="M1256.4,468c0,0-4,7-4,10c0,2.2,1.8,3.9,4,3.9
							c2.2,0,4-1.8,4-3.9C1260.4,475,1256.4,468,1256.4,468z"/>
					</defs>
					<clipPath id="SVGID_00000070079403797137272930000016762791322049149368_">
						<use xlink:href="#SVGID_00000176759499684791309530000000309355295102728346_"  style="overflow:visible;"/>
					</clipPath>
					<g style="clip-path:url(#SVGID_00000070079403797137272930000016762791322049149368_);">
						<g transform="matrix(0.639931,0.630533,0.377832,-0.325538,569.874,-410.027)">
							<path class="st33" d="M1260.6-305.6c0,0-4.5-0.4-4.5-0.3c0,0.3,0,0.5,0,0.8c0,0.8-0.1,1.5-0.2,2.3c-0.3,2.5-1.3,4.9-3,6.8
								c-1.3,1.4-2.8,2.3-4.8,2.3c-1.6,0-3.7-0.7-5.2,0.2c-2.7,1.5-3,5.5-0.6,7.3c2,1.5,4.9,1.4,7.2,0.8c5.1-1.3,9.7-5.4,12-10.1
								C1263.3-298.9,1263.9-303.1,1260.6-305.6z"/>
						</g>
					</g>
				</g>
			</g>
			<g transform="matrix(1.2076,0,0,1.2076,-1226.62,-262.441)">
				<path class="st36" d="M1384.4,622.2c-0.7,1.3-4.4,2.7-3.6-3c0.3-2,0.9-4,1-6c0.1-3.4-0.8-6.7-1.1-10.1
					c-0.5-4.9-0.5-9.9,0.6-14.7c0.7-3,1.9-6.2,4.1-8.4c0.8-0.8,2.1-1.9,3.3-1.1c1.3,1,0.3,3.2-0.3,4.3c-2,4.1-5.1,7.3-6.1,11.9
					c-1.3,6,2.4,11.4,3.5,17.1C1386.4,615.9,1385.8,619.6,1384.4,622.2z"/>
			</g>
		</g>
		<polygon class="st1" points="469.4,330.5 472.9,328.3 472.9,510.2 469.4,512.6 		"/>
	</g>
	<g>
		<path class="st3" d="M87,488.5l16,8.5c0,0,7.3,6.3-2.2,10.7s-17.3,0.2-21.7-2.2c-4.3-2.5-10.8-5.9-10.8-5.9L87,488.5z"/>
		<path class="st3" d="M105.7,503.6l-0.5,2.8c0,0-2.6,5-11.2,5.3s-16.3-4.8-17.7-5.6c-1.4-0.8-7.8-4.4-7.8-4.4v-2.1"/>
		<path class="st3" d="M102.3,509.7l-8.2,11.1c0,0-3.2,5.9-10.1,4.6l-14.7-7.7c0,0-0.8-7.7-2-9.1c-1.2-1.4-6.7-7.2-6.8-8
			c-0.2-0.8-0.4-28.6-0.4-28.6L79.2,461l6.8,3.8v24.4"/>
		<path class="st3" d="M86,464.9l-17,10.1c-1,0.6-2.2,0.6-3.2,0.1l-5.7-3.1"/>
	</g>
	<polygon class="st4" points="178.5,320.2 178.5,501.3 150.2,518.2 101.6,546.2 81.2,557.9 81.2,379.3 	"/>
	<polygon class="st1" points="81.6,560.1 78.7,558.3 78.7,375.4 81.6,377.6 	"/>
	<polygon class="st58" points="170.4,512.5 169,507.1 178.5,501.3 333.7,589.9 320.4,597.7 	"/>
	<g>
		<polyline class="st3" points="220.5,544 152.9,506.6 100.3,537.2 176.8,579.6 		"/>
		<line class="st3" x1="176.8" y1="593.6" x2="100.3" y2="550.6"/>
		<polyline class="st3" points="152.8,494.1 149.4,492.5 96.7,523 96.7,553.6 100.3,555.9 100.3,524.7 152.8,494.1 152.8,506.6 		
			"/>
		<polygon class="st3" points="230.1,539 176.8,569.5 176.8,600.7 180.1,602.3 180.6,570.6 233.1,540.6 		"/>
		<line class="st3" x1="233.1" y1="571.7" x2="233.1" y2="540.6"/>
		<polyline class="st3" points="233.1,572.3 230.5,573.6 230.5,563.1 227,565.1 182.8,590.3 182.8,600.3 180.1,602.3 		"/>
		<polyline class="st3" points="227,565.1 227,571.7 230.5,573.6 		"/>
		<line class="st3" x1="180.6" y1="570.9" x2="176.8" y2="569.5"/>
		<line class="st3" x1="100.3" y1="524.7" x2="96.7" y2="523"/>
		<polyline class="st3" points="102.9,552.1 102.9,554.6 100.3,555.9 		"/>
		<path class="st3" d="M143.3,533.2c0,0-13.4,10.5-19.8,11.3l-14.6-8.3c0,0,6.6-11.9,18.9-12L143.3,533.2z"/>
		<path class="st3" d="M167.9,519.2c0,0-13.4,10.5-19.8,11.3l-14.6-8.3c0,0,6.6-11.9,18.9-12L167.9,519.2z"/>
	</g>
	<path class="st59" d="M178.5,324v108.3l50.9,29.3c4.6,2.7,10.4,2.6,15-0.1l85.6-50.4l-151.4-86.4l1.1-0.7H178.5z"/>
	<path class="st1" d="M178.6,324.6L330,411.1l-85.6,50.4c-4.6,2.7-10.3,2.7-15,0.1l-50.9-29.3V324h1.2l139.5-82.2l-48.4-26.9
		L35.1,349.7v4l194.3,111.8c4.6,2.7,10.4,2.6,15-0.1l89.1-52.5L178.6,324.6z"/>
	<polygon class="st2" points="178.5,324 179.7,324 321.8,240.3 270.8,210.9 35.1,349.7 178.5,432.3 	"/>
	<g>
		<polygon class="st1" points="322.3,628.5 270.8,659.1 270.8,766.4 322.3,735.8 		"/>
		<polygon class="st60" points="283.8,708.8 277.5,712.1 277.5,718.9 283.8,715.6 		"/>
		<polygon class="st61" points="306.2,695.5 290.6,704.5 290.6,711.3 306.2,702.3 		"/>
		<polygon class="st61" points="315.5,640.9 277.6,662.9 277.6,705.8 315.5,684.2 		"/>
		<polygon class="st61" points="315.5,703.4 277.6,725.1 277.6,754.4 315.5,732.3 		"/>
	</g>
	<polygon class="st1" points="329.5,666.8 326.2,668.8 326.2,675.6 329.5,673.7 	"/>
	<g>
		<g>
			<path class="st62" d="M369.1,652.7l4.7-0.2c-0.2,1.8,0.7,3.4,1.8,4.9c-2.6,6.1-5.9,6.5-6.1,0.4
				C369.6,656,369.6,654.7,369.1,652.7z"/>
			<g>
				<g>
					<g>
						<g>
							<defs>
								<path id="SVGID_00000111153777737618649590000008932608624669372560_" d="M369.1,652.7l4.7-0.2c-0.2,1.8,0.7,3.4,1.8,4.9
									c-2.6,6.1-6.2,6.5-6.4,0.4C369.6,656.4,369.6,654.7,369.1,652.7z"/>
							</defs>
							<clipPath id="SVGID_00000085226960830983022560000000662794586842724992_">
								<use xlink:href="#SVGID_00000111153777737618649590000008932608624669372560_"  style="overflow:visible;"/>
							</clipPath>
							<g style="clip-path:url(#SVGID_00000085226960830983022560000000662794586842724992_);">
								<path class="st33" d="M374.1,653.6c-1.5,3.9-5.1,4-5.7,3.3c-0.2-0.2-0.6,0.1-0.9-0.1c-0.2-0.2-0.4-0.5-0.4-0.8
									c-0.1-0.8,0.2-0.5,0.2-1.3c0.2-1.6,1-3.5,2.7-4c0.3-0.1,0.6-0.1,0.9-0.1c0.5,0.1,1,0.2,1.5,0.4c0.6,0.3,1.1,0.7,1.5,1.2
									L374.1,653.6z"/>
							</g>
						</g>
					</g>
				</g>
			</g>
			<path class="st62" d="M370.2,644.3c-2.1,0.1-3.8,2.2-3.7,5.3c0.1,3.1,0.9,6.5,3,6.4s5.5-2.3,5.4-5.4
				C374.9,647.5,372.4,644.2,370.2,644.3z"/>
			<path class="st52" d="M373.2,648.7c-2.4,0.7-5,1.1-7.1-0.7c-0.5,0.3-1.3,0.3-1.7,0.2c-1.4-0.4-2.5-1.4-2.9-2.8
				c-0.5-2,0-4.2,1.4-5.8c1-1.1,2.3-1.7,3.8-1.4c0.5,0.1,1,0.4,1.4,0.6c0.5,0.3,1,0.8,1.3,1.2c0.6-0.4,1.5-0.2,2.2,0
				c1.9,0.4,3.4,1.9,3.9,3.8c0.6,0,1.1,0.8,1.4,1.4c0.9,1.5,1,3.5,0.1,5.1c0.5,1.4-2.9,4.6-2.8,3c0.1-1.6-2-1.2-2-2.4
				C372.5,650.4,373.2,648.7,373.2,648.7z"/>
		</g>
		<polygon class="st47" points="369.9,659.2 366.9,663.7 365.3,676.4 372.9,666.2 376.2,657.4 		"/>
		<path class="st64" d="M365.3,669.8l0.7,7.7l4.3-9.3l0.2-6.4c-0.1-0.5-0.8-0.6-1-0.2L365.3,669.8z"/>
		<path class="st62" d="M348.7,668.5c0,0-9.6,0.9-11.5,1c-1.9,0-3.7,0.9-4.6,0.9c0,0-4.9,0.1-4.7,0.7s0.9,0.7,1.3,0.7
			s3.4-0.3,4.1,0.1c0.7,0.3,0.5,1,0.5,1s-2.6,0.6-2.1,1.3c0.2,0.3,0.7,0.2,1.5,0.1c0.8-0.1,4.9-1,5.5-1.4c0.6-0.5,3.1,0.3,10.5,0.1
			L348.7,668.5z"/>
		<g>
			<path class="st62" d="M366.8,757.1l5.2,1.2l-0.6-8.9l-5.8,0.2L366.8,757.1z"/>
			<g>
				<g>
					<g>
						<g>
							<defs>
								<polygon id="SVGID_00000044892661321323442830000015832113216627056821_" points="366.8,757.1 372,758.3 371.4,749.5 
									365.6,749.7 								"/>
							</defs>
							<clipPath id="SVGID_00000085970800183911984630000001638780678198806942_">
								<use xlink:href="#SVGID_00000044892661321323442830000015832113216627056821_"  style="overflow:visible;"/>
							</clipPath>
							<g style="clip-path:url(#SVGID_00000085970800183911984630000001638780678198806942_);">
								<path class="st33" d="M366,751.2c0.4-0.5,0.9-1.1,1.4-1.5c0.4-0.4,0.9-0.6,1.5-0.8c1.7-0.5,3.4,0.2,4.5,1.5
									c1.2,1.5,1.9,3.4,1.9,5.4c0,0.9-0.2,1.8-0.7,2.6c-0.2,0.3-0.5,0.6-0.8,0.8c-0.6,0.2-1.2,0-1.6-0.4c-0.3-0.4-0.4-0.8-0.5-1.3
									c-0.1-0.7-0.3-1.3-0.6-1.9c-0.2-0.3-0.4-0.6-0.6-0.8c-1.4-1.3-3.1-1.2-4.8-1.1L366,751.2z"/>
							</g>
						</g>
					</g>
				</g>
			</g>
		</g>
		<path class="st64" d="M359.3,760.3l12.9,0c0.5-1,0.4-2.2-0.1-3.2c-2.9,0.5-5.1-3.5-6.4-2.7c0,0-2.6,3.3-6.8,3.7
			C356.9,758.3,358,760.4,359.3,760.3z"/>
		<path class="st30" d="M361.6,698.5c0.1,0.5-3.8,23.8,3.6,53.6l7.4,0.6c0,0,0.3-28.2,2.2-36c1.9-7.8-2.6-19.3-2.6-19.3L361.6,698.5
			z"/>
		<g>
			<path class="st62" d="M380.3,759.7l5.2,1.2l-0.6-8.9l-5.8,0.2L380.3,759.7z"/>
			<g>
				<g>
					<g>
						<g>
							<defs>
								<polygon id="SVGID_00000112621124703437598790000013180847898621802395_" points="380.3,759.8 385.5,760.9 384.8,752.1 
									379,752.3 								"/>
							</defs>
							<clipPath id="SVGID_00000042004259678746206080000012763277980343872904_">
								<use xlink:href="#SVGID_00000112621124703437598790000013180847898621802395_"  style="overflow:visible;"/>
							</clipPath>
							<g style="clip-path:url(#SVGID_00000042004259678746206080000012763277980343872904_);">
								<path class="st33" d="M379.4,753.8c0.4-0.5,0.9-1.1,1.4-1.5c0.4-0.4,0.9-0.6,1.5-0.8c1.7-0.5,3.4,0.2,4.5,1.5
									c1.2,1.5,1.9,3.4,1.9,5.4c0,0.9-0.2,1.8-0.7,2.6c-0.2,0.3-0.5,0.6-0.8,0.8c-0.6,0.2-1.2,0-1.6-0.4c-0.3-0.4-0.4-0.8-0.5-1.3
									c-0.1-0.7-0.3-1.3-0.6-1.9c-0.2-0.3-0.4-0.6-0.6-0.8c-1.4-1.3-3.1-1.2-4.8-1.1L379.4,753.8z"/>
							</g>
						</g>
					</g>
				</g>
			</g>
		</g>
		<path class="st64" d="M372.7,762.9l12.9,0c0.5-1,0.4-2.2-0.1-3.2c-2.9,0.5-5.1-3.5-6.4-2.7c0,0-2.6,3.3-6.8,3.7
			C370.4,760.9,371.4,763,372.7,762.9z"/>
		<path class="st30" d="M369.8,701.5c0.2,0.5-1.8,27.2,8.8,53.3l7.4-0.6c0,0-5-27.5-3.9-35.5c1.1-8-2-19.4-2-19.4L369.8,701.5z"/>
		<path class="st67" d="M382.3,727.8l-0.2-5l-10.3-9.4c1.1-0.2,2.2-0.5,3.4-0.7c0.2-7.3-3.1-15.4-3.1-15.4l-10.9,0
			c0.1,0.2-0.7,8.3-0.6,18.4c0.7-0.2,2.1-0.5,3-0.7c0.5,4.9,1.4,14.3,1.4,14.3L382.3,727.8z"/>
		<path class="st30" d="M365.3,662.2c0,0-2.5,2.6-2.9,8.6s-2.7,36.8-2.7,36.8s2.8-4.3,3-4.9c0.1-0.6,0-1.6,0-1.6l1.3,7.2
			c0,0,9.5,2.1,13.9,0.9c4.5-1.1,4-8.5,4-8.5l0.9-22.9c0,0,2-14.1,0-16.2c-2-2.1-6.2-4.5-6.2-4.5s-5.4,5.4-10.3,17.6
			c0,0,1.2-11.8,2.1-13.4L365.3,662.2z"/>
		<path class="st30" d="M339.1,668.2c0,0-0.1,3.9,1.2,6.1c0,0,17.4,0.3,23.4-1.9l0.6-8.6c0,0-10,2.5-13.5,3.2
			C347.3,667.8,339.1,668.2,339.1,668.2z"/>
		<path class="st68" d="M374.6,675.2c-0.5,4-1.4,15-2.2,17.8c-0.9,2.7-2.2,8.4,0,10.9c2.1,0.2,4.3,0.2,5.8-0.2
			c4.5-1.1,3.6-3.1,3.6-3.1l0.9-22.9c0,0,1.8-12.4,0.3-15.7l-3.8,1.7C379.2,663.8,375.1,671.3,374.6,675.2z"/>
		<polyline class="st69" points="373.2,706.8 373.5,702 382.3,702 382.9,706.8 		"/>
		<path class="st64" d="M366,706l23.6-1l1.9,18.4c0,0-24.5,2-24.6,1.5S366,706,366,706z"/>
		<path class="st62" d="M376.2,694.9c0,0-2.4,6.6-1.2,9.2c1.2,2.6,5.8,0.2,5.6-1.9s-0.5-6.6-0.5-6.6L376.2,694.9z"/>
		<path class="st30" d="M378.9,662.6c0,0-2.5,5.1-2.1,13.7c0.4,8.6-3.2,22.8-3.2,22.8l9.1,1.9c0,0,4.1-15,3.6-21s3-15.4-3.5-18.3
			C382.7,661.6,381.3,660.6,378.9,662.6z"/>
		<circle class="st64" cx="370.2" cy="660.7" r="1.5"/>
		<polygon class="st47" points="369.9,659.3 375.9,655.7 376.5,657.1 371.2,662.8 		"/>
		<path class="st47" d="M368.8,657.9l1.1,1.4l-1.9,2.9C368,662.2,366.7,661.4,368.8,657.9z"/>
	</g>
	<g>
		<polygon class="st1" points="651.1,433.5 599.6,464.1 599.6,571.4 651.1,540.9 		"/>
		<polygon class="st60" points="612.6,513.8 606.3,517.1 606.3,523.9 612.6,520.6 		"/>
		<polygon class="st61" points="635,500.5 619.3,509.5 619.3,516.3 635,507.3 		"/>
		<polygon class="st61" points="644.2,445.9 606.4,468 606.4,510.8 644.2,489.2 		"/>
		<polygon class="st61" points="644.2,508.4 606.4,530.1 606.4,559.4 644.2,537.3 		"/>
	</g>
	<polygon class="st1" points="658.3,471.8 655,473.8 655,480.6 658.3,478.7 	"/>
	<g>
		<g>
			<path class="st62" d="M697.9,457.7l4.7-0.2c-0.2,1.8,0.7,3.4,1.8,4.9c-2.6,6.1-5.9,6.5-6.1,0.4
				C698.4,461,698.4,459.7,697.9,457.7z"/>
			<g>
				<g>
					<g>
						<g>
							<defs>
								<path id="SVGID_00000061452084044483768080000006900488733506964906_" d="M697.9,457.7l4.7-0.2c-0.2,1.8,0.7,3.4,1.8,4.9
									c-2.6,6.1-6.2,6.5-6.4,0.4C698.4,461.5,698.4,459.7,697.9,457.7z"/>
							</defs>
							<clipPath id="SVGID_00000008827577400772359800000005781850706611010182_">
								<use xlink:href="#SVGID_00000061452084044483768080000006900488733506964906_"  style="overflow:visible;"/>
							</clipPath>
							<g style="clip-path:url(#SVGID_00000008827577400772359800000005781850706611010182_);">
								<path class="st33" d="M702.9,458.6c-1.5,3.9-5.1,4-5.7,3.3c-0.2-0.2-0.6,0.1-0.9-0.1c-0.2-0.2-0.4-0.5-0.4-0.8
									c-0.1-0.8,0.2-0.5,0.2-1.3c0.2-1.6,1-3.5,2.7-4c0.3-0.1,0.6-0.1,0.9-0.1c0.5,0.1,1,0.2,1.5,0.4c0.6,0.3,1.1,0.7,1.5,1.2
									L702.9,458.6z"/>
							</g>
						</g>
					</g>
				</g>
			</g>
			<path class="st62" d="M699,449.3c-2.1,0.1-3.8,2.2-3.7,5.3s0.9,6.5,3,6.4s5.5-2.3,5.4-5.4C703.6,452.5,701.2,449.2,699,449.3z"/>
			<path class="st52" d="M702,453.7c-2.4,0.7-5,1.1-7.1-0.7c-0.5,0.3-1.3,0.3-1.7,0.2c-1.4-0.4-2.5-1.4-2.9-2.8
				c-0.5-2,0-4.2,1.4-5.8c1-1.1,2.3-1.7,3.8-1.4c0.5,0.1,1,0.4,1.4,0.6c0.5,0.3,1,0.8,1.3,1.2c0.6-0.4,1.5-0.2,2.2,0
				c1.9,0.4,3.4,1.9,3.9,3.8c0.6,0,1.1,0.8,1.4,1.4c0.9,1.5,1,3.5,0.1,5.1c0.5,1.4-2.9,4.6-2.8,3c0.1-1.6-2-1.2-2-2.4
				C701.2,455.4,702,453.7,702,453.7z"/>
		</g>
		<polygon class="st47" points="698.7,464.3 695.7,468.7 694.1,481.4 701.7,471.2 705,462.5 		"/>
		<path class="st64" d="M694.1,474.8l0.7,7.7l4.3-9.3l0.2-6.4c-0.1-0.5-0.8-0.6-1-0.2L694.1,474.8z"/>
		<path class="st62" d="M677.5,473.5c0,0-9.6,0.9-11.5,1s-3.7,0.9-4.6,0.9c0,0-4.9,0.1-4.7,0.7s0.9,0.7,1.3,0.7
			c0.4,0,3.4-0.3,4.1,0.1c0.7,0.3,0.5,1,0.5,1s-2.6,0.6-2.1,1.3c0.2,0.3,0.7,0.2,1.5,0.1c0.8-0.1,4.9-1,5.5-1.4
			c0.6-0.5,3.1,0.3,10.5,0.1L677.5,473.5z"/>
		<g>
			<path class="st62" d="M695.6,562.1l5.2,1.2l-0.6-8.9l-5.8,0.2L695.6,562.1z"/>
			<g>
				<g>
					<g>
						<g>
							<defs>
								<polygon id="SVGID_00000134959907377118301990000005461537833434435465_" points="695.6,562.2 700.8,563.4 700.2,554.5 
									694.4,554.7 								"/>
							</defs>
							<clipPath id="SVGID_00000036229658388842441480000014550518211392509324_">
								<use xlink:href="#SVGID_00000134959907377118301990000005461537833434435465_"  style="overflow:visible;"/>
							</clipPath>
							<g style="clip-path:url(#SVGID_00000036229658388842441480000014550518211392509324_);">
								<path class="st33" d="M694.8,556.2c0.4-0.5,0.9-1.1,1.4-1.5c0.4-0.4,0.9-0.6,1.5-0.8c1.7-0.5,3.4,0.2,4.5,1.5
									c1.2,1.5,1.9,3.4,1.9,5.4c0,0.9-0.2,1.8-0.7,2.6c-0.2,0.3-0.5,0.6-0.8,0.8c-0.6,0.2-1.2,0-1.6-0.4c-0.3-0.4-0.4-0.8-0.5-1.3
									c-0.1-0.7-0.3-1.3-0.6-1.9c-0.2-0.3-0.4-0.6-0.6-0.8c-1.4-1.3-3.1-1.2-4.8-1.1L694.8,556.2z"/>
							</g>
						</g>
					</g>
				</g>
			</g>
		</g>
		<path class="st64" d="M688.1,565.3l12.9,0c0.5-1,0.4-2.2-0.1-3.2c-2.9,0.5-5.1-3.5-6.4-2.7c0,0-2.6,3.3-6.8,3.7
			C685.7,563.3,686.7,565.4,688.1,565.3z"/>
		<path class="st30" d="M690.4,503.5c0.1,0.5-3.8,23.8,3.6,53.6l7.4,0.6c0,0,0.3-28.2,2.2-36c1.9-7.8-2.6-19.3-2.6-19.3L690.4,503.5
			z"/>
		<g>
			<path class="st62" d="M709.1,564.7l5.2,1.2l-0.6-8.9l-5.8,0.2L709.1,564.7z"/>
			<g>
				<g>
					<g>
						<g>
							<defs>
								<polygon id="SVGID_00000065773600373121864780000009570474955770152871_" points="709.1,564.8 714.3,566 713.6,557.1 
									707.8,557.3 								"/>
							</defs>
							<clipPath id="SVGID_00000114792011415447234720000003516274139161520570_">
								<use xlink:href="#SVGID_00000065773600373121864780000009570474955770152871_"  style="overflow:visible;"/>
							</clipPath>
							<g style="clip-path:url(#SVGID_00000114792011415447234720000003516274139161520570_);">
								<path class="st33" d="M708.2,558.8c0.4-0.5,0.9-1.1,1.4-1.5c0.4-0.4,0.9-0.6,1.5-0.8c1.7-0.5,3.4,0.2,4.5,1.5
									c1.2,1.5,1.9,3.4,1.9,5.4c0,0.9-0.2,1.8-0.7,2.6c-0.2,0.3-0.5,0.6-0.8,0.8c-0.6,0.2-1.2,0-1.6-0.4c-0.3-0.4-0.4-0.8-0.5-1.3
									c-0.1-0.7-0.3-1.3-0.6-1.9c-0.2-0.3-0.4-0.6-0.6-0.8c-1.4-1.3-3.1-1.2-4.8-1.1L708.2,558.8z"/>
							</g>
						</g>
					</g>
				</g>
			</g>
		</g>
		<path class="st64" d="M701.5,567.9l12.9,0c0.5-1,0.4-2.2-0.1-3.2c-2.9,0.5-5.1-3.5-6.4-2.7c0,0-2.6,3.3-6.8,3.7
			C699.2,565.9,700.2,568,701.5,567.9z"/>
		<path class="st30" d="M698.6,506.5c0.2,0.5-1.8,27.2,8.8,53.3l7.4-0.6c0,0-5-27.5-3.9-35.5c1.1-8-2-19.4-2-19.4L698.6,506.5z"/>
		<path class="st67" d="M711.1,532.9l-0.2-5l-10.3-9.4c1.1-0.2,2.2-0.5,3.4-0.7c0.2-7.3-3.1-15.4-3.1-15.4l-10.9,0
			c0.1,0.2-0.7,8.3-0.6,18.4c0.7-0.2,2.1-0.5,3-0.7c0.5,4.9,1.4,14.3,1.4,14.3L711.1,532.9z"/>
		<path class="st30" d="M694.1,467.2c0,0-2.5,2.6-2.9,8.6c-0.4,6-2.7,36.8-2.7,36.8s2.8-4.3,3-4.9c0.1-0.6,0-1.6,0-1.6l1.3,7.2
			c0,0,9.5,2.1,13.9,0.9c4.5-1.1,4-8.5,4-8.5l0.9-22.9c0,0,2-14.1,0-16.2c-2-2.1-6.2-4.5-6.2-4.5s-5.4,5.4-10.3,17.6
			c0,0,1.2-11.8,2.1-13.4L694.1,467.2z"/>
		<path class="st30" d="M667.8,473.2c0,0-0.1,3.9,1.2,6.1c0,0,17.4,0.3,23.4-1.9l0.6-8.6c0,0-10,2.5-13.5,3.2
			C676.1,472.8,667.8,473.2,667.8,473.2z"/>
		<path class="st68" d="M703.4,480.3c-0.5,4-1.4,15-2.2,17.8c-0.9,2.7-2.2,8.4,0,10.9c2.1,0.2,4.3,0.2,5.8-0.2
			c4.5-1.1,3.6-3.1,3.6-3.1l0.9-22.9c0,0,1.8-12.4,0.3-15.7l-3.8,1.7C708,468.8,703.9,476.3,703.4,480.3z"/>
		<polyline class="st69" points="702,511.8 702.3,507 711.1,507 711.7,511.8 		"/>
		<path class="st64" d="M694.8,511.1l23.6-1l1.9,18.4c0,0-24.5,2-24.6,1.5C695.5,529.5,694.8,511.1,694.8,511.1z"/>
		<path class="st62" d="M705,499.9c0,0-2.4,6.6-1.2,9.2c1.2,2.6,5.8,0.2,5.6-1.9c-0.2-2.1-0.5-6.6-0.5-6.6L705,499.9z"/>
		<path class="st30" d="M707.6,467.6c0,0-2.5,5.1-2.1,13.7c0.4,8.6-3.2,22.8-3.2,22.8l9.1,1.9c0,0,4.1-15,3.6-21
			c-0.5-6,3-15.4-3.5-18.3C711.5,466.6,710.1,465.6,707.6,467.6z"/>
		<circle class="st64" cx="699" cy="465.7" r="1.5"/>
		<polygon class="st47" points="698.7,464.4 704.7,460.7 705.3,462.1 700,467.8 		"/>
		<path class="st47" d="M697.6,462.9l1.1,1.4l-1.9,2.9C696.8,467.2,695.5,466.4,697.6,462.9z"/>
	</g>
</g>
<g id="Layer_2">
</g>
</svg>
