<?xml version="1.0" encoding="utf-8"?>
<!-- Generator: Adobe Illustrator 25.0.0, SVG Export Plug-In . SVG Version: 6.00 Build 0)  -->
<svg version="1.1" id="Layer_1" xmlns="http://www.w3.org/2000/svg" xmlns:xlink="http://www.w3.org/1999/xlink" x="0px" y="0px"
	 viewBox="0 0 595.3 372.4" style="enable-background:new 0 0 595.3 372.4;" xml:space="preserve">
<style type="text/css">
	.st0{fill:#305495;}
	.st1{fill:#FFFDE4;}
	.st2{fill:#6B8ECC;}
	.st3{fill:#A7BCE1;}
</style>
<g>
	<g>
		<path class="st0" d="M484.1,322.5H116.7c-7.7,0-13.9-6.2-13.9-13.9V59.2c0-7.7,6.2-13.9,13.9-13.9h367.4c7.7,0,13.9,6.2,13.9,13.9
			v249.4C498,316.3,491.8,322.5,484.1,322.5z"/>
		<path class="st1" d="M478.6,327.1H111.2c-7.7,0-13.9-6.2-13.9-13.9V63.8c0-7.7,6.2-13.9,13.9-13.9h367.4c7.7,0,13.9,6.2,13.9,13.9
			v249.4C492.4,320.9,486.2,327.1,478.6,327.1z"/>
	</g>
	<g>
		<path class="st0" d="M214.9,145.4h-75.2c-3,0-5.4-2.4-5.4-5.4V89.2c0-3,2.4-5.4,5.4-5.4h75.2c3,0,5.4,2.4,5.4,5.4V140
			C220.3,143,217.9,145.4,214.9,145.4z"/>
		<path class="st2" d="M168.1,263h-27.5c-1.6,0-2.8-1.3-2.8-2.8v-20.2c0-1.6,1.3-2.8,2.8-2.8h27.5c1.6,0,2.8,1.3,2.8,2.8v20.2
			C170.9,261.7,169.6,263,168.1,263z"/>
		<path class="st3" d="M190.6,242.6h-12c-1.5,0-2.7-1.2-2.7-2.7l0,0c0-1.5,1.2-2.7,2.7-2.7h12c1.5,0,2.7,1.2,2.7,2.7l0,0
			C193.3,241.3,192.1,242.6,190.6,242.6z"/>
		<path class="st3" d="M214.2,253.8h-35.6c-1.5,0-2.7-1.2-2.7-2.7l0,0c0-1.5,1.2-2.7,2.7-2.7h35.6c1.5,0,2.7,1.2,2.7,2.7l0,0
			C216.9,252.6,215.7,253.8,214.2,253.8z"/>
		<path class="st2" d="M168.1,299.5h-27.5c-1.6,0-2.8-1.3-2.8-2.8v-20.2c0-1.6,1.3-2.8,2.8-2.8h27.5c1.6,0,2.8,1.3,2.8,2.8v20.2
			C170.9,298.2,169.6,299.5,168.1,299.5z"/>
		<path class="st3" d="M190.6,279h-12c-1.5,0-2.7-1.2-2.7-2.7v0c0-1.5,1.2-2.7,2.7-2.7h12c1.5,0,2.7,1.2,2.7,2.7v0
			C193.3,277.8,192.1,279,190.6,279z"/>
		<path class="st3" d="M214.2,290.3h-35.6c-1.5,0-2.7-1.2-2.7-2.7v0c0-1.5,1.2-2.7,2.7-2.7h35.6c1.5,0,2.7,1.2,2.7,2.7v0
			C216.9,289.1,215.7,290.3,214.2,290.3z"/>
		
			<rect x="252.4" y="167" transform="matrix(0.7071 0.7071 -0.7071 0.7071 218.6582 -140.5979)" class="st2" width="53.2" height="53.2"/>
		<circle class="st0" cx="404.2" cy="114.1" r="30.3"/>
		<g>
			<g>
				<path class="st3" d="M419.9,306.8c-25.8,0-46.7-21-46.7-46.7c0-25.8,21-46.7,46.7-46.7v19.4c-15.1,0-27.3,12.3-27.3,27.3
					c0,15.1,12.3,27.3,27.3,27.3c15.1,0,27.3-12.3,27.3-27.3h19.4C466.7,285.9,445.7,306.8,419.9,306.8z"/>
			</g>
			<g>
				<path class="st2" d="M441.8,254.9c-2.1-8.8-9.4-15.6-18.3-17l4.6-28.8c20.7,3.3,37.3,18.7,42.1,39.1L441.8,254.9z"/>
			</g>
		</g>
		<g>
			<g>
				<polygon class="st2" points="294.8,194.9 176.1,194.9 176.1,160.8 178.6,160.8 178.6,192.4 294.8,192.4 				"/>
			</g>
			<g>
				<polygon class="st2" points="280.3,183.9 277.8,183.9 277.8,115.8 356.6,115.8 356.6,118.3 280.3,118.3 				"/>
			</g>
			<g>
				<polygon class="st2" points="353.8,264.3 277.8,264.3 277.8,214.7 280.3,214.7 280.3,261.7 353.8,261.7 				"/>
			</g>
			<g>
				<path class="st2" d="M177.3,162.1c-3.2,0-5.9-2.6-5.9-5.9c0-3.2,2.6-5.9,5.9-5.9c3.2,0,5.9,2.6,5.9,5.9
					C183.2,159.4,180.6,162.1,177.3,162.1z M177.3,152.8c-1.9,0-3.4,1.5-3.4,3.4s1.5,3.4,3.4,3.4s3.4-1.5,3.4-3.4
					S179.2,152.8,177.3,152.8z"/>
			</g>
			<g>
				<path class="st2" d="M360.6,122.9c-3.2,0-5.9-2.6-5.9-5.9c0-3.2,2.6-5.9,5.9-5.9s5.9,2.6,5.9,5.9
					C366.5,120.3,363.8,122.9,360.6,122.9z M360.6,113.7c-1.9,0-3.4,1.5-3.4,3.4s1.5,3.4,3.4,3.4c1.9,0,3.4-1.5,3.4-3.4
					S362.4,113.7,360.6,113.7z"/>
			</g>
			<g>
				<path class="st2" d="M358,268.9c-3.2,0-5.9-2.6-5.9-5.9c0-3.2,2.6-5.9,5.9-5.9c3.2,0,5.9,2.6,5.9,5.9
					C363.9,266.2,361.3,268.9,358,268.9z M358,259.6c-1.9,0-3.4,1.5-3.4,3.4c0,1.9,1.5,3.4,3.4,3.4c1.9,0,3.4-1.5,3.4-3.4
					C361.4,261.1,359.9,259.6,358,259.6z"/>
			</g>
		</g>
	</g>
</g>
</svg>
