<?xml version="1.0" encoding="UTF-8"?>
<svg xmlns="http://www.w3.org/2000/svg" xmlns:xlink="http://www.w3.org/1999/xlink" version="1.1" viewBox="0 0 841.9 595.3">
  <defs>
    <style>
      .cls-1 {
        fill: #f1bbb8;
      }

      .cls-2 {
        fill: #f27863;
      }

      .cls-3, .cls-4, .cls-5, .cls-6, .cls-7, .cls-8, .cls-9 {
        fill: none;
      }

      .cls-10 {
        fill: #2c1913;
      }

      .cls-11 {
        fill: #5467a3;
      }

      .cls-12, .cls-13, .cls-14 {
        fill: #010101;
      }

      .cls-12, .cls-14 {
        fill-opacity: .2;
      }

      .cls-15 {
        fill: #d1d3d4;
      }

      .cls-4, .cls-5, .cls-6, .cls-7 {
        stroke-linecap: round;
        stroke-linejoin: round;
      }

      .cls-4, .cls-5, .cls-8 {
        stroke: #203365;
      }

      .cls-4, .cls-7, .cls-8, .cls-9 {
        stroke-width: 4px;
      }

      .cls-16 {
        fill: #93adda;
      }

      .cls-5, .cls-6 {
        stroke-width: 7px;
      }

      .cls-17, .cls-18 {
        fill: #fbccc8;
      }

      .cls-13, .cls-14, .cls-18, .cls-19 {
        fill-rule: evenodd;
      }

      .cls-20 {
        isolation: isolate;
      }

      .cls-21 {
        mix-blend-mode: multiply;
      }

      .cls-22 {
        fill: #cbddf2;
      }

      .cls-23 {
        clip-path: url(#clippath-1);
      }

      .cls-24 {
        clip-path: url(#clippath-3);
      }

      .cls-25 {
        clip-path: url(#clippath-2);
      }

      .cls-26 {
        fill: #f2eccc;
      }

      .cls-27 {
        fill: #fff;
      }

      .cls-6, .cls-7, .cls-9 {
        stroke: #f27863;
      }

      .cls-28 {
        fill: #203365;
      }

      .cls-29 {
        fill: #203b72;
      }

      .cls-30 {
        fill: #dedede;
      }

      .cls-8, .cls-9 {
        stroke-miterlimit: 10;
      }

      .cls-31, .cls-19 {
        fill: #fffce6;
      }

      .cls-32 {
        fill: #fce4e2;
      }

      .cls-33 {
        fill: #e6e7e8;
      }

      .cls-34 {
        fill: #6486c4;
      }

      .cls-35 {
        clip-path: url(#clippath);
      }
    </style>
    <clipPath id="clippath">
      <polygon class="cls-3" points="242.4 443.9 229.3 443.4 227.9 463.4 239.6 460.7 242.4 443.9"/>
    </clipPath>
    <clipPath id="clippath-1">
      <polygon class="cls-3" points="285.4 443.9 272.3 443.4 270.9 463.4 282.6 460.7 285.4 443.9"/>
    </clipPath>
    <clipPath id="clippath-2">
      <path class="cls-11" d="M281.6,253.9l-11.6-3.2-9.6-1.1s-5.8,1.3-12.3,6.5c-4.5,9.1-.7,20.7,0,24.1.2.9.4,2.4.6,4l-2.8,2.6-5.3,38.3s44,5.6,50.2-2.2c0,0-.6-55.5-9.3-69.1Z"/>
    </clipPath>
    <clipPath id="clippath-3">
      <path class="cls-3" d="M272.2,250.7c0,14-8.3,13.4-14.7-.4,2.5-3.5,4.4-7.2,3.7-11.4h10.7c-.9,4.7-.9,8.7.3,11.8Z"/>
    </clipPath>
  </defs>
  <!-- Generator: Adobe Illustrator 28.7.0, SVG Export Plug-In . SVG Version: 1.2.0 Build 136)  -->
  <g class="cls-20">
    <g id="Layer_1">
      <path class="cls-32" d="M472.4,120.3c-133.2-12.3-142.9,63.5-160.5,106.7-6.6,16.2-17.9,28.2-29.5,36.9-15.1,11.3-33,18.2-51.7,20.7-120.3,16-100.7,178.4-55.5,192.1h479.8c118.2-224.9-49.4-344-182.6-356.4Z"/>
      <g>
        <path class="cls-18" d="M242.4,443.9l-13.1-.5-1.4,20,11.7-2.8,2.8-16.7Z"/>
        <g class="cls-35">
          <path class="cls-14" d="M242.4,452.9c-3.8-.2-7.7-.5-10.8,2.4-.5.5-1,1.2-1.4,1.8-.6,1.4-1,2.8-1.3,4.3-.2,1.1-.5,2.1-1.2,2.9-.9,1-2.3,1.4-3.6.9-.8-.4-1.5-1.1-1.9-1.8-1-1.8-1.5-3.8-1.5-5.8-.1-4.4,1.4-8.7,4.2-12.1,2.5-2.9,6.3-4.6,10.1-3.4,1.2.4,2.3,1,3.3,1.8,1.2.9,2.3,2.1,3.2,3.3l.9,5.7Z"/>
        </g>
      </g>
      <path class="cls-19" d="M257.6,462.9c-9.4-.9-15.3-8.4-15.3-8.4-2.9-1.8-7.8,7.3-14.4,6.2-1.3,2.2-1.5,4.9-.3,7.2h29c3,0,5.3-4.6,1-5Z"/>
      <g>
        <path class="cls-18" d="M285.4,443.9l-13.1-.5-1.4,20,11.7-2.8,2.8-16.7Z"/>
        <g class="cls-23">
          <path class="cls-14" d="M285.4,452.9c-3.8-.2-7.7-.5-10.8,2.4-.5.5-1,1.2-1.4,1.8-.6,1.4-1,2.8-1.3,4.3-.2,1.1-.5,2.1-1.2,2.9-.9,1-2.3,1.4-3.6.9-.8-.4-1.5-1.1-1.9-1.8-1-1.8-1.5-3.8-1.5-5.8-.1-4.4,1.4-8.7,4.2-12.1,2.5-2.9,6.3-4.6,10.1-3.4,1.2.4,2.3,1,3.3,1.8,1.2.9,2.3,2.1,3.2,3.3l.9,5.7Z"/>
        </g>
      </g>
      <path class="cls-19" d="M300.6,462.9c-9.4-.9-15.3-8.4-15.3-8.4-2.9-1.8-7.8,7.3-14.4,6.2-1.3,2.2-1.5,4.9-.3,7.2h29c3,0,5.3-4.6,1-5Z"/>
      <g>
        <path class="cls-11" d="M610.5,439.8H244.6c-1.2,0-2.2-1-2.2-2.2v-160.5c0-1.2,1-2.2,2.2-2.2s2.2,1,2.2,2.2v158.3h363.8c1.2,0,2.2,1,2.2,2.2s-1,2.2-2.2,2.2Z"/>
        <rect class="cls-34" x="223.1" y="432.1" width="14.2" height="4.5"/>
        <rect class="cls-2" x="304.3" y="443.4" width="4.5" height="14.2"/>
        <rect class="cls-2" x="381.3" y="443.4" width="4.5" height="14.2"/>
        <rect class="cls-2" x="447.5" y="443.4" width="4.5" height="14.2"/>
        <rect class="cls-2" x="513.7" y="443.4" width="4.5" height="14.2"/>
        <path class="cls-22" d="M247.6,315.8c45-10.2,56.9,23.8,83.6,17,26.7-6.8,48.4-31,78.5-21.2,30.1,9.8,50.9,35.7,89.6,59.4,38.6,23.8,56.9-44.6,96.8-47.1l-1.3,110.8-348.1.8.8-119.7Z"/>
        <path class="cls-1" d="M246.7,435.5l.2-53.2c48.4-34.4,83-40.5,118.7-15.1,35.7,25.5,50.9,22.9,96.8,6.4,45.9-16.6,91-19,133,11.6l-.6,50.5-348.1-.2Z"/>
        <rect class="cls-11" x="305.5" y="323" width="2.1" height="109.6"/>
        <rect class="cls-11" x="382.5" y="304.6" width="2.1" height="128"/>
        <rect class="cls-11" x="448.7" y="326.3" width="2.1" height="106.3"/>
        <rect class="cls-11" x="514.9" y="357.7" width="2.1" height="74.9"/>
      </g>
      <path class="cls-2" d="M668.3,483.3H160.2v-4.1c0-6,4.9-10.9,10.9-10.9h486.3c6,0,10.9,4.9,10.9,10.9v4.1Z"/>
      <g>
        <g class="cls-21">
          <rect class="cls-30" x="309.2" y="245.8" width="93" height="113.8"/>
        </g>
        <rect class="cls-27" x="313.2" y="241.5" width="93" height="113.8"/>
        <path class="cls-33" d="M334.8,253.3h19.9c6.4,0,11.6,5.2,11.6,11.6v24.9c0,6.4-5.2,11.6-11.6,11.6h-19.9c-6.4,0-11.6-5.2-11.6-11.6v-24.9c0-6.4,5.2-11.6,11.6-11.6Z"/>
        <rect class="cls-27" x="372.6" y="253.3" width="19.9" height="4.5" rx="2.2" ry="2.2"/>
        <rect class="cls-27" x="372.6" y="261.7" width="27.9" height="4.5" rx="2.2" ry="2.2"/>
        <rect class="cls-27" x="372.6" y="270.1" width="27.9" height="4.5" rx="2.2" ry="2.2"/>
        <rect class="cls-33" x="323.3" y="312.2" width="27.9" height="4.5" rx="2.2" ry="2.2"/>
        <rect class="cls-33" x="323.3" y="320.5" width="44" height="4.5" rx="2.2" ry="2.2"/>
        <rect class="cls-33" x="323.3" y="336.9" width="44" height="4.5" rx="2.2" ry="2.2"/>
        <rect class="cls-33" x="323.3" y="328.9" width="18" height="4.5" rx="2.2" ry="2.2"/>
        <rect class="cls-33" x="380.2" y="328.9" width="20.1" height="4.5" rx="2.2" ry="2.2"/>
        <rect class="cls-33" x="370.7" y="320.5" width="8.1" height="4.5" rx="2.2" ry="2.2"/>
        <rect class="cls-33" x="382.1" y="320.5" width="17.9" height="4.5" rx="2.2" ry="2.2"/>
        <g>
          <path class="cls-16" d="M358.4,285.6c-.4-.3-1-.2-1.3.3-2.6,3.9-6.9,6.2-11.5,6.2-7.6,0-13.8-6.2-13.8-13.8s2-8.4,5.5-11.1l1.2,1.8,3.6-5.8-6.8.8,1,1.6c-4,3-6.4,7.6-6.4,12.6,0,8.7,7,15.7,15.7,15.7s10.2-2.6,13.1-7c.3-.4.2-1-.3-1.3Z"/>
          <path class="cls-16" d="M361.3,277.8c-.2-8.5-7.2-15.3-15.7-15.3s-.9.4-.9.9.4.9.9.9c7.4,0,13.5,5.9,13.8,13.3l-2.3-.2,2.3,6.4,3.6-5.8-1.8-.2Z"/>
        </g>
      </g>
      <path class="cls-17" d="M320.1,278.3c1.6-2,8.3-15.1,9.7-16.6,1.4-1.6,2.7-3.1,3.4-3.3.7-.1,2.5-1,2.5-1,1-.5,2.6-.8,1.5,1.1s-2.6,2.7-2.6,2.7l-1.2,2s4.7,1.3,5.3,3.1.1,7.1-.7,8.3c-.8,1.1-4.9,0-4.9,0-1,2.1-2,3.6-3.1,4.2-1.1.6-4.2,5.2-4.2,5.2l-5.6-5.6Z"/>
      <path class="cls-11" d="M281.6,253.9c7.7,7.6,20.5,31.1,20.5,31.1,0,0,14.8-10.6,20.2-9.5,5.3,1.1,8.1,9.9,2.7,16.5-5.5,6.6-12.3,15.8-26.2,14.4-13.9-1.4-22.8-20.3-23.8-22-1-1.7-6.6-25.6,6.7-30.5Z"/>
      <path class="cls-29" d="M249.9,299.6c-12.7,8-14.2,32.4-14.6,45.8-.4,13.4-8.8,108-8.8,108h17.2l18.2-84,8.7,82.4h14.7s8.4-130.3-3.6-152.1c-12-21.9-31.8,0-31.8,0Z"/>
      <rect class="cls-10" x="249.9" y="295.7" width="31.8" height="3.9"/>
      <rect class="cls-29" x="254" y="295.2" width="1.6" height="4.6"/>
      <rect class="cls-29" x="278.8" y="295.2" width="1.6" height="4.6"/>
      <g>
        <path class="cls-11" d="M281.6,253.9l-11.6-3.2-9.6-1.1s-5.8,1.3-12.3,6.5c-4.5,9.1-.7,20.7,0,24.1.2.9.4,2.4.6,4l-2.8,2.6-5.3,38.3s44,5.6,50.2-2.2c0,0-.6-55.5-9.3-69.1Z"/>
        <g class="cls-25">
          <path class="cls-12" d="M248,259.7s12.4,14.7,9.5,26c-2.8,11.3-3.5,27.7,2,31.4,5.6,3.7,34,4.6,34,4.6l2,13.5h-70.4l8.2-84.6,14.7,9.1Z"/>
        </g>
      </g>
      <path class="cls-18" d="M272.2,250.7c0,14-8.3,13.4-14.7-.4,2.5-3.5,4.4-7.2,3.7-11.4h10.7c-.9,4.7-.9,8.7.3,11.8Z"/>
      <g class="cls-24">
        <path class="cls-14" d="M260.8,238.3c.9-1.2,2-2.1,3.3-2.8,1.1-.5,2.3-.8,3.3-1.1.7-.1,1.5,0,2.1.1,4,.8,6,5.1,6.5,8.8.1,1.7.9,1.2.7,2.9,0,.8-.4,1.3-.9,1.9-.7.5-1.6-.3-2,.3-1.3,1.7-9.6,1.7-13.4-6.9l.3-3.2Z"/>
      </g>
      <path class="cls-18" d="M258.3,234.8c0,7.2,8,11.9,12.8,11.9,4.8,0,6.4-7.9,6.4-15s-4.1-11.8-9-11.8c-4.9,0-10.3,7.6-10.3,14.8Z"/>
      <path class="cls-13" d="M264.6,235.2c.3,2.8-4.5,1.9-4.3,5.6.3,3.6-7.7-3.3-6.7-6.5-2.1-3.6-2.1-8-.1-11.6.5-1.2,1.6-3.2,3.1-3.2.9-4.3,4.3-7.9,8.5-9s3.6-.9,5.1-.1c.8-1.1,1.9-2.1,2.9-2.9.9-.7,2.1-1.3,3.2-1.6,3.2-.9,6.4.4,8.7,2.8,3.3,3.5,4.8,8.4,3.7,13.1-.8,3.2-3.2,5.7-6.4,6.7-1.1.3-2.9.4-4-.3-4.5,4.3-10.7,3.6-16.2,2.1,0,0,1.9,3.7,2.4,4.9Z"/>
      <path class="cls-17" d="M248,321.6c.5,1.5,1.1,7,3.1,7.5,2.1.6,4.6,1.7,5.8,4.1,1.2,2.3,4.5,3.2,4.6,3.8,0,.6-3.4.7-4.7-.1-1.4-.8-1.5-1.6-1.9-.8-.4.8,2.8,8.8,4.1,11.3,1.3,2.5-1.8.5-1.8.5-.8,1-2.3,0-2.3,0-1.4,1.2-4.8-3.1-5-2.6-1.6,1.5-5-3.4-5.5-6.8s-.5-6.3-1.8-8.9c-1.4-2.7-3.1-6.2-3.1-6.2l8.6-1.7Z"/>
      <path class="cls-11" d="M248.1,256.2c6.3,4.9,6.6,18.2,1.5,30.7-5,12.5-1.8,22.5.8,28.7,2.7,6.2,3.5,14.1-7.7,15.1-11.2,1-16.4-20-16.4-33.6s12-39,21.7-40.9Z"/>
      <g class="cls-21">
        <polygon class="cls-30" points="468 312.7 355.7 312.7 355.7 160.4 452.2 160.4 468 174.7 468 312.7"/>
      </g>
      <g>
        <polygon class="cls-27" points="474.1 307.4 360.7 307.4 360.7 307.4 360.7 155.9 450.8 155.9 474.1 179.2 474.1 307.4 474.1 307.4"/>
        <rect class="cls-33" x="374.1" y="171.6" width="57.4" height="64" rx="15.4" ry="15.4"/>
        <rect class="cls-33" x="439.9" y="203.5" width="19.1" height="6" rx="3" ry="3"/>
        <rect class="cls-33" x="439.9" y="214.7" width="26.9" height="6" rx="3" ry="3"/>
        <rect class="cls-33" x="439.9" y="225.8" width="26.9" height="6" rx="3" ry="3"/>
        <rect class="cls-33" x="374.1" y="250.1" width="37.1" height="6" rx="3" ry="3"/>
        <rect class="cls-33" x="374.1" y="261.2" width="58.7" height="6" rx="3" ry="3"/>
        <rect class="cls-33" x="374.1" y="283" width="58.7" height="6" rx="3" ry="3"/>
        <rect class="cls-33" x="374.1" y="272.4" width="24" height="6" rx="3" ry="3"/>
        <rect class="cls-33" x="440.1" y="272.4" width="26.7" height="6" rx="3" ry="3"/>
        <rect class="cls-33" x="437.4" y="261.2" width="10.8" height="6" rx="3" ry="3"/>
        <rect class="cls-33" x="452.6" y="261.7" width="14.2" height="5.5" rx="2.7" ry="2.7"/>
      </g>
      <g class="cls-21">
        <rect class="cls-30" x="494.8" y="198.1" width="88" height="119.4"/>
      </g>
      <g>
        <polygon class="cls-27" points="587.6 313.3 498.7 313.3 498.7 313.3 498.7 194.5 587.6 194.5 587.6 194.5 587.6 313.3 587.6 313.3"/>
        <rect class="cls-33" x="509.3" y="206.9" width="45" height="50.2" rx="15.4" ry="15.4"/>
        <rect class="cls-33" x="560.9" y="231.9" width="15" height="4.7" rx="2.1" ry="2.1"/>
        <rect class="cls-33" x="560.9" y="240.6" width="21" height="4.7" rx="2.1" ry="2.1"/>
        <rect class="cls-33" x="560.9" y="249.3" width="21" height="4.7" rx="2.1" ry="2.1"/>
        <rect class="cls-33" x="509.3" y="268.4" width="29.1" height="4.7" rx="2.1" ry="2.1"/>
        <rect class="cls-33" x="509.3" y="277.1" width="46" height="4.7" rx="2.1" ry="2.1"/>
        <rect class="cls-33" x="509.3" y="294.2" width="46" height="4.7" rx="2.1" ry="2.1"/>
        <rect class="cls-33" x="509.3" y="285.8" width="18.8" height="4.7" rx="2.1" ry="2.1"/>
        <rect class="cls-33" x="560.9" y="285.8" width="21" height="4.7" rx="2.1" ry="2.1"/>
        <rect class="cls-33" x="558.8" y="277.1" width="8.5" height="4.7" rx="2.1" ry="2.1"/>
        <rect class="cls-33" x="570.7" y="277.5" width="11.2" height="4.3" rx="2" ry="2"/>
      </g>
      <polygon class="cls-28" points="384.4 197.7 398.7 215.9 422.5 186.7 398.2 204.4 384.4 197.7"/>
      <g>
        <path class="cls-2" d="M544.2,239.4c-.4-.3-1-.2-1.3.3-2.6,3.9-6.9,6.2-11.5,6.2-7.6,0-13.8-6.2-13.8-13.8s2-8.4,5.5-11.1l1.2,1.8,3.6-5.8-6.8.8,1,1.6c-4,3-6.4,7.6-6.4,12.6,0,8.7,7,15.7,15.7,15.7s10.2-2.6,13.1-7c.3-.4.2-1-.3-1.3Z"/>
        <path class="cls-2" d="M547.1,231.6c-.2-8.5-7.2-15.3-15.7-15.3s-.9.4-.9.9.4.9.9.9c7.4,0,13.5,5.9,13.8,13.3l-2.3-.2,2.3,6.4,3.6-5.8-1.8-.2Z"/>
      </g>
      <polygon class="cls-15" points="474.2 179.2 450.8 179.2 450.8 155.9 474.2 179.2"/>
      <g>
        <circle class="cls-9" cx="341.9" cy="238.2" r="18.1"/>
        <line class="cls-7" x1="336.5" y1="257" x2="334.7" y2="263.2"/>
        <line class="cls-6" x1="334.2" y1="265" x2="326.1" y2="293"/>
      </g>
      <g>
        <circle class="cls-8" cx="546.2" cy="221.3" r="18.1"/>
        <line class="cls-4" x1="547.9" y1="240.8" x2="548.5" y2="247.2"/>
        <line class="cls-5" x1="548.6" y1="249.1" x2="551.1" y2="278.1"/>
      </g>
      <g>
        <g>
          <path class="cls-10" d="M610,237.9c6.2,1.1,9.8-4.7,8-9.3.5-9.3-3.5-18.5-17.4-13.5-6.9.9-9.6,10-3.9,12.4,7.6,6.7,13.3,10.3,13.3,10.3Z"/>
          <path class="cls-17" d="M604.4,241.5c.4,2.6.4,5.7-3.3,8.2.1,11.7,17.2-.5,17.2-2.2,0-.2-3.1-.9-4.3-2.9-1.1-2-1.7-7.1-1.2-13.9-2.7.7-3.6-1.4-3.6-5,0-3.6-1.8-9.4-8.8-8.5-2.7,3.3-4.1,5.3-3.8,9.5.2,4.2-.3,7.2.3,9.3.5,2,2.7,5.7,7.7,5.6Z"/>
          <circle class="cls-17" cx="614.2" cy="232.1" r="2.2"/>
        </g>
        <path class="cls-17" d="M626.4,378.3c-.8-1.8,3.2-30.7,1.8-37l-24.2.2s3.2,36,3.2,40.4,6.3,41.6,8.1,59.6c.3,3.2.2,6.4-.3,9.6-.2,1-.4,1.8-.6,2.2-.8,1.6-6.3,7-8.9,11.7-.2.6-6,1.5-5.1,2.8.5.3,10.6,1,11.7,0,1.1-1.1,3.8-3.8,6.8-4.4.2,0,.2,4.9.2,4.9h4.4s.5-4.3.7-5.6c.2-1.3,1.7-3.3.7-5.3-1-2-2.1-5.8-1.8-11.2,2-15.2,7.9-58,3.4-67.9Z"/>
        <path class="cls-10" d="M605.5,465.1c1.8.2,3.8.6,4.5.3.9-.4,7.1-8.2,14-10.1.3.8.5,1.5.8,2.1,1,2-.5,4-.7,5.3-.2,1.3-.7,5.6-.7,5.6h-4.4s0-4.9-.2-4.9c-3,.6-5.7,3.3-6.8,4.4-1.1,1.1-11.2.3-11.7,0-.8-1.3,4.6-2.2,5.1-2.8Z"/>
        <path class="cls-17" d="M602.6,378.3c-.8-1.8,7.9-30.7,6.5-37l-24.2.2s-1.4,36-1.4,40.4,3.8,41.6,5.5,59.6c.3,3.2.2,6.4-.3,9.6-.2,1-.4,1.8-.6,2.2-.8,1.6-6.3,7-8.9,11.7-.2.6-6,1.5-5.1,2.8.5.3,10.6,1,11.7,0,1.1-1.1,3.8-3.8,6.8-4.4.2,0,.2,4.9.2,4.9h4.4s.5-4.3.7-5.6c.2-1.3,1.7-3.3.7-5.3-1-2-2.1-5.8-1.8-11.2,2-15.2,7.8-60.4,6-67.9Z"/>
        <path class="cls-31" d="M624.8,250.6c11.3,10.1,20,38.1,18.4,45.1-1.6,7-18.5,6.6-27.7.5-9.3-6.1,9.3-45.6,9.3-45.6Z"/>
        <path class="cls-26" d="M602.3,246.5c-4.5,1.2-7,4-7,4,0,0-15.1,12.8-11.2,19.7,3.8,6.9,4.8,22,4.8,22l30.5.4c0-1,8.3-17,9.7-25.1,1.4-8.1-2.2-18.5-10-20.3-7.8-1.8-16.8-.8-16.8-.8Z"/>
        <path class="cls-28" d="M588.3,297.6c-14.9,12.3-7.3,71.3-7.3,71.3h49.9c2.4-38.4.2-65.9-11.9-71.9-12.1-6.1-30.7.6-30.7.6Z"/>
        <rect class="cls-28" x="588.3" y="292.3" width="31" height="5.4"/>
        <path class="cls-17" d="M557.7,261.5c-.6-.9-4.2-6.7-4.8-7.3-.6-.6-7.5-3.6-8.2-3.7-.3,0-.5,0-.8,0-.4,0-.8.2-1,.6-.5,1-.3,1.8.2,2.1,1.4.7,1.2.9,1.4,1,.2.2,1.4,1.2,1.2,1.4s-.8,3.9-.8,5.1.8,2.7,2.3,3.7c1.5,1,9.4,3.5,9.4,3.5l1-6.5Z"/>
        <path class="cls-10" d="M579.2,465.1c1.8.2,3.8.6,4.5.3.9-.4,7.1-8.2,14-10.1.3.8.5,1.5.8,2.1,1,2-.5,4-.7,5.3-.2,1.3-.7,5.6-.7,5.6h-4.4s0-4.9-.2-4.9c-3,.6-5.7,3.3-6.8,4.4-1.1,1.1-11.2.3-11.7,0-.8-1.3,4.6-2.2,5.1-2.8Z"/>
        <path class="cls-10" d="M608.7,258.4c.6,4.3,3.8,4.9,18,5.1,14.1.2,5.6-15.2,1.1-18.2-4.5-3,.3-25.3-13.7-29.3,0,0,2.9,15.9,2.9,16.3s-.1,1.6-.1,1.6l-1,.3-1.2.4h-1.3l-.4-.9c0,6-18.9,8.4-17.5,16.8,9-4.5,10.3-1,10.8,2.5.4,3.6,0,6.4,2.6,5.3Z"/>
        <path class="cls-31" d="M595.3,250.5c-8.8,3.2-17.8,22.1-22.5,21.8-4.7-.3-15.1-10.4-15.1-10.4l-4.4,4.8c0,7,6.9,31.1,20.1,33,13.2,1.9,26.1-17.9,28.3-29.6,2.8-15.5-6.3-19.7-6.3-19.7Z"/>
      </g>
      <path class="cls-17" d="M336.4,277.3s-5.4,0-6.4-1.3.1-2.3,1.1-2.5c0,0-3.2-1.5-.9-3.1,0,0,.5-.3,1.5-.3,0,0-2.2-.7-1.3-2.3.9-1.6,2.5-.8,2.5-.8,0,0-2.3-1.8-.4-2.4s5.3-.9,6.5,1.1.6,8,.6,8c0,0,.9,2.7-3.1,3.6Z"/>
    </g>
  </g>
</svg>