<svg xmlns="http://www.w3.org/2000/svg" viewBox="0 0 337.23 100"><defs><style>.a{fill:#1a1449;fill-rule:evenodd;}</style></defs><title>logo-bb</title><path class="a" d="M312.6,99.29V97.92l1.91-.48c1.6-.47,1.9-.83,1.9-3.27V75.08c0-2.5-.3-2.68-1.84-3.63l-2.09-1.25v-1l11.19-1.37.53.41-.12,3.93h.3c1.91-2,5.36-4.4,8.57-4.4,2.67,0,4.28,1.43,4.28,4.1a3.65,3.65,0,0,1-3.69,4c-2.5,0-3.21-.89-4.1-2.5-.3-.71-.6-.89-1.13-.89a7.07,7.07,0,0,0-3.93,2V94.17c0,2.68.3,3,1.79,3.27l2.38.48v1.37Zm-24.45.71c-4.81,0-7.85-2.74-7.85-7.85V74.6c0-2.32-.18-2.5-1.72-3.33l-2.2-1.19V69l11.24-1.19.65.53v22c0,3.51,1.49,5.06,4.52,5.06a20.32,20.32,0,0,0,6.55-1.49V74.6c0-2.32-.18-2.56-1.73-3.33l-2.2-1.19V69l11.24-1.19.66.53V92.56c0,2.86.24,3.22,1.84,3.87l2,.89v1.13L300.05,100l-.53-.42.12-3.86h-.3C296.24,97.92,292.5,100,288.15,100Zm-35.93,0c-4.81,0-7.85-2.74-7.85-7.85V74.6c0-2.32-.18-2.5-1.72-3.33l-2.2-1.19V69l11.24-1.19.65.53v22c0,3.51,1.49,5.06,4.52,5.06a20.32,20.32,0,0,0,6.55-1.49V74.6c0-2.32-.18-2.56-1.73-3.33l-2.2-1.19V69l11.24-1.19.66.53V92.56c0,2.86.24,3.22,1.84,3.87l2,.89v1.13L264.12,100l-.53-.42.12-3.86h-.3C260.31,97.92,256.57,100,252.22,100Zm-21.41,0c-4.7,0-7.62-2.08-7.62-7.38V71.74h-3.92v-1.3a15,15,0,0,0,9.34-9.4h2.56v7.61h8.09l-.72,3.09h-7.37V92c0,2.79,1,3.92,3.86,3.92a18.94,18.94,0,0,0,4.46-.65v1.49A13,13,0,0,1,230.81,100Zm-25.76,0a31.85,31.85,0,0,1-9.16-1.31l-.3-9h1.49a33.66,33.66,0,0,0,3.57,5.77c1.19,1.72,2.44,2.44,5.23,2.44,3.1,0,5.42-1.73,5.42-4.64s-2-4.34-7-6.31c-5.24-2-8.63-4.64-8.63-9.57,0-5.6,4.7-9.58,12-9.58A22.65,22.65,0,0,1,215.58,69l.3,7.85h-1.37a23.72,23.72,0,0,0-3.21-4.94c-1.37-1.66-2.56-2-4.58-2-3,0-4.82,1.55-4.82,4.16,0,2.44,1.55,4.11,6.36,6,6.43,2.38,9.52,5.06,9.52,9.64C217.78,95.66,213.14,100,205.05,100ZM179.47,69.84c-3.63,0-6.36,3.15-6.66,10.71l11.6-.6C184.41,72.76,183.4,69.84,179.47,69.84Zm.36,30.16c-10.05,0-15.05-6.31-15.05-16.24s7.26-16,15.05-16,12.73,4.1,12.85,14.87H172.81c.12,9.82,4,12.91,10.05,12.91a19.61,19.61,0,0,0,9-2.32V95A17.44,17.44,0,0,1,179.83,100ZM140.15,76.62H144c4.94,0,7.08-2.56,7.08-7.73,0-6.55-2.2-8.45-7-8.45a19.85,19.85,0,0,0-3.93.36Zm5.18,20.29c4.58,0,7.25-2.38,7.25-8.87s-2.2-9.1-7.91-9.1h-4.52v13.8C140.15,96.43,140.81,96.91,145.33,96.91Zm-18.5,2.38V97.86l2.32-.48c1.6-.29,2.14-.65,2.14-4V64c0-3.39-.54-3.69-2.14-4l-2.32-.48V58.06h17.78c10,0,15.29,2.86,15.29,9.76,0,5.41-3.75,8.33-10.47,9.4v.29c8.15.84,12.55,3.81,12.55,10.18,0,7.55-5.83,11.6-15.7,11.6Zm196.84-53.6a31.85,31.85,0,0,1-9.16-1.31l-.3-9h1.49a34.05,34.05,0,0,0,3.57,5.77c1.19,1.72,2.43,2.43,5.23,2.43,3.09,0,5.41-1.72,5.41-4.64s-2-4.34-7-6.3c-5.23-2-8.62-4.64-8.62-9.58,0-5.59,4.7-9.58,12-9.58a22.93,22.93,0,0,1,7.91,1.19l.29,7.86h-1.36a23.46,23.46,0,0,0-3.22-4.94c-1.36-1.67-2.55-2-4.58-2-3,0-4.81,1.54-4.81,4.16,0,2.44,1.54,4.1,6.36,5.95,6.42,2.38,9.52,5.05,9.52,9.64C336.4,41.34,331.76,45.69,323.67,45.69Zm-29.21-4.11a12.13,12.13,0,0,0,5.83-1.6V18.14a6.91,6.91,0,0,0-5.12-2.44c-5.05,0-8.38,3.34-8.38,13.33C286.79,38.25,289.52,41.58,294.46,41.58Zm-4.22,4.11c-5.77,0-11.66-4-11.66-15,0-12.08,8-17.14,16.89-17.14a18.27,18.27,0,0,1,4.94.66s-.12-2.26-.12-4.4V7.08c0-2.62-.36-2.8-1.78-3.51L296,2.32V1.13L307.9,0l.54.42s-.18,2.67-.18,7.08V38.25c0,2.86.24,3.21,1.85,3.87L312,43v1.13l-11,1.55-.59-.42.12-3.27h-.24A16.16,16.16,0,0,1,290.24,45.69ZM241.7,45V43.6l1.9-.47c1.6-.48,1.9-.83,1.9-3.27V20.76c0-2.5-.3-2.68-1.84-3.63l-2.08-1.25v-1l11.18-1.37.54.36-.12,3.69h.29c3-2.14,7.08-4.05,11.19-4.05,5.41,0,7.85,2.56,7.85,7.92V39.86c0,2.49.36,2.85,1.9,3.27l1.91.47V45H260.91V43.6l1.84-.47c1.55-.42,1.79-.6,1.79-3.27V23.32c0-3.81-1.37-5.06-4.52-5.06a29.25,29.25,0,0,0-6.55,1.07V39.86c0,2.67.24,2.85,1.79,3.27l1.84.47V45Zm-17.85-2.91a4.71,4.71,0,0,0,4.28-2.2V30.28l-3.45.36c-3.39.29-5.47,1.78-5.47,6.12C219.21,40.45,221.05,42.06,223.85,42.06Zm-3.63,3.69c-5.53,0-8.92-2.86-8.92-7.92s4.28-7.31,9.81-8.62l7-1.73V22c0-4.58-.77-6.36-4.76-6.36-2.14,0-2.73.47-2.91,2.2-.3,3-1.13,4.64-4.05,4.64-2.44,0-3.63-1.37-3.63-3.33,0-3.81,5.36-5.66,12.26-5.66,7.26,0,11.06,2.44,11.06,8v17.2c0,2,.36,2.85,1.49,3.45a6.82,6.82,0,0,0,2.8.53V43.9a10.93,10.93,0,0,1-6.19,1.79c-3.27,0-5.12-1.37-5.65-3.57h-.3A10.12,10.12,0,0,1,220.22,45.75ZM193.75,45V43.6l1.9-.47c1.67-.48,2-.83,2-3.27V7.08c0-2.68-.3-2.86-1.85-3.63l-2.32-1.13V1.13L205.23,0l.59.42s-.23,3.09-.23,7.08V39.86c0,2.55.29,2.79,2,3.27l1.9.47V45Zm-36.17,0V43.6l1.9-.47c1.61-.48,1.91-.83,1.91-3.27V20.76c0-2.5-.3-2.68-1.85-3.63l-2.08-1.25v-1l11.19-1.37.53.36-.12,3.69h.3c3-2.14,7.08-4.05,11.18-4.05,5.42,0,7.85,2.56,7.85,7.92V39.86c0,2.49.36,2.85,1.91,3.27l1.9.47V45H176.79V43.6l1.85-.47c1.55-.42,1.78-.6,1.78-3.27V23.32c0-3.81-1.36-5.06-4.52-5.06a29.15,29.15,0,0,0-6.54,1.07V39.86c0,2.67.24,2.85,1.78,3.27l1.85.47V45ZM142.11,15.53c-3.62,0-6.36,3.15-6.66,10.7l11.6-.59C147.05,18.44,146,15.53,142.11,15.53Zm.36,30.16c-10.05,0-15-6.31-15-16.24s7.26-16,15-16,12.73,4.11,12.85,14.88H135.45c.12,9.81,4,12.9,10.05,12.9a19.54,19.54,0,0,0,9.05-2.32v1.79A17.53,17.53,0,0,1,142.47,45.69ZM90.78,45V43.6l1.9-.47c1.61-.48,1.9-.83,1.9-3.27V20.76c0-2.5-.29-2.68-1.84-3.63l-2.08-1.25v-1l11.18-1.37.54.36-.12,3.69h.3c3-2.14,7.07-4.05,11.18-4.05,5.41,0,7.85,2.56,7.85,7.92V39.86c0,2.49.36,2.85,1.9,3.27l1.91.47V45H110V43.6l1.85-.47c1.54-.42,1.78-.6,1.78-3.27V23.32c0-3.81-1.37-5.06-4.52-5.06a29.05,29.05,0,0,0-6.54,1.07V39.86c0,2.67.23,2.85,1.78,3.27l1.84.47V45ZM54.61,45V43.6l1.9-.47c1.61-.48,1.91-.83,1.91-3.27V20.76c0-2.5-.3-2.68-1.85-3.63l-2.08-1.25v-1L65.67,13.5l.54.36-.12,3.69h.3c3-2.14,7.08-4.05,11.18-4.05,5.41,0,7.85,2.56,7.85,7.92V39.86c0,2.49.36,2.85,1.91,3.27l1.9.47V45H73.82V43.6l1.85-.47c1.54-.42,1.78-.6,1.78-3.27V23.32c0-3.81-1.37-5.06-4.52-5.06a29.05,29.05,0,0,0-6.54,1.07V39.86c0,2.67.24,2.85,1.78,3.27L70,43.6V45ZM45,9.87a4.42,4.42,0,0,1-4.58-4.34,4.56,4.56,0,0,1,9.1,0A4.4,4.4,0,0,1,45,9.87ZM37.48,45V43.6l1.9-.47c1.61-.48,1.9-.83,1.9-3.27V20.76c0-2.5-.29-2.68-1.84-3.63l-2.08-1.25v-1L49,13.5l.53.36c-.06,1.07-.23,3.39-.23,6.31V39.86c0,2.55.29,2.85,1.9,3.27l1.9.47V45ZM13.33,22.31h3.86c4.94,0,7.08-2.56,7.08-7.74,0-6.54-2.2-8.44-7-8.44a20.77,20.77,0,0,0-3.92.35ZM18.5,42.59c4.58,0,7.26-2.38,7.26-8.86s-2.2-9.1-7.91-9.1H13.33v13.8C13.33,42.12,14,42.59,18.5,42.59ZM0,45V43.54l2.32-.47c1.61-.3,2.14-.66,2.14-4V9.7c0-3.39-.53-3.69-2.14-4L0,5.18V3.75H17.79c10,0,15.28,2.85,15.28,9.75,0,5.42-3.74,8.33-10.46,9.4v.3C30.75,24,35.16,27,35.16,33.37c0,7.56-5.83,11.6-15.71,11.6Z"/></svg>