<svg width="180" height="54" viewBox="0 0 180 54" xmlns="http://www.w3.org/2000/svg" xmlns:xlink="http://www.w3.org/1999/xlink"><defs><path id="a" d="M54.82.234H.023v26.27h109.594V.235H54.82z"/><path id="c" d="M.023.124v35.435h29.203V.124z"/></defs><g fill="#1479bd" fill-rule="evenodd"><path d="M49.607 32.888H47.58l-1.542 8.603h-.019l-2.555-8.603h-2.23l-2.535 8.603h-.021l-1.662-8.82-2.129.376 2.535 11.83h2.108l2.717-8.922h.021l2.716 8.923h2.13l2.493-11.99zm7.969 9.899c-.709.318-1.237.538-2.108.538-1.846 0-2.677-.997-2.739-3.128h5.455v-1.115c0-2.15-.911-3.784-3.365-3.784-2.475 0-4.096 1.931-4.096 4.8 0 3.126 1.418 5.018 4.419 5.018 1.217 0 2.13-.259 3.122-.756l-.688-1.573zm-4.785-3.904c.162-1.116.811-1.972 1.945-1.972 1.135 0 1.603.776 1.603 1.972H52.79zm12.956 4.063c-.384.179-.69.338-1.178.338-.89 0-1.216-.338-1.216-1.592V37.13h2.636v-1.613h-2.636v-1.872l-2.047.24v1.592l-1.438.3v1.353h1.438v5.159c0 1.733.914 2.787 2.595 2.787 1.156 0 1.743-.238 2.453-.617l-.607-1.513zm11.293-6.094v-1.574l-2.98.439c-.547-.3-1.197-.459-1.967-.459-2.15 0-3.488 1.354-3.488 3.186 0 1.136.488 2.092 1.378 2.65a3.012 3.012 0 0 0-.627.457c-.305.32-.608.777-.608 1.395 0 .696.284 1.115.708 1.414-.243.139-.445.32-.628.537-.303.38-.607.897-.607 1.673 0 1.674 1.215 2.569 3.345 2.569 3.57 0 5.393-2.17 5.393-4.063 0-1.434-.912-1.991-2.614-1.991h-2.84c-.548 0-.953-.12-.953-.657 0-.3.1-.518.244-.677a.95.95 0 0 1 .263-.22c.325.061.65.12 1.034.12 2.15 0 3.468-1.394 3.468-3.207 0-.577-.123-1.115-.386-1.592h1.865zm-1.865 8.623c0 .936-1.196 2.091-3.306 2.091-1.278 0-1.905-.498-1.905-1.474 0-.418.143-.776.305-.996.08-.139.181-.239.303-.338.143.02.264.04.407.04h2.94c.79 0 1.256.14 1.256.677zm-1.502-7.011c0 1.116-.669 1.713-1.58 1.713-.954 0-1.582-.577-1.582-1.713 0-1.115.689-1.732 1.582-1.732.952 0 1.58.597 1.58 1.732zm11.965 4.323c-.711.318-1.238.538-2.109.538-1.845 0-2.677-.997-2.738-3.128h5.454v-1.115c0-2.15-.911-3.784-3.365-3.784-2.475 0-4.096 1.931-4.096 4.8 0 3.126 1.42 5.018 4.42 5.018 1.217 0 2.13-.259 3.121-.756l-.687-1.573zm-4.786-3.904c.162-1.116.81-1.972 1.946-1.972s1.602.776 1.602 1.972h-3.548zm15.47-3.366h-2.028l-2.372 6.831h-.02l-2.17-7.11-2.047.479 3.121 9.26 2.028-.159 3.488-9.301zm4.441-2.53c0-.776-.629-1.353-1.38-1.353-.75 0-1.378.577-1.378 1.353 0 .777.627 1.354 1.378 1.354.751 0 1.38-.577 1.38-1.354zm-.366 11.89v-9.54l-2.352.28.306 2.19v7.07h2.046zm10.95 0v-6.612c0-2.01-1.278-2.987-2.92-2.987-1.218 0-2.17.498-2.8 1.116h-.02l-.141-1.056-2.008.279.305 2.19v7.07h2.048v-7.03c.487-.457 1.096-.797 1.905-.797 1.116 0 1.582.598 1.582 1.813v6.015h2.048zm11.13-8.025v-1.574l-2.98.439c-.548-.3-1.198-.459-1.967-.459-2.15 0-3.488 1.354-3.488 3.186 0 1.136.488 2.092 1.378 2.65a3.02 3.02 0 0 0-.628.457c-.304.32-.608.777-.608 1.395 0 .696.285 1.115.71 1.414a2.32 2.32 0 0 0-.628.537c-.305.38-.608.897-.608 1.673 0 1.674 1.217 2.569 3.345 2.569 3.568 0 5.392-2.17 5.392-4.063 0-1.434-.912-1.991-2.614-1.991h-2.838c-.548 0-.954-.12-.954-.657 0-.3.101-.518.243-.677a.996.996 0 0 1 .263-.22c.325.061.649.12 1.035.12 2.148 0 3.467-1.394 3.467-3.207 0-.577-.121-1.115-.385-1.592h1.865zm-1.865 8.623c0 .936-1.196 2.091-3.304 2.091-1.28 0-1.908-.498-1.908-1.474 0-.418.144-.776.305-.996.081-.139.181-.239.302-.338.146.02.267.04.408.04h2.94c.79 0 1.257.14 1.257.677zm-1.501-7.011c0 1.116-.67 1.713-1.58 1.713-.954 0-1.584-.577-1.584-1.713 0-1.115.69-1.732 1.583-1.732.95 0 1.58.597 1.58 1.732z" fill="#1479bd"/><mask id="b" fill="#1479bd"><use xlink:href="#a"/></mask><path d="M41.175 26.216l-2.506-7.438h-1.1l-2.676 7.564h1.127l.78-2.45h2.508l.819 2.613 1.048-.289zm-2.098-3.078h-2.048l1.038-3.267h.013l.997 3.267zm7.344-2.564a3.783 3.783 0 0 0-1.395-.25c-1.522 0-2.876.99-2.876 3.153 0 1.81.893 3.003 2.595 3.003.575 0 1.126-.112 1.625-.338l-.345-.816c-.345.138-.665.276-1.075.276-1.164 0-1.78-.717-1.78-2.288 0-1.258.679-2.075 1.805-2.075.423 0 .781.1 1.126.238l.32-.903zm5.72 5.706l-.193-1.295v-2.802c0-1.169-.792-1.86-2.006-1.86-.77 0-1.308.201-1.857.515l.371.74c.395-.188.742-.338 1.24-.338.975 0 1.243.578 1.243 1.395v.527l-1.075.115c-1.23.137-2.059.64-2.059 1.697 0 .941.575 1.52 1.584 1.52.719 0 1.18-.34 1.628-.742h.011l.091.69 1.022-.162zm-1.202-1.156c-.345.29-.705.541-1.305.541-.513 0-.82-.327-.82-.818 0-.54.422-.78 1.19-.88l.935-.125v1.282zm7.689 1.18l-.179-1.294v-7.25l-1.203.163.193 1.294v1.27c-.218-.063-.486-.088-.832-.088-1.832 0-2.879 1.243-2.879 3.267 0 1.76.869 2.814 2.2 2.814.718 0 1.216-.314 1.614-.627h.012l.09.59.984-.138zm-1.19-1.142c-.305.238-.653.44-1.15.44-1.128 0-1.513-.83-1.513-2.25 0-1.12.577-2.113 1.742-2.113.448 0 .666.064.922.163v3.76zm6.859.075c-.448.213-.818.352-1.318.352-1.319 0-1.883-.754-1.895-2.326h3.52v-.703c0-1.295-.589-2.237-2.035-2.237-1.511 0-2.481 1.218-2.481 3.04 0 1.962.894 3.117 2.674 3.117.73 0 1.318-.138 1.892-.452l-.357-.791zm-3.162-2.677c.14-.855.616-1.433 1.383-1.433.805 0 1.127.54 1.127 1.433h-2.51zm13.281 3.782v-4.173c0-1.205-.778-1.846-1.802-1.846-.858 0-1.46.377-1.933.84h-.013c-.306-.539-.868-.84-1.573-.84-.755 0-1.333.29-1.78.728h-.011l-.103-.69-1.012.163.181 1.294v4.524h1.022v-4.563c.37-.338.781-.565 1.357-.565.82 0 1.139.44 1.139 1.308v3.82h1.022v-4.097c0-.113-.013-.214-.025-.302-.012-.038-.012-.088-.012-.138.32-.314.806-.59 1.383-.59.818 0 1.151.439 1.151 1.307v3.82h1.01zm3.506-7.415a.724.724 0 0 0-.727-.728.728.728 0 1 0 0 1.457.724.724 0 0 0 .727-.729zm-.229 7.415V20.36l-1.203.162.18 1.295v4.524h1.023zm6.039-1.105c-.447.213-.818.352-1.316.352-1.32 0-1.883-.754-1.896-2.326h3.519v-.703c0-1.295-.587-2.237-2.034-2.237-1.51 0-2.481 1.218-2.481 3.04 0 1.962.894 3.117 2.674 3.117.73 0 1.317-.138 1.892-.452l-.358-.791zm-3.16-2.677c.14-.855.614-1.433 1.382-1.433.807 0 1.126.54 1.126 1.433h-2.508zm12.423-2.098h-1.022l-1.6 4.572h-.012L88.875 20.3l-1.023.25 1.97 5.819 1.012-.04 2.161-5.866zm5.848 2.939c0-1.76-.665-3.078-2.559-3.078-1.727 0-2.56 1.356-2.56 3.078 0 1.761.667 3.08 2.56 3.08 1.728 0 2.559-1.357 2.559-3.08zm-1.048.025c0 1.497-.525 2.176-1.511 2.176-1.023 0-1.51-.767-1.51-2.238 0-1.496.524-2.162 1.51-2.162 1.023 0 1.51.754 1.51 2.224zm7.38-.025c0-1.76-.663-3.078-2.557-3.078-1.728 0-2.558 1.356-2.558 3.078 0 1.761.664 3.08 2.558 3.08 1.728 0 2.558-1.357 2.558-3.08zm-1.048.025c0 1.497-.524 2.176-1.509 2.176-1.025 0-1.51-.767-1.51-2.238 0-1.496.525-2.162 1.51-2.162 1.025 0 1.51.754 1.51 2.224zm5.49-3.09c-.807 0-1.333.375-1.741.828h-.013l-.1-.803-1.012.163.18 1.294v4.524h1.023v-4.425c.46-.414.958-.59 1.663-.59v-.991zM28.8 9.359L0 .234V11.5h26.794c1.352 0 2.298-1.304 2.298-1.304s.439-.605-.293-.837m-3.605 6.547v-2.142c0-.724-.775-.724-.775-.724H.001v3.59H24.42c.775 0 .775-.724.775-.724" fill="#1479bd" mask="url(#b)"/><path d="M19.912 18.477c-.736 0-.736.723-.736.723v23.1c0 .724.736.724.736.724h2.442c.736 0 .736-.724.736-.724V19.2c0-.723-.736-.723-.736-.723h-2.442m-17.152 0c-.734 0-.734.723-.734.723v23.1c0 .724.735.724.735.724h2.442c.736 0 .736-.724.736-.724V19.2c0-.723-.736-.723-.736-.723H2.76" fill="#1479bd"/><g transform="translate(0 18.353)"><mask id="d" fill="#1479bd"><use xlink:href="#c"/></mask><path d="M11.435.124c-.738 0-.738.723-.738.723V23.95c0 .724.738.724.738.724h2.44c.737 0 .737-.724.737-.724V.847c0-.723-.736-.723-.736-.723h-2.44M26.98 29.408v-2.143c0-.723-.772-.723-.772-.723H0v3.59h26.208c.771 0 .771-.724.771-.724m2.247 5.45v-2.142c0-.723-.77-.723-.77-.723H.001v3.588h28.455c.77 0 .77-.723.77-.723" fill="#1479bd" mask="url(#d)"/></g></g></svg>