<svg id="Calque_1" data-name="Calque 1" xmlns="http://www.w3.org/2000/svg" viewBox="0 0 339.221 246.649"><defs><style>.cls-1{fill:#000000;}</style></defs><path class="cls-1" d="M142.477,143.325a58.316,58.316,0,1,0,0-116.631Z" transform="translate(-31.276 -26.675)"/><rect class="cls-1" x="80.76" y="116.649" width="30.441" height="30.441"/><path class="cls-1" d="M312,143.325a58.316,58.316,0,1,0,0-116.631Z" transform="translate(-31.276 -26.675)"/><rect class="cls-1" x="250.283" y="116.649" width="30.441" height="30.441"/><path class="cls-1" d="M208.013,173.766a73.546,73.546,0,1,0,0-147.091Z" transform="translate(-31.276 -26.675)"/><path class="cls-1" d="M104.821,26.675a73.546,73.546,0,0,0,0,147.091Z" transform="translate(-31.276 -26.675)"/><path class="cls-1" d="M36.08,220.323a31,31,0,0,1,12.1-12.238A35.1,35.1,0,0,1,65.761,203.7q12.047,0,20.622,6.36A30.535,30.535,0,0,1,97.85,227.406H79.733A14.644,14.644,0,0,0,74,220.949a16.129,16.129,0,0,0-8.432-2.216,15.74,15.74,0,0,0-12.334,5.3q-4.724,5.3-4.722,14.166t4.722,14.166a15.736,15.736,0,0,0,12.334,5.3A16.11,16.11,0,0,0,74,255.448a14.62,14.62,0,0,0,5.733-6.456H97.85a30.307,30.307,0,0,1-11.467,17.3Q77.8,272.6,65.761,272.6a35.094,35.094,0,0,1-17.586-4.384A31.079,31.079,0,0,1,36.08,256.026a38.916,38.916,0,0,1,0-35.7Z" transform="translate(-31.276 -26.675)"/><path class="cls-1" d="M151.949,236.994a19.834,19.834,0,0,1-8.288,7.854q-5.589,2.988-13.876,2.988H119.571v24.283H103.093V204.471h26.692a30.379,30.379,0,0,1,13.684,2.795,19.22,19.22,0,0,1,8.384,7.709,22.4,22.4,0,0,1,2.794,11.275A21.786,21.786,0,0,1,151.949,236.994Zm-16.382-4.481a9.637,9.637,0,0,0,0-12.527q-2.313-2.216-7.034-2.217h-8.962v16.96h8.962Q133.252,234.729,135.567,232.513Z" transform="translate(-31.276 -26.675)"/><path class="cls-1" d="M203.928,208.711a30.307,30.307,0,0,1,12.382,11.9,37.75,37.75,0,0,1,0,35.318,30.122,30.122,0,0,1-12.43,11.949,39.408,39.408,0,0,1-18.647,4.24H159.89V204.471h25.343A39.359,39.359,0,0,1,203.928,208.711Zm-5.2,44.039q5.2-5.106,5.2-14.455t-5.2-14.551q-5.205-5.205-14.552-5.2h-7.805v39.317h7.805Q193.518,257.857,198.725,252.75Z" transform="translate(-31.276 -26.675)"/><path class="cls-1" d="M274.794,236.994a19.834,19.834,0,0,1-8.288,7.854q-5.59,2.988-13.876,2.988H242.416v24.283H225.937V204.471H252.63a30.372,30.372,0,0,1,13.683,2.795,19.217,19.217,0,0,1,8.385,7.709,22.4,22.4,0,0,1,2.794,11.275A21.786,21.786,0,0,1,274.794,236.994Zm-16.382-4.481a9.637,9.637,0,0,0,0-12.527q-2.313-2.216-7.034-2.217h-8.962v16.96h8.962Q256.1,234.729,258.412,232.513Z" transform="translate(-31.276 -26.675)"/><rect class="cls-1" x="324.27" y="177.796" width="14.839" height="14.839"/><path class="cls-1" d="M301.618,234.938a21.207,21.207,0,0,1,7.737-8.745,20.215,20.215,0,0,1,10.93-3.06,18.784,18.784,0,0,1,9.051,2.1,15.482,15.482,0,0,1,5.989,5.509v-6.908h14.951v48.792H335.325v-6.908a16.165,16.165,0,0,1-6.078,5.508,18.76,18.76,0,0,1-9.049,2.1,19.835,19.835,0,0,1-10.843-3.1,21.424,21.424,0,0,1-7.737-8.833,32.179,32.179,0,0,1,0-26.449Zm30.6,4.459a10.509,10.509,0,0,0-15.127-.044q-3.1,3.195-3.1,8.789t3.1,8.875a10.413,10.413,0,0,0,15.127.044q3.1-3.235,3.1-8.832T332.221,239.4Z" transform="translate(-31.276 -26.675)"/><rect class="cls-1" x="324.27" y="197.157" width="14.951" height="48.792"/><rect class="cls-1" x="247.249" y="213.76" width="14.982" height="14.982"/></svg>