<?xml version="1.0" encoding="UTF-8"?>
<svg width="228px" height="41px" viewBox="0 0 228 41" version="1.1" xmlns="http://www.w3.org/2000/svg" xmlns:xlink="http://www.w3.org/1999/xlink">
    <!-- Generator: Sketch 48.2 (47327) - http://www.bohemiancoding.com/sketch -->
    <title>pianoo-logo</title>
    <desc>Created with Sketch.</desc>
    <defs>
        <polygon id="path-1" points="0 0.0899821958 227.827478 0.0899821958 227.827478 40.5528783 0 40.5528783"></polygon>
        <polygon id="path-3" points="0 0.0899821958 227.827478 0.0899821958 227.827478 40.5528783 0 40.5528783"></polygon>
    </defs>
    <g id="Page-1" stroke="none" stroke-width="1" fill="none" fill-rule="evenodd">
        <g id="pianoo-logo">
            <g id="Group-4">
                <g id="Fill-1-Clipped">
                    <mask id="mask-2" fill="white">
                        <use xlink:href="#path-1"></use>
                    </mask>
                    <g id="path-1"></g>
                    <polyline id="Fill-1" fill="#EB8F2D" fill-rule="nonzero" mask="url(#mask-2)" points="90.2074896 30.1115608 90.2074896 37.0753709 3.51742433 37.0753709 3.51742433 3.60808309 90.2074896 3.60808309 90.2074896 10.610457 93.7255905 10.1185994 93.7255905 0.0899821958 0 0.0899821958 0 40.5934718 93.7255905 40.5934718 93.7255905 30.3875964 90.2074896 30.1115608"></polyline>
                </g>
                <g id="Fill-3-Clipped">
                    <mask id="mask-4" fill="white">
                        <use xlink:href="#path-3"></use>
                    </mask>
                    <g id="path-1"></g>
                    <polyline id="Fill-3" fill="#EB8F2D" fill-rule="nonzero" mask="url(#mask-4)" points="95.772178 37.0753709 224.309377 37.0753709 224.309377 3.60808309 95.772178 3.60808309 95.772178 0.0899821958 227.827478 0.0899821958 227.827478 40.5934718 95.772178 40.5934718 95.772178 37.0753709"></polyline>
                </g>
            </g>
            <path d="M10.1991098,9.1071454 L16.6886528,9.1071454 C22.5036677,9.1071454 24.8161424,11.7700772 24.8161424,15.9579703 C24.8161424,20.5687122 21.0253887,22.776997 16.7211276,22.776997 L14.4086528,22.776997 L14.4079763,31.5763086 L10.1991098,31.5763086 L10.1991098,9.1071454 Z M16.591905,19.4002967 C18.8089852,19.4002967 20.5112047,18.0363561 20.5112047,15.9261721 C20.5112047,14.5622315 19.7406053,12.4838457 16.7529258,12.4838457 L14.4086528,12.4838457 L14.4086528,19.4002967 L16.591905,19.4002967 Z" id="Fill-5" fill="#EB8F2D" fill-rule="nonzero"></path>
            <polyline id="Fill-6" fill="#EB8F2D" fill-rule="nonzero" points="27.9330445 9.1071454 32.0444866 9.1071454 32.0444866 31.5763086 27.932368 31.5763086"></polyline>
            <path d="M39.0867774,31.575632 L34.8576142,31.575632 L43.4032166,9.1071454 L47.1939703,9.1071454 L55.1293175,31.575632 L50.9441306,31.575632 L48.6350386,25.6016261 L41.5392997,25.6016261 L39.0867774,31.575632 Z M45.2346588,14.1353234 L45.1710623,14.1353234 L42.3755252,22.2249258 L47.8055786,22.2249258 L45.2346588,14.1353234 Z" id="Fill-7" fill="#EB8F2D" fill-rule="nonzero"></path>
            <polyline id="Fill-8" fill="#EB8F2D" fill-rule="nonzero" points="57.8795252 9.1071454 61.9916439 9.1071454 71.8545045 24.5083086 71.8545045 25.8614243 71.8545045 9.1071454 75.9970682 9.1071454 75.9977448 31.575632 71.8538279 31.575632 61.9916439 16.2725697 61.9916439 14.9844036 61.9909674 31.5763086 57.8788487 31.5763086"></polyline>
            <path d="M123.235691,20.3413887 C123.235691,24.5779941 119.801484,28.0122018 115.564878,28.0122018 C111.327596,28.0122018 107.893389,24.5779941 107.893389,20.3413887 C107.893389,16.1047834 111.327596,12.6705757 115.564878,12.6705757 C119.801484,12.6705757 123.235691,16.1047834 123.235691,20.3413887" id="Fill-9" fill="#EB8F2D" fill-rule="nonzero"></path>
            <path d="M91.9672166,28.0128783 C87.7292582,28.0128783 84.295727,24.5786706 84.295727,20.3420653 C84.295727,16.1047834 87.7292582,12.6705757 91.9672166,12.6705757 C96.203822,12.6705757 99.6373531,16.1047834 99.6373531,20.3420653 C99.6373531,24.5786706 96.203822,28.0128783 91.9672166,28.0128783 M91.9672166,8.83449258 C85.6123086,8.83449258 80.4603205,13.9871573 80.4603205,20.3420653 C80.4603205,26.6962967 85.6123086,31.8482849 91.9672166,31.8482849 C98.3221246,31.8482849 103.473436,26.6962967 103.473436,20.3420653 C103.473436,13.9871573 98.3221246,8.83449258 91.9672166,8.83449258" id="Fill-10" fill="#EB8F2D" fill-rule="nonzero"></path>
            <polyline id="Fill-11" fill="#EB8F2D" fill-rule="nonzero" points="128.419478 11.283632 132.323217 11.283632 132.323217 12.3262077 129.745531 12.3262077 129.745531 13.9560356 132.105365 13.9560356 132.105365 14.9986113 129.745531 14.9986113 129.745531 16.8557626 132.34216 16.8557626 132.34216 17.8983383 128.419478 17.8983383 128.419478 11.283632"></polyline>
            <polyline id="Fill-12" fill="#EB8F2D" fill-rule="nonzero" points="135.183027 14.4580415 133.211537 11.283632 134.747323 11.283632 136.130208 13.6434659 137.542184 11.283632 138.964309 11.283632 136.973875 14.4580415 139.144273 17.8983383 137.580748 17.8983383 136.05511 15.3206528 134.509852 17.8983383 133.012629 17.8983383 135.183027 14.4580415"></polyline>
            <path d="M141.21657,14.3443798 L141.680688,14.3443798 C142.343715,14.3443798 142.941116,14.1265282 142.941116,13.3593116 C142.941116,12.5914184 142.362659,12.3262077 141.680688,12.3262077 L141.21657,12.3262077 L141.21657,14.3443798 Z M139.889163,11.283632 L141.567027,11.283632 C143.007418,11.283632 144.324677,11.7003917 144.324677,13.2828605 C144.324677,14.8281187 143.196855,15.3869555 141.775407,15.3869555 L141.21657,15.3869555 L141.21657,17.8983383 L139.889163,17.8983383 L139.889163,11.283632 Z" id="Fill-13" fill="#EB8F2D" fill-rule="nonzero"></path>
            <polyline id="Fill-14" fill="#EB8F2D" fill-rule="nonzero" points="145.269151 11.283632 149.173567 11.283632 149.173567 12.3262077 146.595881 12.3262077 146.595881 13.9560356 148.955715 13.9560356 148.955715 14.9986113 146.595881 14.9986113 146.595881 16.8557626 149.19251 16.8557626 149.19251 17.8983383 145.269151 17.8983383 145.269151 11.283632"></polyline>
            <path d="M151.748546,14.1075846 L152.184249,14.1075846 C152.838481,14.1075846 153.58743,14.0128665 153.58743,13.1881424 C153.58743,12.3925104 152.847953,12.3262077 152.184249,12.3262077 L151.748546,12.3262077 L151.748546,14.1075846 Z M150.421816,11.283632 L151.852736,11.283632 C153.274184,11.283632 154.970991,11.236273 154.970991,13.0744807 C154.970991,13.8518457 154.450042,14.4959288 153.606374,14.6095905 L153.606374,14.6292107 C153.966303,14.6576261 154.174682,15.0175549 154.307288,15.311181 L155.368807,17.8983383 L153.890528,17.8983383 L153.09422,15.8321306 C152.904783,15.3395964 152.734291,15.1501602 152.175454,15.1501602 L151.748546,15.1501602 L151.748546,17.8983383 L150.421816,17.8983383 L150.421816,11.283632 Z" id="Fill-15" fill="#EB8F2D" fill-rule="nonzero"></path>
            <polyline id="Fill-16" fill="#EB8F2D" fill-rule="nonzero" points="157.355858 12.3262077 155.460819 12.3262077 155.460819 11.283632 160.578303 11.283632 160.578303 12.3262077 158.682588 12.3262077 158.682588 17.8983383 157.355858 17.8983383 157.355858 12.3262077"></polyline>
            <polygon id="Fill-17" fill="#EB8F2D" fill-rule="nonzero" points="161.304926 17.8983383 162.631656 17.8983383 162.631656 11.283632 161.304926 11.283632"></polygon>
            <path d="M167.605709,12.4967003 C167.18895,12.3167359 166.724831,12.212546 166.260036,12.212546 C165.805389,12.212546 165.21746,12.411454 165.21746,13.1313116 C165.21746,14.2780772 168.117864,13.7950148 168.117864,16.012095 C168.117864,17.462635 166.970421,18.012 165.634896,18.012 C164.914362,18.012 164.59232,17.9172819 163.938089,17.7562611 L164.061223,16.5621365 C164.516546,16.8084036 165.037496,16.9701009 165.559122,16.9701009 C166.061128,16.9701009 166.733626,16.7136855 166.733626,16.1169614 C166.733626,14.8558576 163.833899,15.3774837 163.833899,13.1881424 C163.833899,11.7098635 164.980665,11.1699703 166.146374,11.1699703 C166.715359,11.1699703 167.24578,11.2457448 167.728843,11.4067656 L167.605709,12.4967003" id="Fill-18" fill="#EB8F2D" fill-rule="nonzero"></path>
            <polyline id="Fill-19" fill="#EB8F2D" fill-rule="nonzero" points="169.318077 11.283632 173.222493 11.283632 173.222493 12.3262077 170.644807 12.3262077 170.644807 13.9560356 173.004641 13.9560356 173.004641 14.9986113 170.644807 14.9986113 170.644807 16.8557626 173.241436 16.8557626 173.241436 17.8983383 169.318077 17.8983383 169.318077 11.283632"></polyline>
            <path d="M179.398789,17.8036202 C178.915727,17.9172819 178.394101,18.012 177.892095,18.012 C175.750113,18.012 174.262362,16.9410089 174.262362,14.7043086 C174.262362,12.4398694 175.645923,11.1699703 177.892095,11.1699703 C178.327798,11.1699703 178.906255,11.2552166 179.389318,11.4446528 L179.294599,12.563003 C178.792593,12.2781721 178.33727,12.212546 177.86368,12.212546 C176.499062,12.212546 175.645923,13.2544451 175.645923,14.6095905 C175.645923,15.9552641 176.480119,16.9701009 177.892095,16.9701009 C178.413045,16.9701009 179.029389,16.8557626 179.341958,16.6947418 L179.398789,17.8036202" id="Fill-20" fill="#EB8F2D" fill-rule="nonzero"></path>
            <polyline id="Fill-21" fill="#EB8F2D" fill-rule="nonzero" points="180.37168 11.283632 184.276095 11.283632 184.276095 12.3262077 181.698409 12.3262077 181.698409 13.9560356 184.058243 13.9560356 184.058243 14.9986113 181.698409 14.9986113 181.698409 16.8557626 184.295039 16.8557626 184.295039 17.8983383 180.37168 17.8983383 180.37168 11.283632"></polyline>
            <polyline id="Fill-22" fill="#EB8F2D" fill-rule="nonzero" points="185.571703 11.283632 187.201531 11.283632 189.722386 16.2306231 189.741329 16.2306231 189.741329 11.283632 191.011905 11.283632 191.011905 17.8983383 189.390872 17.8983383 186.860546 12.9513472 186.841602 12.9513472 186.841602 17.8983383 185.571703 17.8983383 185.571703 11.283632"></polyline>
            <polyline id="Fill-23" fill="#EB8F2D" fill-rule="nonzero" points="193.680249 12.3262077 191.784534 12.3262077 191.784534 11.283632 196.902694 11.283632 196.902694 12.3262077 195.006979 12.3262077 195.006979 17.8983383 193.680249 17.8983383 193.680249 12.3262077"></polyline>
            <path d="M198.956047,14.1075846 L199.391751,14.1075846 C200.045982,14.1075846 200.794255,14.0128665 200.794255,13.1881424 C200.794255,12.3925104 200.054777,12.3262077 199.391751,12.3262077 L198.956047,12.3262077 L198.956047,14.1075846 Z M197.628641,11.283632 L199.060237,11.283632 C200.481685,11.283632 202.177816,11.236273 202.177816,13.0744807 C202.177816,13.8518457 201.656866,14.4959288 200.813199,14.6095905 L200.813199,14.6292107 C201.173804,14.6576261 201.382184,15.0175549 201.514789,15.311181 L202.575632,17.8983383 L201.097353,17.8983383 L200.301721,15.8321306 C200.112285,15.3395964 199.941116,15.1501602 199.382279,15.1501602 L198.956047,15.1501602 L198.956047,17.8983383 L197.628641,17.8983383 L197.628641,11.283632 Z" id="Fill-24" fill="#EB8F2D" fill-rule="nonzero"></path>
            <path d="M203.482896,11.283632 L204.809626,11.283632 L204.809626,15.1028012 C204.809626,16.2306231 205.169555,16.9701009 206.183715,16.9701009 C207.197875,16.9701009 207.557804,16.2306231 207.557804,15.1028012 L207.557804,11.283632 L208.884534,11.283632 L208.884534,15.510089 C208.884534,17.2819941 207.879846,18.012 206.183715,18.012 C204.487585,18.012 203.482896,17.2819941 203.482896,15.510089 L203.482896,11.283632" id="Fill-25" fill="#EB8F2D" fill-rule="nonzero"></path>
            <polyline id="Fill-26" fill="#EB8F2D" fill-rule="nonzero" points="210.368902 11.283632 212.491941 11.283632 214.064938 16.2969258 214.083881 16.2969258 215.656878 11.283632 217.779917 11.283632 217.779917 17.8983383 216.510018 17.8983383 216.510018 12.4398694 216.491074 12.4398694 214.709021 17.8983383 213.439122 17.8983383 211.657745 12.4398694 211.638801 12.4581365 211.638801 17.8983383 210.368902 17.8983383 210.368902 11.283632"></polyline>
            <path d="M131.043846,24.1118457 L131.025579,24.1118457 L130.068249,26.8410801 L132.001175,26.8410801 L131.043846,24.1118457 Z M130.314516,22.7851157 L131.811739,22.7851157 L134.408368,29.399822 L132.939561,29.399822 L132.370576,27.8836558 L129.6887,27.8836558 L129.11092,29.399822 L127.736831,29.399822 L130.314516,22.7851157 Z" id="Fill-27" fill="#EB8F2D" fill-rule="nonzero"></path>
            <path d="M137.882493,24.1118457 L137.863549,24.1118457 L136.90622,26.8410801 L138.839822,26.8410801 L137.882493,24.1118457 Z M137.153163,22.7851157 L138.650386,22.7851157 L141.247015,29.399822 L139.778208,29.399822 L139.209223,27.8836558 L136.527347,27.8836558 L135.949567,29.399822 L134.575478,29.399822 L137.153163,22.7851157 Z" id="Fill-28" fill="#EB8F2D" fill-rule="nonzero"></path>
            <polyline id="Fill-29" fill="#EB8F2D" fill-rule="nonzero" points="142.029792 22.7851157 143.65962 22.7851157 146.180475 27.7321068 146.199418 27.7321068 146.199418 22.7851157 147.469318 22.7851157 147.469318 29.399822 145.848961 29.399822 143.317958 24.4528309 143.299691 24.4528309 143.299691 29.399822 142.029792 29.399822 142.029792 22.7851157"></polyline>
            <path d="M150.261472,28.3572463 L150.886611,28.3572463 C151.502955,28.3572463 152.251228,28.2056973 152.251228,27.4384807 C152.251228,26.5758694 151.549638,26.4432641 150.886611,26.4432641 L150.261472,26.4432641 L150.261472,28.3572463 Z M150.261472,25.4575193 L150.801365,25.4575193 C151.360878,25.4575193 152.05232,25.3343858 152.05232,24.6517389 C152.05232,23.8845223 151.379822,23.8276914 150.77295,23.8276914 L150.261472,23.8276914 L150.261472,25.4575193 Z M148.934742,22.7851157 L151.24654,22.7851157 C152.09968,22.7851157 153.37905,23.0313828 153.37905,24.4812463 C153.37905,25.2680831 152.848629,25.8174481 152.061792,25.9595252 L152.061792,25.9784688 C152.962291,26.0637151 153.578635,26.6705875 153.578635,27.4851632 C153.578635,29.1535549 152.080736,29.399822 151.24654,29.399822 L148.934742,29.399822 L148.934742,22.7851157 Z" id="Fill-30" fill="#EB8F2D" fill-rule="nonzero"></path>
            <polyline id="Fill-31" fill="#EB8F2D" fill-rule="nonzero" points="154.722018 22.7851157 158.626433 22.7851157 158.626433 23.8276914 156.048748 23.8276914 156.048748 25.4575193 158.408582 25.4575193 158.408582 26.500095 156.048748 26.500095 156.048748 28.3572463 158.645377 28.3572463 158.645377 29.399822 154.722018 29.399822 154.722018 22.7851157"></polyline>
            <path d="M163.541626,23.998184 C163.124866,23.8182196 162.660748,23.7140297 162.195953,23.7140297 C161.741306,23.7140297 161.153377,23.9129377 161.153377,24.6327953 C161.153377,25.7795608 164.05378,25.2964985 164.05378,27.5135786 C164.05378,28.9641187 162.907015,29.5134837 161.570813,29.5134837 C160.850279,29.5134837 160.528237,29.4187656 159.874006,29.2577448 L159.997139,28.0636202 C160.452463,28.3098872 160.973412,28.4715846 161.495039,28.4715846 C161.997045,28.4715846 162.67022,28.2151691 162.67022,27.6184451 C162.67022,26.3573412 159.769816,26.8789674 159.769816,24.6896261 C159.769816,23.2113472 160.916582,22.671454 162.082291,22.671454 C162.651276,22.671454 163.181697,22.7472285 163.66476,22.9082493 L163.541626,23.998184" id="Fill-32" fill="#EB8F2D" fill-rule="nonzero"></path>
            <polyline id="Fill-33" fill="#EB8F2D" fill-rule="nonzero" points="166.458267 23.8276914 164.562552 23.8276914 164.562552 22.7851157 169.680036 22.7851157 169.680036 23.8276914 167.784997 23.8276914 167.784997 29.399822 166.458267 29.399822 166.458267 23.8276914"></polyline>
            <polyline id="Fill-34" fill="#EB8F2D" fill-rule="nonzero" points="170.520997 22.7851157 174.425412 22.7851157 174.425412 23.8276914 171.84705 23.8276914 171.84705 25.4575193 174.206884 25.4575193 174.206884 26.500095 171.84705 26.500095 171.84705 28.3572463 174.44368 28.3572463 174.44368 29.399822 170.520997 29.399822 170.520997 22.7851157"></polyline>
            <path d="M177.114053,28.3572463 L177.852855,28.3572463 C178.961733,28.3572463 180.032724,27.5331988 180.032724,26.0921306 C180.032724,24.6517389 178.961733,23.8276914 177.852855,23.8276914 L177.114053,23.8276914 L177.114053,28.3572463 Z M175.787323,22.7851157 L177.597116,22.7851157 C179.625436,22.7851157 181.416285,23.4670861 181.416285,26.0921306 C181.416285,28.7171751 179.625436,29.399822 177.597116,29.399822 L175.787323,29.399822 L175.787323,22.7851157 Z" id="Fill-35" fill="#EB8F2D" fill-rule="nonzero"></path>
            <polyline id="Fill-36" fill="#EB8F2D" fill-rule="nonzero" points="182.62597 22.7851157 186.530386 22.7851157 186.530386 23.8276914 183.9527 23.8276914 183.9527 25.4575193 186.311858 25.4575193 186.311858 26.500095 183.9527 26.500095 183.9527 28.3572463 186.548653 28.3572463 186.548653 29.399822 182.62597 29.399822 182.62597 22.7851157"></polyline>
            <polyline id="Fill-37" fill="#EB8F2D" fill-rule="nonzero" points="187.825318 22.7851157 189.455145 22.7851157 191.976 27.7321068 191.994944 27.7321068 191.994944 22.7851157 193.265519 22.7851157 193.265519 29.399822 191.644487 29.399822 189.11416 24.4528309 189.095217 24.4528309 189.095217 29.399822 187.825318 29.399822 187.825318 22.7851157"></polyline>
        </g>
    </g>
</svg>