<?xml version="1.0" encoding="UTF-8"?>
<svg xmlns="http://www.w3.org/2000/svg" width="450" height="216" viewBox="0 0 450 216" fill="none">
  <path d="M225 216C284.647 216 333 167.647 333 108C333 48.3532 284.647 0 225 0C165.353 0 117 48.3532 117 108C117 167.647 165.353 216 225 216Z" fill="#00309A"></path>
  <path d="M228.539 99.313C228.539 97.311 226.858 95.7023 224.856 95.7738C222.998 95.8453 221.496 97.4183 221.46 99.2773C221.425 100.6 222.14 101.744 223.212 102.387C223.427 102.53 223.534 102.745 223.498 102.995L222.354 108.858C222.283 109.216 222.568 109.537 222.926 109.537H227.109C227.466 109.537 227.752 109.216 227.681 108.858L226.537 103.031C226.501 102.781 226.608 102.53 226.823 102.423C227.824 101.744 228.539 100.6 228.539 99.313Z" fill="#00309A"></path>
  <path d="M189.465 151.651C190.18 151.651 190.824 151.615 191.396 151.543C191.968 151.472 192.54 151.365 193.04 151.257C193.576 151.114 194.041 150.971 194.506 150.793C194.971 150.614 195.435 150.399 195.9 150.149V144.393H191.86C191.646 144.393 191.432 144.322 191.324 144.179C191.181 144.036 191.11 143.893 191.11 143.678V141.676H199.118V151.651C198.474 152.115 197.795 152.544 197.08 152.902C196.365 153.259 195.614 153.545 194.828 153.796C194.005 154.046 193.147 154.225 192.254 154.332C191.324 154.439 190.323 154.511 189.251 154.511C187.356 154.511 185.64 154.189 184.067 153.545C182.494 152.902 181.136 151.972 179.992 150.828C178.848 149.649 177.954 148.254 177.346 146.61C176.703 144.965 176.381 143.178 176.381 141.212C176.381 139.21 176.703 137.422 177.31 135.778C177.918 134.133 178.812 132.739 179.992 131.559C181.136 130.379 182.53 129.486 184.174 128.842C185.819 128.199 187.642 127.877 189.68 127.877C190.717 127.877 191.682 127.948 192.54 128.091C193.433 128.234 194.256 128.449 195.006 128.735C195.757 129.021 196.472 129.378 197.116 129.772C197.759 130.165 198.367 130.63 198.903 131.13L197.902 132.739C197.688 133.061 197.437 133.239 197.116 133.239C196.937 133.239 196.722 133.168 196.472 133.025C196.186 132.846 195.829 132.667 195.471 132.417C195.078 132.167 194.649 131.952 194.113 131.702C193.576 131.488 192.933 131.273 192.218 131.13C191.503 130.987 190.609 130.88 189.608 130.88C188.143 130.88 186.82 131.13 185.64 131.595C184.46 132.06 183.459 132.775 182.601 133.633C181.779 134.526 181.136 135.599 180.671 136.85C180.206 138.101 179.992 139.531 179.992 141.104C179.992 142.749 180.242 144.215 180.707 145.502C181.171 146.789 181.815 147.897 182.673 148.791C183.531 149.684 184.532 150.364 185.676 150.828C186.784 151.4 188.071 151.651 189.465 151.651Z" fill="white"></path>
  <path d="M227.073 141.212C227.073 143.178 226.751 144.93 226.144 146.538C225.536 148.147 224.642 149.506 223.534 150.65C222.426 151.794 221.067 152.652 219.494 153.295C217.921 153.903 216.169 154.225 214.275 154.225H204.551V128.199H214.239C216.169 128.199 217.885 128.52 219.458 129.128C221.031 129.736 222.39 130.63 223.498 131.774C224.606 132.918 225.5 134.276 226.108 135.885C226.751 137.494 227.073 139.245 227.073 141.212ZM223.462 141.212C223.462 139.603 223.248 138.173 222.819 136.922C222.39 135.67 221.782 134.598 220.96 133.74C220.173 132.882 219.208 132.203 218.064 131.738C216.92 131.273 215.669 131.059 214.275 131.059H208.09V151.365H214.239C215.633 151.365 216.884 151.15 218.028 150.685C219.172 150.221 220.138 149.577 220.924 148.683C221.711 147.825 222.354 146.753 222.783 145.502C223.248 144.215 223.462 142.785 223.462 141.212Z" fill="white"></path>
  <path d="M235.726 144.465V154.189H232.223V128.163H239.909C241.553 128.163 242.983 128.342 244.199 128.735C245.414 129.128 246.415 129.665 247.238 130.344C248.024 131.059 248.632 131.881 249.025 132.882C249.418 133.883 249.633 134.991 249.633 136.207C249.633 137.422 249.418 138.53 248.989 139.531C248.56 140.532 247.953 141.39 247.13 142.141C246.308 142.856 245.307 143.428 244.092 143.821C242.876 144.215 241.482 144.429 239.945 144.429H235.726V144.465ZM235.726 141.676H239.909C240.91 141.676 241.804 141.533 242.554 141.283C243.341 141.033 243.984 140.64 244.485 140.175C245.021 139.71 245.414 139.138 245.665 138.459C245.915 137.78 246.058 137.065 246.058 136.278C246.058 134.634 245.557 133.311 244.521 132.382C243.484 131.452 241.947 130.987 239.873 130.987H235.69V141.676H235.726Z" fill="white"></path>
  <path d="M257.925 143.357V154.225H254.422V128.199H261.786C263.431 128.199 264.861 128.377 266.041 128.699C267.256 129.021 268.221 129.521 269.008 130.129C269.794 130.773 270.366 131.523 270.76 132.417C271.117 133.311 271.332 134.312 271.332 135.42C271.332 136.35 271.189 137.208 270.903 137.994C270.617 138.781 270.188 139.496 269.651 140.139C269.115 140.783 268.436 141.319 267.649 141.748C266.863 142.213 265.969 142.534 264.968 142.749C265.397 142.999 265.79 143.357 266.148 143.857L273.727 154.189H270.617C269.973 154.189 269.508 153.939 269.187 153.438L262.43 144.143C262.215 143.857 262.001 143.643 261.751 143.5C261.5 143.357 261.143 143.321 260.678 143.321H257.925V143.357ZM257.925 140.783H261.608C262.644 140.783 263.538 140.675 264.325 140.425C265.111 140.175 265.755 139.817 266.291 139.388C266.827 138.924 267.22 138.387 267.471 137.78C267.721 137.136 267.864 136.457 267.864 135.706C267.864 134.169 267.363 132.989 266.327 132.203C265.29 131.416 263.788 131.023 261.751 131.023H257.89V140.783H257.925Z" fill="white"></path>
  <path d="M224.999 31.3169L232.935 37.1083L229.896 27.7419L237.94 21.9504H228.037L224.999 12.584L221.96 21.9504H212.021L220.065 27.7419L217.026 37.1083L224.999 31.3169Z" fill="#FFCD00"></path>
  <path d="M224.999 197.589L232.935 203.416L229.896 194.014L237.94 188.258H228.037L224.999 178.892L221.96 188.258H212.021L220.065 194.014L217.026 203.416L224.999 197.589Z" fill="#FFCD00"></path>
  <path d="M224.999 197.589L232.935 203.416L229.896 194.014L237.94 188.258H228.037L224.999 178.892L221.96 188.258H212.021L220.065 194.014L217.026 203.416L224.999 197.589Z" fill="#FFCD00"></path>
  <path d="M224.999 197.589L232.935 203.416L229.896 194.014L237.94 188.258H228.037L224.999 178.892L221.96 188.258H212.021L220.065 194.014L217.026 203.416L224.999 197.589Z" fill="#FFCD00"></path>
  <path d="M224.999 197.589L232.935 203.416L229.896 194.014L237.94 188.258H228.037L224.999 178.892L221.96 188.258H212.021L220.065 194.014L217.026 203.416L224.999 197.589Z" fill="#FFCD00"></path>
  <path d="M224.999 197.589L232.935 203.416L229.896 194.014L237.94 188.258H228.037L224.999 178.892L221.96 188.258H212.021L220.065 194.014L217.026 203.416L224.999 197.589Z" fill="#FFCD00"></path>
  <path d="M224.999 197.589L232.935 203.416L229.896 194.014L237.94 188.258H228.037L224.999 178.892L221.96 188.258H212.021L220.065 194.014L217.026 203.416L224.999 197.589Z" fill="#FFCD00"></path>
  <path d="M183.422 186.471L191.359 192.262L188.356 182.896L196.364 177.104H186.461L183.422 167.738L180.384 177.104H170.445L178.489 182.896L175.486 192.262L183.422 186.471Z" fill="#FFCD00"></path>
  <path d="M153.001 156.012L160.937 161.839L157.898 152.437L165.942 146.681H156.004L153.001 137.315L149.962 146.681H140.023L148.067 152.437L145.028 161.839L153.001 156.012Z" fill="#FFCD00"></path>
  <path d="M141.846 114.435L149.782 120.262L146.779 110.86L154.823 105.104H144.884L141.846 95.7378L138.807 105.104H128.904L136.912 110.86L133.909 120.262L141.846 114.435Z" fill="#FFCD00"></path>
  <path d="M153.001 72.894L160.937 78.6855L157.898 69.319L165.942 63.5276H156.004L153.001 54.1611L149.962 63.5276H140.023L148.067 69.319L145.028 78.6855L153.001 72.894Z" fill="#FFCD00"></path>
  <path d="M183.422 42.4349L191.359 48.2621L188.356 38.8599L196.364 33.1042H186.461L183.422 23.7378L180.384 33.1042H170.445L178.489 38.8599L175.486 48.2621L183.422 42.4349Z" fill="#FFCD00"></path>
  <path d="M266.577 186.471L274.513 192.262L271.474 182.896L279.518 177.104H269.58L266.577 167.738L263.538 177.104H253.6L261.643 182.896L258.605 192.262L266.577 186.471Z" fill="#FFCD00"></path>
  <path d="M296.999 156.012L304.935 161.839L301.932 152.437L309.94 146.681H300.037L296.999 137.315L293.96 146.681H284.021L292.065 152.437L289.062 161.839L296.999 156.012Z" fill="#FFCD00"></path>
  <path d="M308.153 114.435L316.089 120.262L313.051 110.86L321.094 105.104H311.156L308.153 95.7378L305.114 105.104H295.176L303.219 110.86L300.181 120.262L308.153 114.435Z" fill="#FFCD00"></path>
  <path d="M296.999 72.894L304.935 78.6855L301.932 69.319L309.94 63.5276H300.037L296.999 54.1611L293.96 63.5276H284.021L292.065 69.319L289.062 78.6855L296.999 72.894Z" fill="#FFCD00"></path>
  <path d="M266.577 42.4349L274.513 48.2621L271.474 38.8599L279.518 33.1042H269.58L266.577 23.7378L263.538 33.1042H253.6L261.643 38.8599L258.605 48.2621L266.577 42.4349Z" fill="#FFCD00"></path>
  <path d="M240.661 87.4499H238.52V81.1719C238.52 73.9089 232.661 68 225.46 68C218.259 68 212.401 73.9089 212.401 81.1719V87.4499H210.259C209.011 87.4499 208 88.4701 208 89.7286V109.721C208 110.98 209.011 112 210.259 112H240.661C241.909 112 242.921 110.98 242.921 109.721V89.7288C242.921 88.4703 241.909 87.4499 240.661 87.4499ZM217.886 81.1719C217.886 76.9594 221.284 73.5323 225.46 73.5323C229.637 73.5323 233.035 76.9594 233.035 81.1719V87.4499H217.886V81.1719ZM227.922 100.483V104.57C227.922 105.941 226.82 107.053 225.46 107.053C224.1 107.053 222.998 105.941 222.998 104.57V100.483C222.082 99.7502 221.494 98.6188 221.494 97.348C221.494 95.1387 223.27 93.3476 225.46 93.3476C227.651 93.3476 229.426 95.1387 229.426 97.348C229.426 98.6188 228.838 99.7503 227.922 100.483Z" fill="white"></path>
</svg>
