<svg width="1280" height="720" xmlns="http://www.w3.org/2000/svg" xmlns:xlink="http://www.w3.org/1999/xlink" overflow="hidden"><defs><linearGradient x1="0" y1="38.5" x2="1280" y2="38.5" gradientUnits="userSpaceOnUse" spreadMethod="reflect" id="fill0"><stop offset="0" stop-color="#618EC7"/><stop offset="0.00636943" stop-color="#628FC7"/><stop offset="0.0127389" stop-color="#6490C7"/><stop offset="0.0191083" stop-color="#6691C8"/><stop offset="0.0254777" stop-color="#6893C8"/><stop offset="0.0318471" stop-color="#6A94C8"/><stop offset="0.0382166" stop-color="#6C95C9"/><stop offset="0.044586" stop-color="#6D97C9"/><stop offset="0.0509554" stop-color="#6F98C9"/><stop offset="0.0573248" stop-color="#7199CA"/><stop offset="0.0636943" stop-color="#739ACA"/><stop offset="0.0700637" stop-color="#759CCA"/><stop offset="0.0764331" stop-color="#769DCB"/><stop offset="0.0828025" stop-color="#789ECB"/><stop offset="0.089172" stop-color="#7A9FCB"/><stop offset="0.0955414" stop-color="#7CA1CB"/><stop offset="0.101911" stop-color="#7DA2CC"/><stop offset="0.10828" stop-color="#7FA3CC"/><stop offset="0.11465" stop-color="#81A4CC"/><stop offset="0.121019" stop-color="#82A5CD"/><stop offset="0.127389" stop-color="#84A7CD"/><stop offset="0.133758" stop-color="#86A8CD"/><stop offset="0.140127" stop-color="#87A9CE"/><stop offset="0.146497" stop-color="#89AACE"/><stop offset="0.152866" stop-color="#8BABCE"/><stop offset="0.159236" stop-color="#8CACCF"/><stop offset="0.165605" stop-color="#8EADCF"/><stop offset="0.171975" stop-color="#90AFCF"/><stop offset="0.178344" stop-color="#91B0CF"/><stop offset="0.184713" stop-color="#93B1D0"/><stop offset="0.191083" stop-color="#94B2D0"/><stop offset="0.197452" stop-color="#96B3D0"/><stop offset="0.203822" stop-color="#97B4D1"/><stop offset="0.210191" stop-color="#99B5D1"/><stop offset="0.216561" stop-color="#9BB6D1"/><stop offset="0.22293" stop-color="#9CB7D1"/><stop offset="0.229299" stop-color="#9EB8D2"/><stop offset="0.235669" stop-color="#9FB9D2"/><stop offset="0.242038" stop-color="#A1BAD2"/><stop offset="0.248408" stop-color="#A2BCD3"/><stop offset="0.254777" stop-color="#A3BDD3"/><stop offset="0.261146" stop-color="#A5BED3"/><stop offset="0.267516" stop-color="#A6BFD3"/><stop offset="0.273885" stop-color="#A8C0D4"/><stop offset="0.280255" stop-color="#A9C1D4"/><stop offset="0.286624" stop-color="#ABC2D4"/><stop offset="0.292994" stop-color="#ACC3D4"/><stop offset="0.299363" stop-color="#ADC4D5"/><stop offset="0.305732" stop-color="#AFC5D5"/><stop offset="0.312102" stop-color="#B0C5D5"/><stop offset="0.318471" stop-color="#B2C6D5"/><stop offset="0.324841" stop-color="#B3C7D6"/><stop offset="0.33121" stop-color="#B4C8D6"/><stop offset="0.33758" stop-color="#B6C9D6"/><stop offset="0.343949" stop-color="#B7CAD6"/><stop offset="0.350318" stop-color="#B8CBD7"/><stop offset="0.356688" stop-color="#B9CCD7"/><stop offset="0.363057" stop-color="#BBCDD7"/><stop offset="0.369427" stop-color="#BCCED7"/><stop offset="0.375796" stop-color="#BDCFD8"/><stop offset="0.382166" stop-color="#BED0D8"/><stop offset="0.388535" stop-color="#C0D0D8"/><stop offset="0.394904" stop-color="#C1D1D8"/><stop offset="0.401274" stop-color="#C2D2D8"/><stop offset="0.407643" stop-color="#C3D3D9"/><stop offset="0.414013" stop-color="#C4D4D9"/><stop offset="0.420382" stop-color="#C6D5D9"/><stop offset="0.426752" stop-color="#C7D5D9"/><stop offset="0.433121" stop-color="#C8D6D9"/><stop offset="0.43949" stop-color="#C9D7DA"/><stop offset="0.44586" stop-color="#CAD8DA"/><stop offset="0.452229" stop-color="#CBD9DA"/><stop offset="0.458599" stop-color="#CCD9DA"/><stop offset="0.464968" stop-color="#CEDADB"/><stop offset="0.471338" stop-color="#CFDBDB"/><stop offset="0.477707" stop-color="#D0DCDB"/><stop offset="0.484076" stop-color="#D1DCDB"/><stop offset="0.490446" stop-color="#D2DDDB"/><stop offset="0.496815" stop-color="#D3DEDB"/><stop offset="0.503185" stop-color="#D4DFDC"/><stop offset="0.509554" stop-color="#D5DFDC"/><stop offset="0.515924" stop-color="#D6E0DC"/><stop offset="0.522293" stop-color="#D7E1DC"/><stop offset="0.528662" stop-color="#D8E1DC"/><stop offset="0.535032" stop-color="#D9E2DD"/><stop offset="0.541401" stop-color="#DAE3DD"/><stop offset="0.547771" stop-color="#DBE3DD"/><stop offset="0.55414" stop-color="#DCE4DD"/><stop offset="0.56051" stop-color="#DDE5DD"/><stop offset="0.566879" stop-color="#DEE5DD"/><stop offset="0.573248" stop-color="#DEE6DE"/><stop offset="0.579618" stop-color="#DFE7DE"/><stop offset="0.585987" stop-color="#E0E7DE"/><stop offset="0.592357" stop-color="#E1E8DE"/><stop offset="0.598726" stop-color="#E2E8DE"/><stop offset="0.605096" stop-color="#E3E9DE"/><stop offset="0.611465" stop-color="#E4EADF"/><stop offset="0.617834" stop-color="#E4EADF"/><stop offset="0.624204" stop-color="#E5EBDF"/><stop offset="0.630573" stop-color="#E6EBDF"/><stop offset="0.636943" stop-color="#E7ECDF"/><stop offset="0.643312" stop-color="#E8ECDF"/><stop offset="0.649682" stop-color="#E8EDDF"/><stop offset="0.656051" stop-color="#E9EDE0"/><stop offset="0.66242" stop-color="#EAEEE0"/><stop offset="0.66879" stop-color="#EBEFE0"/><stop offset="0.675159" stop-color="#EBEFE0"/><stop offset="0.681529" stop-color="#ECF0E0"/><stop offset="0.687898" stop-color="#EDF0E0"/><stop offset="0.694268" stop-color="#EDF0E0"/><stop offset="0.700637" stop-color="#EEF1E0"/><stop offset="0.707006" stop-color="#EFF1E1"/><stop offset="0.713376" stop-color="#EFF2E1"/><stop offset="0.719745" stop-color="#F0F2E1"/><stop offset="0.726115" stop-color="#F1F3E1"/><stop offset="0.732484" stop-color="#F1F3E1"/><stop offset="0.738854" stop-color="#F2F4E1"/><stop offset="0.745223" stop-color="#F2F4E1"/><stop offset="0.751592" stop-color="#F3F4E1"/><stop offset="0.757962" stop-color="#F3F5E1"/><stop offset="0.764331" stop-color="#F4F5E2"/><stop offset="0.770701" stop-color="#F5F5E2"/><stop offset="0.77707" stop-color="#F5F6E2"/><stop offset="0.78344" stop-color="#F6F6E2"/><stop offset="0.789809" stop-color="#F6F7E2"/><stop offset="0.796178" stop-color="#F6F7E2"/><stop offset="0.802548" stop-color="#F7F7E2"/><stop offset="0.808917" stop-color="#F7F8E2"/><stop offset="0.815287" stop-color="#F8F8E2"/><stop offset="0.821656" stop-color="#F8F8E2"/><stop offset="0.828025" stop-color="#F9F8E2"/><stop offset="0.834395" stop-color="#F9F9E3"/><stop offset="0.840764" stop-color="#F9F9E3"/><stop offset="0.847134" stop-color="#FAF9E3"/><stop offset="0.853503" stop-color="#FAF9E3"/><stop offset="0.859873" stop-color="#FBFAE3"/><stop offset="0.866242" stop-color="#FBFAE3"/><stop offset="0.872611" stop-color="#FBFAE3"/><stop offset="0.878981" stop-color="#FBFAE3"/><stop offset="0.88535" stop-color="#FCFBE3"/><stop offset="0.89172" stop-color="#FCFBE3"/><stop offset="0.898089" stop-color="#FCFBE3"/><stop offset="0.904459" stop-color="#FDFBE3"/><stop offset="0.910828" stop-color="#FDFBE3"/><stop offset="0.917197" stop-color="#FDFBE3"/><stop offset="0.923567" stop-color="#FDFCE3"/><stop offset="0.929936" stop-color="#FDFCE3"/><stop offset="0.936306" stop-color="#FEFCE3"/><stop offset="0.942675" stop-color="#FEFCE3"/><stop offset="0.949045" stop-color="#FEFCE3"/><stop offset="0.955414" stop-color="#FEFCE3"/><stop offset="0.961783" stop-color="#FEFCE3"/><stop offset="0.968153" stop-color="#FEFCE3"/><stop offset="0.974522" stop-color="#FEFCE3"/><stop offset="0.980892" stop-color="#FEFCE3"/><stop offset="0.987261" stop-color="#FEFCE3"/><stop offset="0.993631" stop-color="#FEFCE3"/><stop offset="1" stop-color="#FFFDE4"/></linearGradient><linearGradient x1="1115.76" y1="41" x2="1200.88" y2="41" gradientUnits="userSpaceOnUse" spreadMethod="pad" id="fill1"><stop offset="0" stop-color="#293373"/><stop offset="0.4922" stop-color="#3972B8"/><stop offset="1" stop-color="#293373"/></linearGradient><linearGradient x1="1105.49" y1="35.574" x2="1224.66" y2="35.574" gradientUnits="userSpaceOnUse" spreadMethod="pad" id="fill2"><stop offset="0" stop-color="#293373"/><stop offset="0.4922" stop-color="#3972B8"/><stop offset="1" stop-color="#293373"/></linearGradient><linearGradient x1="1105.49" y1="37.3611" x2="1224.66" y2="37.3611" gradientUnits="userSpaceOnUse" spreadMethod="pad" id="fill3"><stop offset="0" stop-color="#293373"/><stop offset="0.4922" stop-color="#3972B8"/><stop offset="1" stop-color="#293373"/></linearGradient><linearGradient x1="1105.49" y1="36.2985" x2="1224.66" y2="36.2985" gradientUnits="userSpaceOnUse" spreadMethod="pad" id="fill4"><stop offset="0" stop-color="#293373"/><stop offset="0.4922" stop-color="#3972B8"/><stop offset="1" stop-color="#293373"/></linearGradient><linearGradient x1="1105.49" y1="37.2645" x2="1224.66" y2="37.2645" gradientUnits="userSpaceOnUse" spreadMethod="pad" id="fill5"><stop offset="0" stop-color="#293373"/><stop offset="0.4922" stop-color="#3972B8"/><stop offset="1" stop-color="#293373"/></linearGradient><linearGradient x1="1105.49" y1="37.3611" x2="1224.66" y2="37.3611" gradientUnits="userSpaceOnUse" spreadMethod="pad" id="fill6"><stop offset="0" stop-color="#293373"/><stop offset="0.4922" stop-color="#3972B8"/><stop offset="1" stop-color="#293373"/></linearGradient><linearGradient x1="1105.49" y1="35.1875" x2="1224.66" y2="35.1875" gradientUnits="userSpaceOnUse" spreadMethod="pad" id="fill7"><stop offset="0" stop-color="#293373"/><stop offset="0.4922" stop-color="#3972B8"/><stop offset="1" stop-color="#293373"/></linearGradient><linearGradient x1="1105.49" y1="35.1875" x2="1224.66" y2="35.1875" gradientUnits="userSpaceOnUse" spreadMethod="pad" id="fill8"><stop offset="0" stop-color="#293373"/><stop offset="0.4922" stop-color="#3972B8"/><stop offset="1" stop-color="#293373"/></linearGradient><linearGradient x1="1105.49" y1="37.2645" x2="1224.66" y2="37.2645" gradientUnits="userSpaceOnUse" spreadMethod="pad" id="fill9"><stop offset="0" stop-color="#293373"/><stop offset="0.4922" stop-color="#3972B8"/><stop offset="1" stop-color="#293373"/></linearGradient><linearGradient x1="1105.49" y1="30.9855" x2="1224.66" y2="30.9855" gradientUnits="userSpaceOnUse" spreadMethod="pad" id="fill10"><stop offset="0" stop-color="#293373"/><stop offset="0.4922" stop-color="#3972B8"/><stop offset="1" stop-color="#293373"/></linearGradient><linearGradient x1="1105.49" y1="39.1965" x2="1224.66" y2="39.1965" gradientUnits="userSpaceOnUse" spreadMethod="pad" id="fill11"><stop offset="0" stop-color="#293373"/><stop offset="0.4922" stop-color="#3972B8"/><stop offset="1" stop-color="#293373"/></linearGradient><linearGradient x1="1105.29" y1="48.5506" x2="1224.46" y2="48.5506" gradientUnits="userSpaceOnUse" spreadMethod="pad" id="fill12"><stop offset="0" stop-color="#293373"/><stop offset="0.4922" stop-color="#3972B8"/><stop offset="1" stop-color="#293373"/></linearGradient><linearGradient x1="1105.29" y1="48.2608" x2="1224.46" y2="48.2608" gradientUnits="userSpaceOnUse" spreadMethod="pad" id="fill13"><stop offset="0" stop-color="#293373"/><stop offset="0.4922" stop-color="#3972B8"/><stop offset="1" stop-color="#293373"/></linearGradient><linearGradient x1="1105.29" y1="50.4343" x2="1224.46" y2="50.4343" gradientUnits="userSpaceOnUse" spreadMethod="pad" id="fill14"><stop offset="0" stop-color="#293373"/><stop offset="0.4922" stop-color="#3972B8"/><stop offset="1" stop-color="#293373"/></linearGradient><linearGradient x1="1105.29" y1="49.2751" x2="1224.46" y2="49.2751" gradientUnits="userSpaceOnUse" spreadMethod="pad" id="fill15"><stop offset="0" stop-color="#293373"/><stop offset="0.4922" stop-color="#3972B8"/><stop offset="1" stop-color="#293373"/></linearGradient><linearGradient x1="1105.29" y1="50.3377" x2="1224.46" y2="50.3377" gradientUnits="userSpaceOnUse" spreadMethod="pad" id="fill16"><stop offset="0" stop-color="#293373"/><stop offset="0.4922" stop-color="#3972B8"/><stop offset="1" stop-color="#293373"/></linearGradient><linearGradient x1="1105.29" y1="43.9621" x2="1224.46" y2="43.9621" gradientUnits="userSpaceOnUse" spreadMethod="pad" id="fill17"><stop offset="0" stop-color="#293373"/><stop offset="0.4922" stop-color="#3972B8"/><stop offset="1" stop-color="#293373"/></linearGradient></defs><g><rect x="0" y="0" width="1280" height="720" fill="#FFFFFF"/><rect x="0" y="0" width="1280" height="77" fill="url(#fill0)"/><g><g><g><path d="M1144.84 42.3053C1144.72 41.8453 1144.3 41.5578 1143.91 41.5405 1143.84 41.5348 1143.76 41.5348 1143.68 41.5348 1139.63 41.5348 1135.57 41.5348 1131.51 41.5348 1131.46 41.5348 1131.42 41.5348 1131.36 41.5348 1131.34 41.5348 1131.32 41.529 1131.3 41.5233 1131.28 41.46 1131.29 41.3968 1131.29 41.3392 1131.29 36.8945 1131.29 32.444 1131.29 27.9992 1131.29 27.9705 1131.29 27.936 1131.29 27.9072 1131.29 27.8267 1131.3 27.7463 1131.32 27.6715 1131.45 27.2575 1131.88 26.9412 1132.25 26.9815 1134.15 26.9815 1136.05 26.9815 1137.95 26.9815 1137.99 26.9815 1138.02 26.9815 1138.06 26.9815 1138.08 26.9815 1138.09 26.9873 1138.1 26.9873 1138.1 26.9987 1138.11 27.0103 1138.11 27.016 1137.56 27.9072 1136.99 28.787 1136.43 29.6667 1136.41 29.6725 1136.4 29.6782 1136.4 29.6782 1136.3 29.6782 1136.19 29.684 1136.1 29.684 1135.65 29.684 1135.28 29.983 1135.16 30.4085 1135.13 30.5235 1135.12 30.6328 1135.13 30.7477 1135.14 30.9318 1135.14 31.1157 1135.16 31.2998 1135.19 31.6908 1135.28 32.0703 1135.39 32.444 1135.63 33.1858 1136.01 33.8413 1136.57 34.3875 1137.44 35.227 1138.48 35.6582 1139.67 35.733 1140.16 35.7675 1140.66 35.7158 1141.14 35.6007 1141.88 35.4167 1142.55 35.0833 1143.12 34.5772 1144.11 33.7147 1144.6 32.605 1144.74 31.3228 1144.76 31.133 1144.76 30.9433 1144.77 30.7477 1144.78 30.673 1144.77 30.604 1144.77 30.5293 1144.73 30.1152 1144.39 29.7645 1143.99 29.6898 1143.89 29.6725 1143.79 29.6725 1143.69 29.6725 1143.55 29.6725 1143.57 29.684 1143.5 29.569 1142.59 28.189 1141.69 26.8032 1140.79 25.4233 1140.73 25.3255 1140.65 25.2393 1140.57 25.1588 1140.42 25.015 1140.24 24.923 1140.04 24.8827 1139.94 24.8655 1139.84 24.8655 1139.74 24.8655 1137.24 24.8655 1134.74 24.8655 1132.24 24.8655 1132.2 24.8655 1132.17 24.8655 1132.13 24.8655 1132.07 24.8713 1132.01 24.854 1131.95 24.831 1131.62 24.7045 1131.41 24.4688 1131.32 24.1238 1131.28 24.003 1131.28 23.8708 1131.28 23.7443 1131.28 22.7323 1131.28 21.7202 1131.28 20.7083 1131.28 20.622 1131.28 20.53 1131.27 20.4438 1131.17 20.0068 1130.91 19.7192 1130.47 19.6157 1130.03 19.5122 1129.66 19.6618 1129.38 20.0182 1129.24 20.2022 1129.18 20.4207 1129.17 20.6507 1129.17 20.76 1129.17 20.875 1129.17 20.9842 1129.17 21.9618 1129.17 22.9393 1129.17 23.9167 1129.17 23.98 1129.17 24.049 1129.16 24.1123 1129.09 24.371 1128.95 24.578 1128.73 24.7275 1128.59 24.8195 1128.44 24.8655 1128.27 24.8655 1125.76 24.8598 1123.25 24.8655 1120.74 24.8655 1120.69 24.8655 1120.63 24.8655 1120.57 24.8655 1120.18 24.877 1119.88 25.0553 1119.67 25.3888 1119.64 25.4347 1119.62 25.4808 1119.59 25.5267 1118.73 26.8722 1117.88 28.2235 1117.02 29.569 1117 29.6035 1116.98 29.6323 1116.95 29.6667 1116.88 29.6667 1116.79 29.6667 1116.72 29.6667 1116.31 29.6667 1115.94 29.937 1115.81 30.3337 1115.77 30.4545 1115.75 30.5752 1115.76 30.696 1115.77 30.8685 1115.77 31.041 1115.79 31.2135 1115.82 31.5988 1115.89 31.9783 1116 32.352 1116.25 33.1858 1116.69 33.9045 1117.33 34.491 1118.17 35.2558 1119.17 35.6468 1120.29 35.7215 1120.79 35.756 1121.28 35.71 1121.76 35.5892 1122.49 35.411 1123.14 35.089 1123.71 34.6003 1124.65 33.7952 1125.16 32.7603 1125.34 31.547 1125.37 31.3285 1125.39 31.1042 1125.4 30.8857 1125.41 30.742 1125.41 30.604 1125.39 30.4603 1125.32 30.0693 1125.01 29.7588 1124.62 29.684 1124.52 29.6667 1124.42 29.6667 1124.32 29.6667 1124.18 29.6667 1124.2 29.684 1124.12 29.5575 1123.59 28.741 1123.05 27.9245 1122.52 27.1022 1122.5 27.0793 1122.48 27.0505 1122.47 27.0217 1122.46 27.0045 1122.46 26.9873 1122.46 26.9642 1122.52 26.9642 1122.57 26.9642 1122.61 26.9642 1124.49 26.9642 1126.37 26.9642 1128.24 26.9642 1128.27 26.9642 1128.29 26.9642 1128.31 26.9642 1128.36 26.9585 1128.42 26.97 1128.47 26.9873 1128.82 27.108 1129.04 27.3495 1129.14 27.7118 1129.17 27.8267 1129.17 27.9475 1129.17 28.0683 1129.17 32.49 1129.17 36.9175 1129.17 41.3392 1129.17 41.3737 1129.17 41.4082 1129.17 41.4427 1129.17 41.4658 1129.16 41.4888 1129.16 41.506 1129.09 41.529 1129.03 41.5233 1128.97 41.5233 1125.01 41.5233 1121.04 41.5233 1117.08 41.5233 1117.02 41.5233 1116.97 41.5233 1116.91 41.5233 1116.85 41.529 1116.79 41.529 1116.73 41.5405 1116.2 41.644 1115.9 42.0868 1115.87 42.4835 1115.83 42.9953 1116.16 43.461 1116.65 43.5933 1116.77 43.622 1116.89 43.6335 1117 43.6335 1119.88 43.6335 1122.76 43.6335 1125.63 43.6335 1125.68 43.6335 1125.72 43.6335 1125.77 43.6335 1125.79 43.6335 1125.8 43.6393 1125.83 43.6393 1125.84 43.691 1125.84 43.7428 1125.84 43.7887 1125.84 44.7145 1125.84 45.6345 1125.84 46.5602 1125.84 46.589 1125.84 46.612 1125.84 46.6408 1125.84 46.6637 1125.83 46.6868 1125.83 46.704 1125.77 46.7213 1125.72 46.7155 1125.67 46.7155 1124.37 46.7155 1123.07 46.7155 1121.77 46.7155 1121.56 46.7155 1121.34 46.7155 1121.12 46.7155 1121.05 46.7155 1120.98 46.704 1120.92 46.6868 1120.77 46.6465 1120.66 46.5545 1120.57 46.4338 1120.05 45.7265 1119.19 45.3758 1118.3 45.554 1117.05 45.83 1116.27 47.0317 1116.52 48.2738 1116.81 49.648 1118.26 50.43 1119.57 49.9183 1120.01 49.7458 1120.37 49.4583 1120.64 49.0557 1120.73 48.9178 1120.85 48.8488 1121.02 48.8488 1121.06 48.8488 1121.11 48.8488 1121.15 48.8488 1123.04 48.8488 1124.94 48.8488 1126.83 48.8488 1126.91 48.8488 1126.99 48.8488 1127.06 48.8315 1127.51 48.751 1127.79 48.4922 1127.92 48.061 1127.95 47.9518 1127.95 47.8368 1127.95 47.7218 1127.95 46.6637 1127.95 45.6058 1127.95 44.5478 1127.95 44.3005 1127.95 44.0475 1127.95 43.8003 1127.95 43.7542 1127.94 43.7083 1127.97 43.6565 1128 43.6565 1128.02 43.6507 1128.05 43.6507 1128.15 43.6507 1128.24 43.6507 1128.33 43.6507 1128.57 43.6507 1128.81 43.6507 1129.05 43.6507 1129.09 43.6507 1129.13 43.6393 1129.17 43.6795 1129.17 43.7255 1129.17 43.783 1129.17 43.8347 1129.17 45.9163 1129.17 47.9977 1129.17 50.0793 1129.17 50.1138 1129.17 50.1483 1129.17 50.1828 1129.17 50.2057 1129.16 50.223 1129.16 50.2518 1129.09 50.2518 1129.03 50.2575 1128.97 50.2575 1128.07 50.2575 1127.17 50.2575 1126.28 50.2575 1126.18 50.2575 1126.09 50.2632 1125.99 50.2805 1125.78 50.3207 1125.61 50.4243 1125.46 50.568 1124.9 51.1143 1124.33 51.6605 1123.77 52.2068 1123.34 52.6208 1122.92 53.0347 1122.49 53.4487 1122.39 53.5522 1122.27 53.5982 1122.12 53.5868 1121.76 53.558 1121.42 53.6097 1121.08 53.742 1119.97 54.1847 1119.41 55.375 1119.74 56.4847 1120.07 57.583 1121.15 58.2557 1122.29 58.089 1122.68 58.0315 1123.04 57.882 1123.35 57.6348 1123.86 57.238 1124.15 56.7147 1124.22 56.0765 1124.26 55.7718 1124.23 55.467 1124.13 55.168 1124.07 54.984 1124.12 54.823 1124.25 54.6793 1124.27 54.6562 1124.3 54.6332 1124.32 54.6045 1125.05 53.903 1125.78 53.1957 1126.5 52.4943 1126.54 52.4598 1126.57 52.431 1126.6 52.3965 1126.62 52.3735 1126.65 52.362 1126.68 52.362 1126.71 52.362 1126.74 52.362 1126.77 52.362 1127.27 52.362 1127.77 52.362 1128.27 52.362 1128.52 52.362 1128.77 52.362 1129.02 52.362 1129.06 52.362 1129.11 52.3563 1129.15 52.3735 1129.17 52.4253 1129.16 52.4827 1129.16 52.5345 1129.16 54.2768 1129.16 56.0132 1129.16 57.7555 1129.16 57.7843 1129.16 57.8188 1129.16 57.8475 1129.15 58.0085 1129.09 58.1465 1128.94 58.2443 1128.18 58.7618 1127.79 59.6932 1128.01 60.6305 1128.23 61.608 1129.05 62.2865 1129.98 62.3785 1130.02 62.3843 1130.05 62.3957 1130.09 62.4015 1130.17 62.4015 1130.26 62.4015 1130.34 62.4015 1130.38 62.3957 1130.42 62.3785 1130.45 62.3785 1131.29 62.298 1132.13 61.7057 1132.39 60.7282 1132.66 59.7565 1132.27 58.779 1131.48 58.2443 1131.34 58.1465 1131.28 58.0143 1131.26 57.8475 1131.26 57.813 1131.26 57.7785 1131.26 57.744 1131.26 56.0018 1131.26 54.2537 1131.26 52.5115 1131.26 50.3207 1131.26 48.1243 1131.26 45.9335 1131.26 45.2262 1131.26 44.5247 1131.26 43.8175 1131.26 43.7658 1131.26 43.7083 1131.28 43.6507 1131.3 43.645 1131.33 43.6393 1131.35 43.6393 1131.77 43.6393 1132.19 43.6393 1132.61 43.6393 1132.64 43.6393 1132.66 43.645 1132.69 43.645 1132.7 43.6738 1132.7 43.6968 1132.7 43.7255 1132.7 43.7715 1132.7 43.8175 1132.7 43.8635 1132.7 46.7442 1132.7 49.6307 1132.7 52.5115 1132.7 52.6093 1132.7 52.7127 1132.73 52.8105 1132.77 53.0233 1132.88 53.2015 1133.03 53.351 1133.15 53.466 1133.27 53.5753 1133.39 53.6845 1134 54.2422 1134.61 54.8057 1135.22 55.3635 1135.29 55.4268 1135.34 55.5015 1135.38 55.5877 1135.4 55.6453 1135.41 55.7028 1135.39 55.766 1135.33 55.9902 1135.32 56.2203 1135.33 56.4503 1135.35 56.893 1135.49 57.2955 1135.75 57.6578 1136.11 58.1522 1136.6 58.457 1137.2 58.5605 1138.45 58.7733 1139.56 57.951 1139.81 56.7952 1140.06 55.5648 1139.29 54.4205 1138.16 54.1273 1137.91 54.064 1137.67 54.0353 1137.41 54.0583 1137.36 54.064 1137.3 54.0698 1137.25 54.0698 1137.05 54.0812 1136.89 54.0295 1136.74 53.8973 1136.55 53.719 1136.36 53.5465 1136.17 53.3682 1135.74 52.9772 1135.32 52.592 1134.9 52.201 1134.88 52.1838 1134.86 52.1722 1134.84 52.155 1134.81 52.132 1134.8 52.1032 1134.8 52.063 1134.8 52.04 1134.8 52.017 1134.8 51.994 1134.8 50.9303 1134.8 49.8722 1134.8 48.8085 1134.8 48.7682 1134.81 48.728 1134.81 48.6763 1134.84 48.6705 1134.86 48.6647 1134.88 48.6647 1134.9 48.6647 1134.92 48.6647 1134.94 48.6647 1136.63 48.6647 1138.32 48.6647 1140 48.6647 1140.06 48.6647 1140.12 48.6705 1140.17 48.6878 1140.31 48.7223 1140.42 48.797 1140.5 48.9178 1140.81 49.3662 1141.23 49.6653 1141.77 49.809 1143.04 50.154 1144.33 49.3432 1144.58 48.0667 1144.82 46.8593 1144.07 45.669 1142.84 45.3988 1141.94 45.1975 1141.02 45.5713 1140.5 46.313 1140.48 46.3418 1140.46 46.3763 1140.44 46.405 1140.39 46.4683 1140.33 46.5028 1140.25 46.52 1140.09 46.5488 1139.94 46.5545 1139.78 46.5545 1138.17 46.5545 1136.56 46.5545 1134.95 46.5545 1134.91 46.5545 1134.87 46.5488 1134.83 46.5488 1134.82 46.52 1134.81 46.497 1134.81 46.4798 1134.81 46.451 1134.81 46.428 1134.81 46.3993 1134.81 45.531 1134.81 44.657 1134.81 43.7887 1134.81 43.7428 1134.81 43.6968 1134.82 43.645 1134.85 43.6393 1134.87 43.6335 1134.89 43.6335 1134.94 43.6335 1134.98 43.6335 1135.03 43.6335 1137.93 43.6335 1140.84 43.6335 1143.74 43.6335 1143.86 43.6335 1143.97 43.6278 1144.09 43.5933 1144.42 43.4955 1144.66 43.2828 1144.79 42.9665 1144.82 42.8975 1144.84 42.8228 1144.84 42.7422 1144.84 42.702 1144.85 42.6675 1144.87 42.633 1144.87 42.5928 1144.87 42.5583 1144.87 42.518 1144.84 42.4835 1144.85 42.449 1144.84 42.4088 1144.85 42.3857 1144.85 42.3455 1144.84 42.3053ZM1142.7 31.6275C1142.73 31.662 1142.71 31.6908 1142.7 31.7195 1142.45 32.6222 1141.9 33.2663 1141.03 33.6113 1140.73 33.7262 1140.42 33.7895 1140.1 33.801 1139.54 33.824 1139 33.7147 1138.51 33.4388 1137.91 33.0995 1137.5 32.5935 1137.27 31.9438 1137.24 31.8575 1137.22 31.7713 1137.19 31.6792 1137.18 31.6678 1137.19 31.6505 1137.19 31.6275 1137.21 31.6217 1137.22 31.616 1137.25 31.616 1137.28 31.616 1137.32 31.616 1137.35 31.616 1139.09 31.616 1140.82 31.616 1142.57 31.616 1142.61 31.6217 1142.66 31.616 1142.7 31.6275ZM1138.75 29.6208C1138.77 29.5977 1138.78 29.5805 1138.79 29.5633 1139.16 28.9883 1139.52 28.4132 1139.89 27.8382 1139.91 27.8037 1139.93 27.775 1139.96 27.7348 1139.98 27.752 1139.99 27.7577 1140 27.7635 1140.4 28.3845 1140.81 29.0055 1141.21 29.6265 1141.22 29.638 1141.22 29.6495 1141.22 29.6553 1141.21 29.6782 1141.19 29.6782 1141.17 29.6782 1141.15 29.6782 1141.12 29.6782 1141.1 29.6782 1140.35 29.6782 1139.6 29.6782 1138.86 29.6782 1138.82 29.6782 1138.79 29.6782 1138.74 29.6725 1138.75 29.6553 1138.75 29.6323 1138.75 29.6208ZM1119.3 29.6035C1119.7 28.9653 1120.11 28.3328 1120.51 27.6945 1120.52 27.683 1120.53 27.6772 1120.54 27.6715 1120.54 27.6715 1120.54 27.6715 1120.55 27.6715 1120.58 27.6945 1120.6 27.7348 1120.62 27.7692 1121.03 28.396 1121.43 29.017 1121.84 29.6437 1121.85 29.6495 1121.84 29.6553 1121.84 29.6667 1121.83 29.6725 1121.82 29.6782 1121.81 29.6782 1120.97 29.6782 1120.14 29.6782 1119.31 29.6782 1119.3 29.6782 1119.28 29.6725 1119.27 29.661 1119.28 29.638 1119.29 29.6208 1119.3 29.6035ZM1123.34 31.6333C1123.34 31.6333 1123.34 31.6333 1123.34 31.6333 1123.34 31.6333 1123.34 31.6333 1123.34 31.6333 1123.34 31.662 1123.34 31.685 1123.34 31.708 1123.05 32.7373 1122.4 33.41 1121.37 33.7033 1121.02 33.8068 1120.65 33.8298 1120.28 33.7952 1119.6 33.7262 1119.01 33.4618 1118.53 32.973 1118.18 32.6222 1117.96 32.1968 1117.83 31.7253 1117.82 31.7023 1117.82 31.6735 1117.81 31.6333 1117.81 31.6333 1117.81 31.6333 1117.81 31.6333 1117.81 31.6333 1117.81 31.6333 1117.81 31.6333 1117.85 31.6275 1117.88 31.6275 1117.92 31.6275 1119.15 31.6045 1123.22 31.6103 1123.34 31.6333ZM1118.75 48.7107C1118.21 48.7165 1117.83 48.291 1117.84 47.8022 1117.84 47.2272 1118.31 46.888 1118.74 46.8938 1119.25 46.888 1119.65 47.302 1119.65 47.8022 1119.65 48.2853 1119.27 48.7107 1118.75 48.7107ZM1122.46 56.5998C1122.3 56.7033 1122.13 56.755 1121.94 56.7493 1121.61 56.7378 1121.34 56.5998 1121.16 56.3237 1120.95 56.0132 1120.97 55.5705 1121.22 55.2715 1121.58 54.8288 1122.27 54.8115 1122.65 55.237 1123.04 55.6797 1122.92 56.3065 1122.46 56.5998ZM1130.23 61.0272C1129.76 61.033 1129.32 60.642 1129.32 60.1245 1129.32 59.6128 1129.73 59.216 1130.23 59.2103 1130.73 59.2103 1131.15 59.6128 1131.14 60.1245 1131.13 60.7168 1130.63 61.0445 1130.23 61.0272ZM1137.6 55.4268C1138.08 55.421 1138.52 55.8005 1138.51 56.341 1138.51 56.8643 1138.1 57.2495 1137.61 57.2495 1137.05 57.2495 1136.7 56.7952 1136.7 56.3353 1136.71 55.7718 1137.17 55.421 1137.6 55.4268ZM1142.39 46.727C1142.85 46.7213 1143.3 47.095 1143.29 47.6355 1143.28 48.2163 1142.8 48.5498 1142.37 48.544 1141.87 48.5382 1141.47 48.1185 1141.47 47.6297 1141.48 47.1007 1141.92 46.7155 1142.39 46.727Z" fill="url(#fill1)"/><path d="M1152.59 38.861 1157.02 38.861 1158 41.276 1160.84 41.276 1155.88 29.8795 1153.81 29.8795 1148.88 41.276 1151.65 41.276 1152.59 38.861ZM1154.77 33.1915 1156.17 36.7335 1153.39 36.7335 1154.77 33.1915Z" fill="url(#fill2)"/><path d="M1183.14 34.376C1182.75 34.0137 1182.29 33.7378 1181.76 33.548 1181.22 33.3582 1180.66 33.2605 1180.06 33.2605 1179.46 33.2605 1178.89 33.3582 1178.37 33.548 1177.84 33.7378 1177.37 34.0195 1176.98 34.376 1176.59 34.7383 1176.28 35.1695 1176.05 35.6698 1175.83 36.1758 1175.71 36.7393 1175.71 37.3603 1175.71 37.9813 1175.83 38.5448 1176.05 39.0508 1176.28 39.5567 1176.59 39.988 1176.98 40.3445 1177.37 40.7067 1177.83 40.9827 1178.37 41.1725 1178.89 41.368 1179.46 41.46 1180.06 41.46 1180.67 41.46 1181.23 41.3623 1181.76 41.1725 1182.29 40.977 1182.75 40.701 1183.14 40.3445 1183.53 39.9823 1183.85 39.551 1184.07 39.0508 1184.29 38.5448 1184.41 37.9813 1184.41 37.3603 1184.41 36.7393 1184.29 36.1758 1184.07 35.6698 1183.85 35.1637 1183.53 34.7325 1183.14 34.376ZM1181.48 38.792C1181.14 39.1543 1180.67 39.3382 1180.06 39.3382 1179.44 39.3382 1178.97 39.1543 1178.63 38.792 1178.29 38.4297 1178.12 37.9468 1178.12 37.3603 1178.12 36.768 1178.29 36.2907 1178.63 35.9285 1178.97 35.5662 1179.44 35.3822 1180.06 35.3822 1180.67 35.3822 1181.14 35.5662 1181.48 35.9285 1181.82 36.2907 1181.99 36.7738 1181.99 37.3603 1181.99 37.9525 1181.82 38.4297 1181.48 38.792Z" fill="url(#fill3)"/><path d="M1199.77 31.133 1197.35 31.133 1197.35 33.4502 1195.81 33.4502 1195.81 35.3822 1197.35 35.3822 1197.35 39.1025C1197.35 39.5338 1197.43 39.896 1197.57 40.195 1197.71 40.494 1197.92 40.7412 1198.17 40.9253 1198.43 41.115 1198.73 41.2472 1199.08 41.3335 1199.42 41.4198 1199.8 41.46 1200.2 41.46 1200.49 41.46 1200.77 41.4427 1201.06 41.414 1201.34 41.3795 1201.62 41.3162 1201.89 41.2185L1201.89 39.206C1201.79 39.3037 1201.63 39.367 1201.42 39.39 1201.21 39.4188 1201.04 39.4303 1200.91 39.4303 1200.65 39.4303 1200.45 39.3958 1200.29 39.3268 1200.14 39.2578 1200.02 39.16 1199.95 39.0278 1199.87 38.9013 1199.82 38.746 1199.8 38.5677 1199.78 38.3895 1199.77 38.194 1199.77 37.9813L1199.77 35.3708 1201.89 35.3708 1201.89 33.4388 1199.77 33.4388 1199.77 31.133Z" fill="url(#fill4)"/><path d="M1190.52 33.2547C1189.99 33.2547 1189.54 33.3755 1189.19 33.617 1188.83 33.8585 1188.53 34.2207 1188.27 34.7038L1188.23 34.7038 1188.23 33.4502 1185.82 33.4502 1185.82 41.276 1188.23 41.276 1188.23 38.01C1188.23 37.6247 1188.26 37.2682 1188.3 36.9463 1188.34 36.6243 1188.43 36.3483 1188.58 36.1182 1188.72 35.8883 1188.93 35.71 1189.2 35.5778 1189.47 35.4512 1189.83 35.3822 1190.29 35.3822 1190.47 35.3822 1190.65 35.3938 1190.81 35.4225 1190.98 35.4512 1191.15 35.4915 1191.32 35.5433L1191.32 33.3353C1191.2 33.3008 1191.07 33.2835 1190.94 33.272 1190.8 33.2605 1190.66 33.2547 1190.52 33.2547Z" fill="url(#fill5)"/><path d="M1192.41 33.4502 1194.82 33.4502 1194.82 41.276 1192.41 41.276Z" fill="url(#fill6)"/><path d="M1161.71 29.1033 1164.12 29.1033 1164.12 41.276 1161.71 41.276Z" fill="url(#fill7)"/><path d="M1210.11 34.3185C1209.9 33.985 1209.61 33.7262 1209.23 33.5365 1208.86 33.3467 1208.36 33.2547 1207.75 33.2547 1207.46 33.2547 1207.19 33.295 1206.94 33.3698 1206.7 33.4445 1206.48 33.5423 1206.3 33.6572 1206.11 33.778 1205.96 33.9103 1205.83 34.0597 1205.71 34.2093 1205.61 34.3587 1205.56 34.5083L1205.52 34.5083 1205.52 29.0975 1203.11 29.0975 1203.11 41.2702 1205.52 41.2702 1205.52 37.3775C1205.52 37.1188 1205.54 36.8715 1205.57 36.6357 1205.6 36.4 1205.67 36.1872 1205.77 35.9975 1205.87 35.8078 1206.02 35.6582 1206.21 35.549 1206.41 35.434 1206.66 35.3822 1206.97 35.3822 1207.28 35.3822 1207.52 35.4455 1207.69 35.5778 1207.86 35.7043 1207.98 35.871 1208.06 36.078 1208.14 36.2793 1208.19 36.5035 1208.2 36.745 1208.22 36.9865 1208.23 37.2223 1208.23 37.4465L1208.23 41.276 1210.64 41.276 1210.64 36.9635C1210.64 36.4403 1210.6 35.9515 1210.53 35.4972 1210.46 35.043 1210.32 34.652 1210.11 34.3185Z" fill="url(#fill8)"/><path d="M1224.52 35.3247C1224.43 34.9108 1224.28 34.5543 1224.07 34.2438 1223.87 33.939 1223.58 33.6975 1223.22 33.5192 1222.86 33.341 1222.42 33.2547 1221.89 33.2547 1221.31 33.2547 1220.82 33.364 1220.43 33.5768 1220.03 33.7895 1219.69 34.1517 1219.41 34.6578 1219.2 34.1748 1218.88 33.8183 1218.45 33.594 1218.03 33.3698 1217.55 33.2547 1217 33.2547 1216.71 33.2547 1216.44 33.295 1216.19 33.3698 1215.95 33.4445 1215.73 33.5423 1215.53 33.6572 1215.34 33.778 1215.17 33.9103 1215.03 34.0597 1214.9 34.2093 1214.79 34.3587 1214.71 34.5083L1214.68 34.5083 1214.68 33.4445 1212.36 33.4445 1212.36 41.2702 1214.77 41.2702 1214.77 37.3775C1214.77 37.1188 1214.79 36.8715 1214.82 36.6357 1214.85 36.4 1214.92 36.1872 1215.02 35.9975 1215.13 35.8078 1215.27 35.6582 1215.46 35.549 1215.66 35.434 1215.91 35.3822 1216.22 35.3822 1216.51 35.3822 1216.71 35.4455 1216.86 35.5778 1217.01 35.7043 1217.11 35.8595 1217.18 36.0435 1217.24 36.2275 1217.28 36.4173 1217.29 36.6243 1217.3 36.8255 1217.31 36.998 1217.31 37.1418L1217.31 41.2817 1219.73 41.2817 1219.73 37.1418C1219.73 36.906 1219.75 36.6817 1219.8 36.4632 1219.85 36.2505 1219.93 36.0608 1220.04 35.8997 1220.16 35.7388 1220.31 35.6123 1220.49 35.5202 1220.68 35.4283 1220.91 35.3822 1221.19 35.3822 1221.59 35.3822 1221.86 35.5145 1222.02 35.779 1222.17 36.0435 1222.26 36.354 1222.26 36.722L1222.26 41.276 1224.67 41.276 1224.67 36.653C1224.65 36.1815 1224.61 35.7388 1224.52 35.3247Z" fill="url(#fill9)"/><path d="M1193.61 29.5863C1193.23 29.5863 1192.9 29.7243 1192.63 29.9945 1192.35 30.2705 1192.22 30.5983 1192.22 30.9835 1192.22 31.3688 1192.36 31.7023 1192.63 31.9725 1192.9 32.2485 1193.23 32.3808 1193.61 32.3808 1194 32.3808 1194.33 32.2428 1194.6 31.9725 1194.88 31.6965 1195.01 31.3688 1195.01 30.9835 1195.01 30.5983 1194.87 30.2648 1194.6 29.9945 1194.33 29.7243 1194 29.5863 1193.61 29.5863Z" fill="url(#fill10)"/><path d="M1174.07 40.6147 1174.07 33.4502 1171.85 33.4502 1171.85 34.4795 1171.82 34.4795C1171.72 34.3415 1171.59 34.1978 1171.43 34.054 1171.27 33.9103 1171.07 33.778 1170.85 33.6572 1170.63 33.5365 1170.37 33.4445 1170.09 33.3698 1169.8 33.295 1169.49 33.2547 1169.14 33.2547 1168.58 33.2547 1168.08 33.3698 1167.65 33.5998 1167.2 33.8298 1166.84 34.1345 1166.53 34.5083 1166.22 34.882 1165.99 35.319 1165.82 35.8135 1165.65 36.308 1165.57 36.814 1165.57 37.3258 1165.57 37.918 1165.66 38.4585 1165.85 38.953 1166.03 39.4475 1166.29 39.873 1166.63 40.2353 1166.97 40.5975 1167.37 40.8735 1167.84 41.0747 1168.31 41.276 1168.84 41.3737 1169.42 41.3737 1169.78 41.3737 1170.17 41.2933 1170.59 41.138 1171 40.9827 1171.34 40.7183 1171.63 40.3388L1171.66 40.3388 1171.66 41.0978C1171.66 41.6555 1171.49 42.1155 1171.14 42.472 1170.79 42.8343 1170.25 43.0125 1169.5 43.0125 1169.01 43.0125 1168.56 42.9205 1168.14 42.7365 1167.73 42.5525 1167.34 42.3053 1166.96 41.9948L1165.62 43.99C1166.19 44.4385 1166.81 44.7432 1167.49 44.8985 1168.17 45.0537 1168.85 45.1343 1169.55 45.1343 1171.07 45.1343 1172.21 44.749 1172.95 43.9843 1173.7 43.2195 1174.07 42.0925 1174.07 40.6147ZM1171.7 38.0445C1171.6 38.2745 1171.47 38.4815 1171.29 38.654 1171.11 38.8323 1170.91 38.976 1170.67 39.0795 1170.44 39.1888 1170.18 39.2405 1169.91 39.2405 1169.63 39.2405 1169.38 39.1888 1169.15 39.0795 1168.92 38.9703 1168.71 38.8323 1168.54 38.654 1168.36 38.4757 1168.22 38.2745 1168.13 38.0445 1168.03 37.8145 1167.99 37.5672 1167.99 37.3143 1167.99 37.0555 1168.03 36.814 1168.13 36.584 1168.23 36.354 1168.37 36.147 1168.54 35.9745 1168.72 35.7962 1168.92 35.6525 1169.15 35.549 1169.38 35.4398 1169.63 35.388 1169.91 35.388 1170.18 35.388 1170.44 35.4398 1170.67 35.549 1170.91 35.6582 1171.11 35.7962 1171.29 35.9745 1171.47 36.1528 1171.61 36.354 1171.7 36.584 1171.8 36.814 1171.84 37.0612 1171.84 37.3143 1171.85 37.573 1171.8 37.8145 1171.7 38.0445Z" fill="url(#fill11)"/><path d="M1153.8 42.8515 1148.87 54.248 1151.65 54.248 1152.59 51.833 1157.02 51.833 1158 54.248 1160.84 54.248 1155.88 42.8515 1153.8 42.8515ZM1153.38 49.7113 1154.77 46.1693 1156.17 49.7113 1153.38 49.7113Z" fill="url(#fill12)"/><path d="M1176.71 47.2617 1176.68 47.2617C1176.39 46.888 1176.04 46.6178 1175.61 46.4625 1175.17 46.3073 1174.7 46.2267 1174.2 46.2267 1173.64 46.2267 1173.14 46.3418 1172.7 46.5718 1172.26 46.8018 1171.89 47.1123 1171.58 47.4975 1171.28 47.8828 1171.04 48.3255 1170.87 48.8257 1170.71 49.326 1170.63 49.8493 1170.63 50.3955 1170.63 50.9878 1170.72 51.5282 1170.9 52.0228 1171.09 52.5173 1171.34 52.9428 1171.68 53.305 1172.02 53.6673 1172.43 53.9432 1172.9 54.1445 1173.37 54.3457 1173.9 54.4435 1174.47 54.4435 1174.74 54.4435 1175 54.4032 1175.25 54.3285 1175.51 54.2537 1175.74 54.156 1175.94 54.041 1176.15 53.9202 1176.34 53.7938 1176.49 53.6443 1176.65 53.5005 1176.77 53.3568 1176.87 53.2188L1176.91 53.2188 1176.91 54.248 1179.12 54.248 1179.12 42.081 1176.71 42.081 1176.71 47.2617ZM1176.4 51.7697C1176.06 52.132 1175.59 52.316 1174.97 52.316 1174.36 52.316 1173.89 52.132 1173.55 51.7697 1173.21 51.4075 1173.04 50.9245 1173.04 50.338 1173.04 49.7458 1173.21 49.2685 1173.55 48.9062 1173.89 48.544 1174.36 48.36 1174.97 48.36 1175.59 48.36 1176.06 48.544 1176.4 48.9062 1176.74 49.2685 1176.91 49.7515 1176.91 50.338 1176.91 50.9303 1176.73 51.4075 1176.4 51.7697Z" fill="url(#fill13)"/><path d="M1166.79 50.3207C1166.79 50.5795 1166.77 50.8268 1166.74 51.0625 1166.71 51.2982 1166.65 51.511 1166.54 51.7007 1166.44 51.8905 1166.3 52.04 1166.1 52.1493 1165.91 52.2643 1165.66 52.316 1165.34 52.316 1165.03 52.316 1164.79 52.2528 1164.62 52.1205 1164.46 51.994 1164.34 51.8273 1164.26 51.6203 1164.17 51.419 1164.13 51.1948 1164.11 50.9533 1164.09 50.7118 1164.09 50.476 1164.09 50.2518L1164.09 46.4222 1161.67 46.4222 1161.67 50.7347C1161.67 51.258 1161.71 51.7468 1161.78 52.201 1161.85 52.6495 1161.98 53.0462 1162.2 53.374 1162.4 53.7075 1162.7 53.9663 1163.08 54.156 1163.46 54.3457 1163.96 54.4378 1164.57 54.4378 1164.86 54.4378 1165.13 54.3975 1165.38 54.3228 1165.62 54.248 1165.84 54.1502 1166.04 54.0353 1166.23 53.9145 1166.39 53.7822 1166.53 53.6328 1166.66 53.4832 1166.77 53.3338 1166.85 53.1843L1166.89 53.1843 1166.89 54.248 1169.21 54.248 1169.21 46.428 1166.79 46.428 1166.79 50.3207Z" fill="url(#fill14)"/><path d="M1188.45 44.105 1186.03 44.105 1186.03 46.4222 1184.48 46.4222 1184.48 48.36 1186.03 48.36 1186.03 52.0802C1186.03 52.5115 1186.1 52.8737 1186.25 53.1728 1186.39 53.4718 1186.59 53.719 1186.85 53.903 1187.11 54.0928 1187.41 54.225 1187.76 54.3112 1188.1 54.3975 1188.47 54.4378 1188.88 54.4378 1189.16 54.4378 1189.45 54.4205 1189.73 54.3918 1190.02 54.3573 1190.3 54.294 1190.57 54.1963L1190.57 52.1838C1190.46 52.2815 1190.31 52.3447 1190.1 52.3678 1189.89 52.3965 1189.72 52.408 1189.59 52.408 1189.33 52.408 1189.12 52.3735 1188.97 52.3045 1188.81 52.2355 1188.7 52.1378 1188.62 52.0055 1188.55 51.879 1188.5 51.7238 1188.48 51.5455 1188.46 51.3672 1188.45 51.1718 1188.45 50.959L1188.45 48.36 1190.57 48.36 1190.57 46.428 1188.45 46.428 1188.45 44.105Z" fill="url(#fill15)"/><path d="M1181.09 46.428 1183.51 46.428 1183.51 54.2537 1181.09 54.2537Z" fill="url(#fill16)"/><path d="M1182.3 42.564C1181.91 42.564 1181.58 42.702 1181.31 42.9723 1181.03 43.2483 1180.9 43.576 1180.9 43.9613 1180.9 44.3465 1181.04 44.68 1181.31 44.9502 1181.59 45.2262 1181.91 45.3585 1182.3 45.3585 1182.68 45.3585 1183.02 45.2205 1183.29 44.9502 1183.56 44.6742 1183.7 44.3465 1183.7 43.9613 1183.7 43.576 1183.56 43.2425 1183.29 42.9723 1183.01 42.6963 1182.68 42.564 1182.3 42.564Z" fill="url(#fill17)"/></g></g></g><rect x="850" y="513" width="119" height="46" fill="#FFFFFF"/><text fill="#005BA8" font-family="Avenir Heavy,Avenir Heavy_MSFontService,sans-serif" font-weight="900" font-size="24" transform="translate(873.257 544)">Stap 4</text><rect x="758" y="157" width="302" height="124" fill="#FFFFFF"/><text fill="#005BA8" font-family="Avenir Heavy,Avenir Heavy_MSFontService,sans-serif" font-weight="900" font-size="21.3333" transform="translate(823.312 196)">Normatief advies</text><text fill="#7F7F7F" font-family="Avenir Book,Avenir Book_MSFontService,sans-serif" font-weight="400" font-size="16" transform="translate(791.625 217)">Normatief advies van commissie,</text><text fill="#7F7F7F" font-family="Avenir Book,Avenir Book_MSFontService,sans-serif" font-weight="400" font-size="16" transform="translate(784.385 236)">wordt samen met probleemstelling</text><text fill="#7F7F7F" font-family="Avenir Book,Avenir Book_MSFontService,sans-serif" font-weight="400" font-size="16" transform="translate(797.159 255)">gepubliceerd als</text><text fill="#7F7F7F" font-family="Avenir Book,Avenir Book_MSFontService,sans-serif" font-style="oblique" font-weight="400" font-size="16" transform="translate(920.205 255)">algoprudentie</text><rect x="639" y="238" width="134" height="46" fill="#FFFFFF"/><text fill="#5689BA" font-family="Avenir Heavy,Avenir Heavy_MSFontService,sans-serif" font-weight="900" font-size="24" transform="translate(669.404 269)">Stap 3</text><rect x="572" y="507" width="275" height="124" fill="#FFFFFF"/><text fill="#5689BA" font-family="Avenir Heavy,Avenir Heavy_MSFontService,sans-serif" font-weight="900" font-size="21.3333" transform="translate(624.46 546)">Adviescommissie</text><text fill="#7F7F7F" font-family="Avenir Book,Avenir Book_MSFontService,sans-serif" font-weight="400" font-size="16" transform="translate(587.187 567)">Deliberatief</text><text fill="#7F7F7F" font-family="Avenir Book,Avenir Book_MSFontService,sans-serif" font-weight="400" font-size="16" transform="translate(675.02 567)">gesprek over ethische</text><text fill="#7F7F7F" font-family="Avenir Book,Avenir Book_MSFontService,sans-serif" font-weight="400" font-size="16" transform="translate(616.88 586)">vraagstuk door diverse en</text><text fill="#7F7F7F" font-family="Avenir Book,Avenir Book_MSFontService,sans-serif" font-weight="400" font-size="16" transform="translate(612.46 605)">inclusieve adviescommissie</text><rect x="453" y="513" width="134" height="46" fill="#FFFFFF"/><text fill="#8DADC7" font-family="Avenir Heavy,Avenir Heavy_MSFontService,sans-serif" font-weight="900" font-size="24" transform="translate(483.706 544)">Stap 2</text><rect x="413" y="172" width="214" height="100" fill="#FFFFFF"/><text fill="#5689BA" font-family="Avenir Heavy,Avenir Heavy_MSFontService,sans-serif" font-weight="900" font-size="21.3333" transform="translate(435.963 171)">Probleemstelling</text><text fill="#7F7F7F" font-family="Avenir Book,Avenir Book_MSFontService,sans-serif" font-weight="400" font-size="16" transform="translate(433.289 192)">Beschrijven van ethische</text><text fill="#7F7F7F" font-family="Avenir Book,Avenir Book_MSFontService,sans-serif" font-weight="400" font-size="16" transform="translate(447.536 211)">vraagstuk, juridische</text><text fill="#7F7F7F" font-family="Avenir Book,Avenir Book_MSFontService,sans-serif" font-weight="400" font-size="16" transform="translate(444.289 230)">aspecten, statistische</text><text fill="#7F7F7F" font-family="Avenir Book,Avenir Book_MSFontService,sans-serif" font-weight="400" font-size="16" transform="translate(435.429 250)">methodologie en horen</text><text fill="#7F7F7F" font-family="Avenir Book,Avenir Book_MSFontService,sans-serif" font-weight="400" font-size="16" transform="translate(449.596 269)">van betrokkenen en</text><text fill="#7F7F7F" font-family="Avenir Book,Avenir Book_MSFontService,sans-serif" font-weight="400" font-size="16" transform="translate(472.623 288)">benadeelden</text><rect x="185" y="504" width="272" height="124" fill="#FFFFFF"/><text fill="#C6D6D7" font-family="Avenir Heavy,Avenir Heavy_MSFontService,sans-serif" font-weight="900" font-size="21.3333" transform="translate(206.303 534)">Identificeren vraagstuk</text><text fill="#7F7F7F" font-family="Avenir Book,Avenir Book_MSFontService,sans-serif" font-weight="400" font-size="16" transform="translate(213.323 555)">Identificeren van een concreet</text><text fill="#7F7F7F" font-family="Avenir Book,Avenir Book_MSFontService,sans-serif" font-weight="400" font-size="16" transform="translate(225.203 574)">ethische vraagstuk dat zich</text><text fill="#7F7F7F" font-family="Avenir Book,Avenir Book_MSFontService,sans-serif" font-weight="400" font-size="16" transform="translate(197.517 593)">voordoet in een algoritme of data</text><text fill="#7F7F7F" font-family="Avenir Book,Avenir Book_MSFontService,sans-serif" font-weight="400" font-size="16" transform="translate(438.897 593)">-</text><text fill="#7F7F7F" font-family="Avenir Book,Avenir Book_MSFontService,sans-serif" font-weight="400" font-size="16" transform="translate(294.537 613)">analyse</text><rect x="254" y="238" width="134" height="46" fill="#FFFFFF"/><text fill="#C6D6D7" font-family="Avenir Heavy,Avenir Heavy_MSFontService,sans-serif" font-weight="900" font-size="24" transform="translate(284.623 269)">Stap 1</text><path d="M215.223 394.444C219.04 329.962 269.939 281.071 328.91 285.244 382.921 289.066 425.816 336.387 428.834 395.477L409.824 396.637C407.165 342.619 365.689 301.229 317.185 304.191 272.688 306.908 237.047 346.258 234.221 395.788Z" fill="#C6D6D7" fill-rule="evenodd"/><path d="M207 395C207 386.716 213.716 380 222 380 230.284 380 237 386.716 237 395 237 403.284 230.284 410 222 410 213.716 410 207 403.284 207 395Z" stroke="#F1F2F2" stroke-width="8" stroke-miterlimit="8" fill="#FFFFFF" fill-rule="evenodd"/><path d="M621.775 393.091C617.94 457.849 566.801 506.947 507.555 502.755 453.294 498.915 410.2 451.394 407.167 392.054L426.265 390.888C428.939 445.133 470.609 486.695 519.34 483.72 564.043 480.99 599.849 441.477 602.689 391.741Z" fill="#8EAEC8" fill-rule="evenodd"/><path d="M405 394.5C405 385.94 411.716 379 420 379 428.284 379 435 385.94 435 394.5 435 403.06 428.284 410 420 410 411.716 410 405 403.06 405 394.5Z" stroke="#C6D6D7" stroke-width="8" stroke-miterlimit="8" fill="#FFFFFF" fill-rule="evenodd"/><path d="M602.223 396.444C606.04 331.962 656.939 283.071 715.91 287.244 769.921 291.066 812.816 338.387 815.834 397.477L796.824 398.637C794.165 344.619 752.689 303.229 704.185 306.191 659.688 308.908 624.047 348.258 621.221 397.788Z" fill="#5689BA" fill-rule="evenodd"/><path d="M597 397C597 388.716 603.716 382 612 382 620.284 382 627 388.716 627 397 627 405.284 620.284 412 612 412 603.716 412 597 405.284 597 397Z" stroke="#8EAEC8" stroke-width="8" stroke-miterlimit="8" fill="#FFFFFF" fill-rule="evenodd"/><path d="M1011.78 395.056C1007.98 459.815 957.091 508.93 898.119 504.757 844.087 500.933 801.171 453.389 798.165 394.024L817.174 392.863C819.82 447.158 861.286 488.772 909.791 485.81 954.309 483.091 989.968 443.518 992.781 393.712Z" fill="#005BA8" fill-rule="evenodd"/><path d="M793 397C793 388.716 799.94 382 808.5 382 817.06 382 824 388.716 824 397 824 405.284 817.06 412 808.5 412 799.94 412 793 405.284 793 397Z" stroke="#5589BB" stroke-width="8" stroke-miterlimit="8" fill="#FFFFFF" fill-rule="evenodd"/><path d="M987 394.5C987 385.94 993.716 379 1002 379 1010.28 379 1017 385.94 1017 394.5 1017 403.06 1010.28 410 1002 410 993.716 410 987 403.06 987 394.5Z" stroke="#005CA7" stroke-width="8" stroke-miterlimit="8" fill="#FFFFFF" fill-rule="evenodd"/></g></svg>