<svg width="1280" height="720" xmlns="http://www.w3.org/2000/svg" xmlns:xlink="http://www.w3.org/1999/xlink" overflow="hidden"><g><rect x="0" y="0" width="1280" height="720" fill="#FFFFFF"/><path d="M334.337 342.626C339.959 251.974 413.314 183.354 498.18 189.36 575.74 194.848 637.313 261.217 641.749 344.112L614.391 345.782C610.455 270.189 550.677 212.364 480.873 216.626 416.998 220.527 365.85 275.425 361.678 344.561Z" fill="#F2F2F2" fill-rule="evenodd"/><path d="M894.335 345.126C899.94 254.197 973.282 185.353 1058.15 191.359 1135.73 196.849 1197.33 263.44 1201.75 346.611L1174.39 348.282C1170.47 272.412 1110.7 214.363 1040.9 218.626 977.002 222.527 925.834 277.649 921.677 347.061Z" fill="#F2F2F2" fill-rule="evenodd"/><path d="M917.665 362.874C912.06 453.803 838.718 522.647 753.851 516.641 676.268 511.151 614.673 444.56 610.249 361.389L637.608 359.718C641.53 435.588 701.297 493.637 771.101 489.375 834.998 485.473 886.166 430.351 890.323 360.939Z" fill="#F2F2F2" fill-rule="evenodd"/><path d="M360.668 361.839C355.099 452.769 282.009 521.63 197.416 515.643 120.061 510.169 58.6434 443.555 54.2466 360.358L81.517 358.693C85.4108 434.613 144.972 492.714 214.55 488.465 278.263 484.574 329.285 429.393 333.415 359.91Z" fill="#F2F2F2" fill-rule="evenodd"/><rect x="966" y="528" width="172" height="64" fill="#FFFFFF"/><text fill="#005BA8" font-family="Avenir Heavy,Avenir Heavy_MSFontService,sans-serif" font-weight="900" font-size="24" transform="translate(1015.72 567)">Stap 4</text><rect x="835" y="32" width="434" height="139" fill="#FFFFFF"/><text fill="#005BA8" font-family="Avenir Heavy,Avenir Heavy_MSFontService,sans-serif" font-weight="900" font-size="21.3333" transform="translate(966.101 79)">Normatief advies</text><text fill="#7F7F7F" font-family="Avenir Book,Avenir Book_MSFontService,sans-serif" font-weight="400" font-size="16" transform="translate(934.414 100)">Normatief advies van commissie,</text><text fill="#7F7F7F" font-family="Avenir Book,Avenir Book_MSFontService,sans-serif" font-weight="400" font-size="16" transform="translate(865.654 119)">wordt samen met probleemstelling gepubliceerd als</text><text fill="#7F7F7F" font-family="Avenir Book,Avenir Book_MSFontService,sans-serif" font-style="oblique" font-weight="400" font-size="16" transform="translate(1001.47 138)">algoprudentie</text><rect x="663" y="141" width="192" height="64" fill="#FFFFFF"/><text fill="#5689BA" font-family="Avenir Heavy,Avenir Heavy_MSFontService,sans-serif" font-weight="900" font-size="24" transform="translate(722.979 181)">Stap 3</text><rect x="567" y="519" width="395" height="175" fill="#FFFFFF"/><text fill="#5689BA" font-family="Avenir Heavy,Avenir Heavy_MSFontService,sans-serif" font-weight="900" font-size="21.3333" transform="translate(725.749 593)">A</text><text fill="#5689BA" font-family="Avenir Heavy,Avenir Heavy_MSFontService,sans-serif" font-weight="900" font-size="21.3333" transform="translate(741.082 593)">nalyse</text><text fill="#7F7F7F" font-family="Avenir Book,Avenir Book_MSFontService,sans-serif" font-weight="400" font-size="16" transform="translate(596.289 614)">Uitgebreide onafhankelijke beoordeling van de</text><text fill="#7F7F7F" font-family="Avenir Book,Avenir Book_MSFontService,sans-serif" font-weight="400" font-size="16" transform="translate(641.669 633)">vraagstuk door de auditcommissie</text><rect x="397" y="528" width="192" height="64" fill="#FFFFFF"/><text fill="#8DADC7" font-family="Avenir Heavy,Avenir Heavy_MSFontService,sans-serif" font-weight="900" font-size="24" transform="translate(456.307 567)">Stap 2</text><rect x="339" y="24" width="308" height="139" fill="#FFFFFF"/><text fill="#5689BA" font-family="Avenir Heavy,Avenir Heavy_MSFontService,sans-serif" font-weight="900" font-size="21.3333" transform="translate(408.093 81)">Adviescommissie</text><text fill="#7F7F7F" font-family="Avenir Book,Avenir Book_MSFontService,sans-serif" font-weight="400" font-size="16" transform="translate(387.173 102)">Een onafhankelijke en diverse</text><text fill="#7F7F7F" font-family="Avenir Book,Avenir Book_MSFontService,sans-serif" font-weight="400" font-size="16" transform="translate(364.866 121)">auditcommissie van experts vormen</text><rect x="11" y="515" width="391" height="174" fill="#FFFFFF"/><text fill="#C6D6D7" font-family="Avenir Heavy,Avenir Heavy_MSFontService,sans-serif" font-weight="900" font-size="21.3333" transform="translate(92.0992 589)">Identificeren vraagstuk</text><text fill="#7F7F7F" font-family="Avenir Book,Avenir Book_MSFontService,sans-serif" font-weight="400" font-size="16" transform="translate(31.0325 610)">Identificeren van een concreet ethische vraagstuk</text><text fill="#7F7F7F" font-family="Avenir Book,Avenir Book_MSFontService,sans-serif" font-weight="400" font-size="16" transform="translate(27.1392 629)">dat zich voordoet in een algoritme of data</text><text fill="#7F7F7F" font-family="Avenir Book,Avenir Book_MSFontService,sans-serif" font-weight="400" font-size="16" transform="translate(328.186 629)">-</text><text fill="#7F7F7F" font-family="Avenir Book,Avenir Book_MSFontService,sans-serif" font-weight="400" font-size="16" transform="translate(333.519 629)">analyse</text><rect x="111" y="141" width="192" height="64" fill="#FFFFFF"/><text fill="#C6D6D7" font-family="Avenir Heavy,Avenir Heavy_MSFontService,sans-serif" font-weight="900" font-size="24" transform="translate(170.413 181)">Stap 1</text><path d="M54.3349 361.126C59.9401 270.197 133.282 201.353 218.149 207.359 295.732 212.849 357.327 279.44 361.751 362.611L334.392 364.282C330.47 288.412 270.703 230.363 200.899 234.626 137.002 238.527 85.8345 293.649 81.6766 363.061Z" fill="#C6D6D7" fill-rule="evenodd"/><path d="M43 361.5C43 349.626 52.8497 340 65 340 77.1503 340 87 349.626 87 361.5 87 373.374 77.1503 383 65 383 52.8497 383 43 373.374 43 361.5Z" stroke="#F1F2F2" stroke-width="8" stroke-miterlimit="8" fill="#FFFFFF" fill-rule="evenodd"/><path d="M637.666 359.339C632.081 449.992 558.978 518.628 474.386 512.642 397.053 507.17 335.658 440.779 331.249 357.858L358.519 356.193C362.426 431.836 421.998 489.713 491.576 485.464 555.267 481.575 606.27 426.617 610.414 357.41Z" fill="#8EAEC8" fill-rule="evenodd"/><path d="M327 361C327 349.402 336.626 340 348.5 340 360.374 340 370 349.402 370 361 370 372.598 360.374 382 348.5 382 336.626 382 327 372.598 327 361Z" stroke="#C6D6D7" stroke-width="8" stroke-miterlimit="8" fill="#FFFFFF" fill-rule="evenodd"/><path d="M611.334 363.661C616.919 273.008 690.022 204.372 774.614 210.358 851.947 215.83 913.343 282.221 917.751 365.142L890.481 366.807C886.573 291.164 827.002 233.287 757.424 237.536 693.733 241.425 642.73 296.383 638.586 365.59Z" fill="#5689BA" fill-rule="evenodd"/><path d="M603 364C603 352.402 612.85 343 625 343 637.15 343 647 352.402 647 364 647 375.598 637.15 385 625 385 612.85 385 603 375.598 603 364Z" stroke="#8EAEC8" stroke-width="8" stroke-miterlimit="8" fill="#FFFFFF" fill-rule="evenodd"/><path d="M1198.67 361.874C1193.06 452.803 1119.72 521.647 1034.85 515.641 957.268 510.151 895.673 443.56 891.249 360.389L918.608 358.718C922.53 434.588 982.297 492.637 1052.1 488.375 1116 484.473 1167.17 429.351 1171.32 359.939Z" fill="#005BA8" fill-rule="evenodd"/><path d="M885 364C885 352.402 894.85 343 907 343 919.15 343 929 352.402 929 364 929 375.598 919.15 385 907 385 894.85 385 885 375.598 885 364Z" stroke="#5589BB" stroke-width="8" stroke-miterlimit="8" fill="#FFFFFF" fill-rule="evenodd"/><path d="M1163 361C1163 349.402 1172.85 340 1185 340 1197.15 340 1207 349.402 1207 361 1207 372.598 1197.15 382 1185 382 1172.85 382 1163 372.598 1163 361Z" stroke="#005CA7" stroke-width="8" stroke-miterlimit="8" fill="#FFFFFF" fill-rule="evenodd"/></g></svg>