<?xml version="1.0" encoding="utf-8"?>
<!-- Generator: Adobe Illustrator 25.0.0, SVG Export Plug-In . SVG Version: 6.00 Build 0)  -->
<svg version="1.1" id="Layer_1" xmlns="http://www.w3.org/2000/svg" xmlns:xlink="http://www.w3.org/1999/xlink" x="0px" y="0px"
	 viewBox="0 0 600 400" style="enable-background:new 0 0 600 400;" xml:space="preserve">
<style type="text/css">
	.st0{fill:none;stroke:#F1F2F2;stroke-width:13;stroke-miterlimit:10;}
	.st1{fill:none;stroke:#8EAEC8;stroke-width:13;stroke-miterlimit:10;}
	.st2{fill:none;stroke:#C6D5D6;stroke-width:13;stroke-miterlimit:10;}
	.st3{fill:none;stroke:#015BA7;stroke-width:13;stroke-miterlimit:10;}
	.st4{fill:none;stroke:#5789BA;stroke-width:13;stroke-miterlimit:10;}
	.st5{fill:#C6D5D6;}
	.st6{font-family:'Avenir-Black';}
	.st7{font-size:18px;}
	.st8{fill:#8EAEC8;}
	.st9{fill:#5689BB;}
	.st10{fill:#025CA7;}
	.st11{fill:#FFFFFF;}
	.st12{fill:none;}
	.st13{font-size:14px;}
	.st14{fill:#787878;}
	.st15{font-family:'Avenir-Book';}
	.st16{font-size:10px;}
	.st17{font-size:9.75px;}
	.st18{fill:#707071;}
	.st19{fill:#F1F2F2;}
</style>
<path class="st0" d="M433.7,200c0-36.9,29.9-66.9,66.9-66.9s66.9,29.9,66.9,66.9"/>
<path class="st0" d="M433.7,200c0,36.9-29.9,66.9-66.9,66.9S300,236.9,300,200"/>
<path class="st0" d="M166.3,200c0,36.9-29.9,66.9-66.9,66.9s-66.9-30-66.9-66.9"/>
<path class="st1" d="M300,200c0,36.9-29.9,66.9-66.9,66.9S166.2,237,166.2,200"/>
<path class="st0" d="M166.3,200c0-36.9,29.9-66.9,66.9-66.9S300,163,300,200"/>
<path class="st2" d="M32.5,200c0-36.9,29.9-66.9,66.9-66.9s66.9,29.9,66.9,66.9"/>
<path class="st3" d="M567.5,200c0,36.9-29.9,66.9-66.9,66.9S433.7,237,433.7,200"/>
<path class="st4" d="M300,200c0-36.9,29.9-66.9,66.9-66.9s66.9,29.9,66.9,66.9"/>
<text transform="matrix(1 0 0 1 71.1494 114.2583)" class="st5 st6 st7">STEP 1</text>
<text transform="matrix(1 0 0 1 204.8918 309.1712)" class="st8 st6 st7">STEP 2</text>
<text transform="matrix(1 0 0 1 338.6342 114.4777)" class="st9 st6 st7">STEP 3</text>
<text transform="matrix(1 0 0 1 472.3765 309.3905)" class="st10 st6 st7">STEP 4</text>
<circle class="st11" cx="166.3" cy="200" r="10"/>
<path class="st5" d="M166.3,213.5c-7.4,0-13.5-6.1-13.5-13.5s6.1-13.5,13.5-13.5s13.5,6.1,13.5,13.5S173.7,213.5,166.3,213.5z
	 M166.3,193.5c-3.6,0-6.5,2.9-6.5,6.5s2.9,6.5,6.5,6.5s6.5-2.9,6.5-6.5S169.8,193.5,166.3,193.5z"/>
<rect x="37.2" y="296" class="st12" width="124.4" height="90.7"/>
<text transform="matrix(1 0 0 1 55.3079 306.5975)" class="st5 st6 st13">Identify issue</text>
<text transform="matrix(1 0 0 1 41.9079 331.5975)" class="st14 st15 st16">Identify a concrete ethical </text>
<text transform="matrix(1 0 0 1 39.8079 344.5975)" class="st14 st15 st16">concern in a real algorithm </text>
<text transform="matrix(1 0 0 1 54.6079 357.5975)" class="st14 st15 st16">or data-analysis tool</text>
<rect x="170.9" y="42.5" class="st12" width="124.4" height="90.7"/>
<text transform="matrix(1 0 0 1 174.5395 53.0508)" class="st8 st6 st13">Audit commission</text>
<text transform="matrix(1 0 0 1 174.7395 78.0508)" class="st14 st15 st16">Form an independent and </text>
<text transform="matrix(1 0 0 1 170.9395 91.0508)" class="st14 st15 st16">diverse audit commission of </text>
<text transform="matrix(1 0 0 1 216.6395 104.0508)" class="st14 st15 st16">experts</text>
<rect x="438.4" y="42.5" class="st12" width="124.4" height="90.7"/>
<text transform="matrix(1 0 0 1 477.9128 53.0508)" class="st10 st6 st13">Advice</text>
<text transform="matrix(1 0 0 1 439.7128 78.0508)" class="st14 st15 st17">Advice by audit commission </text>
<text transform="matrix(1 0 0 1 442.0128 91.0508)" class="st14 st15 st17">is published and shared on </text>
<text transform="matrix(1 0 0 1 475.2128 104.0508)" class="st14 st15 st17">our website</text>
<rect x="290.7" y="295" class="st12" width="152.3" height="73.9"/>
<text transform="matrix(1 0 0 1 339.8935 305.5352)" class="st9 st6 st13">Analysis</text>
<text transform="matrix(1 0 0 1 301.6935 330.5352)" class="st18 st15 st16">Comprehensive independent </text>
<text transform="matrix(1 0 0 1 314.6935 343.5352)" class="st18 st15 st16">review of issue by audit </text>
<text transform="matrix(1 0 0 1 340.5935 356.5352)" class="st18 st15 st16">commission</text>
<circle class="st11" cx="32.5" cy="200" r="10"/>
<path class="st19" d="M32.5,213.5c-7.4,0-13.5-6.1-13.5-13.5s6.1-13.5,13.5-13.5S46,192.5,46,200S40,213.5,32.5,213.5z M32.5,193.5
	c-3.6,0-6.5,2.9-6.5,6.5s2.9,6.5,6.5,6.5s6.5-2.9,6.5-6.5S36.1,193.5,32.5,193.5z"/>
<circle class="st11" cx="300" cy="200" r="10"/>
<path class="st8" d="M300,213.5c-7.4,0-13.5-6.1-13.5-13.5s6.1-13.5,13.5-13.5s13.5,6.1,13.5,13.5S307.4,213.5,300,213.5z
	 M300,193.5c-3.6,0-6.5,2.9-6.5,6.5s2.9,6.5,6.5,6.5s6.5-2.9,6.5-6.5S303.6,193.5,300,193.5z"/>
<circle class="st11" cx="433.7" cy="200" r="10"/>
<path class="st9" d="M433.7,213.5c-7.4,0-13.5-6.1-13.5-13.5s6.1-13.5,13.5-13.5s13.5,6.1,13.5,13.5S441.2,213.5,433.7,213.5z
	 M433.7,193.5c-3.6,0-6.5,2.9-6.5,6.5s2.9,6.5,6.5,6.5s6.5-2.9,6.5-6.5S437.3,193.5,433.7,193.5z"/>
<circle class="st11" cx="567.5" cy="200" r="10"/>
<path class="st10" d="M567.5,213.5c-7.4,0-13.5-6.1-13.5-13.5s6.1-13.5,13.5-13.5s13.5,6,13.5,13.5S574.9,213.5,567.5,213.5z
	 M567.5,193.5c-3.6,0-6.5,2.9-6.5,6.5s2.9,6.5,6.5,6.5s6.5-2.9,6.5-6.5S571.1,193.5,567.5,193.5z"/>
</svg>
