<svg width="1280" height="720" xmlns="http://www.w3.org/2000/svg" xmlns:xlink="http://www.w3.org/1999/xlink" overflow="hidden"><g><rect x="0" y="0" width="1280" height="720" fill="#FFFFFF"/><rect x="956" y="526" width="169" height="67" fill="#FFFFFF"/><text fill="#005BA8" font-family="Avenir Heavy,Avenir Heavy_MSFontService,sans-serif" font-weight="900" font-size="29.3333" transform="translate(992.907 569)">S</text><text fill="#005BA8" font-family="Avenir Heavy,Avenir Heavy_MSFontService,sans-serif" font-weight="900" font-size="29.3333" transform="translate(1009.74 569)">TEP</text><text fill="#005BA8" font-family="Avenir Heavy,Avenir Heavy_MSFontService,sans-serif" font-weight="900" font-size="29.3333" transform="translate(1071.24 569)">4</text><rect x="827" y="1" width="427" height="182" fill="#FFFFFF"/><text fill="#005BA8" font-family="Avenir Heavy,Avenir Heavy_MSFontService,sans-serif" font-weight="900" font-size="24" transform="translate(941.594 53)">Normative</text><text fill="#005BA8" font-family="Avenir Heavy,Avenir Heavy_MSFontService,sans-serif" font-weight="900" font-size="24" transform="translate(1067.89 53)">advice</text><text fill="#7F7F7F" font-family="Avenir Book,Avenir Book_MSFontService,sans-serif" font-weight="400" font-size="18.6667" transform="translate(839.074 102)">Advice</text><text fill="#7F7F7F" font-family="Avenir Book,Avenir Book_MSFontService,sans-serif" font-weight="400" font-size="18.6667" transform="translate(901.24 102)">of</text><text fill="#7F7F7F" font-family="Avenir Book,Avenir Book_MSFontService,sans-serif" font-weight="400" font-size="18.6667" transform="translate(922.907 102)">commission</text><text fill="#7F7F7F" font-family="Avenir Book,Avenir Book_MSFontService,sans-serif" font-weight="400" font-size="18.6667" transform="translate(1026.07 102)">is</text><text fill="#7F7F7F" font-family="Avenir Book,Avenir Book_MSFontService,sans-serif" font-weight="400" font-size="18.6667" transform="translate(1043.74 102)">published</text><text fill="#7F7F7F" font-family="Avenir Book,Avenir Book_MSFontService,sans-serif" font-weight="400" font-size="18.6667" transform="translate(1130.91 102)">together</text><text fill="#7F7F7F" font-family="Avenir Book,Avenir Book_MSFontService,sans-serif" font-weight="400" font-size="18.6667" transform="translate(1207.91 102)">with</text><text fill="#7F7F7F" font-family="Avenir Book,Avenir Book_MSFontService,sans-serif" font-weight="400" font-size="18.6667" transform="translate(847.66 125)">problem</text><text fill="#7F7F7F" font-family="Avenir Book,Avenir Book_MSFontService,sans-serif" font-weight="400" font-size="18.6667" transform="translate(922.994 125)">statement.</text><text fill="#7F7F7F" font-family="Avenir Book,Avenir Book_MSFontService,sans-serif" font-weight="400" font-size="18.6667" transform="translate(1016.33 125)">Publicly</text><text fill="#7F7F7F" font-family="Avenir Book,Avenir Book_MSFontService,sans-serif" font-weight="400" font-size="18.6667" transform="translate(1085.33 125)">sharing</text><text fill="#7F7F7F" font-family="Avenir Book,Avenir Book_MSFontService,sans-serif" font-weight="400" font-size="18.6667" transform="translate(1150.83 125)">statement</text><text fill="#7F7F7F" font-family="Avenir Book,Avenir Book_MSFontService,sans-serif" font-weight="400" font-size="18.6667" transform="translate(899.074 147)">and</text><text fill="#7F7F7F" font-family="Avenir Book,Avenir Book_MSFontService,sans-serif" font-weight="400" font-size="18.6667" transform="translate(935.574 147)">advice</text><text fill="#7F7F7F" font-family="Avenir Book,Avenir Book_MSFontService,sans-serif" font-weight="400" font-size="18.6667" transform="translate(994.574 147)">is</text><text fill="#7F7F7F" font-family="Avenir Book,Avenir Book_MSFontService,sans-serif" font-weight="400" font-size="18.6667" transform="translate(1012.24 147)">called</text><text fill="#7F7F7F" font-family="Avenir Book,Avenir Book_MSFontService,sans-serif" font-style="oblique" font-weight="400" font-size="18.6667" transform="translate(1066.74 147)">algoprudence</text><rect x="671" y="141" width="188" height="67" fill="#FFFFFF"/><text fill="#5689BA" font-family="Avenir Heavy,Avenir Heavy_MSFontService,sans-serif" font-weight="900" font-size="29.3333" transform="translate(717.116 184)">S</text><text fill="#5689BA" font-family="Avenir Heavy,Avenir Heavy_MSFontService,sans-serif" font-weight="900" font-size="29.3333" transform="translate(733.95 184)">TEP</text><text fill="#5689BA" font-family="Avenir Heavy,Avenir Heavy_MSFontService,sans-serif" font-weight="900" font-size="29.3333" transform="translate(795.45 184)">3</text><rect x="565" y="512" width="388" height="182" fill="#FFFFFF"/><text fill="#5689BA" font-family="Avenir Heavy,Avenir Heavy_MSFontService,sans-serif" font-weight="900" font-size="24" transform="translate(652.467 575)">Advice</text><text fill="#5689BA" font-family="Avenir Heavy,Avenir Heavy_MSFontService,sans-serif" font-weight="900" font-size="24" transform="translate(736.134 575)">commission</text><text fill="#7F7F7F" font-family="Avenir Book,Avenir Book_MSFontService,sans-serif" font-weight="400" font-size="18.6667" transform="translate(583.301 624)">Deliberative</text><text fill="#7F7F7F" font-family="Avenir Book,Avenir Book_MSFontService,sans-serif" font-weight="400" font-size="18.6667" transform="translate(689.134 624)">conversation</text><text fill="#7F7F7F" font-family="Avenir Book,Avenir Book_MSFontService,sans-serif" font-weight="400" font-size="18.6667" transform="translate(799.801 624)">on issue at hand</text><text fill="#7F7F7F" font-family="Avenir Book,Avenir Book_MSFontService,sans-serif" font-weight="400" font-size="18.6667" transform="translate(579.547 647)">by</text><text fill="#7F7F7F" font-family="Avenir Book,Avenir Book_MSFontService,sans-serif" font-weight="400" font-size="18.6667" transform="translate(605.047 647)">diverse</text><text fill="#7F7F7F" font-family="Avenir Book,Avenir Book_MSFontService,sans-serif" font-weight="400" font-size="18.6667" transform="translate(669.881 647)">and</text><text fill="#7F7F7F" font-family="Avenir Book,Avenir Book_MSFontService,sans-serif" font-weight="400" font-size="18.6667" transform="translate(706.381 647)">inclusive</text><text fill="#7F7F7F" font-family="Avenir Book,Avenir Book_MSFontService,sans-serif" font-weight="400" font-size="18.6667" transform="translate(782.047 647)">advice</text><text fill="#7F7F7F" font-family="Avenir Book,Avenir Book_MSFontService,sans-serif" font-weight="400" font-size="18.6667" transform="translate(841.047 647)">commission</text><rect x="422" y="531" width="151" height="57" fill="#FFFFFF"/><text fill="#8DADC7" font-family="Avenir Heavy,Avenir Heavy_MSFontService,sans-serif" font-weight="900" font-size="29.3333" transform="translate(449.873 569)">S</text><text fill="#8DADC7" font-family="Avenir Heavy,Avenir Heavy_MSFontService,sans-serif" font-weight="900" font-size="29.3333" transform="translate(466.706 569)">TEP</text><text fill="#8DADC7" font-family="Avenir Heavy,Avenir Heavy_MSFontService,sans-serif" font-weight="900" font-size="29.3333" transform="translate(528.206 569)">2</text><rect x="346" y="19" width="303" height="145" fill="#FFFFFF"/><text fill="#5689BA" font-family="Avenir Heavy,Avenir Heavy_MSFontService,sans-serif" font-weight="900" font-size="24" transform="translate(390.09 53)">Problem</text><text fill="#5689BA" font-family="Avenir Heavy,Avenir Heavy_MSFontService,sans-serif" font-weight="900" font-size="24" transform="translate(491.49 53)">statement</text><text fill="#7F7F7F" font-family="Avenir Book,Avenir Book_MSFontService,sans-serif" font-weight="400" font-size="18.6667" transform="translate(360.956 102)">Description</text><text fill="#7F7F7F" font-family="Avenir Book,Avenir Book_MSFontService,sans-serif" font-weight="400" font-size="18.6667" transform="translate(461.29 102)">of</text><text fill="#7F7F7F" font-family="Avenir Book,Avenir Book_MSFontService,sans-serif" font-weight="400" font-size="18.6667" transform="translate(482.956 102)">ethical</text><text fill="#7F7F7F" font-family="Avenir Book,Avenir Book_MSFontService,sans-serif" font-weight="400" font-size="18.6667" transform="translate(542.623 102)">issue,</text><text fill="#7F7F7F" font-family="Avenir Book,Avenir Book_MSFontService,sans-serif" font-weight="400" font-size="18.6667" transform="translate(594.123 102)">legal</text><text fill="#7F7F7F" font-family="Avenir Book,Avenir Book_MSFontService,sans-serif" font-weight="400" font-size="18.6667" transform="translate(362.903 125)">aspects</text><text fill="#7F7F7F" font-family="Avenir Book,Avenir Book_MSFontService,sans-serif" font-weight="400" font-size="18.6667" transform="translate(425.403 125)">,</text><text fill="#7F7F7F" font-family="Avenir Book,Avenir Book_MSFontService,sans-serif" font-weight="400" font-size="18.6667" transform="translate(435.736 125)">statistical</text><text fill="#7F7F7F" font-family="Avenir Book,Avenir Book_MSFontService,sans-serif" font-weight="400" font-size="18.6667" transform="translate(517.236 125)">methodology</text><text fill="#7F7F7F" font-family="Avenir Book,Avenir Book_MSFontService,sans-serif" font-weight="400" font-size="18.6667" transform="translate(627.35 125)">,</text><text fill="#7F7F7F" font-family="Avenir Book,Avenir Book_MSFontService,sans-serif" font-weight="400" font-size="18.6667" transform="translate(427.043 147)">and</text><text fill="#7F7F7F" font-family="Avenir Book,Avenir Book_MSFontService,sans-serif" font-weight="400" font-size="18.6667" transform="translate(463.543 147)">stakeholders</text><rect x="26" y="513" width="384" height="182" fill="#FFFFFF"/><text fill="#C6D6D7" font-family="Avenir Heavy,Avenir Heavy_MSFontService,sans-serif" font-weight="900" font-size="24" transform="translate(143.624 577)">Identify</text><text fill="#C6D6D7" font-family="Avenir Heavy,Avenir Heavy_MSFontService,sans-serif" font-weight="900" font-size="24" transform="translate(236.818 577)">issue</text><text fill="#7F7F7F" font-family="Avenir Book,Avenir Book_MSFontService,sans-serif" font-weight="400" font-size="18.6667" transform="translate(72.551 626)">Identify</text><text fill="#7F7F7F" font-family="Avenir Book,Avenir Book_MSFontService,sans-serif" font-weight="400" font-size="18.6667" transform="translate(139.884 626)">concrete</text><text fill="#7F7F7F" font-family="Avenir Book,Avenir Book_MSFontService,sans-serif" font-weight="400" font-size="18.6667" transform="translate(217.051 626)">ethical</text><text fill="#7F7F7F" font-family="Avenir Book,Avenir Book_MSFontService,sans-serif" font-weight="400" font-size="18.6667" transform="translate(276.718 626)">issue in</text><text fill="#7F7F7F" font-family="Avenir Book,Avenir Book_MSFontService,sans-serif" font-weight="400" font-size="18.6667" transform="translate(343.051 626)">an</text><text fill="#7F7F7F" font-family="Avenir Book,Avenir Book_MSFontService,sans-serif" font-weight="400" font-size="18.6667" transform="translate(92.051 649)">algorithm</text><text fill="#7F7F7F" font-family="Avenir Book,Avenir Book_MSFontService,sans-serif" font-weight="400" font-size="18.6667" transform="translate(176.718 649)">or data</text><text fill="#7F7F7F" font-family="Avenir Book,Avenir Book_MSFontService,sans-serif" font-weight="400" font-size="18.6667" transform="translate(235.884 649)">-</text><text fill="#7F7F7F" font-family="Avenir Book,Avenir Book_MSFontService,sans-serif" font-weight="400" font-size="18.6667" transform="translate(242.051 649)">analysis tool</text><rect x="124" y="141" width="189" height="67" fill="#FFFFFF"/><text fill="#C6D6D7" font-family="Avenir Heavy,Avenir Heavy_MSFontService,sans-serif" font-weight="900" font-size="29.3333" transform="translate(170.79 184)">S</text><text fill="#C6D6D7" font-family="Avenir Heavy,Avenir Heavy_MSFontService,sans-serif" font-weight="900" font-size="29.3333" transform="translate(187.623 184)">TEP</text><text fill="#C6D6D7" font-family="Avenir Heavy,Avenir Heavy_MSFontService,sans-serif" font-weight="900" font-size="29.3333" transform="translate(249.123 184)">1</text><path d="M67.2922 364.835C72.4781 270.302 144.156 198.442 227.39 204.332 303.879 209.745 364.668 279.376 368.782 366.293L341.955 367.931C338.367 288.166 279.962 226.893 211.504 231.073 148.455 234.923 97.931 293.305 94.1036 366.733Z" fill="#C6D6D7" fill-rule="evenodd"/><path d="M56 364C56 351.85 65.6259 342 77.5 342 89.3741 342 99 351.85 99 364 99 376.15 89.3741 386 77.5 386 65.6259 386 56 376.15 56 364Z" stroke="#F1F2F2" stroke-width="8" stroke-miterlimit="8" fill="#FFFFFF" fill-rule="evenodd"/><path d="M640.708 361.165C635.522 455.698 563.844 527.558 480.61 521.668 404.121 516.255 343.332 446.624 339.218 359.707L366.045 358.069C369.633 437.834 428.038 499.107 496.496 494.927 559.545 491.077 610.069 432.695 613.896 359.267Z" fill="#8EAEC8" fill-rule="evenodd"/><path d="M335 364C335 351.85 344.626 342 356.5 342 368.374 342 378 351.85 378 364 378 376.15 368.374 386 356.5 386 344.626 386 335 376.15 335 364Z" stroke="#C6D6D7" stroke-width="8" stroke-miterlimit="8" fill="#FFFFFF" fill-rule="evenodd"/><path d="M614.292 366.835C619.478 272.302 691.156 200.442 774.39 206.332 850.879 211.745 911.668 281.376 915.782 368.293L888.955 369.931C885.367 290.166 826.962 228.893 758.504 233.073 695.455 236.923 644.931 295.305 641.104 368.733Z" fill="#5689BA" fill-rule="evenodd"/><path d="M607 367C607 354.85 616.402 345 628 345 639.598 345 649 354.85 649 367 649 379.15 639.598 389 628 389 616.402 389 607 379.15 607 367Z" stroke="#8EAEC8" stroke-width="8" stroke-miterlimit="8" fill="#FFFFFF" fill-rule="evenodd"/><path d="M1191.71 364.165C1186.52 458.698 1114.84 530.558 1031.61 524.668 955.121 519.255 894.332 449.624 890.218 362.707L917.045 361.069C920.633 440.834 979.038 502.107 1047.5 497.927 1110.55 494.077 1161.07 435.695 1164.9 362.267Z" fill="#005BA8" fill-rule="evenodd"/><path d="M884 367C884 354.85 893.626 345 905.5 345 917.374 345 927 354.85 927 367 927 379.15 917.374 389 905.5 389 893.626 389 884 379.15 884 367Z" stroke="#5589BB" stroke-width="8" stroke-miterlimit="8" fill="#FFFFFF" fill-rule="evenodd"/><path d="M1157 364C1157 351.85 1166.63 342 1178.5 342 1190.37 342 1200 351.85 1200 364 1200 376.15 1190.37 386 1178.5 386 1166.63 386 1157 376.15 1157 364Z" stroke="#005CA7" stroke-width="8" stroke-miterlimit="8" fill="#FFFFFF" fill-rule="evenodd"/></g></svg>