<svg width="1280" height="720" xmlns="http://www.w3.org/2000/svg" xmlns:xlink="http://www.w3.org/1999/xlink" overflow="hidden"><g><rect x="0" y="0" width="1280" height="720" fill="#FFFFFF"/><rect x="956" y="522" width="171" height="65" fill="#FFFFFF"/><text fill="#005BA8" font-family="Avenir Heavy,Avenir Heavy_MSFontService,sans-serif" font-weight="900" font-size="29.3333" transform="translate(993.527 564)">S</text><text fill="#005BA8" font-family="Avenir Heavy,Avenir Heavy_MSFontService,sans-serif" font-weight="900" font-size="29.3333" transform="translate(1010.36 564)">TAP</text><text fill="#005BA8" font-family="Avenir Heavy,Avenir Heavy_MSFontService,sans-serif" font-weight="900" font-size="29.3333" transform="translate(1072.33 564)">4</text><rect x="826" y="0" width="431" height="178" fill="#FFFFFF"/><text fill="#005BA8" font-family="Avenir Heavy,Avenir Heavy_MSFontService,sans-serif" font-weight="900" font-size="24" transform="translate(944.86 50)">Normatief advies</text><text fill="#7F7F7F" font-family="Avenir Book,Avenir Book_MSFontService,sans-serif" font-weight="400" font-size="18.6667" transform="translate(904.84 99)">Normatief advies van commissie,</text><text fill="#7F7F7F" font-family="Avenir Book,Avenir Book_MSFontService,sans-serif" font-weight="400" font-size="18.6667" transform="translate(838.76 122)">wordt samen met probleemstelling gepubliceerd</text><text fill="#7F7F7F" font-family="Avenir Book,Avenir Book_MSFontService,sans-serif" font-weight="400" font-size="18.6667" transform="translate(969.26 144)">als</text><text fill="#7F7F7F" font-family="Avenir Book,Avenir Book_MSFontService,sans-serif" font-style="oblique" font-weight="400" font-size="18.6667" transform="translate(996.594 144)">algoprudentie</text><rect x="669" y="140" width="190" height="66" fill="#FFFFFF"/><text fill="#5689BA" font-family="Avenir Heavy,Avenir Heavy_MSFontService,sans-serif" font-weight="900" font-size="29.3333" transform="translate(715.716 182)">S</text><text fill="#5689BA" font-family="Avenir Heavy,Avenir Heavy_MSFontService,sans-serif" font-weight="900" font-size="29.3333" transform="translate(732.549 182)">TAP</text><text fill="#5689BA" font-family="Avenir Heavy,Avenir Heavy_MSFontService,sans-serif" font-weight="900" font-size="29.3333" transform="translate(794.516 182)">3</text><rect x="568" y="498" width="391" height="178" fill="#FFFFFF"/><text fill="#5689BA" font-family="Avenir Heavy,Avenir Heavy_MSFontService,sans-serif" font-weight="900" font-size="24" transform="translate(667.887 559)">Adviescommissie</text><text fill="#7F7F7F" font-family="Avenir Book,Avenir Book_MSFontService,sans-serif" font-weight="400" font-size="18.6667" transform="translate(584.134 608)">Deliberatief</text><text fill="#7F7F7F" font-family="Avenir Book,Avenir Book_MSFontService,sans-serif" font-weight="400" font-size="18.6667" transform="translate(686.467 608)">gesprek over ethisch vraagstuk</text><text fill="#7F7F7F" font-family="Avenir Book,Avenir Book_MSFontService,sans-serif" font-weight="400" font-size="18.6667" transform="translate(582.801 631)">door diverse en inclusieve adviescommissie</text><rect x="406" y="522" width="159" height="65" fill="#FFFFFF"/><text fill="#8DADC7" font-family="Avenir Heavy,Avenir Heavy_MSFontService,sans-serif" font-weight="900" font-size="29.3333" transform="translate(441.881 564)">S</text><text fill="#8DADC7" font-family="Avenir Heavy,Avenir Heavy_MSFontService,sans-serif" font-weight="900" font-size="29.3333" transform="translate(458.714 564)">TAP</text><text fill="#8DADC7" font-family="Avenir Heavy,Avenir Heavy_MSFontService,sans-serif" font-weight="900" font-size="29.3333" transform="translate(512.014 564)">2</text><rect x="294" y="23" width="363" height="142" fill="#FFFFFF"/><text fill="#5689BA" font-family="Avenir Heavy,Avenir Heavy_MSFontService,sans-serif" font-weight="900" font-size="24" transform="translate(380.391 44)">Probleemstelling</text><text fill="#7F7F7F" font-family="Avenir Book,Avenir Book_MSFontService,sans-serif" font-weight="400" font-size="18.6667" transform="translate(328.951 93)">Beschrijven van ethische vraagstuk,</text><text fill="#7F7F7F" font-family="Avenir Book,Avenir Book_MSFontService,sans-serif" font-weight="400" font-size="18.6667" transform="translate(344.865 116)">juridische aspecten, statistische</text><text fill="#7F7F7F" font-family="Avenir Book,Avenir Book_MSFontService,sans-serif" font-weight="400" font-size="18.6667" transform="translate(305.198 138)">methodologie en horen van betrokkenen</text><text fill="#7F7F7F" font-family="Avenir Book,Avenir Book_MSFontService,sans-serif" font-weight="400" font-size="18.6667" transform="translate(407.118 161)">en benadeelden</text><rect x="17" y="517" width="387" height="179" fill="#FFFFFF"/><text fill="#C6D6D7" font-family="Avenir Heavy,Avenir Heavy_MSFontService,sans-serif" font-weight="900" font-size="24" transform="translate(81.2651 568)">Identificeren</text><text fill="#C6D6D7" font-family="Avenir Heavy,Avenir Heavy_MSFontService,sans-serif" font-weight="900" font-size="24" transform="translate(230.025 568)">vraagstuk</text><text fill="#7F7F7F" font-family="Avenir Book,Avenir Book_MSFontService,sans-serif" font-weight="400" font-size="18.6667" transform="translate(47.7251 617)">Identificeren van een concreet ethische</text><text fill="#7F7F7F" font-family="Avenir Book,Avenir Book_MSFontService,sans-serif" font-weight="400" font-size="18.6667" transform="translate(67.4784 640)">vraagstuk dat zich voordoet in een</text><text fill="#7F7F7F" font-family="Avenir Book,Avenir Book_MSFontService,sans-serif" font-weight="400" font-size="18.6667" transform="translate(104.892 662)">algoritme of data</text><text fill="#7F7F7F" font-family="Avenir Book,Avenir Book_MSFontService,sans-serif" font-weight="400" font-size="18.6667" transform="translate(248.058 662)">-</text><text fill="#7F7F7F" font-family="Avenir Book,Avenir Book_MSFontService,sans-serif" font-weight="400" font-size="18.6667" transform="translate(254.225 662)">analyse</text><rect x="117" y="140" width="190" height="66" fill="#FFFFFF"/><text fill="#C6D6D7" font-family="Avenir Heavy,Avenir Heavy_MSFontService,sans-serif" font-weight="900" font-size="29.3333" transform="translate(164.036 182)">S</text><text fill="#C6D6D7" font-family="Avenir Heavy,Avenir Heavy_MSFontService,sans-serif" font-weight="900" font-size="29.3333" transform="translate(180.87 182)">TAP</text><text fill="#C6D6D7" font-family="Avenir Heavy,Avenir Heavy_MSFontService,sans-serif" font-weight="900" font-size="29.3333" transform="translate(242.836 182)">1</text><path d="M59.3138 361.231C64.7128 268.638 137.226 198.398 221.276 204.346 298.308 209.797 359.495 277.797 363.767 362.702L336.674 364.357C332.917 286.677 273.829 227.128 204.698 231.35 141.228 235.225 90.3849 291.865 86.3897 363.147Z" fill="#C6D6D7" fill-rule="evenodd"/><path d="M48 361.5C48 349.626 57.6259 340 69.5 340 81.3741 340 91 349.626 91 361.5 91 373.374 81.3741 383 69.5 383 57.6259 383 48 373.374 48 361.5Z" stroke="#F1F2F2" stroke-width="8" stroke-miterlimit="8" fill="#FFFFFF" fill-rule="evenodd"/><path d="M637.686 358.769C632.287 451.362 559.774 521.602 475.724 515.654 398.692 510.203 337.505 442.203 333.233 357.298L360.326 355.643C364.083 433.323 423.171 492.872 492.302 488.65 555.772 484.775 606.615 428.135 610.61 356.853Z" fill="#8EAEC8" fill-rule="evenodd"/><path d="M330 361C330 348.85 339.626 339 351.5 339 363.374 339 373 348.85 373 361 373 373.15 363.374 383 351.5 383 339.626 383 330 373.15 330 361Z" stroke="#C6D6D7" stroke-width="8" stroke-miterlimit="8" fill="#FFFFFF" fill-rule="evenodd"/><path d="M611.315 363.731C616.73 271.415 689.256 201.399 773.305 207.347 850.315 212.796 911.482 280.573 915.765 365.202L888.672 366.857C884.902 289.454 825.804 230.129 756.674 234.35 693.224 238.225 642.4 294.641 638.392 365.647Z" fill="#5689BA" fill-rule="evenodd"/><path d="M604 364.5C604 352.626 613.626 343 625.5 343 637.374 343 647 352.626 647 364.5 647 376.374 637.374 386 625.5 386 613.626 386 604 376.374 604 364.5Z" stroke="#8EAEC8" stroke-width="8" stroke-miterlimit="8" fill="#FFFFFF" fill-rule="evenodd"/><path d="M1193.69 361.769C1188.29 454.362 1115.77 524.602 1031.72 518.654 954.692 513.203 893.505 445.203 889.233 360.298L916.326 358.643C920.083 436.323 979.171 495.872 1048.3 491.65 1111.77 487.775 1162.62 431.135 1166.61 359.853Z" fill="#005BA8" fill-rule="evenodd"/><path d="M883 364.5C883 352.626 892.626 343 904.5 343 916.374 343 926 352.626 926 364.5 926 376.374 916.374 386 904.5 386 892.626 386 883 376.374 883 364.5Z" stroke="#5589BB" stroke-width="8" stroke-miterlimit="8" fill="#FFFFFF" fill-rule="evenodd"/><path d="M1159 361C1159 348.85 1168.63 339 1180.5 339 1192.37 339 1202 348.85 1202 361 1202 373.15 1192.37 383 1180.5 383 1168.63 383 1159 373.15 1159 361Z" stroke="#005CA7" stroke-width="8" stroke-miterlimit="8" fill="#FFFFFF" fill-rule="evenodd"/></g></svg>