<svg xmlns="http://www.w3.org/2000/svg" viewBox="0 0 100 125" x="0px" y="0px"><path fill="#005AA7" d="M65.14,42.76c0-3.97-3.23-7.19-7.19-7.19h-15.86c-3.97,0-7.19,3.23-7.19,7.19v7.75h30.25v-7.75Z"/><circle fill="#005AA7" cx="29.67" cy="28.22" r="5.05"/><circle fill="#005AA7" cx="70.33" cy="28.22" r="5.05"/><circle fill="#005AA7" cx="50" cy="21.73" r="7.22"/><path fill="#005AA7" d="M67.34,50.51h13.92v-6.71c0-2.78-2.26-5.04-5.04-5.04h-9.78c.57,1.21,.89,2.57,.89,4v7.75Z"/><path fill="#005AA7" d="M66.24,52.75H33.79c-.09,0-.19-.01-.27-.04H5.86v6.62h4.66c.06,0,.12,0,.18,0H94.14v-6.62h-27.63c-.09,.02-.18,.04-.27,.04Z"/><path fill="#005AA7" d="M32.68,42.76c0-1.43,.32-2.78,.89-4h-9.78c-2.78,0-5.04,2.26-5.04,5.04v6.71h13.92v-7.75Z"/><path fill="#005AA7" d="M15.52,82.78c.26,1.57,1.59,2.7,3.17,2.7h31.22s.06,0,.08,0c.03,0,.06,0,.08,0h31.22c1.58,0,2.92-1.13,3.17-2.69l3.6-21.24H11.92l3.6,21.24Z"/></svg>