<svg width="48" height="60" xmlns="http://www.w3.org/2000/svg" xmlns:xlink="http://www.w3.org/1999/xlink" xml:space="preserve" overflow="hidden"><defs><clipPath id="clip0"><rect x="72" y="554" width="48" height="60"/></clipPath><clipPath id="clip1"><rect x="72" y="554" width="48" height="60"/></clipPath><clipPath id="clip2"><rect x="72" y="555" width="47" height="59"/></clipPath><clipPath id="clip3"><rect x="72" y="555" width="47" height="59"/></clipPath><clipPath id="clip4"><rect x="72" y="555" width="47" height="59"/></clipPath></defs><g clip-path="url(#clip0)" transform="translate(-72 -554)"><g clip-path="url(#clip1)"><g clip-path="url(#clip2)"><g clip-path="url(#clip3)"><g clip-path="url(#clip4)"><path d="M28.2969 8.63331C24.8439 8.63331 22.0357 11.4416 22.0357 14.8946 22.0357 15.7068 22.6922 16.3633 23.5044 16.3633 24.3166 16.3633 24.9732 15.7068 24.9732 14.8946 24.9732 13.0616 26.4639 11.5708 28.2969 11.5708 30.1299 11.5708 31.6207 13.0616 31.6207 14.8946 31.6207 16.7261 30.1299 18.2169 28.2969 18.2169 27.4847 18.2169 26.8282 18.8734 26.8282 19.6857 26.8282 19.715 26.8429 19.7385 26.8443 19.7664 26.8429 19.7958 26.8282 19.8193 26.8282 19.8487L26.8282 22.9052C26.8282 23.7174 27.4847 24.3739 28.2969 24.3739 29.1092 24.3739 29.7657 23.7174 29.7657 22.9052L29.7657 20.9635C32.5078 20.2981 34.5582 17.8394 34.5582 14.8961 34.5568 11.4416 31.7485 8.63331 28.2969 8.63331Z" fill="#ffffff" fill-rule="nonzero" fill-opacity="1" transform="matrix(1 0 0 1.00426 72 555)"/><path d="M28.2969 24.9276C27.4847 24.9276 26.8282 25.5842 26.8282 26.3964L26.8282 27.3055C26.8282 28.1177 27.4847 28.7743 28.2969 28.7743 29.1092 28.7743 29.7657 28.1177 29.7657 27.3055L29.7657 26.3964C29.7657 25.5842 29.1077 24.9276 28.2969 24.9276Z" fill="#ffffff" fill-rule="nonzero" fill-opacity="1" transform="matrix(1 0 0 1.00426 72 555)"/><path d="M28.2969 2.9375C19.6034 2.9375 12.5299 10.0095 12.5299 18.7031 12.5299 22.5894 13.9502 26.1437 16.2899 28.8947L12.5064 32.665C10.8746 31.9292 8.81838 32.195 7.51706 33.4978L4.23 36.7848C3.39722 37.6176 2.9375 38.7251 2.9375 39.9015 2.9375 41.0795 3.39722 42.1869 4.22706 43.0168 5.05837 43.8481 6.16581 44.3078 7.34375 44.3078 8.52022 44.3078 9.62766 43.8481 10.459 43.0168L13.746 39.7297C14.5773 38.8984 15.0371 37.7909 15.0371 36.6145 15.0371 35.9491 14.8755 35.3117 14.5979 34.7286L18.3902 30.9539C21.1001 33.1497 24.5443 34.4716 28.2955 34.4716 36.9905 34.4701 44.0625 27.3966 44.0625 18.7031 44.0625 10.0095 36.9905 2.9375 28.2969 2.9375ZM11.6692 37.6529 8.38216 40.9399C7.82256 41.4937 6.86053 41.4966 6.30534 40.9385 6.02775 40.6623 5.875 40.2952 5.875 39.9015 5.875 39.5094 6.02775 39.1407 6.30534 38.8631L9.59241 35.5761C9.87 35.2999 10.2387 35.1457 10.6308 35.1457 11.0244 35.1457 11.3916 35.2985 11.6692 35.5775 11.9468 35.8537 12.0996 36.2208 12.0996 36.6145 12.0996 37.0052 11.9468 37.3738 11.6692 37.6529ZM28.2969 31.5326C21.2234 31.5326 15.4689 25.778 15.4689 18.7045 15.4689 11.631 21.222 5.875 28.2969 5.875 35.3719 5.875 41.125 11.6296 41.125 18.7031 41.125 25.7766 35.3704 31.5326 28.2969 31.5326Z" fill="#ffffff" fill-rule="nonzero" fill-opacity="1" transform="matrix(1 0 0 1.00426 72 555)"/><text fill="#ffffff" fill-opacity="1" font-family="Helvetica Neue,Helvetica Neue_MSFontService,sans-serif" font-style="normal" font-variant="normal" font-weight="700" font-stretch="normal" font-size="5" text-anchor="start" direction="ltr" writing-mode="lr-tb" unicode-bidi="normal" text-decoration="none" transform="matrix(1.46875 0 0 1.475 72 624)">Created by win cahyono</text><text fill="#ffffff" fill-opacity="1" font-family="Helvetica Neue,Helvetica Neue_MSFontService,sans-serif" font-style="normal" font-variant="normal" font-weight="700" font-stretch="normal" font-size="5" text-anchor="start" direction="ltr" writing-mode="lr-tb" unicode-bidi="normal" text-decoration="none" transform="matrix(1.46875 0 0 1.475 72 632)">from the Noun Project</text></g></g></g></g></g></svg>