<svg xmlns:dc="http://purl.org/dc/elements/1.1/" xmlns:cc="http://creativecommons.org/ns#" xmlns:rdf="http://www.w3.org/1999/02/22-rdf-syntax-ns#" xmlns:svg="http://www.w3.org/2000/svg" xmlns="http://www.w3.org/2000/svg" xmlns:sodipodi="http://sodipodi.sourceforge.net/DTD/sodipodi-0.dtd" xmlns:inkscape="http://www.inkscape.org/namespaces/inkscape" viewBox="0 0 64 80" version="1.1" xml:space="preserve" style="" x="0px" y="0px" fill-rule="evenodd" clip-rule="evenodd" stroke-linejoin="round" stroke-miterlimit="2">
<path style="" d="m 37.00032,49.99968 a 1,1 0 0 1 -1,1 1,1 0 0 1 -1,-1 1,1 0 0 1 1,-1 1,1 0 0 1 1,1 z" stroke-width="0.2" fill="#005AA7"/>
<path d="m 27.99988,50.99848 h 4.00002 c 0.551848,0 0.999974,-0.448 0.999974,-1 0,-0.552 -0.448126,-1 -0.999974,-1 h -4.00002 c -0.551973,0 -0.999974,0.448 -0.999974,1 0,0.552 0.448001,1 0.999974,1 z" style="" stroke-width="0.354147" fill="#005AA7"/>
<path d="m 33.00032,30.99968 v 4.465 l 5.303,3.535 h 8.697 v -3 c 0,-0.552 0.448,-1 1,-1 h 10 c 0.552,0 1,0.448 1,1 v 8 c 0,0.552 -0.448,1 -1,1 h -4 v 12 c 0,0.552 -0.448,1 -1,1 h -14 v 2 c 0,0.552 -0.448,1 -1,1 h -12 c -0.552,0 -1,-0.448 -1,-1 v -2 h -14 c -0.552,0 -1,-0.448 -1,-1 v -12 h -4 c -0.552,0 -1,-0.448 -1,-1 v -8 c 0,-0.552 0.448,-1 1,-1 h 10 c 0.552,0 1,0.448 1,1 v 3 h 8.697 l 5.303,-3.535 v -4.465 z m 14,10 h -8.697 l -5.748,3.832 c -0.336,0.224 -0.774,0.224 -1.11,0 l -5.748,-3.832 h -8.697 v 3 c 0,0.552 -0.448,1 -1,1 h -4 v 11 h 13 v -2 c 0,-0.552 0.448,-1 1,-1 h 12 c 0.552,0 1,0.448 1,1 v 2 h 13 v -11 h -4 c -0.552,0 -1,-0.448 -1,-1 z m -19.197,-1 4.197,2.798 4.197,-2.798 -4.197,-2.798 z m 5.197,-11.039 h -2 c -0.261,-0.02 -0.522,-0.048 -0.781,-0.084 -0.367,-0.05 -0.676,-0.3 -0.803,-0.649 l -0.792,-2.18 c -0.459,-0.154 -0.908,-0.34 -1.341,-0.556 l -2.102,0.982 c -0.336,0.157 -0.732,0.115 -1.027,-0.109 -0.951,-0.72 -1.799,-1.568 -2.519,-2.519 -0.224,-0.295 -0.266,-0.691 -0.109,-1.027 l 0.982,-2.102 c -0.216,-0.433 -0.402,-0.881 -0.556,-1.341 l -2.18,-0.792 c -0.349,-0.127 -0.599,-0.436 -0.649,-0.803 -0.164,-1.182 -0.164,-2.38 0,-3.562 0.05,-0.367 0.3,-0.676 0.649,-0.803 l 2.18,-0.792 c 0.154,-0.459 0.34,-0.908 0.556,-1.341 l -0.982,-2.102 c -0.157,-0.336 -0.115,-0.732 0.109,-1.027 0.72,-0.951 1.568,-1.799 2.519,-2.519 0.295,-0.224 0.691,-0.266 1.027,-0.109 l 2.102,0.982 c 0.433,-0.216 0.881,-0.402 1.341,-0.556 l 0.792,-2.18 c 0.127,-0.349 0.436,-0.599 0.803,-0.649 1.182,-0.164 2.38,-0.164 3.562,0 0.367,0.05 0.676,0.3 0.803,0.649 l 0.792,2.18 c 0.459,0.154 0.908,0.34 1.341,0.556 l 2.102,-0.982 c 0.336,-0.157 0.732,-0.115 1.027,0.109 0.951,0.72 1.799,1.568 2.519,2.519 0.224,0.295 0.266,0.691 0.109,1.027 l -0.982,2.102 c 0.216,0.433 0.402,0.881 0.556,1.341 l 2.18,0.792 c 0.349,0.127 0.599,0.436 0.649,0.803 0.164,1.182 0.164,2.38 0,3.562 -0.05,0.367 -0.3,0.676 -0.649,0.803 l -2.18,0.792 c -0.154,0.459 -0.34,0.908 -0.556,1.341 l 0.982,2.102 c 0.157,0.336 0.115,0.732 -0.109,1.027 -0.72,0.951 -1.568,1.799 -2.519,2.519 -0.295,0.224 -0.691,0.266 -1.027,0.109 l -2.102,-0.982 c -0.433,0.216 -0.881,0.402 -1.341,0.556 l -0.792,2.18 c -0.127,0.349 -0.436,0.599 -0.803,0.649 -0.259,0.036 -0.52,0.064 -0.781,0.084 z m -1,-16.961 c -2.208,0 -4,1.792 -4,4 0,2.208 1.792,4 4,4 2.208,0 4,-1.792 4,-4 0,-2.208 -1.792,-4 -4,-4 z" style="" fill="#005AA7"/>
</svg>